<svg width="30" height="30" viewBox="0 0 30 30" fill="none" xmlns="http://www.w3.org/2000/svg">
<path d="M15 27.5C15 27.5 24.375 20 24.375 11.875C24.375 6.69731 20.1777 2.5 15 2.5C9.82231 2.5 5.625 6.69731 5.625 11.875C5.625 20 15 27.5 15 27.5Z" stroke="#FBFBF9" stroke-width="3" stroke-linejoin="round"/>
<path d="M15 27.5C15 27.5 24.375 20 24.375 11.875C24.375 6.69731 20.1777 2.5 15 2.5C9.82231 2.5 5.625 6.69731 5.625 11.875C5.625 20 15 27.5 15 27.5Z" stroke="#FBFBF9" stroke-width="3" stroke-linejoin="round"/>
<path d="M15 9.625C16.2426 9.625 17.25 10.6324 17.25 11.875C17.25 13.1176 16.2426 14.125 15 14.125C13.7574 14.125 12.75 13.1176 12.75 11.875C12.75 10.6324 13.7574 9.625 15 9.625Z" stroke="#FBFBF9" stroke-width="3" stroke-linejoin="round"/>
<path d="M15 9.625C16.2426 9.625 17.25 10.6324 17.25 11.875C17.25 13.1176 16.2426 14.125 15 14.125C13.7574 14.125 12.75 13.1176 12.75 11.875C12.75 10.6324 13.7574 9.625 15 9.625Z" stroke="#FBFBF9" stroke-width="3" stroke-linejoin="round"/>
</svg>
