<svg width="16" height="16" viewBox="0 0 16 16" fill="none" xmlns="http://www.w3.org/2000/svg">
<g clip-path="url(#clip0_4019_3119)">
<path d="M8 14.6673C8 14.6673 13 10.6673 13 6.33398C13 3.57255 10.7614 1.33398 8 1.33398C5.23857 1.33398 3 3.57255 3 6.33398C3 10.6673 8 14.6673 8 14.6673Z" stroke="#FBFBF9" stroke-width="2" stroke-linejoin="round"/>
<path d="M8 14.6673C8 14.6673 13 10.6673 13 6.33398C13 3.57255 10.7614 1.33398 8 1.33398C5.23857 1.33398 3 3.57255 3 6.33398C3 10.6673 8 14.6673 8 14.6673Z" stroke="#FBFBF9" stroke-width="2" stroke-linejoin="round"/>
<path d="M8 5.33398C8.55228 5.33398 9 5.7817 9 6.33398C9 6.88627 8.55228 7.33398 8 7.33398C7.44772 7.33398 7 6.88627 7 6.33398C7 5.7817 7.44772 5.33398 8 5.33398Z" stroke="#FBFBF9" stroke-width="2" stroke-linejoin="round"/>
<path d="M8 5.33398C8.55228 5.33398 9 5.7817 9 6.33398C9 6.88627 8.55228 7.33398 8 7.33398C7.44772 7.33398 7 6.88627 7 6.33398C7 5.7817 7.44772 5.33398 8 5.33398Z" stroke="#FBFBF9" stroke-width="2" stroke-linejoin="round"/>
</g>
<defs>
<clipPath id="clip0_4019_3119">
<rect width="16" height="16" fill="white"/>
</clipPath>
</defs>
</svg>
