<svg width="28" height="20" viewBox="0 0 28 20" fill="none" xmlns="http://www.w3.org/2000/svg">
<path d="M27.7211 4.31547C27.7211 4.31547 27.4477 2.3549 26.6055 1.49403C25.5391 0.361011 24.3469 0.355457 23.8 0.288808C19.8844 -1.62976e-07 14.0055 0 14.0055 0H13.9945C13.9945 0 8.11563 -1.62976e-07 4.2 0.288808C3.65313 0.355457 2.46094 0.361011 1.39453 1.49403C0.552344 2.3549 0.284375 4.31547 0.284375 4.31547C0.284375 4.31547 0 6.62038 0 8.91974V11.0747C0 13.3741 0.278906 15.679 0.278906 15.679C0.278906 15.679 0.552344 17.6395 1.38906 18.5004C2.45547 19.6334 3.85547 19.5946 4.47891 19.7167C6.72109 19.9333 14 20 14 20C14 20 19.8844 19.9889 23.8 19.7056C24.3469 19.639 25.5391 19.6334 26.6055 18.5004C27.4477 17.6395 27.7211 15.679 27.7211 15.679C27.7211 15.679 28 13.3796 28 11.0747V8.91974C28 6.62038 27.7211 4.31547 27.7211 4.31547ZM11.107 13.6906V5.69842L18.6703 9.70841L11.107 13.6906Z" fill="white"/>
</svg>
