<svg width="40" height="40" viewBox="0 0 40 40" fill="none" xmlns="http://www.w3.org/2000/svg">
<path d="M19.9974 14.9987C23.2191 14.9987 25.8307 12.387 25.8307 9.16536C25.8307 5.9437 23.2191 3.33203 19.9974 3.33203C16.7757 3.33203 14.1641 5.9437 14.1641 9.16536C14.1641 12.387 16.7757 14.9987 19.9974 14.9987Z" stroke="#28694D" stroke-width="2" stroke-linecap="round" stroke-linejoin="round"/>
<path d="M3.33594 34.1654C3.33594 26.8015 10.0517 20.832 18.3359 20.832" stroke="#28694D" stroke-width="2" stroke-linecap="round" stroke-linejoin="round"/>
<path d="M23.3359 24.3346C23.3359 23.4457 29.1693 21.668 29.1693 21.668C29.1693 21.668 35.0026 23.4457 35.0026 24.3346C35.0026 31.4457 29.1693 35.0013 29.1693 35.0013C29.1693 35.0013 23.3359 31.4457 23.3359 24.3346Z" stroke="#28694D" stroke-width="2" stroke-linecap="round" stroke-linejoin="round"/>
</svg>
