<svg width="40" height="40" viewBox="0 0 40 40" fill="none" xmlns="http://www.w3.org/2000/svg">
<g clip-path="url(#clip0_1778_3332)">
<path d="M7.63415 5.79986V15.2999M3 10.5499H12.2683M8.56098 29.5499V37.1499M4.85366 33.3499H12.2683M19.5023 17.5243L14.1881 19.0806C11.5242 19.8608 10.1922 20.2509 10.1922 21C10.1922 21.7491 11.5242 22.1392 14.1881 22.9194L19.5023 24.4757C20.0428 24.634 20.313 24.7131 20.498 24.9067C20.683 25.1004 20.7497 25.374 20.8832 25.9211L22.374 32.0335C23.1458 35.1977 23.5317 36.7798 24.3171 36.7798C25.1025 36.7798 25.4884 35.1977 26.2601 32.0335L27.7509 25.9211C27.8844 25.374 27.9511 25.1004 28.1361 24.9067C28.3211 24.7131 28.5914 24.634 29.1319 24.4757L34.446 22.9194C37.11 22.1392 38.4419 21.7491 38.4419 21C38.4419 20.2509 37.11 19.8608 34.446 19.0806L29.1319 17.5243C28.5914 17.366 28.3211 17.2869 28.1361 17.0933C27.9511 16.8996 27.8844 16.626 27.7509 16.0789L26.2601 9.96646C25.4884 6.80228 25.1025 5.22019 24.3171 5.22019C23.5317 5.22019 23.1458 6.80228 22.374 9.96647L20.8832 16.0789C20.7497 16.626 20.683 16.8996 20.498 17.0933C20.313 17.2869 20.0428 17.366 19.5023 17.5243Z" stroke="#28694D" stroke-width="2" stroke-linecap="round" stroke-linejoin="round"/>
</g>
<defs>
<clipPath id="clip0_1778_3332">
<rect width="40" height="40" fill="white"/>
</clipPath>
</defs>
</svg>
