<svg width="24" height="24" viewBox="0 0 24 24" fill="none" xmlns="http://www.w3.org/2000/svg">
<g opacity="0.8">
<path fill-rule="evenodd" clip-rule="evenodd" d="M5.28497 5.29358C5.4725 5.1061 5.72681 5.00078 5.99197 5.00078C6.25714 5.00078 6.51145 5.1061 6.69897 5.29358L11.992 10.5868L17.285 5.29358C17.3772 5.19807 17.4876 5.12188 17.6096 5.06947C17.7316 5.01706 17.8628 4.98947 17.9956 4.98832C18.1284 4.98717 18.26 5.01247 18.3829 5.06275C18.5058 5.11303 18.6175 5.18729 18.7114 5.28119C18.8053 5.37509 18.8795 5.48674 18.9298 5.60965C18.9801 5.73255 19.0054 5.86423 19.0042 5.99702C19.0031 6.12981 18.9755 6.26103 18.9231 6.38304C18.8707 6.50505 18.7945 6.6154 18.699 6.70765L13.406 12.0009L18.699 17.2942C18.8811 17.4828 18.9819 17.7354 18.9797 17.9976C18.9774 18.2598 18.8722 18.5106 18.6868 18.6961C18.5014 18.8815 18.2506 18.9866 17.9884 18.9889C17.7262 18.9912 17.4736 18.8904 17.285 18.7082L11.992 13.415L6.69897 18.7082C6.51037 18.8904 6.25777 18.9912 5.99557 18.9889C5.73338 18.9866 5.48256 18.8815 5.29716 18.6961C5.11175 18.5106 5.00658 18.2598 5.0043 17.9976C5.00202 17.7354 5.10282 17.4828 5.28497 17.2942L10.578 12.0009L5.28497 6.70765C5.0975 6.52012 4.99219 6.2658 4.99219 6.00062C4.99219 5.73544 5.0975 5.48112 5.28497 5.29358Z" fill="#404040"/>
</g>
</svg>
