<svg width="205" height="56" viewBox="0 0 205 56" fill="none" xmlns="http://www.w3.org/2000/svg">
<g clip-path="url(#clip0_4017_748)">
<path d="M108.164 45.7797V38.6641H109.217V44.8815H112.719V45.7797H108.164Z" fill="#2E2D2D"/>
<path d="M114.913 45.7783L112.727 40.6914H113.82L115.541 44.9405H115.247L116.998 40.6914H118.041L115.844 45.7783H114.913Z" fill="#2E2D2D"/>
<path d="M119.05 45.7806V40.6937H120.072V45.7806H119.05ZM118.969 39.6339V38.5742H120.153V39.6339H118.969Z" fill="#2E2D2D"/>
<path d="M123.272 45.7783L121.086 40.6914H122.179L123.9 44.9405H123.606L125.358 40.6914H126.4L124.204 45.7783H123.272Z" fill="#2E2D2D"/>
<path d="M130.406 45.7797V38.6641H131.459V41.7324H135.468V38.6641H136.52V45.7797H135.468V42.6105H131.459V45.7797H130.406Z" fill="#2E2D2D"/>
<path d="M140.263 45.8702C139.811 45.8702 139.416 45.7659 139.079 45.5573C138.741 45.3487 138.478 45.0459 138.289 44.649C138.107 44.2519 138.016 43.781 138.016 43.2359C138.016 42.6841 138.107 42.2131 138.289 41.8229C138.478 41.4326 138.741 41.1331 139.079 40.9245C139.416 40.7092 139.811 40.6016 140.263 40.6016C140.709 40.6016 141.096 40.7126 141.428 40.9346C141.758 41.1567 141.977 41.4595 142.085 41.8431H141.974L142.075 40.6924H143.066C143.047 40.901 143.027 41.1096 143.006 41.3182C142.993 41.5201 142.986 41.7186 142.986 41.9136V45.7793H141.964V44.649H142.075C141.967 45.0257 141.744 45.3252 141.407 45.5472C141.077 45.7625 140.695 45.8702 140.263 45.8702ZM140.516 45.0729C140.954 45.0729 141.305 44.918 141.568 44.6085C141.839 44.299 141.974 43.8414 141.974 43.2359C141.974 42.6303 141.839 42.1761 141.568 41.8733C141.305 41.5638 140.954 41.4091 140.516 41.4091C140.071 41.4091 139.713 41.5638 139.443 41.8733C139.18 42.1761 139.048 42.6303 139.048 43.2359C139.048 43.8414 139.18 44.299 139.443 44.6085C139.706 44.918 140.064 45.0729 140.516 45.0729Z" fill="#2E2D2D"/>
<path d="M147.404 45.8708C146.957 45.8708 146.57 45.7598 146.24 45.5378C145.908 45.3157 145.689 45.0129 145.581 44.6293H145.692V45.78H144.68V38.3516H145.703V41.8236H145.581C145.696 41.4467 145.915 41.1506 146.24 40.9353C146.57 40.7132 146.957 40.6022 147.404 40.6022C147.856 40.6022 148.25 40.7099 148.587 40.9252C148.926 41.1338 149.185 41.4366 149.367 41.8336C149.556 42.2238 149.65 42.6949 149.65 43.2467C149.65 43.7917 149.556 44.2626 149.367 44.6597C149.185 45.0499 148.922 45.3493 148.577 45.5579C148.241 45.7665 147.849 45.8708 147.404 45.8708ZM147.15 45.0735C147.589 45.0735 147.943 44.922 148.212 44.6192C148.483 44.3097 148.618 43.8522 148.618 43.2467C148.618 42.6343 148.483 42.1768 148.212 41.874C147.943 41.5644 147.589 41.4097 147.15 41.4097C146.704 41.4097 146.348 41.5644 146.077 41.874C145.814 42.1768 145.682 42.6309 145.682 43.2366C145.682 43.8421 145.814 44.2996 146.077 44.6091C146.348 44.9187 146.704 45.0735 147.15 45.0735Z" fill="#2E2D2D"/>
<path d="M151.05 45.7806V40.6937H152.072V45.7806H151.05ZM150.969 39.6339V38.5742H152.154V39.6339H150.969Z" fill="#2E2D2D"/>
<path d="M153.773 45.78V38.3516H154.796V45.78H153.773Z" fill="#2E2D2D"/>
<path d="M156.495 45.7806V40.6937H157.518V45.7806H156.495ZM156.414 39.6339V38.5742H157.599V39.6339H156.414Z" fill="#2E2D2D"/>
<path d="M161.203 45.8708C160.65 45.8708 160.232 45.7227 159.948 45.4267C159.664 45.1239 159.523 44.6731 159.523 44.0742V41.4802H158.531V40.693H159.523V39.3507L160.546 39.0781V40.693H161.963V41.4802H160.546V43.9833C160.546 44.3602 160.614 44.6293 160.748 44.7908C160.883 44.9522 161.078 45.033 161.335 45.033C161.463 45.033 161.575 45.0229 161.669 45.0028C161.771 44.9759 161.862 44.9455 161.942 44.9119V45.7396C161.841 45.7799 161.723 45.8102 161.588 45.8303C161.453 45.8573 161.325 45.8708 161.203 45.8708Z" fill="#2E2D2D"/>
<path d="M165.053 45.8702C164.601 45.8702 164.206 45.7659 163.868 45.5573C163.531 45.3487 163.268 45.0459 163.078 44.649C162.896 44.2519 162.805 43.781 162.805 43.2359C162.805 42.6841 162.896 42.2131 163.078 41.8229C163.268 41.4326 163.531 41.1331 163.868 40.9245C164.206 40.7092 164.601 40.6016 165.053 40.6016C165.498 40.6016 165.885 40.7126 166.217 40.9346C166.547 41.1567 166.767 41.4595 166.874 41.8431H166.763L166.864 40.6924H167.857C167.836 40.901 167.816 41.1096 167.795 41.3182C167.782 41.5201 167.775 41.7186 167.775 41.9136V45.7793H166.753V44.649H166.864C166.756 45.0257 166.534 45.3252 166.196 45.5472C165.866 45.7625 165.484 45.8702 165.053 45.8702ZM165.305 45.0729C165.743 45.0729 166.095 44.918 166.358 44.6085C166.628 44.299 166.763 43.8414 166.763 43.2359C166.763 42.6303 166.628 42.1761 166.358 41.8733C166.095 41.5638 165.743 41.4091 165.305 41.4091C164.86 41.4091 164.502 41.5638 164.233 41.8733C163.969 42.1761 163.838 42.6303 163.838 43.2359C163.838 43.8414 163.969 44.299 164.233 44.6085C164.495 44.918 164.853 45.0729 165.305 45.0729Z" fill="#2E2D2D"/>
<path d="M171.455 45.8708C170.901 45.8708 170.483 45.7227 170.199 45.4267C169.916 45.1239 169.774 44.6731 169.774 44.0742V41.4802H168.781V40.693H169.774V39.3507L170.796 39.0781V40.693H172.213V41.4802H170.796V43.9833C170.796 44.3602 170.864 44.6293 170.998 44.7908C171.133 44.9522 171.33 45.033 171.585 45.033C171.714 45.033 171.825 45.0229 171.919 45.0028C172.021 44.9759 172.112 44.9455 172.193 44.9119V45.7396C172.092 45.7799 171.974 45.8102 171.839 45.8303C171.705 45.8573 171.575 45.8708 171.455 45.8708Z" fill="#2E2D2D"/>
<path d="M173.355 45.7806V40.6937H174.377V45.7806H173.355ZM173.273 39.6339V38.5742H174.459V39.6339H173.273Z" fill="#2E2D2D"/>
<path d="M178.262 45.8702C177.755 45.8702 177.317 45.7659 176.945 45.5573C176.575 45.342 176.288 45.0391 176.086 44.649C175.882 44.2519 175.781 43.781 175.781 43.2359C175.781 42.6909 175.882 42.2232 176.086 41.833C176.288 41.436 176.575 41.1331 176.945 40.9245C177.317 40.7092 177.755 40.6016 178.262 40.6016C178.768 40.6016 179.206 40.7092 179.578 40.9245C179.956 41.1331 180.246 41.436 180.449 41.833C180.658 42.2232 180.762 42.6909 180.762 43.2359C180.762 43.781 180.658 44.2519 180.449 44.649C180.246 45.0391 179.956 45.342 179.578 45.5573C179.206 45.7659 178.768 45.8702 178.262 45.8702ZM178.262 45.0729C178.707 45.0729 179.061 44.918 179.325 44.6085C179.588 44.299 179.72 43.8414 179.72 43.2359C179.72 42.6303 179.588 42.1761 179.325 41.8733C179.061 41.5638 178.707 41.4091 178.262 41.4091C177.823 41.4091 177.472 41.5638 177.209 41.8733C176.945 42.1761 176.815 42.6303 176.815 43.2359C176.815 43.8414 176.942 44.299 177.199 44.6085C177.462 44.918 177.816 45.0729 178.262 45.0729Z" fill="#2E2D2D"/>
<path d="M182.16 45.7793V41.9136C182.16 41.7186 182.148 41.5201 182.129 41.3182C182.115 41.1096 182.098 40.901 182.078 40.6924H183.069L183.161 41.7623H183.04C183.194 41.3856 183.434 41.0995 183.759 40.9044C184.082 40.7025 184.457 40.6016 184.882 40.6016C185.483 40.6016 185.935 40.7665 186.238 41.0962C186.549 41.4259 186.705 41.9373 186.705 42.6303V45.7793H185.681V42.6909C185.681 42.24 185.591 41.917 185.409 41.722C185.233 41.5201 184.964 41.4192 184.598 41.4192C184.166 41.4192 183.822 41.5537 183.566 41.8229C183.31 42.0853 183.182 42.4419 183.182 42.8927V45.7793H182.16Z" fill="#2E2D2D"/>
<path d="M111.374 55.9769C110.645 55.9769 110.024 55.8288 109.511 55.5328C108.998 55.2367 108.603 54.8162 108.327 54.2711C108.057 53.7194 107.922 53.0701 107.922 52.3232C107.922 51.5763 108.057 50.9303 108.327 50.3853C108.603 49.8403 108.998 49.4197 109.511 49.1238C110.024 48.8277 110.645 48.6797 111.374 48.6797C111.88 48.6797 112.332 48.7536 112.73 48.9017C113.128 49.0497 113.476 49.265 113.773 49.5477L113.408 50.3853C113.084 50.1095 112.767 49.911 112.457 49.7899C112.153 49.6688 111.799 49.6082 111.394 49.6082C110.625 49.6082 110.037 49.8436 109.633 50.3147C109.228 50.7857 109.025 51.4552 109.025 52.3232C109.025 53.1912 109.228 53.864 109.633 54.3418C110.037 54.8128 110.625 55.0483 111.394 55.0483C111.799 55.0483 112.153 54.9878 112.457 54.8667C112.767 54.7455 113.084 54.5437 113.408 54.2611L113.773 55.0988C113.476 55.3813 113.128 55.6 112.73 55.7549C112.332 55.9028 111.88 55.9769 111.374 55.9769Z" fill="#2E2D2D"/>
<path d="M117.207 55.9757C116.383 55.9757 115.736 55.7435 115.263 55.2792C114.791 54.8149 114.555 54.1723 114.555 53.3515C114.555 52.8199 114.656 52.3555 114.858 51.9586C115.067 51.5616 115.354 51.2554 115.719 51.0401C116.09 50.8181 116.518 50.707 117.004 50.707C117.483 50.707 117.885 50.808 118.209 51.0099C118.533 51.2117 118.779 51.4978 118.948 51.8678C119.116 52.2311 119.201 52.6617 119.201 53.1597V53.4827H115.354V52.8972H118.502L118.33 53.0285C118.33 52.5238 118.216 52.1335 117.986 51.8577C117.763 51.575 117.44 51.4338 117.014 51.4338C116.542 51.4338 116.178 51.5986 115.921 51.9283C115.665 52.2512 115.537 52.6988 115.537 53.2707V53.3717C115.537 53.9704 115.682 54.4212 115.972 54.7241C116.269 55.0269 116.687 55.1782 117.227 55.1782C117.524 55.1782 117.801 55.1379 118.057 55.0571C118.32 54.9698 118.57 54.8284 118.806 54.6332L119.14 55.3297C118.904 55.5383 118.617 55.6997 118.28 55.8141C117.942 55.9218 117.585 55.9757 117.207 55.9757Z" fill="#2E2D2D"/>
<path d="M120.573 55.8848V52.0191C120.573 51.8241 120.563 51.6256 120.543 51.4237C120.529 51.2151 120.512 51.0065 120.492 50.7979H121.484L121.575 51.8678H121.454C121.609 51.4909 121.849 51.205 122.172 51.0099C122.496 50.808 122.871 50.707 123.296 50.707C123.897 50.707 124.349 50.872 124.653 51.2017C124.963 51.5314 125.118 52.0428 125.118 52.7358V55.8848H124.096V52.7963C124.096 52.3455 124.005 52.0225 123.822 51.8275C123.647 51.6256 123.377 51.5246 123.013 51.5246C122.581 51.5246 122.237 51.6592 121.98 51.9283C121.724 52.1908 121.596 52.5473 121.596 52.9981V55.8848H120.573Z" fill="#2E2D2D"/>
<path d="M128.766 55.9763C128.213 55.9763 127.794 55.8281 127.511 55.5322C127.227 55.2294 127.086 54.7786 127.086 54.1796V51.5857H126.094V50.7985H127.086V49.4562L128.108 49.1836V50.7985H129.525V51.5857H128.108V54.0888C128.108 54.4657 128.176 54.7347 128.311 54.8963C128.446 55.0577 128.641 55.1385 128.898 55.1385C129.026 55.1385 129.137 55.1284 129.232 55.1083C129.333 55.0814 129.424 55.051 129.505 55.0174V55.8451C129.404 55.8854 129.286 55.9156 129.151 55.9358C129.016 55.9628 128.888 55.9763 128.766 55.9763Z" fill="#2E2D2D"/>
<path d="M132.965 55.9757C132.141 55.9757 131.493 55.7435 131.021 55.2792C130.549 54.8149 130.312 54.1723 130.312 53.3515C130.312 52.8199 130.414 52.3555 130.616 51.9586C130.825 51.5616 131.112 51.2554 131.477 51.0401C131.848 50.8181 132.276 50.707 132.762 50.707C133.241 50.707 133.643 50.808 133.967 51.0099C134.291 51.2117 134.537 51.4978 134.706 51.8678C134.874 52.2311 134.959 52.6617 134.959 53.1597V53.4827H131.112V52.8972H134.26L134.088 53.0285C134.088 52.5238 133.974 52.1335 133.744 51.8577C133.521 51.575 133.198 51.4338 132.772 51.4338C132.3 51.4338 131.936 51.5986 131.679 51.9283C131.423 52.2512 131.294 52.6988 131.294 53.2707V53.3717C131.294 53.9704 131.44 54.4212 131.73 54.7241C132.027 55.0269 132.445 55.1782 132.985 55.1782C133.282 55.1782 133.559 55.1379 133.815 55.0571C134.078 54.9698 134.328 54.8284 134.564 54.6332L134.898 55.3297C134.662 55.5383 134.375 55.6997 134.038 55.8141C133.7 55.9218 133.343 55.9757 132.965 55.9757Z" fill="#2E2D2D"/>
<path d="M136.318 55.8848V52.0596C136.318 51.851 136.312 51.6424 136.298 51.4338C136.292 51.2185 136.278 51.0065 136.258 50.7979H137.25L137.361 52.11H137.199C137.267 51.7937 137.381 51.5314 137.543 51.3228C137.705 51.1142 137.901 50.9595 138.13 50.8585C138.367 50.7576 138.613 50.707 138.869 50.707C138.977 50.707 139.069 50.7138 139.143 50.7272C139.217 50.7339 139.291 50.7475 139.365 50.7677L139.355 51.676C139.241 51.6289 139.139 51.6019 139.052 51.5952C138.971 51.5818 138.869 51.575 138.748 51.575C138.451 51.575 138.198 51.6424 137.989 51.7769C137.78 51.9047 137.621 52.0797 137.513 52.3018C137.405 52.5238 137.351 52.7627 137.351 53.0184V55.8848H136.318Z" fill="#2E2D2D"/>
<path d="M107.742 32.1672V0H114.881V12.9125H129.662V0H136.846V32.1672H129.662V18.7985H114.881V32.1672H107.742Z" fill="#2E2D2D"/>
<path d="M139.609 32.1672L154.436 0H160.339L175.349 32.1672H168.119L164.228 23.2243L167.02 25.1863H147.847L150.683 23.2243L146.794 32.1672H139.609ZM157.365 7.48289L151.461 21.4449L150.225 19.711H164.641L163.588 21.4449L157.548 7.48289H157.365Z" fill="#2E2D2D"/>
<path d="M178.125 32.1672V0H192.997C196.536 0 199.267 0.745246 201.189 2.23574C203.111 3.72624 204.072 5.76426 204.072 8.34981C204.072 10.2662 203.492 11.8935 202.333 13.2319C201.204 14.5704 199.649 15.4676 197.665 15.9239V15.1939C199.984 15.5893 201.769 16.4714 203.02 17.8403C204.3 19.1787 204.941 20.9278 204.941 23.0874C204.941 25.9468 203.92 28.1826 201.876 29.7947C199.862 31.3764 197.071 32.1672 193.501 32.1672H178.125ZM184.943 26.8745H192.631C194.401 26.8745 195.758 26.5399 196.704 25.8707C197.651 25.2015 198.122 24.1368 198.122 22.6768C198.122 21.1863 197.651 20.1216 196.704 19.4828C195.758 18.8136 194.401 18.479 192.631 18.479H184.943V26.8745ZM184.943 13.2319H191.717C193.577 13.2319 194.95 12.8973 195.835 12.2281C196.72 11.5589 197.162 10.5551 197.162 9.21673C197.162 7.90874 196.72 6.92014 195.835 6.25094C194.95 5.58174 193.577 5.24714 191.717 5.24714H184.943V13.2319Z" fill="#2E2D2D"/>
<path d="M50.6694 34.0844C53.7042 34.0844 56.1644 31.6313 56.1644 28.6055V27.3946C56.1644 24.3687 53.7042 21.9157 50.6694 21.9157C41.565 21.9157 34.1845 14.5566 34.1845 5.47896C34.1845 2.45302 31.7242 3.70381e-07 28.6895 1.05846e-07L27.4752 0C24.4403 -2.64536e-07 21.9801 2.453 21.9801 5.47894C21.9801 14.5568 14.5995 21.9157 5.49504 21.9157C2.46021 21.9157 1.85722e-07 24.3687 5.30755e-08 27.3946L0 28.6054C-1.3266e-07 31.6313 2.46024 34.0844 5.49505 34.0844C14.5995 34.0844 21.9801 41.4434 21.9801 50.5211C21.9801 53.5471 24.4404 56 27.4751 56H28.6895C31.7243 56 34.1845 53.5471 34.1845 50.5211C34.1845 41.4434 41.565 34.0844 50.6694 34.0844Z" fill="#2E2D2D"/>
<path d="M95.7318 34.0844C98.7666 34.0844 101.227 31.6313 101.227 28.6055V27.3946C101.227 24.3687 98.7666 21.9157 95.7318 21.9157C86.6274 21.9157 79.2468 14.5566 79.2468 5.47896C79.2468 2.45302 76.7867 3.70381e-07 73.7518 1.05846e-07L72.5376 0C69.5027 -2.64536e-07 67.0426 2.453 67.0426 5.47894C67.0426 14.5568 59.6619 21.9157 50.5575 21.9157C47.5226 21.9157 45.0625 24.3687 45.0625 27.3946V28.6054C45.0625 31.6313 47.5226 34.0844 50.5575 34.0844C59.6619 34.0844 67.0426 41.4434 67.0426 50.5211C67.0426 53.5471 69.5027 56 72.5376 56H73.7518C76.7867 56 79.2468 53.5471 79.2468 50.5211C79.2468 41.4434 86.6274 34.0844 95.7318 34.0844Z" fill="#2E2D2D"/>
</g>
<defs>
<clipPath id="clip0_4017_748">
<rect width="205" height="56" fill="white"/>
</clipPath>
</defs>
</svg>
