<svg width="155" height="72" viewBox="0 0 155 72" fill="none" xmlns="http://www.w3.org/2000/svg">
<g clip-path="url(#clip0_4091_1250)">
<path d="M136.966 0V55.0735H18.256V0H0V71.7628H154.492V0H136.966Z" fill="#2E2D2D"/>
<path d="M33.6939 50.4864C32.624 51.397 31.1463 51.8534 29.2611 51.8534C27.346 51.8534 25.8642 51.3991 24.8154 50.4948C23.7666 49.5905 23.2422 48.1959 23.2422 46.3087V37.7051H26.3483V46.3087C26.3483 46.6866 26.3823 47.0538 26.4501 47.4147C26.5138 47.7756 26.6561 48.0961 26.8641 48.3743C27.0764 48.6502 27.3694 48.8773 27.7474 49.0514C28.121 49.2254 28.6262 49.3125 29.2611 49.3125C30.3672 49.3125 31.1336 49.0704 31.5561 48.5865C31.9764 48.1025 32.1866 47.3447 32.1866 46.3087V37.7051H35.2948V46.3087C35.2969 48.1832 34.764 49.5757 33.6939 50.4864Z" fill="#2E2D2D"/>
<path d="M40.6572 37.7051L46.555 46.9859H46.5954V37.7051H49.504V51.5393H46.3958L40.5192 42.2775H40.4768V51.5393H37.5703V37.7051H40.6572Z" fill="#2E2D2D"/>
<path d="M58.4895 37.7051C59.1647 37.7051 59.7761 37.7623 60.3281 37.8791C60.8822 37.9958 61.3578 38.189 61.7526 38.4501C62.1475 38.7176 62.4575 39.07 62.6762 39.5073C62.8949 39.9488 63.001 40.4901 63.001 41.1355C63.001 41.8339 62.8375 42.4133 62.517 42.8803C62.1922 43.3452 61.7144 43.7295 61.0818 44.0246C61.9522 44.2708 62.6019 44.7017 63.0307 45.3153C63.4596 45.9287 63.6741 46.6674 63.6741 47.5335C63.6741 48.2298 63.5339 48.8369 63.2579 49.3443C62.9819 49.8558 62.6082 50.2697 62.139 50.5946C61.6698 50.9172 61.1369 51.155 60.5362 51.3121C59.9354 51.4649 59.3197 51.5414 58.6869 51.5414H51.8359V37.7051H58.4895ZM58.0946 43.3049C58.6487 43.3049 59.1031 43.1754 59.4619 42.9185C59.8143 42.6618 59.9948 42.2414 59.9948 41.6598C59.9948 41.3371 59.9332 41.0718 59.8143 40.8659C59.6975 40.6579 59.5383 40.4944 59.343 40.3818C59.1434 40.2651 58.9162 40.1823 58.6594 40.1399C58.4025 40.0932 58.135 40.0698 57.8569 40.0698H54.9483V43.3049H58.0946ZM58.2709 49.1787C58.5745 49.1787 58.8653 49.1511 59.1413 49.0938C59.4194 49.0364 59.6614 48.9366 59.8738 48.8029C60.086 48.6671 60.2517 48.4803 60.3769 48.251C60.5064 48.0175 60.568 47.7203 60.568 47.3595C60.568 46.6484 60.362 46.1431 59.9544 45.8395C59.5469 45.536 59.0034 45.3832 58.3303 45.3832H54.9461V49.1808H58.2709V49.1787Z" fill="#2E2D2D"/>
<path d="M73.0046 37.7051C73.6351 37.7051 74.2062 37.807 74.7158 38.0065C75.2253 38.2061 75.6605 38.482 76.0215 38.8302C76.3866 39.1762 76.6626 39.5816 76.8558 40.0402C77.0469 40.5008 77.1403 40.9933 77.1403 41.524C77.1403 42.337 76.9662 43.0418 76.6159 43.6361C76.2656 44.2284 75.6966 44.6805 74.9026 44.9905V45.0308C75.2848 45.1348 75.6011 45.2919 75.8558 45.5063C76.1043 45.7186 76.3102 45.9712 76.4694 46.2641C76.6265 46.5529 76.7433 46.8734 76.8133 47.2215C76.8877 47.5718 76.9365 47.9199 76.9641 48.2701C76.9768 48.491 76.9916 48.7478 77.0044 49.045C77.0171 49.3422 77.0405 49.6458 77.0724 49.9557C77.1063 50.2656 77.1573 50.5585 77.2316 50.8388C77.3059 51.1147 77.412 51.3503 77.5585 51.5435H74.4504C74.2784 51.1063 74.1744 50.5819 74.134 49.9748C74.0937 49.3676 74.0321 48.786 73.9535 48.2298C73.8496 47.5059 73.6245 46.9752 73.2827 46.6421C72.9387 46.3045 72.3783 46.1368 71.5991 46.1368H68.491V51.5435H65.3828V37.7072H73.0046V37.7051ZM71.8943 43.9631C72.6055 43.9631 73.1426 43.8102 73.4972 43.4982C73.8559 43.1883 74.03 42.6852 74.03 41.9868C74.03 41.3159 73.8559 40.8277 73.4972 40.5242C73.1426 40.2206 72.6055 40.0678 71.8943 40.0678H68.491V43.9631H71.8943Z" fill="#2E2D2D"/>
<path d="M79.1339 41.8013C79.4503 40.9161 79.9025 40.1434 80.499 39.4832C81.0913 38.8273 81.8196 38.3093 82.6836 37.9358C83.5477 37.5622 84.5222 37.3711 85.6049 37.3711C86.6983 37.3711 87.6749 37.5622 88.5326 37.9358C89.3903 38.3093 90.1164 38.8273 90.713 39.4832C91.3054 40.1413 91.7617 40.914 92.0759 41.8013C92.3923 42.6866 92.5516 43.6461 92.5516 44.6799C92.5516 45.6882 92.3923 46.6285 92.0759 47.4988C91.7596 48.3693 91.3031 49.1291 90.713 49.7766C90.1185 50.424 89.3924 50.9292 88.5326 51.2966C87.6749 51.6638 86.7004 51.8506 85.6049 51.8506C84.5222 51.8506 83.5477 51.6638 82.6836 51.2966C81.8196 50.9292 81.0892 50.4219 80.499 49.7766C79.9046 49.1291 79.4503 48.3693 79.1339 47.4988C78.8155 46.6285 78.6562 45.6882 78.6562 44.6799C78.6562 43.6482 78.8155 42.6887 79.1339 41.8013ZM81.9724 46.376C82.1104 46.9278 82.3312 47.4203 82.6348 47.8597C82.9384 48.297 83.3333 48.6515 83.8237 48.9169C84.312 49.1801 84.9065 49.3117 85.6049 49.3117C86.3034 49.3117 86.8957 49.1801 87.3862 48.9169C87.8744 48.6494 88.2693 48.297 88.5729 47.8597C88.8765 47.4225 89.0974 46.9278 89.2374 46.376C89.3755 45.8282 89.4456 45.2636 89.4456 44.682C89.4456 44.0748 89.3755 43.4868 89.2374 42.9201C89.0974 42.3491 88.8765 41.8437 88.5729 41.3959C88.2693 40.9523 87.8744 40.5956 87.3862 40.3303C86.8957 40.067 86.3034 39.9354 85.6049 39.9354C84.9065 39.9354 84.312 40.067 83.8237 40.3303C83.3333 40.5977 82.9384 40.9523 82.6348 41.3959C82.3312 41.8437 82.1104 42.3491 81.9724 42.9201C81.8344 43.4868 81.7643 44.0748 81.7643 44.682C81.7643 45.2615 81.8344 45.8261 81.9724 46.376Z" fill="#2E2D2D"/>
<path d="M97.3816 37.7051V43.4429L102.904 37.7051H106.785L101.263 43.1691L107.317 51.5393H103.417L99.1628 45.3217L97.3816 47.0836V51.5393H94.2734V37.7051H97.3816Z" fill="#2E2D2D"/>
<path d="M118.743 37.7051V40.261H111.281V43.2286H118.129V45.5912H111.281V48.9835H118.902V51.5393H108.172V37.7051H118.743Z" fill="#2E2D2D"/>
<path d="M123.688 37.7051L129.586 46.9859H129.624V37.7051H132.534V51.5393H129.427L123.55 42.2775H123.51V51.5393H120.602V37.7051H123.688Z" fill="#2E2D2D"/>
</g>
<defs>
<clipPath id="clip0_4091_1250">
<rect width="155" height="72" fill="white"/>
</clipPath>
</defs>
</svg>
