<svg width="374" height="56" viewBox="0 0 374 56" fill="none" xmlns="http://www.w3.org/2000/svg">
<path d="M129.695 2.71484C130.209 4.45331 130.721 6.19179 131.248 7.93026C132.144 10.8804 133.065 13.8305 133.973 16.7807C134.039 16.9914 134.118 17.189 134.145 17.2944C134.605 16.5436 134.987 15.7007 135.553 15.0027C136.553 13.7515 137.975 13.2378 139.528 13.0799C142.214 12.8033 144.662 13.3959 146.755 15.2002C148.532 16.7411 149.652 18.7036 150.349 20.903C151.547 24.7092 152.692 28.5286 153.864 32.3347C154.865 35.601 155.852 38.854 156.852 42.1203C156.931 42.3837 156.997 42.6471 157.088 42.9368C156.918 42.95 156.773 42.9631 156.628 42.9631C153.864 42.9631 151.112 42.95 148.348 42.9764C147.941 42.9764 147.796 42.8315 147.69 42.4759C145.755 36.1409 143.82 29.8193 141.871 23.4975C141.766 23.1419 141.621 22.7863 141.45 22.4571C140.766 21.1401 139.397 20.5606 137.962 20.9425C136.936 21.2191 136.356 22.0093 136.33 23.1946C136.316 24.538 136.712 25.8023 137.093 27.0799C138.673 32.2558 140.266 37.4316 141.845 42.6075C141.871 42.6998 141.898 42.8052 141.938 42.95C141.793 42.9631 141.662 42.9764 141.542 42.9764C138.752 42.9764 135.947 42.9764 133.157 42.9895C132.801 42.9895 132.656 42.8842 132.565 42.5548C130.788 36.6942 128.984 30.8334 127.194 24.9857C125.456 19.2963 123.705 13.5934 121.968 7.90393C121.441 6.19179 120.915 4.46649 120.375 2.75435C123.482 2.71484 126.588 2.71484 129.695 2.71484ZM54.1607 13.4486H55.951C57.7939 13.4486 59.6368 13.4618 61.4666 13.4355C61.7694 13.4355 61.9142 13.5276 62.0458 13.7911C62.6646 15.0554 63.3095 16.3065 63.9546 17.571C64.0073 17.6762 64.0731 17.7685 64.139 17.887C64.3627 17.2154 64.5207 16.5436 64.7971 15.9247C65.6659 13.9886 67.2719 13.172 69.2991 13.0403C72.5506 12.8164 75.1965 14.1467 77.4607 16.3328C80.3831 19.1513 82.1997 22.6283 83.4634 26.4345C83.5293 26.6452 83.6214 26.8691 83.7662 27.0535C83.6345 26.0658 83.4767 25.078 83.3844 24.0902C83.2397 22.3649 83.1739 20.6264 83.7004 18.9407C84.6614 15.8324 86.8203 13.9886 89.9401 13.3828C95.7848 12.2238 100.84 13.7911 104.881 18.2162C107.514 21.1005 109.199 24.4984 109.699 28.4232C109.791 29.1081 109.778 29.8061 109.818 30.5436H94.2051C94.508 31.2285 94.7581 31.8606 95.0476 32.4664C95.7454 33.9152 96.5747 35.2718 97.8516 36.299C98.4308 36.7731 99.089 37.0629 99.8262 37.1814C101.695 37.458 102.827 36.5229 102.88 34.6264C102.893 34.0073 102.88 33.3752 102.88 32.6772C103.552 32.7562 104.236 32.822 104.921 32.9143C106.816 33.1382 108.699 33.3752 110.594 33.5859C110.884 33.6123 110.976 33.7177 111.002 33.9811C111.252 36.378 110.937 38.6301 109.251 40.5135C108.001 41.9096 106.408 42.7393 104.605 43.0818C99.2733 44.0959 94.4421 43.0818 90.3086 39.394C87.7155 37.0892 86.0435 34.1918 84.8851 30.965C84.8061 30.7675 84.7404 30.5568 84.556 30.3855C84.6481 31.0177 84.7535 31.6499 84.8325 32.2953C85.0958 34.3629 85.2011 36.4307 84.6745 38.4721C84.319 39.8418 83.7531 41.1062 82.6736 42.0676C81.3572 43.2397 79.7776 43.5558 78.0663 43.4374C75.5915 43.2793 73.5247 42.2652 71.6687 40.6057C73.0114 44.965 74.3409 49.3245 75.6968 53.7233H69.1938C68.4303 53.7233 67.6537 53.6969 66.8901 53.7365C66.5216 53.7496 66.3899 53.6179 66.2977 53.2886C64.955 48.8766 63.6123 44.4646 62.2565 40.0525C60.3082 33.6913 58.36 27.3432 56.4116 20.982C55.6877 18.6245 54.9768 16.2802 54.2529 13.9227C54.2397 13.7647 54.2133 13.6461 54.1607 13.4486ZM75.3677 33.5332C75.3414 30.188 73.2746 24.5248 71.1289 21.9698C70.5892 21.3245 70.0231 20.7185 69.207 20.4289C67.9564 19.9811 66.8638 20.5869 66.7321 21.8513C66.6795 22.3649 66.7058 22.9048 66.7585 23.4185C67.0349 25.6442 67.68 27.7647 68.4435 29.8588C68.9964 31.3865 69.6809 32.8747 70.4181 34.3104C70.8788 35.2191 71.616 35.9566 72.6691 36.2596C74.0513 36.6546 75.0386 36.0488 75.2624 34.6396C75.3282 34.284 75.3282 33.9021 75.3677 33.5332ZM99.6024 24.8936C99.6155 24.7882 99.6288 24.7224 99.6155 24.6565C99.3391 23.3264 98.8652 22.0882 98.0227 21.0083C97.3776 20.1786 96.5879 19.5201 95.5084 19.2963C93.9419 18.967 92.7309 19.6386 92.6123 21.1005C92.507 22.3517 92.6519 23.616 92.6782 24.8936H99.6024ZM201.201 18.0055C201.359 17.5446 201.491 17.1363 201.635 16.7544C202.557 14.4759 204.335 13.3038 206.703 13.0535C209.179 12.8033 211.429 13.4091 213.351 15.0554C214.971 16.4382 216.09 18.1768 216.787 20.1523C217.656 22.5756 218.38 25.0517 219.143 27.5145C220.46 31.7948 221.75 36.0882 223.054 40.3687C223.303 41.2115 223.566 42.0544 223.83 42.9237H214.589C214.286 41.949 213.983 40.9745 213.693 39.9867C212.074 34.6527 210.456 29.3056 208.81 23.9716C208.507 22.9971 208.099 22.0619 207.269 21.3903C206.479 20.7581 205.585 20.6923 204.663 20.9556C203.874 21.1928 203.505 21.7986 203.466 22.76C203.412 24.156 203.833 25.4336 204.242 26.7374C205.861 32.0318 207.493 37.3131 209.113 42.6075C209.139 42.6998 209.152 42.8052 209.179 42.9237H199.964C199.582 41.6594 199.188 40.3818 198.806 39.1044C197.265 34.06 195.738 29.0027 194.184 23.9585C193.921 23.0761 193.539 22.2332 192.855 21.5878C192.052 20.8239 191.092 20.6527 190.064 20.9556C189.13 21.2191 188.616 22.0882 188.84 23.2341C189.156 24.8409 189.551 26.4477 190.025 28.015C191.473 32.8616 192.987 37.682 194.462 42.5154C194.501 42.6339 194.527 42.7393 194.566 42.8973C194.422 42.9104 194.303 42.9368 194.172 42.9368C191.381 42.9368 188.577 42.9368 185.786 42.95C185.431 42.95 185.313 42.8446 185.207 42.5023C183.548 37.0102 181.864 31.5314 180.178 26.0525C178.955 22.0357 177.73 18.0055 176.493 13.9754C176.44 13.8174 176.4 13.6461 176.348 13.4486C176.493 13.4355 176.624 13.4222 176.756 13.4222C179.034 13.4222 181.323 13.4355 183.6 13.4091C183.944 13.4091 184.102 13.5145 184.259 13.8174C184.97 15.2793 185.707 16.728 186.484 18.2822C186.629 17.8475 186.734 17.505 186.839 17.1758C187.708 14.6208 189.946 13.0535 192.645 13.0008C194.922 12.9482 196.975 13.4882 198.686 15.0158C199.49 15.7403 200.121 16.6358 200.832 17.4523C200.951 17.6236 201.044 17.7948 201.201 18.0055ZM275.748 42.9368H266.52C266.112 41.5934 265.691 40.2237 265.27 38.8672C263.677 33.665 262.084 28.4496 260.465 23.2604C260.083 22.0357 259.399 21.061 257.977 20.8635C256.148 20.6133 255.041 21.5484 255.041 23.379C255.041 23.8795 255.067 24.4063 255.213 24.8936C255.805 27.0008 256.411 29.0949 257.042 31.189C258.188 34.9689 259.36 38.7488 260.517 42.5286C260.557 42.6471 260.557 42.7656 260.596 42.9104H251.382C248.394 33.1118 245.392 23.3 242.378 13.4355H243.009C245.207 13.4355 247.407 13.4486 249.605 13.4222C249.973 13.4222 250.171 13.5145 250.342 13.8569C251.026 15.2529 251.764 16.649 252.475 18.0318C252.527 18.1372 252.593 18.2295 252.658 18.3347C252.896 17.6631 253.08 16.9914 253.369 16.3592C254.238 14.4496 255.805 13.4355 257.832 13.1326C262.215 12.474 265.967 14.4759 268.021 18.4664C268.93 20.2444 269.442 22.1673 270.022 24.0639C271.878 30.1353 273.734 36.1936 275.59 42.2652C275.643 42.489 275.696 42.6998 275.748 42.9368ZM27.9383 13.4486H31.6241C33.3222 13.4486 35.0336 13.4618 36.7317 13.4355C37.0872 13.4355 37.2319 13.554 37.3373 13.8832C38.9695 19.2699 40.6019 24.6697 42.2606 30.0432C42.6687 31.3602 43.0766 32.664 43.6033 33.9284C44.1429 35.1928 45.2355 35.7195 46.5782 35.5615C47.5524 35.443 48.0263 34.9689 48.1449 33.9942C48.2896 32.8353 48.0395 31.7289 47.7104 30.6358L42.5764 13.6857C42.5633 13.633 42.5633 13.5803 42.5633 13.5013H51.778C54.7662 23.3 57.7676 33.1118 60.769 42.95C60.5847 42.9631 60.453 42.9764 60.3214 42.9764H53.4761C53.1997 42.9764 53.0154 42.9237 52.8838 42.6339C52.2914 41.4091 51.6596 40.2106 51.054 38.999C50.975 38.8409 50.8829 38.6828 50.7513 38.4326C50.6196 38.933 50.5275 39.3546 50.3958 39.7629C49.8034 41.6067 48.5528 42.7656 46.6836 43.1739C43.9455 43.7666 41.3258 43.4637 38.9695 41.87C37.2583 40.711 36.0867 39.0517 35.3627 37.155C34.4807 34.8239 33.7436 32.4401 33.0064 30.0563C31.5714 25.4204 30.1761 20.7712 28.7676 16.1353C28.4911 15.2398 28.2147 14.3837 27.9383 13.4486ZM182.903 42.9631C180.39 42.9631 177.927 42.9764 175.479 42.95C175.322 42.95 175.11 42.7525 175.031 42.5812C174.32 41.2247 173.636 39.8681 172.912 38.4326C172.754 38.9857 172.649 39.4731 172.491 39.934C171.859 41.7252 170.582 42.8052 168.752 43.1871C166.04 43.7403 163.434 43.4374 161.09 41.8438C159.419 40.6979 158.26 39.078 157.55 37.2077C156.655 34.8372 155.904 32.4006 155.154 29.9641C153.509 24.6828 151.916 19.3884 150.297 14.1071C150.243 13.9096 150.191 13.712 150.125 13.4618H150.652C153.376 13.4618 156.101 13.4749 158.826 13.4486C159.261 13.4486 159.406 13.5934 159.524 13.9754C161.433 20.2708 163.355 26.5662 165.29 32.8616C165.619 33.9415 166.106 34.9293 167.239 35.4034C167.91 35.6801 168.607 35.6801 169.279 35.4693C169.924 35.2718 170.293 34.6264 170.332 33.7704C170.397 32.2953 169.976 30.9124 169.555 29.5295C167.975 24.3141 166.382 19.1118 164.802 13.8963C164.763 13.7647 164.75 13.633 164.711 13.4749C164.869 13.4618 165.001 13.4486 165.146 13.4486C167.923 13.4486 170.7 13.4618 173.478 13.4355C173.833 13.4355 173.965 13.554 174.071 13.8832C176.979 23.4185 179.888 32.967 182.798 42.5023C182.837 42.6208 182.864 42.7525 182.903 42.9631ZM250.816 42.8315C249.815 43.0027 248.894 43.2002 247.959 43.3187C246.551 43.5032 245.142 43.4505 243.747 43.1344C241.707 42.6471 240.232 41.4355 239.27 39.5784C239.166 39.3809 239.061 39.1965 238.942 38.9594C238.403 40.316 237.626 41.4222 236.454 42.2256C235.322 43.0027 234.059 43.332 232.703 43.3978C230.478 43.5032 228.319 43.2002 226.397 41.9623C223.896 40.3554 222.552 38.0112 222.119 35.1005C221.907 33.6519 221.921 32.2162 222.488 30.8334C223.224 29.0554 224.607 27.9227 226.252 27.0535C228.358 25.934 230.675 25.4204 232.979 24.8804C233.439 24.7751 233.9 24.6565 234.414 24.538C233.98 23.0102 233.624 21.4693 232.531 20.2444C231.701 19.3226 230.003 18.9407 228.858 19.4279C228.082 19.7571 227.792 20.4156 227.805 21.1928C227.819 21.9303 227.937 22.681 228.016 23.4185C228.043 23.6556 228.122 23.8795 228.174 24.1692C226.975 24.0639 225.831 23.9716 224.686 23.8662C223.079 23.7214 221.474 23.5633 219.867 23.4185C219.63 23.3922 219.406 23.4054 219.367 23.0629C219.157 21.4561 219.052 19.8494 219.406 18.2426C219.947 15.7666 221.553 14.2256 223.922 13.633C228.213 12.5662 232.466 12.7242 236.533 14.6208C239.469 15.9905 241.391 18.3743 242.457 21.3772C243.444 24.156 244.247 27.0008 245.116 29.8193C245.748 31.8475 246.354 33.8757 246.972 35.904C247.248 36.7863 247.814 37.0629 249.131 36.9575C249.684 38.854 250.223 40.7637 250.816 42.8315ZM236.164 30.2144C234.967 30.5436 233.808 30.8202 232.689 31.189C231.939 31.4392 231.413 31.9924 231.255 32.7826C230.899 34.6 231.9 36.9839 234.585 36.9312C236.139 36.9048 237.007 35.9961 237.06 34.4289C237.126 32.9801 236.585 31.6762 236.164 30.2144ZM10.1407 33.7177C12.8129 33.3488 15.3536 32.9932 17.7889 32.6509C18.2233 33.5596 18.5392 34.4552 19.0395 35.2454C20.0136 36.7863 21.896 37.2868 23.6205 36.681C25.3317 36.0751 25.0816 34.0733 24.1339 33.3488C23.1466 32.5982 21.9881 32.2822 20.8297 31.9266C18.1838 31.11 15.5116 30.3855 13.0499 29.0818C11.0095 28.0017 9.19289 26.6584 8.25825 24.4721C7.08667 21.7459 6.9287 18.9801 8.71899 16.4251C10.0354 14.5417 11.9968 13.5803 14.2083 13.2378C18.8419 12.5267 23.0676 13.4618 26.6877 16.5832C28.3989 18.0582 29.4784 19.9152 30.0707 22.1673C27.5433 22.5361 25.0422 22.8917 22.5279 23.2473C22.3041 22.7336 22.1067 22.2069 21.8434 21.7195C21.0141 20.1523 19.724 19.3884 17.9337 19.5201C17.1175 19.5728 16.4856 19.9942 16.3014 20.6133C16.0775 21.3245 16.3145 22.2727 16.9596 22.6546C17.7758 23.1287 18.6445 23.537 19.5265 23.8531C21.8828 24.6697 24.2918 25.3413 26.6087 26.237C28.5832 27.0008 30.3473 28.173 31.7294 29.8324C33.7567 32.2689 34.2964 36.1542 32.9405 38.7488C31.9005 40.7243 30.2287 41.9886 28.1621 42.6471C23.8706 44.0036 19.6714 43.7666 15.7222 41.4486C13.4184 40.1052 11.9441 38.0112 10.8779 35.6274C10.6277 35.0216 10.4171 34.3893 10.1407 33.7177ZM293.243 22.1673C290.662 22.5361 288.188 22.8917 285.673 23.2473C285.515 22.8521 285.384 22.4834 285.213 22.1146C284.41 20.2971 283.081 19.4542 281.185 19.5201C280.316 19.5465 279.697 19.9415 279.487 20.5737C279.236 21.3112 279.447 22.2332 280.145 22.6546C280.949 23.1419 281.83 23.5239 282.712 23.8399C285.068 24.6697 287.477 25.3282 289.794 26.237C292.163 27.172 294.296 28.5548 295.587 30.8598C297.113 33.5465 297.443 36.3649 295.85 39.1438C294.757 41.0535 292.98 42.1861 290.913 42.7656C286.726 43.9378 282.66 43.6876 278.855 41.4222C276.262 39.8681 274.722 37.458 273.656 34.6923C273.537 34.3893 273.444 34.0864 273.313 33.7044C275.933 33.3357 278.486 32.9801 280.935 32.6378C281.37 33.5465 281.685 34.442 282.185 35.2322C283.159 36.7469 285.028 37.3 286.714 36.6942C288.136 36.1805 288.491 34.4816 287.385 33.4542C286.622 32.7299 285.634 32.4401 284.661 32.1372C281.816 31.2417 278.908 30.5173 276.235 29.1081C274.168 28.015 272.312 26.6716 271.377 24.4326C270.141 21.443 270.048 18.4928 272.299 15.872C273.629 14.3179 275.445 13.5145 277.446 13.2247C281.567 12.6189 285.397 13.3301 288.833 15.7797C290.847 17.2154 292.255 19.1118 293.02 21.4693C293.098 21.6801 293.151 21.8907 293.243 22.1673ZM106.513 13.4618C106.685 13.4486 106.764 13.4486 106.856 13.4486H114.227C115.044 15.0554 115.86 16.649 116.702 18.2953C116.966 17.5183 117.137 16.7807 117.439 16.1222C118.585 13.6461 120.375 12.8691 122.758 13.0535C122.902 13.0666 123.126 13.2511 123.179 13.3959C124.074 16.4909 124.943 19.5992 125.825 22.6942C125.838 22.7205 125.825 22.76 125.838 22.8258C125.153 22.76 124.469 22.6415 123.784 22.6283C122.56 22.5888 121.389 22.7994 120.625 23.9058C120.112 24.6565 120.033 25.5125 120.072 26.395C120.164 28.3442 120.862 30.1353 121.415 31.966C122.494 35.522 123.587 39.0648 124.679 42.6208C124.706 42.7129 124.719 42.8183 124.732 42.9368H115.518C112.516 33.1382 109.528 23.3395 106.513 13.4618ZM314.818 17.9133H313.278C312.686 15.9905 311.304 14.9631 309.395 14.6075C306.13 14.015 303.34 16.0826 302.905 19.3621C302.669 21.1795 302.878 22.8917 303.932 24.4326C305.854 27.2378 310.514 27.3828 312.568 24.6961C312.831 24.3536 313.015 23.9322 313.174 23.5239C313.265 23.2737 313.384 23.1814 313.647 23.1946C314.016 23.2077 314.385 23.1946 314.806 23.1946C314.542 24.5907 313.844 25.6442 312.791 26.4741C310.093 28.6075 305.643 28.3179 303.247 25.855C301.997 24.5643 301.443 22.9575 301.339 21.1928C301.221 19.3488 301.524 17.5841 302.629 16.0563C304.313 13.712 306.696 12.9876 309.448 13.3301C311.778 13.6198 313.568 14.7393 314.528 16.965C314.661 17.2548 314.713 17.571 314.818 17.9133ZM358.022 22.7469H349.032C348.847 24.2351 349.874 25.8287 351.361 26.4214C353.244 27.172 355.193 26.632 356.39 24.999C356.811 25.1175 357.259 25.236 357.733 25.3677C357.364 26.3028 356.706 26.9482 355.85 27.3038C353.52 28.2652 351.257 28.2256 349.229 26.5793C348.07 25.6311 347.597 24.3009 347.518 22.839C347.412 20.8766 347.939 19.0986 349.598 17.887C351.361 16.5832 353.349 16.5042 355.297 17.3733C357.206 18.2295 357.97 19.8888 358.036 21.904C358.036 22.1673 358.022 22.4175 358.022 22.7469ZM349.005 21.5747H356.508C356.443 19.5859 355.008 18.0845 353.165 18.045C350.834 17.9924 349.163 19.3884 349.005 21.5747ZM326.903 22.7469H317.925C317.952 24.6301 318.966 26.0789 320.637 26.5399C322.269 26.9876 324.258 26.7374 325.297 24.9857C325.732 25.1044 326.178 25.236 326.653 25.3677C326.442 26.0394 325.981 26.4741 325.494 26.8559C323.613 28.3179 320.189 28.2125 318.321 26.7374C315.49 24.5248 315.714 18.6378 319.768 17.189C322.099 16.3592 325.007 16.9519 326.323 19.3226C326.903 20.3762 327.022 21.5088 326.903 22.7469ZM317.952 21.5747H325.415C325.56 19.7967 323.955 18.1241 322.111 18.0318C319.387 17.887 317.952 20.0206 317.952 21.5747ZM338.382 27.6857H337.303C337.183 27.6857 337.079 27.6725 336.895 27.6461V27.0799C336.895 25.1175 336.828 23.1683 336.907 21.2059C337.026 18.2426 334.288 17.5446 332.393 18.2953C331.142 18.7826 330.562 19.7571 330.562 21.0874C330.549 23.0761 330.562 25.0648 330.562 27.0666V27.6594H329.167V17.0177H330.483V18.664C330.589 18.5718 330.655 18.5455 330.682 18.506C331.893 16.3461 336.105 16.3592 337.527 18.1635C338.132 18.9274 338.355 19.7967 338.369 20.7185C338.408 23.0234 338.382 25.315 338.382 27.6857ZM346.069 26.5135C346.175 26.9218 346.268 27.2774 346.372 27.6198C344.621 28.3442 342.475 27.4749 342.042 25.8814C341.989 25.6706 341.963 25.4467 341.963 25.2228V18.1504H340.159V16.965H341.949V14.489H343.384V16.9519H345.965V18.1108H343.384V24.4458C343.384 26.1448 344.068 26.7506 345.754 26.553C345.859 26.553 345.938 26.5266 346.069 26.5135ZM365.775 16.8729V18.0977C365.632 18.0977 365.487 18.1108 365.342 18.0977C364.342 18.0187 363.407 18.1899 362.604 18.822C361.984 19.3094 361.642 19.9548 361.642 20.7581V27.633H360.195V16.9782H361.563V18.6245C362.656 17.0704 364.078 16.6884 365.775 16.8729Z" fill="#2E2D2D"/>
</svg>
