<svg width="221" height="56" viewBox="0 0 221 56" fill="none" xmlns="http://www.w3.org/2000/svg">
<g clip-path="url(#clip0_4017_742)">
<path d="M98.2609 41.0857C98.2609 40.7531 98.3442 40.6367 98.7113 40.6367H100.168C102.665 40.6367 103.866 41.3352 103.866 43.1533C103.866 44.9714 102.631 45.7806 100.168 45.7806H98.7113C98.3442 45.7806 98.2609 45.6697 98.2609 45.3317V41.0857ZM92.9397 36.7844V54.8323C92.9397 55.3644 93.162 55.586 93.6958 55.586H97.4768C98.0384 55.586 98.2609 55.3644 98.2609 54.8323V50.808C98.2609 50.4755 98.372 50.3868 98.7113 50.3868H100.39C106.218 50.3868 109.331 47.898 109.331 43.12C109.331 38.342 106.39 36.025 100.529 36.025H93.6903C93.1565 36.025 92.9341 36.2467 92.9341 36.7788M93.1342 21.7297L85.3889 23.3704C85.4222 23.8416 85.3777 24.3016 85.2721 24.7451L93.6958 22.9602L93.1398 21.7297H93.1342ZM85.1108 22.0789L92.5727 20.4991L92.0167 19.2686L84.4436 20.876C84.7216 21.2363 84.9496 21.6466 85.1108 22.0844M72.9005 36.7844V40.1101C72.9005 40.6146 73.1508 40.864 73.6567 40.864H77.888C78.2217 40.864 78.3384 40.9749 78.3384 41.313V54.8378C78.3384 55.3699 78.5609 55.5917 79.0947 55.5917H82.9034C83.4371 55.5917 83.6596 55.3699 83.6596 54.8378V41.313C83.6596 40.9804 83.7708 40.864 84.11 40.864H88.3413C88.8751 40.864 89.0975 40.6422 89.0975 40.1101V36.7844C89.0975 36.2523 88.8751 36.0305 88.3413 36.0305H73.6567C73.1508 36.0305 72.9005 36.2799 72.9005 36.7844ZM63.7817 36.7844V54.8323C63.7817 55.3644 64.0041 55.586 64.5379 55.586H68.3188C68.8804 55.586 69.1029 55.3644 69.1029 54.8323V36.7844C69.1029 36.2523 68.8804 36.0305 68.3188 36.0305H64.5379C64.0041 36.0305 63.7817 36.2523 63.7817 36.7844ZM48.1129 40.9194C48.1129 40.5868 48.1963 40.4704 48.5632 40.4704H50.6094C52.5444 40.4704 53.3284 40.8917 53.3284 42.0058C53.3284 43.12 52.5167 43.569 50.6094 43.569H48.5632C48.1963 43.569 48.1129 43.4581 48.1129 43.12V40.9138V40.9194ZM48.1129 48.3249C48.1129 47.9646 48.1963 47.8759 48.5632 47.8759H50.9709C53.017 47.8759 53.8844 48.3525 53.8844 49.4944C53.8844 50.6362 53.0726 51.1407 50.9709 51.1407H48.5632C48.1963 51.1407 48.1129 51.0298 48.1129 50.6917V48.3138V48.3249ZM42.7862 36.7844V54.8323C42.7862 55.3644 43.0086 55.586 43.5424 55.586H50.9709C56.4366 55.586 59.378 53.768 59.378 49.6329C59.378 47.5377 58.227 46.03 56.2921 45.4424C57.8322 44.6887 58.7608 43.3749 58.7608 41.5014C58.7608 37.6158 56.0696 36.025 50.9431 36.025H43.5424C43.0086 36.025 42.7862 36.2467 42.7862 36.7788M49.0193 26.6906C49.7309 26.6906 50.0256 26.3913 50.0256 25.6818V8.95315C49.3528 9.49636 48.5632 9.88437 47.6903 10.0673C47.6736 10.0673 47.6625 10.0673 47.6458 10.0728V26.6851H49.0136L49.0193 26.6906ZM43.9761 26.6906H45.444V10.0784C44.4931 9.88437 43.6202 9.43538 42.9029 8.80904V14.0915L42.9308 14.0693V25.6873C42.9308 26.3968 43.231 26.6962 43.9761 26.6962M7.19497 36.9451V45.886C7.19497 46.163 7.33398 46.3072 7.61756 46.3072H10.0696C10.3476 46.3072 10.4922 46.1686 10.4922 45.886V39.5725C10.4922 39.3618 10.5645 39.3231 10.7424 39.3231H12.6496C12.8609 39.3231 12.8998 39.3674 12.8998 39.5725V45.886C12.8998 46.163 13.0388 46.3072 13.3224 46.3072H15.7745C16.0525 46.3072 16.1971 46.1686 16.1971 45.886V36.9451C16.1971 36.6679 16.0581 36.5239 15.7745 36.5239H7.61756C7.33953 36.5239 7.19497 36.6624 7.19497 36.9451ZM21.5961 6.05418V1.61981C21.5961 0.910309 21.2958 0.616534 20.5896 0.616534H1.00641C0.333616 0.616534 0 0.949111 0 1.61981V6.05418C0 6.72488 0.333616 7.05746 1.00641 7.05746H6.65007C7.10045 7.05746 7.24501 7.20711 7.24501 7.6561V25.6818C7.24501 26.3913 7.54527 26.6906 8.25142 26.6906H13.3335C14.0452 26.6906 14.3455 26.3913 14.3455 25.6818V7.6561C14.3455 7.20711 14.4956 7.05746 14.9404 7.05746H20.5841C21.2958 7.05746 21.5905 6.75814 21.5905 6.05418M22.6247 45.886V36.9451C22.6247 36.6679 22.4857 36.5239 22.2021 36.5239H19.75C19.472 36.5239 19.3274 36.6624 19.3274 36.9451V45.886C19.3274 46.163 19.4665 46.3072 19.75 46.3072H22.2021C22.4801 46.3072 22.6247 46.1686 22.6247 45.886ZM29.3026 43.8184L30.5926 41.2465L31.8937 43.8184H29.3026ZM29.8753 36.9451L26.2054 43.508C26.0776 43.7463 25.9831 43.8184 25.7717 43.8184H25.477C25.2102 43.8184 25.099 43.9181 25.099 44.1786V48.1751C25.099 48.4412 25.2102 48.541 25.477 48.541H27.3954C27.6622 48.541 27.7568 48.4412 27.7568 48.1751V46.5123C27.7568 46.357 27.8012 46.3016 27.9125 46.3016H33.2337C33.3449 46.3016 33.3893 46.357 33.3893 46.5123V48.1751C33.3893 48.4412 33.5172 48.541 33.7507 48.541H35.6691C35.9359 48.541 36.0471 48.4412 36.0471 48.1751V44.1786C36.0471 43.9126 35.9359 43.8184 35.6691 43.8184H35.3744C35.2075 43.8184 35.1242 43.8184 34.9796 43.5412L31.2653 36.9507C30.9706 36.4352 30.8038 36.2523 30.5647 36.2523C30.2979 36.2523 30.1589 36.4352 29.8642 36.9507M29.5194 25.9423L41.6908 15.067V7.47318C41.5018 7.15169 41.3461 6.81357 41.2182 6.45327L33.6228 13.2378V1.61981C33.6228 0.910309 33.3226 0.616534 32.6165 0.616534H27.5344C26.8616 0.616534 26.5225 0.949111 26.5225 1.61981V25.6818C26.5225 26.6906 26.8227 27.2116 27.4565 27.2116C27.9402 27.2116 28.5018 26.8402 29.5138 25.9478M48.3964 5.8879C48.074 6.38121 47.5791 6.71934 47.0064 6.84128C46.8508 6.87454 46.6951 6.89117 46.545 6.89117C45.5107 6.89117 44.6044 6.1595 44.3931 5.15068C44.2708 4.57421 44.382 3.98665 44.6989 3.49887C45.0214 3.00555 45.5162 2.66744 46.0889 2.54549C46.2446 2.51223 46.4004 2.4956 46.5505 2.4956C47.5847 2.4956 48.4854 3.22727 48.7022 4.23609C48.8246 4.81256 48.7134 5.40011 48.3964 5.8879ZM50.8652 3.77602C50.8374 3.64853 50.8041 3.52105 50.7652 3.39356C50.6873 3.14413 50.5927 2.90578 50.4759 2.68406C50.4204 2.5732 50.3593 2.46234 50.2925 2.35703C50.0924 2.04108 49.8532 1.75285 49.5863 1.49787C49.3195 1.24289 49.0193 1.02671 48.6967 0.849338C48.4799 0.727392 48.2574 0.627621 48.024 0.544477C47.5568 0.378188 47.062 0.289501 46.5505 0.289501C46.2446 0.289501 45.9388 0.322759 45.6274 0.383731C43.2421 0.88814 41.7241 3.22173 42.2302 5.59965C42.6694 7.66718 44.5042 9.08618 46.5393 9.08618C46.8452 9.08618 47.151 9.05293 47.4624 8.99195C49.8477 8.48754 51.3657 6.15395 50.8596 3.77602M76.4479 6.05418V1.61981C76.4479 0.910309 76.1477 0.616534 75.4415 0.616534H55.8639C55.1911 0.616534 54.8575 0.949111 54.8575 1.61981V6.05418C54.8575 6.72488 55.1911 7.05746 55.8639 7.05746H61.5075C61.958 7.05746 62.1081 7.20711 62.1081 7.6561V25.6818C62.1081 26.3913 62.4083 26.6906 63.1145 26.6906H68.1966C68.9082 26.6906 69.2085 26.3913 69.2085 25.6818V7.6561C69.2085 7.20711 69.3587 7.05746 69.8035 7.05746H75.4472C76.1588 7.05746 76.4535 6.75814 76.4535 6.05418M80.4013 21.9569C80.5236 21.9293 80.6515 21.9182 80.7738 21.9182C81.5968 21.9182 82.3252 22.5057 82.4975 23.3094C82.6976 24.2573 82.0916 25.1941 81.1408 25.3935C81.0185 25.4213 80.8906 25.4324 80.7683 25.4324C79.9398 25.4324 79.2169 24.8448 79.0446 24.0355C78.8444 23.0877 79.4505 22.1509 80.4013 21.9514M80.0343 20.233C78.1272 20.6377 76.9095 22.5057 77.3153 24.4069C77.4488 25.0277 77.7379 25.5765 78.1327 26.0144C78.2662 26.1641 78.4107 26.297 78.5609 26.419C78.8667 26.6629 79.2169 26.8569 79.5895 26.99C79.9621 27.1229 80.3568 27.1951 80.7683 27.1951C80.8906 27.1951 81.0129 27.1895 81.1353 27.1784C81.2576 27.1673 81.3799 27.1451 81.5078 27.1174C83.4149 26.7128 84.6327 24.8448 84.2268 22.9435C84.0933 22.3227 83.8042 21.774 83.4094 21.3361C83.2759 21.1865 83.1369 21.0534 82.9812 20.9315C82.7533 20.7486 82.4975 20.5933 82.2306 20.4715C81.7802 20.2663 81.291 20.1555 80.7794 20.1555C80.657 20.1555 80.5348 20.161 80.4124 20.1777C80.2901 20.1888 80.1678 20.211 80.0399 20.233M89.1087 12.8499L85.9059 5.77703L79.0446 19.396C79.2892 19.2964 79.545 19.2132 79.8064 19.1577C80.1233 19.0912 80.4513 19.0579 80.7738 19.0579C81.7747 19.0579 82.72 19.3906 83.4928 19.9503L86.1839 19.3795L89.1087 12.8499ZM91.2104 5.06753C91.2104 4.4578 90.7156 3.97003 90.1096 3.97003C89.5034 3.97003 89.0086 4.46335 89.0086 5.06753C89.0086 5.67171 89.5034 6.16504 90.1096 6.16504C90.7156 6.16504 91.2104 5.67171 91.2104 5.06753ZM92.3114 5.06753C92.3114 6.28144 91.3217 7.26809 90.1039 7.26809C88.8862 7.26809 87.8965 6.28144 87.8965 5.06753C87.8965 3.85363 88.8862 2.86698 90.1039 2.86698C91.3217 2.86698 92.3114 3.85363 92.3114 5.06753ZM103.971 26.1308C103.971 25.9423 103.899 25.7206 103.749 25.4601L91.9055 1.95793C91.1604 0.505674 90.6377 0.0234375 89.8871 0.0234375C89.1032 0.0234375 88.5804 0.505674 87.8298 1.95793L86.5454 4.51323L89.737 11.4586L92.7006 18.0048L93.1676 19.0303L93.1231 19.0413L93.6792 20.2719L93.7236 20.2608L94.2797 21.4913L94.2408 21.5024L94.7968 22.733L94.8413 22.7219L95.3083 23.7474L96.2035 25.7262C96.5372 26.5077 96.8041 26.6962 97.8104 26.6962H103.115C103.676 26.6962 103.977 26.5077 103.977 26.1363M130.466 25.6818V1.61981C130.466 0.949111 130.126 0.616534 129.421 0.616534H124.377C123.666 0.616534 123.333 0.949111 123.333 1.61981V9.59059C123.333 10.0396 123.182 10.1837 122.737 10.1837H114.964C114.48 10.1837 114.364 10.034 114.364 9.59059V1.61981C114.364 0.910309 114.063 0.616534 113.318 0.616534H108.275C107.563 0.616534 107.268 0.915853 107.268 1.61981V25.6818C107.268 26.3913 107.569 26.6906 108.275 26.6906H113.318C114.063 26.6906 114.364 26.3913 114.364 25.6818V17.2288C114.364 16.7798 114.475 16.6302 114.964 16.6302H122.737C123.188 16.6302 123.333 16.7798 123.333 17.2288V25.6818C123.333 26.3525 123.671 26.6906 124.377 26.6906H129.421C130.132 26.6906 130.466 26.3581 130.466 25.6818ZM130.888 54.8323V36.7844C130.888 36.0305 130.666 35.6369 130.188 35.6369C129.765 35.6369 129.404 35.8864 128.648 36.5848L118.673 45.4979V36.7788C118.673 36.2467 118.45 36.025 117.916 36.025H114.102C113.596 36.025 113.346 36.2744 113.346 36.7788V54.8267C113.346 55.5806 113.568 55.9741 114.046 55.9741C114.413 55.9741 114.83 55.6969 115.586 55.0263L125.562 46.1132V54.8323C125.562 55.3644 125.784 55.586 126.346 55.586H130.126C130.66 55.586 130.882 55.3644 130.882 54.8323M141.931 36.9507L132.879 54.6936C132.795 54.86 132.74 55.0318 132.74 55.1704C132.74 55.4475 132.962 55.5917 133.385 55.5917H137.228C137.928 55.5917 138.234 55.3977 138.601 54.6992L143.254 45.1154L147.936 54.6992C148.27 55.3977 148.582 55.5917 149.282 55.5917H153.207C153.658 55.5917 153.88 55.4531 153.88 55.1704C153.88 55.0318 153.825 54.8932 153.713 54.6936L144.634 36.9507C144.072 35.8587 143.766 35.4984 143.288 35.4984C142.838 35.4984 142.532 35.8309 141.943 36.9507M160.792 25.6818V1.61981C160.792 0.616533 160.491 0.0899545 159.857 0.0899545C159.296 0.0899545 158.811 0.422532 157.8 1.35374L144.5 13.2324V1.61427C144.5 0.90477 144.2 0.61099 143.488 0.61099H138.405C137.733 0.61099 137.399 0.943571 137.399 1.61427V25.6762C137.399 26.6851 137.7 27.2061 138.334 27.2061C138.817 27.2061 139.379 26.8348 140.391 25.9423L153.691 14.0637V25.6818C153.691 26.3913 153.991 26.6906 154.736 26.6906H159.78C160.491 26.6906 160.786 26.3913 160.786 25.6818M166.842 48.0698C166.842 48.2084 166.757 48.2638 166.53 48.2638H163.505C163.31 48.2638 163.199 48.2084 163.199 48.0698C163.199 47.9867 163.227 47.9313 163.282 47.8481L165.017 44.162L166.785 47.8481C166.813 47.9035 166.842 47.9867 166.842 48.0698ZM175.698 55.1704C175.698 55.0318 175.643 54.8656 175.531 54.666L166.646 37.0393C166.084 35.9474 165.696 35.5871 165.134 35.5871C164.545 35.5871 164.156 35.9529 163.594 37.0393L154.709 54.666C154.625 54.8323 154.57 54.9985 154.57 55.1704C154.57 55.4475 154.792 55.5917 155.215 55.5917H159.052C159.724 55.5917 159.974 55.4531 160.229 54.8656L161.181 52.8257C161.32 52.5208 161.403 52.4654 161.715 52.4654H168.359C168.67 52.4654 168.754 52.5208 168.892 52.8257L169.872 54.8656C170.122 55.4531 170.321 55.5917 171.078 55.5917H175.059C175.482 55.5917 175.704 55.4531 175.704 55.1704M197.105 54.8323V36.812C197.105 36.086 196.855 35.7202 196.377 35.7202C196.044 35.7202 195.788 35.9141 195.143 36.5571L187.041 45.1321L178.912 36.5571C178.35 35.9696 178.017 35.7202 177.678 35.7202C177.199 35.7202 176.977 36.0805 176.977 36.812V54.8323C176.977 55.3644 177.199 55.586 177.733 55.586H181.515C182.076 55.586 182.298 55.3644 182.298 54.8323V47.0943L185.969 51.1461C186.447 51.706 186.697 51.8724 187.003 51.8724C187.308 51.8724 187.536 51.706 188.07 51.1461L191.739 47.0943V54.8323C191.739 55.3366 191.99 55.586 192.524 55.586H196.305C196.838 55.586 197.089 55.3366 197.089 54.8323M220.074 54.8323V36.7844C220.074 36.0305 219.852 35.6369 219.374 35.6369C218.952 35.6369 218.59 35.8864 217.834 36.5848L207.859 45.4979V36.7788C207.859 36.2467 207.637 36.025 207.103 36.025H203.294C202.788 36.025 202.538 36.2744 202.538 36.7788V54.8267C202.538 55.5806 202.76 55.9741 203.238 55.9741C203.599 55.9741 204.022 55.6969 204.778 55.0263L214.754 46.1132V54.8323C214.754 55.3644 214.976 55.586 215.538 55.586H219.318C219.852 55.586 220.074 55.3644 220.074 54.8323Z" fill="#2E2D2D"/>
</g>
<defs>
<clipPath id="clip0_4017_742">
<rect width="221" height="56" fill="white"/>
</clipPath>
</defs>
</svg>
