<svg width="135" height="122" viewBox="0 0 135 122" fill="none" xmlns="http://www.w3.org/2000/svg">
<path d="M33.8727 70.5542C39.4364 72.1874 43.6909 75.2905 46.6364 79.8634C49.9091 84.1098 51.5455 89.336 51.5455 95.5422C51.5455 103.382 49.0909 109.751 44.1818 114.651C39.2727 119.55 33.2182 122 26.0182 122C18.1636 122 11.7818 119.55 6.87273 114.651C2.29091 109.424 0 103.055 0 95.5422C0 91.6225 0.327273 87.8661 0.981818 84.2731C1.96364 80.3534 3.76364 74.8005 6.38182 67.6145L27 0H50.5636L33.8727 70.5542ZM117.327 70.5542C122.891 72.1874 127.145 75.2905 130.091 79.8634C133.364 84.1098 135 89.336 135 95.5422C135 103.382 132.545 109.751 127.636 114.651C122.727 119.55 116.673 122 109.473 122C101.618 122 95.2364 119.55 90.3273 114.651C85.7455 109.424 83.4545 103.055 83.4545 95.5422C83.4545 91.6225 83.7818 87.8661 84.4364 84.2731C85.4182 80.3534 87.2182 74.8005 89.8364 67.6145L110.455 0H134.018L117.327 70.5542Z" fill="#28694D"/>
</svg>
