<svg xmlns="http://www.w3.org/2000/svg" id="svg-691b3ccfda4b7" viewBox="0 0 185 48"><path d="M58.89 0h-.71v48h.7V0ZM65.9 30.49V15.53h4.56c1.23 0 2.08.3 2.58.88.47.56.72 1.64.72 3.2 0 1.33-.16 2.22-.48 2.67-.27.36-.72.67-1.32.88.67.15 1.12.42 1.37.78.27.38.4.96.4 1.75v3.4c0 .52.1 1 .24 1.4H71.5c-.16-.36-.25-.81-.25-1.34V25.6c0-.36-.02-.62-.07-.8-.13-.57-.58-.84-1.32-.84h-1.46v6.53H65.9m2.5-8.5h1.43c1 0 1.4-.47 1.4-1.7v-.81c0-.79-.08-1.33-.28-1.6-.18-.24-.56-.38-1.12-.38h-1.44V22ZM75.53 15.53h2.5V27.1c0 1.03.5 1.53 1.44 1.53s1.44-.5 1.44-1.53V15.53h2.48V27.1c0 2.49-1.2 3.6-3.92 3.6-2.71 0-3.94-1.11-3.94-3.6V15.53ZM85.25 30.49V15.53h4.35c1.3 0 2.24.36 2.83 1.06.47.56.7 1.43.7 2.58v7.78c0 1.18-.27 2.06-.79 2.6-.6.62-1.53.94-2.73.94h-4.35m2.49-1.98h1.41c.96 0 1.46-.58 1.46-1.72v-7.7c0-1.04-.5-1.58-1.46-1.58h-1.41v11ZM94.8 30.49V15.53h2.43v6.19h2.84v-6.19h2.42V30.5h-2.42v-6.7h-2.84v6.7H94.8ZM112.09 27.1c0 2.49-1.22 3.6-3.95 3.6-2.73 0-3.92-1.11-3.92-3.6v-8.18c0-2.5 1.21-3.61 3.92-3.61 2.72 0 3.95 1.12 3.95 3.6v8.19Zm-5.38 0c0 1.03.5 1.53 1.43 1.53.94 0 1.44-.5 1.44-1.53v-8.18c0-1.04-.47-1.53-1.44-1.53s-1.43.5-1.43 1.53v8.18ZM113.77 30.49V15.53h2.51v12.9h3.77v2.06h-6.28ZM129.1 15.53h3.25V30.5h-2.28V20.06l-2.43 10.43h-1.5l-2.49-10.27v10.27h-2.28V15.53h3.3l2.28 9.57 2.15-9.57ZM144.84 29.61c-.63.74-1.5 1.1-2.62 1.1-2.47 0-3.7-1.2-3.7-3.6v-8.19c0-2.49 1.21-3.6 3.92-3.6 2.72 0 3.95 1.11 3.95 3.6v1.88h-2.51v-1.88c0-1.03-.47-1.52-1.44-1.52-.96 0-1.43.5-1.43 1.52v8.18c0 1.04.5 1.53 1.43 1.53.94 0 1.44-.5 1.44-1.53v-2.46h-1.4v-1.89h3.9v7.74h-1.2l-.34-.88ZM148.07 30.49V15.53h4.55c1.23 0 2.08.3 2.58.88.47.56.71 1.64.71 3.2 0 1.33-.15 2.22-.47 2.67-.27.36-.72.67-1.32.88.67.15 1.12.42 1.37.78.27.38.4.96.4 1.75v3.4c0 .52.09 1 .25 1.4h-2.5c-.15-.36-.23-.81-.23-1.34V25.6c0-.36-.03-.62-.07-.8-.14-.57-.59-.84-1.32-.84h-1.46v6.53h-2.49m2.49-8.5H152c1 0 1.41-.47 1.41-1.7v-.81c0-.79-.1-1.33-.29-1.6-.18-.24-.56-.38-1.12-.38h-1.44V22ZM165.42 27.1c0 2.49-1.21 3.6-3.94 3.6-2.74 0-3.93-1.11-3.93-3.6v-8.18c0-2.5 1.21-3.61 3.92-3.61 2.72 0 3.95 1.12 3.95 3.6v8.19Zm-5.38 0c0 1.03.5 1.53 1.44 1.53s1.43-.5 1.43-1.53v-8.18c0-1.04-.47-1.53-1.44-1.53-.96 0-1.43.5-1.43 1.53v8.18ZM167.1 15.53h2.5V27.1c0 1.03.5 1.53 1.44 1.53s1.44-.5 1.44-1.53V15.53h2.49V27.1c0 2.49-1.22 3.6-3.93 3.6s-3.94-1.11-3.94-3.6V15.53ZM176.82 30.49V15.53h4.29c1.57 0 2.6.43 3.1 1.28.28.5.42 1.39.42 2.67l-.02 1.95c-.1 2.2-1.05 3.13-3.25 3.13h-2.04v5.92h-2.5m2.5-7.89h1.45c.97 0 1.33-.47 1.35-1.75l.02-1c0-.66-.05-1.17-.13-1.53-.14-.54-.54-.8-1.24-.8h-1.45v5.08ZM43.93 22.13a18.65 18.65 0 0 0-37.21.03H0v2.51h6.71a18.63 18.63 0 0 0 18.62 17.46 18.6 18.6 0 0 0 18.6-17.31h6.71v-2.7h-6.71m-33.57-4.2h9.31c1.17 0 2.12.96 2.12 2.13a2.1 2.1 0 0 1-2.12 2.1H9.42c.13-1.46.44-2.88.94-4.22Zm14.97 21.51c-8.37 0-15.3-6.46-15.92-14.76h7.74l4.61 5.76 3.47.03-4.7-5.88a4.63 4.63 0 0 0-.86-9.17h-8.11a15.96 15.96 0 0 1 29.68 6.7H30.27v-6.7h-2.7v15.04h2.7v-5.64h10.97a16 16 0 0 1-15.9 14.62h-.01Z"></path></svg>