<svg width="28" height="28" viewBox="0 0 28 28" fill="none" xmlns="http://www.w3.org/2000/svg">
<path d="M14 15.0816V14.3594" stroke="#FBFBF9" stroke-width="2" stroke-linecap="round" stroke-linejoin="round"/>
<path d="M14 15.0816V14.3594" stroke="#FBFBF9" stroke-width="2" stroke-linecap="round" stroke-linejoin="round"/>
<path d="M19.7812 15.0816V14.3594" stroke="#FBFBF9" stroke-width="2" stroke-linecap="round" stroke-linejoin="round"/>
<path d="M19.7812 15.0816V14.3594" stroke="#FBFBF9" stroke-width="2" stroke-linecap="round" stroke-linejoin="round"/>
<path d="M8.21875 15.0816V14.3594" stroke="#FBFBF9" stroke-width="2" stroke-linecap="round" stroke-linejoin="round"/>
<path d="M8.21875 15.0816V14.3594" stroke="#FBFBF9" stroke-width="2" stroke-linecap="round" stroke-linejoin="round"/>
<path d="M14 27C21.1797 27 27 21.1797 27 14C27 6.8203 21.1797 1 14 1C6.8203 1 1 6.8203 1 14C1 16.0796 1.4883 18.0451 2.3565 19.7882C3.0119 21.1041 2.1025 22.8795 1.75596 24.1746C1.41984 25.4309 2.56912 26.5802 3.82535 26.244C5.12052 25.8975 6.89594 24.9881 8.21179 25.6435C9.95487 26.5117 11.9204 27 14 27Z" stroke="#FBFBF9" stroke-width="2" stroke-linecap="round" stroke-linejoin="round"/>
<path d="M14 27C21.1797 27 27 21.1797 27 14C27 6.8203 21.1797 1 14 1C6.8203 1 1 6.8203 1 14C1 16.0796 1.4883 18.0451 2.3565 19.7882C3.0119 21.1041 2.1025 22.8795 1.75596 24.1746C1.41984 25.4309 2.56912 26.5802 3.82535 26.244C5.12052 25.8975 6.89594 24.9881 8.21179 25.6435C9.95487 26.5117 11.9204 27 14 27Z" stroke="#FBFBF9" stroke-width="2" stroke-linecap="round" stroke-linejoin="round"/>
</svg>
