<svg width="18" height="18" viewBox="0 0 18 18" fill="none" xmlns="http://www.w3.org/2000/svg">
<path d="M9 16.5C9 16.5 14.625 12 14.625 7.125C14.625 4.01839 12.1066 1.5 9 1.5C5.89339 1.5 3.375 4.01839 3.375 7.125C3.375 12 9 16.5 9 16.5Z" stroke="#FBFBF9" stroke-width="2" stroke-linejoin="round"/>
<path d="M9 16.5C9 16.5 14.625 12 14.625 7.125C14.625 4.01839 12.1066 1.5 9 1.5C5.89339 1.5 3.375 4.01839 3.375 7.125C3.375 12 9 16.5 9 16.5Z" stroke="#FBFBF9" stroke-width="2" stroke-linejoin="round"/>
<path d="M9 5.875C9.69035 5.875 10.25 6.43465 10.25 7.125C10.25 7.81535 9.69035 8.375 9 8.375C8.30965 8.375 7.75 7.81535 7.75 7.125C7.75 6.43465 8.30965 5.875 9 5.875Z" stroke="#FBFBF9" stroke-width="2" stroke-linejoin="round"/>
<path d="M9 5.875C9.69035 5.875 10.25 6.43465 10.25 7.125C10.25 7.81535 9.69035 8.375 9 8.375C8.30965 8.375 7.75 7.81535 7.75 7.125C7.75 6.43465 8.30965 5.875 9 5.875Z" stroke="#FBFBF9" stroke-width="2" stroke-linejoin="round"/>
</svg>
