<svg width="20" height="20" viewBox="0 0 20 20" fill="none" xmlns="http://www.w3.org/2000/svg">
<path d="M6.40918 3.08008C7.03355 3.08012 7.61206 3.39747 7.94824 3.91699L8.01172 4.02344L9.03125 5.85938C9.32487 6.38831 9.33876 7.02836 9.06836 7.56934L8.25781 9.1875C8.29315 9.29502 8.33963 9.42652 8.40234 9.57324C8.58779 10.007 8.89318 10.5523 9.37402 11.0332C9.85488 11.5141 10.3991 11.8179 10.8311 12.002C10.9758 12.0636 11.1055 12.1097 11.2119 12.1445L12.833 11.335L13.04 11.2471C13.4624 11.0972 13.9254 11.1072 14.3408 11.2754L14.5439 11.3721L16.3838 12.3955H16.3848C16.9664 12.7189 17.328 13.3325 17.3281 13.998V16.1123C17.3281 17.8139 15.7113 19.1506 13.9883 18.5693C11.8724 17.8554 8.4279 16.4504 6.19238 14.2148C3.95701 11.9793 2.55182 8.53576 1.83789 6.41992C1.25648 4.69686 2.59424 3.08008 4.2959 3.08008H6.40918Z" stroke="#FBFBF9" stroke-width="2" stroke-linejoin="round"/>
<path d="M6.40918 3.08008C7.03355 3.08012 7.61206 3.39747 7.94824 3.91699L8.01172 4.02344L9.03125 5.85938C9.32487 6.38831 9.33876 7.02836 9.06836 7.56934L8.25781 9.1875C8.29315 9.29502 8.33963 9.42652 8.40234 9.57324C8.58779 10.007 8.89318 10.5523 9.37402 11.0332C9.85488 11.5141 10.3991 11.8179 10.8311 12.002C10.9758 12.0636 11.1055 12.1097 11.2119 12.1445L12.833 11.335L13.04 11.2471C13.4624 11.0972 13.9254 11.1072 14.3408 11.2754L14.5439 11.3721L16.3838 12.3955H16.3848C16.9664 12.7189 17.328 13.3325 17.3281 13.998V16.1123C17.3281 17.8139 15.7113 19.1506 13.9883 18.5693C11.8724 17.8554 8.4279 16.4504 6.19238 14.2148C3.95701 11.9793 2.55182 8.53576 1.83789 6.41992C1.25648 4.69686 2.59424 3.08008 4.2959 3.08008H6.40918Z" stroke="#FBFBF9" stroke-width="2" stroke-linejoin="round"/>
</svg>
