<svg width="28" height="26" viewBox="0 0 28 26" fill="none" xmlns="http://www.w3.org/2000/svg">
<mask id="path-1-outside-1_1660_2850" maskUnits="userSpaceOnUse" x="1.08594" y="1.6875" width="27" height="22" fill="black">
<rect fill="white" x="1.08594" y="1.6875" width="27" height="22"/>
<path d="M24.9193 12.5V4.6875H14.5026H4.08594V12.5V20.3125H14.5026"/>
</mask>
<path d="M22.4193 12.5C22.4193 13.8807 23.5386 15 24.9193 15C26.3 15 27.4193 13.8807 27.4193 12.5H24.9193H22.4193ZM24.9193 4.6875H27.4193C27.4193 3.30679 26.3 2.1875 24.9193 2.1875V4.6875ZM4.08594 4.6875V2.1875C2.70523 2.1875 1.58594 3.30679 1.58594 4.6875L4.08594 4.6875ZM4.08594 20.3125H1.58594C1.58594 21.6932 2.70523 22.8125 4.08594 22.8125L4.08594 20.3125ZM14.5026 22.8125C15.8833 22.8125 17.0026 21.6932 17.0026 20.3125C17.0026 18.9318 15.8833 17.8125 14.5026 17.8125V20.3125V22.8125ZM24.9193 12.5H27.4193V4.6875H24.9193H22.4193V12.5H24.9193ZM24.9193 4.6875V2.1875H14.5026V4.6875V7.1875H24.9193V4.6875ZM14.5026 4.6875V2.1875H4.08594V4.6875V7.1875H14.5026V4.6875ZM4.08594 4.6875H1.58594V12.5H4.08594H6.58594V4.6875H4.08594ZM4.08594 12.5H1.58594V20.3125H4.08594H6.58594V12.5H4.08594ZM4.08594 20.3125V22.8125H14.5026V20.3125V17.8125H4.08594V20.3125Z" fill="#28694D" mask="url(#path-1-outside-1_1660_2850)"/>
<path d="M24.9167 17.707H17.625" stroke="#28694D" stroke-width="2" stroke-linecap="round" stroke-linejoin="round"/>
<path d="M20.2292 15.1055L17.625 17.7096L20.2292 20.3138" stroke="#28694D" stroke-width="2" stroke-linecap="round" stroke-linejoin="round"/>
<mask id="path-5-outside-2_1660_2850" maskUnits="userSpaceOnUse" x="1.08594" y="1.6875" width="27" height="14" fill="black">
<rect fill="white" x="1.08594" y="1.6875" width="27" height="14"/>
<path d="M4.08594 4.6875L14.5026 12.5L24.9193 4.6875"/>
</mask>
<path d="M5.58594 2.6875C4.48137 1.85907 2.91436 2.08293 2.08594 3.1875C1.25751 4.29207 1.48137 5.85907 2.58594 6.6875L4.08594 4.6875L5.58594 2.6875ZM14.5026 12.5L13.0026 14.5C13.8915 15.1667 15.1137 15.1667 16.0026 14.5L14.5026 12.5ZM26.4193 6.6875C27.5238 5.85907 27.7477 4.29207 26.9193 3.1875C26.0908 2.08293 24.5238 1.85907 23.4193 2.6875L24.9193 4.6875L26.4193 6.6875ZM4.08594 4.6875L2.58594 6.6875L13.0026 14.5L14.5026 12.5L16.0026 10.5L5.58594 2.6875L4.08594 4.6875ZM14.5026 12.5L16.0026 14.5L26.4193 6.6875L24.9193 4.6875L23.4193 2.6875L13.0026 10.5L14.5026 12.5Z" fill="#28694D" mask="url(#path-5-outside-2_1660_2850)"/>
</svg>
