<svg width="28" height="26" viewBox="0 0 28 26" fill="none" xmlns="http://www.w3.org/2000/svg">
<path d="M9.89648 2.5C10.6596 2.50015 11.363 2.91385 11.7334 3.58105L13.0801 6.00684C13.4166 6.61301 13.432 7.3468 13.1221 7.9668L11.9932 10.2227C12.0445 10.3915 12.1216 10.6199 12.2344 10.8838C12.4905 11.4829 12.9147 12.2409 13.5869 12.9131C14.2589 13.5851 15.0145 14.0074 15.6113 14.2617C15.8733 14.3734 16.1006 14.4493 16.2686 14.5L18.5264 13.3721L18.6445 13.3174C19.2386 13.0649 19.9189 13.099 20.4873 13.415L22.9199 14.7676L23.042 14.8408C23.6366 15.2262 24 15.8885 24 16.6035V19.3965C23.9999 21.4437 22.0622 23.0306 20.0117 22.3389C17.2231 21.3979 12.7344 19.5605 9.83691 16.6631C6.93942 13.7656 5.10209 9.27699 4.16113 6.48828C3.46938 4.43779 5.05629 2.50013 7.10352 2.5H9.89648Z" stroke="#838383" stroke-width="2" stroke-linejoin="round"/>
</svg>
