<svg width="28" height="26" viewBox="0 0 28 26" fill="none" xmlns="http://www.w3.org/2000/svg">
<path d="M9.89648 2.25C10.6642 2.25013 11.407 2.61826 11.8516 3.26758L11.9365 3.40137L13.2832 5.69238C13.6788 6.36536 13.6978 7.1898 13.332 7.88086L12.2734 9.87988C12.3186 10.0072 12.3766 10.16 12.4531 10.3291C12.6961 10.8658 13.0996 11.5462 13.7383 12.1494C14.379 12.7545 15.1055 13.1392 15.6865 13.373C15.9058 13.4613 16.0999 13.5236 16.2529 13.5693L18.4404 12.5381L18.5693 12.4814C19.1754 12.2379 19.8601 12.2512 20.4561 12.5205L20.582 12.583L23.0146 13.8604C23.752 14.2475 24.25 15.0082 24.25 15.876V18.5127C24.25 20.7307 22.0784 22.2653 19.9521 21.5879C17.1634 20.6991 12.6286 18.9524 9.68555 16.1729C6.73497 13.3862 4.87687 9.08705 3.93164 6.44141C3.12699 4.18922 5.00046 2.25013 7.10352 2.25H9.89648ZM12.1543 9.49316V9.49121L12.1533 9.48926L12.1543 9.49316Z" stroke="#838383" stroke-width="2.5" stroke-linejoin="round"/>
</svg>
