<svg width="28" height="26" viewBox="0 0 28 26" fill="none" xmlns="http://www.w3.org/2000/svg">
<path d="M2 24.5L3.69505 18.337C2.64908 16.533 2.09947 14.488 2.10048 12.391C2.10349 5.835 7.46395 0.5 14.0502 0.5C17.2464 0.501 20.2467 1.74 22.5034 3.988C24.7591 6.236 26.001 9.224 26 12.402C25.997 18.959 20.6365 24.294 14.0502 24.294C12.0507 24.293 10.0804 23.794 8.33509 22.846L2 24.5ZM8.62848 20.693C10.3125 21.688 11.9201 22.284 14.0462 22.285C19.5202 22.285 23.9794 17.851 23.9824 12.4C23.9844 6.938 19.5463 2.51 14.0543 2.508C8.57624 2.508 4.12007 6.942 4.11806 12.392C4.11706 14.617 4.77217 16.283 5.87239 18.026L4.86863 21.674L8.62848 20.693ZM20.0698 15.229C19.9955 15.105 19.7965 15.031 19.4971 14.882C19.1987 14.733 17.7307 14.014 17.4564 13.915C17.1831 13.816 16.9842 13.766 16.7842 14.064C16.5853 14.361 16.0126 15.031 15.8387 15.229C15.6649 15.427 15.4901 15.452 15.1917 15.303C14.8932 15.154 13.9307 14.841 12.7903 13.828C11.903 13.04 11.3032 12.067 11.1294 11.769C10.9555 11.472 11.1113 11.311 11.26 11.163C11.3946 11.03 11.5584 10.816 11.7081 10.642C11.8598 10.47 11.9091 10.346 12.0095 10.147C12.109 9.949 12.0598 9.775 11.9844 9.626C11.9091 9.478 11.3122 8.015 11.0641 7.42C10.8209 6.841 10.5747 6.919 10.3919 6.91L9.81914 6.9C9.62019 6.9 9.29666 6.974 9.02336 7.272C8.75006 7.57 7.9784 8.288 7.9784 9.751C7.9784 11.214 9.04848 12.627 9.19719 12.825C9.3469 13.023 11.3022 16.025 14.2974 17.312C15.0098 17.618 15.5664 17.801 15.9995 17.938C16.7149 18.164 17.366 18.132 17.8804 18.056C18.4542 17.971 19.6468 17.337 19.896 16.643C20.1452 15.948 20.1452 15.353 20.0698 15.229Z" fill="#28694D"/>
</svg>
