<svg width="28" height="26" viewBox="0 0 28 26" fill="none" xmlns="http://www.w3.org/2000/svg">
<path d="M2 25.5L3.69505 19.337C2.64908 17.533 2.09947 15.488 2.10048 13.391C2.10349 6.835 7.46395 1.5 14.0502 1.5C17.2464 1.501 20.2467 2.74 22.5034 4.988C24.7591 7.236 26.001 10.224 26 13.402C25.997 19.959 20.6365 25.294 14.0502 25.294C12.0507 25.293 10.0804 24.794 8.33509 23.846L2 25.5ZM8.62848 21.693C10.3125 22.688 11.9201 23.284 14.0462 23.285C19.5202 23.285 23.9794 18.851 23.9824 13.4C23.9844 7.938 19.5463 3.51 14.0543 3.508C8.57624 3.508 4.12007 7.942 4.11806 13.392C4.11706 15.617 4.77217 17.283 5.87239 19.026L4.86863 22.674L8.62848 21.693ZM20.0698 16.229C19.9955 16.105 19.7965 16.031 19.4971 15.882C19.1987 15.733 17.7307 15.014 17.4564 14.915C17.1831 14.816 16.9842 14.766 16.7842 15.064C16.5853 15.361 16.0126 16.031 15.8387 16.229C15.6649 16.427 15.4901 16.452 15.1917 16.303C14.8932 16.154 13.9307 15.841 12.7903 14.828C11.903 14.04 11.3032 13.067 11.1294 12.769C10.9555 12.472 11.1113 12.311 11.26 12.163C11.3946 12.03 11.5584 11.816 11.7081 11.642C11.8598 11.47 11.9091 11.346 12.0095 11.147C12.109 10.949 12.0598 10.775 11.9844 10.626C11.9091 10.478 11.3122 9.015 11.0641 8.42C10.8209 7.841 10.5747 7.919 10.3919 7.91L9.81914 7.9C9.62019 7.9 9.29666 7.974 9.02336 8.272C8.75006 8.57 7.9784 9.288 7.9784 10.751C7.9784 12.214 9.04848 13.627 9.19719 13.825C9.3469 14.023 11.3022 17.025 14.2974 18.312C15.0098 18.618 15.5664 18.801 15.9995 18.938C16.7149 19.164 17.366 19.132 17.8804 19.056C18.4542 18.971 19.6468 18.337 19.896 17.643C20.1452 16.948 20.1452 16.353 20.0698 16.229Z" fill="#838383"/>
</svg>
