<svg width="28" height="26" viewBox="0 0 28 26" fill="none" xmlns="http://www.w3.org/2000/svg">
<path d="M3 23.5L4.5538 17.8506C3.59499 16.1969 3.09118 14.3223 3.0921 12.4001C3.09487 6.39042 8.00862 1.5 14.0461 1.5C16.9759 1.50092 19.7261 2.63667 21.7948 4.69733C23.8625 6.758 25.0009 9.497 25 12.4102C24.9972 18.4208 20.0835 23.3112 14.0461 23.3112C12.2132 23.3103 10.407 22.8528 8.80717 21.9838L3 23.5ZM9.07611 20.0103C10.6198 20.9223 12.0934 21.4687 14.0424 21.4696C19.0602 21.4696 23.1478 17.4051 23.1505 12.4083C23.1524 7.4015 19.0841 3.3425 14.0497 3.34067C9.02822 3.34067 4.9434 7.40517 4.94156 12.401C4.94063 14.4406 5.54115 15.9677 6.54969 17.5655L5.62957 20.9095L9.07611 20.0103ZM19.564 15.0016C19.4959 14.8879 19.3135 14.8201 19.039 14.6835C18.7655 14.5469 17.4198 13.8878 17.1684 13.7971C16.9179 13.7063 16.7355 13.6605 16.5522 13.9337C16.3698 14.2059 15.8448 14.8201 15.6855 15.0016C15.5262 15.1831 15.3659 15.206 15.0924 15.0694C14.8188 14.9328 13.9364 14.6459 12.8911 13.7173C12.0778 12.995 11.5279 12.1031 11.3686 11.8299C11.2092 11.5577 11.352 11.4101 11.4883 11.2744C11.6117 11.1525 11.7619 10.9563 11.8991 10.7968C12.0382 10.6392 12.0833 10.5255 12.1754 10.3431C12.2666 10.1616 12.2215 10.0021 12.1524 9.8655C12.0833 9.72983 11.5362 8.38875 11.3087 7.84333C11.0858 7.31258 10.8602 7.38408 10.6925 7.37583L10.1675 7.36667C9.98518 7.36667 9.6886 7.4345 9.43808 7.70767C9.18756 7.98083 8.4802 8.639 8.4802 9.98008C8.4802 11.3212 9.46111 12.6164 9.59742 12.7979C9.73466 12.9794 11.527 15.7313 14.2726 16.911C14.9256 17.1915 15.4359 17.3593 15.8329 17.4848C16.4887 17.692 17.0855 17.6627 17.5571 17.593C18.083 17.5151 19.1763 16.9339 19.4047 16.2978C19.6331 15.6607 19.6331 15.1153 19.564 15.0016Z" fill="#838383"/>
</svg>
