<svg width="103" height="80" viewBox="0 0 103 80" fill="none" xmlns="http://www.w3.org/2000/svg">
<g clip-path="url(#clip0_3884_25880)">
<path d="M27.3884 52.7143V27.1475H79.7364V24.0999V24.0618V16.1809V16.1428V8.26183V8.22373V0.304688H71.7694H71.7263H63.8025H63.7594H55.8308H55.7925H47.8639H47.8255H39.8778H39.8586H31.9108H31.8677H23.9439H23.9008H15.977H15.9339H8.01005H7.96693H0V8.22373V8.26183V16.1428V16.1809V24.0618V24.0999V31.9809V32.019V39.9237V39.938V47.8428V47.8809V55.7619V55.8V63.6809V63.719V71.6V71.6381V79.5571H7.96693H8.01005H15.9339H15.977H23.9008H23.9439H31.8677H31.9108H39.8586H39.8778H47.8255H47.8639H55.7925H55.8308H63.7594H63.8025H71.7263H71.7694H79.7364V71.6381V71.6V63.719V63.6809V55.8V55.7619V52.7143H27.3884Z" fill="#2E2D2D"/>
<path d="M35.1846 32.9453L33.781 35.5405C33.6709 35.7659 33.5063 35.9606 33.3019 36.1072C33.1207 36.2333 32.9051 36.3014 32.6839 36.3025C32.4944 36.3016 32.307 36.2627 32.133 36.1882L32.3198 35.612C32.426 35.6499 32.5376 35.6708 32.6504 35.6739C32.7394 35.6737 32.8268 35.6508 32.9043 35.6072C32.9879 35.5517 33.0583 35.4786 33.1103 35.3929L33.139 35.3548L31.8359 32.9453H32.6551L33.5271 34.7072L34.4325 32.9453H35.1846Z" fill="#2E2D2D"/>
<path d="M37.1168 34.9025H36.5898V36.2263H35.8281V32.9453H36.5898V34.2691H37.136L38.0031 32.9453H38.8079L37.73 34.531L38.8415 36.2263H37.9744L37.1168 34.9025Z" fill="#2E2D2D"/>
<path d="M41.6803 33.0887C41.8865 33.1745 42.0616 33.3208 42.1823 33.5079C42.3029 33.695 42.3634 33.9141 42.3558 34.1363C42.3534 34.3589 42.2851 34.5759 42.1594 34.7601C42.044 34.9419 41.8774 35.086 41.6803 35.1744C41.4393 35.2745 41.1797 35.3232 40.9186 35.3172H40.2431V36.222H39.4766V32.9458H40.9138C41.175 32.9398 41.4345 32.9885 41.6755 33.0887H41.6803ZM41.3976 34.5553C41.454 34.5004 41.4987 34.4348 41.5293 34.3624C41.5598 34.29 41.5756 34.2124 41.5756 34.1339C41.5756 34.0554 41.5598 33.9777 41.5293 33.9054C41.4987 33.833 41.454 33.7674 41.3976 33.7125C41.2447 33.6036 41.0583 33.5513 40.8707 33.5649H40.2431V34.7029H40.8611C41.0487 34.7165 41.2351 34.6642 41.388 34.5553" fill="#2E2D2D"/>
<path d="M45.2077 35.5215H43.6747L43.3824 36.2263H42.6016L44.0771 32.9453H44.8292L46.3096 36.2263H45.5143L45.2077 35.5215ZM44.9682 34.9453L44.446 33.6929L43.919 34.9453H44.9682Z" fill="#2E2D2D"/>
<path d="M46.6574 32.5631C46.5964 32.4986 46.5625 32.4135 46.5625 32.325C46.5625 32.2365 46.5964 32.1513 46.6574 32.0869C46.6891 32.0565 46.7267 32.0328 46.7678 32.0172C46.809 32.0017 46.8529 31.9946 46.8969 31.9964C46.9394 31.9951 46.9818 32.0024 47.0214 32.018C47.0609 32.0336 47.0968 32.057 47.1269 32.0869C47.1879 32.1513 47.2218 32.2365 47.2218 32.325C47.2218 32.4135 47.1879 32.4986 47.1269 32.5631C47.0968 32.5929 47.0609 32.6164 47.0214 32.632C46.9818 32.6475 46.9394 32.6549 46.8969 32.6536C46.8529 32.6553 46.809 32.6482 46.7678 32.6327C46.7267 32.6171 46.6891 32.5935 46.6574 32.5631ZM46.988 32.944H47.7545V36.225H46.988V32.944ZM47.6155 32.5631C47.5837 32.532 47.5583 32.495 47.5411 32.4541C47.5238 32.4132 47.5149 32.3693 47.5149 32.325C47.5149 32.2806 47.5238 32.2367 47.5411 32.1958C47.5583 32.1549 47.5837 32.1179 47.6155 32.0869C47.6452 32.0565 47.6811 32.0327 47.7207 32.0171C47.7604 32.0016 47.8029 31.9945 47.8455 31.9964C47.8895 31.9949 47.9333 32.0021 47.9745 32.0176C48.0157 32.0332 48.053 32.0567 48.0851 32.0869C48.146 32.1513 48.18 32.2365 48.18 32.325C48.18 32.4135 48.146 32.4986 48.0851 32.5631C48.053 32.5932 48.0157 32.6168 47.9745 32.6323C47.9333 32.6478 47.8895 32.6551 47.8455 32.6536C47.8029 32.6555 47.7604 32.6484 47.7207 32.6328C47.6811 32.6172 47.6452 32.5934 47.6155 32.5631Z" fill="#2E2D2D"/>
<path d="M51.8871 32.9453V36.2263H51.1254V34.8786H49.6259V36.2263H48.8594V32.9453H49.6259V34.2405H51.1254V32.9453H51.8871Z" fill="#2E2D2D"/>
<path d="M53.6503 36.0671C53.4515 35.9559 53.2767 35.8065 53.1368 35.6275C52.9964 35.4485 52.8934 35.2436 52.8335 35.0246C52.7736 34.8057 52.7583 34.5771 52.7885 34.3522C52.8187 34.1273 52.8934 33.9106 53.0084 33.7147C53.1612 33.4574 53.3835 33.2478 53.6503 33.11C53.9315 32.9608 54.2468 32.8853 54.5654 32.8909C54.8322 32.8875 55.0962 32.9394 55.3414 33.0433C55.5671 33.1394 55.7669 33.2862 55.9259 33.4719L55.4468 33.9242C55.3472 33.8017 55.2207 33.7032 55.0775 33.6364C54.9338 33.5695 54.7766 33.5361 54.6181 33.5385C54.4274 33.534 54.2386 33.58 54.0719 33.6719C53.9148 33.7584 53.7854 33.8871 53.6982 34.0433C53.6101 34.2117 53.5641 34.3987 53.5641 34.5885C53.5641 34.7784 53.6101 34.9654 53.6982 35.1338C53.7854 35.29 53.9148 35.4187 54.0719 35.5052C54.2386 35.5971 54.4274 35.6431 54.6181 35.6385C54.7771 35.6411 54.9347 35.6073 55.0784 35.5396C55.2222 35.4719 55.3482 35.3721 55.4468 35.2481L55.9259 35.7242C55.7683 35.9128 55.568 36.0613 55.3414 36.1576C55.0942 36.261 54.8288 36.3128 54.5606 36.31C54.2434 36.315 53.9301 36.2396 53.6503 36.0909" fill="#2E2D2D"/>
<path d="M59.2122 34.2834C59.3248 34.3809 59.4125 34.5031 59.469 34.6403C59.5255 34.7775 59.5495 34.926 59.538 35.0739C59.548 35.2339 59.5207 35.394 59.4584 35.5418C59.3962 35.6896 59.3003 35.8212 59.1787 35.9263C58.8898 36.1372 58.5353 36.2401 58.1774 36.2167H56.6875V32.9453H57.4492V34.0215H58.2876C58.6182 33.9998 58.9463 34.0961 59.2122 34.2929V34.2834ZM58.599 35.5167C58.6574 35.4644 58.7029 35.3994 58.7322 35.3267C58.7609 35.254 58.7729 35.1756 58.7667 35.0977C58.7667 34.7548 58.5559 34.5882 58.1343 34.5882H57.4492V35.6644H58.1343C58.3072 35.6796 58.4792 35.6266 58.6134 35.5167" fill="#2E2D2D"/>
<path d="M61.6637 34.9025H61.1319V36.2263H60.375V32.9453H61.1319V34.2691H61.6829L62.55 32.9453H63.3548L62.2769 34.531L63.3883 36.2263H62.5212L61.6637 34.9025Z" fill="#2E2D2D"/>
<path d="M64.0234 32.9453H64.7804V35.0834L66.3565 32.9453H67.0751V36.2263H66.3182V34.0929L64.7468 36.2263H64.0234V32.9453Z" fill="#2E2D2D"/>
<path d="M68.1719 32.9485H68.9336V35.0866L70.5049 32.9485H71.2235V36.2294H70.4714V34.0961L68.8953 36.2294H68.1719V32.9485ZM68.7803 31.9961H69.3025C69.3025 32.2247 69.4414 32.3389 69.6953 32.3389C69.7983 32.3455 69.9004 32.3151 69.9828 32.2532C70.0177 32.2202 70.045 32.1803 70.0632 32.1359C70.0814 32.0916 70.0901 32.044 70.0882 31.9961H70.6103C70.6151 32.0965 70.5964 32.1966 70.5567 32.2889C70.5169 32.3813 70.4566 32.4635 70.3804 32.5294C70.1801 32.6675 69.9382 32.7331 69.6953 32.7151C69.0917 32.7151 68.7899 32.4723 68.7803 31.9961Z" fill="#2E2D2D"/>
<path d="M36.7235 41.4603C36.9321 41.7525 37.0196 42.1133 36.9679 42.4679C36.9161 42.8225 36.7291 43.1437 36.4456 43.365C35.9891 43.6533 35.4523 43.79 34.9126 43.7555H32.2969V38.465H34.7689C35.2733 38.4361 35.7746 38.5607 36.2061 38.8222C36.3728 38.9316 36.5081 39.0821 36.5988 39.259C36.6895 39.436 36.7324 39.6333 36.7235 39.8317C36.7274 40.076 36.6591 40.3161 36.5271 40.5222C36.3895 40.7288 36.1972 40.8936 35.9713 40.9984C36.2647 41.0747 36.5263 41.2414 36.7187 41.4746L36.7235 41.4603ZM33.5377 40.6555H34.6826C34.8977 40.6687 35.1113 40.6118 35.2911 40.4936C35.3596 40.435 35.4137 40.3617 35.4494 40.2792C35.4851 40.1967 35.5014 40.1071 35.497 40.0174C35.5012 39.9273 35.4843 39.8374 35.4478 39.7548C35.4112 39.6722 35.3559 39.5991 35.2863 39.5412C35.1095 39.42 34.8969 39.3613 34.6826 39.3746H33.5377V40.6555ZM35.7557 42.165C35.7557 41.7269 35.4635 41.5079 34.8886 41.5079H33.5377V42.8555H34.8886C35.4635 42.8555 35.7557 42.6317 35.7557 42.1793" fill="#2E2D2D"/>
<path d="M42.5136 42.7609V43.7419H38.3984V38.4609H42.413V39.4419H39.6201V40.5895H42.0873V41.5419H39.6201V42.7609H42.5136Z" fill="#2E2D2D"/>
<path d="M48.0179 39.4609H46.3172V43.7419H45.1052V39.4609H43.4141V38.4609H48.0179V39.4609Z" fill="#2E2D2D"/>
<path d="M53.3808 42.7609V43.7419H49.2656V38.4609H53.2802V39.4419H50.4873V40.5895H52.9545V41.5419H50.4873V42.7609H53.3808Z" fill="#2E2D2D"/>
<path d="M58.3541 38.6949C58.5936 38.8108 58.8063 38.9751 58.9783 39.1773C59.1508 39.3796 59.2782 39.6152 59.3539 39.8693C59.4291 40.1234 59.4502 40.3903 59.4157 40.653C59.3812 40.9157 59.2926 41.1683 59.1541 41.3949C58.9601 41.6899 58.6813 41.9204 58.3541 42.0568C57.9665 42.2189 57.5483 42.2984 57.1277 42.2901H56.0593V43.7425H54.8281V38.4615H57.1277C57.5483 38.4532 57.9665 38.5327 58.3541 38.6949ZM57.9038 41.0758C57.9953 40.9871 58.0676 40.8812 58.1169 40.7642C58.1668 40.6473 58.1922 40.5217 58.1922 40.3949C58.1922 40.268 58.1668 40.1424 58.1169 40.0254C58.0676 39.9085 57.9953 39.8026 57.9038 39.7139C57.6589 39.5398 57.361 39.4556 57.0606 39.4758H56.0593V41.3092H57.0606C57.3605 41.3307 57.6585 41.2482 57.9038 41.0758Z" fill="#2E2D2D"/>
<path d="M64.0344 42.6133H61.5671L61.0881 43.7419H59.8281L62.1947 38.4609H63.4116L65.783 43.7419H64.4943L64.0344 42.6133ZM63.6463 41.6609L62.8031 39.6371L61.96 41.6609H63.6463Z" fill="#2E2D2D"/>
<path d="M71.8175 38.4609V43.7419H70.5862V41.58H68.1717V43.7419H66.9453V38.4609H68.1717V40.5467H70.5862V38.4609H71.8175Z" fill="#2E2D2D"/>
<path d="M74.6592 43.4931C74.227 43.2631 73.8668 42.9193 73.6186 42.4993C73.37 42.0793 73.2426 41.5994 73.2507 41.1122C73.2392 40.6101 73.3705 40.115 73.6292 39.6836C73.8788 39.279 74.2352 38.9497 74.6592 38.7312C75.0788 38.5197 75.5397 38.4005 76.0101 38.3816C76.4806 38.3627 76.9491 38.4446 77.3851 38.6217C77.7563 38.773 78.085 39.0116 78.3432 39.317L77.5527 40.0408C77.3913 39.844 77.1872 39.686 76.9558 39.5788C76.7244 39.4716 76.4715 39.4179 76.2161 39.4217C75.9086 39.4163 75.6048 39.4902 75.3346 39.636C75.0798 39.7748 74.8704 39.9829 74.731 40.236C74.5897 40.5068 74.5164 40.8073 74.5164 41.1122C74.5164 41.4171 74.5897 41.7176 74.731 41.9884C74.8719 42.2404 75.0812 42.4482 75.3346 42.5884C75.6048 42.7342 75.9086 42.808 76.2161 42.8027C76.4724 42.8057 76.7259 42.7507 76.9573 42.6418C77.1891 42.5329 77.3927 42.3729 77.5527 42.1741L78.3432 42.8979C78.0864 43.207 77.7573 43.449 77.3851 43.6027C76.9884 43.765 76.5635 43.846 76.1347 43.8408C75.623 43.8485 75.1171 43.729 74.6639 43.4931" fill="#2E2D2D"/>
<path d="M83.6406 40.6276C83.8193 40.7869 83.9587 40.9848 84.0483 41.206C84.1379 41.4272 84.1758 41.6659 84.158 41.9038C84.1748 42.1598 84.1322 42.4162 84.0335 42.6532C83.9348 42.8902 83.782 43.1014 83.5879 43.2705C83.1228 43.6125 82.5512 43.781 81.9735 43.7467H79.5781V38.4609H80.7997V40.199H82.1507C82.6825 40.164 83.21 40.3157 83.6406 40.6276ZM82.6538 42.6038C82.7457 42.5175 82.8171 42.4122 82.8636 42.2954C82.91 42.1785 82.9297 42.0529 82.922 41.9276C82.922 41.3752 82.5819 41.1038 81.9064 41.1038H80.7997V42.8514H81.9256C82.1953 42.8681 82.4616 42.785 82.6729 42.6181" fill="#2E2D2D"/>
<path d="M87.5618 41.6181H86.7138V43.7419H85.4922V38.4609H86.7138V40.599H87.5953L88.9894 38.4609H90.2877L88.5487 41.0133L90.3404 43.7419H88.9463L87.5618 41.6181Z" fill="#2E2D2D"/>
<path d="M91.375 38.4609H92.5966V41.9038L95.1309 38.4609H96.2855V43.7419H95.0686V40.3133L92.5343 43.7419H91.375V38.4609Z" fill="#2E2D2D"/>
<path d="M98.0547 38.467H99.2763V41.9051L101.815 38.4623H102.965V43.7432H101.753V40.3099L99.2188 43.7432H98.0547V38.467ZM99.0368 36.9766H99.8799C99.8799 37.3432 100.096 37.5242 100.508 37.5242C100.679 37.5406 100.851 37.4912 100.987 37.3861C101.042 37.3333 101.085 37.2696 101.114 37.199C101.143 37.1285 101.157 37.0527 101.154 36.9766H101.993C102 37.1378 101.971 37.2988 101.907 37.4473C101.844 37.5958 101.746 37.7279 101.624 37.8337C101.3 38.0525 100.912 38.1565 100.522 38.1289C99.5638 38.1289 99.0847 37.7432 99.0512 36.9766" fill="#2E2D2D"/>
<path d="M35.6753 48.186C35.3056 48.4583 34.8565 48.6041 34.3962 48.6002V48.9574H33.6919V48.5955C33.2299 48.596 32.7798 48.4493 32.408 48.1764C32.2606 48.0526 32.1437 47.8964 32.0664 47.7207C31.9892 47.5449 31.9536 47.3538 31.9625 47.1621C31.9529 46.9703 31.9881 46.7789 32.0654 46.6029C32.1427 46.4269 32.26 46.2711 32.408 46.1478C32.7801 45.8751 33.2296 45.7266 33.6919 45.724V45.3906H34.3962V45.7144C34.8572 45.7158 35.3056 45.8644 35.6753 46.1382C35.8158 46.2692 35.9278 46.4274 36.0044 46.6031C36.081 46.7788 36.1205 46.9682 36.1205 47.1597C36.1205 47.3511 36.081 47.5406 36.0044 47.7164C35.9278 47.8921 35.8158 48.0502 35.6753 48.1812V48.186ZM33.6919 48.0002V46.3192C33.4235 46.3258 33.1633 46.4121 32.9446 46.5668C32.8623 46.6408 32.798 46.7324 32.7565 46.8347C32.715 46.937 32.6974 47.0473 32.705 47.1573C32.705 47.6336 33.0308 47.9288 33.6919 48.0002ZM35.1291 47.7431C35.2137 47.6702 35.2802 47.5793 35.3235 47.4769C35.3667 47.3744 35.3854 47.2634 35.3782 47.1525C35.3782 46.6763 35.0477 46.3716 34.3866 46.3192V48.0002C34.6544 47.9902 34.913 47.9007 35.1291 47.7431Z" fill="#2E2D2D"/>
<path d="M37.6317 48.6448C37.3622 48.5034 37.1371 48.2906 36.9816 48.0301C36.826 47.7696 36.746 47.4716 36.7502 47.1686C36.7449 46.862 36.8262 46.5601 36.985 46.2972C37.1382 46.0385 37.3626 45.8287 37.6317 45.6924C37.9175 45.5455 38.2346 45.4688 38.5563 45.4688C38.8781 45.4688 39.1952 45.5455 39.4809 45.6924C39.6804 45.8018 39.8559 45.9498 39.9968 46.1278C40.1378 46.3056 40.2415 46.5098 40.3018 46.7282C40.3621 46.9466 40.3777 47.1748 40.3478 47.3993C40.3179 47.6239 40.2431 47.8401 40.1277 48.0353C39.9706 48.292 39.7474 48.5025 39.4809 48.6448C39.1943 48.7887 38.8776 48.8639 38.5563 48.8639C38.2352 48.8639 37.9185 48.7887 37.6317 48.6448ZM39.0689 48.0829C39.2247 47.9944 39.3538 47.8663 39.4426 47.7115C39.5319 47.5444 39.578 47.3578 39.5768 47.1686C39.579 46.9793 39.5328 46.7925 39.4426 46.6258C39.3563 46.4678 39.2267 46.3374 39.0689 46.2496C38.9079 46.1605 38.7263 46.1146 38.542 46.1162C38.3578 46.1158 38.1765 46.1617 38.015 46.2496C37.859 46.3381 37.7312 46.4685 37.6461 46.6258C37.5536 46.7917 37.5074 46.979 37.512 47.1686C37.5085 47.3581 37.5547 47.5452 37.6461 47.7115C37.7319 47.8672 37.8596 47.9958 38.015 48.0829C38.1757 48.1729 38.3575 48.2191 38.542 48.2163C38.7266 48.2201 38.9087 48.1744 39.0689 48.0829Z" fill="#2E2D2D"/>
<path d="M44.2621 45.5273V48.8083H43.5004V47.4654H42.0009V48.8083H41.2344V45.5273H42.0009V46.8226H43.5004V45.5273H44.2621Z" fill="#2E2D2D"/>
<path d="M48.762 48.1893V49.4893H48.053V48.8083H45.7246V49.4893H45.0156V48.1893H45.145C45.3462 48.1893 45.4851 48.0417 45.5666 47.7607C45.664 47.3662 45.7154 46.962 45.7199 46.5559L45.7534 45.5273H48.2925V48.1893H48.762ZM46.2995 47.6178C46.2699 47.8274 46.1893 48.0269 46.0648 48.1988H47.5403V46.1559H46.4097V46.6321C46.4006 46.9609 46.3686 47.2886 46.3139 47.6131" fill="#2E2D2D"/>
</g>
<defs>
<clipPath id="clip0_3884_25880">
<rect width="103" height="80" fill="white"/>
</clipPath>
</defs>
</svg>
