<svg width="91" height="48" viewBox="0 0 91 48" fill="none" xmlns="http://www.w3.org/2000/svg">
<g clip-path="url(#clip0_3884_25878)">
<path d="M12.4751 10.1954C12.5567 10.3703 12.674 10.5262 12.8193 10.6531C12.9647 10.7799 13.135 10.875 13.3192 10.9321C13.5852 10.9737 13.8569 10.9618 14.1183 10.8972C14.3797 10.8326 14.6257 10.7165 14.8419 10.5558C15.8244 10.0273 16.6604 9.26277 17.2748 8.33092C17.8892 7.39908 18.2628 6.32908 18.3619 5.21704C18.4061 3.78709 17.719 3.05235 16.0666 2.76825C15.2313 3.13347 14.4792 3.66541 13.8563 4.33152C13.2335 4.99763 12.7529 5.78392 12.4441 6.64229C12.1747 7.1967 12.0373 7.80606 12.0426 8.42255C12.048 9.03905 12.1961 9.64581 12.4751 10.1954ZM22.5023 7.54447C21.1526 11.0055 17.3759 13.2587 13.5542 13.2587C12.5384 13.2619 11.529 13.0969 10.5671 12.7704C9.90481 12.6003 9.29408 12.2709 8.78792 11.8108C8.28177 11.3508 7.8955 10.774 7.66266 10.1306C7.38874 9.24714 7.32391 8.31199 7.47333 7.39911C7.62274 6.48623 7.98229 5.62066 8.52355 4.87084C9.42206 3.37495 10.6947 2.13934 12.2159 1.28592C13.7371 0.432491 15.4543 -0.00927287 17.1981 0.00420569C17.1981 0.00420569 19.156 0.0352507 19.7011 0.650506C19.8446 0.943582 19.9186 1.26584 19.9173 1.5922C20.4846 1.70491 21.0226 1.9332 21.498 2.26286C21.9734 2.59253 22.376 3.01654 22.6807 3.50853C22.942 4.15467 23.0613 4.84953 23.0305 5.54592C22.9997 6.2423 22.8197 6.92398 22.5023 7.54447ZM18.0788 33.5403C17.9142 28.1212 17.4747 22.714 16.7619 17.3395C16.6012 16.7488 15.9301 15.4073 13.1714 15.7084C12.6935 15.7376 12.2301 15.8834 11.8214 16.1331C11.4128 16.3829 11.0715 16.7289 10.8272 17.141C8.92494 20.5335 7.25279 24.0501 5.82209 27.6672C3.21801 33.7459 1.27343 40.0869 0.0217751 46.5811C-0.0288121 46.7647 -0.0142067 46.9601 0.0630996 47.134C0.140406 47.308 0.275623 47.4497 0.445684 47.535C1.03142 47.8429 1.68371 48.0022 2.34528 47.9988C2.9898 48.0024 3.62556 47.8494 4.19798 47.5529L4.26274 47.5191L4.52687 46.535C6.81654 37.976 8.79989 30.5628 12.865 22.5034C13.2626 26.972 13.4328 31.2148 13.6122 35.6975C13.6818 37.4304 13.7532 39.2235 13.8397 41.0212C13.8801 41.8068 13.8942 42.709 13.9083 43.582C13.9206 44.3656 13.9337 45.1756 13.9647 45.884C13.9691 46.2072 14.0604 46.5233 14.2289 46.7991C14.3974 47.0749 14.637 47.3002 14.9225 47.4513C15.357 47.6762 15.8389 47.794 16.3281 47.7948C16.8172 47.7956 17.2995 47.6795 17.7348 47.456C18.7264 46.9104 18.6428 45.4419 18.4754 42.5152C18.436 41.8228 18.1869 35.6984 18.0788 33.5403ZM81.9458 23.5425C81.9458 22.2076 81.4655 21.6921 80.5943 21.6921C79.8291 21.6921 79.0649 22.1897 79.0649 23.5425H81.9458ZM76.2019 24.6103C76.2019 21.265 78.2473 19.7513 80.7361 19.7513C83.5465 19.7513 84.7196 21.4606 84.7196 24.0411C84.7196 24.3441 84.7017 24.9311 84.667 25.2519H79.0293C79.0829 26.7825 79.723 27.3517 80.8969 27.3517C81.2717 27.377 81.6413 27.2526 81.9246 27.0057C82.2079 26.7588 82.3818 26.4096 82.4083 26.0346L84.667 26.5868C84.3286 28.3131 82.9412 29.4345 80.7361 29.4345C77.3045 29.4345 76.2019 27.1202 76.2019 24.6103ZM74.5833 29.2209H71.898V15.7832H74.5833V29.2209ZM64.0026 26.6574C64.4599 27.036 65.0282 27.2547 65.6212 27.2802C66.8655 27.2802 67.3637 26.2481 67.3637 24.4504C67.3637 22.582 66.8129 21.8877 65.7274 21.8877C65.0919 21.9367 64.4882 22.1857 64.0026 22.5989V26.6574ZM61.3529 19.947H63.6294L63.7892 20.8905C64.1735 20.5188 64.6274 20.2268 65.1249 20.0313C65.6224 19.8358 66.1536 19.7406 66.6879 19.7513C68.6618 19.7513 70.1732 20.962 70.1732 24.3789C70.1732 28.0638 68.4484 29.4345 66.4032 29.4345C65.9557 29.4553 65.5085 29.3874 65.0874 29.2346C64.6662 29.0819 64.2794 28.8474 63.949 28.5445V32.9943H61.3529V19.947ZM56.9071 24.5219C56.9071 22.4926 56.3563 21.7805 55.1644 21.7805C53.9557 21.7805 53.28 22.5463 53.28 24.5576C53.28 26.6216 53.796 27.441 55.1118 27.441C56.2848 27.441 56.9071 26.6931 56.9071 24.5219ZM50.4704 24.6282C50.4704 21.6563 52.0175 19.7513 55.2359 19.7513C58.4542 19.7513 59.6996 21.6921 59.6996 24.4325C59.6996 27.4589 58.3124 29.4345 54.9868 29.4345C51.6256 29.4345 50.4704 27.4053 50.4704 24.6282ZM46.487 23.5425C46.487 22.2076 46.0067 21.6921 45.1355 21.6921C44.3704 21.6921 43.6062 22.1897 43.6062 23.5425H46.487ZM40.7422 24.6103C40.7422 21.265 42.7874 19.7513 45.2774 19.7513C48.0868 19.7513 49.2608 21.4606 49.2608 24.0411C49.2608 24.3441 49.2429 24.9311 49.2072 25.2519H43.5703C43.6229 26.7825 44.264 27.3517 45.437 27.3517C45.8118 27.377 46.1814 27.2526 46.4647 27.0058C46.748 26.7589 46.922 26.4096 46.9485 26.0346L49.2071 26.5868C48.8696 28.3131 47.4823 29.4345 45.2773 29.4345C41.8456 29.4345 40.7422 27.1202 40.7422 24.6103ZM34.8919 22.8482C36.2972 22.8482 37.4175 22.439 37.4175 20.5528C37.4175 18.8971 36.439 18.5415 35.1053 18.5415H33.7894V22.8482H34.8919ZM33.7895 29.2209H31.0684V16.3344H35.9409C39.2306 16.3344 40.227 18.31 40.227 20.3571C40.227 23.4541 38.5378 25.0553 35.1946 25.0553H33.7894L33.7895 29.2209ZM88.3298 44.4565C87.8995 44.861 87.337 45.095 86.7471 45.115C85.4846 45.115 84.9687 44.1357 84.9687 42.4809C84.9687 40.8788 85.4846 39.6859 86.8364 39.6859C87.3763 39.6952 87.8993 39.876 88.3298 40.2024V44.4565ZM90.9973 33.5814H88.4191V38.3341C88.0998 38.0532 87.7276 37.8391 87.3243 37.7045C86.9211 37.5699 86.495 37.5175 86.0712 37.5504C84.1509 37.5504 82.1592 38.8496 82.1592 42.5694C82.1592 45.8978 83.6349 47.2327 85.8043 47.2327C86.3166 47.2569 86.8278 47.1673 87.3013 46.9703C87.7748 46.7733 88.199 46.4739 88.5432 46.0934L88.5969 46.1113L88.7566 47.0191H90.9973V33.5814ZM75.0636 41.3417C75.0636 39.9889 75.8288 39.4902 76.5929 39.4902C77.4643 39.4902 77.9446 40.0067 77.9446 41.3417H75.0636ZM76.7348 47.2327C78.94 47.2327 80.3272 46.1113 80.6656 44.385L78.407 43.8337C78.3805 44.2088 78.2065 44.558 77.9232 44.8049C77.6399 45.0517 77.2703 45.1761 76.8956 45.1508C75.7216 45.1508 75.0815 44.5807 75.0279 43.0501H80.6656C80.7014 42.7302 80.7183 42.1422 80.7183 41.8403C80.7183 39.2588 79.5452 37.5504 76.7348 37.5504C74.2459 37.5504 72.2007 39.0631 72.2007 42.4094C72.2007 44.9194 73.3031 47.2327 76.7348 47.2327ZM65.1586 41.3417C65.1586 39.9889 65.9229 39.4902 66.6879 39.4902C67.5592 39.4902 68.0396 40.0067 68.0396 41.3417H65.1586ZM66.8298 47.2327C69.0349 47.2327 70.4222 46.1113 70.7597 44.385L68.502 43.8337C68.4753 44.2087 68.3013 44.5578 68.018 44.8046C67.7348 45.0515 67.3654 45.1759 66.9906 45.1508C65.8167 45.1508 65.1766 44.5807 65.1229 43.0501H70.7597C70.7954 42.7302 70.8133 42.1422 70.8133 41.8403C70.8133 39.2588 69.6402 37.5504 66.8298 37.5504C64.34 37.5504 62.2957 39.0631 62.2957 42.4094C62.2957 44.9194 63.3981 47.2327 66.8298 47.2327ZM60.5709 47.0191V34.1326H58.081V43.2636L53.2084 34.1326H49.9365V47.0191H52.4433V37.9239L57.4052 47.0191H60.5709ZM43.9435 40.6831C43.9435 38.5645 43.0544 37.5504 41.0092 37.5504C39.9194 37.539 38.8654 37.9394 38.0578 38.6718L37.915 37.7461H35.532V47.0191H38.2174V40.4514C38.7227 40.0106 39.3619 39.7534 40.0315 39.7214C40.8671 39.7214 41.2582 40.1485 41.2582 41.1457V47.0189H43.9434L43.9435 40.6831ZM33.5047 37.7461H30.8193V47.0191H33.5047V37.7461ZM33.7896 34.8984C33.786 34.5789 33.688 34.2676 33.508 34.0037C33.3281 33.7397 33.0741 33.535 32.7782 33.4152C32.4822 33.2954 32.1575 33.2659 31.8448 33.3304C31.5321 33.3949 31.2455 33.5506 31.021 33.7777C30.7965 34.0049 30.6441 34.2935 30.5831 34.6071C30.5221 34.9208 30.5551 35.2455 30.6781 35.5403C30.801 35.8352 31.0084 36.0871 31.274 36.2644C31.5397 36.4416 31.8517 36.5362 32.171 36.5363C32.3906 36.5585 32.6124 36.5313 32.8201 36.4566C33.0278 36.3819 33.2162 36.2616 33.3714 36.1045C33.5266 35.9475 33.6447 35.7576 33.7171 35.5489C33.7894 35.3402 33.8142 35.1179 33.7896 34.8984Z" fill="#2E2D2D"/>
</g>
<defs>
<clipPath id="clip0_3884_25878">
<rect width="91" height="48" fill="white"/>
</clipPath>
</defs>
</svg>
