<svg width="61" height="61" viewBox="0 0 61 61" fill="none" xmlns="http://www.w3.org/2000/svg">
<g clip-path="url(#clip0_3884_25735)">
<path d="M60.3906 19.8677C60.3906 3.29981 46.9598 0.398438 30.3906 0.398438C13.8215 0.398438 0.390625 3.29981 0.390625 19.8677C0.390625 36.4356 13.8215 60.3972 30.3906 60.3972C46.9598 60.3972 60.3906 36.4356 60.3906 19.8677Z" fill="#2E2D2D"/>
<path d="M43.0821 6.68576C42.6382 7.60467 45.5296 11.0048 44.2791 11.6407C43.1644 12.2067 39.4152 12.112 33.6249 12.0833C28.6151 12.0584 24.2088 11.8539 24.5816 13.6094C25.0392 15.7664 26.5716 15.2577 27.109 22.6128C18.6355 14.4411 13.7629 20.8223 13.324 24.5055C12.8539 28.4604 13.9811 37.5498 28.3396 44.7839C28.7037 49.7563 28.5827 52.2587 29.3134 52.8435C30.3582 53.6801 34.1137 53.6514 34.4653 52.9931C35.0151 51.9619 34.4927 49.3561 34.1673 44.9149C44.5409 41.5721 48.7253 32.7458 46.552 26.0328C44.3152 19.1204 36.7021 19.472 32.2808 23.0405C31.9616 18.674 31.3694 17.2689 30.4442 15.9622C28.8982 13.7777 43.3365 17.4921 45.5034 16.8013C47.2777 16.2365 49.3275 10.0896 48.8948 8.49615C48.3213 6.38277 43.5522 5.71572 43.0821 6.687V6.68576ZM17.0583 25.5329C18.1043 22.5816 22.881 23.0118 27.4955 27.8844L28.3121 39.1857C20.2838 35.4514 16.0433 28.3956 17.0583 25.5329ZM44.2666 29.201C43.5983 33.1173 39.8603 38.3017 33.5027 39.8789L32.6586 28.2023C39.9688 21.6914 45.001 24.8945 44.2666 29.1998V29.201Z" fill="#FBFBF9"/>
<path d="M43.0821 6.68576C42.6382 7.60467 45.5296 11.0048 44.2791 11.6407C43.1644 12.2067 39.4152 12.112 33.6249 12.0833C28.6151 12.0584 24.2088 11.8539 24.5816 13.6094C25.0392 15.7664 26.5716 15.2577 27.109 22.6128C18.6355 14.4411 13.7629 20.8223 13.324 24.5055C12.8539 28.4604 13.9811 37.5498 28.3396 44.7839C28.7037 49.7563 28.5827 52.2587 29.3134 52.8435C30.3582 53.6801 34.1137 53.6514 34.4653 52.9931C35.0151 51.9619 34.4927 49.3561 34.1673 44.9149C44.5409 41.5721 48.7253 32.7458 46.552 26.0328C44.3152 19.1204 36.7021 19.472 32.2808 23.0405C31.9616 18.674 31.3694 17.2689 30.4442 15.9622C28.8982 13.7777 43.3365 17.4921 45.5034 16.8013C47.2777 16.2365 49.3275 10.0896 48.8948 8.49615C48.3213 6.38277 43.5522 5.71572 43.0821 6.687V6.68576ZM17.0583 25.5329C18.1043 22.5816 22.881 23.0118 27.4955 27.8844L28.3121 39.1857C20.2838 35.4514 16.0433 28.3956 17.0583 25.5329ZM44.2666 29.201C43.5983 33.1173 39.8603 38.3017 33.5027 39.8789L32.6586 28.2023C39.9688 21.6914 45.001 24.8945 44.2666 29.1998V29.201Z" fill="#FBFBF9"/>
</g>
<defs>
<clipPath id="clip0_3884_25735">
<rect width="61" height="61" fill="white"/>
</clipPath>
</defs>
</svg>
