<svg width="152" height="36" viewBox="0 0 152 36" fill="none" xmlns="http://www.w3.org/2000/svg">
<path d="M75.091 15.3359H72.0469V3.17542H76.8347L78.6857 11.9638H78.6905L80.5349 3.17132H85.3227V15.3359H82.2804V7.02854L80.3142 15.3359H77.0638L75.094 7.01989L75.091 15.3359Z" fill="white"/>
<path d="M87.9375 15.3359V3.17543H96.3645V6.10062H90.9807V7.74561H96.3633V10.671H90.9807V12.4069H96.3633V15.3359H87.9375Z" fill="white"/>
<path d="M105.08 8.67331C104.81 8.97776 104.416 9.13693 104.008 9.12304H101.794V6.08558H104.008C104.402 6.05803 104.797 6.18259 105.101 6.43854C105.371 6.71544 105.509 7.08888 105.482 7.46939C105.502 7.90523 105.364 8.33425 105.08 8.67331ZM107.44 4.0446C106.422 3.38036 105.219 3.07591 104.008 3.17292H98.75V15.3359H101.794V11.7037H104.672C105.765 11.7383 106.81 11.2333 107.467 10.3545C108.214 9.33049 108.588 8.0783 108.526 6.80516C108.616 5.76747 108.214 4.74345 107.44 4.0446Z" fill="white"/>
<path d="M110.82 15.3359V3.17543H119.248V6.10062H113.861V7.74561H119.245V10.671H113.861V12.4069H119.245V15.3359H110.82Z" fill="white"/>
<path d="M131.021 9.94508V15.3359H127.977V9.94508H127.279C126.815 9.91707 126.355 10.0517 125.979 10.3254C125.616 10.6656 125.364 11.108 125.257 11.5942L124.168 15.3359H120.945L122.031 11.5942C122.335 10.5449 122.955 9.61467 123.807 8.92994C124.002 8.76348 124.211 8.61501 124.433 8.4859L124.239 8.31944C123.439 7.60329 122.82 6.70815 122.432 5.70667L121.433 3.17838H124.748L125.747 5.70667C125.897 6.13842 126.127 6.53782 126.424 6.8844C126.645 7.1153 126.953 7.24327 127.273 7.23758H127.97V3.17838H131.014V7.23758H131.715C132.035 7.24327 132.342 7.1153 132.564 6.8844C132.861 6.53782 133.091 6.13842 133.241 5.70667L134.24 3.17838H137.553L136.554 5.70667C136.165 6.70929 135.543 7.60511 134.739 8.31944L134.545 8.4859C134.772 8.61092 134.984 8.75961 135.179 8.92994C136.03 9.61467 136.65 10.5449 136.955 11.5942L138.052 15.3359H134.826L133.74 11.5942C133.633 11.108 133.382 10.6656 133.018 10.3254C132.641 10.051 132.181 9.91639 131.715 9.94508H131.021Z" fill="white"/>
<path d="M143.744 9.89111L143.765 9.84261L145.121 5.13102H145.128L146.504 9.84944L146.525 9.89111H143.744ZM147.618 3.17292H142.706L139.164 15.3359H142.34L142.99 12.8177H147.259L147.902 15.3359H151.161L147.618 3.17292Z" fill="white"/>
<path d="M76.0323 27.926L76.0462 27.8778L77.409 23.173L78.7859 27.8846L78.8067 27.926H76.0323ZM79.8998 21.2149H74.9877L71.4453 33.3711H74.6279L75.2782 30.8528H79.5401L80.1836 33.3711H83.449L79.8998 21.2149Z" fill="white"/>
<path d="M88.4426 33.3711H85.3984V21.2104H95.2517V33.3711H92.2076V24.1355H88.4426V33.3711Z" fill="white"/>
<path d="M100.839 33.3711V24.1355H97.7422V21.2104H106.97V24.1355H103.873V33.3711H100.839Z" fill="white"/>
<path d="M109.32 33.3711V21.2104H117.748V24.1355H112.363V25.7805H117.745V28.7098H112.363V30.442H117.745V33.3672H109.32V33.3711Z" fill="white"/>
<path d="M120.305 33.3711V21.2104H123.349V25.349H124.054C124.407 25.3574 124.75 25.2247 125.005 24.9804C125.332 24.6247 125.58 24.2048 125.735 23.7475L126.735 21.2104H129.898L128.891 23.7475C128.504 24.7454 127.884 25.6364 127.084 26.3475L126.846 26.5413C127.095 26.6832 127.331 26.8476 127.551 27.0327C128.4 27.7045 129.018 28.6247 129.319 29.6651L130.389 33.3672H127.162L126.092 29.6678C125.985 29.1898 125.733 28.7563 125.37 28.4272C124.986 28.1594 124.522 28.0296 124.054 28.0586H123.349V33.3702H120.305V33.3711Z" fill="white"/>
<path d="M20.6481 5.51701C12.0284 4.88602 11.3984 15.1879 9.92654 21.2843C9.2958 24.2281 9.29581 29.2733 5.93221 30.5344C5.30148 30.7443 4.8816 30.5344 4.67439 31.3753C4.46741 32.216 4.88433 32.4262 5.51529 32.4262C7.61788 32.6362 9.92972 32.4262 11.8224 32.4262C15.8167 32.4262 20.021 32.847 23.8054 31.7952C26.9907 30.8883 29.7948 28.9695 31.794 26.3288C35.5784 21.4903 37.6801 14.1359 35.1576 8.45882C32.4202 1.73357 24.2214 -0.36935 17.4944 0.0516891C11.3975 0.0516891 3.19889 2.78424 0.676192 9.51154C-0.374716 12.2443 -0.374717 16.0289 1.93401 18.1316C3.14424 19.2847 4.69056 20.0211 6.34845 20.2345C8.87092 20.8653 7.82008 19.1834 7.60627 17.2906C6.56226 10.9835 9.29581 4.25617 16.0228 2.36434C23.8015 0.261642 30.1074 7.20254 29.4728 14.557C29.0518 18.3415 28.4218 23.1772 25.8993 26.3297C23.1667 29.4835 18.3314 30.1143 14.547 29.2733C17.0697 25.6998 17.2797 21.9191 18.1206 17.7108C18.5452 13.7162 18.9663 9.51154 20.6481 5.51701Z" fill="white"/>
<path d="M44.4022 33.2656C49.2404 32.8446 54.4926 31.3736 56.8053 26.7483C58.6971 23.1748 58.9079 17.9183 54.9136 15.8135C52.6011 14.5557 50.0754 14.3418 47.7656 13.0808C45.456 11.8199 45.0332 9.08623 46.084 6.77336C46.9124 4.81253 48.7955 3.50341 50.9222 3.40982C51.9794 3.37953 52.9902 3.84475 53.6546 4.6677C54.4955 5.50864 54.9127 7.82152 55.9674 8.45228C57.2252 9.0835 57.6492 7.82151 58.07 6.77062C58.2799 5.92968 59.328 3.40686 58.9109 2.56614C58.494 1.72498 56.5981 1.30803 55.7575 1.09421C54.4489 0.715752 53.1136 0.436352 51.7631 0.25919C46.8885 0.227993 42.5169 3.25406 40.8289 7.82721C39.1471 12.2419 40.4079 16.8672 45.0332 18.7622C47.1358 19.6029 50.4994 19.8128 51.5502 22.3357C52.5079 24.7717 51.8353 27.5469 49.8684 29.2741C47.6916 30.9997 44.5892 30.9111 42.5144 29.0639C41.5143 27.86 40.8604 26.4065 40.6226 24.8594C40.4127 23.8085 39.9919 22.3366 38.5201 22.9676C37.4692 23.3884 36.6283 25.9112 35.9976 26.9621C35.3666 28.2202 34.5257 29.6946 35.5766 30.9566C37.2575 32.8455 41.6726 33.0554 44.4022 33.2656Z" fill="white"/>
<path d="M32.21 30.9546C33.6033 30.9546 34.7327 32.084 34.7327 33.4772C34.7327 34.8705 33.6033 36 32.21 36C30.8169 36 29.6875 34.8705 29.6875 33.4772C29.6875 32.084 30.8169 30.9546 32.21 30.9546Z" fill="white"/>
<path d="M56.8039 30.9546C58.197 30.9546 59.3264 32.084 59.3264 33.4772C59.3264 34.8705 58.197 36 56.8039 36C55.4106 36 54.2812 34.8705 54.2812 33.4772C54.2812 32.084 55.4106 30.9546 56.8039 30.9546Z" fill="white"/>
<path d="M75.091 15.3359H72.0469V3.17542H76.8347L78.6857 11.9638H78.6905L80.5349 3.17132H85.3227V15.3359H82.2804V7.02854L80.3142 15.3359H77.0638L75.094 7.01989L75.091 15.3359Z" fill="#2E2D2D"/>
<path d="M87.9375 15.3359V3.17543H96.3645V6.10062H90.9807V7.74561H96.3633V10.671H90.9807V12.4069H96.3633V15.3359H87.9375Z" fill="#2E2D2D"/>
<path d="M105.08 8.67331C104.81 8.97776 104.416 9.13693 104.008 9.12304H101.794V6.08558H104.008C104.402 6.05803 104.797 6.18259 105.101 6.43854C105.371 6.71544 105.509 7.08888 105.482 7.46939C105.502 7.90523 105.364 8.33425 105.08 8.67331ZM107.44 4.0446C106.422 3.38036 105.219 3.07591 104.008 3.17292H98.75V15.3359H101.794V11.7037H104.672C105.765 11.7383 106.81 11.2333 107.467 10.3545C108.214 9.33049 108.588 8.0783 108.526 6.80516C108.616 5.76747 108.214 4.74345 107.44 4.0446Z" fill="#2E2D2D"/>
<path d="M110.82 15.3359V3.17543H119.248V6.10062H113.861V7.74561H119.245V10.671H113.861V12.4069H119.245V15.3359H110.82Z" fill="#2E2D2D"/>
<path d="M131.021 9.94508V15.3359H127.977V9.94508H127.279C126.815 9.91707 126.355 10.0517 125.979 10.3254C125.616 10.6656 125.364 11.108 125.257 11.5942L124.168 15.3359H120.945L122.031 11.5942C122.335 10.5449 122.955 9.61467 123.807 8.92994C124.002 8.76348 124.211 8.61501 124.433 8.4859L124.239 8.31944C123.439 7.60329 122.82 6.70815 122.432 5.70667L121.433 3.17838H124.748L125.747 5.70667C125.897 6.13842 126.127 6.53782 126.424 6.8844C126.645 7.1153 126.953 7.24327 127.273 7.23758H127.97V3.17838H131.014V7.23758H131.715C132.035 7.24327 132.342 7.1153 132.564 6.8844C132.861 6.53782 133.091 6.13842 133.241 5.70667L134.24 3.17838H137.553L136.554 5.70667C136.165 6.70929 135.543 7.60511 134.739 8.31944L134.545 8.4859C134.772 8.61092 134.984 8.75961 135.179 8.92994C136.03 9.61467 136.65 10.5449 136.955 11.5942L138.052 15.3359H134.826L133.74 11.5942C133.633 11.108 133.382 10.6656 133.018 10.3254C132.641 10.051 132.181 9.91639 131.715 9.94508H131.021Z" fill="#2E2D2D"/>
<path d="M143.744 9.89111L143.765 9.84261L145.121 5.13102H145.128L146.504 9.84944L146.525 9.89111H143.744ZM147.618 3.17292H142.706L139.164 15.3359H142.34L142.99 12.8177H147.259L147.902 15.3359H151.161L147.618 3.17292Z" fill="#2E2D2D"/>
<path d="M76.0323 27.926L76.0462 27.8778L77.409 23.173L78.7859 27.8846L78.8067 27.926H76.0323ZM79.8998 21.2149H74.9877L71.4453 33.3711H74.6279L75.2782 30.8528H79.5401L80.1836 33.3711H83.449L79.8998 21.2149Z" fill="#2E2D2D"/>
<path d="M88.4426 33.3711H85.3984V21.2104H95.2517V33.3711H92.2076V24.1355H88.4426V33.3711Z" fill="#2E2D2D"/>
<path d="M100.839 33.3711V24.1355H97.7422V21.2104H106.97V24.1355H103.873V33.3711H100.839Z" fill="#2E2D2D"/>
<path d="M109.32 33.3711V21.2104H117.748V24.1355H112.363V25.7805H117.745V28.7098H112.363V30.442H117.745V33.3672H109.32V33.3711Z" fill="#2E2D2D"/>
<path d="M120.305 33.3711V21.2104H123.349V25.349H124.054C124.407 25.3574 124.75 25.2247 125.005 24.9804C125.332 24.6247 125.58 24.2048 125.735 23.7475L126.735 21.2104H129.898L128.891 23.7475C128.504 24.7454 127.884 25.6364 127.084 26.3475L126.846 26.5413C127.095 26.6832 127.331 26.8476 127.551 27.0327C128.4 27.7045 129.018 28.6247 129.319 29.6651L130.389 33.3672H127.162L126.092 29.6678C125.985 29.1898 125.733 28.7563 125.37 28.4272C124.986 28.1594 124.522 28.0296 124.054 28.0586H123.349V33.3702H120.305V33.3711Z" fill="#2E2D2D"/>
<path d="M20.6481 5.51701C12.0284 4.88602 11.3984 15.1879 9.92654 21.2843C9.2958 24.2281 9.29581 29.2733 5.93221 30.5344C5.30148 30.7443 4.8816 30.5344 4.67439 31.3753C4.46741 32.216 4.88433 32.4262 5.51529 32.4262C7.61788 32.6362 9.92972 32.4262 11.8224 32.4262C15.8167 32.4262 20.021 32.847 23.8054 31.7952C26.9907 30.8883 29.7948 28.9695 31.794 26.3288C35.5784 21.4903 37.6801 14.1359 35.1576 8.45882C32.4202 1.73357 24.2214 -0.36935 17.4944 0.0516891C11.3975 0.0516891 3.19889 2.78424 0.676192 9.51154C-0.374716 12.2443 -0.374717 16.0289 1.93401 18.1316C3.14424 19.2847 4.69056 20.0211 6.34845 20.2345C8.87092 20.8653 7.82008 19.1834 7.60627 17.2906C6.56226 10.9835 9.29581 4.25617 16.0228 2.36434C23.8015 0.261642 30.1074 7.20254 29.4728 14.557C29.0518 18.3415 28.4218 23.1772 25.8993 26.3297C23.1667 29.4835 18.3314 30.1143 14.547 29.2733C17.0697 25.6998 17.2797 21.9191 18.1206 17.7108C18.5452 13.7162 18.9663 9.51154 20.6481 5.51701Z" fill="#2E2D2D"/>
<path d="M44.4022 33.2656C49.2404 32.8446 54.4926 31.3736 56.8053 26.7483C58.6971 23.1748 58.9079 17.9183 54.9136 15.8135C52.6011 14.5557 50.0754 14.3418 47.7656 13.0808C45.456 11.8199 45.0332 9.08623 46.084 6.77336C46.9124 4.81253 48.7955 3.50341 50.9222 3.40982C51.9794 3.37953 52.9902 3.84475 53.6546 4.6677C54.4955 5.50864 54.9127 7.82152 55.9674 8.45228C57.2252 9.0835 57.6492 7.82151 58.07 6.77062C58.2799 5.92968 59.328 3.40686 58.9109 2.56614C58.494 1.72498 56.5981 1.30803 55.7575 1.09421C54.4489 0.715752 53.1136 0.436352 51.7631 0.25919C46.8885 0.227993 42.5169 3.25406 40.8289 7.82721C39.1471 12.2419 40.4079 16.8672 45.0332 18.7622C47.1358 19.6029 50.4994 19.8128 51.5502 22.3357C52.5079 24.7717 51.8353 27.5469 49.8684 29.2741C47.6916 30.9997 44.5892 30.9111 42.5144 29.0639C41.5143 27.86 40.8604 26.4065 40.6226 24.8594C40.4127 23.8085 39.9919 22.3366 38.5201 22.9676C37.4692 23.3884 36.6283 25.9112 35.9976 26.9621C35.3666 28.2202 34.5257 29.6946 35.5766 30.9566C37.2575 32.8455 41.6726 33.0554 44.4022 33.2656Z" fill="#2E2D2D"/>
<path d="M32.21 30.9546C33.6033 30.9546 34.7327 32.084 34.7327 33.4772C34.7327 34.8705 33.6033 36 32.21 36C30.8169 36 29.6875 34.8705 29.6875 33.4772C29.6875 32.084 30.8169 30.9546 32.21 30.9546Z" fill="#2E2D2D"/>
<path d="M56.8039 30.9546C58.197 30.9546 59.3264 32.084 59.3264 33.4772C59.3264 34.8705 58.197 36 56.8039 36C55.4106 36 54.2812 34.8705 54.2812 33.4772C54.2812 32.084 55.4106 30.9546 56.8039 30.9546Z" fill="#2E2D2D"/>
</svg>
