<svg width="213" height="60" viewBox="0 0 213 60" fill="none" xmlns="http://www.w3.org/2000/svg">
<path fill-rule="evenodd" clip-rule="evenodd" d="M93.0534 12.3716C92.858 12.4629 92.5793 12.6934 92.4338 12.8835L92.1694 13.2291L92.146 21.7199C92.1232 30.0259 92.1264 30.2267 92.3037 30.9095C93.7453 36.4714 100.514 38.1514 104.423 33.9169C105.991 32.2183 106.727 29.2061 105.824 28.1782C104.693 26.8895 102.836 27.7778 102.834 29.6091C102.833 30.1486 102.527 30.9387 102.108 31.4813C100.364 33.7412 97.0219 33.3477 95.7741 30.7353L95.4439 30.0429L95.4157 26.9681L95.3876 23.8927H97.7276C100.483 23.8927 100.534 23.8852 101.022 23.4143C101.724 22.7389 101.776 21.8351 101.154 21.1284C100.654 20.5608 100.479 20.53 97.7568 20.53H95.3998L95.3977 17.0123C95.3961 13.7479 95.3839 13.4675 95.2278 13.124C94.8832 12.3652 93.8387 12.0036 93.0534 12.3716ZM35.6732 12.8516C35.0653 13.0555 34.6033 13.7612 34.6033 14.4854C34.6033 15.0567 34.5863 15.0355 42.1421 24.1836C44.1651 26.6336 44.6446 26.6351 46.6384 24.2006C47.1497 23.5762 48.166 22.3459 48.8966 21.4661C49.6278 20.5863 50.3393 19.7166 50.4779 19.5344C50.617 19.3518 50.7656 19.2026 50.8081 19.2026C50.8527 19.2026 50.8862 22.5764 50.8862 27.0371C50.8862 35.6622 50.857 35.2082 51.4474 35.7265C52.2784 36.4566 53.5575 36.2097 54.0481 35.2247C54.2403 34.8387 54.3412 14.9835 54.1554 14.0888C53.9249 12.9796 52.6458 12.4088 51.6747 12.9828C51.5393 13.0624 50.951 13.7081 50.3674 14.4174C49.7839 15.1263 48.5833 16.5828 47.6993 17.6537C46.8152 18.7247 45.7299 20.0484 45.2876 20.5964C44.8453 21.1438 44.4513 21.592 44.412 21.592C44.3451 21.592 42.5355 19.4415 41.2846 17.8762C39.6853 15.875 37.2773 13.0651 37.0692 12.9573C36.7203 12.7767 36.0476 12.7258 35.6732 12.8516ZM63.6773 20.6224C57.9455 21.524 55.0633 28.0656 58.2964 32.8374C61.7249 37.8976 69.3874 37.2944 71.9833 31.7596C73.1207 29.3341 72.7394 27.6095 71.0648 27.6095C70.0671 27.6095 69.5775 28.0879 69.2918 29.3431C68.7094 31.8987 65.8686 33.6652 63.6789 32.8327L63.4405 32.7419L63.757 32.3659C63.9311 32.1594 64.3023 31.7102 64.5816 31.3677C65.0557 30.7874 66.243 29.3479 68.9961 26.0166C70.2794 24.464 70.444 24.1932 70.444 23.6362C70.444 21.841 66.6561 20.1536 63.6773 20.6224ZM76.4897 20.6224C76.3347 20.6702 76.0846 20.8321 75.9338 20.9829C75.3635 21.5527 75.3938 21.1114 75.4203 28.441L75.4437 35.1153L75.7145 35.4551C76.5194 36.4667 77.9563 36.3695 78.5334 35.2645C78.7129 34.9205 78.7182 34.7946 78.7182 30.9504C78.7182 28.7723 78.7426 26.9898 78.7729 26.9898C78.8032 26.9898 79.0623 27.2744 79.3485 27.6222C79.6347 27.97 80.0079 28.4213 80.1784 28.6258C80.3488 28.8297 81.1851 29.8449 82.0368 30.8813C82.8885 31.9178 83.7248 32.9336 83.8952 33.138C84.0656 33.3429 84.6189 34.0146 85.1244 34.6311C86.2039 35.9468 86.4752 36.1465 87.1856 36.1465C87.7989 36.1465 88.332 35.8189 88.6219 35.2645C88.8736 34.7829 88.9633 22.2727 88.7196 21.6302C88.2975 20.5167 86.9016 20.1886 86.034 20.9989C85.5269 21.4725 85.5359 21.3913 85.4881 25.7426L85.4441 29.7599L84.072 28.0964C83.3175 27.1815 82.3501 26.0107 81.921 25.4946C81.4925 24.9785 81.0348 24.4162 80.9037 24.2442C80.0414 23.1164 78.0752 20.8534 77.8607 20.7424C77.5294 20.5709 76.8508 20.5114 76.4897 20.6224ZM115.001 20.6521C108.766 21.8511 106.446 29.632 110.999 34.0736C115.701 38.6601 123.669 35.7482 124.333 29.2008C124.861 23.9978 120.133 19.6661 115.001 20.6521ZM132.745 20.6638C130.454 21.1321 128.531 22.6911 127.641 24.8006C127.089 26.1105 127.084 26.1658 127.082 30.8043L127.081 35.0171L127.28 35.3097C128.053 36.4438 129.304 36.4677 130.129 35.3633C130.305 35.1265 130.312 34.989 130.355 30.9392L130.399 26.7589L130.736 26.0782C131.83 23.8651 134.369 23.2136 136.351 24.6376C137.149 25.2105 137.788 26.3914 137.79 27.2936C137.792 28.8705 139.262 29.7567 140.494 28.9231C141.03 28.5605 141.186 28.0948 141.125 27.0461C140.88 22.9061 136.839 19.8275 132.745 20.6638ZM65.7826 23.9755C65.969 24.019 66.1421 24.0748 66.1671 24.0997C66.192 24.1247 65.721 24.7364 65.12 25.459C63.7076 27.1582 63.3773 27.5585 63.0545 27.9631C62.9085 28.1463 62.3525 28.8259 61.8189 29.4737L60.8483 30.6509L60.6465 30.2054C59.1704 26.9532 62.2931 23.1658 65.7826 23.9755ZM117.653 24.0281C120.627 24.8028 121.965 28.3173 120.274 30.909C117.816 34.673 111.942 32.8974 111.949 28.3932C111.954 25.4341 114.772 23.2778 117.653 24.0281ZM21.3327 41.7737C17.9775 42.4592 18.3991 47.4323 21.8154 47.4684C22.8911 47.4801 23.7115 47.049 24.1931 46.2196C24.2313 46.1532 24.1485 46.0576 23.9732 45.9668C23.7067 45.8293 23.6865 45.8298 23.6016 45.9854C22.8678 47.3282 20.5416 47.153 19.906 45.7067C18.8695 43.347 21.543 41.1658 23.3106 42.9297C23.8017 43.4197 23.7805 43.4123 24.0566 43.1994L24.2621 43.0412L23.8538 42.5872C23.2485 41.9139 22.2396 41.5884 21.3327 41.7737ZM33.2796 41.7753C29.9472 42.4444 30.4113 47.4822 33.8048 47.4753C37.4048 47.4679 37.6108 42.1698 34.0278 41.7387C33.8334 41.7153 33.4968 41.7318 33.2796 41.7753ZM25.3994 44.6006V47.3442H25.6872H25.975L25.949 45.0652C25.915 42.0413 25.7117 42.379 27.5478 42.4082L29.0722 42.4327L29.0955 44.8884L29.1194 47.3442H29.4274H29.7359V44.6006V41.8571H27.5679H25.3994V44.6006ZM37.8773 44.6006V47.3442H38.1874H38.497V46.3263V45.3084H39.4867C41.129 45.3084 41.7269 44.8459 41.7269 43.5748C41.7269 42.2447 41.1481 41.8677 39.0943 41.8613L37.8773 41.8571V44.6006ZM42.4793 42.1226V42.3881H43.3644H44.249V44.8661V47.3442H44.5591H44.8686V44.8661V42.3881H45.7538H46.6384V42.1226V41.8571H44.5591H42.4793V42.1226ZM49.8242 44.6006V47.3442H50.1343H50.4439V44.6006V41.8571H50.1343H49.8242V44.6006ZM53.9839 44.5927V47.3442H54.2908H54.5971L54.6226 46.3486L54.6476 45.353L55.7095 45.3084C57.4389 45.2367 57.9768 44.7387 57.8594 43.3199C57.7676 42.2144 57.252 41.9139 55.3777 41.8725L53.9839 41.8417V44.5927ZM59.1163 44.6006V47.3442H60.7979H62.4794V47.0787V46.8132H61.1074H59.7359V45.7953V44.7775H60.9747H62.214V44.512V44.2465H60.9747H59.7359V43.3173V42.3881H61.1074H62.4794V42.1226V41.8571H60.7979H59.1163V44.6006ZM65.1125 42.2776C65.034 42.5086 64.7839 43.1957 64.5577 43.8042C64.331 44.4127 63.9938 45.3286 63.8079 45.8394C63.6221 46.3507 63.4262 46.8806 63.3725 47.0182C63.2414 47.3553 63.2334 47.3442 63.6078 47.3436L63.9396 47.3431L64.1478 46.6879C64.4271 45.8123 64.3793 45.8394 65.6334 45.8394C66.8579 45.8394 66.7575 45.7815 67.0872 46.6805C67.3081 47.282 67.3235 47.3006 67.64 47.3272C67.8194 47.3426 67.966 47.3155 67.966 47.2677C67.966 47.1838 66.9948 44.5178 66.801 44.0697C66.7485 43.9481 66.5754 43.4702 66.4161 43.0077C65.9913 41.7737 66.0486 41.8571 65.6281 41.8571C65.2639 41.8571 65.2538 41.8656 65.1125 42.2776ZM68.9393 44.6006V47.3442H70.2481C72.0635 47.3442 72.5371 47.0856 72.7134 45.9966C72.9056 44.8136 72.0752 44.1583 70.3835 44.1583H69.5589V43.2732V42.3881H70.9304H72.3025V42.1226V41.8571H70.6209H68.9393V44.6006ZM73.8067 44.6006V47.3442H74.1163H74.4264V44.6006V41.8571H74.1163H73.8067V44.6006ZM76.5354 43.8705C76.5019 46.1431 76.4271 46.4638 75.8663 46.7245C75.5095 46.8902 75.4299 47.4323 75.7623 47.4323C76.7164 47.4323 77.0398 46.6459 77.146 44.0697L77.214 42.4327H78.364H79.5147L79.538 44.8884L79.5619 47.3442H79.8699H80.1784V44.6006V41.8571H78.3715H76.5646L76.5354 43.8705ZM81.7713 44.6006V47.3442H82.0368H82.3023V44.6006V41.8571H82.0368H81.7713V44.6006ZM83.4529 42.1226V42.3881H84.2934H85.134V44.8661V47.3442H85.4425H85.7509L85.7743 44.8884L85.7977 42.4327L86.6605 42.4072L87.5233 42.3817V42.1194V41.8571H85.4881H83.4529V42.1226ZM90.1017 42.0121C90.0566 42.0971 89.8782 42.5654 89.7067 43.0518C89.2798 44.2608 88.5417 46.2589 88.383 46.6359C88.092 47.3272 88.0947 47.3442 88.477 47.3442H88.8232L89.034 46.7022C89.3329 45.7905 89.2511 45.8394 90.4766 45.841C91.752 45.8426 91.6931 45.8123 91.9464 46.5918C92.1922 47.3495 92.2039 47.3628 92.5915 47.3277L92.9042 47.2996L92.6966 46.7686C92.5825 46.4766 92.2267 45.5208 91.9071 44.6447C90.8308 41.6983 90.9099 41.8571 90.5212 41.8571C90.2913 41.8571 90.1586 41.9065 90.1017 42.0121ZM93.9837 44.6006V47.3442H96.1963C97.9039 47.3442 98.4099 47.3691 98.4147 47.4546C98.4179 47.5157 98.4279 47.7844 98.437 48.052L98.4529 48.5389H98.7471H99.0417L99.0571 47.676L99.072 46.8132H98.6961H98.3202V44.3351V41.8571H98.0101H97.7005V44.3373V46.8169L96.1299 46.793L94.5587 46.7686L94.5354 44.3128L94.512 41.8571H94.2476H93.9837V44.6006ZM100.266 41.8794C100.265 41.8916 100.255 43.1261 100.243 44.6229L100.223 47.3442H100.51H100.798V44.6006V41.8571H100.532C100.386 41.8571 100.266 41.8672 100.266 41.8794ZM103.071 41.9856C101.631 42.499 101.634 44.6803 103.077 45.2282L103.285 45.3079L102.866 45.9058C102.635 46.2344 102.309 46.6948 102.142 46.9295L101.836 47.3553L102.223 47.3277C102.592 47.3012 102.629 47.272 103.017 46.699C103.241 46.3682 103.55 45.9185 103.705 45.6992L103.986 45.301L104.626 45.327L105.267 45.353L105.292 46.3486L105.317 47.3442H105.58H105.842V44.6006V41.8571L104.625 41.8613C103.833 41.8635 103.291 41.907 103.071 41.9856ZM34.8545 42.5813C35.5915 42.935 35.9876 43.7829 35.9117 44.8449C35.704 47.7371 31.6782 47.5454 31.649 44.6421C31.6315 42.8569 33.2536 41.8136 34.8545 42.5813ZM40.4892 42.5155C41.1168 42.7778 41.3504 43.6597 40.9495 44.2555C40.6782 44.659 40.2471 44.7902 39.2987 44.7589L38.541 44.7334L38.5166 43.561L38.4917 42.3881H39.338C39.8743 42.3881 40.2959 42.4348 40.4892 42.5155ZM56.6191 42.5235C57.5276 42.8872 57.5127 44.299 56.5968 44.6484C56.3462 44.7445 56.0016 44.7775 55.4435 44.7594L54.6476 44.7334L54.6221 43.6767C54.6083 43.0953 54.6173 42.5675 54.6417 42.5038C54.7071 42.3334 56.1805 42.3482 56.6191 42.5235ZM105.267 43.5828V44.7334L104.471 44.7594C103.021 44.8067 102.386 44.2751 102.664 43.2461C102.852 42.5468 103.157 42.4035 104.426 42.421L105.267 42.4327V43.5828ZM66.1591 43.9863L66.6136 45.3084H65.6525C65.1242 45.3084 64.6915 45.2744 64.6915 45.232C64.6915 45.1624 65.0679 44.0378 65.4449 42.9806C65.6371 42.4417 65.6207 42.4183 66.1591 43.9863ZM91.0522 44.0033L91.5009 45.3084H90.5297C89.9956 45.3084 89.5591 45.2882 89.5591 45.2628C89.5591 45.2107 90.0163 43.836 90.2887 43.0698C90.5154 42.4311 90.509 42.4231 91.0522 44.0033ZM71.7752 45.0212C72.7124 45.858 72.0051 46.8132 70.4483 46.8132H69.5589V45.7953V44.7775H70.5311C71.4662 44.7775 71.5134 44.787 71.7752 45.0212Z" fill="#2E2D2D"/>
<path fill-rule="evenodd" clip-rule="evenodd" d="M0 30V60H106.195H212.389V30V0H106.195H0V30ZM94.4904 12.3414C94.8361 12.5028 95.0214 12.6642 95.2205 12.9775L95.4865 13.3975V16.92V20.4425H97.886H100.286L100.715 20.6756C101.652 21.1858 101.958 22.3412 101.372 23.1573C100.876 23.8471 100.89 23.8439 98.0533 23.8938L95.5312 23.9379L95.5057 26.5927C95.4711 30.1943 95.5965 30.8092 96.5628 31.7756C98.7276 33.9409 102.512 32.6198 102.792 29.6018C102.88 28.6503 102.925 28.4963 103.212 28.1703C103.939 27.3425 105.106 27.3165 105.857 28.1113C106.659 28.9593 106.319 31.3237 105.138 33.1205C101.791 38.2104 94.0784 37.0805 92.2869 31.2377L92.0841 30.575L92.0565 22.055C92.0262 12.4991 91.9906 13.0503 92.6665 12.5458C93.2883 12.0823 93.8076 12.0239 94.4904 12.3414ZM146.823 12.7938C147.723 13.4177 147.787 13.8042 147.787 18.5883V22.4777H150.748H153.707L153.734 18.2963L153.761 14.1149L153.994 13.6189C154.71 12.0908 156.736 12.1073 157.53 13.6471C157.758 14.0883 157.799 34.6094 157.573 35.1441C157.073 36.3303 155.289 36.6913 154.394 35.7881C153.744 35.1319 153.764 35.2906 153.733 30.6404L153.706 26.4579L150.743 26.4812L147.781 26.5046L147.786 30.3993C147.789 32.7409 147.755 34.4867 147.699 34.7777C147.287 36.9499 144.27 36.9972 143.805 34.8388C143.735 34.5122 143.714 31.4687 143.733 24.248L143.761 14.1149L143.994 13.6189C144.502 12.5358 145.873 12.1354 146.823 12.7938ZM20.9782 12.8809C21.3181 13.0529 22.7708 14.7616 26.991 19.9534C27.3563 20.4027 28.1129 21.3228 28.6726 21.9988C30.4126 24.0982 30.4609 24.4561 29.2083 25.9604C28.3428 26.9984 25.4931 30.4519 25.0996 30.9388C23.3458 33.1088 21.5644 35.228 21.2989 35.4611C20.1542 36.4662 18.4019 35.6002 18.5119 34.0837C18.5586 33.4402 18.2788 33.8182 22.4804 28.7177C24.4057 26.3809 26.0081 24.4242 26.0416 24.3696C26.0766 24.3133 25.5106 23.554 24.7227 22.5998C23.9639 21.6812 23.1329 20.6703 22.8765 20.3538C22.6195 20.0373 21.7184 18.9414 20.8731 17.9177C18.7216 15.3122 18.685 15.2655 18.5851 15.0027C18.0542 13.6062 19.6365 12.2034 20.9782 12.8809ZM29.1255 12.9255C29.3995 13.0657 32.4345 16.6163 34.1591 18.815C34.2812 18.9706 35.177 20.0602 36.1503 21.2363C38.7552 24.3844 38.7414 24.2432 36.6812 26.7255C35.3129 28.3742 34.5913 29.2508 34.2037 29.7366C32.8736 31.4028 29.5136 35.4202 29.3278 35.5662C28.2536 36.411 26.6379 35.5768 26.6373 34.1772C26.6373 33.5368 26.7223 33.3998 28.3189 31.4692C34.9179 23.4903 34.2812 24.3696 33.8442 23.8412C33.6526 23.6092 33.2963 23.1738 33.0531 22.8738C32.8099 22.5733 31.3216 20.7653 29.7462 18.8554C26.52 14.9453 26.6039 15.0685 26.6527 14.2959C26.7345 13.0184 27.9674 12.335 29.1255 12.9255ZM37.1474 12.9404C37.337 13.0657 38.2848 14.134 39.2549 15.3143C40.2244 16.4947 41.1568 17.6273 41.3273 17.8317C41.4977 18.0361 42.2501 18.9457 42.9988 19.8536C44.5673 21.7556 44.3618 21.6292 44.8673 21.0027C45.4381 20.2954 45.8129 19.8393 47.6156 17.6549C48.4996 16.5839 49.4331 15.4492 49.6901 15.1327C49.9476 14.8163 50.4319 14.2221 50.7664 13.8117C51.9855 12.3165 53.3628 12.2586 54.0706 13.6731L54.292 14.1149L54.3186 24.292C54.3462 35.0708 54.3542 34.8558 53.9251 35.5158C53.2736 36.5188 51.609 36.403 51.0409 35.315L50.7966 34.8473L50.794 27.0919L50.7919 19.3365L50.4621 19.6949C50.2811 19.8919 49.9136 20.3251 49.646 20.6575C49.3784 20.9894 48.9404 21.5262 48.6727 21.8501C48.4046 22.174 47.7478 22.9736 47.2126 23.6267C45.3409 25.9104 45.1296 26.0761 44.1897 25.9981C43.4644 25.9381 43.4851 25.9582 40.5308 22.3434C40.02 21.7179 39.4625 21.0404 39.292 20.8381C39.1216 20.6352 38.7834 20.2205 38.5396 19.9158C38.2965 19.6115 37.8382 19.0535 37.5223 18.6759C34.5441 15.1237 34.5133 15.0802 34.5133 14.4159C34.5133 13.0742 36.0488 12.2135 37.1474 12.9404ZM180.628 14.7021C181.078 14.8519 181.57 15.3701 181.77 15.9069C181.941 16.3614 181.947 16.6014 181.947 22.5212C181.947 30.0956 181.95 30.1136 183.367 31.2335C185.371 32.8184 188.059 32.2237 189.217 29.9389L189.602 29.1807V28.1947C189.602 26.245 188.255 24.737 186.303 24.5018C184.258 24.2549 183.434 23.2991 183.989 21.8161C184.448 20.5901 185.276 20.2444 187.061 20.5343C193.351 21.5549 195.873 29.3888 191.328 33.7911C186.522 38.4473 178.812 35.7074 178.047 29.0708C177.853 27.3919 177.979 16.2143 178.196 15.7524C178.635 14.8205 179.658 14.3788 180.628 14.7021ZM168.628 20.452C172.01 20.8667 174.704 23.22 175.52 26.4733C175.759 27.4248 175.734 34.689 175.49 35.0825C174.874 36.0791 173.266 36.4099 172.481 35.7005C171.748 35.0384 171.732 34.9375 171.681 30.8851L171.637 27.3011L171.404 26.7478C170.381 24.3196 167.021 23.6405 165.206 25.4952C162.884 27.8687 164.13 31.586 167.402 32.0421C169.095 32.2784 169.827 32.8842 169.821 34.046C169.815 35.2742 168.979 36.1019 167.744 36.1025C162.246 36.1041 158.447 30.2984 160.593 25.1772C161.593 22.7926 164.085 20.9145 166.814 20.4887C167.785 20.3368 167.703 20.3384 168.628 20.452ZM66.9026 20.7499C68.4595 21.1789 69.9897 22.1241 70.3577 22.8834C70.7379 23.6687 70.5637 24.257 69.6218 25.3683C69.4163 25.611 68.8296 26.3188 68.3188 26.9416C67.8074 27.5639 66.9711 28.5791 66.4604 29.1972C63.0945 33.2687 63.335 32.8014 64.5573 32.8922C66.7699 33.0573 68.8842 31.3981 69.2825 29.1834C69.5936 27.454 71.3729 26.932 72.4285 28.2611C73.4496 29.5465 71.7531 33.3616 69.463 34.9306C63.4285 39.0648 55.4745 33.754 57.0871 26.6671C58.0906 22.2568 62.5704 19.5563 66.9026 20.7499ZM77.7892 20.6416C78.1667 20.8327 78.6026 21.3074 80.0883 23.1425C80.3559 23.4733 80.7143 23.9108 80.8848 24.1147C81.0552 24.3191 81.5331 24.8995 81.9467 25.405C82.3603 25.9104 83.0177 26.7074 83.4069 27.1763C83.7966 27.6446 84.3212 28.2828 84.574 28.5935C84.8262 28.9046 85.1134 29.2588 85.2122 29.3804L85.3922 29.6018L85.3959 25.8409C85.3996 21.7763 85.4166 21.6027 85.8669 21.0897C86.7881 20.0405 88.474 20.4117 88.8441 21.7455C88.971 22.2011 88.972 34.5196 88.8457 34.9752C88.4655 36.3446 86.6586 36.6117 85.6986 35.4404C85.509 35.2089 85.2143 34.852 85.0444 34.6471C84.874 34.4427 84.5156 34.0057 84.248 33.677C83.9798 33.3478 83.1308 32.3166 82.3609 31.3848C80.9156 29.6358 80.6809 29.3501 79.5573 27.9743L78.8936 27.1614L78.8496 31.0365C78.8251 33.1678 78.7683 34.9911 78.7232 35.0883C78.0934 36.4481 76.2722 36.6016 75.558 35.3554L75.3542 35.0002V28.363C75.3542 20.7234 75.2926 21.2772 76.1979 20.7303C76.7745 20.3814 77.2264 20.3565 77.7892 20.6416ZM118.338 20.6979C124.558 22.269 126.563 29.8306 121.921 34.2143C118.107 37.8154 111.794 36.7391 109.429 32.0846C106.326 25.9779 111.757 19.0359 118.338 20.6979ZM136.062 20.7345C139.046 21.6584 141.081 24.1827 141.212 27.1237L141.256 28.0975L140.966 28.5292C139.963 30.0228 137.969 29.3639 137.778 27.4752C137.412 23.8646 133.079 22.6588 131.072 25.6088C130.504 26.4446 130.502 26.4589 130.447 30.9733L130.398 35.0883L130.149 35.4722C129.47 36.5177 127.721 36.4088 127.179 35.2874C126.901 34.7135 126.891 27.3579 127.167 26.0177C127.531 24.2437 128.622 22.6906 130.27 21.5989C130.981 21.1285 131.445 20.9368 132.743 20.5784C133.486 20.3729 135.148 20.4515 136.062 20.7345ZM63.9828 24.0372C61.1772 24.6504 59.5704 27.6892 60.7189 30.2103C60.8713 30.5448 60.7758 30.6462 63.8326 26.9028C64.0906 26.5864 64.688 25.8632 65.16 25.2961C65.6315 24.729 66.0175 24.2251 66.0175 24.1768C66.0175 23.9437 64.7952 23.8598 63.9828 24.0372ZM115.531 24.0685C110.752 25.3396 110.857 31.7809 115.672 32.7966C118.446 33.3818 121.132 31.0444 120.952 28.2027C120.775 25.4135 118.111 23.3819 115.531 24.0685ZM22.8765 41.828C23.3761 41.9984 24.2825 42.814 24.2342 43.0503C24.1407 43.5048 23.769 43.4952 23.3002 43.0264C21.557 41.2832 18.8023 43.5143 19.9752 45.7189C20.7106 47.1016 22.8674 47.2035 23.6023 45.8904C23.6963 45.7221 24.248 45.9271 24.248 46.1299C24.248 47.1903 21.8947 47.9501 20.5885 47.3113C17.3018 45.703 19.4113 40.6471 22.8765 41.828ZM34.8966 41.8604C36.0419 42.2888 36.694 43.4103 36.6196 44.8242C36.4216 48.6005 30.9393 48.4285 30.9345 44.6458C30.9319 42.4965 32.8991 41.1133 34.8966 41.8604ZM29.7345 44.6018V47.4334H29.3804H29.0267V44.9538V42.4736L27.5442 42.4981L26.0618 42.5219L26.0384 44.9777L26.015 47.4334H25.6625H25.3099V44.6018V41.7701H27.5219H29.7345V44.6018ZM40.6619 41.8688C41.8423 42.1965 42.2405 43.9747 41.3363 44.8789C40.9285 45.2873 40.5276 45.3972 39.4471 45.3977L38.5842 45.3982V46.4209V47.4435L38.2078 47.4165L37.8319 47.3894L37.8085 44.691C37.7958 43.2074 37.8042 41.9427 37.8276 41.8816C37.8828 41.7377 40.1522 41.7271 40.6619 41.8688ZM46.6816 42.1237V42.4338L45.8188 42.4588L44.9559 42.4842V44.9591V47.4334H44.5577H44.1595V44.9559V42.4779H43.3158C42.4014 42.4779 42.3154 42.4306 42.4264 41.9894L42.4821 41.7669L44.5816 41.7903L46.6816 41.8142V42.1237ZM50.4865 44.6018V47.3894L50.1106 47.4165L49.7347 47.4435V44.6018V41.76L50.1106 41.7871L50.4865 41.8142V44.6018ZM56.9469 41.9373C58.397 42.6064 58.2605 44.8848 56.7451 45.3058C56.5641 45.3563 56.0278 45.3977 55.5531 45.3977L54.6903 45.3982V46.4161V47.4334H54.3361H53.9825V44.6018V41.7701L55.2876 41.7717C56.3671 41.7733 56.6543 41.8019 56.9469 41.9373ZM62.5221 42.1237V42.4338L61.1724 42.4582L59.8232 42.4827V43.3211V44.1595H61.0673H62.3113L62.2842 44.4913L62.2566 44.8232L61.0396 44.8476L59.8232 44.872V45.7965V46.7209L61.1724 46.7453L62.5221 46.7697V47.0798V47.3894L60.7742 47.4133L59.0267 47.4372V44.6018V41.7664L60.7742 41.7903L62.5221 41.8142V42.1237ZM66.2108 42.2565C66.4582 42.8862 67.2138 44.9384 67.5621 45.9292C67.7246 46.3917 67.9221 46.9195 68.0007 47.1016L68.1441 47.4334H67.7103H67.2765L67.0232 46.7034L66.7699 45.9733H65.6315H64.4931L64.2297 46.7034L63.9658 47.4334H63.5761C63.3616 47.4334 63.1858 47.3995 63.1858 47.3575C63.1858 47.2821 64.088 44.7913 64.4246 43.9381C64.5202 43.6949 64.6949 43.217 64.8122 42.8761C65.2211 41.6873 65.169 41.7568 65.6283 41.7871C66.0287 41.8136 66.0398 41.8227 66.2108 42.2565ZM72.3011 42.1237V42.4779H70.9736H69.6462V43.2743V44.0708L70.4644 44.0713C72.1561 44.0724 72.994 44.7802 72.7949 46.0396C72.6218 47.1377 72.0765 47.4334 70.225 47.4334H68.8497V44.6018V41.7701H70.5754H72.3011V42.1237ZM74.5131 44.6071V47.4435L74.1372 47.4165L73.7612 47.3894L73.7373 44.691C73.7108 41.6034 73.6869 41.7701 74.1563 41.7701H74.5131V44.6071ZM80.2657 44.6018V47.4334H79.8674H79.4692V44.9559V42.4779H78.3626H77.2566L77.255 43.5175C77.2508 46.286 76.7968 47.5221 75.7832 47.5221C75.3308 47.5221 75.3234 46.8106 75.7742 46.6773C76.3269 46.5149 76.4113 46.1697 76.4421 43.9381C76.457 42.8671 76.4857 41.9416 76.5058 41.8805C76.534 41.7966 76.9943 41.7701 78.4041 41.7701H80.2657V44.6018ZM82.3896 44.6018V47.4334H82.0354H81.6812V44.6018V41.7701H82.0354H82.3896V44.6018ZM87.6106 42.1237V42.4779H86.7255H85.8409V44.9559V47.4334H85.4883H85.1357L85.1119 44.9777L85.0885 42.5219L84.2257 42.497L83.3628 42.4715V42.1205V41.7701H85.4867H87.6106V42.1237ZM91.2207 42.5442C91.4793 43.2664 91.8048 44.1589 92.5981 46.3216C93.0069 47.4361 93.0069 47.4334 92.5444 47.4334L92.168 47.4329L91.9019 46.7034L91.6354 45.9733H90.4927H89.3501L89.1048 46.6816L88.8589 47.3894L88.4559 47.4165C87.9934 47.4473 87.995 47.451 88.2297 46.86C88.3264 46.6157 88.6062 45.8586 88.8515 45.1768C89.0968 44.4956 89.4828 43.4501 89.7096 42.8538L90.1221 41.7701H90.5326H90.943L91.2207 42.5442ZM94.6365 41.9097C94.6662 41.9867 94.6901 43.1018 94.6901 44.3878V46.7257H96.1503H97.6104V44.2428V41.76L97.9869 41.7871L98.3628 41.8142L98.3862 44.2699L98.4101 46.7257H98.7653H99.1211L99.0961 47.6772L99.0706 48.6281H98.7611H98.4515L98.4069 48.0531L98.3628 47.4781L96.1285 47.4542L93.8936 47.4308V44.6002V41.7701H94.2382C94.4708 41.7701 94.6003 41.8152 94.6365 41.9097ZM100.885 44.6071V47.4435L100.509 47.4165L100.133 47.3894L100.109 44.691C100.083 41.6034 100.059 41.7701 100.528 41.7701H100.885V44.6071ZM105.929 44.6018V47.4334H105.575H105.221V46.4161V45.3982H104.613H104.004L103.308 46.4135L102.611 47.4292L102.19 47.4313C101.669 47.434 101.643 47.5365 102.47 46.355L103.17 45.3552L102.802 45.1529C101.572 44.4765 101.67 42.5225 102.964 41.9347C103.255 41.803 103.553 41.7733 104.624 41.7717L105.929 41.7701V44.6018ZM33.0642 42.514C31.3965 43.1347 31.2473 45.7901 32.8343 46.594C34.4166 47.3958 36.1104 46.0981 35.8704 44.2683C35.6899 42.892 34.3306 42.0425 33.0642 42.514ZM38.5842 43.5919V44.7058L39.565 44.6761L40.5457 44.6458L40.8037 44.357C41.0198 44.1154 41.0618 43.9917 41.0618 43.6025C41.0618 42.7439 40.6646 42.4779 39.3834 42.4779H38.5842V43.5919ZM54.6903 43.5839V44.6904H55.6205H56.5513L56.8784 44.3904C57.1805 44.1133 57.206 44.0522 57.206 43.5998C57.206 42.7503 56.8004 42.4779 55.5356 42.4779H54.6903V43.5839ZM103.178 42.6796C102.543 43.1076 102.482 43.8855 103.043 44.3995C103.359 44.6894 103.362 44.6904 104.291 44.6904H105.221V43.5839V42.4779H104.35C103.588 42.4779 103.439 42.5034 103.178 42.6796ZM65.5752 42.754C65.5752 42.7763 65.3803 43.3604 65.1425 44.0522L64.7092 45.3096H65.6273H66.5453L66.1041 44.0554C65.7175 42.9573 65.5752 42.6069 65.5752 42.754ZM90.2904 43.2966C90.1869 43.6009 90 44.1419 89.8742 44.4998C89.7488 44.8572 89.6458 45.1858 89.6458 45.2299C89.6458 45.274 90.0483 45.3096 90.5405 45.3096C91.2191 45.3096 91.4246 45.283 91.3927 45.1991C91.3699 45.1381 91.1804 44.5906 90.9711 43.9821C90.5002 42.6106 90.5177 42.6287 90.2904 43.2966ZM69.6462 45.7524V46.7257H70.5398H71.4334L71.7345 46.4246C72.566 45.5936 71.8731 44.7802 70.3317 44.7791L69.6462 44.7786V45.7524Z" fill="#FBFBF9"/>
<path fill-rule="evenodd" clip-rule="evenodd" d="M0 30V60H106.195H212.389V30V0H106.195H0V30ZM94.4904 12.3414C94.8361 12.5028 95.0214 12.6642 95.2205 12.9775L95.4865 13.3975V16.92V20.4425H97.886H100.286L100.715 20.6756C101.652 21.1858 101.958 22.3412 101.372 23.1573C100.876 23.8471 100.89 23.8439 98.0533 23.8938L95.5312 23.9379L95.5057 26.5927C95.4711 30.1943 95.5965 30.8092 96.5628 31.7756C98.7276 33.9409 102.512 32.6198 102.792 29.6018C102.88 28.6503 102.925 28.4963 103.212 28.1703C103.939 27.3425 105.106 27.3165 105.857 28.1113C106.659 28.9593 106.319 31.3237 105.138 33.1205C101.791 38.2104 94.0784 37.0805 92.2869 31.2377L92.0841 30.575L92.0565 22.055C92.0262 12.4991 91.9906 13.0503 92.6665 12.5458C93.2883 12.0823 93.8076 12.0239 94.4904 12.3414ZM146.823 12.7938C147.723 13.4177 147.787 13.8042 147.787 18.5883V22.4777H150.748H153.707L153.734 18.2963L153.761 14.1149L153.994 13.6189C154.71 12.0908 156.736 12.1073 157.53 13.6471C157.758 14.0883 157.799 34.6094 157.573 35.1441C157.073 36.3303 155.289 36.6913 154.394 35.7881C153.744 35.1319 153.764 35.2906 153.733 30.6404L153.706 26.4579L150.743 26.4812L147.781 26.5046L147.786 30.3993C147.789 32.7409 147.755 34.4867 147.699 34.7777C147.287 36.9499 144.27 36.9972 143.805 34.8388C143.735 34.5122 143.714 31.4687 143.733 24.248L143.761 14.1149L143.994 13.6189C144.502 12.5358 145.873 12.1354 146.823 12.7938ZM20.9782 12.8809C21.3181 13.0529 22.7708 14.7616 26.991 19.9534C27.3563 20.4027 28.1129 21.3228 28.6726 21.9988C30.4126 24.0982 30.4609 24.4561 29.2083 25.9604C28.3428 26.9984 25.4931 30.4519 25.0996 30.9388C23.3458 33.1088 21.5644 35.228 21.2989 35.4611C20.1542 36.4662 18.4019 35.6002 18.5119 34.0837C18.5586 33.4402 18.2788 33.8182 22.4804 28.7177C24.4057 26.3809 26.0081 24.4242 26.0416 24.3696C26.0766 24.3133 25.5106 23.554 24.7227 22.5998C23.9639 21.6812 23.1329 20.6703 22.8765 20.3538C22.6195 20.0373 21.7184 18.9414 20.8731 17.9177C18.7216 15.3122 18.685 15.2655 18.5851 15.0027C18.0542 13.6062 19.6365 12.2034 20.9782 12.8809ZM29.1255 12.9255C29.3995 13.0657 32.4345 16.6163 34.1591 18.815C34.2812 18.9706 35.177 20.0602 36.1503 21.2363C38.7552 24.3844 38.7414 24.2432 36.6812 26.7255C35.3129 28.3742 34.5913 29.2508 34.2037 29.7366C32.8736 31.4028 29.5136 35.4202 29.3278 35.5662C28.2536 36.411 26.6379 35.5768 26.6373 34.1772C26.6373 33.5368 26.7223 33.3998 28.3189 31.4692C34.9179 23.4903 34.2812 24.3696 33.8442 23.8412C33.6526 23.6092 33.2963 23.1738 33.0531 22.8738C32.8099 22.5733 31.3216 20.7653 29.7462 18.8554C26.52 14.9453 26.6039 15.0685 26.6527 14.2959C26.7345 13.0184 27.9674 12.335 29.1255 12.9255ZM37.1474 12.9404C37.337 13.0657 38.2848 14.134 39.2549 15.3143C40.2244 16.4947 41.1568 17.6273 41.3273 17.8317C41.4977 18.0361 42.2501 18.9457 42.9988 19.8536C44.5673 21.7556 44.3618 21.6292 44.8673 21.0027C45.4381 20.2954 45.8129 19.8393 47.6156 17.6549C48.4996 16.5839 49.4331 15.4492 49.6901 15.1327C49.9476 14.8163 50.4319 14.2221 50.7664 13.8117C51.9855 12.3165 53.3628 12.2586 54.0706 13.6731L54.292 14.1149L54.3186 24.292C54.3462 35.0708 54.3542 34.8558 53.9251 35.5158C53.2736 36.5188 51.609 36.403 51.0409 35.315L50.7966 34.8473L50.794 27.0919L50.7919 19.3365L50.4621 19.6949C50.2811 19.8919 49.9136 20.3251 49.646 20.6575C49.3784 20.9894 48.9404 21.5262 48.6727 21.8501C48.4046 22.174 47.7478 22.9736 47.2126 23.6267C45.3409 25.9104 45.1296 26.0761 44.1897 25.9981C43.4644 25.9381 43.4851 25.9582 40.5308 22.3434C40.02 21.7179 39.4625 21.0404 39.292 20.8381C39.1216 20.6352 38.7834 20.2205 38.5396 19.9158C38.2965 19.6115 37.8382 19.0535 37.5223 18.6759C34.5441 15.1237 34.5133 15.0802 34.5133 14.4159C34.5133 13.0742 36.0488 12.2135 37.1474 12.9404ZM180.628 14.7021C181.078 14.8519 181.57 15.3701 181.77 15.9069C181.941 16.3614 181.947 16.6014 181.947 22.5212C181.947 30.0956 181.95 30.1136 183.367 31.2335C185.371 32.8184 188.059 32.2237 189.217 29.9389L189.602 29.1807V28.1947C189.602 26.245 188.255 24.737 186.303 24.5018C184.258 24.2549 183.434 23.2991 183.989 21.8161C184.448 20.5901 185.276 20.2444 187.061 20.5343C193.351 21.5549 195.873 29.3888 191.328 33.7911C186.522 38.4473 178.812 35.7074 178.047 29.0708C177.853 27.3919 177.979 16.2143 178.196 15.7524C178.635 14.8205 179.658 14.3788 180.628 14.7021ZM168.628 20.452C172.01 20.8667 174.704 23.22 175.52 26.4733C175.759 27.4248 175.734 34.689 175.49 35.0825C174.874 36.0791 173.266 36.4099 172.481 35.7005C171.748 35.0384 171.732 34.9375 171.681 30.8851L171.637 27.3011L171.404 26.7478C170.381 24.3196 167.021 23.6405 165.206 25.4952C162.884 27.8687 164.13 31.586 167.402 32.0421C169.095 32.2784 169.827 32.8842 169.821 34.046C169.815 35.2742 168.979 36.1019 167.744 36.1025C162.246 36.1041 158.447 30.2984 160.593 25.1772C161.593 22.7926 164.085 20.9145 166.814 20.4887C167.785 20.3368 167.703 20.3384 168.628 20.452ZM66.9026 20.7499C68.4595 21.1789 69.9897 22.1241 70.3577 22.8834C70.7379 23.6687 70.5637 24.257 69.6218 25.3683C69.4163 25.611 68.8296 26.3188 68.3188 26.9416C67.8074 27.5639 66.9711 28.5791 66.4604 29.1972C63.0945 33.2687 63.335 32.8014 64.5573 32.8922C66.7699 33.0573 68.8842 31.3981 69.2825 29.1834C69.5936 27.454 71.3729 26.932 72.4285 28.2611C73.4496 29.5465 71.7531 33.3616 69.463 34.9306C63.4285 39.0648 55.4745 33.754 57.0871 26.6671C58.0906 22.2568 62.5704 19.5563 66.9026 20.7499ZM77.7892 20.6416C78.1667 20.8327 78.6026 21.3074 80.0883 23.1425C80.3559 23.4733 80.7143 23.9108 80.8848 24.1147C81.0552 24.3191 81.5331 24.8995 81.9467 25.405C82.3603 25.9104 83.0177 26.7074 83.4069 27.1763C83.7966 27.6446 84.3212 28.2828 84.574 28.5935C84.8262 28.9046 85.1134 29.2588 85.2122 29.3804L85.3922 29.6018L85.3959 25.8409C85.3996 21.7763 85.4166 21.6027 85.8669 21.0897C86.7881 20.0405 88.474 20.4117 88.8441 21.7455C88.971 22.2011 88.972 34.5196 88.8457 34.9752C88.4655 36.3446 86.6586 36.6117 85.6986 35.4404C85.509 35.2089 85.2143 34.852 85.0444 34.6471C84.874 34.4427 84.5156 34.0057 84.248 33.677C83.9798 33.3478 83.1308 32.3166 82.3609 31.3848C80.9156 29.6358 80.6809 29.3501 79.5573 27.9743L78.8936 27.1614L78.8496 31.0365C78.8251 33.1678 78.7683 34.9911 78.7232 35.0883C78.0934 36.4481 76.2722 36.6016 75.558 35.3554L75.3542 35.0002V28.363C75.3542 20.7234 75.2926 21.2772 76.1979 20.7303C76.7745 20.3814 77.2264 20.3565 77.7892 20.6416ZM118.338 20.6979C124.558 22.269 126.563 29.8306 121.921 34.2143C118.107 37.8154 111.794 36.7391 109.429 32.0846C106.326 25.9779 111.757 19.0359 118.338 20.6979ZM136.062 20.7345C139.046 21.6584 141.081 24.1827 141.212 27.1237L141.256 28.0975L140.966 28.5292C139.963 30.0228 137.969 29.3639 137.778 27.4752C137.412 23.8646 133.079 22.6588 131.072 25.6088C130.504 26.4446 130.502 26.4589 130.447 30.9733L130.398 35.0883L130.149 35.4722C129.47 36.5177 127.721 36.4088 127.179 35.2874C126.901 34.7135 126.891 27.3579 127.167 26.0177C127.531 24.2437 128.622 22.6906 130.27 21.5989C130.981 21.1285 131.445 20.9368 132.743 20.5784C133.486 20.3729 135.148 20.4515 136.062 20.7345ZM63.9828 24.0372C61.1772 24.6504 59.5704 27.6892 60.7189 30.2103C60.8713 30.5448 60.7758 30.6462 63.8326 26.9028C64.0906 26.5864 64.688 25.8632 65.16 25.2961C65.6315 24.729 66.0175 24.2251 66.0175 24.1768C66.0175 23.9437 64.7952 23.8598 63.9828 24.0372ZM115.531 24.0685C110.752 25.3396 110.857 31.7809 115.672 32.7966C118.446 33.3818 121.132 31.0444 120.952 28.2027C120.775 25.4135 118.111 23.3819 115.531 24.0685ZM22.8765 41.828C23.3761 41.9984 24.2825 42.814 24.2342 43.0503C24.1407 43.5048 23.769 43.4952 23.3002 43.0264C21.557 41.2832 18.8023 43.5143 19.9752 45.7189C20.7106 47.1016 22.8674 47.2035 23.6023 45.8904C23.6963 45.7221 24.248 45.9271 24.248 46.1299C24.248 47.1903 21.8947 47.9501 20.5885 47.3113C17.3018 45.703 19.4113 40.6471 22.8765 41.828ZM34.8966 41.8604C36.0419 42.2888 36.694 43.4103 36.6196 44.8242C36.4216 48.6005 30.9393 48.4285 30.9345 44.6458C30.9319 42.4965 32.8991 41.1133 34.8966 41.8604ZM29.7345 44.6018V47.4334H29.3804H29.0267V44.9538V42.4736L27.5442 42.4981L26.0618 42.5219L26.0384 44.9777L26.015 47.4334H25.6625H25.3099V44.6018V41.7701H27.5219H29.7345V44.6018ZM40.6619 41.8688C41.8423 42.1965 42.2405 43.9747 41.3363 44.8789C40.9285 45.2873 40.5276 45.3972 39.4471 45.3977L38.5842 45.3982V46.4209V47.4435L38.2078 47.4165L37.8319 47.3894L37.8085 44.691C37.7958 43.2074 37.8042 41.9427 37.8276 41.8816C37.8828 41.7377 40.1522 41.7271 40.6619 41.8688ZM46.6816 42.1237V42.4338L45.8188 42.4588L44.9559 42.4842V44.9591V47.4334H44.5577H44.1595V44.9559V42.4779H43.3158C42.4014 42.4779 42.3154 42.4306 42.4264 41.9894L42.4821 41.7669L44.5816 41.7903L46.6816 41.8142V42.1237ZM50.4865 44.6018V47.3894L50.1106 47.4165L49.7347 47.4435V44.6018V41.76L50.1106 41.7871L50.4865 41.8142V44.6018ZM56.9469 41.9373C58.397 42.6064 58.2605 44.8848 56.7451 45.3058C56.5641 45.3563 56.0278 45.3977 55.5531 45.3977L54.6903 45.3982V46.4161V47.4334H54.3361H53.9825V44.6018V41.7701L55.2876 41.7717C56.3671 41.7733 56.6543 41.8019 56.9469 41.9373ZM62.5221 42.1237V42.4338L61.1724 42.4582L59.8232 42.4827V43.3211V44.1595H61.0673H62.3113L62.2842 44.4913L62.2566 44.8232L61.0396 44.8476L59.8232 44.872V45.7965V46.7209L61.1724 46.7453L62.5221 46.7697V47.0798V47.3894L60.7742 47.4133L59.0267 47.4372V44.6018V41.7664L60.7742 41.7903L62.5221 41.8142V42.1237ZM66.2108 42.2565C66.4582 42.8862 67.2138 44.9384 67.5621 45.9292C67.7246 46.3917 67.9221 46.9195 68.0007 47.1016L68.1441 47.4334H67.7103H67.2765L67.0232 46.7034L66.7699 45.9733H65.6315H64.4931L64.2297 46.7034L63.9658 47.4334H63.5761C63.3616 47.4334 63.1858 47.3995 63.1858 47.3575C63.1858 47.2821 64.088 44.7913 64.4246 43.9381C64.5202 43.6949 64.6949 43.217 64.8122 42.8761C65.2211 41.6873 65.169 41.7568 65.6283 41.7871C66.0287 41.8136 66.0398 41.8227 66.2108 42.2565ZM72.3011 42.1237V42.4779H70.9736H69.6462V43.2743V44.0708L70.4644 44.0713C72.1561 44.0724 72.994 44.7802 72.7949 46.0396C72.6218 47.1377 72.0765 47.4334 70.225 47.4334H68.8497V44.6018V41.7701H70.5754H72.3011V42.1237ZM74.5131 44.6071V47.4435L74.1372 47.4165L73.7612 47.3894L73.7373 44.691C73.7108 41.6034 73.6869 41.7701 74.1563 41.7701H74.5131V44.6071ZM80.2657 44.6018V47.4334H79.8674H79.4692V44.9559V42.4779H78.3626H77.2566L77.255 43.5175C77.2508 46.286 76.7968 47.5221 75.7832 47.5221C75.3308 47.5221 75.3234 46.8106 75.7742 46.6773C76.3269 46.5149 76.4113 46.1697 76.4421 43.9381C76.457 42.8671 76.4857 41.9416 76.5058 41.8805C76.534 41.7966 76.9943 41.7701 78.4041 41.7701H80.2657V44.6018ZM82.3896 44.6018V47.4334H82.0354H81.6812V44.6018V41.7701H82.0354H82.3896V44.6018ZM87.6106 42.1237V42.4779H86.7255H85.8409V44.9559V47.4334H85.4883H85.1357L85.1119 44.9777L85.0885 42.5219L84.2257 42.497L83.3628 42.4715V42.1205V41.7701H85.4867H87.6106V42.1237ZM91.2207 42.5442C91.4793 43.2664 91.8048 44.1589 92.5981 46.3216C93.0069 47.4361 93.0069 47.4334 92.5444 47.4334L92.168 47.4329L91.9019 46.7034L91.6354 45.9733H90.4927H89.3501L89.1048 46.6816L88.8589 47.3894L88.4559 47.4165C87.9934 47.4473 87.995 47.451 88.2297 46.86C88.3264 46.6157 88.6062 45.8586 88.8515 45.1768C89.0968 44.4956 89.4828 43.4501 89.7096 42.8538L90.1221 41.7701H90.5326H90.943L91.2207 42.5442ZM94.6365 41.9097C94.6662 41.9867 94.6901 43.1018 94.6901 44.3878V46.7257H96.1503H97.6104V44.2428V41.76L97.9869 41.7871L98.3628 41.8142L98.3862 44.2699L98.4101 46.7257H98.7653H99.1211L99.0961 47.6772L99.0706 48.6281H98.7611H98.4515L98.4069 48.0531L98.3628 47.4781L96.1285 47.4542L93.8936 47.4308V44.6002V41.7701H94.2382C94.4708 41.7701 94.6003 41.8152 94.6365 41.9097ZM100.885 44.6071V47.4435L100.509 47.4165L100.133 47.3894L100.109 44.691C100.083 41.6034 100.059 41.7701 100.528 41.7701H100.885V44.6071ZM105.929 44.6018V47.4334H105.575H105.221V46.4161V45.3982H104.613H104.004L103.308 46.4135L102.611 47.4292L102.19 47.4313C101.669 47.434 101.643 47.5365 102.47 46.355L103.17 45.3552L102.802 45.1529C101.572 44.4765 101.67 42.5225 102.964 41.9347C103.255 41.803 103.553 41.7733 104.624 41.7717L105.929 41.7701V44.6018ZM33.0642 42.514C31.3965 43.1347 31.2473 45.7901 32.8343 46.594C34.4166 47.3958 36.1104 46.0981 35.8704 44.2683C35.6899 42.892 34.3306 42.0425 33.0642 42.514ZM38.5842 43.5919V44.7058L39.565 44.6761L40.5457 44.6458L40.8037 44.357C41.0198 44.1154 41.0618 43.9917 41.0618 43.6025C41.0618 42.7439 40.6646 42.4779 39.3834 42.4779H38.5842V43.5919ZM54.6903 43.5839V44.6904H55.6205H56.5513L56.8784 44.3904C57.1805 44.1133 57.206 44.0522 57.206 43.5998C57.206 42.7503 56.8004 42.4779 55.5356 42.4779H54.6903V43.5839ZM103.178 42.6796C102.543 43.1076 102.482 43.8855 103.043 44.3995C103.359 44.6894 103.362 44.6904 104.291 44.6904H105.221V43.5839V42.4779H104.35C103.588 42.4779 103.439 42.5034 103.178 42.6796ZM65.5752 42.754C65.5752 42.7763 65.3803 43.3604 65.1425 44.0522L64.7092 45.3096H65.6273H66.5453L66.1041 44.0554C65.7175 42.9573 65.5752 42.6069 65.5752 42.754ZM90.2904 43.2966C90.1869 43.6009 90 44.1419 89.8742 44.4998C89.7488 44.8572 89.6458 45.1858 89.6458 45.2299C89.6458 45.274 90.0483 45.3096 90.5405 45.3096C91.2191 45.3096 91.4246 45.283 91.3927 45.1991C91.3699 45.1381 91.1804 44.5906 90.9711 43.9821C90.5002 42.6106 90.5177 42.6287 90.2904 43.2966ZM69.6462 45.7524V46.7257H70.5398H71.4334L71.7345 46.4246C72.566 45.5936 71.8731 44.7802 70.3317 44.7791L69.6462 44.7786V45.7524Z" fill="#FBFBF9"/>
<path fill-rule="evenodd" clip-rule="evenodd" d="M144.947 12.7053C144.543 12.8805 144.265 13.146 144.03 13.5819L143.84 13.9361L143.814 24.2901C143.786 35.7034 143.763 35.0349 144.207 35.6168C145.057 36.7297 146.692 36.6193 147.452 35.398C147.643 35.0917 147.646 35.0184 147.69 30.7504L147.734 26.414H150.743H153.752L153.796 30.6618C153.845 35.3768 153.815 35.1437 154.459 35.7883C155.382 36.7101 157.208 36.2306 157.587 34.9669C157.663 34.7147 157.69 31.9016 157.69 24.3564V14.089L157.442 13.6159C156.633 12.066 154.515 12.229 153.93 13.8867C153.817 14.2069 153.796 14.9269 153.796 18.3718V22.4757H150.743H147.69V18.4441C147.69 14.1607 147.67 13.9207 147.262 13.3164C146.808 12.6432 145.74 12.3612 144.947 12.7053ZM19.6085 12.8651C18.9506 13.1088 18.5747 13.6754 18.5747 14.4235C18.5747 15.0777 18.5258 15.0108 22.4365 19.7561C24.4112 22.1524 26.046 24.1605 26.0694 24.2189C26.1204 24.3458 25.8942 24.6416 23.8844 27.0713C23.0327 28.1009 22.1965 29.115 22.026 29.3248C21.6278 29.8159 20.9513 30.6405 19.7694 32.0779C18.4775 33.648 18.3156 34.0987 18.7425 34.935C19.3696 36.1648 20.749 36.1488 21.777 34.901C22.0542 34.5649 23.183 33.195 24.2858 31.8564C25.3887 30.5179 26.5186 29.1442 26.7968 28.8034C27.075 28.4625 27.8619 27.503 28.5453 26.6704C30.0304 24.8603 30.2004 24.4759 29.8664 23.6773C29.7379 23.3694 29.6041 23.1989 27.2933 20.3964C24.4956 17.003 22.5166 14.5998 21.769 13.6865C21.0841 12.8508 20.3752 12.581 19.6085 12.8651ZM27.734 12.8688C27.2285 13.0526 26.74 13.6281 26.6651 14.1283C26.5451 14.9285 26.5425 14.9248 29.2828 18.2343C30.1828 19.3223 31.0196 20.3391 31.1412 20.4952C31.2628 20.6508 32.0094 21.5572 32.8005 22.5097C33.5912 23.4623 34.2384 24.2646 34.2384 24.2933C34.2384 24.3219 33.9358 24.7111 33.5662 25.1582C32.0572 26.9837 31.4375 27.7366 31.1853 28.052C31.0393 28.2347 30.4818 28.9111 29.9466 29.5557C29.4108 30.1998 28.8533 30.8773 28.7073 31.0605C28.5612 31.2437 28.0892 31.8214 27.6586 32.3439C27.2274 32.8669 26.8196 33.4276 26.7512 33.5901C26.1936 34.9244 27.6405 36.2795 28.9759 35.6726C29.4628 35.4517 28.6377 36.4101 35.1177 28.5379C38.8451 24.0097 38.7427 24.4446 36.6719 21.9432C36.3798 21.5906 36.0214 21.1526 35.8754 20.9704C35.5212 20.5281 32.4044 16.7513 30.7218 14.7251C29.1028 12.7754 28.6919 12.52 27.734 12.8688ZM179.381 14.7283C178.867 14.8945 178.347 15.4133 178.175 15.932C177.956 16.5894 178.022 29.4501 178.247 30.2104C180.172 36.6931 188.193 38.1511 192.199 32.7469C195.4 28.429 192.748 21.6692 187.457 20.6566C185.493 20.2807 184.488 20.603 184.061 21.7446C183.487 23.2796 184.289 24.2237 186.372 24.4637C189.48 24.8216 190.727 28.5984 188.54 31.0303C186.728 33.0464 182.922 32.1708 182.106 29.551C181.947 29.0396 181.937 28.6552 181.936 22.8442C181.934 18.9203 181.9 16.5347 181.842 16.2814C181.562 15.0671 180.468 14.3763 179.381 14.7283ZM166.846 20.5329C162.233 21.1361 159.136 25.6531 160.265 30.1308C160.903 32.6593 162.903 34.8607 165.3 35.672C166.527 36.0872 168.445 36.1138 168.959 35.7225C169.562 35.2626 169.92 34.2772 169.729 33.5964C169.476 32.6922 168.869 32.3088 167.319 32.0752C165.301 31.7715 164.056 30.4154 163.989 28.4476L163.955 27.4727L164.323 26.6991C165.439 24.3495 167.979 23.6556 170.107 25.1195C171.592 26.141 171.761 26.7485 171.761 31.0754C171.761 34.7173 171.797 34.9727 172.402 35.5451C173.302 36.3973 174.968 36.0591 175.485 34.9196C175.699 34.4481 175.735 28.0483 175.529 26.9009C174.802 22.8299 170.94 19.9977 166.846 20.5329Z" fill="#2E2D2D"/>
<path fill-rule="evenodd" clip-rule="evenodd" d="M93.6066 12.1849C93.7166 12.2061 93.8758 12.2056 93.9603 12.1833C94.0452 12.161 93.955 12.144 93.7601 12.1445C93.5658 12.1456 93.4962 12.1637 93.6066 12.1849ZM145.508 12.5396C145.642 12.5603 145.861 12.5603 145.995 12.5396C146.128 12.5194 146.019 12.503 145.751 12.503C145.484 12.503 145.374 12.5194 145.508 12.5396ZM155.508 12.5396C155.642 12.5603 155.861 12.5603 155.995 12.5396C156.129 12.5194 156.019 12.503 155.751 12.503C155.484 12.503 155.374 12.5194 155.508 12.5396ZM146.371 12.6283C146.444 12.6553 146.583 12.7137 146.681 12.7589C146.855 12.8391 146.855 12.838 146.686 12.7026C146.591 12.6267 146.452 12.5683 146.376 12.572C146.257 12.5778 146.256 12.5858 146.371 12.6283ZM36.0401 12.7169C36.175 12.7371 36.3741 12.7366 36.4829 12.7159C36.5918 12.6946 36.4813 12.6782 36.2381 12.6787C35.995 12.6792 35.9058 12.6968 36.0401 12.7169ZM52.3235 12.7169C52.4578 12.7371 52.6569 12.7366 52.7658 12.7159C52.8746 12.6946 52.7647 12.6782 52.5215 12.6787C52.2778 12.6792 52.1891 12.6968 52.3235 12.7169ZM154.364 13.0297C154.266 13.1391 154.153 13.2883 154.114 13.3615C154.04 13.5022 154.06 13.4831 154.419 13.0737C154.536 12.9399 154.612 12.8306 154.587 12.8306C154.563 12.8306 154.463 12.9198 154.364 13.0297ZM29.2914 13.035C29.2914 13.0504 29.4204 13.1799 29.5787 13.3228L29.8665 13.5824L29.6063 13.2952C29.3642 13.027 29.2914 12.9665 29.2914 13.035ZM18.5212 14.4235C18.5212 14.6911 18.5381 14.8005 18.5583 14.6667C18.5785 14.5329 18.5785 14.3136 18.5583 14.1798C18.5381 14.046 18.5212 14.1553 18.5212 14.4235ZM54.2896 24.512C54.2896 30.1334 54.3003 32.433 54.3135 29.6226C54.3263 26.8116 54.3263 22.2118 54.3135 19.4014C54.3003 16.5904 54.2896 18.89 54.2896 24.512ZM143.759 24.556C143.759 30.1536 143.769 32.4304 143.783 29.6157C143.795 26.801 143.795 22.2214 143.783 19.4385C143.769 16.6557 143.759 18.9585 143.759 24.556ZM147.739 18.4939C147.739 20.7086 147.751 21.6145 147.765 20.5074C147.779 19.4003 147.779 17.5881 147.765 16.481C147.751 15.3734 147.739 16.2792 147.739 18.4939ZM153.757 18.4939C153.757 20.7086 153.768 21.6145 153.782 20.5074C153.796 19.4003 153.796 17.5881 153.782 16.481C153.768 15.3734 153.757 16.2792 153.757 18.4939ZM178.578 15.1976L178.274 15.5295L178.605 15.2247C178.914 14.9406 178.978 14.8658 178.91 14.8658C178.896 14.8658 178.746 15.015 178.578 15.1976ZM178.006 22.609C178.006 26.0162 178.017 27.3973 178.03 25.678C178.044 23.9587 178.044 21.1711 178.03 19.4831C178.017 17.7952 178.006 19.2022 178.006 22.609ZM167.677 20.415C167.787 20.4362 167.947 20.4357 168.031 20.4134C168.116 20.3911 168.026 20.3741 167.831 20.3746C167.637 20.3757 167.567 20.3937 167.677 20.415ZM64.4461 20.5063C64.6771 20.5244 65.0557 20.5244 65.2866 20.5063C65.5181 20.4877 65.3286 20.4729 64.8666 20.4729C64.4042 20.4729 64.2151 20.4877 64.4461 20.5063ZM76.8369 20.5047C76.9712 20.5249 77.1704 20.5244 77.2792 20.5031C77.3881 20.4824 77.2781 20.4654 77.0344 20.4665C76.7912 20.467 76.702 20.484 76.8369 20.5047ZM86.9684 20.5037C87.0778 20.5244 87.2567 20.5244 87.3666 20.5037C87.476 20.4824 87.3863 20.4649 87.1675 20.4649C86.9482 20.4649 86.8585 20.4824 86.9684 20.5037ZM96.7081 20.5074C97.4047 20.5222 98.5197 20.5222 99.1861 20.5074C99.8525 20.492 99.2822 20.4798 97.9197 20.4798C96.5567 20.4798 96.0114 20.492 96.7081 20.5074ZM116.042 20.5063C116.324 20.5244 116.762 20.5238 117.016 20.5063C117.269 20.4883 117.039 20.4739 116.504 20.4739C115.968 20.4745 115.76 20.4888 116.042 20.5063ZM133.653 20.5063C133.935 20.5244 134.373 20.5238 134.626 20.5063C134.88 20.4883 134.65 20.4739 134.114 20.4739C133.579 20.4745 133.371 20.4888 133.653 20.5063ZM166.924 20.5021C167.009 20.5244 167.149 20.5244 167.234 20.5021C167.319 20.4798 167.249 20.4617 167.079 20.4617C166.909 20.4617 166.839 20.4798 166.924 20.5021ZM168.474 20.5037C168.584 20.5249 168.743 20.5238 168.828 20.5021C168.912 20.4798 168.822 20.4622 168.627 20.4633C168.433 20.4644 168.363 20.4824 168.474 20.5037ZM185.641 20.5058C185.848 20.5244 186.186 20.5244 186.393 20.5058C186.6 20.4872 186.431 20.4718 186.017 20.4718C185.603 20.4718 185.434 20.4872 185.641 20.5058ZM184.463 20.9943L184.203 21.2815L184.49 21.0219C184.758 20.7798 184.819 20.7065 184.75 20.7065C184.735 20.7065 184.605 20.836 184.463 20.9943ZM188.849 21.1047C188.971 21.1743 189.11 21.2311 189.158 21.2311C189.207 21.2311 189.147 21.1743 189.026 21.1047C188.904 21.0352 188.765 20.9783 188.716 20.9783C188.667 20.9783 188.727 21.0352 188.849 21.1047ZM130.862 21.1998C130.531 21.3792 130.551 21.4536 130.884 21.2815C131.03 21.2061 131.15 21.1254 131.15 21.1026C131.15 21.0452 131.14 21.049 130.862 21.1998ZM164.313 21.1998C163.97 21.3856 164.009 21.4499 164.358 21.2725C164.691 21.1031 164.75 21.0591 164.638 21.0638C164.593 21.066 164.447 21.127 164.313 21.1998ZM85.3771 25.7948C85.3638 27.9123 85.3829 29.6444 85.4196 29.6444C85.4562 29.6444 85.4859 27.9123 85.4859 25.7948C85.4859 23.6778 85.4668 21.9453 85.4435 21.9453C85.4201 21.9453 85.3904 23.6778 85.3771 25.7948ZM88.8905 28.3615C88.8905 31.9143 88.9017 33.3553 88.915 31.5628C88.9282 29.7707 88.9282 26.8637 88.915 25.1024C88.9017 23.3417 88.8905 24.8083 88.8905 28.3615ZM183.829 22.5649C183.829 22.7842 183.846 22.8734 183.867 22.764C183.888 22.6546 183.888 22.4752 183.867 22.3658C183.846 22.2564 183.829 22.3456 183.829 22.5649ZM173.229 22.6536C173.419 22.8479 173.595 23.0072 173.619 23.0072C173.643 23.0072 173.508 22.8479 173.318 22.6536C173.128 22.4587 172.952 22.2994 172.928 22.2994C172.904 22.2994 173.039 22.4587 173.229 22.6536ZM59.155 22.8527L58.7158 23.3173L59.1804 22.8782C59.6121 22.4699 59.6859 22.3881 59.6196 22.3881C59.6058 22.3881 59.3966 22.5968 59.155 22.8527ZM34.0219 24.0522C34.1737 24.2311 34.1801 24.2799 34.0739 24.4504C33.9635 24.6277 33.9661 24.6341 34.0999 24.5231C34.2996 24.3585 34.2847 24.2173 34.0479 24.0166L33.8488 23.8483L34.0219 24.0522ZM184.677 24.0638C184.792 24.1642 184.928 24.2465 184.98 24.2465C185.089 24.2465 185.083 24.2417 184.734 24.0373L184.468 23.8817L184.677 24.0638ZM30.0215 24.2906C30.0226 24.4854 30.0406 24.5545 30.0619 24.4445C30.0831 24.3341 30.082 24.1748 30.0603 24.0904C30.038 24.006 30.0204 24.0957 30.0215 24.2906ZM174.59 24.3792C174.637 24.4764 174.742 24.6357 174.821 24.7329L174.965 24.9102L174.878 24.7329C174.83 24.6357 174.726 24.4764 174.647 24.3792L174.503 24.2019L174.59 24.3792ZM167.499 24.3973C167.609 24.4185 167.788 24.4185 167.897 24.3973C168.007 24.376 167.917 24.3591 167.698 24.3591C167.479 24.3591 167.39 24.376 167.499 24.3973ZM131.455 25.0647L131.106 25.4412L131.482 25.0913C131.689 24.8985 131.857 24.7297 131.857 24.7153C131.857 24.6479 131.78 24.7153 131.455 25.0647ZM136.636 24.9983C136.801 25.1688 136.956 25.3084 136.981 25.3084C137.005 25.3084 136.89 25.1688 136.725 24.9983C136.56 24.8279 136.405 24.6888 136.38 24.6888C136.356 24.6888 136.471 24.8279 136.636 24.9983ZM61.6309 25.2421L61.3707 25.5293L61.6585 25.2697C61.8167 25.1268 61.9463 24.9973 61.9463 24.9819C61.9463 24.9134 61.873 24.9739 61.6309 25.2421ZM119.38 24.9819C119.38 24.9973 119.509 25.1268 119.667 25.2697L119.955 25.5293L119.695 25.2421C119.453 24.9739 119.38 24.9134 119.38 24.9819ZM165.171 25.4189L164.911 25.7067L165.198 25.4465C165.466 25.2044 165.526 25.1311 165.458 25.1311C165.443 25.1311 165.314 25.2606 165.171 25.4189ZM188.672 25.7067C188.837 25.8766 188.992 26.0162 189.016 26.0162C189.041 26.0162 188.925 25.8766 188.76 25.7067C188.595 25.5362 188.44 25.3966 188.416 25.3966C188.391 25.3966 188.506 25.5362 188.672 25.7067ZM160.227 26.1553C160.194 26.2849 160.185 26.4081 160.206 26.4288C160.226 26.45 160.27 26.3608 160.303 26.2313C160.335 26.1017 160.345 25.9785 160.324 25.9573C160.303 25.9366 160.259 26.0258 160.227 26.1553ZM147.757 26.4352C147.734 26.4723 149.065 26.492 150.714 26.4787L153.714 26.4543L153.739 30.3946L153.763 34.335L153.762 30.3745L153.76 26.4145L150.78 26.3911C149.14 26.3783 147.78 26.3985 147.757 26.4352ZM147.739 30.5736C147.739 32.7638 147.751 33.6474 147.765 32.5366C147.779 31.4263 147.779 29.6343 147.764 28.5543C147.751 27.4748 147.739 28.3833 147.739 30.5736ZM175.595 27.1668C175.595 27.3368 175.613 27.4068 175.636 27.3214C175.657 27.2364 175.657 27.0968 175.636 27.0118C175.613 26.9268 175.595 26.9964 175.595 27.1668ZM78.7797 30.95C78.7909 33.0792 78.8105 34.2044 78.8238 33.4499C78.8859 29.946 78.887 27.0782 78.8265 27.0782C78.7904 27.0782 78.7691 28.8203 78.7797 30.95ZM164.037 27.3028C164.006 27.3819 163.987 27.5927 163.994 27.7711C164.004 28.0615 164.012 28.0488 164.069 27.6532C164.137 27.1822 164.126 27.0686 164.037 27.3028ZM193.574 28.2729C193.574 28.9058 193.588 29.1527 193.605 28.8224C193.622 28.4916 193.622 27.9739 193.604 27.6718C193.587 27.3697 193.573 27.6399 193.574 28.2729ZM160.023 27.6091C160.023 27.8284 160.04 27.9176 160.062 27.8083C160.083 27.6989 160.083 27.5194 160.062 27.41C160.04 27.3006 160.023 27.3899 160.023 27.6091ZM108.527 28.4497C108.528 28.9366 108.542 29.1245 108.56 28.867C108.578 28.61 108.578 28.2118 108.56 27.9824C108.541 27.7525 108.527 27.9633 108.527 28.4497ZM171.721 31.0164C171.721 32.8658 171.732 33.6352 171.747 32.7256C171.761 31.816 171.761 30.3028 171.747 29.363C171.732 28.4226 171.721 29.1665 171.721 31.0164ZM124.452 28.4056C124.452 28.7221 124.468 28.8516 124.488 28.6934C124.508 28.5352 124.508 28.276 124.488 28.1178C124.468 27.9596 124.452 28.0891 124.452 28.4056ZM56.8373 28.4056C56.8373 28.6249 56.8548 28.7141 56.876 28.6047C56.8967 28.4953 56.8967 28.3159 56.876 28.2065C56.8548 28.0971 56.8373 28.1863 56.8373 28.4056ZM60.287 28.4497C60.2881 28.6445 60.3061 28.7136 60.3273 28.6037C60.3486 28.4937 60.3475 28.3345 60.3258 28.2495C60.3035 28.1651 60.2859 28.2553 60.287 28.4497ZM160.021 28.8925C160.022 29.0868 160.04 29.1564 160.062 29.046C160.083 28.936 160.082 28.7768 160.06 28.6923C160.038 28.6074 160.021 28.6976 160.021 28.8925ZM164.69 30.6458C164.69 30.6612 164.819 30.7902 164.977 30.933L165.265 31.1932L165.005 30.9054C164.762 30.6373 164.69 30.5773 164.69 30.6458ZM182.743 30.7339C182.743 30.7493 182.872 30.8789 183.03 31.0217L183.318 31.2819L183.058 30.9941C182.815 30.726 182.743 30.666 182.743 30.7339ZM188.358 31.1709L188.008 31.5474L188.384 31.1975C188.734 30.872 188.801 30.795 188.734 30.795C188.719 30.795 188.551 30.9644 188.358 31.1709ZM68.0026 31.6137L67.7424 31.901L68.0302 31.6414C68.1884 31.4985 68.318 31.369 68.318 31.3536C68.318 31.2851 68.2447 31.3456 68.0026 31.6137ZM123.601 31.9021C123.52 32.072 123.472 32.2111 123.494 32.2111C123.555 32.2111 123.823 31.669 123.782 31.6286C123.763 31.6095 123.682 31.7327 123.601 31.9021ZM166.064 31.6854C166.118 31.7714 166.894 32.072 166.939 32.0247C166.958 32.0056 166.759 31.9058 166.498 31.8028C166.236 31.7003 166.041 31.6472 166.064 31.6854ZM184.336 31.8421C184.408 31.8872 184.568 31.9504 184.689 31.9833C184.843 32.0242 184.87 32.0173 184.778 31.9605C184.705 31.9153 184.546 31.8516 184.424 31.8192C184.27 31.7778 184.243 31.7853 184.336 31.8421ZM185.066 32.0948C185.151 32.1171 185.29 32.1171 185.375 32.0948C185.46 32.0725 185.391 32.0545 185.22 32.0545C185.05 32.0545 184.98 32.0725 185.066 32.0948ZM18.5084 34.1401C18.4962 34.5522 18.6725 35.1314 18.81 35.1314C18.835 35.1314 18.8047 35.0417 18.7436 34.9323C18.682 34.8224 18.6072 34.4943 18.5769 34.2022L18.5217 33.6713L18.5084 34.1401ZM70.393 34.0913L70.0436 34.4677L70.4196 34.1178C70.7695 33.7923 70.8364 33.7153 70.7695 33.7153C70.7551 33.7153 70.5858 33.8847 70.393 34.0913ZM110.84 34.0695C111.03 34.2638 111.205 34.4231 111.23 34.4231C111.254 34.4231 111.119 34.2638 110.929 34.0695C110.739 33.8746 110.563 33.7153 110.538 33.7153C110.514 33.7153 110.65 33.8746 110.84 34.0695ZM162.787 34.2463C162.977 34.4412 163.152 34.6005 163.177 34.6005C163.201 34.6005 163.065 34.4412 162.875 34.2463C162.685 34.0514 162.51 33.8922 162.486 33.8922C162.461 33.8922 162.597 34.0514 162.787 34.2463ZM175.508 34.8877C175.413 35.1479 175.415 35.1591 175.533 35.0035C175.645 34.8553 175.712 34.6005 175.638 34.6005C175.624 34.6005 175.566 34.7295 175.508 34.8877ZM26.8134 35.0704C26.8134 35.0858 26.9429 35.2153 27.1012 35.3582L27.3884 35.6178L27.1288 35.3306C26.8866 35.0624 26.8134 35.0019 26.8134 35.0704ZM85.8401 35.6178C86.0052 35.7883 86.1603 35.9279 86.1842 35.9279C86.2086 35.9279 86.0934 35.7883 85.9282 35.6178C85.7631 35.4474 85.6081 35.3083 85.5842 35.3083C85.5597 35.3083 85.675 35.4474 85.8401 35.6178ZM172.492 35.6842C172.674 35.8668 172.876 36.015 172.938 36.0134C173.001 36.0118 172.973 35.9672 172.875 35.9136C172.778 35.8599 172.577 35.7118 172.429 35.5844C172.279 35.4553 172.307 35.4994 172.492 35.6842ZM29.0291 35.63C28.812 35.7453 28.6925 35.8392 28.7636 35.8387C28.9012 35.8387 29.4682 35.5191 29.4682 35.4421C29.4682 35.4171 29.4581 35.4022 29.4459 35.4086C29.4337 35.415 29.2463 35.5148 29.0291 35.63ZM88.3564 35.6842L88.0967 35.972L88.384 35.7118C88.5422 35.569 88.6718 35.4399 88.6718 35.4245C88.6718 35.356 88.5985 35.416 88.3564 35.6842ZM144.148 35.6481C144.247 35.7861 144.397 35.9555 144.483 36.024C144.568 36.0925 144.504 35.9799 144.339 35.7729C144.002 35.3481 143.877 35.2663 144.148 35.6481ZM168.982 35.7176C168.822 35.853 168.79 35.9067 168.9 35.852C169.063 35.7713 169.367 35.4803 169.28 35.4883C169.262 35.4904 169.128 35.5934 168.982 35.7176ZM183.229 35.7097C183.375 35.7766 183.555 35.8302 183.627 35.8286C183.701 35.827 183.621 35.7723 183.451 35.7065C183.046 35.5509 182.888 35.553 183.229 35.7097ZM165.619 35.8392C165.716 35.8812 165.855 35.9152 165.928 35.9152C166.012 35.9152 165.996 35.887 165.884 35.8392C165.787 35.7973 165.648 35.7633 165.574 35.7633C165.491 35.7633 165.507 35.7914 165.619 35.8392ZM187.61 35.8392C187.432 35.896 187.423 35.9104 187.566 35.9125C187.663 35.9141 187.822 35.8812 187.92 35.8392C188.145 35.7421 187.912 35.7421 187.61 35.8392ZM20.0668 35.9019C20.1767 35.9231 20.336 35.9221 20.4204 35.9003C20.5054 35.878 20.4151 35.8605 20.2203 35.8615C20.0259 35.8626 19.9564 35.8806 20.0668 35.9019ZM28.1631 35.9003C28.2481 35.9226 28.3877 35.9226 28.4727 35.9003C28.5576 35.878 28.4881 35.8599 28.3176 35.8599C28.1472 35.8599 28.0776 35.878 28.1631 35.9003ZM167.281 36.0814C167.513 36.0994 167.872 36.0994 168.077 36.0808C168.283 36.0622 168.092 36.0474 167.654 36.0474C167.216 36.0479 167.048 36.0633 167.281 36.0814ZM173.385 36.0798C173.52 36.0999 173.719 36.0994 173.828 36.0787C173.937 36.0575 173.827 36.041 173.583 36.0415C173.34 36.0421 173.251 36.0596 173.385 36.0798ZM185.334 36.0819C185.616 36.0994 186.054 36.0994 186.308 36.0814C186.562 36.0633 186.331 36.049 185.796 36.0495C185.26 36.0495 185.052 36.0644 185.334 36.0819ZM145.552 36.4329C145.662 36.4536 145.841 36.4536 145.951 36.4329C146.06 36.4116 145.97 36.3941 145.751 36.3941C145.532 36.3941 145.443 36.4116 145.552 36.4329ZM50.4417 44.5822L50.4858 47.3879L50.5091 44.6502C50.5224 43.1444 50.5022 41.8822 50.465 41.8451C50.4279 41.8074 50.4173 43.0398 50.4417 44.5822ZM59.0652 44.6003C59.0652 46.1821 59.0774 46.8293 59.0918 46.0382C59.1066 45.2476 59.1066 43.953 59.0918 43.1624C59.0774 42.3713 59.0652 43.0185 59.0652 44.6003ZM80.2155 44.6003C80.2155 46.1821 80.2277 46.8293 80.2426 46.0382C80.2569 45.2476 80.2569 43.953 80.2426 43.1624C80.2277 42.3713 80.2155 43.0185 80.2155 44.6003ZM100.128 41.8801C100.104 41.9412 100.096 43.206 100.108 44.6895L100.132 47.3879L100.176 44.578C100.201 43.0329 100.209 41.7686 100.195 41.7686C100.182 41.7686 100.151 41.8185 100.128 41.8801ZM37.8263 44.6003C37.8263 46.1337 37.8385 46.7608 37.8528 45.9941C37.8677 45.2274 37.8677 43.9732 37.8528 43.2065C37.8385 42.4398 37.8263 43.0668 37.8263 44.6003ZM46.6569 42.1222C46.6569 42.2927 46.675 42.3622 46.6973 42.2773C46.7196 42.1923 46.7196 42.0527 46.6973 41.9677C46.675 41.8822 46.6569 41.9518 46.6569 42.1222ZM62.4974 42.1222C62.4974 42.2927 62.516 42.3622 62.5383 42.2773C62.5601 42.1923 62.5601 42.0527 62.5383 41.9677C62.516 41.8822 62.4974 41.9518 62.4974 42.1222ZM73.7557 44.6003C73.7557 46.1337 73.7673 46.7608 73.7822 45.9941C73.7971 45.2274 73.7971 43.9732 73.7822 43.2065C73.7673 42.4398 73.7557 43.0668 73.7557 44.6003ZM76.4955 43.3169C76.4955 44.1447 76.5088 44.4952 76.5252 44.0959C76.5417 43.6966 76.5417 43.0196 76.5252 42.5916C76.5093 42.1631 76.4955 42.4897 76.4955 43.3169ZM98.3599 44.3125L98.362 46.7683L98.7162 46.7762L99.0698 46.7837L98.7396 46.7486L98.4093 46.7141L98.3833 44.2854L98.3578 41.8568L98.3599 44.3125ZM40.9282 42.0017C40.9771 42.0447 41.156 42.1987 41.3265 42.3442L41.6355 42.6091L41.4146 42.3575C41.2935 42.2194 41.1141 42.0649 41.0169 42.015C40.9197 41.9645 40.8799 41.9587 40.9282 42.0017ZM94.6219 44.3571L94.6012 46.8129L96.1277 46.7927L97.6543 46.773L96.1734 46.7465L94.6925 46.7199L94.6675 44.3104L94.642 41.9014L94.6219 44.3571ZM38.5293 43.5824C38.5293 44.2153 38.5436 44.4628 38.5606 44.132C38.5776 43.8017 38.5776 43.284 38.5601 42.9814C38.5431 42.6792 38.5288 42.95 38.5293 43.5824ZM44.1974 44.9545C44.1974 46.3414 44.2097 46.909 44.2245 46.2155C44.2394 45.5215 44.2394 44.3868 44.2245 43.6934C44.2097 42.9994 44.1974 43.567 44.1974 44.9545ZM44.9052 44.9545C44.9052 46.3414 44.9174 46.909 44.9328 46.2155C44.9477 45.5215 44.9477 44.3868 44.9328 43.6934C44.9174 42.9994 44.9052 43.567 44.9052 44.9545ZM59.7661 43.3169C59.7661 43.8038 59.781 43.9918 59.799 43.7343C59.8171 43.4773 59.8166 43.0791 59.7985 42.8497C59.7804 42.6198 59.7656 42.8306 59.7661 43.3169ZM69.596 43.3169L69.6008 44.1134L70.4859 44.1182L71.3711 44.1229L70.5114 44.0932L69.6518 44.0629L69.6215 43.292L69.5912 42.5205L69.596 43.3169ZM77.2022 43.6711C77.2022 44.3523 77.2166 44.6194 77.233 44.2647C77.25 43.9095 77.25 43.352 77.233 43.0254C77.216 42.6994 77.2022 42.9899 77.2022 43.6711ZM32.2951 42.9851L31.9904 43.3169L32.3222 43.0122C32.5049 42.8444 32.6541 42.6952 32.6541 42.6803C32.6541 42.6129 32.5792 42.6766 32.2951 42.9851ZM41.7916 43.5824C41.7927 43.7773 41.8107 43.8463 41.832 43.7364C41.8527 43.6265 41.8521 43.4672 41.8298 43.3822C41.8075 43.2978 41.7905 43.3881 41.7916 43.5824ZM62.225 44.4431L62.2118 44.7723L60.9948 44.7968L59.7778 44.8217V45.795V46.7683L61.1222 46.7927L62.4661 46.8171L62.5054 47.1028C62.5436 47.3837 62.5442 47.3837 62.533 47.0783L62.5213 46.7683L61.1716 46.7438L59.8224 46.7194V45.7929V44.8658H61.0197C62.3201 44.8658 62.3493 44.8541 62.2755 44.3645C62.2436 44.1516 62.2362 44.1638 62.225 44.4431ZM18.9613 44.6003C18.9613 44.8191 18.9789 44.9088 18.9996 44.7994C19.0208 44.69 19.0208 44.5106 18.9996 44.4012C18.9789 44.2918 18.9613 44.381 18.9613 44.6003ZM30.9093 44.6444C30.9104 44.8881 30.9274 44.9768 30.9475 44.8424C30.9682 44.7081 30.9677 44.509 30.9465 44.4001C30.9252 44.2913 30.9088 44.4012 30.9093 44.6444ZM41.2771 44.8881L41.0169 45.1753L41.3047 44.9157C41.4629 44.7729 41.592 44.6433 41.592 44.6279C41.592 44.5594 41.5192 44.6199 41.2771 44.8881ZM69.5965 45.795L69.6008 46.7683L70.4196 46.7736L71.2389 46.7789L70.4445 46.7481L69.6507 46.7178L69.6215 45.7695L69.5923 44.8217L69.5965 45.795ZM77.0992 45.5736C77.0992 45.744 77.1178 45.8136 77.1401 45.7286C77.1619 45.6437 77.1619 45.504 77.1401 45.4191C77.1178 45.3336 77.0992 45.4037 77.0992 45.5736ZM38.5288 46.4146C38.5288 46.9987 38.5431 47.226 38.5606 46.9196C38.5776 46.6137 38.5776 46.1359 38.5601 45.8576C38.5426 45.5799 38.5282 45.8306 38.5288 46.4146ZM72.7665 45.7509C72.7665 45.9697 72.784 46.0594 72.8052 45.95C72.8259 45.8401 72.8259 45.6612 72.8052 45.5518C72.784 45.4419 72.7665 45.5316 72.7665 45.7509ZM31.5035 46.4863C31.5035 46.5017 31.633 46.6313 31.7912 46.7741L32.079 47.0337L31.8189 46.7465C31.5767 46.4783 31.5035 46.4178 31.5035 46.4863ZM35.79 46.7465L35.5304 47.0337L35.8176 46.7741C36.0858 46.532 36.1463 46.4587 36.0778 46.4587C36.0624 46.4587 35.9328 46.5883 35.79 46.7465ZM21.6141 46.876C21.7479 46.8962 21.9672 46.8962 22.101 46.876C22.2348 46.8559 22.1254 46.8394 21.8578 46.8394C21.5897 46.8394 21.4803 46.8559 21.6141 46.876ZM33.6056 46.875C33.715 46.8962 33.8939 46.8962 34.0038 46.875C34.1132 46.8543 34.0235 46.8368 33.8047 46.8368C33.5854 46.8368 33.4957 46.8543 33.6056 46.875ZM21.7027 47.5817C21.7877 47.604 21.9274 47.604 22.0123 47.5817C22.0978 47.5594 22.0277 47.5414 21.8578 47.5414C21.6874 47.5414 21.6178 47.5594 21.7027 47.5817ZM33.6497 47.5817C33.7346 47.604 33.8743 47.604 33.9592 47.5817C34.0447 47.5594 33.9746 47.5414 33.8047 47.5414C33.6343 47.5414 33.5647 47.5594 33.6497 47.5817ZM98.6052 48.6437C98.6907 48.666 98.8298 48.666 98.9153 48.6437C99.0003 48.6214 98.9307 48.6033 98.7603 48.6033C98.5898 48.6033 98.5203 48.6214 98.6052 48.6437Z" fill="#2E2D2D"/>
<path fill-rule="evenodd" clip-rule="evenodd" d="M92.0813 21.7265C92.0813 26.2531 92.0924 28.0918 92.1052 25.8124C92.1185 23.5334 92.1185 19.8299 92.1052 17.5823C92.0924 15.3352 92.0813 17.2 92.0813 21.7265ZM95.4424 17.0805C95.4424 19.0026 95.454 19.7895 95.4678 18.828C95.4822 17.8669 95.4822 16.2936 95.4678 15.3326C95.454 14.3715 95.4424 15.1579 95.4424 17.0805ZM34.5376 14.4257C34.5376 14.5961 34.5556 14.6657 34.5779 14.5802C34.6002 14.4952 34.6002 14.3556 34.5779 14.2706C34.5556 14.1857 34.5376 14.2552 34.5376 14.4257ZM50.6117 19.3589C50.5018 19.4991 50.505 19.5023 50.6447 19.3929C50.7912 19.2782 50.8002 19.6637 50.822 27.0034L50.8454 34.7354L50.8671 26.9699C50.8794 22.5575 50.8549 19.2044 50.8109 19.2044C50.7684 19.2044 50.6786 19.274 50.6117 19.3589ZM75.3551 28.3637C75.3551 31.8193 75.3662 33.246 75.3795 31.5336C75.3933 29.8218 75.3933 26.9943 75.3795 25.2506C75.3662 23.5069 75.3551 24.9076 75.3551 28.3637ZM110.842 22.8549L110.313 23.4076L110.867 22.8798C111.171 22.5888 111.419 22.3403 111.419 22.3265C111.419 22.2612 111.332 22.3409 110.842 22.8549ZM129.025 22.6334L128.721 22.9653L129.052 22.6605C129.361 22.3765 129.425 22.3016 129.357 22.3016C129.342 22.3016 129.193 22.4508 129.025 22.6334ZM138.853 22.3292C138.853 22.3446 138.983 22.4742 139.141 22.617L139.428 22.8766L139.169 22.5894C138.926 22.3212 138.853 22.2607 138.853 22.3292ZM70.4686 23.5849C70.4696 23.7793 70.4877 23.8488 70.5089 23.7384C70.5296 23.6285 70.5291 23.4692 70.5068 23.3848C70.4845 23.2998 70.4675 23.3901 70.4686 23.5849ZM95.4413 26.7708C95.4413 28.377 95.4535 29.0465 95.4678 28.2586C95.4827 27.4706 95.4827 26.1565 95.4678 25.3382C95.4535 24.52 95.4413 25.1646 95.4413 26.7708ZM113.229 25.2442L112.88 25.6202L113.256 25.2703C113.463 25.078 113.632 24.9087 113.632 24.8943C113.632 24.8274 113.555 24.8943 113.229 25.2442ZM141.183 27.4345C141.183 27.7504 141.198 27.88 141.218 27.7218C141.238 27.5635 141.238 27.3049 141.218 27.1467C141.198 26.9885 141.183 27.118 141.183 27.4345ZM127.035 30.9299C127.035 33.0713 127.047 33.9347 127.061 32.8488C127.075 31.7625 127.075 30.0103 127.061 28.9547C127.047 27.8996 127.035 28.7885 127.035 30.9299ZM130.398 30.974C130.398 33.0915 130.41 33.9575 130.424 32.8988C130.438 31.8405 130.438 30.108 130.424 29.0492C130.41 27.991 130.398 28.857 130.398 30.974ZM104.407 27.5853C104.517 27.6065 104.677 27.606 104.761 27.5837C104.846 27.5614 104.756 27.5444 104.561 27.5449C104.366 27.546 104.297 27.5641 104.407 27.5853ZM124.362 27.9209C124.363 28.1157 124.381 28.1848 124.403 28.0749C124.423 27.9649 124.423 27.8057 124.401 27.7207C124.378 27.6363 124.361 27.7265 124.362 27.9209ZM121.001 28.4078C121.001 28.6271 121.018 28.7163 121.04 28.6069C121.061 28.4975 121.061 28.318 121.04 28.2087C121.018 28.0993 121.001 28.1885 121.001 28.4078ZM138.057 28.5241C138.057 28.5395 138.186 28.6685 138.344 28.8113L138.632 29.0715L138.372 28.7837C138.13 28.5156 138.057 28.4556 138.057 28.5241ZM124.362 28.9828C124.363 29.1777 124.381 29.2467 124.403 29.1368C124.423 29.0269 124.423 28.8676 124.401 28.7826C124.378 28.6982 124.361 28.7885 124.362 28.9828ZM106.227 29.4257C106.227 29.766 106.244 29.8945 106.263 29.7113C106.282 29.5276 106.282 29.2488 106.262 29.0917C106.242 28.9345 106.227 29.0848 106.227 29.4257ZM72.6806 29.2483C72.6817 29.4432 72.6997 29.5122 72.7209 29.4023C72.7422 29.2924 72.7416 29.1331 72.7193 29.0481C72.697 28.9637 72.6801 29.054 72.6806 29.2483ZM113.234 31.5936C113.473 31.8368 113.689 32.0359 113.714 32.0359C113.738 32.0359 113.562 31.8368 113.322 31.5936C113.082 31.3504 112.866 31.1513 112.842 31.1513C112.818 31.1513 112.994 31.3504 113.234 31.5936ZM119.645 31.66L119.34 31.9918L119.672 31.6871C119.854 31.5193 120.004 31.3695 120.004 31.3552C120.004 31.2872 119.929 31.351 119.645 31.66ZM96.2866 31.6212C96.2866 31.6366 96.4162 31.7662 96.5744 31.909L96.8622 32.1687L96.602 31.8814C96.3599 31.6133 96.2866 31.5527 96.2866 31.6212ZM64.5832 32.9853C64.7415 33.0049 65.0001 33.0049 65.1583 32.9853C65.3165 32.9657 65.1875 32.9492 64.871 32.9492C64.5546 32.9492 64.425 32.9657 64.5832 32.9853ZM116.31 32.9848C116.444 33.0049 116.644 33.0044 116.752 32.9832C116.861 32.9625 116.751 32.9455 116.508 32.9465C116.264 32.9471 116.176 32.9641 116.31 32.9848ZM59.2071 34.0271C59.4716 34.2947 59.7078 34.514 59.7323 34.514C59.7562 34.514 59.5602 34.2947 59.2958 34.0271C59.0314 33.7595 58.7951 33.5407 58.7707 33.5407C58.7463 33.5407 58.9427 33.7595 59.2071 34.0271ZM122.036 34.0494L121.552 34.558L122.061 34.0743C122.534 33.6251 122.611 33.5407 122.545 33.5407C122.531 33.5407 122.302 33.7695 122.036 34.0494ZM94.1186 34.2485C94.3581 34.4917 94.5742 34.6908 94.5986 34.6908C94.6231 34.6908 94.4468 34.4917 94.2073 34.2485C93.9673 34.0053 93.7512 33.8062 93.7273 33.8062C93.7029 33.8062 93.8792 34.0053 94.1186 34.2485ZM104.114 34.2708L103.765 34.6467L104.141 34.2968C104.348 34.1046 104.517 33.9352 104.517 33.9209C104.517 33.854 104.44 33.9209 104.114 34.2708ZM110.977 34.0993C110.977 34.1147 111.107 34.2437 111.265 34.3865L111.552 34.6467L111.292 34.3589C111.05 34.0908 110.977 34.0308 110.977 34.0993ZM127.26 35.4267C127.26 35.4421 127.389 35.5711 127.548 35.714L127.835 35.9741L127.575 35.6864C127.333 35.4182 127.26 35.3582 127.26 35.4267ZM129.865 35.6864L129.605 35.9741L129.893 35.714C130.161 35.4719 130.221 35.3991 130.153 35.3991C130.138 35.3991 130.008 35.5281 129.865 35.6864ZM64.4972 36.349C64.7054 36.3676 65.024 36.3671 65.205 36.348C65.3861 36.3294 65.2162 36.314 64.8264 36.314C64.4372 36.3145 64.2891 36.3299 64.4972 36.349ZM98.9213 36.348C99.0801 36.3676 99.319 36.3671 99.4523 36.3469C99.585 36.3267 99.4549 36.3108 99.1629 36.3113C98.8709 36.3119 98.762 36.3283 98.9213 36.348ZM116.176 36.348C116.335 36.3676 116.593 36.3676 116.751 36.348C116.91 36.3283 116.78 36.3124 116.464 36.3124C116.147 36.3124 116.018 36.3283 116.176 36.348ZM25.3533 41.8823C25.33 41.9434 25.3215 43.2081 25.3342 44.6917L25.3576 47.3901L25.6671 47.398C25.9762 47.406 25.9762 47.406 25.6894 47.3704L25.4017 47.3354V44.5987V41.8621L27.5919 41.8372L29.7822 41.8117L27.5893 41.791C25.8917 41.775 25.3868 41.7957 25.3533 41.8823ZM38.4291 41.8361C38.7551 41.8531 39.3126 41.8531 39.6678 41.8366C40.0231 41.8196 39.756 41.8058 39.0742 41.8053C38.393 41.8053 38.1025 41.8191 38.4291 41.8361ZM43.5264 41.8366C44.1254 41.852 45.0811 41.852 45.6503 41.8366C46.2195 41.8212 45.7294 41.8085 44.5613 41.809C43.3932 41.809 42.9275 41.8212 43.5264 41.8366ZM49.7781 41.8823C49.7548 41.9434 49.7463 43.2081 49.759 44.6917L49.7824 47.3901L50.0919 47.398C50.4009 47.406 50.4009 47.406 50.1142 47.3704L49.8264 47.3354V44.6025V41.8701L50.1142 41.8345L50.402 41.7989L50.1116 41.7846C49.948 41.7766 49.8025 41.8191 49.7781 41.8823ZM54.5351 41.8361C54.8617 41.8531 55.4192 41.8531 55.7739 41.8366C56.1291 41.8196 55.862 41.8058 55.1808 41.8053C54.499 41.8053 54.2086 41.8191 54.5351 41.8361ZM59.9372 41.8366C60.4119 41.8526 61.1882 41.8526 61.6629 41.8366C62.1376 41.8207 61.7489 41.8074 60.8001 41.8074C59.8507 41.8074 59.4625 41.8207 59.9372 41.8366ZM65.4694 41.8334C65.5793 41.8542 65.7386 41.8536 65.8231 41.8313C65.908 41.809 65.8178 41.792 65.6229 41.7931C65.4286 41.7941 65.359 41.8122 65.4694 41.8334ZM69.7602 41.8366C70.2349 41.8526 71.0112 41.8526 71.4859 41.8366C71.9606 41.8207 71.5719 41.8074 70.6231 41.8074C69.6737 41.8074 69.2855 41.8207 69.7602 41.8366ZM73.965 41.8334C74.0749 41.8542 74.2342 41.8536 74.3186 41.8313C74.4036 41.809 74.3133 41.792 74.1185 41.7931C73.9241 41.7941 73.8546 41.8122 73.965 41.8334ZM77.4641 41.8366C77.9898 41.8526 78.8261 41.8526 79.3225 41.8366C79.819 41.8207 79.3884 41.808 78.3662 41.808C77.3441 41.808 76.9385 41.8212 77.4641 41.8366ZM81.7438 41.8297C81.7114 41.8621 81.6848 43.1386 81.6848 44.6667V47.4448L82.0167 47.4177L82.3486 47.3901L82.3507 44.6465L82.3528 41.9035L82.3273 44.6248L82.3018 47.346H82.0379H81.7735V44.6083V41.8701L82.0613 41.8345L82.3486 41.7989L82.0756 41.7846C81.9259 41.7772 81.7767 41.7973 81.7438 41.8297ZM83.4009 41.8972C83.2257 42.3527 83.3595 42.434 84.2956 42.4398L85.1808 42.4451L84.3179 42.4143L83.4551 42.3835V42.1228V41.8621L85.5126 41.8372L87.5702 41.8117L85.5094 41.791C83.7933 41.774 83.4413 41.7915 83.4009 41.8972ZM90.148 41.8409C90.1241 41.8791 90.251 41.8961 90.43 41.8786C90.9201 41.8303 90.9785 41.7857 90.5622 41.7777C90.3578 41.774 90.1714 41.8021 90.148 41.8409ZM93.9604 41.8255C93.9259 41.86 93.8972 43.1365 93.8972 44.6614V47.4342L96.1762 47.414L98.4551 47.3933L96.2202 47.3678L93.9859 47.3428V44.6009V41.8589H94.2498H94.5142L94.5397 44.3147L94.5657 46.7704L94.5631 44.2929L94.5609 41.8149L94.2923 41.7883C94.1447 41.774 93.9955 41.7904 93.9604 41.8255ZM97.6544 41.8823C97.6305 41.9439 97.6225 43.0887 97.6363 44.4267L97.6613 46.8591L97.682 44.3646L97.7027 41.8695L98.0346 41.835L98.3664 41.8005L98.0319 41.7857C97.8317 41.7766 97.6799 41.8154 97.6544 41.8823ZM100.239 41.8356C100.214 41.877 100.329 41.8945 100.497 41.8754L100.8 41.8398V44.5876V47.3354L100.49 47.372L100.179 47.4087L100.512 47.3991L100.844 47.3901V44.6025V41.8149L100.565 41.7878C100.411 41.7729 100.265 41.7942 100.239 41.8356ZM104.694 41.8356L105.844 41.8642V44.6051V47.346H105.582H105.319L105.294 46.3504L105.269 45.3549L104.605 45.348L103.942 45.3411L104.58 45.374L105.219 45.4064L105.244 46.3982L105.269 47.3901H105.579H105.889V44.6025V41.8149L104.716 41.8106L103.543 41.8069L104.694 41.8356ZM40.365 41.8908C40.3852 41.9083 40.5211 41.9492 40.6671 41.9821C40.8609 42.0257 40.8971 42.0172 40.7999 41.9519C40.6804 41.8706 40.2763 41.8143 40.365 41.8908ZM68.8953 44.6465L68.8974 47.3901L70.1808 47.3938L71.4636 47.397L70.2041 47.3694L68.9441 47.3412L68.9186 44.6221L68.8937 41.9035L68.8953 44.6465ZM74.4493 44.6195L74.4286 47.3354L74.0967 47.3699L73.7648 47.4044L74.0993 47.4193C74.5438 47.4395 74.5231 47.5871 74.4949 44.5573L74.47 41.9035L74.4493 44.6195ZM100.22 44.6465C100.22 46.1067 100.232 46.7168 100.247 46.0016C100.261 45.2869 100.261 44.0922 100.247 43.3467C100.232 42.6018 100.22 43.1864 100.22 44.6465ZM64.9693 42.4887C64.9146 42.6448 64.8854 42.7881 64.9045 42.8072C64.9236 42.8264 64.9836 42.7138 65.0378 42.5572C65.0924 42.4011 65.1217 42.2572 65.1025 42.2386C65.084 42.2195 65.024 42.332 64.9693 42.4887ZM87.5255 42.2837C87.5255 42.3496 87.2303 42.3926 86.6627 42.409L85.7999 42.4345L85.7765 44.8849L85.7532 47.3354L85.4224 47.3699L85.0921 47.4044L85.468 47.4193L85.8445 47.4342V44.9566V42.4786H86.6797C87.4395 42.4786 87.7401 42.3979 87.5786 42.2365C87.5494 42.2072 87.5255 42.2285 87.5255 42.2837ZM102.376 42.3681C102.22 42.5497 102.103 42.7441 102.15 42.7441C102.168 42.7441 102.271 42.6246 102.379 42.4786C102.592 42.1903 102.59 42.1186 102.376 42.3681ZM21.7071 42.3628C21.7921 42.3846 21.9317 42.3846 22.0167 42.3628C22.1022 42.3405 22.0321 42.3219 21.8622 42.3219C21.6917 42.3219 21.6222 42.3405 21.7071 42.3628ZM33.654 42.3628C33.739 42.3846 33.8786 42.3846 33.9636 42.3628C34.0491 42.3405 33.979 42.3219 33.8091 42.3219C33.6386 42.3219 33.5691 42.3405 33.654 42.3628ZM26.5082 42.4504C27.8043 42.5141 29.0988 42.5173 29.0611 42.4563C29.0383 42.4202 28.3353 42.3979 27.4985 42.4069C26.6617 42.4165 26.2162 42.4361 26.5082 42.4504ZM38.9197 42.4552C39.1751 42.4733 39.593 42.4733 39.8489 42.4552C40.1043 42.4377 39.8951 42.4228 39.3843 42.4228C38.873 42.4228 38.6638 42.4377 38.9197 42.4552ZM42.902 42.4552C43.1574 42.4733 43.5753 42.4733 43.8312 42.4552C44.0866 42.4377 43.8774 42.4228 43.3666 42.4228C42.8553 42.4228 42.6461 42.4377 42.902 42.4552ZM45.2914 42.4552C45.5468 42.4733 45.9647 42.4733 46.2206 42.4552C46.476 42.4377 46.2668 42.4228 45.756 42.4228C45.2447 42.4228 45.0355 42.4377 45.2914 42.4552ZM54.644 42.5057C54.6195 42.5694 54.6105 43.0972 54.6243 43.6786L54.6498 44.7352L55.5126 44.7405L56.3755 44.7453L55.5349 44.715L54.6939 44.6848V43.5846V42.4849L55.5567 42.4563L56.4195 42.4271L55.554 42.4085C54.9089 42.3947 54.6769 42.4196 54.644 42.5057ZM60.4284 42.4557C60.8319 42.4722 61.4691 42.4722 61.844 42.4557C62.2188 42.4393 61.8886 42.426 61.1096 42.426C60.3312 42.426 60.0243 42.4398 60.4284 42.4557ZM70.2514 42.4557C70.6549 42.4722 71.2921 42.4722 71.667 42.4557C72.0418 42.4393 71.7116 42.426 70.9326 42.426C70.1542 42.426 69.8473 42.4398 70.2514 42.4557ZM78.3647 42.4552L79.4696 42.4839L79.4935 44.937L79.5169 47.3901L79.871 47.4007L80.2247 47.4113L79.8944 47.3731L79.5641 47.3354L79.5402 44.8849L79.5169 42.4345L78.3886 42.4303L77.2597 42.426L78.3647 42.4552ZM104.384 42.4547L105.225 42.4849V43.5846V44.6848L104.384 44.715L103.543 44.7453L104.406 44.7405L105.269 44.7352V43.5846V42.4345L104.406 42.4292L103.543 42.4244L104.384 42.4547ZM25.9714 44.912C25.9714 46.2262 25.9836 46.7763 25.999 46.1343C26.0139 45.4924 26.0139 44.4172 25.999 43.7449C25.9841 43.0727 25.9714 43.5979 25.9714 44.912ZM20.308 42.9432L20.0479 43.231L20.3356 42.9708C20.6038 42.7287 20.6638 42.6554 20.5953 42.6554C20.5799 42.6554 20.4509 42.7849 20.308 42.9432ZM29.0723 45.0007L29.0744 47.3901L29.4286 47.4007L29.7822 47.4113L29.4519 47.3731L29.1217 47.3354L29.0956 44.9731L29.0702 42.6113L29.0723 45.0007ZM57.902 43.5846C57.9031 43.7795 57.9211 43.8485 57.9424 43.7386C57.9636 43.6287 57.9625 43.4694 57.9408 43.3844C57.9185 43.3 57.9009 43.3903 57.902 43.5846ZM60.3355 44.2255C60.6886 44.2425 61.2657 44.2425 61.6188 44.2255C61.9714 44.209 61.6825 44.1952 60.9769 44.1952C60.2712 44.1952 59.9824 44.209 60.3355 44.2255ZM71.3383 44.192C71.3585 44.209 71.4949 44.2504 71.6409 44.2828C71.8348 44.3264 71.8703 44.3179 71.7737 44.2526C71.6542 44.1719 71.2496 44.115 71.3383 44.192ZM19.6719 44.6465C19.673 44.8414 19.691 44.9104 19.7123 44.8005C19.7335 44.6906 19.7325 44.5313 19.7107 44.4464C19.6884 44.3619 19.6709 44.4522 19.6719 44.6465ZM31.6172 44.6025C31.6172 44.7729 31.6353 44.8425 31.6576 44.7575C31.6799 44.672 31.6799 44.5329 31.6576 44.4474C31.6353 44.3625 31.6172 44.432 31.6172 44.6025ZM77.1073 44.9566C77.1073 45.1754 77.1248 45.2651 77.1455 45.1557C77.1668 45.0458 77.1668 44.8669 77.1455 44.7575C77.1248 44.6476 77.1073 44.7373 77.1073 44.9566ZM38.9638 44.7559C39.1948 44.7745 39.5733 44.7745 39.8043 44.7559C40.0358 44.7379 39.8463 44.723 39.3843 44.723C38.9218 44.723 38.7328 44.7379 38.9638 44.7559ZM76.4893 45.1775C76.4898 45.4212 76.5068 45.5099 76.5275 45.3756C76.5477 45.2412 76.5471 45.0421 76.5259 44.9333C76.5052 44.8244 76.4882 44.9343 76.4893 45.1775ZM38.9224 45.3756C39.1799 45.3936 39.5781 45.3936 39.8075 45.3756C40.0369 45.357 39.8266 45.3426 39.3397 45.3426C38.8533 45.3432 38.6654 45.358 38.9224 45.3756ZM54.6641 45.3692C54.6317 45.4021 54.6052 45.8577 54.6052 46.3818V47.3354L54.2951 47.372L53.9845 47.4087L54.3169 47.3991L54.6498 47.3901L54.6747 46.3977L54.6997 45.4053L55.5593 45.3766L56.4195 45.3474L55.5716 45.3288C55.1048 45.3188 54.6971 45.3368 54.6641 45.3692ZM65.0739 45.9071C65.4041 45.9241 65.9218 45.9241 66.224 45.9071C66.5261 45.8895 66.2558 45.8757 65.6229 45.8757C64.9905 45.8757 64.7431 45.8901 65.0739 45.9071ZM89.9409 45.9071C90.2712 45.9241 90.7889 45.9241 91.0916 45.9071C91.3937 45.8895 91.1229 45.8757 90.4905 45.8757C89.8576 45.8757 89.6102 45.8901 89.9409 45.9071ZM32.0388 46.0462C32.0388 46.0616 32.1684 46.1906 32.3266 46.3334L32.6144 46.5936L32.3542 46.3058C32.1121 46.0377 32.0388 45.9777 32.0388 46.0462ZM35.2634 46.3058L35.0038 46.5936L35.291 46.3334C35.5592 46.0913 35.6197 46.0186 35.5512 46.0186C35.5358 46.0186 35.4063 46.1476 35.2634 46.3058ZM75.524 47.1246C75.533 47.4267 75.5643 47.4803 75.7353 47.4904C75.8919 47.4995 75.8978 47.4936 75.7624 47.4628C75.6381 47.4347 75.5781 47.3306 75.551 47.097L75.5133 46.7704L75.524 47.1246ZM99.0615 47.6556C99.0615 48.0936 99.0763 48.2842 99.0949 48.0788C99.1135 47.8733 99.1135 47.5149 99.0955 47.2823C99.0769 47.0497 99.062 47.2175 99.0615 47.6556ZM102.61 47.2515C102.564 47.2966 102.366 47.3497 102.172 47.3694L101.818 47.4044L102.183 47.4193C102.415 47.4288 102.589 47.3858 102.658 47.3014C102.779 47.1559 102.744 47.1198 102.61 47.2515ZM63.1894 47.3657C63.1894 47.4034 63.3487 47.4342 63.5436 47.4342C63.7379 47.4342 63.8972 47.4188 63.8972 47.3996C63.8972 47.38 63.7379 47.3492 63.5436 47.3306C63.3487 47.312 63.1894 47.328 63.1894 47.3657ZM67.3183 47.3678C67.3406 47.4044 67.5163 47.4342 67.708 47.4342C67.8997 47.4342 68.0569 47.4044 68.0569 47.3678C68.0569 47.3317 67.8811 47.3014 67.6671 47.3014C67.4526 47.3014 67.2955 47.3317 67.3183 47.3678ZM92.2082 47.3736C92.2486 47.4134 92.436 47.4331 92.6245 47.4166L92.968 47.3864L92.5517 47.3439C92.3229 47.32 92.1684 47.3338 92.2082 47.3736ZM38.0356 47.4087C38.1455 47.4294 38.3048 47.4288 38.3898 47.4065C38.4742 47.3842 38.384 47.3672 38.1896 47.3683C37.9948 47.3694 37.9257 47.3874 38.0356 47.4087ZM44.4073 47.4087C44.5172 47.4294 44.6765 47.4288 44.7615 47.4065C44.8459 47.3842 44.7556 47.3672 44.5613 47.3683C44.3664 47.3694 44.2974 47.3874 44.4073 47.4087ZM59.9372 47.4118C60.4119 47.4278 61.1882 47.4278 61.6629 47.4118C62.1376 47.3959 61.7489 47.3826 60.8001 47.3826C59.8507 47.3826 59.4625 47.3959 59.9372 47.4118ZM88.3013 47.4087C88.4112 47.4294 88.5705 47.4288 88.6549 47.4065C88.7399 47.3842 88.6496 47.3672 88.4547 47.3683C88.2604 47.3694 88.1909 47.3874 88.3013 47.4087Z" fill="#2E2D2D"/>
</svg>
