<svg width="87" height="48" viewBox="0 0 87 48" fill="none" xmlns="http://www.w3.org/2000/svg">
<g clip-path="url(#clip0_3906_27224)">
<mask id="mask0_3906_27224" style="mask-type:luminance" maskUnits="userSpaceOnUse" x="0" y="0" width="87" height="48">
<path d="M86.8721 0H0.125V47.9006H86.8721V0Z" fill="white"/>
</mask>
<g mask="url(#mask0_3906_27224)">
<path d="M49.7846 30.7078H46.8125C46.5482 30.7078 46.4695 30.4751 46.3489 30.3194C45.2617 28.7699 44.1651 27.2273 43.1034 25.6663C43.0095 25.4882 42.8517 25.3525 42.6615 25.2872C42.4716 25.2219 42.2639 25.2319 42.0809 25.3151C40.9797 25.6525 40.5416 26.2457 40.5394 27.3879C40.5394 28.3558 40.5254 29.3235 40.5394 30.2915C40.5394 30.6171 40.4488 30.7381 40.115 30.7264C39.4984 30.7032 38.8795 30.7009 38.2604 30.7264C37.9149 30.7404 37.7969 30.6451 37.7969 30.2775C37.8078 25.6897 37.8078 21.1025 37.7969 16.5162C37.7969 16.1555 37.9058 16.0858 38.2604 16.0881C40.5951 16.1021 42.941 16.0439 45.2756 16.0764C46.3259 16.0937 47.3405 16.4614 48.1595 17.1216C48.9784 17.7817 49.555 18.6966 49.7986 19.7221C50.246 21.6066 49.2538 23.8656 47.5846 24.8102C47.231 25.0043 46.8479 25.1387 46.4508 25.208C46.0267 25.2894 46.1008 25.422 46.2839 25.6849C47.3365 27.1879 48.3835 28.6947 49.4253 30.2053L49.7846 30.7078ZM40.5394 25.4616H40.6714C40.7988 25.0778 40.9033 24.6845 41.0608 24.3146C41.462 23.384 42.1274 22.8373 43.2101 22.9025C43.8636 22.942 44.5221 22.9164 45.1805 22.9025C46.2933 22.8908 47.1625 21.9183 47.1625 20.6946C47.1625 19.4708 46.2654 18.3913 45.1921 18.382C43.8011 18.3704 42.4102 18.382 41.0192 18.3704C40.6367 18.3704 40.5254 18.4821 40.53 18.866C40.5485 20.6853 40.53 22.5069 40.53 24.3263L40.5394 25.4616Z" fill="#2E2D2D"/>
<path d="M1.47805 26.0281H1.59396C2.28944 25.9931 2.84116 25.9373 3.10312 26.9471C3.43 28.2126 4.63781 28.6498 5.85956 28.808C6.70897 28.9342 7.57594 28.7703 8.32155 28.3428C8.92198 27.9963 9.34623 27.4984 9.33232 26.7654C9.31841 26.0326 8.86867 25.5511 8.24505 25.2463C7.35715 24.8182 6.37652 24.7042 5.43067 24.4762C4.29472 24.2016 3.14255 23.9807 2.15961 23.299C1.60623 22.911 1.161 22.3874 0.866311 21.7779C0.571626 21.1684 0.437284 20.4934 0.476092 19.817C0.514904 19.1407 0.725583 18.4856 1.08803 17.9141C1.45049 17.3427 1.95267 16.8737 2.54678 16.5521C4.86502 15.2841 7.30153 15.3027 9.64992 16.5311C10.9829 17.2292 11.6969 18.4249 11.8569 19.9395C11.894 20.2862 11.8106 20.4281 11.4303 20.4048C10.8137 20.3722 10.1947 20.3931 9.57572 20.4048C9.3439 20.4048 9.15149 20.4048 9.11209 20.107C8.94517 18.6482 7.34789 17.8759 5.85263 17.9759C5.15245 17.995 4.47471 18.2279 3.90992 18.6436C2.92464 19.4091 2.9988 20.5932 4.08839 21.2028C4.92297 21.6681 5.87577 21.7518 6.78453 21.9682C8.18708 22.3009 9.58732 22.6243 10.7093 23.6271C11.1295 23.9989 11.4665 24.4555 11.6984 24.9671C11.9303 25.4787 12.0519 26.0339 12.0552 26.596C12.0585 27.158 11.9434 27.7145 11.7175 28.2289C11.4915 28.7431 11.1598 29.2037 10.7442 29.5806C8.27983 31.8 3.64331 31.6186 1.434 29.227C0.757988 28.4748 0.3114 27.5438 0.147343 26.5445C0.0731589 26.1465 0.172844 25.9651 0.610996 26.0118C0.89953 26.0321 1.18896 26.0377 1.47805 26.0281Z" fill="#2E2D2D"/>
<path d="M37.0659 30.7098C36.2246 30.7098 35.3994 30.7098 34.5716 30.7098C34.2817 30.7098 34.2471 30.5098 34.1776 30.3004C33.8298 29.2559 33.4565 28.2205 33.1321 27.169C33.0114 26.7827 32.8166 26.6688 32.4366 26.6734C30.6398 26.692 28.8455 26.6965 27.0489 26.6734C26.9696 26.6604 26.889 26.6634 26.8111 26.6823C26.7332 26.7009 26.6596 26.7348 26.5949 26.7825C26.5304 26.8299 26.4755 26.8894 26.4341 26.9583C26.3925 27.027 26.3652 27.1035 26.3534 27.183C26.045 28.1996 25.6927 29.2024 25.4006 30.2237C25.2893 30.6145 25.1108 30.7446 24.705 30.7215C24.1065 30.6912 23.5069 30.6912 22.9084 30.7215C22.5097 30.7378 22.4239 30.6588 22.5606 30.2422C23.6364 26.9154 24.6865 23.5815 25.7459 20.2383C26.1376 19.0053 26.5387 17.7745 26.9166 16.5391C26.9275 16.4646 26.9528 16.3929 26.9914 16.3282C27.0299 16.2636 27.0807 16.2073 27.1411 16.1625C27.2016 16.1176 27.2701 16.0853 27.343 16.0673C27.4158 16.0493 27.4916 16.046 27.5658 16.0575C28.9962 16.0808 30.4242 16.0762 31.8523 16.0575C32.1652 16.0575 32.346 16.1273 32.4504 16.4461C33.979 21.127 35.5121 25.8064 37.0498 30.4843C37.0637 30.5587 37.0692 30.6343 37.0659 30.7098ZM29.6174 17.0788C28.8849 19.3426 28.1639 21.5876 27.4267 23.8258C27.2993 24.212 27.3176 24.3818 27.7929 24.3725C29.0865 24.3493 30.3824 24.3562 31.676 24.3725C32.0562 24.3725 32.1884 24.3213 32.0425 23.8886C31.3099 21.7482 30.6121 19.5985 29.9004 17.4535C29.8538 17.3162 29.8725 17.1324 29.6174 17.0788Z" fill="#2E2D2D"/>
<path d="M9.00053 33.5518C9.00053 33.1819 9.09557 33.0305 9.48968 33.0491C10.0855 33.0795 10.6859 33.0725 11.284 33.0491C11.6272 33.0491 11.7639 33.1421 11.7616 33.5144C11.7616 36.5158 11.8056 39.2843 11.7314 42.2832C11.6573 45.2821 9.41318 47.5806 6.39943 47.8667C3.68708 48.1365 1.09292 46.2381 0.385848 43.4626C0.260669 42.9347 0.202254 42.3931 0.211979 41.8504C0.211979 39.0423 0.211979 36.4668 0.211979 33.6611C0.211979 33.1796 0.339492 33.0005 0.828645 33.0422C1.29129 33.0853 1.75695 33.0853 2.21961 33.0422C2.78756 32.9842 2.97767 33.147 2.9684 33.761C2.9313 36.5295 2.95215 39.0655 2.9684 41.834C2.95583 42.1825 2.97601 42.5316 3.02867 42.8764C3.34164 44.4887 4.61669 45.4984 6.15368 45.3774C7.80893 45.2495 8.93561 44.1118 8.99821 42.432C9.03298 40.9199 9.01674 35.0616 9.00053 33.5518Z" fill="#2E2D2D"/>
<path d="M72.0551 16.5666C72.0551 16.1967 72.1502 16.0454 72.5443 16.064C73.1402 16.0943 73.7406 16.0873 74.3387 16.064C74.6819 16.0524 74.8187 16.1571 74.8162 16.5293C74.8162 19.5306 74.8604 22.2991 74.7861 25.2979C74.712 28.297 72.468 30.5954 69.454 30.8933C66.7418 31.1631 64.1475 29.2646 63.4404 26.4892C63.3155 25.9613 63.2571 25.4195 63.2666 24.8769C63.2666 22.0688 63.2666 19.4934 63.2666 16.6875C63.2666 16.206 63.3941 16.0268 63.8832 16.0688C64.3463 16.1038 64.8115 16.1038 65.2742 16.0688C65.8446 16.0361 66.0325 16.1734 66.0231 16.7876C65.9859 19.5561 66.0069 25.5633 66.0716 25.9029C66.3848 27.5153 67.6599 28.5247 69.1968 28.4039C70.8521 28.2758 71.9788 27.1381 72.0413 25.4584C72.0876 23.9346 72.0714 18.0765 72.0551 16.5666Z" fill="#2E2D2D"/>
<path d="M78.7896 30.2635C78.7896 30.6149 78.7015 30.7453 78.3259 30.729C77.7291 30.694 77.1307 30.694 76.5339 30.729C76.0703 30.7591 76.0703 30.5078 76.0703 30.1636C76.0703 26.6225 76.0703 23.0809 76.0703 19.5383C76.0703 18.5333 76.0703 17.5259 76.0703 16.5139C76.0703 16.2557 76.0958 16.0626 76.439 16.0719C78.5971 16.1323 80.767 15.9021 82.9136 16.1975C84.7012 16.4441 86.0945 17.3816 86.6231 19.1824C87.1517 20.9832 86.8547 22.6838 85.4336 24.0355C84.5366 24.8824 83.4006 25.1476 82.2113 25.2383C81.5414 25.2895 80.8692 25.1499 80.2015 25.3476C79.7326 25.4747 79.3227 25.7618 79.0422 26.1596C78.8753 26.0806 78.8963 25.9433 78.9009 25.7851C78.9716 25.1302 79.1749 24.4967 79.499 23.9238C79.658 23.6014 79.9081 23.333 80.2182 23.1523C80.5283 22.9715 80.8844 22.8862 81.2423 22.9072C81.4926 22.9072 81.7455 22.9072 81.9959 22.9072C82.5684 22.8845 83.1104 22.6416 83.5098 22.2289C83.9089 21.8162 84.1347 21.2651 84.14 20.69C84.14 19.3732 83.2986 18.417 82.0538 18.3867C81.1102 18.3658 80.1643 18.3867 79.2185 18.3728C78.8591 18.3728 78.7549 18.4775 78.7549 18.838C78.7918 21.1413 78.7711 29.1235 78.7896 30.2635Z" fill="#2E2D2D"/>
<path d="M19.1455 18.61C18.9418 18.5087 18.7106 18.4769 18.4872 18.5193C16.5746 18.5193 14.662 18.5054 12.7518 18.5193C12.339 18.5193 12.149 18.4402 12.1837 17.9819C12.2209 17.4817 12.2 16.9745 12.1837 16.472C12.1837 16.1835 12.2742 16.0625 12.5872 16.0625C16.2546 16.0719 19.9229 16.0719 23.5919 16.0625C23.8864 16.0625 24.0115 16.1485 24.0022 16.4557C23.9861 17.0164 23.9838 17.5794 24.0022 18.1401C24.0022 18.4704 23.8539 18.5193 23.5803 18.5146C22.8663 18.5031 22.15 18.4983 21.436 18.5146C20.1053 18.5449 19.4446 19.2009 19.4376 20.534C19.4376 23.7283 19.4214 26.9249 19.4376 30.1193C19.4376 30.6171 19.2985 30.7521 18.8233 30.7172C18.2642 30.6869 17.7039 30.6869 17.1448 30.7172C16.8319 30.7172 16.709 30.6451 16.7113 30.3007C16.7237 27.104 16.7237 23.909 16.7113 20.7155C16.7113 20.0013 17.0776 19.522 17.6641 19.1684C18.1278 18.9032 18.6471 18.8171 19.1455 18.61Z" fill="#2E2D2D"/>
<path d="M57.5417 18.5134H53.2669C52.516 18.5134 51.7624 18.5017 51.009 18.5134C50.7146 18.5134 50.5687 18.432 50.6078 18.1202C50.6078 17.7713 50.6081 17.7713 50.6544 16.4242C50.6544 16.3567 50.6126 16.2149 50.7239 16.1147C50.8352 16.0147 51.9153 16.0798 52.5413 16.0752C55.6477 16.059 58.7568 16.0752 61.8632 16.059C62.2944 16.059 62.4497 16.1636 62.4196 16.6033C62.3895 17.0867 62.3895 17.5716 62.4196 18.0551C62.438 18.404 62.3338 18.532 61.9558 18.5204C61.2603 18.4925 60.5648 18.5017 59.8696 18.5204C58.5063 18.5482 57.8455 19.202 57.8387 20.5701C57.8387 23.7434 57.8225 26.9167 57.8387 30.0902C57.8387 30.6135 57.7019 30.7672 57.194 30.7228C56.6748 30.6834 56.1533 30.6834 55.6338 30.7228C55.2282 30.7486 55.1169 30.6181 55.1192 30.2087C55.1379 27.6495 55.1192 25.0904 55.1192 22.5452C55.1192 22.0031 55.1447 21.4587 55.1192 20.9166C55.0684 20.028 55.4834 19.4347 56.2552 19.0788C56.6632 18.8903 57.1037 18.7647 57.5304 18.6134L57.5417 18.5134Z" fill="#2E2D2D"/>
<path d="M69.7355 43.8233V43.1695C69.7355 39.9122 69.7355 36.6553 69.7355 33.4098C69.7355 32.9723 69.826 32.7746 70.308 32.8141C70.8088 32.8571 71.3121 32.8571 71.8126 32.8141C72.3343 32.77 72.5081 32.9282 72.5081 33.4796C72.4779 36.0945 72.4941 38.7094 72.4941 41.3222C72.4941 43.1623 72.4689 45.0027 72.5081 46.843C72.522 47.385 72.3414 47.4898 71.8569 47.4665C71.0848 47.4293 70.3105 47.4293 69.5384 47.4665C69.3616 47.4938 69.1808 47.4582 69.0273 47.3654C68.8741 47.2726 68.758 47.1289 68.6993 46.9593C67.0951 43.6602 63.8448 37.0785 63.8448 37.0785C63.7502 36.825 63.598 36.5972 63.3996 36.4133V37.0833C63.3996 40.3566 63.3996 43.6276 63.3996 46.9012C63.3996 47.3664 63.2721 47.4943 62.8247 47.4665C62.2476 47.4271 61.6657 47.4456 61.086 47.4665C60.7917 47.4665 60.6875 47.3804 60.6875 47.0711C60.6966 42.4801 60.6966 37.8905 60.6875 33.3027C60.6875 32.9048 60.8404 32.8117 61.2021 32.8187C62.0714 32.835 62.9406 32.835 63.8101 32.8026C63.9595 32.7825 64.1113 32.8159 64.2385 32.8974C64.366 32.9787 64.4604 33.1025 64.5056 33.247C66.1177 36.6094 67.7403 39.9658 69.3738 43.316C69.441 43.4765 69.4643 43.6837 69.7355 43.8233Z" fill="#2E2D2D"/>
<path d="M39.2604 47.4624C38.2194 47.4624 37.2968 47.4624 36.3742 47.4624C36.0497 47.4624 35.9523 47.2297 35.8133 47.032C34.726 45.4804 33.6317 43.9355 32.5677 42.365C32.4837 42.214 32.3507 42.0964 32.1906 42.0325C32.0305 41.9685 31.8532 41.962 31.6888 42.0137C30.6042 42.2463 30.0361 42.9444 30.0267 44.0589C30.0267 45.0289 30.0105 45.9968 30.0267 46.9645C30.0267 47.3345 29.941 47.4858 29.547 47.4647C28.9512 47.4346 28.3507 47.4369 27.7526 47.4647C27.4025 47.481 27.2891 47.3857 27.2891 47.018C27.312 45.7013 27.2891 44.3822 27.2891 43.0629C27.2891 39.8477 27.2891 36.6325 27.2891 33.4173C27.2891 32.9521 27.3723 32.7821 27.8824 32.7893C30.1613 32.8194 32.4399 32.7893 34.7189 32.8102C35.6908 32.8252 36.6349 33.1365 37.4263 33.703C38.2176 34.2693 38.8185 35.0638 39.1491 35.981C39.7472 37.7424 39.119 39.9061 37.6607 41.139C37.1726 41.552 36.5836 41.8275 35.9546 41.9369C35.5163 42.0186 35.5719 42.151 35.7761 42.4395C36.7983 43.8936 37.8092 45.357 38.8223 46.8181C38.9544 46.9972 39.0679 47.174 39.2604 47.4624ZM30.1682 42.3161C30.2665 41.805 30.4319 41.3089 30.6598 40.8411C31.07 40.0503 31.6797 39.6222 32.5978 39.6571C33.2723 39.6849 33.9493 39.6571 34.6238 39.6571C35.7829 39.6571 36.6547 38.6846 36.6501 37.4376C36.6453 36.1904 35.7411 35.139 34.617 35.132C33.2655 35.132 31.9162 35.1481 30.567 35.132C30.1335 35.132 30.0082 35.2436 30.0128 35.6808C30.0338 37.712 30.0128 39.743 30.0128 41.7742C29.9959 41.8705 30.0012 41.9694 30.028 42.0631C30.0551 42.1571 30.1028 42.2438 30.1682 42.3161Z" fill="#2E2D2D"/>
<path d="M54.7924 47.4649C53.9252 47.4649 53.0977 47.4649 52.2699 47.4649C51.9803 47.4649 51.9361 47.2767 51.8665 47.0672C51.5119 46.0039 51.1364 44.9478 50.798 43.8797C50.775 43.7389 50.6979 43.6123 50.583 43.5279C50.4679 43.4433 50.3245 43.4077 50.1837 43.4285C48.3476 43.4426 46.5138 43.4471 44.6799 43.4285C44.2837 43.4285 44.1422 43.5913 44.0426 43.9241C43.725 44.9571 43.3818 45.9831 43.0664 47.0183C42.969 47.337 42.8347 47.4836 42.4637 47.4836C40.1016 47.4836 40.1016 47.4836 40.1016 47.4836C40.1016 47.4836 41.3927 43.4029 42.0324 41.4022C42.8833 38.7336 43.748 36.0674 44.5825 33.3944C44.7055 33.0036 44.8494 32.8268 45.292 32.8359C46.7017 32.8685 48.1134 32.8591 49.5228 32.8359C49.6632 32.812 49.8071 32.8438 49.9245 32.9246C50.0418 33.0054 50.1229 33.1286 50.1511 33.2685C51.6627 37.8984 53.1773 42.5251 54.6948 47.1488C54.7275 47.2231 54.7507 47.3138 54.7924 47.4649ZM47.4596 33.8202H47.3066L45.2758 40.0877C45.2108 40.29 45.1529 40.4949 45.0787 40.6926C44.9769 40.9765 45.0277 41.1207 45.3686 41.1184C46.7363 41.1089 48.1048 41.1089 49.4743 41.1184C49.8127 41.1184 49.8474 41.0182 49.7409 40.7089C49.277 39.341 48.8273 37.9659 48.3754 36.5933C48.0694 35.6704 47.7642 34.746 47.4596 33.8202Z" fill="#2E2D2D"/>
<path d="M75.5625 40.1643C75.5625 37.8984 75.5625 35.6323 75.5625 33.3662C75.5625 32.9358 75.6693 32.8102 76.1096 32.8125C79.3167 32.8311 82.5228 32.8311 85.7281 32.8125C86.1639 32.8125 86.3146 32.9313 86.2823 33.3662C86.2473 33.8108 86.2473 34.2572 86.2823 34.7018C86.3123 35.0855 86.1548 35.1461 85.8187 35.1438C83.5213 35.1298 81.2213 35.1576 78.9241 35.1227C78.3653 35.1227 78.2426 35.2973 78.2633 35.8091C78.3005 36.7001 78.2935 37.5911 78.2633 38.4824C78.2494 38.9081 78.3607 39.0477 78.8081 39.0429C80.8551 39.0174 82.9022 39.0429 84.9492 39.022C85.3758 39.022 85.5404 39.115 85.4962 39.5616C85.4603 39.9672 85.4603 40.3752 85.4962 40.7808C85.5241 41.1857 85.3826 41.309 84.9747 41.3044C82.9461 41.2858 80.9201 41.3044 78.8916 41.2858C78.428 41.2858 78.2426 41.3929 78.2633 41.8953C78.305 42.784 78.3005 43.6772 78.2633 44.566C78.2448 45.0197 78.3746 45.1594 78.8381 45.1548C81.1171 45.1313 83.3961 45.1548 85.6748 45.1313C86.1639 45.1313 86.3285 45.2664 86.2823 45.748C86.2461 46.135 86.2461 46.5243 86.2823 46.9114C86.3169 47.3253 86.215 47.4742 85.756 47.4719C82.5304 47.4487 79.3058 47.4487 76.0817 47.4719C75.6181 47.4719 75.5625 47.3045 75.5648 46.9065C75.5719 44.657 75.5625 42.4117 75.5625 40.1643Z" fill="#2E2D2D"/>
<path d="M55.1233 40.1741C55.1233 37.9497 55.1465 35.7234 55.1094 33.4993C55.1094 32.9176 55.2763 32.7594 55.8211 32.8152C56.2838 32.8585 56.7495 32.8585 57.2121 32.8152C57.692 32.7757 57.8402 32.9362 57.8379 33.4272C57.8173 36.4261 57.8379 39.425 57.8379 42.4261C57.8379 43.9361 57.8218 45.4505 57.8379 46.9535C57.8379 47.3698 57.7151 47.4886 57.3164 47.4654C56.7761 47.4315 56.2341 47.4315 55.6936 47.4654C55.2555 47.4954 55.1071 47.3816 55.1142 46.9069C55.1394 44.6642 55.1233 42.419 55.1233 40.1741Z" fill="#2E2D2D"/>
<path d="M21.7509 41.7098C21.6698 41.6006 21.5933 41.489 21.5052 41.3865C20.8491 40.6397 20.0934 40.2534 19.0571 40.5513C18.6382 40.6765 18.2264 40.8247 17.8238 40.9957C17.687 41.0515 17.5201 41.3167 17.3415 41.0352C17.3531 40.998 17.3647 40.9608 17.374 40.9236C17.374 40.7513 17.4807 40.691 17.643 40.7026L25.6895 33.1089C25.7341 33.0781 25.7647 33.0312 25.7745 32.978C25.7846 32.9247 25.7733 32.8697 25.743 32.8251C24.7554 32.8251 23.7563 32.8437 22.757 32.8251C22.5863 32.8167 22.4159 32.8464 22.2581 32.912C22.1002 32.9775 21.9586 33.0773 21.8437 33.2042C20.0957 34.9516 18.3292 36.6941 16.5649 38.418C16.4537 38.5272 16.3771 38.7158 16.1593 38.6972C16.0364 38.5179 16.0967 38.3225 16.0944 38.1387C16.0944 36.5707 16.0735 35.0025 16.0944 33.4345C16.0944 32.9412 15.9413 32.7902 15.4661 32.8251C14.9459 32.86 14.4239 32.86 13.9036 32.8251C13.5049 32.8017 13.375 32.9249 13.375 33.3392C13.389 37.9084 13.389 42.477 13.375 47.0447C13.375 47.4332 13.5187 47.4867 13.8387 47.4727C14.4159 47.4518 14.9978 47.4424 15.5751 47.4727C15.99 47.4982 16.0944 47.3471 16.0874 46.9494C16.0642 45.5347 16.0874 44.1225 16.0735 42.7082C16.061 42.5756 16.0764 42.4424 16.1187 42.3165C16.1611 42.1906 16.2293 42.075 16.3192 41.9774C17.7334 41.4446 18.4544 41.9774 19.1197 42.8661C19.785 43.755 20.4504 44.7159 21.1157 45.6418C21.5423 46.2372 21.8553 47.0655 22.4371 47.3588C23.019 47.6518 25.4508 47.5566 25.8497 47.3703L21.7509 41.7098Z" fill="#2E2D2D"/>
<path d="M17.3672 40.9178C17.3672 40.7456 17.4739 40.6852 17.6362 40.6967C17.6158 40.7547 17.58 40.8063 17.5326 40.8452C17.4852 40.8842 17.4279 40.9092 17.3672 40.9178Z" fill="#2BBFB1"/>
<path d="M73.7897 11.459C73.3076 10.9215 73.2727 10.8169 73.0178 10.6447C72.554 10.1491 72.0186 10.1143 71.425 10.3074C71.3464 10.333 71.2674 10.3702 71.1933 10.4027L68.8633 11.4032C68.7831 10.5376 68.7012 9.67377 68.6177 8.8114C68.6177 8.72763 68.6038 8.64156 68.5876 8.55782C68.4716 7.94127 68.1865 7.48993 67.5304 7.31778C67.2569 7.17354 67.1478 7.19449 66.4478 7.02696C66.3034 6.97971 66.1488 6.97161 66.0004 7.00349C65.8517 7.03536 65.7141 7.10607 65.6016 7.20844C66.529 7.37594 66.7606 7.9064 66.8327 8.5927C66.9046 9.27903 66.9624 10.0212 67.0249 10.7355C67.0667 11.2007 66.9718 11.7451 67.1918 12.0918L67.2105 12.115L67.1595 12.1383C67.3307 12.3263 67.5413 12.474 67.7761 12.5711C68.1794 12.8154 68.5851 13.2015 69.0094 13.2295C69.4336 13.2573 69.8532 12.9108 70.2753 12.7269C70.929 12.4407 71.5803 12.1407 72.2411 11.8685C72.9017 11.5963 73.4464 11.5474 74.0401 12.2896C74.0757 12.1413 74.0711 11.9861 74.0272 11.8402C73.9831 11.6942 73.9012 11.5626 73.7897 11.459Z" fill="#2E2D2D"/>
<path d="M78.1959 4.47849C77.714 3.94107 77.679 3.83637 77.4241 3.66422C76.9602 3.16867 76.4248 3.13377 75.8312 3.32687C75.7526 3.35246 75.6737 3.38968 75.5996 3.42224L73.2696 4.42265C73.1894 3.55721 73.1075 2.69329 73.024 1.83092C73.024 1.74716 73.0101 1.66109 72.9939 1.57733C72.8778 0.960804 72.5928 0.509463 71.9368 0.337302C71.6631 0.193059 71.5541 0.213998 70.854 0.0464884C70.7096 -0.000753462 70.5551 -0.00885057 70.4067 0.023016C70.2579 0.0548824 70.1206 0.125581 70.0078 0.227956C70.9352 0.395466 71.1669 0.925905 71.239 1.61223C71.3108 2.29855 71.3687 3.04072 71.4312 3.75494C71.4729 4.22024 71.378 4.76465 71.5981 5.11129L71.6169 5.13455L71.5657 5.15784C71.7369 5.34586 71.9476 5.49363 72.1823 5.59056C72.5858 5.83484 72.9914 6.22106 73.4158 6.24896C73.8399 6.27689 74.2594 5.93024 74.6815 5.74644C75.3353 5.46028 75.9865 5.16017 76.6474 4.88794C77.308 4.61575 77.8528 4.56691 78.4463 5.30907C78.482 5.16078 78.4775 5.00566 78.4334 4.85969C78.3894 4.71372 78.3075 4.58212 78.1959 4.47849Z" fill="#2E2D2D"/>
<path d="M40.049 13.0914H0.21875C0.21875 13.0914 2.56251 10.2996 2.56251 9.45506C2.56221 8.97735 2.6557 8.50424 2.83767 8.06279C3.01961 7.62134 3.28648 7.2202 3.623 6.88229C3.95949 6.54439 4.35903 6.27632 4.79879 6.09344C5.23857 5.91054 5.70994 5.81641 6.18596 5.81641H40.049C40.5249 5.81641 40.9964 5.91054 41.4359 6.09344C41.8757 6.27632 42.2753 6.54439 42.6119 6.88229C42.9483 7.2202 43.2151 7.62134 43.3972 8.06279C43.579 8.50424 43.6726 8.97735 43.6723 9.45506C43.6723 10.4195 43.2905 11.3445 42.6109 12.0263C41.9313 12.7083 41.0098 13.0914 40.049 13.0914Z" fill="#2E2D2D"/>
<path d="M6.77344 7.51172H8.65122V7.93049H7.26026V9.05885H8.44953V9.47528H7.25563V10.934H6.77806L6.77344 7.51172Z" fill="white"/>
<path d="M10.2207 8.42647C10.4724 8.43332 10.7165 8.51458 10.9224 8.65999C11.1284 8.80542 11.2869 9.00859 11.3784 9.24404C11.4698 9.47949 11.4898 9.73676 11.4363 9.98364C11.3827 10.2305 11.2577 10.4561 11.0769 10.632C10.8962 10.8079 10.6678 10.9265 10.4203 10.9728C10.1727 11.0191 9.91705 10.991 9.68533 10.8921C9.4536 10.7932 9.25607 10.628 9.1175 10.417C8.97891 10.2061 8.90542 9.95872 8.90626 9.70606C8.90585 9.53452 8.93987 9.36471 9.00628 9.20666C9.0727 9.04864 9.17013 8.90565 9.29282 8.78624C9.41548 8.66681 9.56088 8.57344 9.72031 8.51162C9.87972 8.4498 10.0499 8.42084 10.2207 8.42647ZM10.2207 10.5878C10.3946 10.5943 10.5665 10.5485 10.7143 10.4563C10.8622 10.3643 10.9791 10.2299 11.0504 10.0706C11.1218 9.91126 11.144 9.73423 11.1144 9.56215C11.0848 9.39006 11.0047 9.23074 10.8843 9.10462C10.764 8.9785 10.6088 8.8913 10.4387 8.85421C10.2687 8.81714 10.0915 8.83181 9.92985 8.89643C9.76819 8.96102 9.6294 9.0726 9.53129 9.21683C9.43319 9.36107 9.38023 9.53141 9.37919 9.70606C9.37482 9.82027 9.39346 9.93421 9.43402 10.041C9.47458 10.1478 9.53624 10.2453 9.61525 10.3276C9.69426 10.41 9.78902 10.4755 9.89386 10.5201C9.99865 10.5649 10.1114 10.5879 10.2254 10.5878H10.2207Z" fill="white"/>
<path d="M12.0781 8.48355H12.5418V9.9469C12.5418 10.2866 12.6136 10.5564 13.0055 10.5564C13.5062 10.5564 13.8006 10.1168 13.8006 9.62585V8.47656H14.2642V10.9287H13.8006V10.589C13.8008 10.5287 13.8078 10.4686 13.8214 10.4099C13.7385 10.5815 13.6096 10.7264 13.449 10.8283C13.2884 10.9303 13.1027 10.9852 12.9127 10.9868C12.3633 10.9868 12.0781 10.696 12.0781 10.0563V8.48355Z" fill="white"/>
<path d="M14.9922 8.48493H15.4559V8.81528C15.4558 8.8769 15.4503 8.9384 15.4397 8.99907H15.4513C15.5337 8.82323 15.6651 8.67513 15.8297 8.57273C15.9943 8.47033 16.1849 8.41802 16.3785 8.4221C16.9511 8.4221 17.2131 8.73618 17.2131 9.35271V10.923H16.7495V9.45973C16.7495 9.11541 16.6822 8.84321 16.2858 8.84321C16.1723 8.84604 16.0606 8.87198 15.9574 8.91944C15.8541 8.96689 15.7616 9.03487 15.6853 9.11925C15.609 9.20364 15.5505 9.3027 15.5135 9.4104C15.4765 9.5181 15.4616 9.63225 15.4697 9.74588V10.923H15.0062L14.9922 8.48493Z" fill="white"/>
<path d="M18.8567 8.42371C19.0071 8.41885 19.156 8.45341 19.289 8.524C19.4219 8.59458 19.5343 8.69873 19.6148 8.8262C19.6117 8.77117 19.6117 8.71603 19.6148 8.66102V7.51172H20.0784V10.934H19.6334V10.6873C19.6329 10.632 19.6376 10.5768 19.6472 10.5222C19.568 10.6674 19.4503 10.7879 19.307 10.87C19.1638 10.9521 19.0008 10.9928 18.8359 10.9875C18.1798 10.9875 17.7578 10.4641 17.7578 9.70329C17.7578 8.94251 18.2076 8.42371 18.8567 8.42371ZM18.9193 10.585C19.281 10.585 19.6148 10.3245 19.6148 9.70329C19.6148 9.26125 19.3829 8.8355 18.9193 8.8355C18.5368 8.8355 18.2239 9.14959 18.2239 9.70795C18.2239 10.2663 18.5136 10.585 18.9193 10.585Z" fill="white"/>
<path d="M21.8696 8.42611C22.565 8.42611 22.9267 8.94492 22.9267 9.5754C22.9252 9.64179 22.9182 9.70793 22.9058 9.77316H21.1301C21.129 9.88275 21.1503 9.99144 21.1924 10.0926C21.2346 10.1937 21.2968 10.2851 21.3753 10.3612C21.4538 10.4375 21.547 10.4968 21.6491 10.5357C21.7513 10.5746 21.8601 10.5922 21.9692 10.5875C22.236 10.582 22.4919 10.4805 22.6902 10.3013L22.8873 10.6456C22.6235 10.8712 22.288 10.995 21.9414 10.9946C21.7707 11.0013 21.6004 10.9729 21.4411 10.911C21.2818 10.849 21.1369 10.755 21.0152 10.6346C20.8935 10.5142 20.7978 10.3701 20.7337 10.2112C20.6698 10.0522 20.6389 9.88172 20.6432 9.71033C20.6322 9.54337 20.656 9.37594 20.7131 9.21871C20.7701 9.06148 20.8591 8.91788 20.9745 8.79706C21.0898 8.67627 21.229 8.58089 21.3831 8.51702C21.5372 8.45314 21.7029 8.42219 21.8696 8.42611ZM22.4538 9.43347C22.4601 9.35115 22.4496 9.26837 22.4225 9.19035C22.3954 9.11236 22.3526 9.04081 22.2965 8.98028C22.2406 8.91974 22.1727 8.87149 22.0973 8.83856C22.0218 8.80565 21.9402 8.7888 21.8579 8.78903C21.6801 8.78707 21.508 8.85222 21.3758 8.97156C21.2435 9.09094 21.1608 9.25578 21.144 9.43347H22.4538Z" fill="white"/>
<path d="M24.4458 8.42371C24.5961 8.41884 24.7452 8.45341 24.8781 8.524C25.0111 8.59458 25.1233 8.69873 25.2039 8.8262C25.2007 8.77117 25.2007 8.71603 25.2039 8.66102V7.51172H25.6674V10.934H25.2224V10.6873C25.2219 10.6319 25.2274 10.5766 25.2387 10.5222C25.1599 10.6672 25.0425 10.7876 24.8997 10.8697C24.7568 10.9518 24.5941 10.9927 24.4296 10.9875C23.7712 10.9875 23.3516 10.4641 23.3516 9.70329C23.3516 8.94251 23.8036 8.42371 24.4458 8.42371ZM24.5084 10.585C24.87 10.585 25.2039 10.3245 25.2039 9.70329C25.2039 9.26125 24.9721 8.8355 24.5084 8.8355C24.1282 8.8355 23.8129 9.14959 23.8129 9.70795C23.8129 10.2663 24.1074 10.585 24.513 10.585H24.5084Z" fill="white"/>
<path d="M27.5078 10.6739C27.5078 9.45942 29.1839 9.27796 29.1839 8.47532C29.1836 8.39626 29.1669 8.31811 29.1351 8.24585C29.1029 8.17357 29.0564 8.10873 28.9982 8.0554C28.9401 8.00207 28.8716 7.9614 28.7972 7.93598C28.7225 7.91053 28.6434 7.9009 28.565 7.90765C28.4214 7.91445 28.282 7.95829 28.1601 8.03489C28.0382 8.1115 27.9383 8.21831 27.8695 8.34502L27.5169 8.11237C27.6211 7.91501 27.7769 7.74996 27.9679 7.63515C28.1586 7.52032 28.3771 7.46008 28.5997 7.46095C29.2211 7.46095 29.6708 7.85414 29.6708 8.44508C29.6708 9.56878 28.048 9.74326 28.0247 10.5249H29.7241V10.9415H27.5263C27.5134 10.8528 27.5073 10.7633 27.5078 10.6739Z" fill="white"/>
<path d="M30.3047 9.21895C30.3047 8.23485 30.6038 7.45312 31.5126 7.45312C32.4213 7.45312 32.7204 8.23485 32.7204 9.21895C32.7204 10.2031 32.426 10.9918 31.5126 10.9918C30.599 10.9918 30.3047 10.2078 30.3047 9.21895ZM32.2265 9.21895C32.2265 8.4768 32.0713 7.89517 31.5126 7.89517C30.9538 7.89517 30.7986 8.4768 30.7986 9.21895C30.7986 9.9611 30.9561 10.5497 31.5126 10.5497C32.069 10.5497 32.2265 9.97507 32.2265 9.21895Z" fill="white"/>
<path d="M33.2863 10.5176H34.0399V8.30737C34.0399 8.20036 34.0399 8.09798 34.0399 8.09798C33.994 8.17167 33.9386 8.23893 33.8753 8.29807L33.5554 8.60749L33.2656 8.30737L34.0815 7.51172H34.5058V10.5176H35.2547V10.934H33.2911L33.2863 10.5176Z" fill="white"/>
<path d="M35.6641 10.6739C35.6641 9.45941 37.338 9.27793 37.338 8.47528C37.338 8.39633 37.3217 8.31826 37.29 8.24597C37.2581 8.17372 37.2119 8.10884 37.154 8.05547C37.096 8.00208 37.0275 7.9614 36.9531 7.93594C36.8785 7.91049 36.7997 7.90083 36.7212 7.90761C36.5775 7.91398 36.438 7.95762 36.316 8.03429C36.1942 8.11093 36.0943 8.21799 36.0257 8.34501L35.6735 8.11233C35.7773 7.91533 35.9329 7.75051 36.1233 7.63572C36.3135 7.52092 36.5316 7.46048 36.7538 7.46094C37.3773 7.46094 37.8272 7.85411 37.8272 8.44504C37.8272 9.56873 36.2042 9.74321 36.1788 10.5249H37.8896V10.9414H35.6918C35.676 10.853 35.6666 10.7636 35.6641 10.6739Z" fill="white"/>
</g>
</g>
<defs>
<clipPath id="clip0_3906_27224">
<rect width="87" height="48" fill="white"/>
</clipPath>
</defs>
</svg>
