<svg width="94" height="54" viewBox="0 0 94 54" fill="none" xmlns="http://www.w3.org/2000/svg">
<g clip-path="url(#clip0_3901_26392)">
<path d="M0 0C30.798 0 61.5961 0 93.3274 0C93.3274 17.82 93.3274 35.64 93.3274 54C62.5294 54 31.7313 54 0 54C0 36.18 0 18.36 0 0Z" fill="#666770"/>
<path d="M47.9866 0C62.9491 0 77.9115 0 93.3274 0C93.3274 17.82 93.3274 35.64 93.3274 54C62.5294 54 31.7313 54 0 54C0 46.7767 0 39.5535 0 32.1114C1.27002 32.1114 2.54004 32.1114 3.84855 32.1114C3.8553 32.6978 3.8553 32.6978 3.86218 33.2962C3.86774 33.6759 3.8739 34.0556 3.88012 34.4354C3.88411 34.6988 3.88748 34.9622 3.89022 35.2256C3.89426 35.6048 3.90055 35.9838 3.90728 36.363C3.90805 36.4803 3.90881 36.5976 3.9096 36.7184C3.92738 37.5451 4.08018 38.0551 4.60774 38.711C5.10256 39.0933 5.68732 39.034 6.28631 39.0347C6.85658 38.9481 7.30123 38.734 7.81737 38.4855C8.02292 38.394 8.22887 38.3034 8.43515 38.2135C8.54301 38.1663 8.65088 38.1191 8.76201 38.0704C9.85637 37.593 10.9534 37.1227 12.0568 36.6665C12.2253 36.5961 12.2253 36.5961 12.3972 36.5243C12.5013 36.4816 12.6054 36.4389 12.7126 36.3949C12.8497 36.3384 12.8497 36.3384 12.9895 36.2807C13.2294 36.2004 13.2294 36.2004 13.5902 36.2004C13.5902 36.5179 13.5902 36.8355 13.5902 37.1626C15.5349 37.1626 17.4796 37.1626 19.4833 37.1626C19.4833 35.4957 19.4833 33.8288 19.4833 32.1114C19.8802 32.1114 20.2771 32.1114 20.686 32.1114C20.686 32.4289 20.686 32.7464 20.686 33.0735C21.44 32.756 22.1941 32.4385 22.971 32.1114C23.0107 30.3254 23.0504 28.5394 23.0913 26.6993C23.4485 26.6993 23.8057 26.6993 24.1737 26.6993C24.1737 28.3265 24.1737 29.9538 24.1737 31.6303C24.8286 31.3922 24.8286 31.3922 25.4967 31.1492C25.4967 33.1336 25.4967 35.118 25.4967 37.1626C27.8383 37.1626 30.1799 37.1626 32.5924 37.1626C32.5924 34.8607 32.5924 32.5588 32.5924 30.1871C31.0446 30.1871 29.4967 30.1871 27.902 30.1871C28.1844 29.9047 28.4194 29.8166 28.7894 29.6665C28.9257 29.6108 29.062 29.5551 29.2024 29.4977C29.2757 29.468 29.3491 29.4383 29.4246 29.4078C29.8185 29.2483 30.2116 29.0869 30.6047 28.9257C30.6875 28.8918 30.7703 28.8579 30.8556 28.8229C31.4689 28.5712 32.0798 28.3144 32.6897 28.0547C32.7772 28.0174 32.8647 27.9802 32.9548 27.9418C33.2979 27.7956 33.6409 27.6491 33.9837 27.5023C34.9153 27.1033 35.8489 26.7176 36.799 26.3642C37.1503 26.2232 37.4759 26.057 37.8114 25.8824C38.6102 25.5119 39.3866 25.5502 40.2519 25.5793C40.4839 25.5834 40.4839 25.5834 40.7206 25.5876C41.0982 25.5946 41.4755 25.6044 41.853 25.6169C41.886 25.5244 41.919 25.4318 41.9531 25.3365C42.1417 24.9056 42.4248 24.6598 42.8151 24.4143C44.6285 23.73 47.5446 23.7343 49.3467 24.3959C50.2427 24.802 50.8738 25.5097 51.2451 26.4207C51.3719 26.8846 51.3954 27.3196 51.3917 27.7968C51.3912 27.8863 51.3907 27.9759 51.3902 28.0682C51.3662 29.2534 51.1692 30.3343 50.3323 31.2192C49.2505 32.2461 47.8275 32.2556 46.4156 32.2617C46.2055 32.2654 46.2055 32.2654 45.9912 32.2692C44.6771 32.2751 43.3839 32.1236 42.3341 31.2695C41.6823 30.6001 41.5024 29.8979 41.3719 28.9844C38.4549 28.9249 38.4549 28.9249 35.4788 28.8641C35.6151 31.4534 36.0297 33.6966 38.0045 35.4788C40.023 36.9712 42.442 37.5302 44.9179 37.552C45.0257 37.553 45.1334 37.554 45.2444 37.555C45.472 37.5566 45.6996 37.5579 45.9272 37.5589C46.1551 37.5603 46.3829 37.5627 46.6107 37.5663C49.5869 37.6129 52.5966 37.1558 54.8884 35.0828C56.9313 32.9211 57.3064 30.0702 57.2735 27.2293C57.2076 24.9041 56.5294 22.7961 54.9621 21.0468C53.5866 19.9223 52.1297 19.347 50.392 19.0022C50.392 18.9625 50.392 18.9228 50.392 18.882C51.076 18.8598 51.657 18.9221 52.3163 19.0999C52.4007 19.1221 52.4851 19.1443 52.5721 19.1672C54.5537 19.6977 56.2402 20.6987 57.3041 22.506C57.9867 23.7875 58.4596 25.1937 58.4457 26.6632C58.5265 27.061 58.5265 27.061 58.7803 27.2097C59.0984 27.3596 59.4195 27.4819 59.7503 27.6013C60.0105 27.7023 60.2706 27.8034 60.5306 27.9048C60.6757 27.9603 60.8207 28.0157 60.9702 28.0729C61.8224 28.4023 62.6627 28.7619 63.5051 29.1156C63.9832 29.3161 64.4619 29.5152 64.9406 29.7145C65.1052 29.7831 65.2699 29.8517 65.4345 29.9203C65.5506 29.9686 65.6666 30.017 65.7862 30.0668C65.7862 30.1065 65.7862 30.1462 65.7862 30.1871C63.7224 30.1871 61.6586 30.1871 59.5323 30.1871C59.5323 32.489 59.5323 34.7909 59.5323 37.1626C61.9136 37.1626 64.2949 37.1626 66.7483 37.1626C66.7483 34.8607 66.7483 32.5588 66.7483 30.1871C67.1055 30.1871 67.4627 30.1871 67.8307 30.1871C67.8307 30.4649 67.8307 30.7427 67.8307 31.029C67.9771 31.0761 68.1234 31.1232 68.2742 31.1718C68.3725 31.2063 68.4708 31.2409 68.5721 31.2765C68.9178 31.3964 68.9178 31.3964 69.2993 31.4842C69.9473 31.6707 70.357 31.8203 70.7524 32.3848C70.918 32.6945 71.065 33.0119 71.2128 33.3305C71.9945 35.0081 73.6027 36.1392 75.2873 36.8018C76.7992 37.2868 78.2379 37.5467 79.826 37.5224C80.0733 37.5203 80.3207 37.5183 80.568 37.5163C80.955 37.5126 81.3419 37.5083 81.7288 37.5028C82.1043 37.4977 82.4797 37.4949 82.8552 37.4924C82.9713 37.4901 83.0875 37.4879 83.2071 37.4856C83.3686 37.485 83.3686 37.485 83.5333 37.4843C83.6279 37.4832 83.7224 37.482 83.8199 37.4808C84.1308 37.5344 84.2222 37.6519 84.4276 37.8842C84.9001 38.1257 85.3942 38.3165 85.8859 38.5156C86.0186 38.5723 86.1513 38.6291 86.288 38.6875C87.2679 39.0856 87.9011 39.1873 88.9151 38.8238C89.3734 38.5147 89.6502 38.1557 89.788 37.615C89.8507 37.2115 89.8806 36.8109 89.9073 36.4034C89.9174 36.2525 89.9274 36.1017 89.9378 35.9463C89.9451 35.8317 89.9524 35.7171 89.9599 35.5991C89.8694 35.6602 89.7788 35.7213 89.6855 35.7842C88.0119 36.8688 86.2075 37.5886 84.1871 37.5234C84.5858 37.3008 84.9779 37.1974 85.4198 37.0874C87.6878 36.4478 89.4706 35.2396 90.6815 33.1938C91.8836 31.0231 92.1634 28.5714 92.1609 26.1276C92.1614 25.9361 92.1619 25.7445 92.1625 25.553C92.1633 25.1534 92.1633 24.7539 92.1627 24.3543C92.1621 23.9498 92.163 23.5453 92.1652 23.1407C92.1863 19.2153 92.196 15.1167 89.2482 12.1263C87.0698 10.0487 84.0885 9.59879 81.1968 9.59909C80.92 9.59883 80.6433 9.59665 80.3665 9.59437C78.9041 9.58862 77.4722 9.68203 76.0766 10.1551C75.9994 10.1796 75.9223 10.2042 75.8428 10.2295C75.4597 10.3541 75.1045 10.4937 74.7419 10.6704C73.7924 11.0205 72.8998 10.497 72.0175 10.1325C71.89 10.0807 71.7625 10.029 71.6311 9.97561C71.2458 9.81873 70.8611 9.66022 70.4766 9.50111C70.3537 9.45037 70.2308 9.39963 70.1041 9.34734C69.3122 9.01912 68.5255 8.68032 67.7405 8.33602C66.4357 7.76657 65.1235 7.21649 63.8082 6.67166C63.0542 6.35899 62.3008 6.045 61.5473 5.73105C61.2688 5.61503 60.9903 5.49905 60.7118 5.38308C59.8101 5.00748 58.9088 4.63105 58.0083 4.25257C57.925 4.21757 57.8416 4.18256 57.7558 4.1465C57.3662 3.98276 56.9766 3.81883 56.5871 3.65462C55.701 3.28193 54.8114 2.91962 53.9182 2.56452C53.0782 2.22962 52.2457 1.87911 51.4175 1.51603C51.2974 1.46343 51.1772 1.41084 51.0535 1.35665C50.8142 1.25173 50.575 1.14643 50.3361 1.04071C49.5633 0.701688 48.7831 0.399028 47.9866 0.120267C47.9866 0.0805791 47.9866 0.0408909 47.9866 0Z" fill="#FEFEFD"/>
<path d="M80.5606 9.47754C80.8374 9.47728 81.1141 9.47509 81.3909 9.47281C84.1901 9.46187 86.9539 10.016 89.1159 11.9052C89.1871 11.965 89.2583 12.0249 89.3316 12.0865C91.3459 13.921 92.1042 16.8591 92.2571 19.4859C92.2796 20.0852 92.2797 20.6845 92.2791 21.2841C92.2795 21.4756 92.2801 21.6671 92.2806 21.8586C92.2815 22.2572 92.2815 22.6558 92.2809 23.0544C92.2803 23.4582 92.2811 23.8619 92.2833 24.2656C92.3043 28.1573 92.2663 32.1296 89.3565 35.1168C88.0146 36.3216 86.4302 37.0569 84.6661 37.4018C86.4506 37.3213 88.2961 36.6791 89.7173 35.5978C89.7967 35.5978 89.876 35.5978 89.9578 35.5978C90.0084 37.6228 90.0084 37.6228 89.5294 38.4467C88.9759 38.9717 88.4443 39.2096 87.6784 39.1997C86.8826 39.0914 86.1685 38.7394 85.4403 38.4166C85.296 38.354 85.1518 38.2915 85.0031 38.227C84.6496 38.0735 84.2968 37.9187 83.9444 37.7626C83.9444 37.7229 83.9444 37.6833 83.9444 37.6424C83.7146 37.6452 83.7146 37.6452 83.4801 37.6481C82.9016 37.6547 82.323 37.6588 81.7445 37.6622C81.496 37.664 81.2474 37.6664 80.9989 37.6696C77.699 37.7104 74.643 37.2411 72.1583 34.8762C69.5086 31.8641 69.4477 28.1144 69.4587 24.325C69.4598 23.9287 69.459 23.5324 69.4563 23.1361C69.4291 19.1851 69.5156 15.1678 72.3537 12.1081C74.6092 9.98857 77.5712 9.47723 80.5606 9.47754Z" fill="#111111"/>
<path d="M3.84496 9.98047C5.82937 9.98047 7.81378 9.98047 9.85833 9.98047C9.8728 12.4535 9.8728 12.4535 9.87594 13.5128C9.87809 14.2339 9.88063 14.9549 9.88554 15.676C9.88948 16.2577 9.89163 16.8394 9.89256 17.4212C9.89322 17.6424 9.89452 17.8636 9.89647 18.0848C9.90851 19.5032 9.91164 20.7414 9.10055 21.9677C9.02347 22.086 8.94639 22.2043 8.86697 22.3262C8.78483 22.4491 8.7027 22.5721 8.61807 22.6987C8.44483 22.9637 8.27163 23.2286 8.09848 23.4936C8.01015 23.6278 7.92179 23.7619 7.8334 23.896C7.43311 24.5057 7.04056 25.1203 6.64869 25.7355C6.58097 25.8409 6.51325 25.9462 6.44348 26.0548C6.03302 26.6972 5.64994 27.3495 5.28817 28.0206C5.50036 28.182 5.71352 28.3421 5.92709 28.5016C6.10499 28.6356 6.10499 28.6356 6.28648 28.7722C6.59708 29.0154 6.59708 29.0154 6.97191 28.9827C7.0116 28.8636 7.05129 28.7446 7.09218 28.6219C6.85405 28.4235 6.61592 28.225 6.37057 28.0206C6.57311 27.4259 6.90493 26.9291 7.24251 26.4045C7.30557 26.3055 7.36863 26.2066 7.4336 26.1047C7.5692 25.892 7.70501 25.6795 7.84103 25.4672C9.08822 23.5213 9.08822 23.5213 10.3168 21.5637C10.3896 21.4467 10.4623 21.3296 10.5372 21.209C10.781 20.7839 10.8367 20.4525 10.8452 19.971C10.8476 19.8507 10.85 19.7303 10.8524 19.6063C10.8544 19.4766 10.8564 19.3469 10.8585 19.2133C10.8623 19.0139 10.8623 19.0139 10.8661 18.8104C10.874 18.3852 10.881 17.96 10.8881 17.5348C10.8933 17.2467 10.8986 16.9586 10.9039 16.6706C10.9167 15.9639 10.929 15.2573 10.9407 14.5506C11.1334 14.4537 11.3261 14.3569 11.5188 14.2602C11.6261 14.2063 11.7334 14.1524 11.844 14.0968C12.1597 13.9413 12.4775 13.8003 12.8049 13.6712C12.9029 13.6319 13.0008 13.5927 13.1018 13.5523C13.3461 13.4682 13.3461 13.4682 13.5866 13.4682C13.5866 12.3173 13.5866 11.1663 13.5866 9.98047C15.5313 9.98047 17.4761 9.98047 19.4797 9.98047C19.4797 15.4971 19.4797 21.0138 19.4797 26.6976C20.6704 26.6976 21.861 26.6976 23.0877 26.6976C23.0877 28.4836 23.0877 30.2696 23.0877 32.1096C21.7347 32.7861 21.7347 32.7861 21.2085 32.929C21.1078 32.957 21.007 32.9851 20.9032 33.014C20.8303 33.0331 20.7575 33.0521 20.6824 33.0718C20.6824 32.7543 20.6824 32.4368 20.6824 32.1096C20.2855 32.1096 19.8886 32.1096 19.4797 32.1096C19.4797 33.7766 19.4797 35.4435 19.4797 37.1609C17.535 37.1609 15.5903 37.1609 13.5866 37.1609C13.5866 36.8434 13.5866 36.5259 13.5866 36.1987C12.9836 36.4422 12.3807 36.6859 11.7779 36.9298C11.5736 37.0125 11.3693 37.095 11.1649 37.1775C9.09033 37.9874 9.09033 37.9874 7.07115 38.921C6.42761 39.2319 5.74225 39.1967 5.04763 39.0851C4.55429 38.8223 4.22413 38.4961 3.95577 38.0067C3.79068 37.4632 3.81553 36.9378 3.82147 36.373C3.82181 36.2511 3.82215 36.1291 3.8225 36.0035C3.82385 35.6151 3.82687 35.2266 3.82993 34.8382C3.83114 34.5744 3.83223 34.3106 3.83322 34.0468C3.83566 33.4011 3.84037 32.7554 3.84496 32.1096C2.57494 32.1096 1.30492 32.1096 -0.00359024 32.1096C-0.355636 25.4037 -0.355636 25.4037 1.40626 23.3052C1.49372 23.2087 1.58118 23.1122 1.67128 23.0127C2.05765 22.5729 2.36141 22.0883 2.67236 21.5938C2.74963 21.4795 2.74963 21.4795 2.82847 21.363C3.7061 20.0459 3.79723 18.8289 3.79798 17.2858C3.79979 17.0745 3.8018 16.8632 3.80401 16.6519C3.80923 16.0995 3.81166 15.5471 3.81348 14.9946C3.81626 14.3298 3.82256 13.665 3.82826 13.0003C3.83651 11.9937 3.84032 10.9871 3.84496 9.98047Z" fill="#111111"/>
<path d="M0 0C15.0815 0 30.163 0 45.7016 0C45.3944 0.307197 45.1287 0.373601 44.7169 0.518653C43.7393 0.873735 42.7809 1.27198 41.8229 1.67623C41.7441 1.70946 41.6653 1.74269 41.5841 1.77693C41.2526 1.91674 40.9211 2.05658 40.5896 2.19654C39.7002 2.57183 38.8091 2.94281 37.9178 3.31356C36.4701 3.91583 35.023 4.51971 33.5771 5.12639C33.5011 5.15829 33.4251 5.19019 33.3467 5.22306C32.8146 5.44633 32.2826 5.6697 31.7506 5.8931C29.0665 7.02011 26.3801 8.14166 23.6926 9.26058C22.7401 9.65746 21.7876 10.0543 20.8062 10.4633C20.7467 18.5001 20.7467 18.5001 20.686 26.6993C20.2891 26.6993 19.8922 26.6993 19.4833 26.6993C19.4833 21.1827 19.4833 15.666 19.4833 9.98218C17.5386 9.98218 15.5939 9.98218 13.5902 9.98218C13.5902 11.1331 13.5902 12.2841 13.5902 13.4699C12.7567 13.8271 11.9233 14.1843 11.0646 14.5523C11.0629 14.9725 11.0612 15.3926 11.0594 15.8255C11.0557 16.2355 11.051 16.6455 11.0462 17.0555C11.0435 17.3389 11.0417 17.6223 11.0411 17.9058C11.0399 18.3149 11.035 18.7238 11.0294 19.1328C11.0298 19.2582 11.0303 19.3835 11.0308 19.5126C11.0134 20.3965 10.7995 21.0147 10.343 21.7684C10.2919 21.8527 10.2408 21.937 10.1882 22.0239C10.0463 22.2526 9.89862 22.4766 9.74916 22.7004C9.63333 22.8767 9.51761 23.053 9.40199 23.2294C9.34069 23.3227 9.2794 23.416 9.21624 23.5121C8.8554 24.0653 8.50209 24.6234 8.14811 25.181C8.04603 25.3416 8.04603 25.3416 7.9419 25.5055C7.80848 25.7154 7.67559 25.9257 7.54325 26.1364C7.39615 26.3656 7.24453 26.5918 7.0899 26.816C7.0106 26.9328 6.9313 27.0497 6.8496 27.1701C6.73919 27.3286 6.73919 27.3286 6.62656 27.4903C6.45959 27.7725 6.45959 27.7725 6.57653 28.0436C6.76609 28.3059 6.97974 28.5233 7.21604 28.7439C7.13666 28.8629 7.05728 28.982 6.9755 29.1047C6.49355 29.0324 6.18719 28.784 5.8029 28.4958C5.68445 28.4076 5.56601 28.3194 5.44397 28.2285C5.35405 28.1605 5.26414 28.0924 5.17149 28.0223C5.59889 27.1714 6.09364 26.3751 6.6147 25.5793C6.68123 25.4777 6.74776 25.3761 6.8163 25.2714C6.95654 25.0573 7.09681 24.8433 7.23712 24.6293C7.61589 24.0506 7.99197 23.4701 8.36609 22.8884C8.47132 22.7268 8.47132 22.7268 8.57867 22.5619C9.31176 21.4188 9.75614 20.4694 9.76634 19.1026C9.76753 19.004 9.76872 18.9054 9.76995 18.8038C9.77374 18.4785 9.77673 18.1531 9.7797 17.8277C9.78218 17.6019 9.7847 17.3761 9.78727 17.1503C9.79391 16.5564 9.79985 15.9624 9.80566 15.3685C9.81277 14.6556 9.82073 13.9428 9.82854 13.23C9.84032 12.1474 9.85102 11.0648 9.86191 9.98218C7.87751 9.98218 5.8931 9.98218 3.84855 9.98218C3.85413 10.6541 3.85971 11.326 3.86546 12.0183C3.86792 12.4458 3.87024 12.8733 3.87204 13.3008C3.87491 13.9783 3.87829 14.6558 3.88484 15.3333C3.8901 15.8799 3.89295 16.4265 3.89419 16.9732C3.89508 17.181 3.8968 17.3888 3.89942 17.5966C3.91273 18.7011 3.92374 19.6949 3.36748 20.686C3.2981 20.8114 3.22871 20.9368 3.15722 21.0661C3.08754 21.1727 3.01787 21.2794 2.94608 21.3893C2.86749 21.5107 2.78889 21.6322 2.70792 21.7574C2.62544 21.8825 2.54295 22.0077 2.45796 22.1367C2.37307 22.2672 2.28818 22.3977 2.20072 22.5322C2.02969 22.7951 1.85827 23.0577 1.68644 23.3201C1.46465 23.6598 1.24517 24.0008 1.02697 24.3428C0.965819 24.4385 0.904669 24.5341 0.841665 24.6327C0.728778 24.8093 0.616078 24.986 0.50359 25.1629C0.379009 25.3564 0.250158 25.5472 0.120267 25.7372C0.0805791 25.7372 0.0408909 25.7372 0 25.7372C0 17.2439 0 8.75065 0 0Z" fill="#FEFEFD"/>
<path d="M35.7178 9.98047C42.4251 9.98047 49.1324 9.98047 56.043 9.98047C56.043 11.7664 56.043 13.5524 56.043 15.3925C51.3201 15.3925 46.5972 15.3925 41.7312 15.3925C41.7312 16.1069 41.7312 16.8213 41.7312 17.5573C41.3249 18.6408 41.3249 18.6408 40.8668 19.1208C40.7722 19.2209 40.6776 19.3211 40.5802 19.4243C40.4838 19.5226 40.3873 19.6208 40.288 19.7221C40.194 19.8179 40.1001 19.9137 40.0033 20.0125C39.7792 20.2382 39.5536 20.4621 39.3259 20.6843C39.5799 21.2676 39.9896 21.6736 40.5285 22.0072C40.9396 22.0006 40.9396 22.0006 41.2501 21.7667C41.3316 21.6069 41.4116 21.4465 41.4907 21.2856C41.7716 20.9486 42.0839 20.6423 42.3927 20.331C42.5136 20.2041 42.5136 20.2041 42.637 20.0747C43.5592 19.1429 44.3595 18.7179 45.6714 18.6928C45.9683 18.6922 46.2649 18.6955 46.5618 18.7014C46.8624 18.7073 47.1628 18.7088 47.4634 18.7095C50.2183 18.7286 53.0019 19.0984 55.1044 21.0526C57.1144 23.2106 57.4377 25.9714 57.3772 28.792C57.2906 31.1904 56.5398 33.4981 54.8403 35.2366C52.8992 36.9417 50.3635 37.6536 47.8099 37.6664C47.7014 37.6671 47.5929 37.6677 47.4812 37.6684C47.2518 37.6696 47.0225 37.6704 46.7931 37.6708C46.4498 37.672 46.1065 37.6757 45.7632 37.6795C42.7352 37.6971 39.7179 37.2145 37.4316 35.0491C36.1578 33.6669 35.4254 31.8194 35.4623 29.9524C35.4634 29.8472 35.4644 29.742 35.4656 29.6336C35.4684 29.3765 35.4727 29.1195 35.4773 28.8624C36.3144 28.8594 37.1514 28.8573 37.9885 28.8558C38.2735 28.8552 38.5585 28.8544 38.8435 28.8534C39.2522 28.8519 39.6609 28.8512 40.0695 28.8507C40.1978 28.8501 40.3261 28.8494 40.4583 28.8488C40.6352 28.8488 40.6352 28.8488 40.8158 28.8488C40.9724 28.8484 40.9724 28.8484 41.1322 28.848C41.3704 28.8624 41.3704 28.8624 41.4907 28.9827C41.5234 29.1651 41.5529 29.3482 41.5809 29.5314C41.7444 30.3611 42.0561 30.9934 42.761 31.4858C43.8871 32.092 45.1068 32.1676 46.3615 32.1547C46.4978 32.1561 46.634 32.1575 46.7744 32.159C47.9476 32.1549 49.2236 32.0585 50.1499 31.2678C51.1641 30.23 51.2666 28.9926 51.2707 27.5972C51.2553 26.6806 51.0557 25.9838 50.4656 25.2694C48.7441 23.8758 46.3472 24.0217 44.2314 24.2091C43.4972 24.3058 42.9246 24.4401 42.3325 24.8936C42.1738 25.1317 42.015 25.3699 41.8515 25.6152C39.8274 25.6152 37.8033 25.6152 35.7178 25.6152C35.7178 20.4557 35.7178 15.2963 35.7178 9.98047Z" fill="#111111"/>
<path d="M84.4068 15.7842C84.8214 16.1192 85.1061 16.5071 85.3878 16.9559C85.4547 17.0526 85.5217 17.1493 85.5907 17.249C86.072 18.1887 86.2424 19.1521 86.2509 20.2022C86.2517 20.283 86.2525 20.3639 86.2533 20.4473C86.2557 20.713 86.2571 20.9788 86.2583 21.2446C86.2588 21.3362 86.2593 21.4278 86.2598 21.5222C86.2623 22.0074 86.264 22.4927 86.2651 22.978C86.2665 23.4751 86.2706 23.9721 86.2754 24.4691C86.2786 24.8549 86.2795 25.2407 86.28 25.6266C86.2806 25.8096 86.2819 25.9926 86.2842 26.1755C86.3051 27.9852 85.965 29.6832 84.7113 31.0572C83.4395 32.264 81.8844 32.2755 80.236 32.2556C78.8014 32.2141 77.6668 31.7092 76.6801 30.6663C75.5801 29.2892 75.4698 27.5694 75.4779 25.8787C75.4777 25.6984 75.4773 25.5182 75.4769 25.3379C75.4764 24.9624 75.4771 24.5869 75.4788 24.2114C75.4809 23.7346 75.4797 23.2579 75.4775 22.7811C75.4762 22.4095 75.4766 22.0379 75.4776 21.6663C75.4778 21.4907 75.4775 21.3151 75.4767 21.1395C75.4699 19.3528 75.7427 17.8226 76.7511 16.3245C78.6466 14.471 82.2224 14.3586 84.4068 15.7842Z" fill="#666770"/>
<path d="M51.9531 44.6211C54.255 44.6211 56.557 44.6211 58.9286 44.6211C58.9286 47.7168 58.9286 50.8125 58.9286 54.0019C56.6267 54.0019 54.3248 54.0019 51.9531 54.0019C51.9531 50.9063 51.9531 47.8106 51.9531 44.6211Z" fill="#111111"/>
<path d="M3.36719 44.6211C5.62941 44.6211 7.89164 44.6211 10.2224 44.6211C10.2224 47.7168 10.2224 50.8125 10.2224 54.0019C7.96019 54.0019 5.69797 54.0019 3.36719 54.0019C3.36719 50.9063 3.36719 47.8106 3.36719 44.6211Z" fill="#111111"/>
<path d="M19.4844 44.6211C20.3178 44.6211 21.1513 44.6211 22.01 44.6211C22.0497 46.1292 22.0894 47.6374 22.1303 49.1912C22.2716 48.8365 22.413 48.4818 22.5587 48.1164C22.8917 47.2834 23.2263 46.4511 23.5659 45.6208C23.6013 45.5338 23.6367 45.4467 23.6731 45.3571C23.9202 44.7554 23.9202 44.7554 24.0545 44.6211C24.888 44.6211 25.7214 44.6211 26.5801 44.6211C26.5801 47.7168 26.5801 50.8125 26.5801 54.0019C24.2385 54.0019 21.8969 54.0019 19.4844 54.0019C19.4844 50.9063 19.4844 47.8106 19.4844 44.6211Z" fill="#111111"/>
<path d="M3.84867 32.1133C7.06341 32.1133 10.2782 32.1133 13.5903 32.1133C13.5903 33.4627 13.5903 34.8121 13.5903 36.2024C13.2886 36.3242 12.9869 36.4461 12.6761 36.5716C12.3779 36.6922 12.0798 36.8128 11.7816 36.9335C11.5773 37.0161 11.373 37.0987 11.1686 37.1812C9.09404 37.991 9.09404 37.991 7.07486 38.9246C6.43131 39.2356 5.74595 39.2003 5.05134 39.0888C4.558 38.8259 4.22784 38.4997 3.95948 38.0104C3.79439 37.4669 3.81921 36.9414 3.82518 36.3767C3.82542 36.2685 3.82566 36.1604 3.82591 36.0489C3.82717 35.6466 3.83053 35.2442 3.83363 34.8418C3.8386 33.9414 3.84356 33.041 3.84867 32.1133Z" fill="#666770"/>
<path d="M88.0366 44.6201C88.0366 47.7158 88.0366 50.8115 88.0366 54.001C85.8537 54.001 83.6709 54.001 81.4219 54.001C81.7394 53.2469 82.0569 52.4928 82.384 51.7159C82.6851 50.9945 82.6851 50.9945 82.9853 50.2727C82.9125 50.2397 82.8396 50.2067 82.7645 50.1726C82.2482 49.894 81.9697 49.4664 81.7451 48.9422C81.5122 47.6085 81.62 46.5996 82.3765 45.477C83.7953 44.0152 86.3121 44.6201 88.0366 44.6201Z" fill="#111111"/>
<path d="M28.1406 44.6211C28.9741 44.6211 29.8075 44.6211 30.6662 44.6211C30.6662 45.8514 30.6662 47.0818 30.6662 48.3494C30.7456 48.3494 30.825 48.3494 30.9068 48.3494C30.9264 48.2235 30.9264 48.2235 30.9464 48.0951C31.0379 47.7012 31.1831 47.3715 31.3545 47.0053C31.4192 46.8662 31.4839 46.727 31.5506 46.5837C31.6191 46.4381 31.6876 46.2925 31.7562 46.147C31.8252 45.9991 31.8942 45.8512 31.9631 45.7033C32.1316 45.3423 32.3008 44.9816 32.4702 44.6211C33.3434 44.6211 34.2165 44.6211 35.1161 44.6211C34.9599 44.956 34.8036 45.2908 34.6426 45.6358C34.5646 45.803 34.5646 45.803 34.4851 45.9735C34.2422 46.4874 33.9912 46.9923 33.7124 47.4878C33.6617 47.5786 33.611 47.6693 33.5587 47.7629C33.4613 47.9351 33.3619 48.1063 33.2602 48.2761C32.9896 48.7535 32.9896 48.7535 33.0348 49.2829C33.2105 49.7187 33.4027 50.1442 33.6057 50.5677C33.6452 50.651 33.6846 50.7343 33.7252 50.8201C33.8926 51.1736 34.0609 51.5268 34.2292 51.8799C34.3525 52.1389 34.4752 52.3981 34.5979 52.6574C34.636 52.7368 34.6741 52.8163 34.7134 52.8981C34.8888 53.269 35.016 53.6013 35.1161 54.0019C32.8142 54.0019 30.5123 54.0019 28.1406 54.0019C28.1406 50.9063 28.1406 47.8106 28.1406 44.6211Z" fill="#111111"/>
<path d="M62.4891 44.6055C62.6245 44.6061 62.7599 44.6067 62.8994 44.6074C63.0455 44.6078 63.1917 44.6082 63.3422 44.6086C63.4961 44.6096 63.6499 44.6106 63.8085 44.6116C63.9628 44.6121 64.1171 44.6127 64.2762 44.6132C64.659 44.6147 65.0418 44.6167 65.4246 44.6191C65.8082 46.2239 66.1652 47.8337 66.5157 49.446C66.5841 49.7601 66.6526 50.0741 66.7212 50.3882C66.7543 50.54 66.7543 50.54 66.7881 50.6949C66.9577 51.4676 67.1371 52.2377 67.3256 53.006C67.408 53.3474 67.4691 53.6472 67.4691 54C65.0481 54 62.6272 54 60.1328 54C60.403 52.2434 60.403 52.2434 60.5819 51.4856C60.601 51.4038 60.6201 51.3219 60.6398 51.2375C60.6801 51.0644 60.7207 50.8913 60.7616 50.7182C60.8698 50.2593 60.9762 49.8 61.0823 49.3406C61.1037 49.2478 61.1251 49.1551 61.1471 49.0596C61.3971 47.9693 61.6203 46.8735 61.8388 45.7765C61.866 45.641 61.8932 45.5056 61.9213 45.3661C61.9448 45.2474 61.9683 45.1287 61.9925 45.0064C62.0839 44.6285 62.0928 44.6228 62.4891 44.6055Z" fill="#111111"/>
<path d="M37.7633 44.6211C38.8349 44.6211 39.9065 44.6211 41.0105 44.6211C41.1933 45.1695 41.3415 45.7009 41.4639 46.263C41.4833 46.3507 41.5027 46.4383 41.5227 46.5286C41.5853 46.8122 41.6475 47.096 41.7096 47.3797C41.7527 47.5758 41.7959 47.7719 41.8391 47.9679C41.9247 48.3569 42.01 48.7459 42.0952 49.1349C42.1963 49.5961 42.2987 50.0571 42.4016 50.5179C42.4541 50.7547 42.5065 50.9915 42.559 51.2283C42.5819 51.3302 42.6048 51.4321 42.6284 51.5371C42.8086 52.3579 42.9264 53.1657 43.0551 54.0019C40.6341 54.0019 38.2131 54.0019 35.7188 54.0019C35.8585 53.2333 35.9975 52.4772 36.1679 51.7169C36.1965 51.5886 36.1965 51.5886 36.2257 51.4577C36.287 51.1832 36.3486 50.9088 36.4103 50.6345C36.4531 50.4432 36.4958 50.2519 36.5386 50.0606C36.6247 49.6753 36.7109 49.29 36.7972 48.9047C36.9124 48.3902 37.0268 47.8756 37.1408 47.3609C37.1738 47.2121 37.2068 47.0633 37.2408 46.9099C37.3021 46.6331 37.3634 46.3562 37.4247 46.0793C37.4519 45.9565 37.4792 45.8338 37.5073 45.7073C37.5307 45.6013 37.5542 45.4953 37.5784 45.3862C37.6366 45.1303 37.6997 44.8756 37.7633 44.6211Z" fill="#111111"/>
<path d="M59.5312 30.1875C61.8729 30.1875 64.2145 30.1875 66.627 30.1875C66.627 32.4894 66.627 34.7913 66.627 37.163C64.2854 37.163 61.9438 37.163 59.5312 37.163C59.5312 34.8611 59.5312 32.5592 59.5312 30.1875Z" fill="#111111"/>
<path d="M25.5 30.1875C27.8416 30.1875 30.1832 30.1875 32.5958 30.1875C32.5958 32.4894 32.5958 34.7913 32.5958 37.163C30.2542 37.163 27.9126 37.163 25.5 37.163C25.5 34.8611 25.5 32.5592 25.5 30.1875Z" fill="#111111"/>
<path d="M13.591 13.4688C13.591 17.8345 13.591 22.2002 13.591 26.6981C12.0829 26.7378 10.5747 26.7775 9.02088 26.8184C8.30947 27.1741 8.16801 27.2902 7.77311 27.9234C7.69032 28.0541 7.60753 28.1848 7.52224 28.3194C7.46115 28.4194 7.40007 28.5194 7.33714 28.6224C6.93353 28.4705 6.65968 28.3507 6.375 28.0211C6.57753 27.4264 6.90936 26.9296 7.24694 26.405C7.34153 26.2566 7.34153 26.2566 7.43803 26.1052C7.57362 25.8926 7.70944 25.6801 7.84546 25.4677C9.09264 23.5218 9.09264 23.5218 10.3213 21.5642C10.394 21.4472 10.4667 21.3301 10.5416 21.2095C10.7854 20.7844 10.8411 20.453 10.8496 19.9715C10.852 19.8512 10.8544 19.7308 10.8569 19.6068C10.8599 19.4123 10.8599 19.4123 10.8629 19.2139C10.8654 19.0809 10.8679 18.9479 10.8705 18.8109C10.8784 18.3857 10.8855 17.9605 10.8925 17.5353C10.8977 17.2472 10.903 16.9592 10.9083 16.6711C10.9212 15.9645 10.9334 15.2578 10.9452 14.5512C11.1378 14.4542 11.3305 14.3575 11.5232 14.2607C11.6305 14.2068 11.7379 14.1529 11.8484 14.0974C12.1641 13.9418 12.4819 13.8008 12.8093 13.6717C12.9073 13.6325 13.0053 13.5933 13.1062 13.5528C13.3505 13.4688 13.3505 13.4688 13.591 13.4688Z" fill="#666770"/>
<path d="M11.7891 44.6211C16.5816 44.6211 16.5816 44.6211 17.4942 45.5005C18.0981 46.245 18.2273 46.985 18.2158 47.9134C18.2151 48.0146 18.2144 48.1158 18.2136 48.22C18.1952 48.9498 18.103 49.5401 17.6822 50.1534C17.6053 50.2675 17.5284 50.3816 17.4491 50.4992C16.8734 51.0924 16.1967 51.339 15.383 51.3706C15.0268 51.371 14.6707 51.3641 14.3147 51.3561C14.3147 52.2292 14.3147 53.1023 14.3147 54.0019C13.4812 54.0019 12.6478 54.0019 11.7891 54.0019C11.7891 50.9063 11.7891 47.8106 11.7891 44.6211Z" fill="#111111"/>
<path d="M44.2578 44.6211C49.0393 44.6211 49.0393 44.6211 50.0306 45.5832C50.7688 46.6222 50.7497 47.8483 50.632 49.071C50.4285 49.9157 49.9684 50.4648 49.2564 50.9577C48.4141 51.3891 47.7199 51.3769 46.7834 51.3561C46.7834 52.2292 46.7834 53.1023 46.7834 54.0019C45.95 54.0019 45.1165 54.0019 44.2578 54.0019C44.2578 50.9063 44.2578 47.8106 44.2578 44.6211Z" fill="#111111"/>
<path d="M74.6875 44.6211C76.7116 44.6211 78.7357 44.6211 80.8211 44.6211C80.8211 45.2958 80.8211 45.9705 80.8211 46.6656C80.2258 46.6656 79.6305 46.6656 79.0171 46.6656C79.0171 49.0866 79.0171 51.5076 79.0171 54.0019C78.1837 54.0019 77.3502 54.0019 76.4915 54.0019C76.4915 51.581 76.4915 49.16 76.4915 46.6656C75.8962 46.6656 75.3009 46.6656 74.6875 46.6656C74.6875 45.9909 74.6875 45.3162 74.6875 44.6211Z" fill="#111111"/>
<path d="M67.7109 44.6211C69.735 44.6211 71.7591 44.6211 73.8446 44.6211C73.8446 45.2958 73.8446 45.9705 73.8446 46.6656C73.2492 46.6656 72.6539 46.6656 72.0406 46.6656C72.0406 49.0866 72.0406 51.5076 72.0406 54.0019C71.2071 54.0019 70.3737 54.0019 69.5149 54.0019C69.5149 51.581 69.5149 49.16 69.5149 46.6656C68.9196 46.6656 68.3243 46.6656 67.7109 46.6656C67.7109 45.9909 67.7109 45.3162 67.7109 44.6211Z" fill="#111111"/>
<path d="M80.2163 15.0327C79.8555 15.2732 79.8555 15.2732 79.4195 15.4085C78.3514 15.8071 77.7363 16.6109 77.2444 17.6048C76.7957 18.8625 76.6734 20.0694 76.6764 21.3979C76.6758 21.5664 76.6752 21.7348 76.6745 21.9032C76.6734 22.2538 76.6737 22.6044 76.6749 22.955C76.676 23.3104 76.6752 23.6657 76.6724 24.021C76.5803 27.7879 76.5803 27.7879 78.268 31.0414C78.7719 31.4745 79.3728 31.7233 79.9757 31.9904C80.1366 32.0696 80.2972 32.1494 80.4568 32.2309C79.1817 32.3159 78.0817 31.8825 77.1048 31.0851C76.0537 30.1243 75.5994 28.7374 75.4922 27.3431C75.4785 26.8549 75.4756 26.3681 75.4779 25.8798C75.4777 25.6995 75.4773 25.5193 75.4769 25.339C75.4764 24.9635 75.4771 24.5881 75.4788 24.2126C75.4809 23.7357 75.4797 23.259 75.4775 22.7822C75.4762 22.4106 75.4766 22.039 75.4776 21.6674C75.4778 21.4918 75.4775 21.3162 75.4767 21.1406C75.4699 19.3539 75.7427 17.8237 76.7511 16.3256C77.7441 15.3546 78.8477 14.9768 80.2163 15.0327Z" fill="#FAFCF5"/>
<path d="M54.4844 46.6641C55.1194 46.6641 55.7544 46.6641 56.4087 46.6641C56.4087 49.085 56.4087 51.506 56.4087 54.0004C55.7736 54.0004 55.1386 54.0004 54.4844 54.0004C54.4844 51.5794 54.4844 49.1584 54.4844 46.6641Z" fill="#FCFEFB"/>
<path d="M5.89062 46.6641C6.48595 46.6641 7.08127 46.6641 7.69463 46.6641C7.69463 49.085 7.69463 51.506 7.69463 54.0004C7.09931 54.0004 6.50399 54.0004 5.89062 54.0004C5.89062 51.5794 5.89062 49.1584 5.89062 46.6641Z" fill="white"/>
<path d="M89.9587 35.5977C90.0092 37.6226 90.0092 37.6226 89.5302 38.4465C88.9768 38.9715 88.4452 39.2094 87.6792 39.1996C86.8835 39.0912 86.1694 38.7392 85.4411 38.4164C85.2969 38.3539 85.1526 38.2913 85.004 38.2269C84.6505 38.0734 84.2977 37.9185 83.9453 37.7625C84.0644 37.5839 84.0644 37.5839 84.1858 37.4017C84.4397 37.4017 84.6936 37.4029 84.9474 37.4101C86.4566 37.3703 88.324 36.6348 89.5255 35.7301C89.7181 35.5977 89.7181 35.5977 89.9587 35.5977Z" fill="#666770"/>
<path d="M41.7365 15.3945C42.0937 15.3945 42.4509 15.3945 42.819 15.3945C42.832 15.7755 42.8415 16.156 42.849 16.5371C42.8531 16.6437 42.8571 16.7504 42.8612 16.8603C42.8766 17.9059 42.5956 18.5182 41.8742 19.2685C41.7017 19.4366 41.5281 19.6036 41.3532 19.7693C41.1784 19.9378 41.0037 20.1066 40.8294 20.2757C40.7525 20.3489 40.6755 20.4222 40.5963 20.4976C40.402 20.6793 40.402 20.6793 40.2933 20.9268C40.3653 20.9591 40.4372 20.9913 40.5113 21.0245C40.7711 21.1655 40.9377 21.3109 41.1352 21.5282C41.0558 21.6869 40.9765 21.8457 40.8947 22.0092C40.2969 22.0092 40.2055 21.8691 39.7822 21.468C39.6749 21.3676 39.5676 21.2671 39.4571 21.1636C39.3759 21.0855 39.2946 21.0073 39.2109 20.9268C39.3661 20.5831 39.526 20.3445 39.8001 20.0864C39.8677 20.0212 39.9352 19.956 40.0049 19.8888C40.1459 19.7551 40.2871 19.6217 40.4286 19.4886C41.1603 18.7811 41.6026 18.0738 41.6543 17.0388C41.6594 16.9427 41.6644 16.8466 41.6696 16.7475C41.6743 16.6483 41.6791 16.5491 41.6839 16.4469C41.6891 16.3458 41.6943 16.2447 41.6997 16.1406C41.7124 15.8919 41.7245 15.6432 41.7365 15.3945Z" fill="#FBFDF6"/>
<path d="M56.0469 9.98047C56.4438 9.98047 56.8406 9.98047 57.2495 9.98047C57.2495 11.7664 57.2495 13.5524 57.2495 15.3925C56.8527 15.3925 56.4558 15.3925 56.0469 15.3925C56.0469 13.6065 56.0469 11.8206 56.0469 9.98047Z" fill="#F6FDEC"/>
<path d="M23.9368 48.9492C23.9765 48.9492 24.0162 48.9492 24.0571 48.9492C24.0571 50.6161 24.0571 52.283 24.0571 54.0004C23.4221 54.0004 22.7871 54.0004 22.1328 54.0004C22.2432 53.4486 22.4055 52.9516 22.6026 52.428C22.6369 52.336 22.6711 52.244 22.7064 52.1492C22.7786 51.9556 22.8509 51.762 22.9235 51.5685C23.0348 51.2718 23.1455 50.9748 23.2561 50.6778C23.3264 50.4895 23.3967 50.3012 23.467 50.1129C23.5002 50.024 23.5334 49.935 23.5676 49.8434C23.8024 49.218 23.8024 49.218 23.9368 48.9492Z" fill="#FBFEF9"/>
<path d="M30.6719 50.2734C30.7513 50.2734 30.8306 50.2734 30.9124 50.2734C31.1356 50.7655 31.3583 51.2578 31.5804 51.7504C31.6561 51.9179 31.7319 52.0855 31.8079 52.2529C31.917 52.4933 32.0255 52.734 32.1339 52.9748C32.1681 53.0498 32.2023 53.1249 32.2375 53.2022C32.4759 53.7338 32.4759 53.7338 32.4759 54.0017C31.8806 54.0017 31.2852 54.0017 30.6719 54.0017C30.6719 52.7714 30.6719 51.5411 30.6719 50.2734Z" fill="#FBFEF9"/>
<path d="M46.7812 46.543C47.5029 46.543 47.5029 46.543 47.8486 46.7459C48.2416 47.3586 48.2095 47.9986 48.1042 48.7078C47.8277 49.267 47.8277 49.267 47.5029 49.4294C47.2647 49.4294 47.0266 49.4294 46.7812 49.4294C46.7812 48.4769 46.7812 47.5243 46.7812 46.543Z" fill="#FDFEFC"/>
<path d="M14.3125 46.543C15.1544 46.543 15.1544 46.543 15.3799 46.7008C15.6531 47.1106 15.6583 47.4926 15.6655 47.9711C15.6702 48.1567 15.6702 48.1567 15.6749 48.346C15.63 48.7574 15.5188 48.9784 15.2746 49.3091C15.0341 49.4294 15.0341 49.4294 14.3125 49.4294C14.3125 48.4769 14.3125 47.5243 14.3125 46.543Z" fill="#FAFEF7"/>
<path d="M62.8968 52.4375C63.4524 52.4375 64.0081 52.4375 64.5805 52.4375C64.7687 53.0255 64.8211 53.3524 64.8211 54.001C64.1067 54.001 63.3923 54.001 62.6562 54.001C62.7217 53.4778 62.7934 52.9546 62.8968 52.4375Z" fill="#FDFEFB"/>
<path d="M38.6077 52.4375C39.1634 52.4375 39.719 52.4375 40.2915 52.4375C40.3708 52.9534 40.4502 53.4694 40.532 54.001C39.8176 54.001 39.1032 54.001 38.3672 54.001C38.4724 52.7081 38.4724 52.7081 38.6077 52.4375Z" fill="#FEFEFD"/>
<path d="M85.512 46.543C85.512 47.3367 85.512 48.1305 85.512 48.9483C84.5499 48.9483 84.5499 48.9483 84.3093 48.7228C84.0922 48.0443 84.0544 47.4135 84.377 46.7685C84.6701 46.543 84.6701 46.543 85.512 46.543Z" fill="#FBFDF7"/>
<path d="M85.273 50.7539C85.3524 50.7539 85.4317 50.7539 85.5135 50.7539C85.5135 51.8255 85.5135 52.8971 85.5135 54.0011C85.0373 54.0011 84.561 54.0011 84.0703 54.0011C84.9329 51.094 84.9329 51.094 85.273 50.7539Z" fill="#FBFEF8"/>
<path d="M63.7389 47.0234C63.7786 47.0234 63.8183 47.0234 63.8591 47.0234C63.9398 47.537 64.0198 48.0507 64.0997 48.5644C64.1341 48.7835 64.1341 48.7835 64.1692 49.0071C64.1909 49.1471 64.2126 49.287 64.235 49.4311C64.2551 49.5602 64.2753 49.6894 64.2961 49.8224C64.3402 50.1504 64.3402 50.1504 64.3402 50.5112C63.983 50.5112 63.6258 50.5112 63.2578 50.5112C63.388 49.3426 63.5292 48.1811 63.7389 47.0234Z" fill="#F9FDF4"/>
<path d="M39.3248 47.0234C39.5234 47.3795 39.6121 47.6841 39.6678 48.0871C39.6833 48.1973 39.6988 48.3075 39.7147 48.4211C39.7299 48.5353 39.7451 48.6496 39.7608 48.7673C39.7769 48.8816 39.793 48.9958 39.8096 49.1136C39.8749 49.587 39.9262 50.032 39.9262 50.5112C39.569 50.5112 39.2118 50.5112 38.8438 50.5112C38.9013 50.0877 38.959 49.6643 39.0166 49.2409C39.0409 49.0622 39.0409 49.0622 39.0657 48.8798C39.1501 48.2607 39.2355 47.6418 39.3248 47.0234Z" fill="#F9FDF4"/>
<path d="M20.6875 32.1133C21.4416 32.1133 22.1957 32.1133 22.9726 32.1133C22.6445 32.4413 22.2546 32.5638 21.83 32.7297C21.7056 32.7796 21.7056 32.7796 21.5787 32.8307C20.9602 33.0754 20.9602 33.0754 20.6875 33.0754C20.6875 32.7579 20.6875 32.4404 20.6875 32.1133Z" fill="#666770"/>
<path d="M86.3523 37.0413C86.392 37.1207 86.4317 37.2001 86.4726 37.2819C85.6947 37.4637 84.9866 37.5482 84.1875 37.5224C84.581 37.3047 84.9698 37.1886 85.4052 37.0789C85.532 37.0462 85.6588 37.0135 85.7895 36.9798C86.1118 36.9211 86.1118 36.9211 86.3523 37.0413Z" fill="#DFEBD0"/>
</g>
<defs>
<clipPath id="clip0_3901_26392">
<rect width="93.3274" height="54" fill="white"/>
</clipPath>
</defs>
</svg>
