<svg width="102" height="43" viewBox="0 0 102 43" fill="none" xmlns="http://www.w3.org/2000/svg">
<path d="M70.545 7.54914C72.2101 7.49938 70.69 12.3811 69.0816 15.4852C68.0072 17.5583 66.3801 19.6687 64.2789 20.6207C65.8198 14.6142 68.6638 7.60529 70.545 7.54914ZM43.8991 6.97173C45.5508 6.75802 44.5193 11.7661 43.2243 15.0132C42.3596 17.1823 40.9484 19.4427 38.9513 20.5968C39.8927 14.4678 42.0325 7.21293 43.8991 6.97173ZM14.3558 28.7366C14.8685 35.6216 9.37769 40.5375 6.28245 40.7678C4.33795 40.912 2.79211 39.9103 2.64113 37.881C2.28109 33.0449 6.82641 28.3741 12.4556 25.0068C13.5101 26.0199 14.2411 27.1941 14.3558 28.7366ZM97.0319 25.6929C95.1767 26.8404 94.4313 29.0811 94.2867 29.571C93.5141 31.3736 91.6954 35.0909 89.3001 35.0871C87.8228 35.0845 87.4964 32.881 87.5547 30.9943C87.6561 27.7163 88.8538 23.3293 90.644 19.2074C93.5086 20.1866 96.1146 21.0055 96.6491 20.9846C97.2995 20.9593 97.6097 18.661 97.0942 18.2073C96.8973 18.0277 94.5716 17.4003 91.8082 16.7317C92.6122 15.1499 93.4946 13.6551 94.423 12.3352C95.4021 10.8235 92.4387 10.1457 91.0559 11.7191C89.9398 12.8856 88.8974 14.2906 87.9685 15.8425C85.7785 15.3582 83.7825 14.9597 82.7766 14.8388C82.116 14.7595 81.7541 15.9105 82.4507 16.2085C83.1812 16.5208 84.879 17.1624 86.8588 17.8768C85.0966 21.421 83.9337 25.4607 83.7664 29.115C83.738 29.1465 83.7112 29.1825 83.6889 29.2289C83.2978 30.1039 80.9964 32.9409 79.6764 32.8023C77.5316 32.577 81.5659 25.9235 81.6223 25.2376C81.6941 24.5528 79.3623 23.8361 78.7952 24.2957C77.8182 25.0582 75.0578 32.0849 73.019 31.8707C69.8057 31.5331 75.3387 21.2898 78.7892 21.6525C79.7274 21.7513 80.0267 22.2813 80.24 23.0474C80.3683 23.5094 81.4481 23.7878 81.5206 22.8751C81.5929 21.9629 80.4659 19.4735 78.0343 19.2183C74.6755 18.8655 71.8557 21.5402 70.2004 24.7905C70.1665 24.8315 70.1364 24.8793 70.1141 24.9388C70.1022 24.9705 70.089 25.0061 70.0757 25.0416C69.7972 25.6138 69.5552 26.2014 69.3518 26.7918C68.4725 28.6996 66.9902 31.1561 65.0618 31.2109C63.5847 31.2526 63.1929 29.0595 63.1946 27.1721C63.1957 25.9059 63.4674 24.1159 63.9153 22.1276C66.0554 21.3211 68.3021 19.2879 70.3568 15.8548C71.5381 13.8812 74.5179 5.9797 70.3274 6.10503C64.8141 6.2697 61.3468 13.9477 59.9943 20.3158C59.7322 19.9715 59.4679 19.4851 59.1908 18.7918C59.0844 18.5262 58.7734 18.4066 58.5144 18.5288C58.2852 18.6373 58.1721 18.9001 58.2539 19.1399C58.4698 19.7718 58.8389 20.9628 59.7208 21.7518C59.4767 23.2044 59.3513 24.5455 59.3475 25.6555C59.3468 25.8218 59.3499 25.9882 59.3546 26.154C59.3432 26.1772 59.3321 26.2004 59.3236 26.2279C59.0657 27.151 57.2065 30.2956 55.8806 30.3529C53.7261 30.4456 56.737 23.2708 56.6917 22.5839C56.6621 21.8966 54.2499 21.5307 53.7562 22.0688C52.9025 22.9663 51.1616 30.3953 49.1137 30.4832C45.8855 30.6226 49.8952 19.6043 53.3621 19.4552C54.304 19.4149 54.6782 19.8952 55.0018 20.6216C55.1971 21.0593 56.3061 21.1758 56.243 20.2627C56.1802 19.3498 54.6991 17.0532 52.2564 17.1586C48.4266 17.3235 45.8585 21.2441 44.9275 25.2394C44.3439 27.2107 43.033 30.7699 40.7735 31.058C39.3082 31.2452 38.7017 29.1019 38.5175 27.2228C38.3941 25.9628 38.4879 24.155 38.738 22.1323C40.7879 21.119 42.8235 18.8743 44.5298 15.2556C45.511 13.1753 47.6978 5.01893 43.5402 5.55606C38.0698 6.26283 35.3759 14.2451 34.6572 20.7152C34.3624 20.3984 34.0514 19.9405 33.7075 19.278C33.5755 19.0238 33.2543 18.9354 33.0085 19.083C32.7912 19.2131 32.7044 19.4855 32.8096 19.7163C33.0867 20.3238 33.5712 21.4727 34.5266 22.1714C34.4266 23.6409 34.4342 24.9876 34.5396 26.0926C34.5949 26.6727 34.684 27.2484 34.8025 27.8097C34.3256 29.1761 33.2654 31.2677 32.2512 31.4625C30.1332 31.8688 32.063 24.3315 31.9177 23.6584C31.7879 22.9829 29.3482 22.9732 28.9384 23.5774C28.225 24.5903 27.6886 31.947 25.6756 32.3332C22.5024 32.9424 24.7588 21.7032 28.1662 21.0495C29.0922 20.8723 29.5329 21.2926 29.959 21.9639C30.2162 22.3685 31.3302 22.3219 31.1346 21.4277C30.9462 20.5662 29.2679 18.6283 26.9989 18.8994C22.9165 19.2263 17.8371 20.5039 13.1882 22.5778C9.84011 20.1255 5.83259 18.1118 5.45692 13.0671C5.28081 10.7006 7.15231 6.29813 12.9574 6.1292C14.6722 6.07944 18.0962 6.54454 18.3564 9.17023C18.488 9.65144 19.497 9.53937 19.5581 8.98613C19.5283 8.58666 19.46 8.21705 19.3612 7.8735C20.1739 7.36765 21.4863 6.36187 22.1139 4.84882C23.0596 2.56835 22.0895 0 22.0895 0C22.0895 0 19.5863 1.12922 18.6406 3.40969C18.2929 4.24819 18.2048 5.12484 18.2315 5.89914C16.7506 4.33918 14.3769 3.84162 12.8443 3.84162C6.61499 3.84162 1.87839 7.33258 1.87839 12.7022C1.87839 19.056 7.15539 21.1036 10.8503 23.7103C4.54155 27.0221 -0.415238 31.8717 0.0275142 37.8179C0.212626 40.3017 1.79781 43.0198 6.24808 42.9999C12.7353 42.9708 18.3851 37.7132 17.7736 29.5019C17.5828 26.9401 16.328 25.2115 14.6864 23.7679C17.7831 22.1731 21.044 20.9863 23.9039 20.3755C19.0116 24.786 19.7191 37.0628 25.0823 36.0163C26.6509 35.7102 27.5658 34.1047 28.0913 32.5519C28.6284 33.8221 29.543 35.1456 30.9803 34.8651C33.2021 34.4388 34.5899 31.7368 35.3185 29.6443C36.2606 32.2723 37.9271 34.1884 40.0053 33.9199C42.3544 33.6164 43.718 31.8219 44.6037 29.6895C44.8751 32.1233 46.0052 33.9086 48.1235 33.8107C49.7198 33.737 50.8594 32.2825 51.6065 30.8232C51.9518 32.1581 52.6633 33.601 54.1262 33.5335C56.6938 33.4229 58.6255 30.251 59.5575 28.2371C60.0974 31.431 61.662 34.0531 64.0156 33.983C66.1104 33.9202 67.5524 32.6192 68.6131 30.9107C68.6334 33.1542 69.508 34.8786 71.494 35.0809C73.0839 35.243 74.4255 33.9721 75.3792 32.6386C75.5243 34.0097 76.0156 35.5417 77.4724 35.6901C80.1471 35.9708 82.6268 32.8331 83.7868 30.9986C84.0494 34.6139 85.5874 37.8267 88.1714 37.8267C92.2545 37.8267 94.2645 33.1411 95.5128 29.798C96.4884 29.8239 97.8707 29.695 99.0556 28.9621C101.146 27.6694 101.828 24.9866 101.828 24.9866C101.828 24.9866 99.1222 24.4002 97.0319 25.6929Z" fill="#2E2D2D"/>
</svg>
