<svg width="232" height="34" viewBox="0 0 232 34" fill="none" xmlns="http://www.w3.org/2000/svg">
<g clip-path="url(#clip0_3884_25855)">
<path fill-rule="evenodd" clip-rule="evenodd" d="M47.0935 7.85959C47.5525 7.8208 48.004 7.76644 48.4554 7.77418C48.5625 7.77418 48.7232 7.99145 48.7462 8.12339C48.9222 8.94603 49.0675 9.76866 49.2052 10.5989C49.4883 12.2907 49.7561 13.9748 50.0315 15.6665C50.1004 16.0468 50.1769 16.4425 50.2611 16.7996C50.3118 16.9524 50.3757 17.1005 50.4523 17.2419C50.5661 17.043 50.6584 16.8322 50.7278 16.6133C50.9343 15.3096 51.1256 14.0058 51.3321 12.6943C51.5617 11.2431 51.8066 9.79188 52.0361 8.34849C52.0439 8.27524 52.067 8.20448 52.1039 8.1409C52.1406 8.07732 52.1904 8.0225 52.2497 7.97993C52.3091 7.93736 52.3767 7.90806 52.448 7.89396C52.5193 7.87996 52.5928 7.88143 52.6635 7.89839C52.9925 7.89839 53.3827 7.89839 53.4286 8.38729C53.5511 9.31855 53.6964 10.2497 53.8494 11.1733C54.0636 12.477 54.3085 13.7885 54.5304 15.0923C54.6146 15.5812 54.6834 16.0778 54.7752 16.5667C54.8288 16.7726 54.8952 16.9747 54.9741 17.1721C55.502 16.8617 55.4638 16.3572 55.5326 15.9459C55.8464 13.8816 56.1141 11.8096 56.4126 9.73761C56.4738 9.32629 56.5655 8.91498 56.6497 8.50366C56.6582 8.41944 56.6834 8.33781 56.7236 8.26363C56.7639 8.18955 56.8186 8.12441 56.8843 8.07226C56.9501 8.02001 57.0256 7.98187 57.1062 7.96003C57.1868 7.9381 57.271 7.93303 57.3537 7.94492C58.4478 7.94492 58.4631 7.8208 58.3254 8.99256C58.1876 10.1644 57.9733 11.4216 57.805 12.64C57.7209 13.2841 57.675 13.9282 57.5909 14.5723C57.4761 15.4803 57.346 16.396 57.2312 17.3039C57.1164 18.2119 57.0093 19.3294 56.8869 20.3382C56.7951 21.1143 56.665 21.805 56.5733 22.5345C56.4432 23.4658 56.3131 24.397 56.2212 25.3282C56.1524 25.9956 55.9612 26.2051 55.2878 26.213C54.2014 26.213 54.1631 26.2129 53.9871 25.142L53.1379 19.7097C53.0767 19.2906 53.0307 18.8794 52.9466 18.4681C52.8785 18.2321 52.7941 18.0013 52.6941 17.7774H52.5641C52.5105 18.0102 52.4416 18.2352 52.4034 18.4681C52.1279 20.0201 51.8678 21.611 51.5923 23.1864C51.447 24.0089 51.3016 24.8316 51.1179 25.6464C50.9726 26.3138 50.4064 26.1121 49.9703 26.1275C49.887 26.1432 49.8013 26.1405 49.7191 26.1195C49.637 26.0986 49.5602 26.0599 49.4942 26.0061C49.4281 25.9524 49.3742 25.8848 49.3362 25.808C49.2982 25.7312 49.277 25.6469 49.274 25.5611C49.1669 24.785 49.0139 24.0089 48.9144 23.1864C48.7385 21.7429 48.6084 20.2917 48.4324 18.8483C48.1494 16.4736 47.8509 14.0989 47.5602 11.7243C47.4224 10.6377 47.2924 9.5513 47.1547 8.45713C47.139 8.39374 47.1131 8.33348 47.0781 8.27865L47.0935 7.85959Z" fill="#2E2D2D"/>
<path fill-rule="evenodd" clip-rule="evenodd" d="M103.625 18.4821C103.625 17.7914 103.625 17.1084 103.625 16.4178C103.625 14.7493 103.564 13.0808 103.541 11.4123C103.541 10.4113 103.541 9.40241 103.541 8.39356C103.541 7.9745 103.702 7.82699 104.115 7.84256C105.821 7.88135 105.607 7.72609 105.592 9.39458C105.592 10.6285 105.522 11.8547 105.522 13.0886C105.522 14.0741 105.576 15.0597 105.576 16.0531C105.576 16.8291 105.531 17.5431 105.531 18.288C105.531 19.6151 105.531 20.9343 105.531 22.2536C105.531 23.2857 105.484 24.3179 105.462 25.3578C105.47 25.4275 105.463 25.4981 105.441 25.5646C105.418 25.631 105.382 25.6915 105.333 25.7416C105.284 25.7915 105.225 25.8298 105.16 25.8533C105.095 25.8769 105.026 25.8853 104.957 25.8778C104.313 25.839 104 25.8778 103.694 25.1793C103.189 23.9842 102.676 22.7968 102.164 21.6018C101.927 21.0585 101.666 20.5308 101.445 19.9721C101.085 19.0486 100.749 18.1095 100.389 17.1784C100.259 16.8601 100.083 16.5575 99.8766 16.1462C99.7839 16.3557 99.7158 16.4333 99.7231 16.5032C99.7231 17.2792 99.7839 18.0553 99.7766 18.7925C99.7694 19.5297 99.7158 20.4687 99.6922 21.3068C99.6922 21.5629 99.6922 21.819 99.6922 22.0828C99.6922 23.2392 99.6467 24.411 99.6004 25.5595C99.6004 26.0252 99.2025 26.258 98.6139 26.1959C98.5375 26.1959 98.4603 26.1493 98.384 26.1416C97.6727 26.095 97.5501 25.8855 97.5728 25.1327C97.5728 23.8833 97.5728 22.6338 97.5728 21.3767C97.5728 20.2747 97.5728 19.1728 97.5728 18.0708C97.5728 16.9688 97.5728 16.022 97.5728 14.9666C97.5728 14.2605 97.6264 13.5465 97.6346 12.8403C97.6346 11.327 97.6346 9.8059 97.6882 8.28493C97.6873 8.17445 97.72 8.06646 97.7799 7.9745C98.0243 7.59424 99.2489 7.64851 99.4015 8.06757C99.8684 9.33257 100.297 10.6131 100.741 11.8857C100.894 12.3436 101.047 12.8014 101.223 13.2515C101.82 14.8398 102.424 16.4307 103.036 18.0242C103.131 18.2058 103.244 18.3774 103.373 18.5364L103.595 18.4821" fill="#2E2D2D"/>
<path fill-rule="evenodd" clip-rule="evenodd" d="M80.1937 25.1782C80.1937 24.2625 80.1937 23.3467 80.1937 22.431C80.1937 21.8025 80.2702 21.1739 80.2549 20.553C80.2549 19.777 80.1401 19.0708 80.1172 18.3258C80.1172 17.8834 80.1707 17.4333 80.186 16.9832C80.186 16.3004 80.186 15.6251 80.186 14.95C80.186 14.1274 80.2549 13.3126 80.2549 12.4977C80.2549 11.6829 80.2013 10.6895 80.1937 9.78157C80.186 9.21877 80.2167 8.65607 80.2854 8.0976C80.32 7.99661 80.3798 7.90641 80.4589 7.83564C80.538 7.76497 80.6337 7.71623 80.7369 7.69402C81.1181 7.67071 81.5005 7.70996 81.8693 7.81049C81.9459 7.85435 82.0114 7.91581 82.0605 7.98989C82.1097 8.06397 82.1411 8.14865 82.1523 8.23729C82.1982 9.45567 82.2136 10.6663 82.2441 11.8847C82.2249 11.9794 82.2249 12.0771 82.2441 12.1718C82.3053 12.3037 82.3895 12.4666 82.5043 12.5133C82.6191 12.5598 82.7721 12.4201 82.8333 12.3192C83.3459 11.4656 83.8509 10.6119 84.3635 9.74278C84.616 9.30041 84.8608 8.84256 85.0751 8.37697C85.1878 8.12497 85.3886 7.92438 85.6388 7.81399C85.889 7.70361 86.1707 7.69126 86.4293 7.77944C87.248 7.90355 87.3321 8.0976 86.9572 8.86587C86.5823 9.63414 86.2609 10.4179 85.909 11.194C85.7551 11.5944 85.5788 11.9857 85.3811 12.3658C85.054 12.9462 84.8675 13.5971 84.8369 14.265C84.8062 14.9329 84.9324 15.5985 85.2051 16.2072C85.6718 17.5265 85.9702 18.9 86.414 20.2349C86.7354 21.2748 87.1332 22.2991 87.4622 23.339C87.7071 24.115 87.906 24.8911 88.0972 25.6671C88.0972 25.7524 87.9671 25.9698 87.8754 25.9853C87.4659 26.0537 87.0505 26.0797 86.6359 26.0629C86.5378 26.045 86.4451 26.0051 86.3643 25.9459C86.2835 25.8869 86.2169 25.8101 86.1692 25.7215C85.955 25.186 85.7943 24.635 85.6259 24.084C85.4041 23.3467 85.1898 22.6095 84.9603 21.8723C84.6083 20.7238 84.2487 19.583 83.8815 18.4344C83.7541 17.9661 83.5824 17.5113 83.3689 17.0764C83.2465 16.8514 82.9327 16.7194 82.7109 16.5409C82.5655 16.7893 82.2977 17.0298 82.2824 17.2782C82.2059 18.5586 82.16 19.839 82.16 21.1195C82.16 22.4 82.2288 23.7348 82.2595 25.0541C82.2595 25.9853 82.137 26.1405 81.2342 26.1948C80.3314 26.2492 80.1707 26.0862 80.1554 25.186" fill="#2E2D2D"/>
<path fill-rule="evenodd" clip-rule="evenodd" d="M60.1012 26.085C60.0855 25.8628 60.0855 25.6398 60.1012 25.4176C60.3078 23.9742 60.5297 22.5463 60.7363 21.1106C60.8816 20.1173 61.0041 19.1239 61.1494 18.1384C61.333 16.8812 61.532 15.624 61.7232 14.3746C61.9451 12.9855 62.1517 11.6041 62.4042 10.2227C62.5208 9.55415 62.695 8.89718 62.9245 8.25938C62.9962 8.13573 63.0924 8.02848 63.207 7.94426C63.3215 7.86014 63.452 7.80098 63.5901 7.77048C63.9843 7.72755 64.3818 7.72755 64.776 7.77048C64.9375 7.75464 65.0989 7.80218 65.2269 7.90317C65.3549 8.00415 65.44 8.15103 65.4647 8.31366C65.6559 9.16734 65.8702 10.0132 66.0308 10.8669C66.2527 12.0386 66.4287 13.195 66.62 14.3901C66.8648 15.8878 67.0943 17.3856 67.3392 18.8756C67.5228 19.9776 67.7447 21.064 67.9207 22.166C68.0967 23.2679 68.2344 24.401 68.3874 25.5185C68.3861 25.7002 68.3733 25.8816 68.3491 26.0617C67.8441 26.0617 67.3315 26.1471 66.8189 26.1239C66.7228 26.0966 66.6345 26.0465 66.5613 25.9775C66.4881 25.9087 66.4322 25.8232 66.3981 25.728C66.2757 25.2314 66.245 24.7114 66.1227 24.1759C66.0226 23.723 65.8792 23.2811 65.6942 22.8566C65.5862 22.6582 65.4206 22.4983 65.2199 22.3988C64.9469 22.262 64.6468 22.1902 64.3424 22.1886C64.038 22.1869 63.7372 22.2558 63.4629 22.3897C63.1885 22.5235 62.9479 22.719 62.7591 22.9613C62.5704 23.2035 62.4386 23.4862 62.3736 23.7879C62.2436 24.401 62.0829 25.0063 61.9451 25.6194C61.9298 25.7504 61.8659 25.8706 61.7665 25.9555C61.6671 26.0406 61.5394 26.084 61.4096 26.0772H60.0859L60.1012 26.085ZM62.9704 18.5807C62.9704 19.1007 62.9704 19.5663 63.5365 19.8379C63.7428 19.9615 63.9779 20.0266 64.2175 20.0266C64.457 20.0266 64.6922 19.9615 64.8985 19.8379C65.0902 19.7151 65.2397 19.5349 65.3261 19.3221C65.4124 19.1093 65.4314 18.8748 65.3805 18.6506C65.2963 17.9133 65.1815 17.1838 65.0668 16.4466C64.8908 15.2515 64.7072 14.0486 64.5083 12.8535C64.5083 12.7216 64.3093 12.6207 64.2099 12.5043C64.0874 12.6207 63.8732 12.7293 63.8503 12.869C63.5443 14.7626 63.2611 16.6561 62.9704 18.5574" fill="#2E2D2D"/>
<path fill-rule="evenodd" clip-rule="evenodd" d="M113.949 25.6566C112.985 26.8362 110.491 26.3861 109.787 24.7409C109.545 24.165 109.405 23.5502 109.374 22.9249C109.313 21.9238 109.374 20.915 109.374 19.914C109.374 18.7576 109.374 17.5858 109.328 16.445C109.328 15.7854 109.374 15.1258 109.374 14.4739C109.374 14.0548 109.321 13.628 109.374 13.209C109.35 11.9548 109.536 10.7057 109.925 9.51494C110.088 9.03129 110.372 8.59795 110.746 8.25574C111.121 7.91362 111.576 7.67396 112.067 7.55934C112.835 7.40381 113.63 7.4683 114.363 7.74565C114.872 8.04004 115.277 8.49116 115.518 9.03387C115.936 9.94975 116.064 10.9745 115.885 11.9673C115.824 12.5725 115.12 12.3863 114.768 12.4716C114.692 12.5022 114.611 12.5134 114.529 12.5043C114.448 12.4951 114.371 12.4658 114.304 12.419C114.236 12.3722 114.181 12.3094 114.144 12.236C114.106 12.1627 114.086 12.0811 114.087 11.9983C114.087 11.5637 113.927 11.1369 113.927 10.7101C113.927 10.0893 113.613 9.83319 113.024 9.71673C112.745 9.70088 112.468 9.77385 112.231 9.92552C111.996 10.0773 111.813 10.3 111.707 10.5627C111.566 11.0425 111.478 11.5372 111.448 12.0371C111.448 13.7211 111.524 15.4051 111.57 17.0814C111.57 17.5625 111.57 18.0437 111.57 18.5248C111.608 20.1467 111.646 21.7687 111.707 23.3905C111.727 23.6286 111.831 23.8514 112 24.0182C112.169 24.185 112.39 24.2845 112.626 24.2986C112.875 24.3066 113.12 24.2363 113.329 24.0973C113.537 23.9585 113.698 23.7577 113.789 23.5225C113.897 23.1596 113.956 22.7838 113.965 22.405C113.982 21.628 113.954 20.8506 113.88 20.0769C113.827 19.6578 113.399 19.4639 112.955 19.5259C112.511 19.588 112.373 19.5259 112.373 19.0292V18.6878C112.373 17.9117 112.527 17.8031 113.276 17.8496C113.769 17.8638 114.263 17.8431 114.753 17.7875C114.9 17.7622 115.049 17.7701 115.192 17.8108C115.335 17.8514 115.467 17.9237 115.579 18.0224C115.691 18.1212 115.78 18.2439 115.84 18.3818C115.899 18.5197 115.928 18.6692 115.923 18.8197C115.923 20.2166 115.923 21.629 115.923 23.0336C115.923 23.7631 115.923 24.5003 115.923 25.2376C115.923 25.6566 115.87 25.936 115.365 25.9127C115.132 25.9462 114.897 25.9644 114.661 25.9671C114.428 25.891 114.205 25.7867 113.996 25.6566" fill="#2E2D2D"/>
<path fill-rule="evenodd" clip-rule="evenodd" d="M73.8538 11.1086C73.8538 12.4357 73.8538 13.7704 73.8538 15.0897C73.8538 15.9589 73.7466 16.8202 73.7543 17.6894C73.7543 19.063 73.8307 20.4444 73.8613 21.8179C73.8613 22.237 73.8613 22.6561 73.8613 23.0829C73.8613 23.7115 74.1215 23.9521 74.7412 23.9521H76.172C76.2436 23.9411 76.3166 23.9456 76.3863 23.9653C76.456 23.9849 76.5208 24.0194 76.5764 24.0663C76.6321 24.1132 76.6773 24.1716 76.7091 24.2375C76.741 24.3034 76.7587 24.3754 76.7611 24.4487C76.8031 24.8953 76.8031 25.3448 76.7611 25.7912C76.7611 25.9309 76.4168 26.125 76.2256 26.1327C75.1621 26.1327 74.0986 26.1327 73.0274 26.0939C72.1858 26.0939 71.8338 25.768 71.8109 24.8989C71.8109 23.9055 71.8109 22.9045 71.8109 21.9034C71.8109 19.9478 71.8109 18.0231 71.8109 16.0442C71.8109 15.1906 71.8109 14.3369 71.8109 13.4833C71.8109 11.7605 71.7853 10.0403 71.7344 8.32261C71.7344 7.92687 72.0021 7.8725 72.2623 7.83371C72.5646 7.79501 72.8705 7.79501 73.1728 7.83371C73.5171 7.8725 73.823 8.04324 73.823 8.4623C73.823 9.36251 73.823 10.255 73.823 11.1396L73.8538 11.1086Z" fill="#2E2D2D"/>
<path fill-rule="evenodd" clip-rule="evenodd" d="M93.3612 9.37767V15.392C93.3612 16.7346 93.3612 18.0772 93.3612 19.4196V23.5405C93.3612 24.2001 93.3612 24.8597 93.3612 25.5194C93.3612 25.8841 93.2004 26.0083 92.8643 25.9927H92.1911C91.3726 25.9927 91.4262 25.9384 91.3417 25.1702C91.25 24.0992 91.2727 23.0128 91.2573 21.934C91.2418 20.8553 91.2573 19.8775 91.2573 18.8299C91.2573 18.0538 91.3336 17.2778 91.3336 16.5017C91.3336 15.7257 91.2654 14.8332 91.25 13.9951C91.25 13.3511 91.25 12.7069 91.25 12.0628C91.25 11.4187 91.25 10.7436 91.25 10.0917C91.25 9.43977 91.25 8.96644 91.3036 8.4077C91.3009 8.3338 91.3136 8.26018 91.3417 8.19209C91.3699 8.12391 91.4126 8.06291 91.4662 8.01325C91.5207 7.96367 91.5843 7.92673 91.6543 7.90507C91.7242 7.88333 91.7978 7.87743 91.8696 7.88775C92.153 7.88775 92.4437 7.88775 92.7344 7.88775C93.0251 7.88775 93.2849 8.09728 93.3158 8.43092C93.3467 8.76466 93.3158 9.08282 93.3158 9.40872L93.3612 9.37767Z" fill="#2E2D2D"/>
<path fill-rule="evenodd" clip-rule="evenodd" d="M175.353 26.1857C174.795 26.0286 174.251 25.8288 173.724 25.5882C173.241 25.3064 172.844 24.8967 172.574 24.4031C172.305 23.9095 172.173 23.3507 172.193 22.7867C172.086 21.1027 172.124 19.4109 172.124 17.7269C172.124 15.6549 172.124 13.5829 172.186 11.5186C172.231 10.2924 172.354 9.01197 173.425 8.15837C173.827 7.8228 174.304 7.59235 174.815 7.48694C175.325 7.38153 175.853 7.40448 176.353 7.55374C176.852 7.70301 177.308 7.97409 177.681 8.34321C178.053 8.71242 178.331 9.16851 178.49 9.6716C178.67 10.3038 178.743 10.9626 178.704 11.6195C178.704 12.8689 178.704 14.1261 178.704 15.3832C178.743 16.8966 178.88 18.4098 178.85 19.9231C178.819 21.4364 179.117 23.1748 178.13 24.5794C177.699 25.0762 177.211 25.5191 176.677 25.8986C176.562 26.0009 176.442 26.0968 176.317 26.1857H175.353ZM174.151 21.0018C174.151 21.4982 174.19 21.9938 174.267 22.4841C174.354 22.8886 174.535 23.2663 174.795 23.586C174.978 23.7878 175.483 23.9896 175.62 23.8887C175.973 23.6249 176.592 23.6016 176.608 22.9497C176.608 21.7235 176.722 20.4896 176.722 19.2635C176.722 16.8655 176.722 14.4675 176.653 12.0696C176.631 11.5491 176.574 11.0306 176.485 10.5175C176.476 10.3991 176.443 10.2839 176.389 10.1783C176.335 10.0728 176.262 9.97908 176.172 9.9026C176.083 9.82612 175.979 9.76844 175.867 9.73278C175.756 9.69713 175.638 9.68423 175.521 9.69491C175.32 9.73573 175.129 9.81728 174.959 9.93467C174.79 10.052 174.646 10.2027 174.535 10.3779C174.296 10.8262 174.17 11.3273 174.167 11.8368C174.167 14.941 174.167 18.0451 174.167 21.0329" fill="#2E2D2D"/>
<path fill-rule="evenodd" clip-rule="evenodd" d="M227.376 15.0898C227.115 16.1141 226.886 17.1462 226.61 18.1474C226.3 19.2841 225.599 20.2715 224.637 20.9333C224.401 21.0867 224.143 21.2019 223.871 21.2748C222.449 21.6784 222.181 22.0508 222.188 23.5175C222.188 24.1229 222.188 24.7204 222.12 25.3257C222.051 25.9311 221.691 26.1018 220.857 26.0474C220.314 26.0474 220.298 25.6361 220.306 25.2714C220.306 23.2071 220.398 21.1351 220.406 19.0631C220.406 17.3015 220.345 15.5399 220.345 13.7782C220.345 12.5444 220.397 11.3104 220.444 10.0766C220.42 9.52739 220.479 8.97768 220.62 8.44685C220.715 8.267 220.844 8.10916 221.003 7.98348C221.161 7.8578 221.343 7.76722 221.538 7.71737C222.269 7.55235 223.029 7.57677 223.749 7.78841C224.468 7.99997 225.123 8.39185 225.655 8.92801C226.36 9.68597 226.822 10.6442 226.978 11.6752C227.131 12.3503 227.253 13.0255 227.392 13.7006L227.376 15.0898ZM222.242 14.1973V14.8337C222.288 15.9977 222.319 17.1618 222.387 18.3336C222.387 18.7449 222.663 19.0553 223.084 18.7914C223.537 18.5321 223.935 18.1838 224.254 17.7671C225.052 16.524 225.381 15.0303 225.179 13.561C225.133 12.4177 224.767 11.3114 224.124 10.3714C223.989 10.1508 223.78 9.98745 223.534 9.9118C223.29 9.83616 223.027 9.85329 222.793 9.96008C222.639 10.081 222.513 10.2347 222.424 10.4104C222.336 10.5861 222.287 10.7795 222.28 10.9768C222.219 12.0476 222.28 13.1263 222.28 14.1973" fill="#2E2D2D"/>
<path fill-rule="evenodd" clip-rule="evenodd" d="M196.013 26.1876C195.314 25.8919 194.656 25.5058 194.054 25.0391C193.044 24.0302 192.991 22.6256 192.937 21.2753C192.937 21.1279 192.937 20.9959 192.937 20.8484C192.937 20.3905 192.991 20.018 193.58 19.9948C194.445 19.9948 194.667 20.0957 194.759 20.7708C194.85 21.446 194.949 22.059 195.072 22.6955C195.105 22.953 195.226 23.1903 195.415 23.3652C195.605 23.5401 195.85 23.641 196.105 23.6499C196.393 23.7172 196.694 23.6754 196.954 23.5325C197.213 23.3896 197.412 23.1552 197.513 22.8739C198.163 21.2132 198.018 18.7221 196.197 17.527C195.294 16.9374 194.486 16.2097 193.802 15.3696C192.639 13.9029 192.815 12.149 193.144 10.4184C193.247 9.71925 193.564 9.07048 194.05 8.56362C194.536 8.05684 195.166 7.71758 195.852 7.59365C196.184 7.49828 196.531 7.47543 196.871 7.52657C197.211 7.57771 197.537 7.70173 197.826 7.89034C198.116 8.07905 198.362 8.32792 198.55 8.62065C198.737 8.91338 198.861 9.24316 198.913 9.58804C198.992 10.0468 199.033 10.5115 199.035 10.9772C199.054 11.1535 199.026 11.3316 198.955 11.4938C198.885 11.656 198.774 11.7966 198.633 11.9017C198.492 12.0068 198.327 12.0728 198.153 12.093C197.98 12.1133 197.804 12.0871 197.643 12.0171C197.467 11.9628 197.329 11.7377 197.207 11.567C197.084 11.3963 197.153 11.3497 197.138 11.2333C197.015 10.1002 196.824 9.79766 196.212 9.78983C195.6 9.78209 195.011 10.465 194.835 11.2488C194.383 13.3053 195.439 14.5936 196.97 15.6179C197.917 16.1886 198.687 17.0163 199.196 18.0076C199.704 18.9989 199.929 20.1145 199.847 21.2287C199.769 22.29 199.546 23.3351 199.181 24.3329C198.972 24.787 198.663 25.1866 198.279 25.5013C197.894 25.816 197.444 26.0375 196.962 26.1488L196.013 26.1876Z" fill="#2E2D2D"/>
<path fill-rule="evenodd" clip-rule="evenodd" d="M135.573 18.6526C135.251 20.1115 134.945 21.5704 134.609 23.0293C134.417 23.8597 134.165 24.6746 133.958 25.4972C133.843 25.9783 133.499 25.9318 133.147 25.9318C132.796 25.9318 132.474 25.9318 132.382 25.4429C132.145 24.3254 131.885 23.2156 131.617 22.1136C131.365 21.1281 131.081 20.1425 130.798 19.1569C130.798 19.0406 130.675 18.9319 130.438 18.8465C130.362 20.0106 130.301 21.1746 130.217 22.3542C130.133 23.5338 130.064 24.4495 129.926 25.4584C129.811 26.3275 129.092 26.0094 128.595 26.0327C128.097 26.0559 128.09 25.6058 128.105 25.2566C128.22 23.1846 128.358 21.1125 128.45 19.0483C128.526 17.3798 128.503 15.7036 128.602 14.0273C128.717 12.1726 128.908 10.3179 129.123 8.47089C129.124 8.30283 129.186 8.14103 129.297 8.01664C129.409 7.89225 129.562 7.81384 129.727 7.79661C129.891 7.77928 130.057 7.82425 130.191 7.92293C130.326 8.02152 130.419 8.16692 130.454 8.33121C130.829 9.6737 131.12 11.0396 131.433 12.3977C131.855 14.1825 132.267 15.9752 132.703 17.7678C132.804 18.0755 132.924 18.3762 133.063 18.668C133.308 18.3371 133.514 17.9775 133.675 17.5971C134.035 16.0993 134.341 14.5938 134.692 13.0961C135.045 11.5983 135.457 9.99195 135.833 8.4942C135.924 8.09837 136.101 7.80352 136.597 7.85005C136.697 7.84618 136.796 7.86405 136.888 7.90238C136.981 7.94062 137.063 7.99849 137.132 8.07201C137.2 8.14554 137.252 8.23308 137.283 8.32863C137.315 8.42427 137.327 8.52562 137.317 8.62606C137.417 10.2403 137.539 11.8544 137.639 13.4685C137.761 15.5328 137.891 17.6048 137.983 19.6769C138.066 21.5393 138.097 23.4096 138.166 25.2721C138.166 25.9395 137.853 26.118 137.256 26.0948C136.659 26.0715 136.253 25.8697 136.23 25.1635C136.185 23.5287 136.121 21.8938 136.04 20.2589C136.04 19.7312 135.924 19.219 135.863 18.7068H135.611" fill="#2E2D2D"/>
<path fill-rule="evenodd" clip-rule="evenodd" d="M156.921 18.4288C156.921 17.3268 156.921 16.217 156.921 15.115C156.921 12.8956 156.922 10.6683 156.86 8.44106C156.86 8.03757 157.028 7.92894 157.396 7.91337C158.926 7.85909 158.926 7.85909 158.926 9.42669C158.926 12.624 158.926 15.8213 158.865 19.0186C158.865 20.9586 158.865 22.8987 158.781 24.8466C158.781 25.1259 158.59 25.6226 158.398 25.6226C157.955 25.7468 157.404 25.7933 157.151 25.2113C156.631 24.0472 156.111 22.8832 155.621 21.7114C154.917 20.0196 154.251 18.3123 153.556 16.6128C153.459 16.4363 153.347 16.2699 153.218 16.1161C153.175 16.2973 153.144 16.4815 153.127 16.6671C153.127 19.2591 153.127 21.8511 153.127 24.4275C153.106 24.7741 153.062 25.1189 152.997 25.4597C153.002 25.5061 153.002 25.5529 152.997 25.5994C152.794 25.8022 152.537 25.9393 152.258 25.9932C151.978 26.0471 151.69 26.0154 151.428 25.902C151.206 25.7701 151.099 25.3588 151.046 25.0561C151.023 24.684 151.023 24.3108 151.046 23.9386C151.046 22.1227 150.962 20.3068 150.969 18.5063C150.976 16.7059 151.046 14.8512 151.092 13.0197C151.092 11.5297 151.16 10.032 151.229 8.53421C151.229 8.28589 151.452 7.82804 151.551 7.83578C152.009 7.83578 152.637 7.46326 152.89 8.14621C153.348 9.36459 153.724 10.6063 154.167 11.8324C154.933 13.8734 155.698 15.9143 156.462 17.9476C156.551 18.1268 156.661 18.2937 156.791 18.4442L156.983 18.4055" fill="#2E2D2D"/>
<path fill-rule="evenodd" clip-rule="evenodd" d="M210.363 10.8232C210.363 12.7633 210.363 14.7034 210.363 16.6357C210.363 19.3053 210.363 21.9749 210.409 24.6445C210.434 24.8661 210.4 25.0905 210.309 25.2938C210.219 25.4971 210.076 25.6718 209.895 25.7991C209.714 25.9266 209.504 26.0018 209.284 26.0172C209.065 26.0325 208.845 25.9872 208.65 25.8861C208.56 25.83 208.485 25.754 208.429 25.6639C208.374 25.5737 208.339 25.4719 208.328 25.3662C208.259 24.435 208.244 23.496 208.206 22.5647C208.206 22.037 208.159 21.5015 208.129 20.9661C208.076 20.19 207.792 19.9572 206.905 19.9184C206.14 19.8796 205.627 20.19 205.589 20.8109C205.52 21.7421 205.543 22.6733 205.536 23.6046C205.536 24.2332 205.536 24.8695 205.482 25.4904C205.445 25.5961 205.383 25.691 205.302 25.7668C205.22 25.8426 205.122 25.8969 205.015 25.925C203.577 26.1345 203.484 26.0647 203.484 24.6135C203.484 23.4339 203.484 22.2853 203.484 21.0747C203.484 18.6069 203.484 16.1391 203.484 13.6713C203.484 11.9717 203.576 10.28 203.553 8.58048C203.553 7.74236 204.013 7.80437 204.579 7.80437C205.145 7.80437 205.558 7.92084 205.55 8.63475C205.55 11.2035 205.55 13.7722 205.55 16.3331C205.55 16.8919 205.596 17.4506 206.193 17.6756C206.392 17.7949 206.617 17.8619 206.847 17.8706C207.078 17.8792 207.307 17.8292 207.514 17.7251C207.721 17.621 207.899 17.4661 208.032 17.2744C208.165 17.0829 208.248 16.8606 208.275 16.628C208.32 14.1602 208.32 11.7001 208.344 9.23228C208.328 9.04643 208.328 8.85948 208.344 8.67354C208.465 7.85874 208.702 7.72679 209.721 7.80437C210.394 7.85874 210.363 8.3399 210.356 8.82106V10.8542L210.363 10.8232Z" fill="#2E2D2D"/>
<path fill-rule="evenodd" clip-rule="evenodd" d="M184.892 7.74287C185.416 7.7085 185.941 7.79705 186.425 8.0016C186.909 8.20615 187.341 8.52127 187.685 8.92245C188.305 9.65488 188.767 10.5116 189.039 11.4368C189.653 13.676 189.557 16.0543 188.764 18.2349C188.558 18.7859 188.144 19.2593 187.907 19.787C187.699 20.1794 187.604 20.623 187.632 21.0675C187.854 22.3945 188.174 23.706 188.473 25.0253C188.572 25.4676 188.726 25.9177 188.06 26.0419C187.096 26.2126 186.676 25.9953 186.53 25.3201C186.361 24.319 186.2 23.3024 185.949 22.3246C185.893 22.1487 185.801 21.9877 185.676 21.8532C185.552 21.7189 185.399 21.6148 185.229 21.5486C184.693 21.4399 184.579 21.8823 184.556 22.3634C184.556 23.3412 184.395 24.319 184.387 25.2969C184.387 25.778 184.212 25.9255 183.79 25.9099H183.653C182.245 25.9099 182.498 26.0341 182.482 24.7226C182.482 22.0297 182.399 19.3291 182.375 16.6362C182.375 15.8602 182.467 15.0842 182.482 14.2616C182.482 12.7095 182.482 11.1574 182.482 9.60531C182.482 7.92908 182.727 7.71181 184.847 7.72729L184.892 7.74287ZM184.364 14.7117H184.434C184.434 15.8835 184.434 17.0398 184.434 18.2194C184.434 18.9954 184.785 19.1894 185.397 18.7859C185.917 18.4615 186.357 18.0208 186.683 17.4976C187.256 16.3202 187.474 14.9976 187.311 13.6951C187.286 12.3444 186.736 11.0583 185.78 10.1175C185.662 10.0184 185.525 9.94568 185.377 9.90422C185.229 9.86275 185.075 9.85345 184.923 9.87694C184.731 9.93131 184.533 10.3348 184.518 10.5909C184.418 11.9645 184.38 13.3381 184.319 14.7117" fill="#2E2D2D"/>
<path fill-rule="evenodd" clip-rule="evenodd" d="M143.985 21.8894V22.2386C143.985 23.9847 144.208 23.5967 145.516 23.7285C145.898 23.7673 146.281 23.7829 146.679 23.845C146.793 23.845 146.992 23.9847 146.992 24.07C147.065 24.6293 147.037 25.1973 146.909 25.7462C146.84 25.9636 146.182 26.0334 145.784 26.0489C144.919 26.0955 144.047 26.0489 143.175 26.0489C142.302 26.0489 141.966 25.7851 141.905 24.9314C141.843 24.0778 141.851 23.1155 141.843 22.2075C141.843 20.5468 141.79 18.8938 141.798 17.2409C141.798 15.2386 141.851 13.2365 141.881 11.2343C141.881 10.6833 141.881 10.1324 141.881 9.58138C141.935 8.37848 142.433 7.7732 143.58 7.69553C144.499 7.63352 145.431 7.69553 146.365 7.69553C147.13 7.69553 147.13 8.2621 147.13 8.76648C147.13 9.27095 147.176 9.79091 146.449 9.8297C145.959 9.8297 145.47 9.96155 144.988 9.95381C144.222 9.95381 143.971 10.4583 143.971 11.0869C143.971 13.0321 144.019 14.9852 144.116 16.9459C144.116 17.171 144.421 17.4039 144.628 17.5901C144.768 17.6685 144.928 17.7035 145.087 17.691C146.556 17.7531 146.618 17.9005 146.419 19.4293C146.357 19.8251 146.189 20.0035 145.776 19.9493C145.499 19.9143 145.219 19.9143 144.942 19.9493C144.222 20.0346 143.963 20.3683 143.978 21.1133V21.8195" fill="#2E2D2D"/>
<path fill-rule="evenodd" clip-rule="evenodd" d="M164.637 17.9868V11.0024C164.637 10.0634 164.284 9.7297 163.328 9.74527C162.487 9.74527 162.418 9.65212 162.349 8.71311C162.295 7.99137 162.693 7.89831 163.244 7.9371C164.996 7.9371 166.756 7.9992 168.508 7.9371C169.388 7.9371 169.212 8.57342 169.274 9.03901C169.334 9.50469 169.051 9.81511 168.577 9.91601C166.786 10.2342 166.817 10.2264 166.824 12.1122C166.824 14.5102 166.786 16.9159 166.771 19.3138C166.771 21.0677 166.771 22.8138 166.771 24.5676C166.771 24.9634 166.703 25.3436 166.656 25.7472C166.656 25.817 166.611 25.9335 166.58 25.9335C166.046 25.9993 165.507 25.9993 164.973 25.9335C164.79 25.9335 164.583 25.3824 164.583 25.0876C164.583 23.1862 164.583 21.2927 164.583 19.3992C164.583 18.9336 164.583 18.4601 164.583 17.9946L164.637 17.9868Z" fill="#2E2D2D"/>
<path fill-rule="evenodd" clip-rule="evenodd" d="M214.312 15.5249C214.312 13.2977 214.312 11.0782 214.312 8.85098C214.312 8.24561 214.419 7.87318 215.146 7.90414C216.278 7.94302 216.347 7.90413 216.355 8.81992C216.355 12.3431 216.355 15.8741 216.355 19.3973C216.355 20.9882 216.424 22.5791 216.446 24.17C216.452 24.5886 216.418 25.007 216.347 25.4194C216.347 25.5591 216.14 25.6754 216.018 25.7919C215.896 25.9083 215.934 25.7919 215.888 25.7919C214.587 25.7453 214.358 26.1566 214.358 24.333C214.412 22.0514 214.312 19.762 214.273 17.4728C214.273 16.8209 214.273 16.1613 214.273 15.5094L214.312 15.5249Z" fill="#2E2D2D"/>
<path d="M18.8977 13.7428C21.5584 13.7428 27.7481 8.03131 28.0689 7.72835C24.9326 5.39442 21.6137 3.54297 18.8977 3.54297C16.1818 3.54297 12.8131 5.39442 9.72656 7.72835C10.0474 8.03131 16.2316 13.7428 18.8977 13.7428Z" fill="#2E2D2D"/>
<path d="M15.6464 17.0383C15.6464 14.334 10.0099 8.06144 9.72224 7.73047C6.13111 10.5194 2.7984 13.6349 -0.234375 17.0383C2.80089 20.4374 6.13337 23.5509 9.72224 26.3404C10.0155 26.0094 15.6464 19.7369 15.6464 17.0383Z" fill="#2E2D2D"/>
<path d="M18.8977 20.3242C16.2371 20.3242 10.0474 26.0357 9.72656 26.3386C12.8408 28.6726 16.1763 30.524 18.8977 30.524C21.6192 30.524 24.9547 28.6726 28.0689 26.3386C27.7481 26.0357 21.5584 20.3242 18.8977 20.3242Z" fill="#2E2D2D"/>
<path d="M28.0648 7.73047C27.7716 8.05591 22.1406 14.334 22.1406 17.0383C22.1406 19.7425 27.7716 26.015 28.0648 26.3404C31.6523 23.5491 34.9846 20.4359 38.0215 17.0383C34.9871 13.6365 31.6546 10.521 28.0648 7.73047Z" fill="#2E2D2D"/>
</g>
<defs>
<clipPath id="clip0_3884_25855">
<rect width="232" height="34" fill="white"/>
</clipPath>
</defs>
</svg>
