<svg width="142" height="36" viewBox="0 0 142 36" fill="none" xmlns="http://www.w3.org/2000/svg">
<g clip-path="url(#clip0_3884_25549)">
<path d="M63.1359 26.4128C63.1359 26.199 63.1895 26.1242 63.4253 26.1242H64.3613C65.9655 26.1242 66.7372 26.5732 66.7372 27.7419C66.7372 28.9107 65.944 29.4309 64.3613 29.4309H63.4253C63.1895 29.4309 63.1359 29.3596 63.1359 29.1423V26.4128ZM59.7169 23.6477V35.2499C59.7169 35.592 59.8598 35.7344 60.2027 35.7344H62.6322C62.993 35.7344 63.1359 35.592 63.1359 35.2499V32.6629C63.1359 32.4491 63.2074 32.3921 63.4253 32.3921H64.5043C68.2484 32.3921 70.2491 30.7921 70.2491 27.7206C70.2491 24.649 68.3592 23.1595 64.5936 23.1595H60.1992C59.8562 23.1595 59.7133 23.302 59.7133 23.6441M59.8419 13.9696L54.8653 15.0244C54.8867 15.3273 54.8581 15.623 54.7902 15.9081L60.2027 14.7607L59.8455 13.9696H59.8419ZM54.6866 14.1941L59.4811 13.1786L59.1238 12.3875L54.2579 13.4209C54.4365 13.6525 54.583 13.9162 54.6866 14.1977M46.841 23.6477V25.7856C46.841 26.1099 47.0019 26.2703 47.3269 26.2703H50.0457C50.2601 26.2703 50.3351 26.3415 50.3351 26.5589V35.2534C50.3351 35.5955 50.478 35.738 50.821 35.738H53.2682C53.6112 35.738 53.7541 35.5955 53.7541 35.2534V26.5589C53.7541 26.3451 53.8256 26.2703 54.0435 26.2703H56.7623C57.1053 26.2703 57.2482 26.1277 57.2482 25.7856V23.6477C57.2482 23.3056 57.1053 23.163 56.7623 23.163H47.3269C47.0019 23.163 46.841 23.3234 46.841 23.6477ZM40.9819 23.6477V35.2499C40.9819 35.592 41.1248 35.7344 41.4678 35.7344H43.8972C44.258 35.7344 44.401 35.592 44.401 35.2499V23.6477C44.401 23.3056 44.258 23.163 43.8972 23.163H41.4678C41.1248 23.163 40.9819 23.3056 40.9819 23.6477ZM30.9142 26.3059C30.9142 26.0921 30.9677 26.0173 31.2035 26.0173H32.5183C33.7615 26.0173 34.2653 26.288 34.2653 27.0043C34.2653 27.7206 33.7437 28.0092 32.5183 28.0092H31.2035C30.9677 28.0092 30.9142 27.9379 30.9142 27.7206V26.3023V26.3059ZM30.9142 31.0665C30.9142 30.8349 30.9677 30.7779 31.2035 30.7779H32.7505C34.0652 30.7779 34.6226 31.0843 34.6226 31.8184C34.6226 32.5524 34.101 32.8767 32.7505 32.8767H31.2035C30.9677 32.8767 30.9142 32.8054 30.9142 32.588V31.0594V31.0665ZM27.4916 23.6477V35.2499C27.4916 35.592 27.6345 35.7344 27.9775 35.7344H32.7505C36.2624 35.7344 38.1524 34.5657 38.1524 31.9074C38.1524 30.5605 37.4128 29.5913 36.1696 29.2135C37.1592 28.729 37.7558 27.8844 37.7558 26.68C37.7558 24.1821 36.0266 23.1595 32.7327 23.1595H27.9775C27.6345 23.1595 27.4916 23.302 27.4916 23.6441M31.4965 17.1588C31.9538 17.1588 32.1432 16.9664 32.1432 16.5103V5.75615C31.7108 6.10536 31.2035 6.3548 30.6427 6.47239C30.6319 6.47239 30.6248 6.47239 30.614 6.47595V17.1553H31.4929L31.4965 17.1588ZM28.2561 17.1588H29.1993V6.47951C28.5883 6.3548 28.0275 6.06616 27.5666 5.66351V9.05938L27.5845 9.04513V16.5138C27.5845 16.9699 27.7774 17.1624 28.2561 17.1624M4.62302 23.751V29.4987C4.62302 29.6768 4.71233 29.7695 4.89454 29.7695H6.47008C6.64871 29.7695 6.7416 29.6804 6.7416 29.4987V25.44C6.7416 25.3046 6.78804 25.2797 6.90237 25.2797H8.12781C8.26354 25.2797 8.28855 25.3082 8.28855 25.44V29.4987C8.28855 29.6768 8.37786 29.7695 8.56008 29.7695H10.1356C10.3142 29.7695 10.4072 29.6804 10.4072 29.4987V23.751C10.4072 23.5728 10.3179 23.4802 10.1356 23.4802H4.89454C4.7159 23.4802 4.62302 23.5693 4.62302 23.751ZM13.8762 3.89253V1.04187C13.8762 0.585757 13.6832 0.396902 13.2295 0.396902H0.64665C0.214359 0.396902 0 0.610701 0 1.04187V3.89253C0 4.3237 0.214359 4.53749 0.64665 4.53749H4.2729C4.56228 4.53749 4.65516 4.6337 4.65516 4.92233V16.5103C4.65516 16.9664 4.84809 17.1588 5.30182 17.1588H8.56721C9.0245 17.1588 9.21746 16.9664 9.21746 16.5103V4.92233C9.21746 4.6337 9.3139 4.53749 9.5997 4.53749H13.226C13.6832 4.53749 13.8726 4.34507 13.8726 3.89253M14.5371 29.4987V23.751C14.5371 23.5728 14.4478 23.4802 14.2656 23.4802H12.69C12.5114 23.4802 12.4185 23.5693 12.4185 23.751V29.4987C12.4185 29.6768 12.5079 29.7695 12.69 29.7695H14.2656C14.4442 29.7695 14.5371 29.6804 14.5371 29.4987ZM18.8279 28.1695L19.6568 26.5161L20.4928 28.1695H18.8279ZM19.1959 23.751L16.8379 27.97C16.7557 28.1232 16.695 28.1695 16.5592 28.1695H16.3699C16.1984 28.1695 16.1269 28.2336 16.1269 28.4011V30.9703C16.1269 31.1413 16.1984 31.2055 16.3699 31.2055H17.6024C17.7739 31.2055 17.8347 31.1413 17.8347 30.9703V29.9013C17.8347 29.8015 17.8632 29.7659 17.9347 29.7659H21.3538C21.4252 29.7659 21.4538 29.8015 21.4538 29.9013V30.9703C21.4538 31.1413 21.5359 31.2055 21.686 31.2055H22.9186C23.0901 31.2055 23.1615 31.1413 23.1615 30.9703V28.4011C23.1615 28.2301 23.0901 28.1695 22.9186 28.1695H22.7292C22.622 28.1695 22.5685 28.1695 22.4756 27.9914L20.089 23.7546C19.8997 23.4232 19.7925 23.3056 19.6389 23.3056C19.4674 23.3056 19.3781 23.4232 19.1887 23.7546M18.9672 16.6778L26.7878 9.6865V4.80474C26.6663 4.59807 26.5663 4.38071 26.4841 4.14909L21.6038 8.5106V1.04187C21.6038 0.585757 21.4109 0.396902 20.9572 0.396902H17.6918C17.2595 0.396902 17.0416 0.610701 17.0416 1.04187V16.5103C17.0416 17.1588 17.2345 17.4937 17.6417 17.4937C17.9525 17.4937 18.3134 17.255 18.9636 16.6813M31.0963 3.78563C30.8892 4.10277 30.5712 4.32013 30.2032 4.39853C30.1032 4.4199 30.0032 4.4306 29.9067 4.4306C29.2422 4.4306 28.6599 3.96023 28.5241 3.31171C28.4455 2.94112 28.5169 2.56341 28.7205 2.24983C28.9278 1.9327 29.2457 1.71534 29.6137 1.63695C29.7138 1.61556 29.8138 1.60487 29.9102 1.60487C30.5748 1.60487 31.1535 2.07523 31.2928 2.72376C31.3715 3.09435 31.3 3.47206 31.0963 3.78563ZM32.6826 2.428C32.6648 2.34604 32.6434 2.26409 32.6183 2.18213C32.5683 2.02179 32.5075 1.86856 32.4325 1.72602C32.3968 1.65476 32.3575 1.58349 32.3147 1.51579C32.1861 1.31268 32.0324 1.12739 31.8609 0.963472C31.6894 0.799557 31.4965 0.660587 31.2893 0.546561C31.15 0.468167 31.007 0.404029 30.857 0.350579C30.5569 0.243679 30.2389 0.186666 29.9102 0.186666C29.7138 0.186666 29.5173 0.208046 29.3172 0.247242C27.7845 0.571505 26.8092 2.07167 27.1343 3.60033C27.4165 4.92946 28.5955 5.84167 29.9031 5.84167C30.0996 5.84167 30.2961 5.8203 30.4962 5.7811C32.0289 5.45683 33.0042 3.95667 32.679 2.428M49.1204 3.89253V1.04187C49.1204 0.585757 48.9275 0.396902 48.4738 0.396902H35.8944C35.4622 0.396902 35.2478 0.610701 35.2478 1.04187V3.89253C35.2478 4.3237 35.4622 4.53749 35.8944 4.53749H39.5207C39.8101 4.53749 39.9065 4.6337 39.9065 4.92233V16.5103C39.9065 16.9664 40.0994 17.1588 40.5532 17.1588H43.8186C44.2759 17.1588 44.4688 16.9664 44.4688 16.5103V4.92233C44.4688 4.6337 44.5653 4.53749 44.8511 4.53749H48.4774C48.9346 4.53749 49.124 4.34507 49.124 3.89253M51.6605 14.1157C51.7392 14.0979 51.8214 14.0908 51.8999 14.0908C52.4287 14.0908 52.8967 14.4685 53.0074 14.9852C53.136 15.5945 52.7467 16.1967 52.1357 16.325C52.0571 16.3428 51.975 16.35 51.8964 16.35C51.3641 16.35 50.8996 15.9722 50.7889 15.452C50.6602 14.8426 51.0496 14.2404 51.6605 14.1122M51.4248 13.0075C50.1994 13.2676 49.4169 14.4685 49.6777 15.6907C49.7635 16.0898 49.9493 16.4426 50.2029 16.7241C50.2887 16.8203 50.3815 16.9058 50.4781 16.9842C50.6745 17.141 50.8996 17.2657 51.139 17.3513C51.3783 17.4367 51.632 17.4831 51.8964 17.4831C51.975 17.4831 52.0535 17.4795 52.1322 17.4724C52.2107 17.4652 52.2894 17.451 52.3716 17.4332C53.5969 17.1731 54.3794 15.9722 54.1186 14.75C54.0328 14.3509 53.8471 13.9981 53.5934 13.7166C53.5076 13.6204 53.4183 13.5349 53.3183 13.4565C53.1718 13.3389 53.0074 13.2391 52.836 13.1608C52.5466 13.0289 52.2322 12.9577 51.9035 12.9577C51.8249 12.9577 51.7463 12.9612 51.6677 12.9719C51.5891 12.9791 51.5105 12.9933 51.4284 13.0075M57.2553 8.26119L55.1975 3.71436L50.7889 12.4694C50.946 12.4054 51.1103 12.3519 51.2783 12.3162C51.4819 12.2735 51.6927 12.2521 51.8999 12.2521C52.543 12.2521 53.1504 12.4659 53.6469 12.8258L55.3761 12.4588L57.2553 8.26119ZM58.6058 3.25826C58.6058 2.86629 58.2878 2.55272 57.8984 2.55272C57.509 2.55272 57.191 2.86985 57.191 3.25826C57.191 3.64666 57.509 3.9638 57.8984 3.9638C58.2878 3.9638 58.6058 3.64666 58.6058 3.25826ZM59.3132 3.25826C59.3132 4.03863 58.6773 4.6729 57.8948 4.6729C57.1124 4.6729 56.4765 4.03863 56.4765 3.25826C56.4765 2.47789 57.1124 1.84361 57.8948 1.84361C58.6773 1.84361 59.3132 2.47789 59.3132 3.25826ZM66.805 16.7989C66.805 16.6778 66.7586 16.5352 66.6622 16.3677L59.0524 1.25923C58.5736 0.325634 58.2378 0.015625 57.7555 0.015625C57.2518 0.015625 56.9159 0.325634 56.4336 1.25923L55.6084 2.90192L57.6591 7.36681L59.5633 11.5751L59.8634 12.2343L59.8348 12.2414L60.1921 13.0325L60.2206 13.0254L60.5779 13.8164L60.5529 13.8235L60.9101 14.6146L60.9388 14.6075L61.2388 15.2667L61.814 16.5388C62.0284 17.0412 62.1999 17.1624 62.8465 17.1624H66.2548C66.6157 17.1624 66.8086 17.0412 66.8086 16.8025M83.829 16.5103V1.04187C83.829 0.610701 83.6106 0.396902 83.1572 0.396902H79.9165C79.4595 0.396902 79.2454 0.610701 79.2454 1.04187V6.16594C79.2454 6.45457 79.1488 6.54722 78.8626 6.54722H73.8681C73.5574 6.54722 73.4825 6.451 73.4825 6.16594V1.04187C73.4825 0.585757 73.2893 0.396902 72.8107 0.396902H69.5703C69.113 0.396902 68.9236 0.589321 68.9236 1.04187V16.5103C68.9236 16.9664 69.1165 17.1588 69.5703 17.1588H72.8107C73.2893 17.1588 73.4825 16.9664 73.4825 16.5103V11.0762C73.4825 10.7876 73.5538 10.6914 73.8681 10.6914H78.8626C79.1524 10.6914 79.2454 10.7876 79.2454 11.0762V16.5103C79.2454 16.9414 79.4631 17.1588 79.9165 17.1588H83.1572C83.6142 17.1588 83.829 16.945 83.829 16.5103ZM84.1 35.2499V23.6477C84.1 23.163 83.9573 22.91 83.6503 22.91C83.3785 22.91 83.1464 23.0704 82.6606 23.5194L76.2511 29.2492V23.6441C76.2511 23.302 76.1084 23.1595 75.7653 23.1595H73.3145C72.9894 23.1595 72.8287 23.3198 72.8287 23.6441V35.2463C72.8287 35.7309 72.9714 35.9839 73.2785 35.9839C73.5142 35.9839 73.7823 35.8057 74.2682 35.3746L80.6776 29.6448V35.2499C80.6776 35.592 80.8204 35.7344 81.1815 35.7344H83.6106C83.9537 35.7344 84.0964 35.592 84.0964 35.2499M91.1957 23.7546L85.3795 35.1608C85.3254 35.2677 85.2901 35.3781 85.2901 35.4673C85.2901 35.6454 85.4328 35.738 85.7046 35.738H88.1733C88.6231 35.738 88.8199 35.6133 89.0556 35.1643L92.0456 29.0033L95.0542 35.1643C95.2683 35.6133 95.4687 35.738 95.9185 35.738H98.4406C98.7304 35.738 98.8731 35.649 98.8731 35.4673C98.8731 35.3781 98.8378 35.2891 98.7657 35.1608L92.9322 23.7546C92.571 23.0526 92.3742 22.821 92.0672 22.821C91.7781 22.821 91.5814 23.0347 91.2029 23.7546M103.314 16.5103V1.04187C103.314 0.396901 103.121 0.0583859 102.714 0.0583859C102.353 0.0583859 102.042 0.272185 101.392 0.870822L92.8464 8.50707V1.0383C92.8464 0.582196 92.6532 0.393338 92.1962 0.393338H88.9302C88.4984 0.393338 88.2836 0.607139 88.2836 1.0383V16.5067C88.2836 17.1553 88.4768 17.4902 88.8841 17.4902C89.1947 17.4902 89.5559 17.2515 90.206 16.6778L98.752 9.04153V16.5103C98.752 16.9664 98.9445 17.1588 99.4231 17.1588H102.664C103.121 17.1588 103.31 16.9664 103.31 16.5103M107.201 30.9026C107.201 30.9917 107.147 31.0273 107.001 31.0273H105.058C104.932 31.0273 104.861 30.9917 104.861 30.9026C104.861 30.8492 104.879 30.8135 104.914 30.76L106.029 28.3904L107.165 30.76C107.183 30.7957 107.201 30.8492 107.201 30.9026ZM112.892 35.4673C112.892 35.3781 112.857 35.2713 112.785 35.143L107.076 23.8115C106.715 23.1096 106.465 22.878 106.104 22.878C105.726 22.878 105.476 23.1131 105.115 23.8115L99.4058 35.143C99.3517 35.2499 99.3164 35.3567 99.3164 35.4673C99.3164 35.6454 99.4591 35.738 99.7309 35.738H102.196C102.628 35.738 102.789 35.649 102.953 35.2713L103.564 33.9599C103.654 33.764 103.707 33.7283 103.907 33.7283H108.177C108.376 33.7283 108.43 33.764 108.519 33.9599L109.148 35.2713C109.309 35.649 109.437 35.738 109.923 35.738H112.481C112.753 35.738 112.896 35.649 112.896 35.4673M126.647 35.2499V23.6654C126.647 23.1987 126.486 22.9635 126.179 22.9635C125.965 22.9635 125.8 23.0882 125.386 23.5016L120.18 29.014L114.957 23.5016C114.596 23.1239 114.382 22.9635 114.164 22.9635C113.857 22.9635 113.714 23.1951 113.714 23.6654V35.2499C113.714 35.592 113.857 35.7344 114.2 35.7344H116.63C116.99 35.7344 117.133 35.592 117.133 35.2499V30.2755L119.491 32.8802C119.798 33.2402 119.959 33.3471 120.156 33.3471C120.352 33.3471 120.498 33.2402 120.841 32.8802L123.199 30.2755V35.2499C123.199 35.5741 123.36 35.7344 123.703 35.7344H126.133C126.475 35.7344 126.637 35.5741 126.637 35.2499M141.405 35.2499V23.6477C141.405 23.163 141.263 22.91 140.956 22.91C140.684 22.91 140.452 23.0704 139.966 23.5194L133.556 29.2492V23.6441C133.556 23.302 133.414 23.1595 133.071 23.1595H130.623C130.298 23.1595 130.138 23.3198 130.138 23.6441V35.2463C130.138 35.7309 130.28 35.9839 130.587 35.9839C130.819 35.9839 131.091 35.8057 131.577 35.3746L137.987 29.6448V35.2499C137.987 35.592 138.129 35.7344 138.49 35.7344H140.92C141.263 35.7344 141.405 35.592 141.405 35.2499Z" fill="#2E2D2D"/>
</g>
<defs>
<clipPath id="clip0_3884_25549">
<rect width="142" height="36" fill="white"/>
</clipPath>
</defs>
</svg>
