<svg width="120" height="90" viewBox="0 0 120 90" fill="none" xmlns="http://www.w3.org/2000/svg">
<path d="M35.4584 46.387C35.2484 45.7795 35.1134 45.382 34.9859 45.112C34.9184 44.962 34.8734 44.887 34.8509 44.8645C34.7984 44.842 34.7459 44.8345 34.6859 44.842C34.6634 44.857 34.6034 44.917 34.4984 45.052C34.3109 45.292 34.0859 45.637 33.7334 46.177L30.5984 51.022C30.4259 51.292 30.2384 51.592 29.9684 51.8245C29.7509 52.0045 29.5034 52.1395 29.2259 52.2295C28.8884 52.3345 28.5284 52.327 28.2134 52.327H25.8059C25.4909 52.327 25.1309 52.3345 24.7934 52.2295C24.5234 52.147 24.2684 52.012 24.0584 51.8245C23.7884 51.5995 23.6009 51.292 23.4284 51.022L20.2934 46.177C19.9409 45.637 19.7159 45.2845 19.5284 45.052C19.4234 44.917 19.3634 44.8645 19.3409 44.842C19.2884 44.827 19.2284 44.842 19.1759 44.8645C19.1609 44.887 19.1159 44.9545 19.0409 45.112C18.9209 45.3895 18.7784 45.7795 18.5684 46.387L14.9609 56.812V64.537C14.9609 65.6545 14.9609 66.217 15.3059 66.562C15.6509 66.907 16.2134 66.907 17.3309 66.907H36.5159C37.6334 66.907 38.1959 66.907 38.5409 66.562C38.8859 66.217 38.8859 65.6545 38.8859 64.537V56.4145L35.4209 46.387H35.4584ZM22.7234 61.2145C22.7234 61.867 22.1909 62.3995 21.5384 62.3995H20.0834C19.4309 62.3995 18.8984 61.867 18.8984 61.2145V57.9595C18.8984 57.307 19.4309 56.7745 20.0834 56.7745H21.5384C22.1909 56.7745 22.7234 57.307 22.7234 57.9595V61.2145ZM35.0234 61.2145C35.0234 61.867 34.4909 62.3995 33.8384 62.3995H32.4584C31.8059 62.3995 31.2734 61.867 31.2734 61.2145V57.9595C31.2734 57.307 31.8059 56.7745 32.4584 56.7745H33.8384C34.4909 56.7745 35.0234 57.307 35.0234 57.9595V61.2145Z" fill="black"/>
<path d="M36.5625 23.1016C37.68 23.1016 38.2425 23.1016 38.5875 23.4466C38.9325 23.7916 38.9325 24.3541 38.9325 25.4716V50.6791L37.2375 45.7741C37.0425 45.2041 36.87 44.7091 36.705 44.3416C36.5475 43.9816 36.315 43.5616 35.895 43.2991L35.8425 43.2691C35.31 42.9466 34.665 42.8791 34.0725 43.0816C33.6075 43.2391 33.2775 43.5916 33.0375 43.8991C32.79 44.2216 32.505 44.6566 32.175 45.1666L29.04 50.0116C28.935 50.1766 28.875 50.2741 28.8225 50.3416C28.8 50.3791 28.785 50.3941 28.7775 50.3941C28.755 50.4166 28.725 50.4316 28.695 50.4391C28.695 50.4391 28.665 50.4391 28.6275 50.4391C28.545 50.4391 28.4325 50.4391 28.2375 50.4391H25.83C25.6275 50.4391 25.5225 50.4391 25.44 50.4391C25.395 50.4391 25.3725 50.4391 25.3725 50.4391C25.3425 50.4316 25.3125 50.4166 25.29 50.3941C25.29 50.3941 25.275 50.3716 25.245 50.3416C25.1925 50.2741 25.1325 50.1841 25.0275 50.0116L21.8925 45.1666C21.5625 44.6566 21.285 44.2216 21.03 43.8991C20.79 43.5916 20.4675 43.2391 19.995 43.0816C19.4025 42.8791 18.7575 42.9541 18.225 43.2691L18.1725 43.2991C17.7525 43.5616 17.5275 43.9816 17.3625 44.3416C17.1975 44.7091 17.025 45.2041 16.83 45.7741L15 51.0766V25.4716C15 24.3541 15 23.7916 15.345 23.4466C15.69 23.1016 16.2525 23.1016 17.37 23.1016H36.555H36.5625Z" fill="black"/>
<path d="M51.5881 24.7109V65.1359C51.5881 66.4484 51.2131 66.8234 49.9606 66.8234H41.8906C40.5781 66.8234 40.2031 66.4484 40.2031 65.1359V24.7109C40.2031 23.3984 40.5781 23.0234 41.8906 23.0234H49.9606C51.2131 23.0234 51.5881 23.3984 51.5881 24.7109ZM45.2656 62.4509H46.5181V27.4034H45.2656V62.4509Z" fill="black"/>
<path d="M57.9141 62.4509H59.1666V45.0509H64.1091V65.1359C64.1091 66.4484 63.7341 66.8234 62.4216 66.8234H54.5391C53.2266 66.8234 52.8516 66.4484 52.8516 65.1359V24.7109C52.8516 23.3984 53.2266 23.0234 54.5391 23.0234H62.4216C63.7341 23.0234 64.1091 23.3984 64.1091 24.7109V43.7984H59.1666V27.4034H57.9141V62.4509Z" fill="black"/>
<path d="M76.6322 41.9834V46.3634H70.4372V62.4434H71.6897V47.6759H76.6322V66.8234H65.3672V23.0234H76.6322V40.7309H71.6897V27.4034H70.4372V41.9834H76.6322Z" fill="black"/>
<path d="M77.9062 66.8309V23.0234H82.9763V62.4509H103.151V66.8309H77.9062Z" fill="black"/>
<path d="M95.635 24.7109V59.5409C95.635 60.8534 95.26 61.2284 94.0075 61.2284H85.9375C84.625 61.2284 84.25 60.8534 84.25 59.5409V24.7109C84.25 23.3984 84.625 23.0234 85.9375 23.0234H94.0075C95.26 23.0234 95.635 23.3984 95.635 24.7109ZM89.3125 56.8484H90.565V27.4034H89.3125V56.8484Z" fill="black"/>
<path d="M103.145 27.4034V61.2284H98.0753V27.4034H96.3203V23.0234H104.953V27.4034H103.138H103.145Z" fill="black"/>
</svg>
