<svg width="51" height="70" viewBox="0 0 51 70" fill="none" xmlns="http://www.w3.org/2000/svg">
<g clip-path="url(#clip0_3906_27294)">
<path d="M21.5564 31.7484C21.5327 30.8339 21.3858 29.924 21.3195 29.0095C21.1821 27.1803 21.0305 25.3512 20.9499 23.522C20.8836 21.9109 20.9073 20.2997 20.8978 18.6886C20.8978 18.5085 20.9689 18.3284 20.9831 18.1484C21.0352 17.6034 21.111 17.0537 21.1158 16.5088C21.1442 13.8693 21.0731 11.2394 20.7367 8.61411C20.5377 7.08352 20.3292 5.57661 19.8175 4.11709C19.628 3.57214 19.5285 2.99876 19.3627 2.44433C19.2916 2.2074 19.1826 1.95625 19.0263 1.77144C18.5051 1.16963 17.9508 0.591504 17.4106 0.00390625C17.3253 0.0323384 17.2401 0.0607706 17.1548 0.0939414C17.5101 1.84252 17.5386 3.60058 17.3017 5.35389C16.8752 8.49565 16.7994 11.6564 17.0268 14.8076C17.2448 17.7835 17.15 20.7499 17.1027 23.7211C17.0742 25.517 16.9084 27.313 16.8989 29.109C16.88 31.6821 17.4154 34.132 18.7847 36.3213C19.5238 36.4919 20.0687 36.3213 20.4098 35.6294C20.4998 35.4446 20.7178 35.3309 20.8362 35.1555C21.0542 34.8381 21.3574 34.5158 21.4142 34.1604C21.5374 33.3691 21.5753 32.554 21.5564 31.7484Z" fill="#2E2D2D"/>
<path d="M28.4282 26.2204C28.4424 27.3198 28.3808 28.4239 28.4472 29.5233C28.5325 30.8786 28.6604 32.2338 28.8689 33.5701C29.0584 34.7595 29.3569 35.9347 29.6743 37.0957C29.7596 37.4037 30.1292 37.8729 30.3234 37.8539C30.7072 37.8113 31.2379 37.5648 31.3895 37.2474C31.8396 36.2949 32.2755 35.295 32.4508 34.2667C32.6119 33.3142 32.3987 32.3049 32.4034 31.3192C32.4129 29.4854 32.4982 27.6562 32.4934 25.8224C32.484 23.0692 32.4366 20.316 32.375 17.5676C32.3513 16.6151 32.266 15.6626 32.1523 14.7196C31.9865 13.3359 31.7259 11.9617 31.579 10.5732C31.3232 8.2039 31.1242 5.82981 30.8967 3.45573C30.7593 2.01516 29.9302 1.06743 28.7836 0.394531C28.7836 0.877878 28.812 1.34227 28.7788 1.80192C28.6035 4.07176 28.3761 6.33212 28.2387 8.60195C28.1629 9.8814 28.2055 11.1703 28.2245 12.4592C28.2861 17.0463 28.3619 21.6334 28.4282 26.2252V26.2204Z" fill="#2E2D2D"/>
<path d="M8.6516 37.7587C9.11592 37.9435 9.50444 37.8772 9.77924 37.4128C10.471 36.2328 10.9922 35.0055 10.9827 33.5981C10.9685 31.6173 11.0253 29.6366 10.9874 27.6558C10.9022 23.2204 10.7505 18.7897 10.6842 14.3543C10.6558 12.492 10.779 10.6249 10.8311 8.75788C10.8737 7.26045 11.0585 5.74881 10.471 4.29877C10.2246 3.68748 10.0351 3.05249 9.78872 2.4412C9.50918 1.74461 9.24859 1.01959 8.52841 0.507812C7.76085 2.6734 7.5429 4.86741 7.42445 7.03773C7.2444 10.298 7.28231 13.5724 7.24914 16.8421C7.22071 19.6284 7.23967 22.4195 7.20176 25.2059C7.18755 26.4143 7.02172 27.6274 7.05015 28.8357C7.08805 30.3521 7.22071 31.8732 7.37233 33.3849C7.52395 34.9155 7.79875 36.4224 8.64686 37.7634L8.6516 37.7587Z" fill="#2E2D2D"/>
<path d="M40.0336 8.52229C40.2373 11.593 40.2373 14.6873 40.2326 17.7675C40.2231 20.7007 40.1047 23.6387 40.0052 26.572C39.9341 28.5859 39.8441 30.6046 39.6925 32.6138C39.5551 34.3719 39.6403 36.0588 40.6732 37.58C41.1565 38.2908 42.1089 38.3002 42.5495 37.58C42.9901 36.8597 43.1086 36.1015 42.9475 35.258C42.7532 34.2202 42.5732 33.1682 42.5163 32.1115C42.4453 30.761 42.4737 29.401 42.5116 28.0505C42.5779 25.7427 42.6206 23.4302 42.7959 21.132C42.9475 19.1512 43.0186 17.1846 42.7769 15.2086C42.6916 14.5215 42.6774 13.8154 42.7106 13.1236C42.8527 10.1714 42.4926 7.2618 41.9951 4.37119C41.8625 3.613 41.4218 2.86903 40.9717 2.21983C40.5216 1.56589 39.8867 1.03989 39.3324 0.457031C39.2424 0.485463 39.1476 0.513896 39.0576 0.542328C39.0576 0.921423 39.0102 1.30526 39.067 1.67961C39.3892 3.96367 39.882 6.2335 40.0383 8.53177L40.0336 8.52229Z" fill="#2E2D2D"/>
<path d="M0.777035 56.7017V44.1631L6.66639 53.3657C6.85117 53.7068 7.28233 53.7068 7.46711 53.3657L13.3565 44.1157V56.697C13.3565 57.2466 14.1335 57.223 14.1335 56.697V42.8837C14.1335 42.4287 13.6313 42.3103 13.3802 42.6988L7.0786 52.5885L0.729654 42.7036C0.50223 42.315 0 42.4287 0 42.8884V56.7017C0 57.2277 0.777035 57.2514 0.777035 56.7017Z" fill="#2E2D2D"/>
<path d="M19.1322 56.6778V42.8171C19.1322 42.2485 18.3125 42.2485 18.3125 42.8171V56.6778C18.3125 57.2038 19.1322 57.2038 19.1322 56.6778Z" fill="#2E2D2D"/>
<path d="M24.058 56.6544V43.8457L33.9889 56.7918C34.2874 57.1567 34.7896 57.1567 34.7896 56.607V42.8601C34.7896 42.2914 34.0126 42.2914 34.0126 42.8601V55.6498L24.1054 42.7037C23.788 42.2914 23.3047 42.3625 23.3047 42.9312V56.6544C23.3047 57.2041 24.058 57.2041 24.058 56.6544Z" fill="#2E2D2D"/>
<path d="M38.9909 57.0671H44.288C53.2382 57.0671 53.2382 42.543 44.288 42.543H38.9909C38.6498 42.543 38.375 42.7941 38.375 43.1164V56.4747C38.375 56.7922 38.6498 57.0671 38.9909 57.0671ZM39.1283 43.2301H44.288C52.2337 43.2301 52.2337 56.361 44.288 56.361H39.1283V43.2301Z" fill="#2E2D2D"/>
<path d="M7.46292 59.8672H0.635443C0.417494 59.8672 0.242188 60.0567 0.242188 60.2747V69.6715C0.242188 69.9985 0.744417 69.9985 0.744417 69.6573V65.5299H7.15022C7.47714 65.5299 7.47714 65.075 7.15022 65.075H0.744417V60.3363H7.46292C7.8088 60.3363 7.78985 59.8672 7.46292 59.8672Z" fill="#2E2D2D"/>
<path d="M14.9786 59.7128C14.4337 59.6322 13.8368 59.6322 13.2919 59.7128C10.8376 60.1061 9.33564 62.2432 9.25983 64.6694C9.17928 67.688 11.5246 70.0005 14.23 70.0005C16.9354 70.0005 19.2949 67.688 19.2002 64.6694C19.1386 62.248 17.4519 60.1061 14.9786 59.7128ZM14.23 69.5124C11.8089 69.5124 9.71468 67.3705 9.79049 64.6837C9.85208 62.4944 11.1645 60.5562 13.3677 60.2103C13.8699 60.1298 14.4006 60.1298 14.8981 60.2103C17.1155 60.5562 18.6174 62.4944 18.679 64.6837C18.7595 67.3705 16.6606 69.5124 14.2253 69.5124H14.23Z" fill="#2E2D2D"/>
<path d="M29.6951 63.1062C29.6951 61.3387 28.3495 59.8555 25.7104 59.8555H21.7731C21.6168 59.8555 21.5078 59.9645 21.5078 60.1208V69.6077C21.5078 69.9347 22.0243 69.9347 22.0243 69.5935V66.139H25.682L29.1976 69.8446C29.4487 70.0958 29.7757 69.7499 29.5245 69.4845L26.2885 66.1532C28.5722 65.9826 29.6951 64.7932 29.6951 63.1062ZM25.7246 65.6841H22.0195V60.3388H25.7246C27.8662 60.3388 29.1455 61.5756 29.1644 63.1062C29.1976 64.5278 28.1505 65.6841 25.7246 65.6841Z" fill="#2E2D2D"/>
<path d="M39.8059 67.7487C39.4174 68.251 38.901 68.6727 38.3371 68.9523C35.1484 70.5635 31.5712 68.1562 31.6613 64.7017C31.7229 62.1712 33.239 60.5743 35.4422 60.2284C37.1479 60.0246 38.3798 60.1478 39.6496 61.5268C39.8817 61.7779 40.2608 61.4936 40.0239 61.214C38.6783 59.7735 37.2095 59.4797 35.3664 59.7119C32.9121 60.1052 31.2254 62.0433 31.159 64.6828C31.0358 68.5922 35.0205 71.2032 38.5503 69.4215C39.2231 69.0945 39.787 68.6396 40.2086 68.0472C40.4266 67.7487 40.0191 67.4359 39.8012 67.7487H39.8059Z" fill="#2E2D2D"/>
<path d="M49.6276 60.3363C49.9545 60.3363 49.9545 59.8672 49.6418 59.8672H42.6248C42.3737 59.8672 42.2031 60.0567 42.2031 60.2747V69.3872C42.2031 69.6242 42.3737 69.809 42.6248 69.809H49.6276C49.9545 69.809 49.9545 69.3067 49.6276 69.3067H42.7196V65.1177H49.3149C49.6418 65.1177 49.6418 64.6485 49.3149 64.6485H42.7196V60.3363H49.6276Z" fill="#2E2D2D"/>
</g>
<defs>
<clipPath id="clip0_3906_27294">
<rect width="51" height="70" fill="white"/>
</clipPath>
</defs>
</svg>
