<svg width="80" height="80" viewBox="0 0 80 80" fill="none" xmlns="http://www.w3.org/2000/svg">
<g clip-path="url(#clip0_3906_27334)">
<path fill-rule="evenodd" clip-rule="evenodd" d="M40.5751 9.80972C39.2507 10.2331 38.3757 11.7941 37.0521 16.0955C36.7935 16.9359 36.5629 17.6669 36.5397 17.7201C36.4999 17.8113 36.4723 17.8169 36.0641 17.8169C35.4567 17.8169 35.3337 17.8885 35.3337 18.2421C35.3337 18.7159 35.7069 18.9537 36.4527 18.9549C37.4589 18.9567 37.6299 18.8381 37.9115 17.9419C38.4103 16.3551 39.1419 14.1105 39.2749 13.7589C39.5495 13.0339 39.7407 12.6101 39.7769 12.6463C39.8273 12.6967 40.4911 14.1533 41.4959 16.4183C42.5773 18.8563 42.5017 18.7021 42.6829 18.8401C42.9385 19.0353 43.5671 18.9707 43.6555 18.7403C43.7581 18.4731 43.3793 17.4499 42.3263 15.1489C40.3737 10.8815 40.5407 11.3131 40.7667 11.1223C41.0979 10.8427 41.3479 10.7961 41.7829 10.9323C42.5591 11.1757 42.9499 10.3765 42.2541 9.96892C41.8389 9.72552 41.0671 9.65232 40.5751 9.80972ZM51.0411 13.8381C50.5001 14.0807 50.5163 14.4347 51.0841 14.7843C51.4123 14.9863 51.4777 14.8195 50.4329 16.4441C49.1843 18.3853 49.0305 18.8141 49.4867 19.0805C49.8159 19.2727 49.9408 19.2381 51.8523 18.4227C52.8074 18.0155 53.5967 17.6901 53.6063 17.6997C53.6161 17.7095 53.3783 18.1415 53.0781 18.6601C52.2055 20.1667 52.1458 20.5157 52.681 20.9737C53.2848 21.4905 53.9384 21.5623 54.2645 21.1475C54.444 20.9195 54.38 20.7479 54.0102 20.4633C53.8324 20.3265 53.7523 20.2353 53.7523 20.1695C53.7523 20.0005 54.6065 18.5361 55.3885 17.3651C55.9701 16.4939 55.9695 16.1491 55.3855 16.0091C55.0781 15.9353 55.0223 15.9539 53.0605 16.7861C52.1097 17.1893 51.3155 17.5137 51.2959 17.5067C51.2761 17.4999 51.5438 17.0487 51.8904 16.5043C52.8229 15.0401 52.8919 14.8667 52.6795 14.5183C52.4253 14.1015 51.4015 13.6763 51.0411 13.8381ZM27.4797 15.0047C26.8175 15.3567 23.6741 17.1977 23.5709 17.2939C23.2181 17.6235 23.2377 17.9087 23.6621 18.6131C24.0217 19.2101 24.1675 19.3173 24.4323 19.1791C24.8253 18.9739 24.9921 18.4927 24.8059 18.1021C24.7091 17.8991 24.7387 17.8515 25.0935 17.6407C25.5193 17.3877 25.4125 17.2643 26.4377 19.1941C27.3143 20.8445 27.5775 21.2167 27.8681 21.2167C28.2015 21.2167 29.0391 20.6695 29.1643 20.3699C29.4069 19.7891 28.9783 19.3213 28.5005 19.6459C28.2221 19.8351 28.2737 19.8951 27.5003 18.4839C26.5055 16.6693 26.5399 16.8111 27.0257 16.5273C27.4057 16.3053 27.4257 16.3077 27.5869 16.5893C27.8973 17.1317 28.3853 17.1427 28.6527 16.6133C28.7943 16.3329 28.7771 16.2361 28.4831 15.6627C28.0853 14.8875 27.9131 14.7745 27.4797 15.0047ZM61.1111 19.7839C60.8157 19.8917 60.7686 20.2017 61.0032 20.4925C61.3422 20.9129 61.3663 20.8629 60.4845 21.5641C59.7015 22.1869 59.6076 22.3065 59.6058 22.6837C59.6044 23.0087 59.6405 23.0617 60.8134 24.4441C61.4605 25.2069 61.4486 25.0931 60.9332 25.5925C60.1754 26.3267 60.1476 26.6839 60.7922 27.4039C61.294 27.9645 62.1017 27.9521 62.1006 27.3841C62.1003 27.2599 62.0531 27.1735 61.8129 26.8569C61.6169 26.5987 61.5991 26.6183 63.0691 25.4773C64.7703 24.1567 65.0271 23.9273 65.0271 23.7287C65.0271 23.4199 64.715 23.1457 64.3318 23.1179C64.0348 23.0965 64.0539 23.0853 63.1121 23.8209C62.1949 24.5373 62.3829 24.5605 61.6103 23.6371C60.9545 22.8535 60.9331 22.8015 61.1863 22.6127C62.9339 21.3105 63.0164 21.1291 62.2576 20.2561C61.896 19.8399 61.4547 19.6583 61.1111 19.7839ZM14.9141 20.8383C14.5333 21.0567 14.7239 21.9287 15.2273 22.2707C15.6889 22.5843 16.3799 22.1847 16.2317 21.6897C16.0751 21.1669 15.2597 20.6401 14.9141 20.8383ZM38.4009 21.7519C36.6351 22.1797 36.0349 24.4153 37.3363 25.7169C38.5863 26.9667 40.7971 26.3665 41.2529 24.6537C41.7115 22.9309 40.1387 21.3307 38.4009 21.7519ZM16.7525 22.3209C16.4655 22.4627 16.2973 22.8745 16.3943 23.1983C16.4743 23.4651 19.4917 26.4501 19.9005 26.6671C20.1669 26.8083 20.8215 26.3491 21.0791 25.8405C21.4439 25.1199 20.8953 24.4489 20.3773 24.9821C20.1029 25.2643 20.2899 25.4029 18.3321 23.4663C17.6795 22.8207 17.1147 22.2925 17.0769 22.2925C17.0391 22.2925 16.9825 22.2831 16.9511 22.2717C16.9195 22.2603 16.8301 22.2825 16.7525 22.3209ZM44.8053 25.2687C44.7165 25.2941 44.4711 25.4811 44.1813 25.7441C40.8617 28.7561 37.6515 28.9357 33.6847 26.3309C32.6825 25.6729 32.0361 26.3665 32.5901 27.5055C34.7535 31.9525 41.4043 32.7995 44.4221 29.0125C45.1031 28.1579 45.8047 26.4843 45.7363 25.8777C45.6879 25.4473 45.2291 25.1473 44.8053 25.2687ZM68.3094 28.3475C68.0428 28.3989 67.9704 28.7479 68.1476 29.1283C68.3493 29.5621 68.4195 29.5085 66.7915 30.1645C64.1295 31.2371 63.7775 31.5009 64.2108 32.0991C64.5014 32.5003 64.8932 32.5633 65.4006 32.2907C66.3208 31.7961 66.4795 31.7195 66.5872 31.7183C66.6521 31.7175 66.7056 31.7227 66.7056 31.7299C66.7056 31.7371 66.8992 32.1659 67.1357 32.6829C67.3726 33.2001 67.5662 33.6567 67.5662 33.6979C67.5662 33.7515 67.365 33.8729 66.853 34.1283C65.6007 34.7529 65.4488 35.0747 65.93 36.0831C66.4186 37.1065 67.6188 36.9675 67.1861 35.9375C67.0203 35.5431 67.0142 35.5543 67.5428 35.2937C68.2556 34.9421 68.5264 34.5803 68.586 33.9009C68.6 33.7411 68.6172 33.6103 68.624 33.6103C68.6308 33.6103 68.6866 33.6295 68.7477 33.6527C68.9951 33.7467 69.7668 33.8721 70.0244 33.8599L70.296 33.8471L70.436 34.1267C70.8892 35.0331 71.7431 34.4297 71.4174 33.4335C71.0816 32.4067 70.654 32.0781 70.0251 32.3633C69.4296 32.6335 68.1415 32.1711 67.8418 31.5795C67.6833 31.2671 67.697 31.2529 68.4592 30.9451C69.8656 30.3769 69.9834 30.1671 69.4715 29.1423C69.1273 28.4529 68.8268 28.2475 68.3094 28.3475ZM10.1495 30.4231C8.78574 30.9563 8.28294 33.0753 9.28554 34.0649C10.0871 34.8561 12.8043 35.8287 13.7759 35.6723C15.9835 35.3167 15.2809 30.4259 13.0219 30.4259C12.6589 30.4259 12.3611 30.5171 11.9879 30.7429C11.6673 30.9367 11.7035 30.9405 11.4335 30.6851C11.0601 30.3319 10.6151 30.2411 10.1495 30.4231ZM25.0473 30.5657C24.6411 30.7709 24.6147 30.9095 24.7461 32.1473C25.1659 36.1001 23.3047 38.8801 19.1961 40.4365C18.3953 40.7399 18.1731 41.1431 18.5199 41.6637C18.8901 42.2197 21.0789 42.2993 22.5699 41.8107C27.0361 40.3477 29.0521 35.2493 26.6049 31.6069C25.8921 30.5459 25.5453 30.3141 25.0473 30.5657ZM52.2461 30.6485C51.9623 30.7287 51.6901 31.0847 51.3185 31.8615C49.4895 35.6851 51.8375 40.7857 55.8787 41.7679C57.5053 42.1633 59.9853 41.7693 60.2777 41.0693C60.4921 40.5561 60.2201 40.1435 59.5728 40.0005C55.3547 39.0685 53.2715 36.4533 53.1709 31.9633C53.1519 31.1193 53.1343 31.0143 52.9829 30.8411C52.8273 30.6629 52.4987 30.5771 52.2461 30.6485ZM13.2983 31.7461C13.7597 32.0693 14.1217 32.9317 14.0519 33.5419C13.9605 34.3391 13.6577 34.5251 12.7929 34.3149C12.3763 34.2135 12.3485 34.1757 12.3045 33.6461C12.2841 33.4017 12.2383 33.0321 12.2029 32.8249C12.0843 32.1325 12.1171 32.0615 12.6763 31.7963C12.9709 31.6567 13.1499 31.6423 13.2983 31.7461ZM10.8573 31.7921C11.1029 32.0715 11.4935 33.6241 11.3535 33.7643C11.3061 33.8115 9.93214 33.0779 9.84494 32.9587C9.56494 32.5761 10.5493 31.4419 10.8573 31.7921ZM57.4399 32.2117C56.0187 32.6025 55.3001 34.2843 55.9953 35.5925C56.9967 37.4775 59.824 37.1281 60.3568 35.0537C60.7982 33.3343 59.1605 31.7387 57.4399 32.2117ZM19.4161 32.6003C17.7329 33.0691 17.1271 35.2315 18.3285 36.4819C19.8321 38.0467 22.4119 36.9889 22.3899 34.8167C22.3747 33.3119 20.8749 32.1941 19.4161 32.6003ZM10.4643 39.0143C10.1785 39.2547 10.1877 39.4089 10.5361 40.2401C11.4789 42.4885 10.7917 44.6015 8.98754 45.0019C7.39574 45.3551 5.54174 44.6903 4.98934 43.5681C4.58634 42.7495 4.97274 41.5539 5.79634 41.0713C6.01954 40.9405 6.23694 40.9473 6.65514 41.0975C7.08174 41.2509 7.48814 41.0629 7.56014 40.6789C7.64754 40.2137 6.91514 39.4877 6.20854 39.3389C3.45714 38.7595 2.18994 43.0343 4.43534 45.3203C5.94814 46.8601 8.72514 47.3777 10.5893 46.4669C12.5037 45.5317 13.1083 42.3057 11.8575 39.6997C11.5143 38.9847 10.8739 38.6695 10.4643 39.0143ZM67.2284 39.0043C67.0022 39.2451 67.0224 39.4407 67.3428 40.1085C67.7178 40.8899 69.1204 44.2909 69.1068 44.3857C69.0932 44.4811 69.0863 44.4839 68.0529 44.7995C67.2337 45.0495 67.1209 45.2051 67.1012 46.1117C67.0856 46.8141 67.1474 47.0037 67.4622 47.2223C67.7319 47.4097 67.9493 47.4221 68.1303 47.2603L68.2762 47.1299L68.278 46.6751C68.2787 46.4219 68.2992 46.2007 68.324 46.1759C68.3484 46.1513 69.0642 45.9277 69.9146 45.6789C74.3332 44.3857 75.9544 43.5637 76.5736 42.3033C76.8506 41.7389 76.7469 40.6859 76.3749 40.2875C75.8798 39.7571 75.2124 40.2359 75.4844 40.9261C75.5988 41.2161 75.593 41.3805 75.4592 41.6491C75.2114 42.1461 75.1118 42.1479 74.224 41.6711C72.421 40.7031 70.3627 39.8083 68.5079 39.1865C67.5779 38.8747 67.377 38.8461 67.2284 39.0043ZM70.0738 41.0711C71.2039 41.5145 73.5845 42.6033 73.8215 42.7853C73.9732 42.9019 72.4522 43.4755 70.3633 44.0897C70.2375 44.1267 70.1928 44.0373 70.1042 43.5709C69.9254 42.6305 69.6827 41.7863 69.3905 41.0889C69.3339 40.9535 69.2876 40.8323 69.2876 40.8199C69.2876 40.7707 69.3997 40.8067 70.0738 41.0711ZM57.0659 49.2325C55.007 49.4435 53.2405 50.6465 52.1295 52.5945C50.6441 55.1985 50.9071 58.6785 52.7465 60.7597C53.0651 61.1201 53.4142 61.2077 53.7593 61.0139C54.1096 60.8169 54.1487 60.6361 54.0373 59.7319C53.5015 55.3879 55.1208 52.6047 59.1195 50.9961C60.0387 50.6263 60.2509 50.2847 59.9069 49.7279C59.6833 49.3661 58.2315 49.1129 57.0659 49.2325ZM20.0021 49.6227C19.4321 49.7063 19.1505 49.8967 19.0857 50.2429C19.0067 50.6633 19.1761 50.9259 19.6545 51.1251C24.0279 52.9459 25.7033 55.8261 24.9573 60.2413C24.8215 61.0447 25.0209 61.4103 25.5951 61.4103C26.2441 61.4103 27.3409 59.9823 27.8207 58.5125C29.3033 53.9705 24.8547 48.9125 20.0021 49.6227ZM57.9313 54.2917C56.7679 54.6045 56.0179 55.8465 56.2701 57.0423C56.6619 58.8997 58.9747 59.5515 60.2767 58.1713C61.9041 56.4461 60.2281 53.6739 57.9313 54.2917ZM19.9707 54.5033C17.7977 54.9925 17.4329 57.9289 19.4225 58.9141C21.1871 59.7879 23.2029 58.1919 22.7515 56.2785C22.4583 55.0357 21.1931 54.2281 19.9707 54.5033ZM38.9701 60.4707C36.5067 60.7489 34.3957 62.1659 33.3683 64.2309C33.0813 64.8077 33.0475 65.0065 33.1901 65.2829C33.4609 65.8085 33.8273 65.8141 34.6257 65.3043C38.4269 62.8775 41.6749 63.1215 44.8281 66.0705C45.3995 66.6051 45.6621 66.6853 46.0277 66.4377C46.4397 66.1583 46.4437 65.7481 46.0453 64.6085C45.0573 61.7833 42.1907 60.1067 38.9701 60.4707ZM39.1737 65.6331C37.6323 65.8587 36.7355 67.5507 37.4047 68.9705C38.1297 70.5089 40.2707 70.7757 41.3465 69.4617C42.7065 67.8009 41.2993 65.3217 39.1737 65.6331Z" fill="#2E2D2D"/>
<path fill-rule="evenodd" clip-rule="evenodd" d="M41.3265 24.0339C41.3269 24.1523 41.3353 24.1955 41.3451 24.1301C41.3551 24.0647 41.3547 23.9679 41.3445 23.9149C41.3343 23.8621 41.3263 23.9155 41.3265 24.0339ZM44.3885 25.5293L44.2621 25.6693L44.4019 25.5429C44.5323 25.4251 44.5615 25.3895 44.5283 25.3895C44.5209 25.3895 44.4579 25.4525 44.3885 25.5293ZM45.8817 30.5237C45.5557 30.6477 45.2743 30.9857 45.2095 31.3311C45.1807 31.4845 45.4169 33.7635 45.4905 34.0435C45.6387 34.6059 46.3493 34.9353 46.8871 34.6907C47.1759 34.5593 49.1153 33.3517 49.2699 33.2069C49.6707 32.8319 49.6839 32.1909 49.2995 31.7745C48.8759 31.3157 46.2889 30.3691 45.8817 30.5237ZM24.6271 31.1991C24.6271 31.2819 24.6359 31.3157 24.6467 31.2743C24.6575 31.2329 24.6575 31.1651 24.6467 31.1237C24.6359 31.0823 24.6271 31.1163 24.6271 31.1991ZM30.9001 31.1635C30.1501 31.3767 30.0649 31.7685 30.3841 33.5381C30.6463 34.9931 30.7333 35.1785 31.2343 35.3491C31.7239 35.5159 31.8793 35.4511 33.1487 34.5515C34.6247 33.5055 34.7473 33.3411 34.5581 32.6605C34.4321 32.2071 34.2815 32.1195 32.7033 31.5823C31.3313 31.1153 31.1873 31.0819 30.9001 31.1635ZM53.1641 31.8015C53.1641 32.0263 53.1713 32.1183 53.1801 32.0059C53.1891 31.8935 53.1891 31.7095 53.1801 31.5971C53.1713 31.4847 53.1641 31.5767 53.1641 31.8015ZM57.9361 32.1337C58.0011 32.1435 58.1077 32.1435 58.1727 32.1337C58.2379 32.1237 58.1845 32.1157 58.0545 32.1157C57.9243 32.1157 57.8709 32.1237 57.9361 32.1337ZM19.9587 32.5205C20.0119 32.5307 20.0991 32.5307 20.1523 32.5205C20.2055 32.5101 20.1621 32.5019 20.0555 32.5019C19.9489 32.5019 19.9055 32.5101 19.9587 32.5205ZM50.6635 34.7063C50.6639 34.8011 50.6727 34.8347 50.6831 34.7811C50.6933 34.7277 50.6929 34.6501 50.6821 34.6091C50.6713 34.5679 50.6629 34.6117 50.6635 34.7063ZM38.3233 35.0797C31.6745 35.7491 27.2137 42.0769 29.2687 47.9239C30.8111 52.3121 36.1777 54.3611 40.6225 52.2589C43.7581 50.7757 44.9989 47.7779 44.0259 44.0359C43.3987 41.6231 41.5489 40.0641 39.3131 40.0641C36.0895 40.0641 33.3911 43.4281 34.7609 45.7395C35.3809 46.7855 36.8889 47.2975 38.1249 46.8817C38.1631 46.8689 37.9537 46.6255 37.5433 46.2063C36.3317 44.9677 36.2421 44.2589 37.1771 43.3041C38.8721 41.5729 41.1539 42.3523 41.6817 44.8425C42.3983 48.2235 40.4665 50.3903 36.8211 50.2945C30.9557 50.1401 29.7231 42.6365 35.0097 39.2681C38.2397 37.2103 42.1499 37.5903 44.6059 40.2011C47.4473 43.2215 48.0065 47.5637 45.9513 50.6503C44.0719 53.4731 41.1233 54.8243 35.5297 55.4259C35.0819 55.4741 34.7079 55.5211 34.6985 55.5303C34.6359 55.5931 35.6313 56.1589 36.2279 56.3995C41.1773 58.3959 47.8231 54.7585 49.4657 49.1543C50.3247 46.2235 49.7637 42.8057 47.9497 39.9197C45.8037 36.5053 42.1935 34.6901 38.3233 35.0797ZM22.8073 38.2459L22.6591 38.4073L22.8205 38.2589C22.9091 38.1773 22.9817 38.1047 22.9817 38.0975C22.9817 38.0647 22.9453 38.0957 22.8073 38.2459ZM20.4111 42.1605C20.4765 42.1705 20.5733 42.1701 20.6263 42.1599C20.6793 42.1497 20.6257 42.1417 20.5073 42.1419C20.3891 42.1423 20.3457 42.1507 20.4111 42.1605ZM55.2573 43.3123C54.6895 43.4957 54.5441 43.8015 54.5609 44.7783C54.5981 46.9329 54.6525 47.1551 55.2141 47.4487C55.5999 47.6505 55.7883 47.5975 57.1481 46.9067C58.6719 46.1325 58.7975 46.0195 58.8007 45.4209C58.8039 44.8193 58.7137 44.7397 57.0933 43.9137C55.7635 43.2357 55.6297 43.1919 55.2573 43.3123ZM22.1583 43.8369C21.9089 43.8785 21.5925 44.1199 21.4643 44.3665L21.3415 44.6021L21.3547 46.0663C21.3707 47.8247 21.4011 47.9265 21.9921 48.1939C22.4813 48.4155 22.6541 48.3415 24.0249 47.3241C25.3131 46.3677 25.3987 46.2729 25.4031 45.7949C25.4087 45.1799 25.2339 45.0253 23.7993 44.3757C22.6883 43.8729 22.4365 43.7901 22.1583 43.8369ZM20.7763 49.5631C20.8769 49.5721 21.0415 49.5721 21.1421 49.5631C21.2427 49.5539 21.1603 49.5465 20.9593 49.5465C20.7581 49.5465 20.6757 49.5539 20.7763 49.5631ZM58.4739 54.2095C58.5273 54.2197 58.6143 54.2197 58.6677 54.2095C58.7209 54.1993 58.6773 54.1909 58.5709 54.1909C58.4643 54.1909 58.4207 54.1993 58.4739 54.2095ZM51.1397 56.3309C51.1397 56.4847 51.1475 56.5477 51.1571 56.4707C51.1667 56.3937 51.1667 56.2679 51.1571 56.1911C51.1475 56.1141 51.1397 56.1771 51.1397 56.3309ZM18.0859 56.8043C18.0859 56.8871 18.0947 56.9209 18.1055 56.8795C18.1165 56.8381 18.1165 56.7703 18.1055 56.7289C18.0947 56.6875 18.0859 56.7213 18.0859 56.8043ZM53.9395 58.2243C53.9395 58.4965 53.9465 58.6079 53.9549 58.4717C53.9635 58.3357 53.9635 58.1131 53.9549 57.9769C53.9465 57.8409 53.9395 57.9521 53.9395 58.2243ZM46.5825 58.0047C46.0001 58.2693 45.9475 58.4735 46.0063 60.2445C46.0639 61.9763 46.1447 62.2163 46.7305 62.3917C47.2073 62.5347 47.3143 62.4939 48.7801 61.6123C49.9191 60.9271 49.9855 60.8541 49.9855 60.2899C49.9855 59.7415 49.9333 59.6837 48.6515 58.8147C47.2391 57.8573 47.0609 57.7875 46.5825 58.0047ZM30.3263 58.6363C29.7001 58.8351 29.6003 59.1397 29.6533 60.6889C29.7167 62.5441 29.7499 62.6617 30.2891 62.9339C30.8035 63.1937 31.0229 63.1001 32.3825 62.0415C33.6527 61.0527 33.7197 60.9747 33.7177 60.4847C33.7155 59.8695 33.5487 59.7297 32.0507 59.0889C30.8539 58.5767 30.6681 58.5279 30.3263 58.6363Z" fill="#2E2D2D"/>
<path fill-rule="evenodd" clip-rule="evenodd" d="M0 40V80H40H80V40V0H40H0V40ZM41.7334 9.7476C42.3892 9.9022 42.743 10.2776 42.5964 10.6628C42.4782 10.9734 42.1114 11.0998 41.7578 10.9522C41.3704 10.7902 40.8418 10.9512 40.6614 11.2862C40.6298 11.3448 40.8512 11.8658 41.6396 13.5884C43.8948 18.515 43.9906 18.828 43.2858 18.9672C42.7076 19.0816 42.5826 18.9464 41.963 17.534C41.4552 16.377 40.2528 13.6954 39.9378 13.0178L39.7578 12.6304L39.6276 12.9316C39.3278 13.6262 38.875 14.959 37.983 17.7734C37.6366 18.8664 37.4968 18.978 36.4736 18.978C35.5494 18.978 34.9784 18.4216 35.4086 17.9406L35.539 17.7946L35.996 17.7908C36.2474 17.7886 36.4698 17.7692 36.4906 17.7476C36.5112 17.7262 36.735 17.0306 36.988 16.2022C38.6122 10.8822 39.7842 9.288 41.7334 9.7476ZM51.49 13.7754C51.9694 13.9064 52.616 14.3158 52.733 14.5622C52.8972 14.9084 52.8192 15.0944 51.9282 16.482C51.5864 17.0146 51.3208 17.4558 51.3382 17.4624C51.3556 17.4692 52.1522 17.1418 53.1082 16.7348C55.1704 15.8572 55.3986 15.8076 55.7334 16.164C55.9634 16.409 55.9014 16.6194 55.3506 17.4616C54.8356 18.2492 54.2732 19.169 53.97 19.72C53.7338 20.1492 53.7422 20.2316 54.0446 20.4622C54.44 20.7638 54.4802 21.0374 54.1646 21.2782C53.8014 21.5552 53.4442 21.5176 52.8772 21.1426C52.0666 20.6064 52.093 20.2972 53.0964 18.5696C53.3576 18.1202 53.5646 17.7462 53.5568 17.7382C53.549 17.7304 52.7684 18.0546 51.8224 18.4586C49.9418 19.2616 49.8774 19.2796 49.4982 19.1074C48.9666 18.8662 49.1124 18.4516 50.4766 16.327C51.4156 14.8644 51.3712 14.9844 51.0468 14.7874C50.3962 14.3922 50.5162 13.885 51.2964 13.7324C51.3082 13.7302 51.3954 13.7494 51.49 13.7754ZM27.9412 14.9054C28.3756 15.0892 28.8644 16.2424 28.676 16.6392C28.417 17.1852 27.8384 17.1498 27.5426 16.5698C27.4196 16.3288 27.4008 16.3274 27.0606 16.5328C26.5588 16.8358 26.5002 16.613 27.6156 18.6444C28.2548 19.8084 28.2406 19.7934 28.5222 19.602C28.9726 19.2958 29.3776 19.698 29.2154 20.2904C29.0722 20.8146 27.894 21.431 27.5796 21.1466C27.421 21.003 26.9826 20.2724 26.4236 19.2196C25.4224 17.3348 25.5022 17.427 25.0844 17.673C24.735 17.8784 24.7358 17.877 24.8342 18.1264C24.9854 18.5104 24.908 18.8254 24.595 19.1004C24.251 19.4022 24.0228 19.2828 23.6134 18.5872C23.2206 17.9192 23.2 17.6022 23.5296 17.2884C23.7338 17.0938 27.6046 14.8776 27.7906 14.8486C27.7972 14.8476 27.865 14.873 27.9412 14.9054ZM61.6784 19.777C61.9172 19.8584 62.5296 20.469 62.6594 20.7554C62.8768 21.2338 62.7374 21.4392 61.5922 22.329C61.2786 22.5726 61.022 22.796 61.022 22.8254C61.022 22.9398 62.2136 24.3572 62.3098 24.3572C62.3486 24.3572 62.6798 24.1238 63.046 23.8386C64.1716 22.962 64.2994 22.9152 64.7314 23.2204C65.3416 23.6514 65.2362 23.8192 63.518 25.1534C61.564 26.6704 61.6152 26.6172 61.8554 26.8852C62.146 27.2096 62.2 27.412 62.0476 27.6056C61.7512 27.9826 61.2048 27.9112 60.786 27.441C60.113 26.6856 60.1422 26.3076 60.932 25.5514C61.393 25.11 61.382 25.1594 61.095 24.8204C59.1722 22.5496 59.1752 22.5632 60.3716 21.6194C60.7176 21.3466 61.0442 21.0862 61.0974 21.0406C61.2116 20.9432 61.2236 20.777 61.1222 20.6938C60.5064 20.188 60.9138 19.5166 61.6784 19.777ZM15.4922 20.873C16.0918 21.1796 16.4108 21.7666 16.17 22.1194C15.785 22.6832 14.9602 22.3912 14.7332 21.6108C14.5368 20.935 14.9082 20.5742 15.4922 20.873ZM39.5028 21.7128C41.3332 22.1442 41.977 24.3906 40.649 25.712C39.1474 27.2056 36.5958 26.1476 36.6034 24.0344C36.6092 22.5042 38.0308 21.3658 39.5028 21.7128ZM17.2394 22.3718C17.3316 22.4396 17.5524 22.6468 17.73 22.8324C18.5832 23.7242 20.0568 25.1318 20.137 25.1318C20.1844 25.1318 20.2676 25.0718 20.3214 24.9984C20.6958 24.49 21.2636 24.812 21.2066 25.5002C21.1672 25.9754 20.3478 26.8202 20.0068 26.7374C19.757 26.6766 16.5976 23.6654 16.4112 23.3104C16.1054 22.728 16.742 22.0066 17.2394 22.3718ZM45.3594 25.3048C45.9316 25.5968 45.8604 26.4388 45.139 27.9078C43.34 31.5708 38.3392 32.5882 34.706 30.03C33.364 29.0852 32.1198 27.2134 32.3804 26.5312C32.605 25.943 33.0696 25.8976 33.8248 26.39C37.713 28.925 40.9836 28.6872 44.267 25.6308C44.742 25.1886 44.9878 25.1152 45.3594 25.3048ZM68.9388 28.4016C69.2294 28.557 69.72 29.44 69.7472 29.8562C69.7788 30.3432 69.59 30.5108 68.5274 30.939C67.6982 31.273 67.691 31.281 67.8968 31.6468C68.176 32.1436 69.4398 32.5816 69.954 32.3598C70.7008 32.0376 71.252 32.4946 71.491 33.634C71.6782 34.5264 70.8138 34.9728 70.4346 34.1796L70.2958 33.8892L69.9516 33.8846C69.6502 33.8804 68.9192 33.7566 68.72 33.6758C68.6614 33.6522 68.6424 33.7014 68.6008 33.9836C68.5032 34.647 68.2092 35.0102 67.4942 35.3512C67.0556 35.5602 67.0408 35.5826 67.1714 35.8384C67.6686 36.813 66.5194 37.218 65.9864 36.256C65.3862 35.173 65.5578 34.7394 66.838 34.1054C67.6122 33.722 67.6038 33.7316 67.442 33.4064C67.374 33.2696 67.1752 32.8406 67.0006 32.4532C66.826 32.0658 66.658 31.7392 66.6274 31.7274C66.5698 31.7054 66.1596 31.8986 65.4646 32.2748C64.847 32.6092 64.4324 32.5382 64.1458 32.049C63.795 31.4504 64.0704 31.2468 66.6596 30.1912C68.386 29.4874 68.3038 29.5468 68.1222 29.1328C67.8324 28.4728 68.2962 28.0576 68.9388 28.4016ZM11.1548 30.4378C11.2564 30.4976 11.4062 30.6162 11.4878 30.701C11.6704 30.891 11.7102 30.8912 12.0064 30.7018C13.509 29.742 15.128 31.1848 15.1246 33.4804C15.1218 35.2782 14.2984 36.0054 12.7124 35.6114C10.125 34.9686 8.9056 34.163 8.739 32.9856C8.519 31.433 10.0702 29.7972 11.1548 30.4378ZM25.7198 30.5402C26.1258 30.7286 27.0282 32.1112 27.3614 33.0552C28.86 37.3016 25.2066 42.1466 20.5056 42.1468C18.94 42.1468 18.351 41.8934 18.358 41.2222C18.3622 40.8148 18.5266 40.6622 19.2576 40.3872C23.3766 38.8386 25.1476 36.0454 24.6804 31.8344C24.5914 31.0312 24.6074 30.9064 24.8274 30.6864C25.0802 30.4334 25.3828 30.384 25.7198 30.5402ZM47.7798 31.0074C49.2018 31.5992 49.3088 31.6612 49.4736 31.9862C49.751 32.5336 49.5616 33.0988 48.9842 33.4468C48.8476 33.5292 48.5712 33.699 48.37 33.8242C46.6614 34.8876 46.5112 34.9422 46.0002 34.6832C45.5422 34.4512 45.479 34.2794 45.3152 32.8206C45.1204 31.0856 45.1616 30.8744 45.7522 30.58C46.1812 30.3662 46.2986 30.391 47.7798 31.0074ZM52.8006 30.6822C53.141 30.8558 53.1648 30.932 53.1964 31.9526C53.336 36.4566 55.2048 38.8716 59.3606 39.9182C60.2866 40.1514 60.5606 40.494 60.293 41.0838C60.0198 41.6856 57.8382 42.1372 56.3694 41.8962C52.153 41.204 49.494 36.2162 51.163 32.1298C51.6888 30.8426 52.2108 30.3812 52.8006 30.6822ZM32.6526 31.5426C33.3438 31.7786 33.9846 32.0102 34.0766 32.0572C34.6456 32.3474 34.7888 33.1326 34.3696 33.6632C34.283 33.7728 32.151 35.287 31.981 35.3598C31.4942 35.568 30.824 35.2908 30.6172 34.796C30.5154 34.5526 30.1172 32.161 30.149 31.985C30.2106 31.6454 30.43 31.3626 30.746 31.2154C31.1188 31.0416 31.2534 31.0648 32.6526 31.5426ZM12.6256 31.8436C12.1428 32.0848 12.12 32.1462 12.2408 32.8828C12.2742 33.0866 12.3152 33.438 12.3318 33.6638C12.369 34.17 12.3624 34.1598 12.7144 34.2574C13.5752 34.4962 13.853 34.3936 13.9808 33.7902C14.12 33.1322 13.9216 32.4278 13.4532 31.9174C13.2192 31.6626 13.0226 31.6452 12.6256 31.8436ZM10.4358 31.838C9.9924 32.1084 9.6824 32.7966 9.9086 33.0082C10.019 33.1116 11.3022 33.7692 11.3322 33.7376C11.3922 33.6748 11.196 32.585 11.0584 32.2172C10.8904 31.768 10.7204 31.6644 10.4358 31.838ZM58.6354 32.1688C60.4706 32.6372 61.0718 34.892 59.7072 36.1882C57.9714 37.837 55.1788 36.2084 55.771 33.8928C56.092 32.6374 57.3962 31.8524 58.6354 32.1688ZM20.5934 32.556C22.3814 33.0126 23.0322 35.2206 21.7594 36.5118C20.4856 37.8042 18.3878 37.3346 17.7836 35.6218C17.1786 33.907 18.8294 32.1058 20.5934 32.556ZM40.4702 35.075C47.9332 35.8642 52.3948 45.281 48.3356 51.6762C45.2842 56.4838 38.8246 58.4614 34.9836 55.764C34.5976 55.4928 34.5846 55.5012 35.546 55.4062C40.572 54.9106 43.6362 53.6266 45.508 51.2318C47.527 48.6486 47.7268 45.3814 46.0566 42.2592C43.8482 38.131 39.5532 36.805 35.503 39.001C30.1248 41.9168 30.5074 49.339 36.0826 50.2432C38.5862 50.6494 41.0106 49.4626 41.6672 47.5094C41.997 46.5288 41.7662 44.5118 41.2214 43.6128C40.3336 42.148 38.5 42.01 37.1992 43.3102C36.2484 44.2606 36.3498 45.006 37.5988 46.2506C38.245 46.8944 38.2362 46.8784 37.9882 46.947C36.4708 47.3664 34.8324 46.4942 34.469 45.0738C33.8652 42.7126 36.4522 40.0472 39.334 40.0616C42.4004 40.077 44.461 42.7992 44.3558 46.696C44.1726 53.488 34.0624 55.5612 30.1054 49.618C27.561 45.7968 28.6818 40.3012 32.6056 37.3588C34.9496 35.601 37.7516 34.7874 40.4702 35.075ZM11.1388 38.9216C12.263 39.3184 12.9064 42.5088 12.2588 44.4756C11.7228 46.1038 10.4482 46.9148 8.4132 46.923C4.7296 46.9378 2.2354 43.7376 3.6036 40.7526C4.3932 39.0298 6.5024 38.7248 7.447 40.197C7.8416 40.8118 7.2442 41.4128 6.5514 41.0982C5.6996 40.7118 4.8122 41.7116 4.8716 42.9908C4.9372 44.407 7.1216 45.4268 9.0698 44.951C10.8276 44.5216 11.4504 42.3182 10.445 40.086C10.0454 39.1986 10.3716 38.651 11.1388 38.9216ZM68.5994 39.1988C69.1538 39.3852 69.9558 39.6784 70.382 39.8502C71.7804 40.4142 72.428 40.7216 74.8528 41.9728C75.2972 42.202 75.6632 41.5104 75.4374 40.8678C75.2984 40.4726 75.431 40.1654 75.7842 40.0642C76.4534 39.8722 76.9932 41.0618 76.687 42.0534C76.265 43.4196 74.5934 44.3286 70.0592 45.6576C69.2426 45.8968 68.5092 46.1136 68.4296 46.139L68.2846 46.1854L68.3138 46.521C68.38 47.2804 68.042 47.5934 67.499 47.2752C67.1526 47.0722 67.0474 46.8208 67.047 46.1952C67.0464 45.2152 67.2074 45.0238 68.31 44.6924C68.9948 44.4866 69.0488 44.463 69.0606 44.3632C69.0684 44.2988 68.8036 43.611 68.399 42.6444C68.028 41.758 67.6766 40.9166 67.6184 40.7746C67.5602 40.6326 67.4052 40.2874 67.2744 40.0076C66.99 39.4 66.978 39.1914 67.2154 38.9794C67.406 38.809 67.4722 38.8196 68.5994 39.1988ZM69.4838 41.269C69.7292 41.8804 69.9406 42.619 70.0832 43.3642C70.2318 44.14 70.2074 44.0822 70.3718 44.0498C70.6606 43.993 72.4568 43.4088 73.03 43.1854C73.9958 42.8088 73.981 42.8868 73.1658 42.4786C72.1394 41.9646 69.461 40.7962 69.3094 40.7962C69.3008 40.7962 69.3792 41.009 69.4838 41.269ZM57.0564 43.8768C57.7346 44.2222 58.3572 44.5578 58.44 44.623C58.9104 44.9928 58.9458 45.748 58.5124 46.1676C58.2266 46.4442 55.9408 47.5526 55.6568 47.552C54.9482 47.5508 54.6312 47.1464 54.592 46.1934C54.4964 43.864 54.4904 43.9256 54.8452 43.5698C55.3414 43.0726 55.5274 43.0984 57.0564 43.8768ZM23.7762 44.3444C25.284 45.0294 25.4128 45.1414 25.4102 45.7666C25.408 46.3146 25.3868 46.3384 23.9484 47.4028C22.6212 48.3848 22.4676 48.4434 21.9214 48.1762C21.3908 47.9166 21.3528 47.7738 21.3364 45.9818C21.3218 44.4042 21.3236 44.393 21.6314 44.1016C22.0892 43.6678 22.3522 43.6976 23.7762 44.3444ZM58.7116 49.2518C59.6716 49.3966 59.9644 49.5656 60.0506 50.0252C60.1308 50.4526 59.8972 50.7292 59.2542 50.9682C55.201 52.4756 53.5202 55.3694 54.0762 59.883C54.1774 60.7046 54.061 60.988 53.5702 61.115C52.5762 61.3722 51.219 58.858 51.1392 56.611C51.006 52.868 53.403 49.7866 56.8908 49.217C57.169 49.1716 58.326 49.1938 58.7116 49.2518ZM22.0154 49.6186C26.186 50.3316 29.042 54.701 27.8364 58.5246C27.3676 60.0116 26.1818 61.514 25.5348 61.441C24.9142 61.3712 24.7884 61.013 24.9872 59.8816C25.1198 59.1268 25.0976 57.412 24.9462 56.7024C24.4314 54.2916 22.8492 52.5546 20.0538 51.3316C19.2694 50.9884 19.2794 50.994 19.169 50.823C18.9064 50.416 19.086 49.846 19.5222 49.702C20.0746 49.5198 21.2138 49.4816 22.0154 49.6186ZM59.1182 54.2444C60.9316 54.672 61.5616 56.938 60.2312 58.2464C58.7088 59.7438 56.2022 58.6786 56.2022 56.5344C56.2022 55.0276 57.6426 53.8966 59.1182 54.2444ZM21.0634 54.5038C22.8246 54.9626 23.4294 57.1784 22.145 58.4664C20.6372 59.978 18.0742 58.9226 18.0742 56.7902C18.0742 55.2706 19.5814 54.1178 21.0634 54.5038ZM47.4336 57.9934C47.6298 58.095 49.5866 59.4286 49.7204 59.5522C49.9026 59.7202 50.014 60.0002 50.014 60.2904C50.014 60.5804 49.903 60.86 49.7204 61.0298C49.493 61.2418 47.441 62.4284 47.249 62.459C46.6016 62.5626 46.0816 62.1138 46.03 61.4074C45.9678 60.5524 45.9514 58.7904 46.0042 58.6278C46.195 58.0402 46.9102 57.7228 47.4336 57.9934ZM32.0828 59.0868C33.5352 59.7076 33.7346 59.8728 33.7376 60.4576C33.7402 60.9682 33.6476 61.077 32.367 62.0694C30.9894 63.137 30.8142 63.2088 30.26 62.9326C29.83 62.7182 29.7116 62.4616 29.677 61.6676C29.571 59.2442 29.572 59.2328 29.931 58.8832C30.4034 58.4228 30.5652 58.438 32.0828 59.0868ZM40.501 60.42C43.2006 60.6838 45.2488 62.2522 46.1046 64.7112C46.4942 65.8302 46.4488 66.2986 45.93 66.5152C45.5602 66.6698 45.3248 66.586 44.848 66.1306C41.7024 63.1252 38.4206 62.8922 34.5166 65.3974C33.947 65.7628 33.7802 65.7958 33.458 65.607C32.9924 65.3342 32.9654 64.969 33.3532 64.1944C34.6046 61.6946 37.5622 60.133 40.501 60.42ZM40.1056 65.6472C41.8692 66.1164 42.5026 68.2766 41.257 69.5738C39.796 71.0954 37.2988 70.1994 37.153 68.1012C37.044 66.5304 38.5914 65.2442 40.1056 65.6472Z" fill="#FBFBF9"/>
<path fill-rule="evenodd" clip-rule="evenodd" d="M0 40V80H40H80V40V0H40H0V40ZM41.7334 9.7476C42.3892 9.9022 42.743 10.2776 42.5964 10.6628C42.4782 10.9734 42.1114 11.0998 41.7578 10.9522C41.3704 10.7902 40.8418 10.9512 40.6614 11.2862C40.6298 11.3448 40.8512 11.8658 41.6396 13.5884C43.8948 18.515 43.9906 18.828 43.2858 18.9672C42.7076 19.0816 42.5826 18.9464 41.963 17.534C41.4552 16.377 40.2528 13.6954 39.9378 13.0178L39.7578 12.6304L39.6276 12.9316C39.3278 13.6262 38.875 14.959 37.983 17.7734C37.6366 18.8664 37.4968 18.978 36.4736 18.978C35.5494 18.978 34.9784 18.4216 35.4086 17.9406L35.539 17.7946L35.996 17.7908C36.2474 17.7886 36.4698 17.7692 36.4906 17.7476C36.5112 17.7262 36.735 17.0306 36.988 16.2022C38.6122 10.8822 39.7842 9.288 41.7334 9.7476ZM51.49 13.7754C51.9694 13.9064 52.616 14.3158 52.733 14.5622C52.8972 14.9084 52.8192 15.0944 51.9282 16.482C51.5864 17.0146 51.3208 17.4558 51.3382 17.4624C51.3556 17.4692 52.1522 17.1418 53.1082 16.7348C55.1704 15.8572 55.3986 15.8076 55.7334 16.164C55.9634 16.409 55.9014 16.6194 55.3506 17.4616C54.8356 18.2492 54.2732 19.169 53.97 19.72C53.7338 20.1492 53.7422 20.2316 54.0446 20.4622C54.44 20.7638 54.4802 21.0374 54.1646 21.2782C53.8014 21.5552 53.4442 21.5176 52.8772 21.1426C52.0666 20.6064 52.093 20.2972 53.0964 18.5696C53.3576 18.1202 53.5646 17.7462 53.5568 17.7382C53.549 17.7304 52.7684 18.0546 51.8224 18.4586C49.9418 19.2616 49.8774 19.2796 49.4982 19.1074C48.9666 18.8662 49.1124 18.4516 50.4766 16.327C51.4156 14.8644 51.3712 14.9844 51.0468 14.7874C50.3962 14.3922 50.5162 13.885 51.2964 13.7324C51.3082 13.7302 51.3954 13.7494 51.49 13.7754ZM27.9412 14.9054C28.3756 15.0892 28.8644 16.2424 28.676 16.6392C28.417 17.1852 27.8384 17.1498 27.5426 16.5698C27.4196 16.3288 27.4008 16.3274 27.0606 16.5328C26.5588 16.8358 26.5002 16.613 27.6156 18.6444C28.2548 19.8084 28.2406 19.7934 28.5222 19.602C28.9726 19.2958 29.3776 19.698 29.2154 20.2904C29.0722 20.8146 27.894 21.431 27.5796 21.1466C27.421 21.003 26.9826 20.2724 26.4236 19.2196C25.4224 17.3348 25.5022 17.427 25.0844 17.673C24.735 17.8784 24.7358 17.877 24.8342 18.1264C24.9854 18.5104 24.908 18.8254 24.595 19.1004C24.251 19.4022 24.0228 19.2828 23.6134 18.5872C23.2206 17.9192 23.2 17.6022 23.5296 17.2884C23.7338 17.0938 27.6046 14.8776 27.7906 14.8486C27.7972 14.8476 27.865 14.873 27.9412 14.9054ZM61.6784 19.777C61.9172 19.8584 62.5296 20.469 62.6594 20.7554C62.8768 21.2338 62.7374 21.4392 61.5922 22.329C61.2786 22.5726 61.022 22.796 61.022 22.8254C61.022 22.9398 62.2136 24.3572 62.3098 24.3572C62.3486 24.3572 62.6798 24.1238 63.046 23.8386C64.1716 22.962 64.2994 22.9152 64.7314 23.2204C65.3416 23.6514 65.2362 23.8192 63.518 25.1534C61.564 26.6704 61.6152 26.6172 61.8554 26.8852C62.146 27.2096 62.2 27.412 62.0476 27.6056C61.7512 27.9826 61.2048 27.9112 60.786 27.441C60.113 26.6856 60.1422 26.3076 60.932 25.5514C61.393 25.11 61.382 25.1594 61.095 24.8204C59.1722 22.5496 59.1752 22.5632 60.3716 21.6194C60.7176 21.3466 61.0442 21.0862 61.0974 21.0406C61.2116 20.9432 61.2236 20.777 61.1222 20.6938C60.5064 20.188 60.9138 19.5166 61.6784 19.777ZM15.4922 20.873C16.0918 21.1796 16.4108 21.7666 16.17 22.1194C15.785 22.6832 14.9602 22.3912 14.7332 21.6108C14.5368 20.935 14.9082 20.5742 15.4922 20.873ZM39.5028 21.7128C41.3332 22.1442 41.977 24.3906 40.649 25.712C39.1474 27.2056 36.5958 26.1476 36.6034 24.0344C36.6092 22.5042 38.0308 21.3658 39.5028 21.7128ZM17.2394 22.3718C17.3316 22.4396 17.5524 22.6468 17.73 22.8324C18.5832 23.7242 20.0568 25.1318 20.137 25.1318C20.1844 25.1318 20.2676 25.0718 20.3214 24.9984C20.6958 24.49 21.2636 24.812 21.2066 25.5002C21.1672 25.9754 20.3478 26.8202 20.0068 26.7374C19.757 26.6766 16.5976 23.6654 16.4112 23.3104C16.1054 22.728 16.742 22.0066 17.2394 22.3718ZM45.3594 25.3048C45.9316 25.5968 45.8604 26.4388 45.139 27.9078C43.34 31.5708 38.3392 32.5882 34.706 30.03C33.364 29.0852 32.1198 27.2134 32.3804 26.5312C32.605 25.943 33.0696 25.8976 33.8248 26.39C37.713 28.925 40.9836 28.6872 44.267 25.6308C44.742 25.1886 44.9878 25.1152 45.3594 25.3048ZM68.9388 28.4016C69.2294 28.557 69.72 29.44 69.7472 29.8562C69.7788 30.3432 69.59 30.5108 68.5274 30.939C67.6982 31.273 67.691 31.281 67.8968 31.6468C68.176 32.1436 69.4398 32.5816 69.954 32.3598C70.7008 32.0376 71.252 32.4946 71.491 33.634C71.6782 34.5264 70.8138 34.9728 70.4346 34.1796L70.2958 33.8892L69.9516 33.8846C69.6502 33.8804 68.9192 33.7566 68.72 33.6758C68.6614 33.6522 68.6424 33.7014 68.6008 33.9836C68.5032 34.647 68.2092 35.0102 67.4942 35.3512C67.0556 35.5602 67.0408 35.5826 67.1714 35.8384C67.6686 36.813 66.5194 37.218 65.9864 36.256C65.3862 35.173 65.5578 34.7394 66.838 34.1054C67.6122 33.722 67.6038 33.7316 67.442 33.4064C67.374 33.2696 67.1752 32.8406 67.0006 32.4532C66.826 32.0658 66.658 31.7392 66.6274 31.7274C66.5698 31.7054 66.1596 31.8986 65.4646 32.2748C64.847 32.6092 64.4324 32.5382 64.1458 32.049C63.795 31.4504 64.0704 31.2468 66.6596 30.1912C68.386 29.4874 68.3038 29.5468 68.1222 29.1328C67.8324 28.4728 68.2962 28.0576 68.9388 28.4016ZM11.1548 30.4378C11.2564 30.4976 11.4062 30.6162 11.4878 30.701C11.6704 30.891 11.7102 30.8912 12.0064 30.7018C13.509 29.742 15.128 31.1848 15.1246 33.4804C15.1218 35.2782 14.2984 36.0054 12.7124 35.6114C10.125 34.9686 8.9056 34.163 8.739 32.9856C8.519 31.433 10.0702 29.7972 11.1548 30.4378ZM25.7198 30.5402C26.1258 30.7286 27.0282 32.1112 27.3614 33.0552C28.86 37.3016 25.2066 42.1466 20.5056 42.1468C18.94 42.1468 18.351 41.8934 18.358 41.2222C18.3622 40.8148 18.5266 40.6622 19.2576 40.3872C23.3766 38.8386 25.1476 36.0454 24.6804 31.8344C24.5914 31.0312 24.6074 30.9064 24.8274 30.6864C25.0802 30.4334 25.3828 30.384 25.7198 30.5402ZM47.7798 31.0074C49.2018 31.5992 49.3088 31.6612 49.4736 31.9862C49.751 32.5336 49.5616 33.0988 48.9842 33.4468C48.8476 33.5292 48.5712 33.699 48.37 33.8242C46.6614 34.8876 46.5112 34.9422 46.0002 34.6832C45.5422 34.4512 45.479 34.2794 45.3152 32.8206C45.1204 31.0856 45.1616 30.8744 45.7522 30.58C46.1812 30.3662 46.2986 30.391 47.7798 31.0074ZM52.8006 30.6822C53.141 30.8558 53.1648 30.932 53.1964 31.9526C53.336 36.4566 55.2048 38.8716 59.3606 39.9182C60.2866 40.1514 60.5606 40.494 60.293 41.0838C60.0198 41.6856 57.8382 42.1372 56.3694 41.8962C52.153 41.204 49.494 36.2162 51.163 32.1298C51.6888 30.8426 52.2108 30.3812 52.8006 30.6822ZM32.6526 31.5426C33.3438 31.7786 33.9846 32.0102 34.0766 32.0572C34.6456 32.3474 34.7888 33.1326 34.3696 33.6632C34.283 33.7728 32.151 35.287 31.981 35.3598C31.4942 35.568 30.824 35.2908 30.6172 34.796C30.5154 34.5526 30.1172 32.161 30.149 31.985C30.2106 31.6454 30.43 31.3626 30.746 31.2154C31.1188 31.0416 31.2534 31.0648 32.6526 31.5426ZM12.6256 31.8436C12.1428 32.0848 12.12 32.1462 12.2408 32.8828C12.2742 33.0866 12.3152 33.438 12.3318 33.6638C12.369 34.17 12.3624 34.1598 12.7144 34.2574C13.5752 34.4962 13.853 34.3936 13.9808 33.7902C14.12 33.1322 13.9216 32.4278 13.4532 31.9174C13.2192 31.6626 13.0226 31.6452 12.6256 31.8436ZM10.4358 31.838C9.9924 32.1084 9.6824 32.7966 9.9086 33.0082C10.019 33.1116 11.3022 33.7692 11.3322 33.7376C11.3922 33.6748 11.196 32.585 11.0584 32.2172C10.8904 31.768 10.7204 31.6644 10.4358 31.838ZM58.6354 32.1688C60.4706 32.6372 61.0718 34.892 59.7072 36.1882C57.9714 37.837 55.1788 36.2084 55.771 33.8928C56.092 32.6374 57.3962 31.8524 58.6354 32.1688ZM20.5934 32.556C22.3814 33.0126 23.0322 35.2206 21.7594 36.5118C20.4856 37.8042 18.3878 37.3346 17.7836 35.6218C17.1786 33.907 18.8294 32.1058 20.5934 32.556ZM40.4702 35.075C47.9332 35.8642 52.3948 45.281 48.3356 51.6762C45.2842 56.4838 38.8246 58.4614 34.9836 55.764C34.5976 55.4928 34.5846 55.5012 35.546 55.4062C40.572 54.9106 43.6362 53.6266 45.508 51.2318C47.527 48.6486 47.7268 45.3814 46.0566 42.2592C43.8482 38.131 39.5532 36.805 35.503 39.001C30.1248 41.9168 30.5074 49.339 36.0826 50.2432C38.5862 50.6494 41.0106 49.4626 41.6672 47.5094C41.997 46.5288 41.7662 44.5118 41.2214 43.6128C40.3336 42.148 38.5 42.01 37.1992 43.3102C36.2484 44.2606 36.3498 45.006 37.5988 46.2506C38.245 46.8944 38.2362 46.8784 37.9882 46.947C36.4708 47.3664 34.8324 46.4942 34.469 45.0738C33.8652 42.7126 36.4522 40.0472 39.334 40.0616C42.4004 40.077 44.461 42.7992 44.3558 46.696C44.1726 53.488 34.0624 55.5612 30.1054 49.618C27.561 45.7968 28.6818 40.3012 32.6056 37.3588C34.9496 35.601 37.7516 34.7874 40.4702 35.075ZM11.1388 38.9216C12.263 39.3184 12.9064 42.5088 12.2588 44.4756C11.7228 46.1038 10.4482 46.9148 8.4132 46.923C4.7296 46.9378 2.2354 43.7376 3.6036 40.7526C4.3932 39.0298 6.5024 38.7248 7.447 40.197C7.8416 40.8118 7.2442 41.4128 6.5514 41.0982C5.6996 40.7118 4.8122 41.7116 4.8716 42.9908C4.9372 44.407 7.1216 45.4268 9.0698 44.951C10.8276 44.5216 11.4504 42.3182 10.445 40.086C10.0454 39.1986 10.3716 38.651 11.1388 38.9216ZM68.5994 39.1988C69.1538 39.3852 69.9558 39.6784 70.382 39.8502C71.7804 40.4142 72.428 40.7216 74.8528 41.9728C75.2972 42.202 75.6632 41.5104 75.4374 40.8678C75.2984 40.4726 75.431 40.1654 75.7842 40.0642C76.4534 39.8722 76.9932 41.0618 76.687 42.0534C76.265 43.4196 74.5934 44.3286 70.0592 45.6576C69.2426 45.8968 68.5092 46.1136 68.4296 46.139L68.2846 46.1854L68.3138 46.521C68.38 47.2804 68.042 47.5934 67.499 47.2752C67.1526 47.0722 67.0474 46.8208 67.047 46.1952C67.0464 45.2152 67.2074 45.0238 68.31 44.6924C68.9948 44.4866 69.0488 44.463 69.0606 44.3632C69.0684 44.2988 68.8036 43.611 68.399 42.6444C68.028 41.758 67.6766 40.9166 67.6184 40.7746C67.5602 40.6326 67.4052 40.2874 67.2744 40.0076C66.99 39.4 66.978 39.1914 67.2154 38.9794C67.406 38.809 67.4722 38.8196 68.5994 39.1988ZM69.4838 41.269C69.7292 41.8804 69.9406 42.619 70.0832 43.3642C70.2318 44.14 70.2074 44.0822 70.3718 44.0498C70.6606 43.993 72.4568 43.4088 73.03 43.1854C73.9958 42.8088 73.981 42.8868 73.1658 42.4786C72.1394 41.9646 69.461 40.7962 69.3094 40.7962C69.3008 40.7962 69.3792 41.009 69.4838 41.269ZM57.0564 43.8768C57.7346 44.2222 58.3572 44.5578 58.44 44.623C58.9104 44.9928 58.9458 45.748 58.5124 46.1676C58.2266 46.4442 55.9408 47.5526 55.6568 47.552C54.9482 47.5508 54.6312 47.1464 54.592 46.1934C54.4964 43.864 54.4904 43.9256 54.8452 43.5698C55.3414 43.0726 55.5274 43.0984 57.0564 43.8768ZM23.7762 44.3444C25.284 45.0294 25.4128 45.1414 25.4102 45.7666C25.408 46.3146 25.3868 46.3384 23.9484 47.4028C22.6212 48.3848 22.4676 48.4434 21.9214 48.1762C21.3908 47.9166 21.3528 47.7738 21.3364 45.9818C21.3218 44.4042 21.3236 44.393 21.6314 44.1016C22.0892 43.6678 22.3522 43.6976 23.7762 44.3444ZM58.7116 49.2518C59.6716 49.3966 59.9644 49.5656 60.0506 50.0252C60.1308 50.4526 59.8972 50.7292 59.2542 50.9682C55.201 52.4756 53.5202 55.3694 54.0762 59.883C54.1774 60.7046 54.061 60.988 53.5702 61.115C52.5762 61.3722 51.219 58.858 51.1392 56.611C51.006 52.868 53.403 49.7866 56.8908 49.217C57.169 49.1716 58.326 49.1938 58.7116 49.2518ZM22.0154 49.6186C26.186 50.3316 29.042 54.701 27.8364 58.5246C27.3676 60.0116 26.1818 61.514 25.5348 61.441C24.9142 61.3712 24.7884 61.013 24.9872 59.8816C25.1198 59.1268 25.0976 57.412 24.9462 56.7024C24.4314 54.2916 22.8492 52.5546 20.0538 51.3316C19.2694 50.9884 19.2794 50.994 19.169 50.823C18.9064 50.416 19.086 49.846 19.5222 49.702C20.0746 49.5198 21.2138 49.4816 22.0154 49.6186ZM59.1182 54.2444C60.9316 54.672 61.5616 56.938 60.2312 58.2464C58.7088 59.7438 56.2022 58.6786 56.2022 56.5344C56.2022 55.0276 57.6426 53.8966 59.1182 54.2444ZM21.0634 54.5038C22.8246 54.9626 23.4294 57.1784 22.145 58.4664C20.6372 59.978 18.0742 58.9226 18.0742 56.7902C18.0742 55.2706 19.5814 54.1178 21.0634 54.5038ZM47.4336 57.9934C47.6298 58.095 49.5866 59.4286 49.7204 59.5522C49.9026 59.7202 50.014 60.0002 50.014 60.2904C50.014 60.5804 49.903 60.86 49.7204 61.0298C49.493 61.2418 47.441 62.4284 47.249 62.459C46.6016 62.5626 46.0816 62.1138 46.03 61.4074C45.9678 60.5524 45.9514 58.7904 46.0042 58.6278C46.195 58.0402 46.9102 57.7228 47.4336 57.9934ZM32.0828 59.0868C33.5352 59.7076 33.7346 59.8728 33.7376 60.4576C33.7402 60.9682 33.6476 61.077 32.367 62.0694C30.9894 63.137 30.8142 63.2088 30.26 62.9326C29.83 62.7182 29.7116 62.4616 29.677 61.6676C29.571 59.2442 29.572 59.2328 29.931 58.8832C30.4034 58.4228 30.5652 58.438 32.0828 59.0868ZM40.501 60.42C43.2006 60.6838 45.2488 62.2522 46.1046 64.7112C46.4942 65.8302 46.4488 66.2986 45.93 66.5152C45.5602 66.6698 45.3248 66.586 44.848 66.1306C41.7024 63.1252 38.4206 62.8922 34.5166 65.3974C33.947 65.7628 33.7802 65.7958 33.458 65.607C32.9924 65.3342 32.9654 64.969 33.3532 64.1944C34.6046 61.6946 37.5622 60.133 40.501 60.42ZM40.1056 65.6472C41.8692 66.1164 42.5026 68.2766 41.257 69.5738C39.796 71.0954 37.2988 70.1994 37.153 68.1012C37.044 66.5304 38.5914 65.2442 40.1056 65.6472Z" fill="#FBFBF9"/>
<path fill-rule="evenodd" clip-rule="evenodd" d="M38.8249 21.677C38.9135 21.6862 39.0589 21.6862 39.1475 21.677C39.2363 21.6678 39.1637 21.6602 38.9863 21.6602C38.8087 21.6602 38.7361 21.6678 38.8249 21.677ZM17.7921 22.9366C17.8845 23.0314 17.9697 23.1088 17.9817 23.1088C17.9935 23.1088 17.9275 23.0314 17.8351 22.9366C17.7425 22.842 17.6573 22.7646 17.6455 22.7646C17.6337 22.7646 17.6995 22.842 17.7921 22.9366ZM18.5021 23.6468C18.6545 23.8006 18.7889 23.9264 18.8009 23.9264C18.8127 23.9264 18.6975 23.8006 18.5451 23.6468C18.3927 23.4928 18.2581 23.367 18.2463 23.367C18.2345 23.367 18.3495 23.4928 18.5021 23.6468ZM36.5893 24.0556C36.5893 24.1858 36.5973 24.239 36.6071 24.1738C36.6169 24.1088 36.6169 24.0022 36.6071 23.9372C36.5973 23.8722 36.5893 23.9254 36.5893 24.0556ZM38.7387 26.409C38.7801 26.4198 38.8479 26.4198 38.8893 26.409C38.9307 26.3982 38.8969 26.3894 38.8141 26.3894C38.7313 26.3894 38.6973 26.3982 38.7387 26.409ZM39.0831 26.409C39.1245 26.4198 39.1923 26.4198 39.2337 26.409C39.2751 26.3982 39.2411 26.3894 39.1583 26.3894C39.0755 26.3894 39.0417 26.3982 39.0831 26.409ZM38.3299 28.1312C38.3831 28.1414 38.4703 28.1414 38.5235 28.1312C38.5769 28.1208 38.5333 28.1124 38.4267 28.1124C38.3203 28.1124 38.2767 28.1208 38.3299 28.1312ZM39.0615 28.1312C39.1147 28.1414 39.2019 28.1414 39.2551 28.1312C39.3085 28.1208 39.2649 28.1124 39.1583 28.1124C39.0519 28.1124 39.0083 28.1208 39.0615 28.1312ZM38.9983 31.446C39.1115 31.455 39.2857 31.4548 39.3855 31.4458C39.4855 31.4368 39.3929 31.4294 39.1799 31.4296C38.9669 31.4298 38.8851 31.4372 38.9983 31.446ZM30.1313 32.146C30.1313 32.2288 30.1401 32.2626 30.1509 32.2212C30.1617 32.1798 30.1617 32.112 30.1509 32.0706C30.1401 32.0292 30.1313 32.063 30.1313 32.146ZM12.1431 32.318C12.1431 32.4008 12.1519 32.4348 12.1627 32.3934C12.1735 32.352 12.1735 32.2842 12.1627 32.2428C12.1519 32.2014 12.1431 32.2352 12.1431 32.318ZM53.1983 32.6408C53.1987 32.7354 53.2075 32.7692 53.2179 32.7156C53.2281 32.662 53.2277 32.5846 53.2169 32.5434C53.2061 32.5024 53.1977 32.5462 53.1983 32.6408ZM24.7587 33.1142C24.7587 33.4218 24.7657 33.542 24.7739 33.3814C24.7823 33.2206 24.7821 32.9688 24.7739 32.822C24.7655 32.675 24.7587 32.8064 24.7587 33.1142ZM49.2471 33.2326L49.1207 33.3724L49.2605 33.246C49.3909 33.1282 49.4201 33.0926 49.3869 33.0926C49.3795 33.0926 49.3165 33.1556 49.2471 33.2326ZM68.6035 33.7382C68.6035 33.821 68.6124 33.8548 68.6231 33.8134C68.6341 33.772 68.6341 33.7042 68.6231 33.6628C68.6124 33.6214 68.6035 33.6554 68.6035 33.7382ZM50.6607 34.3622C50.6611 34.4806 50.6693 34.5238 50.6793 34.4584C50.6891 34.393 50.6889 34.2962 50.6787 34.2432C50.6685 34.1902 50.6603 34.2438 50.6607 34.3622ZM60.4314 34.4912C60.4314 34.657 60.4392 34.7194 60.4486 34.6302C60.458 34.5408 60.4577 34.4054 60.4481 34.329C60.4387 34.2526 60.4312 34.3256 60.4314 34.4912ZM27.6805 34.7494C27.6809 34.8678 27.6893 34.9112 27.6991 34.8458C27.7091 34.7802 27.7087 34.6834 27.6985 34.6306C27.6883 34.5776 27.6803 34.6312 27.6805 34.7494ZM17.6537 34.8786C17.6541 34.997 17.6623 35.0402 17.6723 34.9748C17.6821 34.9094 17.6819 34.8126 17.6717 34.7596C17.6615 34.7068 17.6533 34.7602 17.6537 34.8786ZM46.4209 34.8014C46.4743 34.8118 46.5519 34.8114 46.5929 34.8006C46.6341 34.7898 46.5903 34.7814 46.4957 34.7818C46.4009 34.7824 46.3673 34.7912 46.4209 34.8014ZM50.6607 35.0938C50.6611 35.212 50.6693 35.2554 50.6793 35.19C50.6891 35.1246 50.6889 35.0278 50.6787 34.9748C50.6685 34.9218 50.6603 34.9754 50.6607 35.0938ZM27.6805 35.395C27.6809 35.5134 27.6893 35.5566 27.6991 35.4912C27.7091 35.4258 27.7087 35.329 27.6985 35.276C27.6883 35.2232 27.6803 35.2766 27.6805 35.395ZM57.9541 36.8678C58.0315 36.8774 58.1478 36.8772 58.2123 36.8674C58.2771 36.8576 58.2137 36.8498 58.0718 36.85C57.9297 36.8502 57.8769 36.8582 57.9541 36.8678ZM19.9115 37.255C19.9883 37.2646 20.1143 37.2646 20.1911 37.255C20.2681 37.2454 20.2051 37.2376 20.0513 37.2376C19.8975 37.2376 19.8345 37.2454 19.9115 37.255ZM46.1299 37.7188C46.2101 37.8016 46.2855 37.8694 46.2973 37.8694C46.3091 37.8694 46.2531 37.8016 46.1729 37.7188C46.0925 37.636 46.0171 37.5682 46.0053 37.5682C45.9935 37.5682 46.0495 37.636 46.1299 37.7188ZM55.2531 37.8048C55.3333 37.8878 55.4087 37.9554 55.4205 37.9554C55.4323 37.9554 55.3763 37.8878 55.2961 37.8048C55.2157 37.722 55.1403 37.6542 55.1285 37.6542C55.1167 37.6542 55.1727 37.722 55.2531 37.8048ZM31.7761 38.0524L31.6059 38.2352L31.7887 38.065C31.9589 37.9068 31.9915 37.8694 31.9589 37.8694C31.9519 37.8694 31.8695 37.9518 31.7761 38.0524ZM46.6463 38.2352C46.7265 38.318 46.8019 38.3858 46.8137 38.3858C46.8255 38.3858 46.7695 38.318 46.6893 38.2352C46.6089 38.1524 46.5337 38.0846 46.5217 38.0846C46.5099 38.0846 46.5659 38.1524 46.6463 38.2352ZM31.3239 38.5042L31.1755 38.6656L31.3369 38.5172C31.4871 38.3792 31.5181 38.3428 31.4853 38.3428C31.4781 38.3428 31.4055 38.4154 31.3239 38.5042ZM44.1933 39.8274C44.2735 39.9104 44.3489 39.978 44.3609 39.978C44.3727 39.978 44.3167 39.9104 44.2363 39.8274C44.1561 39.7446 44.0807 39.6768 44.0689 39.6768C44.0571 39.6768 44.1131 39.7446 44.1933 39.8274ZM25.5165 39.9996C25.4121 40.1062 25.3363 40.1932 25.3481 40.1932C25.3599 40.1932 25.4551 40.1062 25.5597 39.9996C25.6641 39.893 25.7401 39.806 25.7281 39.806C25.7163 39.806 25.6211 39.893 25.5165 39.9996ZM44.6237 40.2578C44.7039 40.3406 44.7793 40.4084 44.7911 40.4084C44.8029 40.4084 44.7469 40.3406 44.6667 40.2578C44.5863 40.175 44.5111 40.1072 44.4991 40.1072C44.4873 40.1072 44.5433 40.175 44.6237 40.2578ZM33.6501 40.3438C33.5455 40.4504 33.4697 40.5376 33.4815 40.5376C33.4933 40.5376 33.5885 40.4504 33.6931 40.3438C33.7975 40.2374 33.8735 40.1502 33.8615 40.1502C33.8497 40.1502 33.7545 40.2374 33.6501 40.3438ZM60.3428 40.7526C60.3428 40.8592 60.3512 40.9028 60.3614 40.8496C60.3717 40.7962 60.3717 40.7092 60.3614 40.6558C60.3512 40.6026 60.3428 40.6462 60.3428 40.7526ZM42.5993 41.452C42.7047 41.5644 42.7967 41.6564 42.8037 41.6564C42.8359 41.6564 42.8019 41.6178 42.6119 41.4394L42.4073 41.2476L42.5993 41.452ZM35.6713 41.6026L35.3929 41.893L35.6833 41.6146C35.8431 41.4614 35.9739 41.3308 35.9739 41.3242C35.9739 41.2924 35.9301 41.3328 35.6713 41.6026ZM20.0411 42.1602C20.0945 42.1706 20.1721 42.1702 20.2131 42.1594C20.2543 42.1486 20.2105 42.1402 20.1159 42.1406C20.0211 42.1412 19.9875 42.15 20.0411 42.1602ZM20.8157 42.1602C20.8691 42.1706 20.9467 42.1702 20.9877 42.1594C21.0289 42.1486 20.9851 42.1402 20.8905 42.1406C20.7957 42.1412 20.7621 42.15 20.8157 42.1602ZM4.82814 42.8828C4.82874 42.9776 4.83754 43.0112 4.84774 42.9576C4.85814 42.9042 4.85774 42.8266 4.84694 42.7856C4.83614 42.7444 4.82774 42.7882 4.82814 42.8828ZM36.5433 44.5828C36.5433 44.6656 36.5521 44.6994 36.5629 44.658C36.5737 44.6166 36.5737 44.5488 36.5629 44.5074C36.5521 44.466 36.5433 44.4998 36.5433 44.5828ZM54.5331 44.6688C54.5331 44.7752 54.5415 44.8188 54.5519 44.7656C54.5621 44.7124 54.5621 44.6252 54.5519 44.572C54.5415 44.5186 54.5331 44.5622 54.5331 44.6688ZM21.3157 45.1636C21.3157 45.4476 21.3227 45.5582 21.3311 45.4094C21.3397 45.2606 21.3395 45.0282 21.3311 44.893C21.3225 44.7578 21.3157 44.8796 21.3157 45.1636ZM54.5761 45.9598C54.5761 46.0664 54.5845 46.1098 54.5949 46.0566C54.6051 46.0034 54.6051 45.9162 54.5949 45.863C54.5845 45.8098 54.5761 45.8532 54.5761 45.9598ZM47.1727 46.0888C47.1727 46.1718 47.1815 46.2056 47.1923 46.1642C47.2031 46.1228 47.2031 46.055 47.1923 46.0136C47.1815 45.9722 47.1727 46.006 47.1727 46.0888ZM37.9103 46.5758C37.9103 46.5832 37.9733 46.646 38.0503 46.7156L38.1901 46.842L38.0637 46.7022C37.9459 46.5718 37.9103 46.5424 37.9103 46.5758ZM68.3046 46.756C68.305 46.8742 68.3134 46.9176 68.3232 46.8522C68.3331 46.7868 68.3328 46.69 68.3226 46.637C68.3124 46.584 68.3044 46.6376 68.3046 46.756ZM49.8407 46.9496C49.8407 47.0324 49.8495 47.0664 49.8605 47.0248C49.8713 46.9834 49.8713 46.9156 49.8605 46.8742C49.8495 46.8328 49.8407 46.8668 49.8407 46.9496ZM8.50794 46.937C8.56154 46.9472 8.63894 46.9468 8.68014 46.9362C8.72134 46.9254 8.67754 46.917 8.58274 46.9174C8.48814 46.9178 8.45454 46.9266 8.50794 46.937ZM40.7937 48.9076C40.6891 49.0142 40.6133 49.1012 40.6251 49.1012C40.6369 49.1012 40.7321 49.0142 40.8367 48.9076C40.9411 48.8012 41.0171 48.714 41.0051 48.714C40.9933 48.714 40.8981 48.8012 40.7937 48.9076ZM20.3633 49.5612C20.4047 49.572 20.4725 49.572 20.5139 49.5612C20.5553 49.5504 20.5215 49.5416 20.4385 49.5416C20.3557 49.5416 20.3219 49.5504 20.3633 49.5612ZM21.3961 49.5612C21.4375 49.572 21.5053 49.572 21.5467 49.5612C21.5881 49.5504 21.5543 49.5416 21.4715 49.5416C21.3885 49.5416 21.3547 49.5504 21.3961 49.5612ZM31.0465 50.7796C31.2109 50.9452 31.3551 51.0808 31.3669 51.0808C31.3787 51.0808 31.2539 50.9452 31.0895 50.7796C30.9251 50.614 30.7809 50.4784 30.7691 50.4784C30.7573 50.4784 30.8821 50.614 31.0465 50.7796ZM42.5137 50.941L42.2353 51.2314L42.5257 50.953C42.7955 50.6944 42.8359 50.6504 42.8043 50.6504C42.7977 50.6504 42.6669 50.7812 42.5137 50.941ZM44.8379 51.9738L44.4731 52.3504L44.8495 51.9853C45.0567 51.7847 45.2261 51.6154 45.2261 51.609C45.2261 51.5776 45.1767 51.624 44.8379 51.9738ZM36.5225 53.0908C36.5757 53.101 36.6629 53.101 36.7161 53.0908C36.7695 53.0804 36.7259 53.0722 36.6193 53.0722C36.5129 53.0722 36.4693 53.0804 36.5225 53.0908ZM37.2545 53.0908C37.3081 53.1012 37.3855 53.1008 37.4267 53.09C37.4679 53.0792 37.4241 53.0708 37.3293 53.0712C37.2347 53.0718 37.2011 53.0806 37.2545 53.0908ZM46.9881 53.3938L46.8399 53.5552L47.0013 53.4069C47.0901 53.3253 47.1627 53.2528 47.1627 53.2456C47.1627 53.2128 47.1263 53.2436 46.9881 53.3938ZM46.4287 53.9534L46.2805 54.1147L46.4419 53.9664C46.5305 53.8848 46.6033 53.8122 46.6033 53.805C46.6033 53.7722 46.5667 53.8032 46.4287 53.9534ZM51.1335 55.9006C51.1335 56.0072 51.1419 56.0508 51.1521 55.9974C51.1623 55.9442 51.1623 55.857 51.1521 55.8038C51.1419 55.7506 51.1335 55.7942 51.1335 55.9006ZM28.1141 56.6752C28.1141 56.9 28.1213 56.992 28.1303 56.8796C28.1391 56.7672 28.1391 56.5831 28.1303 56.4707C28.1213 56.3583 28.1141 56.4504 28.1141 56.6752ZM22.8193 56.8043C22.8193 56.9581 22.8271 57.0212 22.8365 56.9441C22.8461 56.8671 22.8461 56.7414 22.8365 56.6644C22.8271 56.5876 22.8193 56.6503 22.8193 56.8043ZM51.1335 56.8043C51.1335 56.9108 51.1419 56.9544 51.1521 56.9011C51.1623 56.8479 51.1623 56.7608 51.1521 56.7076C51.1419 56.6542 51.1335 56.6978 51.1335 56.8043ZM38.6097 56.9629C38.6511 56.9739 38.7189 56.9739 38.7603 56.9629C38.8017 56.9521 38.7679 56.9434 38.6849 56.9434C38.6021 56.9434 38.5683 56.9521 38.6097 56.9629ZM25.1027 58.332C25.1027 58.616 25.1097 58.7266 25.1181 58.5778C25.1265 58.429 25.1265 58.1965 25.1181 58.0614C25.1095 57.9262 25.1027 58.048 25.1027 58.332ZM53.9729 59.0636C53.9733 59.1582 53.9821 59.192 53.9925 59.1384C54.0027 59.0848 54.0023 59.0074 53.9915 58.9662C53.9807 58.9252 53.9723 58.969 53.9729 59.0636ZM58.4268 58.9441C58.5037 58.9536 58.6296 58.9536 58.7066 58.9441C58.7836 58.9346 58.7206 58.9268 58.5667 58.9268C58.4128 58.9268 58.3499 58.9346 58.4268 58.9441ZM45.9705 59.6876C45.9705 59.8178 45.9787 59.871 45.9885 59.806C45.9983 59.7408 45.9983 59.6343 45.9885 59.5691C45.9787 59.5042 45.9705 59.5574 45.9705 59.6876ZM29.6165 60.075C29.6165 60.1814 29.6249 60.2249 29.6351 60.1717C29.6455 60.1184 29.6455 60.0314 29.6351 59.978C29.6249 59.9248 29.6165 59.9684 29.6165 60.075ZM39.6869 60.4077C39.7999 60.4167 39.9743 60.4166 40.0741 60.4076C40.1739 60.3986 40.0815 60.3912 39.8683 60.3914C39.6553 60.3916 39.5737 60.3989 39.6869 60.4077ZM46.0131 61.1292C46.0133 61.2476 46.0217 61.2908 46.0317 61.2254C46.0415 61.16 46.0413 61.0631 46.0311 61.0103C46.0209 60.9573 46.0127 61.0108 46.0131 61.1292ZM53.3063 61.1381C53.3597 61.1483 53.4373 61.1479 53.4783 61.1371C53.5195 61.1265 53.4757 61.118 53.3811 61.1186C53.2863 61.119 53.2527 61.1278 53.3063 61.1381ZM29.6595 61.366C29.6595 61.4724 29.6679 61.516 29.6783 61.4628C29.6885 61.4094 29.6885 61.3223 29.6783 61.2689C29.6679 61.2157 29.6595 61.2594 29.6595 61.366ZM34.5301 62.5386L34.3601 62.7214L34.5429 62.5514C34.7131 62.3932 34.7457 62.3558 34.7131 62.3558C34.7061 62.3558 34.6237 62.438 34.5301 62.5386ZM47.0013 62.4714C47.0427 62.4822 47.1105 62.4822 47.1519 62.4714C47.1933 62.4606 47.1595 62.4517 47.0765 62.4517C46.9937 62.4517 46.9599 62.4606 47.0013 62.4714ZM39.2337 63.6784C39.3579 63.6872 39.5613 63.6872 39.6855 63.6784C39.8097 63.6698 39.7081 63.6626 39.4595 63.6626C39.2111 63.6626 39.1093 63.6698 39.2337 63.6784ZM45.0109 66.2934C45.0913 66.3762 45.1667 66.444 45.1785 66.444C45.1903 66.444 45.1343 66.3762 45.0539 66.2934C44.9737 66.2104 44.8983 66.1426 44.8865 66.1426C44.8747 66.1426 44.9307 66.2104 45.0109 66.2934ZM37.1503 67.9501C37.1503 68.1275 37.1579 68.2001 37.1671 68.1114C37.1763 68.0228 37.1763 67.8774 37.1671 67.7888C37.1579 67.7 37.1503 67.7725 37.1503 67.9501ZM41.8795 67.778C41.8795 67.8608 41.8883 67.8948 41.8991 67.8532C41.9099 67.8118 41.9099 67.744 41.8991 67.7026C41.8883 67.6612 41.8795 67.6952 41.8795 67.778ZM39.4279 70.3478C39.4933 70.3577 39.5901 70.3574 39.6431 70.3472C39.6959 70.337 39.6425 70.329 39.5241 70.3292C39.4057 70.3296 39.3625 70.338 39.4279 70.3478Z" fill="#2E2D2D"/>
<path fill-rule="evenodd" clip-rule="evenodd" d="M41.0842 9.71312C41.1616 9.72272 41.2778 9.72252 41.3424 9.71272C41.407 9.70292 41.3438 9.69512 41.2018 9.69532C41.0598 9.69552 41.0068 9.70352 41.0842 9.71312ZM52.7664 14.8459C52.7664 14.9289 52.7752 14.9627 52.786 14.9213C52.7968 14.8799 52.7968 14.8121 52.786 14.7707C52.7752 14.7293 52.7664 14.7631 52.7664 14.8459ZM35.7902 17.8035C35.8672 17.8129 35.993 17.8129 36.07 17.8035C36.1468 17.7939 36.084 17.7861 35.93 17.7861C35.7762 17.7861 35.7134 17.7939 35.7902 17.8035ZM24.8812 18.4823C24.8818 18.5771 24.8906 18.6107 24.9008 18.5571C24.9112 18.5037 24.9108 18.4261 24.9 18.3851C24.8892 18.3439 24.8808 18.3877 24.8812 18.4823ZM36.8016 18.9639C36.843 18.9747 36.9108 18.9747 36.9522 18.9639C36.9936 18.9531 36.9596 18.9441 36.8768 18.9441C36.794 18.9441 36.7602 18.9531 36.8016 18.9639ZM62.7072 21.0859C62.7072 21.1687 62.716 21.2027 62.7268 21.1613C62.7376 21.1197 62.7376 21.0521 62.7268 21.0105C62.716 20.9691 62.7072 21.0031 62.7072 21.0859ZM14.6814 21.2581C14.6814 21.3409 14.6902 21.3747 14.701 21.3333C14.7118 21.2919 14.7118 21.2241 14.701 21.1827C14.6902 21.1413 14.6814 21.1753 14.6814 21.2581ZM40.5348 22.2613C40.5348 22.2687 40.5976 22.3317 40.6746 22.4011L40.8144 22.5275L40.688 22.3877C40.5702 22.2573 40.5348 22.2281 40.5348 22.2613ZM15.5218 22.4073C15.5754 22.4177 15.6528 22.4173 15.694 22.4065C15.735 22.3957 15.6912 22.3873 15.5966 22.3877C15.502 22.3883 15.4682 22.3971 15.5218 22.4073ZM17.447 22.5921C17.5394 22.6867 17.6248 22.7643 17.6366 22.7643C17.6484 22.7643 17.5826 22.6867 17.49 22.5921C17.3976 22.4975 17.3124 22.4199 17.3004 22.4199C17.2886 22.4199 17.3546 22.4975 17.447 22.5921ZM64.1932 23.0959C64.2466 23.1061 64.324 23.1059 64.3652 23.0951C64.4064 23.0843 64.3626 23.0759 64.268 23.0763C64.1732 23.0767 64.1396 23.0857 64.1932 23.0959ZM16.5218 23.4663C16.5218 23.4737 16.5848 23.5365 16.6616 23.6061L16.8016 23.7325L16.6752 23.5927C16.5574 23.4623 16.5218 23.4329 16.5218 23.4663ZM19.1468 24.2919C19.347 24.4931 19.5204 24.6577 19.5322 24.6577C19.5442 24.6577 19.39 24.4931 19.19 24.2919C18.9898 24.0907 18.8164 23.9261 18.8046 23.9261C18.7926 23.9261 18.9468 24.0907 19.1468 24.2919ZM64.8036 24.0875L64.6552 24.2489L64.8166 24.1005C64.9668 23.9625 64.9978 23.9261 64.9648 23.9261C64.9578 23.9261 64.885 23.9987 64.8036 24.0875ZM18.3508 25.3033C18.8474 25.8003 19.2634 26.2069 19.2752 26.2069C19.287 26.2069 18.8904 25.8003 18.3938 25.3033C17.8972 24.8061 17.4812 24.3995 17.4694 24.3995C17.4574 24.3995 17.8542 24.8061 18.3508 25.3033ZM60.7808 25.7013L60.524 25.9703L60.793 25.7133C61.0428 25.4747 61.0816 25.4323 61.0498 25.4323C61.0432 25.4323 60.922 25.5533 60.7808 25.7013ZM61.439 27.8297C61.4924 27.8399 61.57 27.8395 61.611 27.8287C61.6522 27.8179 61.6084 27.8095 61.5138 27.8101C61.419 27.8105 61.3854 27.8193 61.439 27.8297ZM43.9344 29.5421C43.8298 29.6485 43.754 29.7357 43.7658 29.7357C43.7776 29.7357 43.873 29.6485 43.9774 29.5421C44.082 29.4355 44.1578 29.3485 44.146 29.3485C44.1342 29.3485 44.039 29.4355 43.9344 29.5421ZM10.5294 30.3255C10.5826 30.3357 10.6698 30.3357 10.723 30.3255C10.7762 30.3153 10.7326 30.3069 10.6262 30.3069C10.5196 30.3069 10.476 30.3153 10.5294 30.3255ZM12.897 30.4125C12.9744 30.4219 13.0906 30.4217 13.1552 30.4119C13.2198 30.4021 13.1566 30.3943 13.0146 30.3945C12.8726 30.3949 12.8196 30.4029 12.897 30.4125ZM11.4222 30.6825C11.5148 30.7771 11.6 30.8545 11.612 30.8545C11.6238 30.8545 11.5578 30.7771 11.4654 30.6825C11.3728 30.5877 11.2876 30.5103 11.2758 30.5103C11.2638 30.5103 11.3298 30.5877 11.4222 30.6825ZM70.368 32.2613C70.4094 32.2721 70.4772 32.2721 70.5186 32.2613C70.56 32.2505 70.5262 32.2417 70.4432 32.2417C70.3604 32.2417 70.3266 32.2505 70.368 32.2613ZM64.752 32.4773C64.8052 32.4875 64.8924 32.4875 64.9456 32.4773C64.999 32.4669 64.9554 32.4585 64.8488 32.4585C64.7424 32.4585 64.6988 32.4669 64.752 32.4773ZM15.117 33.4581C15.1168 33.6711 15.1242 33.7637 15.1332 33.6639C15.1422 33.5639 15.1422 33.3897 15.1334 33.2765C15.1244 33.1635 15.1172 33.2451 15.117 33.4581ZM14.0382 33.3291C14.0384 33.4473 14.0468 33.4907 14.0568 33.4253C14.0666 33.3599 14.0664 33.2631 14.0562 33.2101C14.046 33.1571 14.0378 33.2107 14.0382 33.3291ZM10.745 38.8893C10.7986 38.8997 10.876 38.8993 10.9172 38.8885C10.9582 38.8777 10.9144 38.8693 10.8198 38.8697C10.7252 38.8703 10.6914 38.8791 10.745 38.8893ZM5.62398 39.2767C5.67758 39.2869 5.75498 39.2865 5.79618 39.2757C5.83718 39.2651 5.79338 39.2565 5.69878 39.2571C5.60418 39.2575 5.57038 39.2663 5.62398 39.2767ZM75.533 41.2687C75.533 41.3753 75.5414 41.4189 75.5516 41.3657C75.562 41.3123 75.562 41.2253 75.5516 41.1719C75.5414 41.1187 75.533 41.1623 75.533 41.2687ZM76.7404 41.4625C76.7406 41.6281 76.7484 41.6907 76.7576 41.6013C76.767 41.5121 76.7668 41.3765 76.7572 41.3001C76.7478 41.2237 76.7402 41.2967 76.7404 41.4625ZM10.9408 42.2371C10.941 42.3791 10.949 42.4319 10.9586 42.3547C10.9682 42.2773 10.968 42.1611 10.9582 42.0965C10.9484 42.0317 10.9406 42.0951 10.9408 42.2371ZM12.489 42.4091C12.4892 42.5275 12.4976 42.5709 12.5076 42.5055C12.5174 42.4401 12.5172 42.3431 12.507 42.2903C12.4968 42.2373 12.4886 42.2909 12.489 42.4091ZM3.23438 42.4737C3.23438 42.5565 3.24317 42.5905 3.25397 42.5491C3.26477 42.5077 3.26477 42.4399 3.25397 42.3985C3.24317 42.3571 3.23438 42.3909 3.23438 42.4737ZM12.4866 43.1193C12.4866 43.2021 12.4954 43.2359 12.5062 43.1945C12.5172 43.1531 12.5172 43.0853 12.5062 43.0439C12.4954 43.0025 12.4866 43.0365 12.4866 43.1193ZM10.1286 44.3779L10.0022 44.5179L10.142 44.3915C10.219 44.3219 10.2818 44.2591 10.2818 44.2517C10.2818 44.2183 10.2464 44.2477 10.1286 44.3779ZM7.79658 45.0875C7.90918 45.0963 8.09298 45.0963 8.20558 45.0875C8.31798 45.0785 8.22598 45.0713 8.00118 45.0713C7.77618 45.0713 7.68418 45.0785 7.79658 45.0875ZM11.3776 45.8841L11.164 46.1101L11.39 45.8965C11.6 45.6981 11.6356 45.6583 11.6036 45.6583C11.5968 45.6583 11.495 45.7599 11.3776 45.8841ZM67.0584 46.1961C67.0586 46.3855 67.066 46.4577 67.0752 46.3565C67.0842 46.2553 67.0842 46.1003 67.0748 46.0121C67.0656 45.9241 67.0582 46.0069 67.0584 46.1961ZM8.22698 46.9359C8.26838 46.9467 8.33618 46.9467 8.37758 46.9359C8.41898 46.9251 8.38518 46.9163 8.30238 46.9163C8.21958 46.9163 8.18558 46.9251 8.22698 46.9359ZM53.2704 51.0267L53.1222 51.1881L53.2836 51.0399C53.4338 50.9017 53.4646 50.8653 53.4318 50.8653C53.4246 50.8653 53.352 50.9379 53.2704 51.0267Z" fill="#2E2D2D"/>
</g>
<defs>
<clipPath id="clip0_3906_27334">
<rect width="80" height="80" fill="white"/>
</clipPath>
</defs>
</svg>
