<svg width="122" height="48" viewBox="0 0 122 48" fill="none" xmlns="http://www.w3.org/2000/svg">
<g clip-path="url(#clip0_3884_25909)">
<mask id="mask0_3884_25909" style="mask-type:luminance" maskUnits="userSpaceOnUse" x="0" y="8" width="122" height="40">
<path d="M121.718 8H0V47.1709H121.718V8Z" fill="white"/>
</mask>
<g mask="url(#mask0_3884_25909)">
<path d="M40.2578 43.0785H41.6893C41.856 43.0743 42.0218 43.1043 42.1764 43.1665C42.3312 43.229 42.4712 43.3224 42.5883 43.441C42.8198 43.6849 42.9489 44.0079 42.9489 44.344C42.9489 44.6798 42.8198 45.0032 42.5883 45.247C42.4712 45.3656 42.3312 45.459 42.1764 45.5212C42.0218 45.5837 41.856 45.6135 41.6893 45.6092H40.6585V47.1046H40.2578V43.0785ZM40.6585 45.2297H41.6893C41.8031 45.2334 41.9163 45.2134 42.0218 45.1706C42.1274 45.1281 42.2227 45.0638 42.302 44.9825C42.4602 44.8084 42.5481 44.5818 42.5481 44.347C42.5481 44.112 42.4602 43.8854 42.302 43.7113C42.2236 43.6285 42.1286 43.5629 42.0227 43.5193C41.9172 43.4756 41.8037 43.455 41.6893 43.4583H40.6585V45.2297Z" fill="#2E2D2D"/>
<path d="M49.2085 46.5679C48.8173 46.9547 48.2882 47.1715 47.7372 47.1715C47.1859 47.1715 46.6571 46.9547 46.2656 46.5679C46.0712 46.3744 45.9178 46.1439 45.8144 45.8897C45.7113 45.6358 45.6602 45.3637 45.6644 45.0899C45.6593 44.8165 45.7098 44.545 45.8129 44.2917C45.9164 44.0388 46.0703 43.8092 46.2656 43.6174C46.4588 43.4243 46.6879 43.2708 46.9404 43.1661C47.1929 43.0615 47.4637 43.0078 47.7372 43.0078C48.0108 43.0078 48.2815 43.0615 48.534 43.1661C48.7866 43.2708 49.0157 43.4243 49.2085 43.6174C49.4038 43.8092 49.5581 44.0388 49.6612 44.2917C49.7647 44.545 49.8151 44.8165 49.8097 45.0899C49.8142 45.3637 49.7631 45.6358 49.6597 45.8897C49.5565 46.1439 49.4032 46.3744 49.2085 46.5679ZM46.5461 46.2919C46.8631 46.6049 47.2912 46.7802 47.7372 46.7802C48.1832 46.7802 48.6113 46.6049 48.928 46.2919C49.2368 45.9685 49.409 45.539 49.409 45.0925C49.409 44.6463 49.2368 44.2169 48.928 43.8935C48.7722 43.7367 48.5866 43.6123 48.3822 43.5274C48.1778 43.4424 47.9587 43.3988 47.7372 43.3988C47.5157 43.3988 47.2964 43.4424 47.0922 43.5274C46.8878 43.6123 46.7022 43.7367 46.5461 43.8935C46.2376 44.2169 46.0654 44.6463 46.0654 45.0925C46.0654 45.539 46.2376 45.9685 46.5461 46.2919Z" fill="#2E2D2D"/>
<path d="M54.5158 45.022C54.7229 45.0955 54.9025 45.2299 55.0311 45.4073C55.1552 45.5863 55.2195 45.7995 55.2143 46.017C55.2183 46.1753 55.186 46.3324 55.1206 46.4768C55.0552 46.6212 54.9582 46.7489 54.8367 46.8508C54.5516 47.078 54.193 47.1923 53.8288 47.1726C53.5105 47.1866 53.196 47.1002 52.9298 46.9255C52.6992 46.7632 52.5267 46.5314 52.4375 46.2642L52.781 46.0686C52.8287 46.2779 52.948 46.4641 53.119 46.5948C53.3268 46.738 53.5766 46.8077 53.8288 46.7932C54.0868 46.8077 54.3418 46.7325 54.5505 46.5802C54.6353 46.5135 54.7035 46.4277 54.7494 46.33C54.795 46.232 54.8172 46.125 54.8136 46.017C54.8179 45.9111 54.7984 45.8055 54.7571 45.7082C54.7154 45.6108 54.6527 45.5237 54.5732 45.4534C54.3901 45.3036 54.157 45.2274 53.9203 45.2402H53.4625V44.8607H53.7774C54.0107 44.8731 54.2404 44.8006 54.4245 44.6569C54.5027 44.591 54.565 44.5086 54.6067 44.4154C54.6484 44.3223 54.6682 44.2207 54.6649 44.1188C54.6682 44.0187 54.6491 43.9192 54.6083 43.8276C54.5675 43.736 54.5067 43.6547 54.43 43.5898C54.301 43.4973 54.1528 43.4344 53.9964 43.4059C53.84 43.3775 53.6791 43.3842 53.5258 43.4254C53.3722 43.4669 53.2298 43.5415 53.109 43.6446C52.9881 43.7478 52.8918 43.8764 52.8269 44.0211L52.4947 43.8255C52.5932 43.5661 52.7743 43.3459 53.0098 43.1985C53.2456 43.0511 53.5231 42.9843 53.8002 43.0089C54.1358 42.9953 54.4638 43.1105 54.7163 43.3308C54.8291 43.4299 54.9186 43.5522 54.9791 43.6893C55.0394 43.8264 55.0689 43.975 55.0655 44.1248C55.0719 44.3114 55.0232 44.4958 54.9256 44.6553C54.8279 44.8149 54.6855 44.9423 54.5158 45.022Z" fill="#2E2D2D"/>
<path d="M60.4172 45.0163C60.6085 45.0952 60.7719 45.2293 60.8863 45.4016C61.0007 45.5736 61.0603 45.7762 61.0582 45.9827C61.0609 46.1301 61.0332 46.2767 60.9769 46.4131C60.921 46.5496 60.8376 46.6731 60.7318 46.7765C60.6298 46.8821 60.5069 46.9658 60.3709 47.0222C60.2352 47.0786 60.0888 47.1065 59.942 47.1041H58.1953V43.0781H59.8099C60.0959 43.0815 60.369 43.1967 60.5705 43.399C60.7716 43.6013 60.8854 43.8744 60.8866 44.1594C60.8933 44.3311 60.8534 44.5016 60.7707 44.6527C60.688 44.8034 60.5656 44.9293 60.4172 45.0163ZM59.8102 43.4579H58.5963V44.8611H59.8099C59.8987 44.862 59.9869 44.8443 60.0688 44.8098C60.1503 44.7752 60.2243 44.7239 60.2851 44.6596C60.4138 44.5259 60.4856 44.3478 60.4856 44.1624C60.4856 43.9771 60.4138 43.7988 60.2851 43.6651C60.2249 43.5992 60.1516 43.547 60.0697 43.5113C59.9879 43.4754 59.8993 43.4576 59.8102 43.4579ZM58.5963 46.7243H59.942C60.036 46.7259 60.1296 46.708 60.2163 46.6713C60.303 46.6345 60.3812 46.5802 60.4454 46.5118C60.5814 46.37 60.6575 46.1814 60.6575 45.9855C60.6575 45.7892 60.5814 45.6008 60.4454 45.4592C60.3821 45.3891 60.3043 45.3333 60.2172 45.2957C60.1305 45.2581 60.0365 45.2393 59.942 45.2405H58.5963V46.7243Z" fill="#2E2D2D"/>
<path d="M67.0164 47.1041H66.6153V43.8258L64.3825 47.1041H64.0391V43.0781H64.4397V46.3564L66.6729 43.0781H67.0164V47.1041Z" fill="#2E2D2D"/>
<path d="M72.4403 45.0163C72.632 45.0952 72.7953 45.2293 72.9095 45.4016C73.0238 45.5736 73.0838 45.7762 73.0817 45.9827C73.084 46.1301 73.0564 46.2767 73.0004 46.4131C72.9441 46.5496 72.8607 46.6731 72.7552 46.7765C72.6529 46.8821 72.5304 46.9658 72.3944 47.0222C72.2584 47.0786 72.1123 47.1065 71.9651 47.1041H70.2188V43.0781H71.8333C72.1193 43.0815 72.3922 43.1967 72.5937 43.399C72.795 43.6013 72.9085 43.8744 72.9097 44.1594C72.9168 44.3311 72.8765 44.5016 72.7938 44.6527C72.7114 44.8034 72.5891 44.9293 72.4403 45.0163ZM71.8333 43.4579H70.6194V44.8611H71.8333C71.9222 44.862 72.0101 44.8443 72.0919 44.8098C72.1738 44.7752 72.2474 44.7239 72.3086 44.6596C72.4373 44.5259 72.5091 44.3478 72.5091 44.1624C72.5091 43.9771 72.4373 43.7988 72.3086 43.6651C72.2483 43.5992 72.1747 43.547 72.0929 43.5113C72.011 43.4754 71.9227 43.4576 71.8333 43.4579ZM70.6194 46.7243H71.9651C72.0594 46.7259 72.1528 46.708 72.2395 46.6713C72.3265 46.6345 72.4044 46.5802 72.4689 46.5118C72.6049 46.37 72.6806 46.1814 72.6806 45.9855C72.6806 45.7892 72.6049 45.6008 72.4689 45.4592C72.4053 45.3891 72.3274 45.3333 72.2407 45.2957C72.1537 45.2581 72.0597 45.2393 71.9651 45.2405H70.6194V46.7243Z" fill="#2E2D2D"/>
<path d="M79.1567 47.1041H78.7329L78.3608 46.1149H76.4599L76.0879 47.1041H75.6641L77.2041 43.0781H77.6164L79.1567 47.1041ZM77.4104 43.5786L76.603 45.7352H78.2175L77.4104 43.5786Z" fill="#2E2D2D"/>
<path d="M84.9302 47.1008H84.5299V43.8225L82.2962 47.1008H81.9531V43.0748H82.3535V46.3531L84.5872 43.0748H84.9302V47.1008ZM84.186 42.615H82.6974V42.2812H84.186V42.615Z" fill="#2E2D2D"/>
<path d="M92.2676 44.6887H93.3558C93.5138 44.6869 93.6702 44.7176 93.8167 44.7792C93.9625 44.8404 94.0935 44.9308 94.2024 45.0451C94.3154 45.1574 94.4046 45.2902 94.466 45.4371C94.5266 45.5836 94.5577 45.7407 94.5577 45.8993C94.5577 46.058 94.5266 46.2151 94.466 46.3616C94.4046 46.5081 94.3154 46.6412 94.2024 46.7535C94.0935 46.8666 93.9617 46.9564 93.8159 47.0167C93.6693 47.0771 93.513 47.1069 93.3558 47.1041H91.8672V43.0781H94.2138V43.4579H92.2676V44.6887ZM92.2676 46.7243H93.3558C93.4614 46.7259 93.567 46.705 93.6644 46.6633C93.7619 46.6218 93.8495 46.5602 93.9224 46.4829C94.073 46.3258 94.1573 46.1168 94.1573 45.8993C94.1573 45.6818 94.073 45.4728 93.9224 45.3154C93.8511 45.2359 93.7635 45.1728 93.6661 45.1301C93.5678 45.0873 93.4622 45.0664 93.3558 45.0682H92.2676V46.7243Z" fill="#2E2D2D"/>
<path d="M97.5 47.1041V43.0781H97.9012V47.1041H97.5Z" fill="#2E2D2D"/>
<path d="M102.953 45.022C103.16 45.0955 103.34 45.2299 103.468 45.4073C103.593 45.5863 103.656 45.7995 103.652 46.017C103.656 46.1753 103.623 46.3324 103.557 46.4768C103.493 46.6212 103.395 46.7489 103.274 46.8508C102.989 47.078 102.63 47.1923 102.266 47.1726C101.948 47.1866 101.633 47.1002 101.367 46.9255C101.136 46.7632 100.963 46.5314 100.875 46.2642L101.218 46.0686C101.266 46.2779 101.385 46.4641 101.556 46.5948C101.764 46.738 102.014 46.8077 102.266 46.7932C102.524 46.8077 102.779 46.7325 102.987 46.5802C103.073 46.5135 103.141 46.4277 103.186 46.33C103.232 46.232 103.254 46.125 103.25 46.017C103.255 45.9111 103.236 45.8055 103.194 45.7082C103.152 45.6108 103.09 45.5237 103.01 45.4534C102.827 45.3036 102.594 45.2274 102.358 45.2402H101.899V44.8607H102.215C102.448 44.8731 102.677 44.8006 102.861 44.6569C102.94 44.591 103.002 44.5086 103.044 44.4154C103.086 44.3223 103.105 44.2207 103.102 44.1188C103.105 44.0187 103.086 43.9192 103.046 43.8276C103.005 43.736 102.944 43.6547 102.867 43.5898C102.738 43.4973 102.59 43.4344 102.433 43.4059C102.277 43.3775 102.116 43.3842 101.963 43.4254C101.809 43.4669 101.667 43.5415 101.546 43.6446C101.425 43.7478 101.329 43.8764 101.264 44.0211L100.931 43.8255C101.031 43.5661 101.212 43.3459 101.447 43.1985C101.682 43.0511 101.96 42.9843 102.237 43.0089C102.573 42.9953 102.901 43.1105 103.154 43.3308C103.266 43.4299 103.356 43.5522 103.416 43.6893C103.476 43.8264 103.506 43.975 103.503 44.1248C103.509 44.3114 103.461 44.4958 103.362 44.6553C103.265 44.8149 103.123 44.9423 102.953 45.022Z" fill="#2E2D2D"/>
<path d="M109.21 44.8441V43.0781H109.61V47.1041H109.21V45.2235H107.034V47.1041H106.633V43.0781H107.034V44.8441H109.21Z" fill="#2E2D2D"/>
<path d="M113.221 45.2635V46.7243H115.167V47.1041H112.82V43.0781H115.139V43.4579H113.221V44.8844H114.996V45.2638L113.221 45.2635Z" fill="#2E2D2D"/>
<path d="M119.992 47.1726C119.713 47.182 119.435 47.1328 119.175 47.0291C118.916 46.9251 118.682 46.7686 118.486 46.569C118.104 46.1713 117.891 45.6417 117.891 45.0909C117.891 44.5401 118.104 44.0108 118.486 43.6128C118.682 43.4132 118.916 43.2566 119.175 43.1526C119.435 43.0486 119.712 42.9998 119.992 43.0089C120.348 43.0061 120.697 43.0984 121.005 43.2764C121.307 43.4472 121.556 43.6968 121.727 43.9983L121.372 44.2051C121.246 43.9595 121.051 43.7557 120.81 43.6185C120.563 43.4727 120.28 43.3971 119.992 43.3998C119.765 43.391 119.538 43.4299 119.327 43.5142C119.116 43.5985 118.926 43.7262 118.767 43.8888C118.461 44.2152 118.292 44.6447 118.292 45.0909C118.292 45.5371 118.461 45.9669 118.767 46.293C118.926 46.4555 119.116 46.5829 119.328 46.6673C119.538 46.7513 119.765 46.7904 119.992 46.7813C120.28 46.784 120.563 46.7088 120.81 46.5632C121.05 46.4258 121.246 46.222 121.372 45.9766L121.727 46.1777C121.562 46.4819 121.313 46.7331 121.011 46.9023C120.702 47.0815 120.35 47.175 119.992 47.1726Z" fill="#2E2D2D"/>
<path d="M19.2344 27.4744V22.125H31.9833V36.3427H27.2743L26.3454 25.4591L27.5949 27.4744H19.2344Z" fill="#2E2D2D"/>
<path d="M26.1358 24.1674C26.1336 24.1909 26.1294 24.2133 26.1272 24.2366H18.1013V28.8893H23.398C22.7901 29.3121 22.1287 29.6528 21.431 29.9026C19.9069 30.4283 18.3019 30.6826 16.6894 30.6538C15.0434 30.6914 13.4083 30.379 11.8928 29.7374C10.583 29.1712 9.48415 28.21 8.75051 26.9891C8.01543 25.768 7.64782 24.2657 7.64764 22.482C7.64764 20.7233 7.99078 19.2513 8.67706 18.066C9.34569 16.8976 10.3597 15.9634 11.5806 15.3909C12.9764 14.7619 14.4965 14.4551 16.0278 14.4933C17.3158 14.4745 18.599 14.6537 19.8322 15.0247C20.8631 15.3325 21.8156 15.8573 22.6256 16.5637C23.3497 17.1986 23.8679 18.0341 24.1142 18.9637H31.7963C31.4324 16.8997 30.5325 14.9668 29.1867 13.3571C27.7444 11.6768 25.9159 10.3692 23.8571 9.54584C21.6517 8.61781 19.0298 8.15364 15.991 8.15335C13.8536 8.13207 11.7262 8.44769 9.68762 9.08852C7.83279 9.6736 6.11007 10.6132 4.61552 11.8547C3.15426 13.0808 1.99165 14.622 1.2156 16.3618C0.377138 18.292 -0.0365035 20.3789 0.00255817 22.482C-0.0364335 24.5829 0.3707 26.6683 1.19723 28.6012C1.95718 30.336 3.10059 31.8771 4.54202 33.1092C6.00453 34.3473 7.69662 35.2872 9.5223 35.8754C11.4804 36.5097 13.5282 36.8252 15.587 36.8097C17.6099 36.8493 19.6226 36.514 21.5228 35.821C22.9751 35.277 24.3071 34.4562 25.4449 33.4046L25.8381 38.0596H30.3694V24.2366H27.6822L26.1358 24.1674Z" fill="#2E2D2D"/>
<path d="M46.5448 13.8591H52.9107V14.944C52.9107 16.8245 52.3183 18.3374 51.1333 19.4826C49.9604 20.6036 48.4673 21.1642 46.6534 21.1642C45.7486 21.1917 44.8471 21.0378 44.0028 20.7117C43.1589 20.3855 42.3888 19.8938 41.7387 19.2655C41.1089 18.6642 40.6112 17.939 40.2774 17.136C39.9434 16.333 39.78 15.4696 39.7983 14.6004C39.7906 13.7286 39.9583 12.8641 40.2905 12.0578C40.6228 11.2513 41.1135 10.5193 41.7336 9.90448C42.3535 9.28969 43.0905 8.80459 43.9012 8.47765C44.7117 8.15072 45.5797 7.98854 46.4541 8.00063C47.5823 7.98973 48.6952 8.2601 49.6916 8.78715C50.6353 9.27361 51.433 10.0004 52.0037 10.8937L49.5373 12.304C49.2233 11.8376 48.7874 11.4656 48.2768 11.2282C47.7033 10.9517 47.073 10.8125 46.4362 10.8213C45.9394 10.8071 45.445 10.8944 44.9831 11.0778C44.5216 11.2613 44.1026 11.5371 43.7519 11.8882C43.3992 12.2479 43.1239 12.6756 42.9432 13.1451C42.7622 13.6146 42.6794 14.116 42.6998 14.6185C42.6849 15.1182 42.7737 15.6155 42.9612 16.0792C43.1483 16.5429 43.43 16.9629 43.7881 17.3127C44.5806 18.025 45.6239 18.3955 46.6899 18.3433C48.3586 18.3433 49.4405 17.6924 49.9365 16.3905H46.5448V13.8591Z" fill="#2E2D2D"/>
<path d="M64.3326 20.9112H61.2131L58.8194 16.7524H57.4409V20.9112H54.5391V8.25394H59.6175C60.1897 8.25158 60.7568 8.36221 61.2858 8.57946C61.8149 8.7967 62.296 9.11626 62.7006 9.5197C63.1052 9.92314 63.4256 10.4025 63.6435 10.93C63.8613 11.4576 63.9723 12.0229 63.9699 12.5935C63.9702 13.3523 63.7462 14.0943 63.3264 14.7272C62.9078 15.3804 62.3224 15.9109 61.6303 16.2641L64.3326 20.9112ZM59.6175 10.9661H57.4409V14.2209H59.6175C59.8124 14.2219 60.005 14.1803 60.1821 14.0991C60.3591 14.0179 60.5162 13.899 60.6424 13.7507C60.9171 13.4274 61.068 13.0173 61.068 12.5935C61.068 12.1696 60.9171 11.7595 60.6424 11.4362C60.5162 11.2881 60.3591 11.1692 60.1821 11.088C60.005 11.0068 59.8124 10.9652 59.6175 10.9661Z" fill="#2E2D2D"/>
<path d="M76.9342 20.9111H73.7604L73.1258 18.9221H68.41L67.7757 20.9111H64.6016L68.9178 8.25391H72.6179L76.9342 20.9111ZM70.7679 11.5629L69.2805 16.2099H72.2553L70.7679 11.5629Z" fill="#2E2D2D"/>
<path d="M85.1042 15.125V8.25391H88.006V20.9111H85.8305L80.9331 14.04V20.9111H78.0312V8.25391H80.2075L85.1042 15.125Z" fill="#2E2D2D"/>
<path d="M89.2656 8.25391H98.6965V11.0385H95.4319V20.9112H92.5301V11.0385H89.2656V8.25391Z" fill="#2E2D2D"/>
<path d="M46.5448 30.91H52.9107V31.9948C52.9107 33.8754 52.3183 35.3883 51.1333 36.5335C49.9604 37.6545 48.4673 38.215 46.6534 38.2152C45.7486 38.2426 44.8471 38.0887 44.0028 37.7625C43.1589 37.4364 42.3888 36.9446 41.7387 36.3165C41.1089 35.7151 40.6112 34.9899 40.2774 34.1868C39.9434 33.3838 39.78 32.5204 39.7983 31.6512C39.7906 30.7794 39.9583 29.9149 40.2905 29.1085C40.6228 28.3021 41.1135 27.57 41.7336 26.9553C42.3535 26.3405 43.0905 25.8553 43.9012 25.5284C44.7117 25.2015 45.5797 25.0393 46.4541 25.0514C47.5823 25.0405 48.6952 25.3108 49.6916 25.8379C50.6353 26.3244 51.433 27.0512 52.0037 27.9445L49.5373 29.3548C49.2233 28.8884 48.7874 28.5164 48.2768 28.2789C47.7033 28.0025 47.073 27.8632 46.4362 27.8722C45.9394 27.8579 45.445 27.9451 44.9831 28.1286C44.5216 28.3121 44.1026 28.5879 43.7519 28.9389C43.3992 29.2987 43.1239 29.7264 42.9432 30.1959C42.7622 30.6655 42.6794 31.1668 42.6998 31.6695C42.6849 32.1691 42.7737 32.6664 42.9612 33.13C43.1483 33.5937 43.43 34.0137 43.7881 34.3635C44.5806 35.0758 45.6239 35.4464 46.6899 35.3943C48.3583 35.3943 49.4405 34.7433 49.9365 33.4413H46.5448V30.91Z" fill="#2E2D2D"/>
<path d="M54.3557 33.8755V25.3047H57.258V33.6222C57.258 34.8038 57.9226 35.3945 59.2528 35.3944C60.5823 35.3944 61.2474 34.8036 61.2477 33.6222V25.3047H64.1496V33.8755C64.1772 34.4729 64.0674 35.0686 63.8286 35.6171C63.5894 36.1656 63.2277 36.6522 62.771 37.0397C61.7576 37.8026 60.5224 38.2152 59.2528 38.2152C57.9829 38.2152 56.7477 37.8026 55.7343 37.0397C55.2776 36.6523 54.9159 36.1656 54.6767 35.6172C54.438 35.0687 54.3281 34.4729 54.3557 33.8755Z" fill="#2E2D2D"/>
<path d="M66.2422 37.9619V25.3047H69.144V37.9619H66.2422Z" fill="#2E2D2D"/>
<path d="M71.3203 25.306H76.3984C77.2171 25.2885 78.0306 25.442 78.7864 25.7565C79.5424 26.0709 80.2239 26.5397 80.7873 27.1323C81.9296 28.3584 82.565 29.9701 82.565 31.6438C82.565 33.3174 81.9296 34.929 80.7873 36.1552C80.2227 36.745 79.5402 37.2106 78.7845 37.522C78.0288 37.8334 77.2159 37.9837 76.3984 37.9633H71.3203V25.306ZM74.2222 35.1787H76.3984C76.8481 35.1973 77.2968 35.1216 77.7155 34.9566C78.134 34.7915 78.5132 34.5407 78.8286 34.2205C79.1515 33.8743 79.401 33.467 79.5631 33.0229C79.725 32.5787 79.7959 32.1067 79.7718 31.6347C79.797 31.1653 79.7264 30.6957 79.5646 30.2544C79.4024 29.813 79.1521 29.409 78.8286 29.067C78.5159 28.7419 78.1377 28.4868 77.7188 28.3184C77.2999 28.1501 76.8496 28.0725 76.3984 28.0907H74.2222V35.1787Z" fill="#2E2D2D"/>
<path d="M87.0971 32.9354V35.1773H92.1744V37.9619H84.1953V25.3047H92.0844V28.0893H87.0971V30.1867H91.6308V32.9354H87.0971Z" fill="#2E2D2D"/>
<path d="M96.9751 36.4992C96.9775 36.8996 96.8408 37.2883 96.587 37.5992C96.3339 37.9099 95.9802 38.1236 95.5872 38.2034C95.1942 38.2833 94.7848 38.2246 94.4303 38.0372C94.0749 37.8498 93.7965 37.5454 93.6418 37.176C93.487 36.8066 93.4657 36.395 93.5812 36.0117C93.6966 35.6282 93.9423 35.2969 94.2763 35.0739C94.6096 34.851 95.0108 34.7505 95.4104 34.7895C95.8099 34.8285 96.1833 35.0046 96.4674 35.2877C96.6304 35.4444 96.7597 35.6327 96.8473 35.841C96.9341 36.0495 96.9775 36.2734 96.9751 36.4992Z" fill="#2E2D2D"/>
<path d="M98.7933 33.8755V25.3047H101.695V33.6222C101.695 34.8038 102.36 35.3945 103.69 35.3944C105.02 35.3944 105.685 34.8036 105.685 33.6222V25.3047H108.587V33.8755C108.615 34.4729 108.505 35.0685 108.266 35.617C108.027 36.1655 107.665 36.6521 107.209 37.0397C106.195 37.8026 104.96 38.2152 103.69 38.2152C102.421 38.2152 101.185 37.8026 100.171 37.0397C99.7153 36.6522 99.3533 36.1656 99.1143 35.6171C98.8752 35.0686 98.7655 34.4729 98.7933 33.8755Z" fill="#2E2D2D"/>
<path d="M121.552 37.9619H118.378L117.743 35.973H113.028L112.393 37.9619H109.219L113.535 25.3047H117.236L121.552 37.9619ZM115.386 28.6137L113.898 33.2607H116.873L115.386 28.6137Z" fill="#2E2D2D"/>
</g>
</g>
<defs>
<clipPath id="clip0_3884_25909">
<rect width="122" height="47.1709" fill="white"/>
</clipPath>
</defs>
</svg>
