<svg width="205" height="54" viewBox="0 0 205 54" fill="none" xmlns="http://www.w3.org/2000/svg">
<g clip-path="url(#clip0_3884_25738)">
<path d="M10.5611 19.0241L0 16.5664V37.5446L10.5611 35.1403V35.082C9.33349 32.6875 8.6369 29.9577 8.6369 27.0531C8.6369 24.1485 9.33349 21.4187 10.5611 19.0241Z" fill="#2E2D2D"/>
<path d="M42.3973 18.9464C43.6784 21.3556 44.4042 24.1194 44.4042 27.0531C44.4042 29.9868 43.6394 32.8769 42.3047 35.3249L53.0899 37.5446V16.5664L42.3973 18.9464Z" fill="#2E2D2D"/>
<path d="M18.1103 42.876L16.0156 53.5909H37.055L34.6924 42.9829C32.2568 44.2846 29.4654 45.0277 26.4988 45.0277C23.5322 45.0277 20.5898 44.2408 18.1103 42.8711V42.876Z" fill="#2E2D2D"/>
<path d="M34.8696 11.1251L34.8989 10.9454L37.013 0.410156H15.9688L18.3752 10.9454L18.4044 11.0474C20.7573 9.8865 23.6558 9.12396 26.486 9.12396C29.3162 9.12396 32.5118 9.96423 34.8647 11.1251H34.8696Z" fill="#2E2D2D"/>
<path d="M4.64062 11.9223L11.2413 5.33594L13.2142 13.938L4.64062 11.9223Z" fill="#2E2D2D"/>
<path d="M41.7607 5.18359L48.5124 11.974L39.6953 14.1257L41.7607 5.18359Z" fill="#2E2D2D"/>
<path d="M48.4731 42.4586L41.9357 48.9478L39.9141 40.5352L48.4731 42.4586Z" fill="#2E2D2D"/>
<path d="M11.2071 48.7716L4.60156 42.2532L13.219 40.2812L11.2071 48.7716Z" fill="#2E2D2D"/>
<path d="M29.7053 34.6568C29.1597 34.6957 28.5897 34.6859 28.0977 34.9191C27.669 35.1231 27.3427 35.4874 27.0114 35.8323C25.5646 37.3331 23.8305 38.5279 22.0865 39.6743C21.7211 39.9171 21.346 40.1551 20.9222 40.2717C20.4984 40.3834 20.0113 40.3445 19.6752 40.0677C19.4462 39.8783 19.305 39.5431 19.4413 39.276C19.5046 39.1497 19.6167 39.0574 19.7239 38.97C21.2534 37.7265 22.6467 36.3131 23.8742 34.7734C25.4574 32.7819 26.7776 30.5573 28.6482 28.8331C30.4311 27.1865 32.6865 26.0547 35.0735 25.603C37.1829 25.2047 39.3408 25.331 41.4745 25.3019C41.5573 25.3019 41.645 25.3019 41.7278 25.3019C41.9567 25.3019 42.1906 25.2921 42.4195 25.2824C42.4341 25.2824 42.4487 25.2824 42.4634 25.2824C41.5378 17.3846 34.8056 11.25 26.6315 11.25C17.824 11.25 10.6875 18.3658 10.6875 27.1476C10.6875 35.9294 17.824 43.0452 26.6315 43.0452C34.0067 43.0452 40.2079 38.052 42.0298 31.2762C37.7625 31.2179 33.9823 34.3799 29.7053 34.6665V34.6568ZM20.2744 27.0942C20.7127 25.5447 22.3057 24.1313 23.47 23.1647C24.1763 22.5818 24.9654 22.1349 25.7254 21.6347C25.9008 21.5181 26.0469 21.4161 26.1248 21.1392C25.5208 21.1392 24.9411 21.1587 24.3614 21.1392C23.6064 21.1101 23.129 20.2407 23.4943 19.5849C23.7768 19.0798 27.1283 19.9298 25.9739 18.2492C25.852 18.0695 25.6865 18.0452 25.5111 18.0355C25.1554 18.0112 24.7949 18.0112 24.4393 18.0015C23.4505 17.9772 22.749 16.5201 23.8012 16.0295C25.3065 15.3252 27.1429 14.8346 28.8041 14.6792C30.0268 14.5626 31.5321 12.8237 31.0595 15.2134C30.9621 15.7186 31.7025 16.2772 32.0095 16.5735C32.5404 17.0786 33.0081 17.5935 33.4172 18.2055C33.9336 18.9778 34.3525 19.8181 34.6497 20.7021C34.8104 21.1684 34.981 21.7561 34.9761 22.2467C34.9664 23.0578 34.3721 22.4021 34.0213 22.2806C33.1298 21.9698 33.6949 23.1647 33.7777 23.7281C33.9238 24.7238 32.9252 24.889 32.2141 25.1853C31.3031 25.5642 30.4262 26.0353 29.603 26.5745C27.8395 27.7353 26.3197 29.241 25.1408 30.9944C24.6488 31.7279 24.1179 32.4371 23.6015 33.1511C23.3822 33.4522 23.2264 33.5105 22.9926 33.1754C22.106 31.8931 21.6188 30.3436 21.614 28.7845C21.614 28.425 21.6384 27.9976 21.2973 27.7936C21.0294 27.6284 20.1185 27.983 20.1964 27.4682C20.2159 27.3467 20.2451 27.2253 20.2792 27.1038L20.2744 27.0942ZM17.6097 32.5051C16.5721 32.4177 15.5394 32.3059 14.5067 32.1699C14.1803 32.1262 13.8393 32.0776 13.5714 31.8882C13.1573 31.5968 13.0161 31.0528 12.9722 30.5525C12.9624 30.4553 12.9576 30.3533 13.0014 30.2708C13.094 30.0862 13.3522 30.0668 13.5568 30.0764C15.1643 30.1299 16.7718 30.0279 18.3599 29.7704C18.7837 29.7025 20.0649 29.2216 20.3912 29.479C20.7177 29.7316 20.8443 31.2325 20.9466 31.6502C20.9564 31.6891 20.966 31.7328 20.9758 31.7716C20.9904 31.8542 21.0001 31.9367 20.9807 32.0145C20.9173 32.3156 20.5666 32.4419 20.2597 32.4953C19.3829 32.641 18.4914 32.5876 17.6049 32.5099L17.6097 32.5051Z" fill="#2E2D2D"/>
<path d="M63.1697 15.0469C63.0333 15.0253 62.8969 14.9821 62.75 14.9174V13.4721C62.855 13.5152 62.9493 13.5476 63.0333 13.5584C63.1173 13.5691 63.2117 13.5799 63.3166 13.5799C63.5474 13.5799 63.7468 13.5152 63.8937 13.3966C64.0405 13.2672 64.156 13.0515 64.2294 12.7279C64.3028 12.4043 64.3658 11.9729 64.3973 11.4228C64.4288 10.8727 64.4603 10.1716 64.4708 9.31959L64.5547 5.87891H70.2204V14.9281H68.5731V7.36734H66.1285L66.0655 9.45983C66.0445 10.506 66.0026 11.3904 65.9396 12.1023C65.8767 12.8142 65.7508 13.3966 65.5724 13.8388C65.394 14.281 65.1527 14.5938 64.838 14.788C64.5232 14.9821 64.114 15.0792 63.5894 15.0792C63.4425 15.0792 63.2956 15.0684 63.1592 15.0361L63.1697 15.0469Z" fill="#2E2D2D"/>
<path d="M72.1953 8.19531H73.7481V10.3524H75.2171C75.5528 10.3524 75.8571 10.4064 76.1298 10.5143C76.4027 10.6221 76.6335 10.7732 76.8328 10.9672C77.0322 11.1614 77.1791 11.3879 77.284 11.6575C77.3889 11.9164 77.4414 12.2076 77.4414 12.5312V12.7361C77.4414 13.0597 77.3889 13.3617 77.2735 13.6206C77.1686 13.8795 77.0112 14.1167 76.8118 14.3109C76.6125 14.505 76.3712 14.656 76.0984 14.7638C75.8151 14.8718 75.5003 14.9257 75.1646 14.9257H72.1953V8.19531ZM74.9863 13.6853C75.28 13.6853 75.5108 13.599 75.6683 13.4156C75.8256 13.2323 75.9095 12.995 75.9095 12.7037V12.5528C75.9095 12.2616 75.8256 12.0242 75.6683 11.8409C75.5108 11.6575 75.28 11.5713 74.9863 11.5713H73.7062V13.696H74.9863V13.6853Z" fill="#2E2D2D"/>
<path d="M78.7476 8.19531H81.9477C82.2516 8.19531 82.5246 8.23843 82.7657 8.31395C83.0076 8.38947 83.2175 8.5081 83.3848 8.65914C83.5529 8.81009 83.689 8.99345 83.794 9.1984C83.899 9.40336 83.9408 9.64063 83.9408 9.8995V10.1044C83.9408 10.3848 83.8785 10.6221 83.7415 10.8378C83.6161 11.0535 83.4373 11.2477 83.2175 11.4095C83.5316 11.5605 83.7842 11.7546 83.9728 12.0135C84.1614 12.2723 84.2458 12.5636 84.2458 12.8871V13.092C84.2458 13.3725 84.1933 13.6206 84.0884 13.8471C83.9834 14.0735 83.8366 14.2569 83.6366 14.4187C83.448 14.5697 83.2175 14.6991 82.9551 14.7854C82.6927 14.8718 82.3992 14.9257 82.063 14.9257H78.7266V8.19531H78.7476ZM81.4755 10.978C81.7798 10.978 82.0105 10.9133 82.1786 10.7732C82.3467 10.6329 82.4303 10.4496 82.4303 10.2123V10.126C82.4303 9.8779 82.3467 9.68375 82.1893 9.55431C82.0318 9.42488 81.7903 9.34936 81.486 9.34936H80.2165V10.978H81.4755ZM81.6854 13.7716C82.0105 13.7716 82.2729 13.696 82.4517 13.5451C82.6403 13.394 82.7239 13.1999 82.7239 12.9518V12.8225C82.7239 12.5636 82.6296 12.3586 82.4517 12.2184C82.2729 12.0782 82.0212 12.0027 81.7064 12.0027H80.206V13.7607H81.6749L81.6854 13.7716Z" fill="#2E2D2D"/>
<path d="M85.7185 7.04126C85.5504 6.87947 85.4766 6.67454 85.4766 6.41569C85.4766 6.15682 85.561 5.94111 85.7283 5.77932C85.8964 5.61754 86.117 5.53125 86.3794 5.53125C86.6623 5.53125 86.8935 5.61754 87.0715 5.77932C87.2502 5.94111 87.3339 6.15682 87.3339 6.41569C87.3339 6.67454 87.2502 6.86869 87.0715 7.04126C86.8935 7.20305 86.6623 7.28933 86.3794 7.28933C86.0957 7.28933 85.8857 7.20305 85.7185 7.04126ZM85.6028 8.19538H87.1658V14.9257H85.6028V8.19538Z" fill="#2E2D2D"/>
<path d="M88.9901 8.19531H92.1905C92.4948 8.19531 92.767 8.23843 93.0089 8.31395C93.25 8.38947 93.4599 8.5081 93.628 8.65914C93.7953 8.81009 93.9322 8.99345 94.0372 9.1984C94.1421 9.40336 94.184 9.64063 94.184 9.8995V10.1044C94.184 10.3848 94.1208 10.6221 93.9847 10.8378C93.8584 11.0535 93.6805 11.2477 93.4599 11.4095C93.7748 11.5605 94.0265 11.7546 94.2151 12.0135C94.4037 12.2723 94.4882 12.5636 94.4882 12.8871V13.092C94.4882 13.3725 94.4357 13.6206 94.3307 13.8471C94.2258 14.0735 94.079 14.2569 93.8797 14.4187C93.6903 14.5697 93.4599 14.6991 93.1975 14.7854C92.9351 14.8718 92.6415 14.9257 92.3053 14.9257H88.9688V8.19531H88.9901ZM91.7182 10.978C92.0224 10.978 92.2528 10.9133 92.4209 10.7732C92.589 10.6329 92.6727 10.4496 92.6727 10.2123V10.126C92.6727 9.8779 92.589 9.68375 92.4316 9.55431C92.2742 9.42488 92.0331 9.34936 91.7289 9.34936H90.4587V10.978H91.7182ZM91.9281 13.7716C92.2529 13.7716 92.5152 13.696 92.694 13.5451C92.8826 13.394 92.9662 13.1999 92.9662 12.9518V12.8225C92.9662 12.5636 92.8719 12.3586 92.694 12.2184C92.5152 12.0782 92.2635 12.0027 91.9486 12.0027H90.4489V13.7607H91.9175L91.9281 13.7716Z" fill="#2E2D2D"/>
<path d="M97.2869 14.7879C96.8982 14.626 96.5628 14.3995 96.2898 14.1084C96.0175 13.8171 95.797 13.4612 95.6395 13.0513C95.4821 12.6414 95.3984 12.1992 95.3984 11.7247V11.358C95.3984 10.8833 95.4821 10.4412 95.6395 10.0421C95.8076 9.63225 96.0274 9.28706 96.3004 8.99587C96.5735 8.70467 96.9089 8.47812 97.2869 8.32717C97.6649 8.16535 98.0839 8.08984 98.5358 8.08984H98.6399C99.2065 8.08984 99.7207 8.21925 100.193 8.48892C100.665 8.74779 101.053 9.1361 101.348 9.64297L100.214 10.4196C100.025 10.0529 99.8051 9.794 99.5534 9.62145C99.3016 9.44889 99.0073 9.37337 98.6612 9.37337H98.5776C98.3357 9.37337 98.1159 9.42729 97.9265 9.52433C97.7379 9.62145 97.5698 9.76168 97.4337 9.93424C97.2976 10.1068 97.1926 10.3225 97.1295 10.5705C97.0557 10.8186 97.0245 11.1099 97.0245 11.4227V11.7031C97.0245 12.0051 97.0663 12.2855 97.1401 12.5336C97.2238 12.7817 97.3287 12.9973 97.4648 13.17C97.6018 13.3425 97.7691 13.4828 97.9691 13.5798C98.1684 13.6768 98.3882 13.7308 98.6399 13.7308H98.7555C99.0704 13.7308 99.3435 13.6445 99.5952 13.4612C99.8469 13.2886 100.057 13.0189 100.245 12.6738L101.379 13.5151C101.064 14.0112 100.687 14.3779 100.235 14.6368C99.7838 14.8957 99.2697 15.0251 98.6825 15.0251H98.5669C98.1053 15.0251 97.6748 14.9496 97.2869 14.7879Z" fill="#2E2D2D"/>
<path d="M102.594 8.19531H104.147V10.3524H105.615C105.952 10.3524 106.256 10.4064 106.528 10.5143C106.801 10.6221 107.032 10.7732 107.232 10.9672C107.431 11.1614 107.578 11.3879 107.683 11.6575C107.788 11.9164 107.84 12.2076 107.84 12.5312V12.7361C107.84 13.0597 107.788 13.3617 107.672 13.6206C107.567 13.8795 107.41 14.1167 107.21 14.3109C107.011 14.505 106.77 14.656 106.497 14.7638C106.213 14.8718 105.899 14.9257 105.563 14.9257H102.594V8.19531ZM105.385 13.6853C105.679 13.6853 105.909 13.599 106.066 13.4156C106.224 13.2323 106.308 12.995 106.308 12.7037V12.5528C106.308 12.2616 106.224 12.0242 106.066 11.8409C105.909 11.6575 105.679 11.5713 105.385 11.5713H104.105V13.696H105.385V13.6853Z" fill="#2E2D2D"/>
<path d="M109.159 8.19531H110.723V11.0319H110.828L113.23 8.19531H114.983L112.223 11.3124L115.056 14.9257H113.189L110.817 11.733H110.712V14.9257H109.148V8.19531H109.159Z" fill="#2E2D2D"/>
<path d="M116.078 8.19531H117.6V12.4881H117.715L120.296 8.19531H122.007V14.9257H120.485V10.277H120.38L117.589 14.9257H116.078V8.19531Z" fill="#2E2D2D"/>
<path d="M123.828 8.19707H125.349V12.4897H125.465L128.046 8.19707H129.756V14.9274H128.235V10.2787H128.13L125.339 14.9274H123.828V8.19707ZM126.01 5.59766C126.01 5.83495 126.084 6.02909 126.22 6.1693C126.356 6.30952 126.546 6.38503 126.776 6.38503C127.028 6.38503 127.217 6.30952 127.353 6.1693C127.489 6.02909 127.553 5.83495 127.553 5.59766H128.865C128.865 5.87809 128.812 6.13695 128.717 6.36345C128.623 6.58996 128.487 6.78409 128.298 6.94588C128.119 7.10767 127.899 7.22631 127.647 7.32339C127.395 7.40968 127.102 7.4636 126.787 7.4636C126.472 7.4636 126.189 7.42046 125.926 7.32339C125.664 7.22631 125.444 7.10767 125.276 6.94588C125.097 6.78409 124.961 6.58996 124.856 6.36345C124.751 6.13695 124.71 5.87809 124.71 5.59766H126.01Z" fill="#2E2D2D"/>
<path d="M140.189 14.9257H134.984V8.19531H136.548V13.6529H139.202V8.19531H140.765V13.6529H141.689V16.5759H140.189V14.9149V14.9257Z" fill="#2E2D2D"/>
<path d="M144.183 14.8094C143.785 14.6476 143.448 14.4211 143.166 14.1299C142.882 13.8387 142.661 13.4935 142.504 13.0837C142.347 12.6738 142.273 12.2208 142.273 11.7355V11.4766C142.273 10.9804 142.357 10.5166 142.515 10.1068C142.672 9.69697 142.893 9.34097 143.166 9.03898C143.438 8.73699 143.774 8.51052 144.162 8.33788C144.551 8.16535 144.98 8.08984 145.453 8.08984H145.599C146.03 8.08984 146.418 8.16534 146.785 8.31637C147.142 8.46732 147.457 8.68307 147.719 8.95275C147.981 9.22234 148.181 9.55673 148.317 9.93424C148.453 10.3117 148.527 10.7324 148.527 11.1961V12.0806H143.847C143.868 12.3178 143.931 12.5444 144.015 12.7493C144.099 12.9542 144.225 13.1268 144.372 13.267C144.519 13.4073 144.708 13.5151 144.917 13.6014C145.127 13.6876 145.358 13.72 145.61 13.72H145.735C146.135 13.72 146.47 13.6337 146.764 13.472C147.058 13.2994 147.299 13.0945 147.488 12.8464L148.359 13.8171C148.201 14.0112 148.023 14.1838 147.813 14.3348C147.614 14.4858 147.394 14.6152 147.173 14.7231C146.953 14.831 146.711 14.9065 146.46 14.9712C146.208 15.0359 145.956 15.0682 145.694 15.0682H145.516C145.033 15.0682 144.603 14.9819 144.204 14.8202L144.183 14.8094ZM147.037 10.9804V10.9588C147.016 10.7108 146.974 10.4843 146.901 10.2901C146.827 10.096 146.722 9.92344 146.596 9.7832C146.47 9.64297 146.323 9.53513 146.145 9.45961C145.967 9.38417 145.767 9.35177 145.558 9.35177H145.442C145.232 9.35177 145.033 9.39489 144.855 9.47041C144.676 9.54593 144.519 9.65377 144.382 9.794C144.246 9.93424 144.141 10.1068 144.046 10.3009C143.963 10.5059 143.889 10.7324 143.847 10.9912H147.037V10.9804Z" fill="#2E2D2D"/>
<path d="M149.891 8.19531H151.454V10.7624H154.182V8.19531H155.734V14.9257H154.182V12.0566H151.454V14.9257H149.891V8.19531Z" fill="#2E2D2D"/>
<path d="M158.711 9.53271H156.875V8.19531H162.11V9.53271H160.274V14.9257H158.711V9.53271Z" fill="#2E2D2D"/>
<path d="M163.258 8.19192H164.496C164.538 8.29976 164.569 8.41839 164.601 8.56943C164.632 8.72047 164.653 8.86062 164.674 9.00086C164.926 8.70967 165.23 8.48311 165.587 8.31056C165.943 8.138 166.332 8.0625 166.762 8.0625H166.877C167.297 8.0625 167.685 8.138 168.042 8.29976C168.399 8.46159 168.703 8.68807 168.965 8.97926C169.218 9.27053 169.417 9.62644 169.564 10.0255C169.71 10.4246 169.774 10.8776 169.774 11.3737V11.7405C169.774 12.2366 169.7 12.6788 169.564 13.0779C169.427 13.477 169.218 13.8329 168.965 14.1241C168.713 14.4261 168.399 14.6526 168.042 14.8144C167.685 14.9762 167.297 15.0517 166.877 15.0517H166.762C166.363 15.0517 166.006 14.987 165.682 14.8468C165.356 14.7173 165.072 14.5124 164.821 14.2536V17.5H163.258V8.19192ZM166.531 13.7682C166.772 13.7682 166.993 13.7142 167.192 13.6172C167.391 13.5094 167.56 13.3691 167.696 13.1966C167.833 13.0239 167.947 12.7975 168.021 12.5386C168.094 12.2797 168.137 11.9993 168.137 11.6973V11.3737C168.137 11.0718 168.094 10.7913 168.021 10.5432C167.938 10.2951 167.833 10.0795 167.696 9.90691C167.56 9.73427 167.391 9.59412 167.192 9.497C166.993 9.39997 166.772 9.34605 166.531 9.34605H166.426C166.185 9.34605 165.965 9.39997 165.765 9.497C165.566 9.59412 165.398 9.73427 165.251 9.91763C165.104 10.101 164.999 10.3167 164.915 10.554C164.831 10.8021 164.8 11.0718 164.8 11.3737V11.6973C164.8 11.9993 164.842 12.2797 164.926 12.5386C165.01 12.7975 165.125 13.0132 165.262 13.1966C165.398 13.3799 165.577 13.5094 165.765 13.6172C165.954 13.725 166.175 13.7682 166.416 13.7682H166.521H166.531Z" fill="#2E2D2D"/>
<path d="M63.4922 23.7266H65.0555V26.2936H67.7835V23.7266H69.3363V30.4569H67.7835V27.5879H65.0555V30.4569H63.4922V23.7266Z" fill="#2E2D2D"/>
<path d="M72.0432 30.4457C71.7705 30.3486 71.5396 30.2192 71.3508 30.0466C71.1619 29.8741 71.0045 29.6691 70.8996 29.421C70.7947 29.173 70.7422 28.9033 70.7422 28.6013V28.4719C70.7422 27.7493 71.0465 27.21 71.6445 26.8433C72.253 26.4873 73.1764 26.3039 74.4355 26.3039H74.96V26.0235C74.96 25.6784 74.8551 25.4088 74.6453 25.2038C74.4355 25.0097 74.1312 24.9018 73.722 24.9018H73.6485C73.3338 24.9018 72.998 24.9557 72.6623 25.0744C72.3265 25.193 71.9908 25.3656 71.676 25.5813L71.057 24.438C71.4557 24.1684 71.8858 23.9634 72.3475 23.8124C72.8092 23.6615 73.2813 23.5859 73.764 23.5859H73.8793C74.6872 23.5859 75.3168 23.8017 75.7575 24.2223C76.2086 24.6537 76.429 25.2469 76.429 26.0127V29.0543C76.429 29.2916 76.45 29.5289 76.5024 29.7662C76.5548 30.0035 76.6073 30.2192 76.6703 30.4349H75.1804C75.128 30.3378 75.0965 30.2192 75.065 30.0789C75.0335 29.9388 75.023 29.7986 75.002 29.6583C74.7292 29.9388 74.404 30.1653 74.0472 30.327C73.6905 30.4889 73.3023 30.5644 72.8931 30.5644C72.5783 30.5644 72.295 30.5212 72.0222 30.4241L72.0432 30.4457ZM74.2046 29.0759C74.4984 28.9249 74.7607 28.7307 74.981 28.4719V27.3501H74.5928C73.785 27.3501 73.1974 27.4365 72.8197 27.5982C72.442 27.7601 72.253 28.0296 72.253 28.3964V28.4612C72.253 28.5905 72.274 28.7092 72.3265 28.8063C72.379 28.9033 72.442 28.9896 72.5363 29.0759C72.6308 29.1622 72.7357 29.2161 72.8616 29.2485C72.9875 29.2808 73.124 29.3024 73.2603 29.3024C73.596 29.3024 73.9108 29.2269 74.2151 29.0867L74.2046 29.0759Z" fill="#2E2D2D"/>
<path d="M77.4922 29.1832H78.1008C78.3316 28.9352 78.489 28.3635 78.5834 27.4575C78.6778 26.5623 78.7303 25.3112 78.7303 23.7148H83.63V29.1724H84.5533V32.0954H83.0847V30.4344H78.9926V32.0954H77.5027V29.1724L77.4922 29.1832ZM82.0769 29.1832V24.9768H80.1992C80.1782 26.1849 80.1152 27.1339 80.0103 27.8242C79.9054 28.5145 79.7795 28.9676 79.6116 29.1832H82.0769Z" fill="#2E2D2D"/>
<path d="M86.6373 30.4457C86.3642 30.3486 86.1338 30.2192 85.9444 30.0466C85.7558 29.8741 85.5983 29.6691 85.4934 29.421C85.3884 29.173 85.3359 28.9033 85.3359 28.6013V28.4719C85.3359 27.7493 85.6402 27.21 86.2388 26.8433C86.8472 26.4873 87.7705 26.3039 89.0292 26.3039H89.554V26.0235C89.554 25.6784 89.4491 25.4088 89.2391 25.2038C89.0292 25.0097 88.725 24.9018 88.3158 24.9018H88.2428C87.928 24.9018 87.5918 24.9557 87.2564 25.0744C86.9202 25.193 86.5848 25.3656 86.2699 25.5813L85.6508 24.438C86.0493 24.1684 86.4798 23.9634 86.9415 23.8124C87.4032 23.6615 87.8755 23.5859 88.3576 23.5859H88.4733C89.281 23.5859 89.9107 23.8017 90.3511 24.2223C90.8029 24.6537 91.0226 25.2469 91.0226 26.0127V29.0543C91.0226 29.2916 91.044 29.5289 91.0964 29.7662C91.1489 30.0035 91.2014 30.2192 91.2645 30.4349H89.7746C89.7221 30.3378 89.6901 30.2192 89.659 30.0789C89.6278 29.9388 89.6172 29.7986 89.5958 29.6583C89.3228 29.9388 88.9981 30.1653 88.6414 30.327C88.2847 30.4889 87.896 30.5644 87.4868 30.5644C87.1719 30.5644 86.889 30.5212 86.616 30.4241L86.6373 30.4457ZM88.7988 29.0759C89.0924 28.9249 89.3548 28.7307 89.5753 28.4719V27.3501H89.1867C88.379 27.3501 87.791 27.4365 87.4138 27.5982C87.0358 27.7601 86.8472 28.0296 86.8472 28.3964V28.4612C86.8472 28.5905 86.8677 28.7092 86.9202 28.8063C86.9727 28.9033 87.0358 28.9896 87.1301 29.0759C87.2244 29.1622 87.3294 29.2161 87.4556 29.2485C87.5811 29.2808 87.718 29.3024 87.8542 29.3024C88.1904 29.3024 88.5044 29.2269 88.8095 29.0867L88.7988 29.0759Z" fill="#2E2D2D"/>
<path d="M92.8516 23.7266H94.4153V26.2936H97.1434V23.7266H98.6957V30.4569H97.1434V27.5879H94.4153V30.4569H92.8516V23.7266Z" fill="#2E2D2D"/>
<path d="M100.523 23.7266H102.087V26.2936H104.815V23.7266H106.368V30.4569H104.815V27.5879H102.087V30.4569H100.523V23.7266Z" fill="#2E2D2D"/>
<path d="M110.61 27.9861L109.288 30.456H107.641L109.194 27.738L110.621 27.9861H110.61ZM109.268 27.9968C108.868 27.835 108.533 27.587 108.281 27.2526C108.029 26.9183 107.892 26.53 107.892 26.0661V25.8289C107.892 25.5269 107.945 25.2465 108.05 24.9768C108.155 24.7179 108.312 24.4915 108.511 24.3081C108.712 24.1248 108.953 23.9845 109.225 23.8767C109.498 23.7688 109.802 23.7148 110.128 23.7148H113.202V30.4452H111.712V28.1586H110.348L109.257 27.9861L109.268 27.9968ZM111.743 26.983V24.966H110.401C110.253 24.966 110.128 24.9876 110.001 25.0199C109.876 25.0523 109.771 25.117 109.677 25.2033C109.582 25.2896 109.519 25.3866 109.467 25.4946C109.414 25.6024 109.393 25.7318 109.393 25.8828V26.023C109.393 26.1525 109.414 26.2711 109.467 26.3897C109.519 26.5084 109.582 26.6055 109.677 26.7025C109.771 26.7996 109.876 26.8644 110.001 26.9075C110.128 26.9506 110.264 26.983 110.401 26.983H111.743Z" fill="#2E2D2D"/>
<path d="M118.453 23.7266H124.297V30.4569H122.734V25.0208H120.017V30.4569H118.453V23.7266Z" fill="#2E2D2D"/>
<path d="M127.602 30.3408C127.204 30.179 126.867 29.9525 126.585 29.6505C126.302 29.3592 126.081 29.0141 125.913 28.6043C125.756 28.2052 125.672 27.7522 125.672 27.2668V26.9001C125.672 26.404 125.756 25.9617 125.913 25.5627C126.07 25.1636 126.291 24.8185 126.585 24.5164C126.878 24.2144 127.214 23.9988 127.602 23.8262C127.991 23.6536 128.431 23.5781 128.914 23.5781H129.029C129.512 23.5781 129.942 23.6644 130.341 23.8262C130.739 23.988 131.075 24.2144 131.359 24.5164C131.641 24.8077 131.862 25.1528 132.019 25.5627C132.177 25.9725 132.25 26.4148 132.25 26.9001V27.2668C132.25 27.763 132.177 28.2052 132.019 28.6043C131.862 29.0033 131.641 29.3485 131.359 29.6505C131.075 29.9525 130.729 30.1682 130.341 30.3408C129.942 30.5026 129.512 30.5889 129.029 30.5889H128.914C128.431 30.5889 128.001 30.5026 127.602 30.3408ZM129.029 29.3053C129.271 29.3053 129.491 29.2514 129.701 29.1544C129.91 29.0572 130.068 28.9063 130.215 28.7229C130.351 28.5396 130.456 28.3238 130.54 28.065C130.624 27.8061 130.656 27.5365 130.656 27.2345V26.9109C130.656 26.6089 130.613 26.3284 130.54 26.0804C130.456 25.8323 130.351 25.6166 130.204 25.4441C130.057 25.2714 129.889 25.1313 129.701 25.0342C129.512 24.9371 129.291 24.8832 129.05 24.8832H128.935C128.704 24.8832 128.484 24.9371 128.284 25.0342C128.085 25.1313 127.917 25.2714 127.781 25.4441C127.644 25.6166 127.539 25.8323 127.455 26.0804C127.372 26.3284 127.329 26.6089 127.329 26.9109V27.2345C127.329 27.5365 127.372 27.8169 127.445 28.065C127.519 28.313 127.634 28.5396 127.77 28.7229C127.917 28.9063 128.085 29.0464 128.284 29.1544C128.484 29.2622 128.704 29.3053 128.945 29.3053H129.061H129.029Z" fill="#2E2D2D"/>
<path d="M135.107 30.3152C134.719 30.1534 134.383 29.9268 134.11 29.6357C133.837 29.3445 133.617 28.9885 133.46 28.5786C133.302 28.1688 133.219 27.7266 133.219 27.252V26.8853C133.219 26.4107 133.302 25.9685 133.46 25.5694C133.628 25.1595 133.848 24.8144 134.121 24.5232C134.394 24.232 134.729 24.0055 135.107 23.8545C135.484 23.6927 135.904 23.6172 136.355 23.6172H136.46C137.027 23.6172 137.541 23.7466 138.013 24.0162C138.486 24.2751 138.873 24.6634 139.167 25.1703L138.035 25.9469C137.845 25.5802 137.625 25.3213 137.373 25.1487C137.121 24.9762 136.828 24.9007 136.482 24.9007H136.397C136.156 24.9007 135.935 24.9546 135.747 25.0517C135.558 25.1487 135.39 25.289 135.254 25.4615C135.117 25.6341 135.013 25.8498 134.95 26.0979C134.876 26.346 134.845 26.6372 134.845 26.95V27.2304C134.845 27.5324 134.887 27.8128 134.96 28.0609C135.044 28.309 135.149 28.5247 135.285 28.6973C135.422 28.8698 135.589 29.0101 135.789 29.1071C135.988 29.2042 136.208 29.2581 136.46 29.2581H136.576C136.891 29.2581 137.164 29.1718 137.416 28.9885C137.667 28.8159 137.877 28.5463 138.066 28.2011L139.199 29.0425C138.884 29.5386 138.506 29.9053 138.055 30.1641C137.604 30.423 137.09 30.5524 136.502 30.5524H136.387C135.926 30.5524 135.495 30.4769 135.107 30.3152Z" fill="#2E2D2D"/>
<path d="M140.029 30.5343C139.913 30.5127 139.798 30.4911 139.672 30.448V29.1537C139.746 29.186 139.829 29.2076 139.913 29.2292C139.997 29.24 140.07 29.2507 140.134 29.2507C140.28 29.2507 140.417 29.2184 140.522 29.1645C140.627 29.0998 140.711 28.9811 140.774 28.787C140.836 28.5928 140.879 28.3339 140.91 27.9996C140.941 27.6652 140.963 27.223 140.963 26.6838V23.75H145.789V30.4804H144.225V25.0443H142.4L142.358 26.77C142.358 27.5142 142.306 28.129 142.221 28.6251C142.138 29.1213 142.012 29.5204 141.855 29.8116C141.697 30.1029 141.498 30.3077 141.256 30.4156C141.015 30.5235 140.731 30.5882 140.407 30.5882C140.26 30.5882 140.134 30.5882 140.018 30.5666L140.029 30.5343Z" fill="#2E2D2D"/>
<path d="M147.998 33.0141C147.788 32.9709 147.6 32.9062 147.421 32.8091V31.4393C147.558 31.5149 147.705 31.5796 147.851 31.6227C148.009 31.6658 148.156 31.6874 148.313 31.6874C148.585 31.6874 148.827 31.6119 149.037 31.4501C149.247 31.2883 149.425 31.051 149.572 30.749L146.812 23.7383H148.46L150.327 28.9047H150.411L151.849 23.7383H153.444L151.188 30.803C151.083 31.1589 150.946 31.4717 150.789 31.7413C150.632 32.011 150.443 32.2483 150.223 32.4532C150.002 32.6581 149.761 32.8091 149.488 32.917C149.215 33.0248 148.922 33.0788 148.585 33.0788C148.397 33.0788 148.208 33.0572 147.998 33.0248V33.0141Z" fill="#2E2D2D"/>
<path d="M154.417 23.7266H158.467V25.064H155.97V30.4569H154.406V23.7266H154.417Z" fill="#2E2D2D"/>
<path d="M63.8731 48.5482C63.6632 48.5051 63.4744 48.4404 63.296 48.3434V46.9736C63.4324 47.0491 63.5793 47.1138 63.7262 47.1569C63.8836 47.2 64.0304 47.2216 64.1879 47.2216C64.4607 47.2216 64.7019 47.1461 64.9118 46.9844C65.1217 46.8225 65.3 46.5853 65.4469 46.2833L62.6875 39.2617H64.3347L66.2023 44.4281H66.2862L67.7237 39.2617H69.3185L67.0627 46.3264C66.9577 46.6824 66.8214 46.9951 66.664 47.2648C66.5066 47.5344 66.3177 47.7717 66.0974 47.9767C65.8771 48.1815 65.6357 48.3326 65.3629 48.4404C65.0902 48.5482 64.7964 48.6022 64.4607 48.6022C64.2717 48.6022 64.0829 48.5806 63.8731 48.5482Z" fill="#2E2D2D"/>
<path d="M73.8738 43.4741C73.601 43.582 73.3177 43.6575 73.0449 43.7114C72.7721 43.7653 72.5098 43.7869 72.2475 43.7869C71.5131 43.7869 70.957 43.6036 70.6002 43.2261C70.2435 42.8485 70.0547 42.3201 70.0547 41.6298V39.2569H71.5865V41.414C71.5865 41.7807 71.6599 42.0504 71.8174 42.223C71.9642 42.3956 72.216 42.471 72.5517 42.471C72.7826 42.471 73.0134 42.4495 73.2337 42.3956C73.4541 42.3416 73.6639 42.2877 73.8738 42.2122V39.2461H75.4371V45.9765H73.8738V43.4633V43.4741Z" fill="#2E2D2D"/>
<path d="M78.1291 45.9809C77.8564 45.8838 77.6256 45.7543 77.4366 45.5818C77.2478 45.4092 77.0904 45.2043 76.9855 44.9562C76.8806 44.7081 76.8281 44.4385 76.8281 44.1365V44.007C76.8281 43.2844 77.1324 42.7451 77.7305 42.3784C78.339 42.0224 79.2623 41.8391 80.5214 41.8391H81.046V41.5587C81.046 41.2135 80.9411 40.9439 80.7312 40.739C80.5214 40.5448 80.2171 40.437 79.8079 40.437H79.7345C79.4197 40.437 79.0839 40.4909 78.7482 40.6095C78.4124 40.7282 78.0767 40.9007 77.7619 41.1165L77.1429 39.9731C77.5416 39.7036 77.9718 39.4986 78.4334 39.3476C78.8951 39.1966 79.3673 39.1211 79.8499 39.1211H79.9653C80.7731 39.1211 81.4027 39.3368 81.8434 39.7575C82.2948 40.1889 82.5146 40.7821 82.5146 41.5479V44.5895C82.5146 44.8268 82.5359 45.064 82.5884 45.3014C82.6409 45.5387 82.6933 45.7543 82.7565 45.9701H81.2663C81.2138 45.873 81.1824 45.7543 81.1509 45.6141C81.1194 45.4739 81.1089 45.3337 81.0879 45.1935C80.8151 45.4739 80.4899 45.7004 80.1331 45.8622C79.7764 46.024 79.3882 46.0995 78.979 46.0995C78.6643 46.0995 78.381 46.0563 78.1081 45.9593L78.1291 45.9809ZM80.2906 44.6111C80.5843 44.4601 80.8466 44.2659 81.067 44.007V42.8853H80.6788C79.8708 42.8853 79.2833 42.9716 78.9056 43.1334C78.5278 43.2952 78.339 43.5648 78.339 43.9316V43.9963C78.339 44.1257 78.36 44.2444 78.4125 44.3414C78.4649 44.4385 78.5278 44.5248 78.6223 44.6111C78.7168 44.6973 78.8216 44.7512 78.9476 44.7836C79.0735 44.816 79.2098 44.8376 79.3463 44.8376C79.682 44.8376 79.9968 44.762 80.3011 44.6218L80.2906 44.6111Z" fill="#2E2D2D"/>
<path d="M85.8033 45.8503C85.4147 45.6886 85.0793 45.462 84.8062 45.1708C84.5332 44.8796 84.3134 44.5236 84.156 44.1138C83.9985 43.704 83.9141 43.2617 83.9141 42.7871V42.4204C83.9141 41.9459 83.9985 41.5036 84.156 41.1045C84.3241 40.6947 84.5438 40.3496 84.8169 40.0583C85.0899 39.7671 85.4253 39.5407 85.8033 39.3896C86.1805 39.2279 86.6004 39.1523 87.0514 39.1523H87.1563C87.723 39.1523 88.2371 39.2818 88.7094 39.5514C89.1817 39.8102 89.5696 40.1986 89.8632 40.7055L88.7307 41.482C88.5413 41.1153 88.3216 40.8565 88.069 40.6839C87.8173 40.5113 87.5237 40.4358 87.1777 40.4358H87.0932C86.8521 40.4358 86.6315 40.4897 86.4429 40.5869C86.2543 40.6839 86.0862 40.8241 85.9501 40.9967C85.8132 41.1692 85.7082 41.385 85.6459 41.6331C85.5721 41.8811 85.5409 42.1723 85.5409 42.4851V42.7656C85.5409 43.0676 85.5828 43.348 85.6566 43.5961C85.7402 43.8441 85.8452 44.0599 85.9813 44.2324C86.1182 44.405 86.2855 44.5452 86.4848 44.6423C86.684 44.7394 86.9046 44.7933 87.1563 44.7933H87.272C87.5868 44.7933 87.8599 44.707 88.1116 44.5236C88.3634 44.3511 88.5733 44.0815 88.7619 43.7363L89.8951 44.5776C89.5803 45.0738 89.2022 45.4405 88.7512 45.6993C88.3002 45.9581 87.7861 46.0876 87.1982 46.0876H87.0834C86.6217 46.0876 86.1912 46.0121 85.8033 45.8503Z" fill="#2E2D2D"/>
<path d="M91.1016 39.2617H92.6653V41.8288H95.3926V39.2617H96.9457V45.9921H95.3926V43.123H92.6653V45.9921H91.1016V39.2617Z" fill="#2E2D2D"/>
<path d="M98.7734 39.2617H100.295V43.5545H100.41L102.991 39.2617H104.701V45.9921H103.18V41.3433H103.075L100.284 45.9921H98.7734V39.2617Z" fill="#2E2D2D"/>
<path d="M106.525 39.2617H108.089V42.0984H108.194L110.597 39.2617H112.349L109.59 42.3788L112.422 45.9921H110.555L108.184 42.7995H108.079V45.9921H106.516V39.2617H106.525Z" fill="#2E2D2D"/>
<path d="M114.192 45.9809C113.919 45.8838 113.688 45.7543 113.499 45.5818C113.31 45.4092 113.153 45.2043 113.048 44.9562C112.943 44.7081 112.891 44.4385 112.891 44.1365V44.007C112.891 43.2844 113.195 42.7451 113.793 42.3784C114.402 42.0224 115.325 41.8391 116.584 41.8391H117.109V41.5587C117.109 41.2135 117.004 40.9439 116.794 40.739C116.584 40.5448 116.28 40.437 115.871 40.437H115.798C115.483 40.437 115.146 40.4909 114.811 40.6095C114.475 40.7282 114.139 40.9007 113.825 41.1165L113.206 39.9731C113.604 39.7036 114.035 39.4986 114.496 39.3476C114.958 39.1966 115.43 39.1211 115.912 39.1211H116.028C116.836 39.1211 117.465 39.3368 117.906 39.7575C118.358 40.1889 118.577 40.7821 118.577 41.5479V44.5895C118.577 44.8268 118.599 45.064 118.651 45.3014C118.704 45.5387 118.756 45.7543 118.819 45.9701H117.329C117.277 45.873 117.245 45.7543 117.214 45.6141C117.183 45.4739 117.172 45.3337 117.151 45.1935C116.878 45.4739 116.553 45.7004 116.196 45.8622C115.839 46.024 115.451 46.0995 115.041 46.0995C114.727 46.0995 114.444 46.0563 114.171 45.9593L114.192 45.9809ZM116.353 44.6111C116.647 44.4601 116.909 44.2659 117.13 44.007V42.8853H116.741C115.934 42.8853 115.346 42.9716 114.969 43.1334C114.59 43.2952 114.402 43.5648 114.402 43.9316V43.9963C114.402 44.1257 114.422 44.2444 114.475 44.3414C114.527 44.4385 114.59 44.5248 114.685 44.6111C114.779 44.6973 114.884 44.7512 115.01 44.7836C115.137 44.816 115.273 44.8376 115.409 44.8376C115.745 44.8376 116.059 44.762 116.364 44.6218L116.353 44.6111Z" fill="#2E2D2D"/>
<path d="M120.401 39.2617H122.112L123.853 43.2093H123.958L125.679 39.2617H127.389V45.9921H125.899V41.7748H125.784L124.336 44.8919H123.454L121.996 41.7748H121.891V45.9921H120.391V39.2617H120.401Z" fill="#2E2D2D"/>
<path d="M134.087 45.8192C133.677 45.6251 133.331 45.3339 133.058 44.9564C132.785 44.5789 132.565 44.1043 132.418 43.5435C132.271 42.9826 132.188 42.3354 132.188 41.6128C132.188 40.8901 132.25 40.2753 132.387 39.7144C132.512 39.1536 132.711 38.6682 132.963 38.2692C133.216 37.8701 133.541 37.525 133.929 37.2661C134.317 37.0072 134.757 36.8131 135.262 36.7053C135.492 36.6621 135.733 36.6297 136.006 36.5974C136.279 36.565 136.542 36.5434 136.804 36.5111C137.066 36.4895 137.318 36.468 137.549 36.4572C137.779 36.4464 137.979 36.4248 138.137 36.4141V37.9025C137.969 37.924 137.769 37.9456 137.549 37.9672C137.318 37.9887 137.087 37.9995 136.846 38.0211C136.604 38.0427 136.374 38.0535 136.142 38.0751C135.912 38.0966 135.713 38.1182 135.545 38.1506C135.23 38.2153 134.957 38.3123 134.716 38.4526C134.474 38.5927 134.275 38.7654 134.107 38.981C133.939 39.1968 133.814 39.4449 133.719 39.7468C133.625 40.0488 133.562 40.3832 133.541 40.7715C133.667 40.5558 133.803 40.3616 133.96 40.1891C134.107 40.0165 134.286 39.8655 134.474 39.7468C134.663 39.6174 134.873 39.5311 135.094 39.4664C135.324 39.4017 135.555 39.3693 135.796 39.3693H135.901C136.321 39.3693 136.699 39.4449 137.045 39.6066C137.391 39.7684 137.685 39.9841 137.937 40.2753C138.189 40.5558 138.388 40.9009 138.524 41.3C138.661 41.699 138.734 42.1413 138.734 42.6267V42.864C138.734 43.3277 138.651 43.7699 138.493 44.169C138.336 44.5789 138.115 44.924 137.842 45.2152C137.57 45.5064 137.234 45.7329 136.857 45.8947C136.479 46.0565 136.069 46.1428 135.618 46.1428H135.503C134.967 46.1428 134.496 46.0457 134.076 45.8516L134.087 45.8192ZM135.555 44.8269C135.786 44.8269 135.996 44.7838 136.185 44.6867C136.374 44.5897 136.552 44.4602 136.699 44.2877C136.846 44.1151 136.961 43.9102 137.045 43.6621C137.129 43.414 137.171 43.1443 137.171 42.8532V42.6374C137.171 42.3462 137.129 42.0765 137.045 41.8177C136.961 41.5589 136.846 41.3539 136.709 41.1922C136.573 41.0195 136.405 40.8901 136.206 40.7931C136.006 40.696 135.796 40.642 135.555 40.642H135.513C135.282 40.642 135.062 40.696 134.862 40.7931C134.663 40.8901 134.485 41.0303 134.338 41.2137C134.192 41.397 134.076 41.6128 133.982 41.8609C133.887 42.1089 133.845 42.3785 133.845 42.6806V42.864C133.845 43.1659 133.887 43.4355 133.971 43.6836C134.055 43.921 134.17 44.1366 134.317 44.3092C134.464 44.4818 134.632 44.6113 134.831 44.7083C135.03 44.8053 135.24 44.8485 135.472 44.8485H135.545L135.555 44.8269Z" fill="#2E2D2D"/>
<path d="M141.602 45.8681C141.204 45.7063 140.868 45.4798 140.585 45.1778C140.302 44.8866 140.081 44.5415 139.913 44.1316C139.756 43.7325 139.672 43.2795 139.672 42.7942V42.4275C139.672 41.9313 139.756 41.4891 139.913 41.09C140.07 40.6909 140.291 40.3458 140.585 40.0438C140.879 39.7418 141.214 39.5261 141.602 39.3535C141.991 39.1809 142.431 39.1055 142.914 39.1055H143.03C143.512 39.1055 143.942 39.1917 144.341 39.3535C144.739 39.5153 145.076 39.7418 145.359 40.0438C145.642 40.335 145.862 40.6801 146.019 41.09C146.177 41.4999 146.251 41.9421 146.251 42.4275V42.7942C146.251 43.2903 146.177 43.7325 146.019 44.1316C145.862 44.5307 145.642 44.8759 145.359 45.1778C145.076 45.4798 144.729 45.6955 144.341 45.8681C143.942 46.0299 143.512 46.1162 143.03 46.1162H142.914C142.431 46.1162 142.001 46.0299 141.602 45.8681ZM143.03 44.8327C143.271 44.8327 143.491 44.7787 143.701 44.6817C143.91 44.5846 144.068 44.4336 144.215 44.2503C144.352 44.0669 144.457 43.8512 144.54 43.5923C144.625 43.3334 144.656 43.0638 144.656 42.7618V42.4382C144.656 42.1363 144.614 41.8558 144.54 41.6077C144.457 41.3596 144.352 41.144 144.205 40.9713C144.058 40.7988 143.89 40.6586 143.701 40.5615C143.512 40.4645 143.292 40.4106 143.05 40.4106H142.935C142.704 40.4106 142.484 40.4645 142.284 40.5615C142.085 40.6586 141.917 40.7988 141.781 40.9713C141.645 41.144 141.54 41.3596 141.455 41.6077C141.372 41.8558 141.33 42.1363 141.33 42.4382V42.7618C141.33 43.0638 141.372 43.3442 141.446 43.5923C141.519 43.8404 141.634 44.0669 141.77 44.2503C141.917 44.4336 142.085 44.5738 142.284 44.6817C142.484 44.7895 142.704 44.8327 142.945 44.8327H143.061H143.03Z" fill="#2E2D2D"/>
<path d="M147.648 39.2595H149.17V43.5523H149.285L151.866 39.2595H153.576V45.9898H152.055V41.3411H151.95L149.159 45.9898H147.648V39.2595ZM149.83 36.6602C149.83 36.8974 149.904 37.0916 150.04 37.2317C150.177 37.372 150.366 37.4475 150.596 37.4475C150.848 37.4475 151.038 37.372 151.174 37.2317C151.31 37.0916 151.373 36.8974 151.373 36.6602H152.685C152.685 36.9405 152.632 37.1994 152.537 37.4259C152.443 37.6524 152.307 37.8466 152.118 38.0084C151.94 38.1701 151.719 38.2888 151.467 38.3859C151.215 38.4721 150.922 38.5261 150.607 38.5261C150.292 38.5261 150.009 38.4829 149.747 38.3859C149.484 38.2888 149.264 38.1701 149.097 38.0084C148.918 37.8466 148.782 37.6524 148.677 37.4259C148.572 37.1994 148.53 36.9405 148.53 36.6602H149.83Z" fill="#2E2D2D"/>
<path d="M156.884 45.8681C156.485 45.7063 156.149 45.4798 155.866 45.1778C155.583 44.8866 155.362 44.5415 155.195 44.1316C155.038 43.7325 154.953 43.2795 154.953 42.7942V42.4275C154.953 41.9313 155.038 41.4891 155.195 41.09C155.352 40.6909 155.572 40.3458 155.866 40.0438C156.16 39.7418 156.496 39.5261 156.884 39.3535C157.272 39.1809 157.712 39.1055 158.195 39.1055H158.311C158.793 39.1055 159.224 39.1917 159.622 39.3535C160.021 39.5153 160.357 39.7418 160.64 40.0438C160.924 40.335 161.143 40.6801 161.301 41.09C161.458 41.4999 161.532 41.9421 161.532 42.4275V42.7942C161.532 43.2903 161.458 43.7325 161.301 44.1316C161.143 44.5307 160.924 44.8759 160.64 45.1778C160.357 45.4798 160.011 45.6955 159.622 45.8681C159.224 46.0299 158.793 46.1162 158.311 46.1162H158.195C157.712 46.1162 157.283 46.0299 156.884 45.8681ZM158.311 44.8327C158.552 44.8327 158.773 44.7787 158.983 44.6817C159.193 44.5846 159.349 44.4336 159.497 44.2503C159.633 44.0669 159.738 43.8512 159.821 43.5923C159.906 43.3334 159.937 43.0638 159.937 42.7618V42.4382C159.937 42.1363 159.895 41.8558 159.821 41.6077C159.738 41.3596 159.633 41.144 159.486 40.9713C159.339 40.7988 159.171 40.6586 158.983 40.5615C158.793 40.4645 158.573 40.4106 158.332 40.4106H158.217C157.985 40.4106 157.765 40.4645 157.566 40.5615C157.366 40.6586 157.198 40.7988 157.062 40.9713C156.926 41.144 156.821 41.3596 156.737 41.6077C156.653 41.8558 156.611 42.1363 156.611 42.4382V42.7618C156.611 43.0638 156.653 43.3442 156.727 43.5923C156.8 43.8404 156.915 44.0669 157.052 44.2503C157.198 44.4336 157.366 44.5738 157.566 44.6817C157.765 44.7895 157.985 44.8327 158.227 44.8327H158.342H158.311Z" fill="#2E2D2D"/>
<path d="M162.935 39.2617H166.136C166.44 39.2617 166.712 39.3048 166.954 39.3804C167.195 39.4559 167.405 39.5745 167.573 39.7255C167.741 39.8765 167.878 40.0599 167.982 40.2648C168.087 40.4698 168.129 40.707 168.129 40.9659V41.1708C168.129 41.4513 168.066 41.6885 167.93 41.9042C167.804 42.12 167.626 42.3141 167.405 42.4759C167.72 42.6269 167.972 42.8211 168.16 43.0799C168.349 43.3387 168.433 43.63 168.433 43.9535V44.1585C168.433 44.4389 168.381 44.687 168.276 44.9135C168.171 45.1399 168.024 45.3233 167.825 45.4851C167.636 45.6361 167.405 45.7655 167.143 45.8518C166.88 45.9381 166.587 45.9921 166.251 45.9921H162.914V39.2617H162.935ZM165.664 42.0444C165.968 42.0444 166.198 41.9797 166.366 41.8396C166.534 41.6993 166.618 41.516 166.618 41.2787V41.1924C166.618 40.9443 166.534 40.7502 166.377 40.6207C166.219 40.4913 165.978 40.4158 165.674 40.4158H164.404V42.0444H165.664ZM165.873 44.838C166.198 44.838 166.461 44.7624 166.639 44.6115C166.828 44.4604 166.912 44.2663 166.912 44.0182V43.8888C166.912 43.63 166.817 43.425 166.639 43.2848C166.461 43.1446 166.209 43.0691 165.894 43.0691H164.394V44.8272H165.863L165.873 44.838Z" fill="#2E2D2D"/>
<path d="M169.781 39.2617H171.303V43.5545H171.418L173.999 39.2617H175.71V45.9921H174.188V41.3433H174.083L171.293 45.9921H169.781V39.2617Z" fill="#2E2D2D"/>
<path d="M178.972 42.5406V42.4975L176.905 39.2617H178.668L180 41.5483H180.052L181.333 39.2617H183.053L180.986 42.4867V42.5514L183.137 45.9921H181.374L179.99 43.5114H179.926L178.531 45.9921H176.789L178.951 42.5406H178.972Z" fill="#2E2D2D"/>
<path d="M186.906 44.7145H187.515C187.746 44.4664 187.903 43.8948 187.998 42.9888C188.092 42.0935 188.144 40.8424 188.144 39.2461H193.044V44.7037H193.967V47.6266H192.499V45.9657H188.407V47.6266H186.917V44.7037L186.906 44.7145ZM191.492 44.7145V40.5081H189.613C189.593 41.716 189.529 42.6652 189.424 43.3555C189.32 44.0458 189.194 44.4988 189.026 44.7145H191.492Z" fill="#2E2D2D"/>
<path d="M195.296 38.1038C195.128 37.942 195.055 37.7371 195.055 37.4782C195.055 37.2193 195.138 37.0037 195.306 36.8418C195.474 36.6801 195.694 36.5938 195.957 36.5938C196.24 36.5938 196.471 36.6801 196.649 36.8418C196.828 37.0037 196.911 37.2193 196.911 37.4782C196.911 37.7371 196.828 37.9312 196.649 38.1038C196.471 38.2655 196.24 38.3519 195.957 38.3519C195.673 38.3519 195.464 38.2655 195.296 38.1038ZM195.18 39.2578H196.744V45.9882H195.18V39.2578Z" fill="#2E2D2D"/>
<path d="M198.562 39.2595H200.084V43.5523H200.199L202.78 39.2595H204.49V45.9898H202.969V41.3411H202.864L200.073 45.9898H198.562V39.2595ZM200.745 36.6602C200.745 36.8974 200.818 37.0916 200.954 37.2317C201.091 37.372 201.279 37.4475 201.51 37.4475C201.762 37.4475 201.951 37.372 202.088 37.2317C202.224 37.0916 202.287 36.8974 202.287 36.6602H203.598C203.598 36.9405 203.546 37.1994 203.451 37.4259C203.357 37.6524 203.221 37.8466 203.031 38.0084C202.854 38.1701 202.633 38.2888 202.381 38.3859C202.129 38.4721 201.836 38.5261 201.521 38.5261C201.206 38.5261 200.922 38.4829 200.661 38.3859C200.398 38.2888 200.178 38.1701 200.01 38.0084C199.832 37.8466 199.695 37.6524 199.59 37.4259C199.485 37.1994 199.443 36.9405 199.443 36.6602H200.745Z" fill="#2E2D2D"/>
</g>
<defs>
<clipPath id="clip0_3884_25738">
<rect width="205" height="54" fill="white"/>
</clipPath>
</defs>
</svg>
