<svg width="109" height="42" viewBox="0 0 109 42" fill="none" xmlns="http://www.w3.org/2000/svg">
<g clip-path="url(#clip0_3884_25584)">
<path d="M18.7291 17.2637L16.9258 26.4911C16.7003 27.6701 16.5876 28.5996 16.5876 29.2798C16.5876 29.9826 16.8807 30.5267 17.4667 30.9122C16.4524 31.2295 15.6634 31.3883 15.0999 31.3883C14.1531 31.3883 13.6797 31.0029 13.6797 30.232C13.6797 29.3705 13.9502 27.8741 14.5137 25.6976L17.5795 13.7269L16.9934 11.9586C16.3396 9.98613 15.7085 8.78451 15.0999 8.35376C15.9789 7.78697 16.7679 7.49219 17.4667 7.49219C17.9853 7.49219 18.4135 7.9003 18.7967 8.69381C19.1574 9.50997 19.8337 11.5505 20.8256 14.8606C21.0284 15.518 21.1862 16.0395 21.3214 16.4249L21.5694 17.1277C22.9896 21.2767 24.2294 23.3398 25.2888 23.3398C26.4385 23.3398 28.0164 21.6621 30.0453 18.3066C32.074 14.9512 33.1786 12.1853 33.3589 10.0315C34.3958 9.69135 35.1623 9.50997 35.6357 9.50997C36.5373 9.50997 37.0107 10.0088 37.0107 11.029C37.0107 11.3691 36.898 12.2986 36.6952 13.8403C36.4923 15.2232 36.357 16.3569 36.2668 17.1958L35.3201 26.3551C35.2524 26.9899 35.2299 27.6247 35.2299 28.2369C35.2299 30.0959 35.6131 31.2522 36.357 31.7057C35.4102 32.3858 34.5988 32.7259 33.9225 32.7259C32.8179 32.7259 32.2769 31.5696 32.2543 29.2571C32.2543 28.3275 32.322 27.194 32.4573 25.8564L33.652 14.2484C32.5474 17.6038 31.1273 20.4604 29.3915 22.8183C27.6558 25.1762 26.0778 26.3551 24.7028 26.3551C23.6208 26.3551 22.5613 25.5389 21.5018 23.9292C20.3972 22.3422 19.4955 20.0977 18.7291 17.2637Z" fill="#2E2D2D"/>
<path d="M42.1229 21.1854C42.1454 21.9789 42.0779 22.7497 41.9651 23.4753C41.9651 23.4979 41.9651 23.5206 41.9651 23.5432C41.9426 23.7473 41.8975 23.9513 41.875 24.1554C42.168 23.1805 42.416 22.1829 42.5512 21.1401C42.6414 20.3919 42.709 19.6437 42.709 18.9183C42.709 18.8049 42.6865 18.6915 42.6865 18.5781C42.4836 18.8276 42.2807 19.0769 42.1229 19.349C42.1229 19.9384 42.1229 20.5506 42.1229 21.1854Z" fill="#2E2D2D"/>
<path d="M43.9109 21.9343C44.2716 20.71 44.79 19.6218 45.5339 18.6922C46.5934 17.3319 47.7656 16.6517 49.028 16.6517C50.0874 16.6517 50.6285 17.2412 50.6285 18.4428C50.6285 19.7805 49.9297 20.9594 48.5546 21.9796C47.2471 22.9545 45.6692 23.4986 43.8659 23.6346C43.8433 24.0427 43.7982 24.4281 43.7531 24.8363C43.7531 24.8816 43.7306 24.9496 43.7306 24.9949C46.2327 24.9496 48.4419 24.3148 50.3805 23.0452C52.3868 21.7529 53.3786 20.2566 53.3786 18.6015C53.3786 17.5813 53.0179 16.7651 52.2966 16.1529C51.5752 15.5408 50.6059 15.2461 49.4112 15.2461C47.1119 15.2461 45.1282 16.085 43.4375 17.74C43.7306 19.0776 43.8884 20.4833 43.9109 21.9343Z" fill="#2E2D2D"/>
<path d="M40.4375 23.9062C40.5051 23.5661 40.5502 23.226 40.5953 22.8633C40.5277 23.2033 40.4826 23.5434 40.4375 23.9062Z" fill="#2E2D2D"/>
<path d="M60.0228 18.625C58.0842 21.7537 55.9201 24.2703 53.5307 26.1974C51.1187 28.1245 48.9321 29.0767 46.9259 29.0767C44.9421 29.0767 43.815 28.0791 43.522 26.0613C43.2515 27.4217 42.8457 28.7366 42.3047 29.9836C43.2289 30.7771 44.4012 31.1625 45.8213 31.1625C48.4361 31.1625 51.1863 30.0289 54.1167 27.7844C57.0472 25.5399 59.3916 22.7059 61.2175 19.2825L60.0228 18.625Z" fill="#2E2D2D"/>
<path d="M43.094 18.0586C43.0714 18.0813 43.0489 18.1039 43.0264 18.1266C43.0038 18.1493 42.9813 18.1946 42.9587 18.2173C42.9813 18.9428 42.9587 19.691 42.8685 20.4164C42.8685 21.278 42.8009 22.1395 42.6882 23.0237C42.4177 24.9508 41.8992 26.7873 41.1328 28.4876C41.3357 28.873 41.5611 29.2131 41.8541 29.5305C41.8992 29.5758 41.9443 29.6212 42.012 29.6892C42.6657 28.1476 43.1165 26.4925 43.3645 24.7468C43.6575 22.4569 43.5448 20.2124 43.094 18.0586Z" fill="#2E2D2D"/>
<path d="M42.6705 21.7969C42.4226 23.2479 42.0168 24.6309 41.4758 25.9231C41.2955 26.6033 41.0925 27.2608 40.8672 27.8956C40.9348 28.0543 41.0024 28.213 41.07 28.3717C41.7914 26.7166 42.3099 24.9256 42.5578 23.0438C42.6029 22.6131 42.648 22.205 42.6705 21.7969Z" fill="#2E2D2D"/>
<path d="M67.9126 25.2211C68.1605 25.6745 68.2958 26.0826 68.2958 26.4227C68.2958 27.3295 67.5294 28.3498 65.9965 29.4607C64.4637 30.5716 63.066 31.1384 61.8037 31.1384C60.6766 31.1384 59.7749 30.6396 59.0761 29.6421C58.3773 28.6445 58.0166 27.3522 58.0166 25.7652C58.0166 23.9968 58.4675 21.5029 59.3917 18.2608L60.0228 15.903H57.656C56.6641 15.903 55.8751 16.039 55.2891 16.3337C55.83 15.3362 56.2809 14.7241 56.619 14.4747C56.9797 14.2253 57.5657 14.0892 58.4224 14.0892H60.5188L60.7893 13.1143C61.2176 11.6633 61.7135 10.6658 62.3222 10.1443C62.9082 9.6002 63.81 9.32812 65.0046 9.32812C65.1399 9.32812 65.3653 9.3282 65.6809 9.35083C64.9596 10.2804 64.2157 11.8674 63.4267 14.0892L70.7981 14.0666C72.0827 14.0666 73.075 13.8852 73.751 13.5451C73.5259 14.4973 73.2102 15.1321 72.8266 15.4269C72.4437 15.7216 71.7224 15.8576 70.6627 15.8803L62.8181 15.903C62.7279 16.2204 62.6603 16.4471 62.6152 16.5832C61.4881 20.4373 60.9471 23.3393 60.9471 25.3118C60.9471 27.4883 61.7361 28.5538 63.2915 28.5538C64.0805 28.5538 64.9596 28.2137 65.9064 27.5336C66.8306 26.8534 67.5068 26.0826 67.9126 25.2211Z" fill="#2E2D2D"/>
<path d="M80.4673 25.1976C80.715 25.651 80.8502 26.0591 80.8502 26.3992C80.8502 27.3061 80.0844 28.3263 78.5513 29.4372C77.0182 30.5481 75.621 31.1149 74.3583 31.1149C73.2315 31.1149 72.3298 30.6161 71.6305 29.6186C70.9319 28.6211 70.5714 27.3287 70.5714 25.7417C70.5714 23.9733 71.0225 21.4794 71.9462 18.2374L72.5775 15.8795H70.2107C69.2188 15.8795 68.4299 16.0155 67.8438 16.3103C68.3848 15.3127 68.8356 14.7005 69.1738 14.4512C69.5345 14.2018 70.1205 14.0658 70.9772 14.0658H73.0737L73.3441 13.0909C73.7723 11.6399 74.2684 10.6424 74.8771 10.1208C75.4632 9.57676 76.3649 9.30469 77.5597 9.30469C77.6949 9.30469 77.9199 9.30469 78.2356 9.3274C77.5144 10.2569 76.7705 11.8439 75.9813 14.0658L83.353 14.0431C84.6376 14.0431 85.6292 13.8617 86.3059 13.5216C86.0801 14.4738 85.7644 15.1087 85.3815 15.4034C84.9986 15.6982 84.2766 15.8342 83.2178 15.8568L75.3726 15.8795C75.2827 16.1969 75.2148 16.4236 75.1702 16.5597C74.0427 20.4138 73.5019 23.3158 73.5019 25.2883C73.5019 27.4648 74.2911 28.5304 75.8461 28.5304C76.6353 28.5304 77.5144 28.1902 78.4614 27.5101C79.3851 26.8299 80.0617 26.0591 80.4673 25.1976Z" fill="#2E2D2D"/>
<path d="M94.4054 22.1383C93.2107 24.6096 91.7455 26.718 90.01 28.4638C88.2738 30.2095 86.7414 31.071 85.4561 31.071C84.4645 31.071 83.6753 30.6403 83.0892 29.7561C82.5032 28.8719 82.1875 27.6929 82.1875 26.2193C82.1875 23.2946 83.0666 20.7101 84.8254 18.4882C86.5836 16.2664 88.6348 15.1328 90.9337 15.1328C92.3316 15.1328 93.8647 15.5636 95.5103 16.4478C95.758 15.5862 96.7277 15.1328 98.4632 15.1328C98.5757 15.1328 98.7562 15.1328 99.0039 15.1555C98.4858 15.9717 98.0796 17.0825 97.7865 18.4882L97.5615 19.6898C97.2911 21.0275 97.1559 22.5691 97.1559 24.3375C97.1559 26.378 97.6287 27.3982 98.5757 27.3982C99.59 27.3982 100.943 26.5594 102.701 24.8589C104.46 23.1586 106.15 21.0048 107.818 18.3975L108.9 19.1457C107.187 22.229 105.225 24.8136 103.016 26.8767C100.807 28.9399 98.914 29.9828 97.3137 29.9828C95.3071 29.9828 94.2929 28.3051 94.2929 24.927C94.3382 24.2695 94.3601 23.34 94.4054 22.1383ZM95.0594 18.783C93.0981 17.5133 91.4751 16.8785 90.1898 16.8785C88.7926 16.8785 87.5752 17.74 86.5383 19.4631C85.524 21.1862 85.0052 23.2266 85.0052 25.5845C85.0052 27.4662 85.6366 28.4184 86.854 28.4184C88.1839 28.4184 90.7313 25.4711 94.4734 19.5991C94.5406 19.5084 94.7211 19.2364 95.0594 18.783Z" fill="#2E2D2D"/>
<path d="M3.01319 17.8756C4.38825 7.62791 13.7657 0.463642 23.9322 1.84662C34.1212 3.2296 41.2445 12.6611 39.8695 22.886C38.4944 33.1337 29.1169 40.2979 18.9504 38.915C8.78392 37.532 1.63812 28.1232 3.01319 17.8756ZM10.3394 5.72349C6.59737 8.58011 3.95994 12.8651 3.28368 17.9209C2.60742 22.9767 4.02757 27.8058 6.86787 31.5693C9.70815 35.3328 13.9686 37.9854 18.9955 38.6656C24.0224 39.3457 28.8238 37.9174 32.5659 35.0608C36.3078 32.2041 38.9453 27.9192 39.6215 22.8634C40.2978 17.8076 38.8776 12.9784 36.0373 9.21495C33.197 5.45143 28.9366 2.79884 23.9096 2.11868C18.9053 1.43853 14.0813 2.84418 10.3394 5.72349Z" fill="#2E2D2D"/>
<path d="M1.71214 17.6952C3.17737 6.79005 13.1635 -0.85033 24.0063 0.623333C34.849 2.09699 42.4457 12.1406 40.9805 23.0457C39.5152 33.9509 29.529 41.5912 18.6863 40.1175C7.84356 38.6439 0.246899 28.6003 1.71214 17.6952ZM9.42151 4.61356C5.40905 7.67425 2.56873 12.2993 1.84738 17.7179C1.12604 23.1364 2.63637 28.3509 5.7021 32.3638C8.74528 36.3994 13.3439 39.256 18.7314 39.9815C24.119 40.707 29.3036 39.188 33.2936 36.1047C37.306 33.044 40.1464 28.4189 40.8677 23.0004C41.5891 17.5818 40.0787 12.3673 37.013 8.35443C33.9699 4.31883 29.3713 1.46219 23.9837 0.736693C18.5962 0.011195 13.4341 1.55287 9.42151 4.61356Z" fill="#2E2D2D"/>
<path d="M0.715945 18.1483C2.20372 7.17514 12.235 -0.533235 23.1679 0.963102C34.0782 2.45944 41.7426 12.5484 40.2548 23.5442C38.767 34.5173 28.7357 42.2257 17.8028 40.7294C6.89249 39.233 -0.771834 29.1214 0.715945 18.1483ZM8.62821 5.18005C4.63829 8.24073 1.82052 12.7978 1.09917 18.1937C0.377828 23.5669 1.88815 28.736 4.93133 32.7489C7.9745 36.7619 12.5055 39.5958 17.8705 40.3213C23.213 41.0468 28.3525 39.5278 32.3425 36.4671C36.3325 33.4064 39.1502 28.8494 39.8716 23.4535C40.5929 18.0803 39.0826 12.9111 36.0394 8.8982C32.9962 4.88532 28.4652 2.05135 23.1002 1.32585C17.7577 0.600355 12.6182 2.14203 8.62821 5.18005Z" fill="#2E2D2D"/>
<path d="M2.92354 19.487C4.38878 8.6272 14.3299 1.00951 25.1275 2.48318C35.9252 3.95685 43.4993 13.9551 42.034 24.8148C40.5689 35.6746 30.6278 43.2924 19.8301 41.8187C9.03246 40.345 1.45831 30.3468 2.92354 19.487ZM10.7682 6.67746C6.82333 9.69279 4.02811 14.2271 3.32931 19.5323C2.60796 24.8602 4.11826 29.9613 7.11639 33.9289C10.1145 37.8965 14.6229 40.7078 19.8977 41.4106C25.1951 42.1361 30.2671 40.6171 34.212 37.6017C38.1568 34.5864 40.952 30.052 41.6509 24.7469C42.3722 19.419 40.8619 14.3178 37.8637 10.3503C34.8657 6.38272 30.3572 3.57142 25.0824 2.8686C19.785 2.1431 14.6905 3.66211 10.7682 6.67746Z" fill="#2E2D2D"/>
<path d="M4.93309 16.2432C6.28561 6.19965 15.4828 -0.828603 25.4689 0.531706C35.455 1.89201 42.4431 11.1421 41.0906 21.1857C39.738 31.2293 30.5408 38.2576 20.5547 36.8973C10.5686 35.5143 3.58056 26.2869 4.93309 16.2432ZM12.1014 4.31788C8.44966 7.12916 5.83476 11.3235 5.18105 16.2886C4.50478 21.2311 5.90239 25.9921 8.6976 29.6649C11.4928 33.3377 15.6631 35.9677 20.5998 36.6252C25.514 37.3053 30.2478 35.8997 33.8997 33.0884C37.5515 30.2771 40.1663 26.0828 40.82 21.1176C41.4963 16.1752 40.0987 11.4142 37.3035 7.74136C34.5083 4.0685 30.338 1.43858 25.4013 0.7811C20.4871 0.100944 15.7758 1.50659 12.1014 4.31788Z" fill="#2E2D2D"/>
<path d="M4.45664 25.5611C4.09597 28.4631 5.29068 31.1384 6.32762 32.816C7.40963 34.5391 8.33387 35.4686 8.31136 35.4686C8.33387 35.446 7.1842 34.8112 5.78661 33.2015C5.0878 32.408 4.34393 31.3424 3.80292 30.0274C3.26191 28.7125 2.90124 27.0801 3.10412 25.3798C3.307 23.6793 4.11852 22.1376 5.13291 21.0948C6.16985 20.0292 7.34204 19.4397 8.33387 19.077C10.3627 18.3968 11.6701 18.4875 11.6701 18.4648C11.6926 18.4875 10.3852 18.7596 8.62696 19.7117C7.74781 20.1879 6.77846 20.8907 5.98949 21.8883C5.22306 22.8405 4.63698 24.1101 4.45664 25.5611Z" fill="#2E2D2D"/>
<path d="M35.6537 31.7515C35.6311 31.7288 43.7238 20.5516 35 9.125C46.8346 22.6374 35.6311 31.7288 35.6537 31.7515Z" fill="#2E2D2D"/>
<path d="M6.64714 5.17828C3.24329 9.00982 1.14687 14.0656 1.39483 15.6073C1.77804 13.8389 4.55073 8.98711 6.75986 6.56126C7.41358 5.83576 10.5018 3.36453 11.9896 0.394531C10.2313 2.57102 8.69851 2.88843 6.64714 5.17828Z" fill="#2E2D2D"/>
<path d="M9.75295 26.8313C9.75295 26.8086 9.77546 26.9447 9.93322 26.922C10.0685 26.922 10.2263 26.6273 10.0009 26.4459C9.82054 26.2419 9.41477 26.3326 9.23442 26.6726C9.03157 26.99 9.21191 27.4661 9.5726 27.7382C10.339 28.373 11.7366 27.5568 11.8493 26.3326C11.962 25.1309 10.9251 23.816 9.5726 23.4532C8.175 23.0678 6.82243 23.7933 5.87567 24.5869C4.9289 25.4256 4.3879 26.4686 4.16247 27.3981C3.71164 29.3025 4.29773 30.5042 4.25265 30.4814C4.29773 30.5042 3.64402 29.3252 4.02723 27.3754C4.23011 26.4232 4.74858 25.3123 5.71789 24.4055C6.19127 23.952 6.77736 23.5892 7.45362 23.3172C8.10733 23.0451 8.89631 22.9771 9.6402 23.1811C11.128 23.5892 12.2326 24.9949 12.0973 26.3779C11.9395 27.7382 10.339 28.6224 9.48243 27.8742C9.09916 27.5568 8.89631 27.0127 9.14425 26.65C9.34717 26.2872 9.82054 26.1965 10.0234 26.4459C10.2488 26.65 10.0911 26.9673 9.93322 26.9673C9.77546 26.9447 9.77546 26.8086 9.75295 26.8313Z" fill="#2E2D2D"/>
<path d="M35.2038 37.775C35.2622 37.3407 34.9595 36.941 34.5277 36.8823C34.0959 36.8235 33.6985 37.1279 33.64 37.5622C33.5816 37.9965 33.8843 38.3962 34.3161 38.455C34.7479 38.5138 35.1454 38.2093 35.2038 37.775Z" fill="#2E2D2D"/>
<path d="M1.67253 18.1657C1.73096 17.7314 1.42827 17.3317 0.996451 17.2729C0.564639 17.2141 0.167214 17.5185 0.108782 17.9529C0.050349 18.3872 0.353036 18.7869 0.78485 18.8457C1.21667 18.9044 1.61409 18.6 1.67253 18.1657Z" fill="#2E2D2D"/>
<path d="M19.3835 0.997699C19.4419 0.563397 19.1392 0.163686 18.7074 0.104917C18.2756 0.0461482 17.8782 0.350577 17.8197 0.78488C17.7613 1.21918 18.064 1.61889 18.4958 1.67766C18.9276 1.73643 19.325 1.432 19.3835 0.997699Z" fill="#2E2D2D"/>
<path d="M31.2429 40.1579C31.3013 39.7236 30.9986 39.3239 30.5668 39.2651C30.135 39.2063 29.7375 39.5107 29.6791 39.945C29.6207 40.3793 29.9233 40.7791 30.3552 40.8379C30.787 40.8966 31.1844 40.5922 31.2429 40.1579Z" fill="#2E2D2D"/>
<path d="M36.5244 36.4678C36.5695 36.1327 36.336 35.8244 36.0028 35.779C35.6698 35.7337 35.3631 35.9685 35.3181 36.3035C35.273 36.6386 35.5065 36.947 35.8396 36.9923C36.1727 37.0376 36.4793 36.8028 36.5244 36.4678Z" fill="#2E2D2D"/>
<path d="M41.3526 15.3271C41.3976 14.9921 41.1641 14.6838 40.831 14.6384C40.4979 14.5931 40.1913 14.8279 40.1462 15.1629C40.1011 15.498 40.3346 15.8063 40.6678 15.8516C41.0009 15.897 41.3075 15.6621 41.3526 15.3271Z" fill="#2E2D2D"/>
<path d="M35.5478 4.95215C35.5929 4.61712 35.3594 4.30875 35.0263 4.26341C34.6931 4.21808 34.3866 4.45294 34.3415 4.78797C34.2964 5.123 34.5299 5.43134 34.863 5.47668C35.1962 5.52201 35.5027 5.28718 35.5478 4.95215Z" fill="#2E2D2D"/>
<path d="M13.376 36.8037C13.421 36.4687 13.1875 36.1603 12.8544 36.115C12.5213 36.0696 12.2147 36.3045 12.1696 36.6396C12.1245 36.9746 12.358 37.2829 12.6912 37.3283C13.0243 37.3736 13.3309 37.1387 13.376 36.8037Z" fill="#2E2D2D"/>
<path d="M11.7086 36.0096C11.7479 35.7623 11.5805 35.5298 11.3346 35.4901C11.0888 35.4506 10.8576 35.6189 10.8182 35.8662C10.7789 36.1135 10.9463 36.346 11.1921 36.3856C11.438 36.4252 11.6692 36.2568 11.7086 36.0096Z" fill="#2E2D2D"/>
<path d="M10.1851 26.783C10.2245 26.5357 10.0571 26.3032 9.81127 26.2636C9.56539 26.224 9.33415 26.3924 9.2948 26.6396C9.25544 26.8869 9.42284 27.1194 9.66872 27.159C9.91454 27.1986 10.1458 27.0303 10.1851 26.783Z" fill="#2E2D2D"/>
<path d="M14.7024 37.6042C14.7357 37.356 14.5628 37.1276 14.316 37.094C14.0693 37.0604 13.8422 37.2344 13.8088 37.4825C13.7754 37.7308 13.9484 37.9591 14.1951 37.9927C14.4419 38.0263 14.669 37.8523 14.7024 37.6042Z" fill="#2E2D2D"/>
<path d="M37.5383 35.1822C37.5717 34.9341 37.3988 34.7057 37.152 34.6721C36.9053 34.6385 36.6781 34.8125 36.6447 35.0607C36.6114 35.3088 36.7843 35.5372 37.0311 35.5708C37.2779 35.6044 37.5049 35.4305 37.5383 35.1822Z" fill="#2E2D2D"/>
<path d="M30.9712 4.81641C30.9261 4.81641 30.9035 4.81641 30.8584 4.83908C30.7908 4.88443 30.7683 4.95244 30.7457 5.04312C30.7232 5.15649 30.8133 5.3832 30.8584 5.49656C30.9035 5.40587 31.0163 5.20183 31.0163 5.08847C31.0613 4.9071 31.0388 4.83908 30.9712 4.81641Z" fill="#2E2D2D"/>
<path d="M30.8584 5.63519L30.881 5.58984C30.881 5.58984 30.8584 5.58984 30.8359 5.58984L30.8584 5.63519Z" fill="#2E2D2D"/>
<path d="M31.1457 5.54343C31.2134 5.45275 31.3711 5.27137 31.3711 5.15801C31.3937 5.06732 31.3712 4.97664 31.3261 4.93129C31.3036 4.88595 31.2585 4.86328 31.2359 4.86328C31.2134 4.86328 31.1908 4.86327 31.1683 4.88595C31.1232 4.93129 31.1006 5.02198 31.0781 5.13533C31.0781 5.22603 31.1232 5.45275 31.1457 5.54343Z" fill="#2E2D2D"/>
<path d="M31.1709 5.63419C31.1935 5.58885 31.4414 5.33946 31.4639 5.15809C31.4865 5.04473 31.4639 4.95404 31.3963 4.88602C31.3512 4.84068 31.3061 4.81801 31.2611 4.79534C31.216 4.79534 31.1934 4.79534 31.1483 4.81801C31.1258 4.84068 31.1258 4.84068 31.1033 4.86336C31.0807 4.79534 31.0582 4.77267 30.9905 4.75C30.9455 4.75 30.8779 4.74999 30.8328 4.79534C30.7651 4.84068 30.72 4.93137 30.6975 5.04473C30.6749 5.20343 30.8328 5.52084 30.8553 5.56617C30.8779 5.58885 30.9004 5.56617 30.9229 5.56617C30.9455 5.54351 31.0131 5.40748 31.0582 5.27145C31.0807 5.40748 31.1032 5.54351 31.1258 5.58885C31.1032 5.61152 31.1258 5.63419 31.1709 5.63419ZM31.2385 4.86336C31.2836 4.86336 31.3061 4.88602 31.3287 4.93137C31.3737 4.99939 31.3963 5.0674 31.3737 5.15809C31.3512 5.27145 31.216 5.4755 31.1483 5.54351C31.1258 5.45282 31.0807 5.2261 31.1033 5.11274C31.1258 4.99938 31.1258 4.9087 31.1935 4.86336C31.1935 4.86336 31.216 4.86336 31.2385 4.86336ZM30.8779 5.52084C30.8328 5.43015 30.7426 5.20343 30.7651 5.0674C30.7877 4.97671 30.8102 4.9087 30.8779 4.86336C30.9229 4.84068 30.9455 4.81801 30.9905 4.84068C31.0582 4.84068 31.0807 4.93137 31.0582 5.11274C31.0131 5.2261 30.9229 5.43015 30.8779 5.52084Z" fill="#2E2D2D"/>
<path d="M31.125 5.67815L31.1475 5.65549C31.125 5.65549 31.125 5.65548 31.125 5.63281V5.67815Z" fill="#2E2D2D"/>
<path d="M30.9453 5.56732C30.9453 5.65801 30.9453 5.72603 30.9904 5.72603C31.0355 5.72603 31.058 5.65801 31.0806 5.59C31.0806 5.49931 31.058 5.36328 31.058 5.36328C31.058 5.36328 30.9453 5.49931 30.9453 5.56732Z" fill="#2E2D2D"/>
<path d="M30.8348 5.58882C30.8123 5.58882 30.7897 5.56615 30.7446 5.52081C30.6995 5.47547 30.6545 5.49814 30.6094 5.54348C30.632 5.52081 30.677 5.54348 30.677 5.56614C30.6545 5.56614 30.632 5.58882 30.632 5.63417C30.677 5.56615 30.7672 5.63416 30.8348 5.6115C30.8574 5.6115 30.8574 5.6115 30.8799 5.6115C30.8799 5.6115 30.8799 5.6115 30.9024 5.6115L30.925 5.58882C30.925 5.58882 30.925 5.58882 30.9024 5.6115C30.8799 5.58882 30.8799 5.58882 30.8348 5.58882Z" fill="#2E2D2D"/>
<path d="M31.3781 5.65608C31.3555 5.61073 31.3105 5.56539 31.2428 5.58806C31.1978 5.61073 31.1753 5.63341 31.1527 5.63341C31.1302 5.63341 31.1076 5.63341 31.0851 5.61074C31.0851 5.61074 31.0851 5.58806 31.0625 5.58806V5.61074C31.0625 5.61074 31.0625 5.61073 31.0851 5.63341L31.1076 5.65608C31.1752 5.67875 31.2879 5.63341 31.3105 5.72409C31.3105 5.70142 31.3105 5.65608 31.2879 5.65608C31.333 5.63341 31.3781 5.63341 31.3781 5.65608Z" fill="#2E2D2D"/>
<path d="M29.5447 3.88672C29.4996 3.88672 29.4319 3.88672 29.3869 3.93206C29.3192 4.00008 29.2516 4.09076 29.2291 4.2268C29.2065 4.38549 29.3418 4.72558 29.4094 4.83894C29.477 4.72558 29.6123 4.45351 29.6349 4.27214C29.6799 4.04542 29.6799 3.90939 29.5447 3.88672Z" fill="#2E2D2D"/>
<path d="M29.4141 4.9758L29.4366 4.95312C29.4366 4.95312 29.4141 4.95312 29.4141 4.9758Z" fill="#2E2D2D"/>
<path d="M29.7934 4.8858C29.8836 4.77245 30.109 4.50039 30.1315 4.34168C30.1541 4.22833 30.1315 4.11497 30.0639 4.02428C30.0188 3.97894 29.9738 3.95627 29.9287 3.93359C29.8836 3.93359 29.861 3.93359 29.8385 3.95627C29.7709 4.00161 29.7483 4.13764 29.7258 4.27367C29.6807 4.45504 29.7483 4.77245 29.7934 4.8858Z" fill="#2E2D2D"/>
<path d="M29.7968 4.97734C29.8193 4.95466 30.1575 4.56924 30.18 4.3652C30.2026 4.22917 30.1575 4.09314 30.0898 4.00245C30.0447 3.93443 29.9771 3.91176 29.9095 3.88909C29.8644 3.88909 29.8193 3.88909 29.7742 3.91176C29.7517 3.93443 29.7292 3.95711 29.7066 4.00245C29.6841 3.91176 29.639 3.84375 29.5489 3.84375C29.4812 3.84375 29.4136 3.84374 29.3459 3.91176C29.2558 3.97978 29.1882 4.09314 29.1657 4.22917C29.1431 4.45588 29.3685 4.90932 29.3685 4.93199C29.391 4.93199 29.4136 4.93199 29.4136 4.93199C29.4136 4.90932 29.5489 4.70528 29.6164 4.50123C29.639 4.72795 29.7066 4.95466 29.7066 4.97734C29.7517 4.97734 29.7742 4.97734 29.7968 4.97734ZM29.9095 3.93443C29.9546 3.93443 29.9997 3.97978 30.0447 4.02512C30.1124 4.09314 30.1349 4.22917 30.1124 4.34252C30.0898 4.50123 29.8644 4.77329 29.7742 4.88665C29.7517 4.75062 29.6841 4.45589 29.7066 4.29719C29.7292 4.16116 29.7517 4.02512 29.8194 3.97977C29.8419 3.9571 29.887 3.93443 29.9095 3.93443ZM29.4136 4.84131C29.3459 4.70528 29.2107 4.38787 29.2332 4.22917C29.2558 4.1158 29.3008 4.00245 29.391 3.93443C29.4361 3.88909 29.5038 3.88909 29.5489 3.88909C29.6615 3.91176 29.6841 4.04779 29.639 4.27451C29.639 4.45588 29.4812 4.72795 29.4136 4.84131Z" fill="#2E2D2D"/>
<path d="M29.5241 4.90801C29.5015 5.02137 29.5241 5.11206 29.5917 5.11206C29.6368 5.11206 29.6819 5.04404 29.7044 4.93069C29.7269 4.81733 29.6593 4.61328 29.6593 4.61328C29.6593 4.61328 29.5466 4.79466 29.5241 4.90801Z" fill="#2E2D2D"/>
<path d="M29.3937 4.90837C29.3712 4.90837 29.3261 4.8857 29.2585 4.81769C29.1909 4.77234 29.1232 4.79501 29.0781 4.84036C29.1007 4.81769 29.1683 4.84036 29.1909 4.86303C29.1683 4.86303 29.1232 4.90837 29.1232 4.95372C29.1683 4.86303 29.3036 4.95372 29.4162 4.93104H29.4388C29.4613 4.93104 29.4614 4.93104 29.4839 4.90837L29.5064 4.8857C29.5064 4.8857 29.4839 4.90837 29.4613 4.90837C29.4388 4.93104 29.4162 4.93104 29.3937 4.90837Z" fill="#2E2D2D"/>
<path d="M30.1106 4.99693C30.0656 4.92892 30.0205 4.88358 29.9529 4.92892C29.8853 4.97426 29.8402 4.97427 29.8176 4.97427C29.7951 4.97427 29.7725 4.97427 29.7725 4.9516C29.75 4.92892 29.75 4.92892 29.75 4.90625L29.7725 4.9516L29.7951 4.97427H29.8176C29.9078 4.99694 30.0656 4.9516 30.0881 5.06495C30.0881 5.01961 30.0656 4.99694 30.043 4.97427C30.0205 4.97427 30.0881 4.97426 30.1106 4.99693Z" fill="#2E2D2D"/>
<path d="M27.9476 3.20894C27.7674 3.18627 27.587 3.36764 27.5644 3.6397C27.5419 3.84375 27.7223 4.27451 27.7899 4.43321C27.8575 4.29718 28.0604 3.93444 28.0829 3.7304C28.128 3.41299 28.1055 3.23161 27.9476 3.20894Z" fill="#2E2D2D"/>
<path d="M28.2431 4.47894C28.3558 4.36559 28.6263 4.00283 28.6714 3.77612C28.7165 3.52673 28.5812 3.30002 28.4009 3.27734C28.3558 3.27734 28.3107 3.27734 28.2882 3.30001C28.198 3.36803 28.1755 3.52673 28.1529 3.70811C28.1078 3.93482 28.198 4.34291 28.2431 4.47894Z" fill="#2E2D2D"/>
<path d="M28.2409 4.5683C28.2634 4.54563 28.6916 4.06952 28.7142 3.79746C28.7593 3.50272 28.6015 3.25334 28.3986 3.23066C28.331 3.23066 28.2859 3.23066 28.2409 3.27601C28.1958 3.29868 28.1732 3.34402 28.1507 3.41203C28.1281 3.29867 28.083 3.20799 27.9478 3.18532C27.7449 3.16264 27.542 3.36669 27.4969 3.66143C27.4519 3.93349 27.7449 4.50029 27.7449 4.52296C27.7674 4.52296 27.7674 4.52296 27.79 4.52296C27.79 4.50029 27.9703 4.20555 28.0605 3.95616C28.083 4.22823 28.1732 4.5683 28.1732 4.5683C28.2183 4.5683 28.2183 4.5683 28.2409 4.5683ZM28.3986 3.27601C28.579 3.29868 28.6916 3.5254 28.6691 3.77478C28.6466 3.97883 28.3535 4.34158 28.2409 4.47761C28.1958 4.34158 28.1056 3.93349 28.1507 3.70677C28.1732 3.5254 28.2183 3.36669 28.2859 3.29867C28.3084 3.276 28.3535 3.27601 28.3986 3.27601ZM27.79 4.4096C27.7223 4.27357 27.542 3.8428 27.5646 3.61609C27.6096 3.3667 27.7674 3.16264 27.9478 3.18532C28.1056 3.20799 28.1281 3.38937 28.083 3.6841C28.0605 3.91081 27.8576 4.29624 27.79 4.4096Z" fill="#2E2D2D"/>
<path d="M27.9044 4.4768C27.8819 4.61283 27.927 4.72619 27.9721 4.74886C28.0397 4.74886 28.0848 4.65817 28.1073 4.52214C28.1298 4.38611 28.0623 4.13672 28.0623 4.13672C28.0623 4.13672 27.927 4.34077 27.9044 4.4768Z" fill="#2E2D2D"/>
<path d="M27.766 4.49857C27.7209 4.49857 27.6758 4.45322 27.6082 4.38521C27.5406 4.31719 27.4504 4.36253 27.3828 4.43055C27.4279 4.40788 27.4955 4.43055 27.518 4.45322C27.4729 4.4759 27.4504 4.49856 27.4278 4.54391C27.4955 4.43055 27.6758 4.54391 27.7885 4.52124C27.7885 4.52124 27.7885 4.52124 27.8111 4.52124C27.8336 4.52124 27.8562 4.52124 27.8562 4.49857L27.8787 4.45322C27.8787 4.45322 27.8562 4.4759 27.8111 4.4759C27.7885 4.49857 27.766 4.49857 27.766 4.49857Z" fill="#2E2D2D"/>
<path d="M28.6443 4.61238C28.5992 4.52169 28.5316 4.47635 28.4415 4.5217C28.3513 4.56704 28.2837 4.58971 28.2386 4.58971C28.216 4.58971 28.216 4.58971 28.1935 4.58971C28.1709 4.56704 28.1484 4.54436 28.1484 4.54436L28.1709 4.58971C28.1935 4.61238 28.1935 4.61238 28.216 4.63505C28.3287 4.6804 28.5316 4.61238 28.5541 4.74841C28.5541 4.70307 28.5316 4.65773 28.5091 4.63505C28.5316 4.56704 28.5992 4.56704 28.6443 4.61238Z" fill="#2E2D2D"/>
<path d="M25.8539 2.82188C25.6285 2.7992 25.4255 3.02592 25.3804 3.32065C25.3354 3.59271 25.5834 4.11416 25.651 4.27286C25.7411 4.11416 25.9891 3.66072 26.0116 3.41134C26.0567 3.07126 26.0567 2.84454 25.8539 2.82188Z" fill="#2E2D2D"/>
<path d="M26.1929 4.36506C26.3056 4.22903 26.6663 3.77559 26.7113 3.52619C26.7339 3.34482 26.6888 3.16346 26.5987 3.05009C26.531 2.98208 26.4634 2.93674 26.3732 2.91406C26.3056 2.91406 26.2606 2.91406 26.238 2.93674C26.1253 3.00475 26.1027 3.23146 26.0576 3.43551C26.0351 3.6849 26.1478 4.20635 26.1929 4.36506Z" fill="#2E2D2D"/>
<path d="M26.1888 4.4561C26.2114 4.41076 26.7299 3.84397 26.7524 3.52656C26.775 3.32251 26.7299 3.14114 26.6397 3.00511C26.572 2.91443 26.4819 2.86907 26.3918 2.84641C26.3241 2.84641 26.2565 2.84641 26.2114 2.89175C26.1663 2.93709 26.1212 2.98244 26.0987 3.07312C26.0762 2.91442 26.0311 2.80106 25.8733 2.77839C25.6253 2.73305 25.3774 3.00511 25.3323 3.34519C25.2872 3.68526 25.6253 4.36542 25.6253 4.38809V4.41077C25.6478 4.41077 25.6479 4.41077 25.6704 4.41077V4.38809C25.693 4.36542 25.8958 4.00267 26.0085 3.68526C26.0311 4.02534 26.1437 4.43343 26.1437 4.4561V4.47878C26.1663 4.4561 26.1663 4.4561 26.1888 4.4561ZM26.3692 2.89175C26.4594 2.89175 26.527 2.95977 26.5946 3.02778C26.6848 3.14114 26.7299 3.32252 26.7073 3.50389C26.6622 3.77595 26.3016 4.20671 26.1888 4.34275C26.1437 4.18404 26.0311 3.66259 26.0762 3.4132C26.0987 3.20915 26.1437 2.98244 26.2565 2.91443C26.279 2.91443 26.3241 2.89175 26.3692 2.89175ZM25.6479 4.2974C25.5802 4.13871 25.3323 3.61725 25.3774 3.34519C25.4224 3.02778 25.6253 2.80106 25.8507 2.84641C26.0536 2.86907 26.0536 3.0958 26.0085 3.43587C25.9634 3.68526 25.7155 4.13871 25.6479 4.2974Z" fill="#2E2D2D"/>
<path d="M25.7871 4.36512C25.7645 4.52382 25.8097 4.65985 25.8773 4.68252C25.9449 4.68252 26.0126 4.56917 26.0351 4.41047C26.0576 4.25176 25.9675 3.95703 25.9675 3.95703C25.9675 3.95703 25.8096 4.20642 25.7871 4.36512Z" fill="#2E2D2D"/>
<path d="M25.6296 4.38468C25.5845 4.38468 25.5169 4.33934 25.4268 4.24865C25.3366 4.15796 25.2464 4.20331 25.1562 4.294C25.2013 4.27133 25.2915 4.27132 25.3141 4.31666C25.269 4.33934 25.2239 4.38468 25.2239 4.43002C25.3141 4.27132 25.5169 4.43003 25.6748 4.40736C25.6973 4.40736 25.7198 4.38468 25.7424 4.38468L25.765 4.33934C25.7424 4.33934 25.7198 4.38468 25.6748 4.38468C25.6522 4.38468 25.6296 4.38468 25.6296 4.38468Z" fill="#2E2D2D"/>
<path d="M26.6634 4.50039C26.5957 4.4097 26.5281 4.31901 26.4154 4.38703C26.3027 4.45504 26.235 4.47771 26.1674 4.45504C26.1449 4.45504 26.1449 4.45504 26.1224 4.45504C26.0773 4.43237 26.0773 4.38703 26.0547 4.38703L26.0773 4.43237C26.0998 4.45504 26.1224 4.47771 26.1449 4.47771C26.2801 4.54573 26.5281 4.45504 26.5732 4.61374C26.5732 4.54573 26.5506 4.50039 26.5055 4.47771C26.5506 4.45504 26.6408 4.45504 26.6634 4.50039Z" fill="#2E2D2D"/>
<path d="M26.6641 4.5C26.6641 4.5 26.6641 4.52267 26.6866 4.52267C26.6866 4.52267 26.6866 4.5 26.6641 4.5Z" fill="#2E2D2D"/>
<path d="M23.4592 2.61823C23.2113 2.57288 22.9407 2.84495 22.8957 3.20769C22.8506 3.5251 23.1211 4.15991 23.2113 4.34128C23.3014 4.18258 23.5945 3.63846 23.6395 3.32105C23.7072 2.91296 23.6846 2.6409 23.4592 2.61823Z" fill="#2E2D2D"/>
<path d="M23.8475 4.41055C23.9827 4.25185 24.411 3.7304 24.4561 3.41299C24.4786 3.20894 24.4335 2.98223 24.3208 2.8462C24.2532 2.7555 24.1631 2.71017 24.0729 2.6875C24.0052 2.6875 23.9601 2.68749 23.9151 2.73284C23.8024 2.82352 23.7573 3.07291 23.7122 3.32231C23.6671 3.63971 23.8024 4.22918 23.8475 4.41055Z" fill="#2E2D2D"/>
<path d="M23.8471 4.52393C23.8922 4.47858 24.4558 3.8211 24.5234 3.43568C24.5459 3.20896 24.5008 2.98225 24.3881 2.82355C24.3204 2.71019 24.2078 2.66484 24.0951 2.64216C24.0049 2.64216 23.9372 2.64217 23.8922 2.68752C23.8246 2.73285 23.7795 2.80087 23.7569 2.91423C23.7344 2.73285 23.6667 2.57415 23.4864 2.55148C23.1934 2.50614 22.9229 2.80087 22.8552 3.20896C22.8102 3.59438 23.1934 4.3879 23.2159 4.41057V4.43323H23.2384V4.41057C23.261 4.3879 23.509 3.93446 23.6442 3.57171C23.6668 3.95713 23.802 4.47858 23.802 4.50125V4.52393C23.8246 4.52393 23.8471 4.52393 23.8471 4.52393ZM24.0725 2.68752C24.1627 2.71018 24.2529 2.75553 24.3205 2.84621C24.4332 2.98224 24.4783 3.20896 24.4557 3.413C24.4106 3.73041 23.9823 4.25187 23.8471 4.41057C23.802 4.22919 23.6667 3.61705 23.7118 3.29965C23.7344 3.05025 23.802 2.80087 23.9147 2.71019C23.9598 2.71019 24.0049 2.68752 24.0725 2.68752ZM23.2159 4.34255C23.1258 4.16117 22.8552 3.52636 22.9003 3.20896C22.9454 2.84621 23.1934 2.57415 23.4639 2.61949C23.6893 2.64216 23.7118 2.91423 23.6667 3.32232C23.5991 3.61705 23.3061 4.16117 23.2159 4.34255Z" fill="#2E2D2D"/>
<path d="M23.5954 3.97656C23.5503 4.06725 23.4376 4.2713 23.4151 4.40733C23.3925 4.56604 23.4151 4.67939 23.4601 4.72473C23.4601 4.7474 23.4827 4.7474 23.5053 4.7474C23.5504 4.7474 23.6405 4.63405 23.6631 4.45267C23.6856 4.29397 23.618 4.08992 23.5954 3.97656Z" fill="#2E2D2D"/>
<path d="M23.6231 3.82031L23.578 3.86565C23.578 3.88832 23.3751 4.18306 23.3526 4.38711C23.33 4.54581 23.3526 4.65917 23.3977 4.74986C23.4202 4.77252 23.4427 4.7952 23.4653 4.7952C23.5555 4.81786 23.6681 4.65917 23.6907 4.45512C23.7132 4.25107 23.6231 3.911 23.6231 3.911V3.82031ZM23.5104 4.72719C23.4879 4.72719 23.4878 4.72718 23.4653 4.70451C23.4202 4.65917 23.3977 4.54581 23.4202 4.38711C23.4428 4.25108 23.5329 4.04703 23.6005 3.95634C23.6231 4.0697 23.6681 4.27375 23.6681 4.40978C23.6456 4.61382 23.5555 4.74985 23.5104 4.72719Z" fill="#2E2D2D"/>
<path d="M23.1885 4.43078C23.1435 4.43078 23.0534 4.38545 22.9406 4.27209C22.8504 4.1814 22.7152 4.22674 22.625 4.31743C22.6701 4.27208 22.7828 4.29475 22.8053 4.3401C22.7603 4.36277 22.6926 4.40812 22.6926 4.47613C22.8053 4.27209 23.1209 4.54415 23.2787 4.40812L23.3238 4.36277C23.3013 4.36277 23.2787 4.40812 23.2111 4.40812C23.2111 4.43079 23.2111 4.43078 23.1885 4.43078Z" fill="#2E2D2D"/>
<path d="M24.4332 4.56961C24.3655 4.45626 24.2753 4.36557 24.1401 4.43358C24.0048 4.5016 23.9147 4.52427 23.8471 4.52427C23.8245 4.52427 23.8245 4.52427 23.8245 4.52427C23.7794 4.5016 23.7569 4.45626 23.7344 4.45626L23.7569 4.52427C23.8921 4.70565 24.2528 4.52427 24.3204 4.751C24.343 4.68298 24.2979 4.61496 24.2528 4.59229C24.2753 4.52427 24.3881 4.52427 24.4332 4.56961Z" fill="#2E2D2D"/>
<path d="M21.0722 2.48246C20.9594 2.45979 20.8467 2.50513 20.7341 2.57314C20.5762 2.6865 20.4635 2.91322 20.4184 3.16261C20.3734 3.52536 20.6889 4.25085 20.7791 4.4549C20.8692 4.27353 21.2299 3.63872 21.275 3.27597C21.3652 2.79987 21.3427 2.50513 21.0722 2.48246Z" fill="#2E2D2D"/>
<path d="M22.224 3.41307C22.2465 3.16368 22.2015 2.91429 22.0888 2.75559C21.9986 2.64223 21.9084 2.59689 21.7957 2.57422C21.7281 2.57422 21.6604 2.57421 21.5928 2.61956C21.4576 2.73291 21.39 3.00497 21.3674 3.29971C21.3223 3.66246 21.4801 4.36528 21.5252 4.56933C21.6604 4.38796 22.1789 3.77582 22.224 3.41307Z" fill="#2E2D2D"/>
<path d="M21.5003 4.66044C21.5454 4.61509 22.1991 3.86692 22.2667 3.41349C22.3118 3.1641 22.2442 2.89205 22.1089 2.71067C22.0188 2.59731 21.906 2.52929 21.7708 2.50662C21.6806 2.48395 21.5905 2.50662 21.5228 2.57464C21.4552 2.61998 21.3876 2.73334 21.3651 2.84669C21.3651 2.61998 21.2749 2.46128 21.072 2.41593C20.9368 2.39327 20.824 2.4386 20.6888 2.5293C20.5084 2.66533 20.3957 2.89205 20.3506 3.16411C20.2831 3.59487 20.7338 4.50174 20.7564 4.54708L20.7789 4.56976H20.8015L20.824 4.54708C20.8466 4.52441 21.1396 3.98029 21.2974 3.54953C21.32 4.00296 21.4777 4.59243 21.4777 4.6151V4.63777C21.4777 4.66045 21.5003 4.66044 21.5003 4.66044ZM20.8015 4.45639C20.7113 4.25235 20.3732 3.52685 20.4408 3.16411C20.4633 2.91472 20.5986 2.71067 20.7564 2.57464C20.8691 2.48395 20.9818 2.46128 21.0945 2.48396C21.3651 2.5293 21.3876 2.82403 21.32 3.27747C21.2523 3.64022 20.8917 4.27502 20.8015 4.45639ZM21.3425 3.30013C21.3876 3.0054 21.4327 2.73334 21.5679 2.61998C21.613 2.57463 21.6806 2.57464 21.7708 2.57464C21.8835 2.59731 21.9962 2.64265 22.0639 2.75601C22.1765 2.91471 22.2442 3.1641 22.1991 3.41349C22.154 3.77624 21.6356 4.38838 21.5003 4.56976C21.4777 4.36571 21.2974 3.66288 21.3425 3.30013Z" fill="#2E2D2D"/>
<path d="M21.0058 4.52383C20.9832 4.75055 21.0283 4.93192 21.1184 4.93192C21.2086 4.95459 21.2988 4.77321 21.3439 4.56917C21.3664 4.34245 21.2537 3.95703 21.2537 3.95703C21.2537 3.95703 21.0283 4.31978 21.0058 4.52383Z" fill="#2E2D2D"/>
<path d="M20.1016 4.45627L20.1241 4.43359C20.1241 4.45627 20.1016 4.45627 20.1016 4.45627Z" fill="#2E2D2D"/>
<path d="M20.7786 4.56776C20.7111 4.56776 20.6209 4.52241 20.4856 4.38638C20.3729 4.27302 20.2377 4.34104 20.125 4.4544C20.1926 4.40905 20.3053 4.43173 20.3279 4.49975C20.2602 4.52241 20.1926 4.59042 20.1926 4.65844C20.3279 4.43173 20.6885 4.72646 20.8688 4.59043L20.914 4.52242C20.8914 4.52242 20.8689 4.56776 20.8012 4.56776H20.7786Z" fill="#2E2D2D"/>
<path d="M22.1787 4.72481C22.1111 4.58878 21.9758 4.49808 21.8406 4.5661C21.6828 4.65679 21.5701 4.67945 21.5024 4.65679H21.4799C21.4123 4.63411 21.3898 4.58877 21.3672 4.5661L21.3898 4.63411C21.525 4.83816 21.9758 4.63411 22.0209 4.8835C22.0434 4.81548 21.9984 4.7248 21.9307 4.70213C21.9984 4.65679 22.1337 4.65679 22.1787 4.72481Z" fill="#2E2D2D"/>
<path d="M22.1797 4.72656L22.2022 4.74924C22.1797 4.72656 22.1797 4.72656 22.1797 4.72656Z" fill="#2E2D2D"/>
<path d="M18.3658 3.00405C18.0277 2.95871 17.7121 3.29879 17.6445 3.77489C17.5994 4.18299 17.96 5.02184 18.0727 5.24856C18.1855 5.04451 18.5687 4.34169 18.6363 3.91092C18.6814 3.38948 18.6814 3.0494 18.3658 3.00405Z" fill="#2E2D2D"/>
<path d="M18.8656 5.36277C19.0234 5.1814 19.6095 4.47857 19.6546 4.07048C19.7222 3.59438 19.4968 3.16361 19.1587 3.11827C19.0685 3.0956 19.0009 3.11827 18.9333 3.16362C18.7755 3.27698 18.7078 3.59437 18.6627 3.91178C18.6177 4.34254 18.8206 5.15872 18.8656 5.36277Z" fill="#2E2D2D"/>
<path d="M18.839 5.47666L18.8615 5.45398C18.8841 5.40864 19.628 4.56979 19.6956 4.07101C19.7632 3.57223 19.5153 3.1188 19.1546 3.05078C19.0419 3.0281 18.9517 3.05078 18.8841 3.11879C18.7939 3.18681 18.7488 3.30017 18.7037 3.4362C18.7037 3.1868 18.6136 2.98276 18.3656 2.93742C18.0049 2.89208 17.6442 3.25482 17.5767 3.75359C17.509 4.25238 18.0049 5.24994 18.0275 5.29528L18.05 5.31795H18.0725L18.0951 5.29528C18.1177 5.27261 18.4783 4.66047 18.6361 4.16169C18.6587 4.68315 18.839 5.3633 18.839 5.38597V5.47666ZM19.1546 3.11879C19.4927 3.16414 19.7181 3.5949 19.6505 4.07101C19.6054 4.4791 19.0193 5.18192 18.8615 5.36329C18.8164 5.15925 18.6136 4.34307 18.6812 3.93498C18.7263 3.61757 18.7939 3.30016 18.9517 3.1868C18.9968 3.11879 19.0644 3.11879 19.1546 3.11879ZM18.05 5.24993C17.9598 5.04589 17.5767 4.20703 17.6217 3.77627C17.6893 3.30017 18.0049 2.96009 18.343 3.00543C18.6587 3.05078 18.6587 3.39085 18.5911 3.9123C18.5685 4.34307 18.1627 5.06856 18.05 5.24993Z" fill="#2E2D2D"/>
<path d="M18.2791 5.3145C18.2565 5.56389 18.3016 5.76793 18.4143 5.7906C18.527 5.81327 18.6398 5.60923 18.6623 5.38251C18.6849 5.13312 18.5721 4.67969 18.5721 4.67969C18.5721 4.67969 18.3242 5.06511 18.2791 5.3145Z" fill="#2E2D2D"/>
<path d="M17.2891 5.24924L17.3116 5.22656C17.2891 5.22656 17.2891 5.24924 17.2891 5.24924Z" fill="#2E2D2D"/>
<path d="M18.0486 5.36217C17.9809 5.36217 17.8682 5.31684 17.7105 5.15813C17.5752 5.0221 17.4174 5.11279 17.3047 5.22614C17.3724 5.1808 17.5075 5.20347 17.5301 5.27149C17.4625 5.29416 17.3949 5.36217 17.3723 5.45286C17.5075 5.1808 17.9359 5.54355 18.1387 5.36217L18.1838 5.29416C18.1838 5.29416 18.1388 5.36217 18.0486 5.36217Z" fill="#2E2D2D"/>
<path d="M19.6094 5.54297C19.6094 5.56564 19.632 5.56563 19.632 5.58831C19.6094 5.56563 19.6094 5.54297 19.6094 5.54297Z" fill="#2E2D2D"/>
<path d="M19.6049 5.54175C19.5147 5.38305 19.3794 5.26968 19.2217 5.36037C19.0413 5.47373 18.9286 5.47373 18.8384 5.47373H18.8159C18.7482 5.45106 18.7257 5.38305 18.7031 5.38305L18.7257 5.45106C18.8835 5.67777 19.3794 5.45106 19.447 5.74579C19.4696 5.65511 19.4245 5.56442 19.3568 5.54175C19.4019 5.45106 19.5372 5.47374 19.6049 5.54175Z" fill="#2E2D2D"/>
<path d="M15.4594 3.68394C15.279 3.66127 15.0987 3.72928 14.9409 3.88799C14.7831 4.04668 14.6704 4.27341 14.6478 4.54547C14.5802 5.02157 15.0085 5.95112 15.1212 6.17783C15.2339 5.97379 15.6848 5.1576 15.7524 4.6815C15.8201 4.1147 15.7975 3.72928 15.4594 3.68394Z" fill="#2E2D2D"/>
<path d="M15.997 6.3149C16.1548 6.13352 16.8085 5.34001 16.8761 4.86391C16.9437 4.34245 16.6958 3.86635 16.3125 3.821C16.2223 3.79833 16.1322 3.821 16.0646 3.88901C15.9068 4.02504 15.8166 4.31978 15.7716 4.72788C15.7265 5.18131 15.9519 6.08818 15.997 6.3149Z" fill="#2E2D2D"/>
<path d="M16.0267 6.3803C16.0718 6.33496 16.8832 5.40542 16.9734 4.8613C17.0411 4.29451 16.7706 3.79572 16.3648 3.75038C16.252 3.7277 16.1619 3.75038 16.0718 3.8184C15.9816 3.88641 15.9139 4.02244 15.8463 4.20381C15.8463 3.90908 15.7562 3.68236 15.4631 3.63702C15.2602 3.61435 15.0573 3.68236 14.8995 3.86374C14.7417 4.04511 14.6291 4.27183 14.584 4.54389C14.5163 5.08801 15.0573 6.2216 15.0799 6.26695L15.1024 6.31229C15.1024 6.31229 15.1024 6.31229 15.1249 6.31229L15.1475 6.26695C15.17 6.2216 15.5758 5.54144 15.7336 4.99732C15.7562 5.56412 15.959 6.33496 15.9816 6.3803V6.42565C15.9816 6.42565 15.9816 6.42565 16.0041 6.42565L16.0267 6.3803ZM16.3422 3.8184C16.7255 3.86374 16.9734 4.33985 16.9058 4.8613C16.8382 5.33741 16.1844 6.13092 16.0267 6.31229C15.959 6.08557 15.7562 5.1787 15.8237 4.7026C15.8688 4.2945 15.959 3.97709 16.1168 3.86374C16.1619 3.81839 16.2521 3.79572 16.3422 3.8184ZM15.1024 6.19894C14.9897 5.97221 14.5614 5.02 14.6291 4.56656C14.6741 4.31717 14.7643 4.06778 14.9221 3.90908C15.0799 3.75038 15.2602 3.68237 15.4405 3.70504C15.7787 3.75038 15.8012 4.1358 15.7336 4.72527C15.6886 5.15603 15.2377 5.97221 15.1024 6.19894Z" fill="#2E2D2D"/>
<path d="M15.3657 6.26847C15.3206 6.54053 15.3883 6.76725 15.5009 6.78992C15.6136 6.81259 15.7489 6.60854 15.7715 6.31381C15.8165 6.04175 15.6587 5.54297 15.6587 5.54297C15.6587 5.54297 15.3882 5.9964 15.3657 6.26847Z" fill="#2E2D2D"/>
<path d="M14.2422 6.17892C14.2422 6.15625 14.2647 6.15625 14.2647 6.15625L14.2422 6.17892Z" fill="#2E2D2D"/>
<path d="M14.7165 6.06243C14.5812 5.9264 14.4009 5.99441 14.2656 6.13044C14.3333 6.0851 14.4911 6.10778 14.5361 6.17579C14.4685 6.19846 14.3784 6.28915 14.3784 6.37984C14.5361 6.0851 14.9869 6.47052 15.2349 6.28915L15.28 6.22114C15.2575 6.22114 15.2124 6.28915 15.1222 6.28915C15.1222 6.28915 15.1222 6.28915 15.0997 6.28915C15.0095 6.28915 14.8968 6.24381 14.7165 6.06243Z" fill="#2E2D2D"/>
<path d="M16.8359 6.49609C16.8359 6.51877 16.8584 6.51877 16.8584 6.54144C16.8359 6.51877 16.8359 6.51877 16.8359 6.49609Z" fill="#2E2D2D"/>
<path d="M16.5651 6.4722C16.6101 6.42686 16.768 6.42686 16.8356 6.49487C16.7454 6.33617 16.5876 6.20014 16.4299 6.29083C16.2044 6.40419 16.0917 6.42686 16.0015 6.40418C16.0015 6.40418 16.0015 6.40418 15.979 6.40418C15.8888 6.38151 15.8663 6.29083 15.8438 6.29083L15.8663 6.38151C16.0466 6.6309 16.5876 6.38151 16.6552 6.69892C16.6778 6.60823 16.6327 6.51754 16.5651 6.4722Z" fill="#2E2D2D"/>
<path d="M12.2129 5.20265C11.8072 5.15731 11.4014 5.5654 11.3113 6.15487C11.2436 6.67631 11.717 7.71921 11.8297 7.96858C11.9424 7.74192 12.4609 6.83502 12.5285 6.33624C12.6187 5.65609 12.5961 5.248 12.2129 5.20265Z" fill="#2E2D2D"/>
<path d="M12.8231 8.08306C13.0033 7.87904 13.7247 6.9948 13.7923 6.47335C13.86 5.88389 13.5895 5.36244 13.1837 5.31709C13.071 5.29443 12.9808 5.31709 12.9132 5.38511C12.7329 5.52114 12.6427 5.86122 12.5976 6.31465C12.5075 6.8361 12.7554 7.85633 12.8231 8.08306Z" fill="#2E2D2D"/>
<path d="M12.8224 8.17369C12.8674 8.12835 13.7691 7.10811 13.8593 6.49597C13.9495 5.88383 13.6338 5.33971 13.2056 5.27169C13.0703 5.24903 12.9801 5.27169 12.89 5.33971C12.7773 5.4304 12.7096 5.56643 12.642 5.77048C12.642 5.4304 12.5518 5.18101 12.2362 5.13566C11.7854 5.06765 11.3571 5.52108 11.2669 6.13322C11.1767 6.74536 11.7854 7.96967 11.808 8.01495L11.8305 8.06029L11.853 8.01495C11.8755 7.96967 12.3264 7.1988 12.5068 6.60933C12.5293 7.24414 12.7547 8.10564 12.7773 8.15099L12.7998 8.19633L12.8224 8.17369ZM13.1831 5.31705C13.5888 5.36239 13.8818 5.88383 13.7916 6.4733C13.724 6.99475 12.9801 7.87898 12.8224 8.083C12.7547 7.83364 12.5293 6.83605 12.5969 6.3146C12.6645 5.86117 12.7322 5.52109 12.9125 5.38506C12.9801 5.33971 13.0703 5.31705 13.1831 5.31705ZM11.8305 7.94697C11.7178 7.6976 11.2444 6.65468 11.312 6.13322C11.3797 5.54375 11.7854 5.113 12.2137 5.18101C12.5969 5.22636 12.6194 5.65712 12.5293 6.29192C12.4617 6.83605 11.9657 7.74295 11.8305 7.94697Z" fill="#2E2D2D"/>
<path d="M12.0998 8.01537C12.0548 8.31015 12.1224 8.58223 12.2577 8.58223C12.3929 8.60487 12.5281 8.37814 12.5507 8.06072C12.5958 7.766 12.438 7.19922 12.438 7.19922C12.438 7.19922 12.1449 7.72066 12.0998 8.01537Z" fill="#2E2D2D"/>
<path d="M11.4021 7.80947C11.2444 7.65079 11.064 7.74149 10.9062 7.90016C10.9964 7.83218 11.1542 7.87745 11.1993 7.94551C11.1091 7.96814 11.0189 8.05883 11.0189 8.17223C11.1993 7.85481 11.6952 8.28556 11.9657 8.08154L12.0333 7.99085C12.0108 7.99085 11.9657 8.05883 11.853 8.05883C11.7403 8.05883 11.6051 8.01349 11.4021 7.80947Z" fill="#2E2D2D"/>
<path d="M10.8828 7.94769C10.9053 7.92498 10.9053 7.92505 10.9278 7.90234C10.9053 7.92505 10.8828 7.92498 10.8828 7.94769Z" fill="#2E2D2D"/>
<path d="M13.4296 8.26192C13.4973 8.19387 13.655 8.21658 13.7227 8.28456C13.6099 8.10318 13.4522 7.96714 13.2718 8.08054C13.0239 8.21658 12.8886 8.23921 12.7985 8.21658C12.6857 8.19387 12.6632 8.10318 12.6406 8.10318L12.6632 8.19387C12.8661 8.46594 13.4522 8.19387 13.5424 8.534C13.5649 8.4206 13.4973 8.30727 13.4296 8.26192Z" fill="#2E2D2D"/>
<path d="M8.99008 7.33459C8.53922 7.26661 8.08843 7.7427 7.99825 8.37747C7.93059 8.94426 8.44905 10.1005 8.5618 10.3499C8.69706 10.1232 9.23802 9.12564 9.32819 8.55886C9.39586 8.06005 9.41837 7.69736 9.2606 7.49327C9.21551 7.40258 9.12534 7.35723 8.99008 7.33459Z" fill="#2E2D2D"/>
<path d="M9.6641 10.5082C9.84445 10.3042 10.6559 9.32933 10.7235 8.76247C10.8137 8.1277 10.4982 7.56092 10.0473 7.49286C9.93462 7.47022 9.82187 7.49286 9.75428 7.56092C9.55142 7.71959 9.46118 8.08236 9.39359 8.58116C9.32592 9.14795 9.59644 10.2588 9.6641 10.5082Z" fill="#2E2D2D"/>
<path d="M9.66791 10.5976C9.713 10.5522 10.7049 9.41864 10.795 8.76109C10.8852 8.08097 10.5696 7.49148 10.0737 7.42349C9.93843 7.40079 9.82568 7.4235 9.7355 7.51419C9.60032 7.60488 9.53265 7.78626 9.46506 8.01299C9.46506 7.78626 9.41997 7.60488 9.3298 7.46884C9.2622 7.37815 9.14945 7.31009 9.01419 7.28746C8.51824 7.21947 8.06745 7.71821 7.97728 8.37568C7.8871 9.03316 8.54082 10.3708 8.58591 10.4388L8.60842 10.4842L8.63099 10.4388C8.65357 10.3935 9.14945 9.53197 9.3523 8.87449C9.37488 9.5546 9.62282 10.5295 9.6454 10.5748L9.66791 10.6202V10.5976ZM10.0511 7.49148C10.502 7.55953 10.8176 8.12632 10.7274 8.76109C10.6597 9.32795 9.84825 10.3028 9.66791 10.5069C9.60032 10.2574 9.3298 9.14656 9.41997 8.57978C9.48756 8.08097 9.57774 7.71821 9.78066 7.55953C9.84826 7.49148 9.93843 7.46884 10.0511 7.49148ZM8.58591 10.3481C8.47316 10.0988 7.93219 8.94247 8.02236 8.37568C8.11254 7.74091 8.54082 7.26482 9.01419 7.3328C9.12694 7.35544 9.21705 7.40079 9.28471 7.49148C9.44248 7.69557 9.41997 8.05826 9.3523 8.55707C9.26213 9.12385 8.72117 10.1215 8.58591 10.3481Z" fill="#2E2D2D"/>
<path d="M8.8809 10.4396C8.83582 10.757 8.90341 11.0518 9.06125 11.0745C9.19651 11.0971 9.35427 10.8477 9.39936 10.5077C9.44445 10.1903 9.2641 9.57812 9.2641 9.57812C9.2641 9.57812 8.92599 10.0996 8.8809 10.4396Z" fill="#2E2D2D"/>
<path d="M8.11135 10.2119C7.931 10.0531 7.72815 10.1438 7.57031 10.3026C7.66049 10.2345 7.84083 10.2798 7.88592 10.3705C7.79574 10.3932 7.70557 10.5066 7.68306 10.6199C7.88592 10.2572 8.42695 10.7333 8.6974 10.5066L8.76507 10.4159C8.74256 10.4159 8.67489 10.5066 8.56221 10.5066C8.47204 10.4839 8.33678 10.4159 8.11135 10.2119Z" fill="#2E2D2D"/>
<path d="M7.54688 10.35C7.56938 10.3274 7.56938 10.3274 7.59196 10.3047C7.56938 10.3047 7.54688 10.3274 7.54688 10.35Z" fill="#2E2D2D"/>
<path d="M10.3166 10.6905C10.3842 10.6224 10.5646 10.6451 10.6322 10.7131C10.5195 10.5091 10.3392 10.3731 10.1363 10.4864C9.86579 10.6224 9.70795 10.6451 9.61777 10.6224C9.50509 10.5998 9.48259 10.5091 9.4375 10.4864L9.48259 10.5998C9.68544 10.8945 10.3392 10.5771 10.4293 10.9852C10.4744 10.8492 10.4068 10.7358 10.3166 10.6905Z" fill="#2E2D2D"/>
<path d="M10.6328 10.7109C10.6328 10.7336 10.6553 10.7336 10.6553 10.7563C10.6553 10.7563 10.6553 10.7336 10.6328 10.7109Z" fill="#2E2D2D"/>
<path d="M6.07896 14.2038C6.21421 13.9543 6.82283 12.8661 6.913 12.254C7.02572 11.4832 6.98064 10.9843 6.52979 10.9164C6.03387 10.8483 5.5605 11.3471 5.47033 12.0499C5.38016 12.6847 5.96624 13.9543 6.07896 14.2038Z" fill="#2E2D2D"/>
<path d="M6.08362 14.338L6.10616 14.2927C6.1287 14.2473 6.69225 13.2951 6.89513 12.5922C6.91768 13.3404 7.18816 14.3834 7.21074 14.4514L7.23325 14.4967L7.27833 14.4514C7.32342 14.406 8.40542 13.1817 8.49559 12.4789C8.58577 11.7534 8.24765 11.1186 7.70662 11.0279C7.57136 11.0052 7.43617 11.0279 7.32342 11.1186C7.18816 11.2319 7.09799 11.4133 7.03038 11.6628C7.03038 11.2547 6.94021 10.9372 6.557 10.8692C6.03853 10.8012 5.52006 11.3226 5.4299 12.0482C5.33972 12.751 6.03853 14.2246 6.08362 14.27V14.338ZM6.53446 10.9372C6.98531 11.0052 7.00783 11.4814 6.91767 12.2749C6.8275 12.887 6.21887 13.9753 6.08362 14.2246C5.94837 13.9525 5.38482 12.7056 5.475 12.0708C5.56516 11.368 6.03854 10.8692 6.53446 10.9372ZM7.68411 11.0959C8.18006 11.164 8.49566 11.7761 8.40549 12.4789C8.31532 13.091 7.43617 14.1566 7.23325 14.3834C7.16565 14.1113 6.8726 12.9097 6.96277 12.2749C7.03039 11.7307 7.12056 11.3453 7.346 11.164C7.45868 11.0959 7.57136 11.0733 7.68411 11.0959Z" fill="#2E2D2D"/>
<path d="M7.25634 14.3623C7.43669 14.1356 8.33835 13.0701 8.42852 12.4579C8.51869 11.7777 8.20309 11.1429 7.70714 11.0749C7.57188 11.0522 7.4592 11.0749 7.36902 11.1429C7.14359 11.3017 7.05345 11.7097 6.98583 12.2538C6.89566 12.8887 7.18868 14.0902 7.25634 14.3623Z" fill="#2E2D2D"/>
<path d="M6.41798 14.2733C6.37289 14.6361 6.46307 14.9308 6.59832 14.9535C6.75612 14.9761 6.91391 14.7041 6.95899 14.3414C7.00407 13.9786 6.82374 13.3438 6.82374 13.3438C6.82374 13.3438 6.46306 13.9332 6.41798 14.2733Z" fill="#2E2D2D"/>
<path d="M5.58612 14.046C5.40578 13.8647 5.18034 13.978 5 14.1367C5.09017 14.0687 5.29305 14.1141 5.33813 14.2048C5.22542 14.2274 5.13526 14.3408 5.11272 14.4768C5.31559 14.0914 5.90169 14.6129 6.21728 14.3634L6.28492 14.2728C6.23983 14.2501 6.12713 14.5448 5.58612 14.046Z" fill="#2E2D2D"/>
<path d="M4.95312 14.1821C4.97567 14.1594 4.97565 14.1594 4.9982 14.1367C4.9982 14.1594 4.97567 14.1594 4.95312 14.1821Z" fill="#2E2D2D"/>
<path d="M7.97802 14.5661C8.04569 14.4981 8.24854 14.4981 8.31613 14.5888C8.18095 14.362 8.0006 14.2034 7.77517 14.3394C7.12145 14.7021 7.09887 14.362 7.03125 14.362L7.07635 14.4754C7.3018 14.7928 8.02311 14.4527 8.11328 14.8835C8.13586 14.7474 8.06819 14.6114 7.97802 14.5661Z" fill="#2E2D2D"/>
<path d="M8.3125 14.5898C8.3125 14.6125 8.33501 14.6352 8.33501 14.6352C8.33501 14.6352 8.33501 14.6125 8.3125 14.5898Z" fill="#2E2D2D"/>
<path d="M4.23745 18.7144C4.3727 18.4651 5.04896 17.2861 5.13913 16.606C5.25184 15.7671 5.22929 15.2457 4.73336 15.1776C4.19235 15.1096 3.67389 15.6538 3.58372 16.4019C3.47101 17.0821 4.10219 18.4424 4.23745 18.7144Z" fill="#2E2D2D"/>
<path d="M4.23357 18.8518L4.25611 18.8065C4.27865 18.7612 4.88727 17.7183 5.11268 16.9701C5.13523 17.7636 5.42827 18.9198 5.45082 18.9652L5.47338 19.0105L5.51845 18.9652C5.56354 18.9198 6.71319 17.6049 6.82591 16.8341C6.93862 16.0632 6.55538 15.3604 5.99183 15.2924C5.83404 15.2697 5.69881 15.2924 5.58609 15.3831C5.42829 15.4964 5.33812 15.7005 5.2705 15.9725C5.2705 15.5191 5.18032 15.1563 4.75202 15.111C4.18847 15.043 3.64745 15.6098 3.53474 16.3806C3.42203 17.1515 4.18848 18.7158 4.23357 18.7838V18.8518ZM4.70695 15.179C5.20287 15.247 5.2254 15.7685 5.11268 16.6073C5.02252 17.2875 4.3688 18.4664 4.21101 18.7158C4.07575 18.4437 3.44457 17.0608 3.53474 16.4033C3.66999 15.6551 4.18848 15.111 4.70695 15.179ZM5.94676 15.3377C6.48777 15.4057 6.8259 16.0859 6.73574 16.8114C6.64556 17.4915 5.67626 18.6251 5.47338 18.8745C5.40576 18.6025 5.09015 17.2875 5.18033 16.6073C5.24795 16.0178 5.36067 15.6098 5.58609 15.4284C5.69881 15.3604 5.81151 15.3377 5.94676 15.3377Z" fill="#2E2D2D"/>
<path d="M5.4732 18.8966C5.67608 18.6698 6.64538 17.5135 6.73554 16.8334C6.82572 16.0853 6.48758 15.4278 5.94657 15.3597C5.81132 15.3371 5.67608 15.3597 5.5859 15.4504C5.36049 15.6318 5.24776 16.0625 5.18013 16.6293C5.08997 17.2869 5.40557 18.6018 5.4732 18.8966Z" fill="#2E2D2D"/>
<path d="M4.99649 17.8555C4.90632 18.0141 4.63583 18.4902 4.61329 18.785C4.5682 19.1704 4.65838 19.4651 4.79364 19.4878C4.92889 19.5105 5.08668 19.2611 5.15431 18.853C5.17684 18.5583 5.06412 18.0369 4.99649 17.8555Z" fill="#2E2D2D"/>
<path d="M5.02396 17.7188L4.97886 17.7641C4.95631 17.7867 4.59564 18.3989 4.55055 18.7843C4.50547 19.1924 4.59564 19.5324 4.77597 19.5551C4.95631 19.5778 5.13665 19.2831 5.20428 18.875C5.24936 18.4896 5.06904 17.8094 5.04649 17.7867L5.02396 17.7188ZM4.79854 19.4872C4.66329 19.4645 4.57311 19.1924 4.61819 18.7843C4.66327 18.4896 4.91123 18.0135 5.00139 17.8548C5.04648 18.0362 5.18175 18.5576 5.13667 18.8523C5.09159 19.2604 4.91125 19.5098 4.79854 19.4872Z" fill="#2E2D2D"/>
<path d="M3.01562 18.6938C3.03817 18.6711 3.03815 18.6711 3.0607 18.6484C3.03815 18.6484 3.03817 18.6711 3.01562 18.6938Z" fill="#2E2D2D"/>
<path d="M3.69369 18.5334C3.49081 18.3294 3.26537 18.4427 3.0625 18.6468C3.17521 18.5787 3.37808 18.6241 3.42316 18.7148C3.31045 18.7601 3.19775 18.8508 3.19775 18.9868C3.42316 18.5787 4.05435 19.1229 4.39248 18.8508L4.46012 18.7374C4.3925 18.7601 4.25724 19.0775 3.69369 18.5334Z" fill="#2E2D2D"/>
<path d="M6.26439 19.0775C6.33202 19.0095 6.55743 19.0095 6.62506 19.1002C6.48981 18.8734 6.28694 18.6921 6.03898 18.8281C5.34017 19.2136 5.29509 18.8508 5.25 18.8508L5.29507 18.9641C5.54304 19.3042 6.30947 18.9415 6.42217 19.4176C6.44472 19.2815 6.35456 19.1455 6.26439 19.0775Z" fill="#2E2D2D"/>
<path d="M6.625 19.125C6.625 19.1476 6.64754 19.1703 6.64754 19.193C6.67008 19.1476 6.64754 19.1476 6.625 19.125Z" fill="#2E2D2D"/>
</g>
<defs>
<clipPath id="clip0_3884_25584">
<rect width="109" height="42" fill="white"/>
</clipPath>
</defs>
</svg>
