<svg width="103" height="48" viewBox="0 0 103 48" fill="none" xmlns="http://www.w3.org/2000/svg">
<g clip-path="url(#clip0_3884_25551)">
<path d="M36.5216 27.9048V28.0271C36.5216 38.7208 28.3376 47.3734 18.2808 47.3734C8.22459 47.3734 0 38.68 0 27.9863V0.4375H36.5216V27.9048Z" fill="#2E2D2D"/>
<path d="M13.7982 35.1338C13.7576 35.0522 13.6763 34.9706 13.6356 34.889C13.6763 34.889 13.8802 34.889 13.9208 34.8075C13.9238 34.9281 13.8798 35.0451 13.7982 35.1338ZM16.8111 32.3586C16.7298 32.1546 16.5266 31.9507 16.4447 31.7467C16.2415 31.9908 16.0383 32.2362 15.793 32.4402C15.793 32.481 16.3227 32.3586 16.8111 32.3586ZM12.9027 35.4601C12.9434 35.3377 12.984 35.2562 13.0653 35.1338C12.9434 35.1746 12.8214 35.2154 12.7402 35.1338C12.7402 35.2562 12.8214 35.3785 12.9027 35.4601ZM15.7125 32.5217C15.5898 32.6033 15.5086 32.6849 15.3866 32.7665C15.7346 32.8486 16.0967 32.8486 16.4447 32.7665C16.2415 32.6849 15.9164 32.6033 15.7125 32.5217ZM23.8964 33.6646C23.8544 33.5422 23.7738 33.3791 23.6925 33.2975C23.5318 33.3406 23.3823 33.4086 23.2441 33.5014C23.4473 33.5422 23.6932 33.583 23.8964 33.6646ZM8.99363 29.5426C9.07491 29.5426 9.19683 29.665 9.23747 29.7057C9.23747 29.6242 9.23747 29.5018 9.27811 29.4202C9.19683 29.461 9.07491 29.5018 8.99363 29.5426ZM9.31945 30.6032C9.2377 30.692 9.1937 30.8093 9.19683 30.9302C9.27811 30.8894 9.40003 30.8486 9.52264 30.8486C9.40073 30.8078 9.36009 30.7262 9.31945 30.6032ZM20.1085 34.1133C19.9866 34.1949 19.9053 34.3173 19.8233 34.4396C19.946 34.4396 20.0265 34.5219 20.1898 34.5627C20.1085 34.3988 20.1492 34.2357 20.1085 34.1133ZM11.7214 35.1338C11.6401 35.093 11.5581 35.0522 11.4761 34.9706C11.4362 35.093 11.4362 35.1746 11.4362 35.297C11.516 35.2193 11.6141 35.1631 11.7214 35.1338ZM11.233 34.1949C11.1924 34.1949 11.1517 33.8278 11.1517 33.8278C11.0363 33.9063 10.95 34.0211 10.9065 34.1541C11.0291 34.1541 11.1097 34.1541 11.233 34.1949ZM23.3253 29.8689C23.4066 30.1544 23.6098 30.3992 23.8544 30.5624C23.7324 30.1952 23.6091 29.8689 23.4879 29.5011C23.2847 29.0932 22.9183 28.7668 22.4698 28.6853C22.7956 29.0524 23.0815 29.4603 23.3253 29.8689ZM18.7646 30.2768C19.2936 30.1952 19.7007 29.7873 19.1311 29.257C19.1717 29.6242 19.0085 29.9913 18.7646 30.2768ZM18.113 30.5216C18.642 30.3176 19.171 29.9097 18.5607 29.2978C18.5607 29.7465 18.3989 30.1952 18.1123 30.5216M17.5419 30.6439C17.9084 30.6439 18.4787 30.0321 17.9483 29.5834C17.9483 29.9913 17.8264 30.3584 17.5419 30.6439ZM27.5175 32.6033C27.5625 32.6883 27.6262 32.7619 27.7038 32.8184C27.7814 32.875 27.8708 32.913 27.9653 32.9297C27.8433 33.052 27.6801 33.1336 27.5168 33.1744C27.5582 33.4199 27.6801 33.7462 27.72 34.0324C27.7614 34.3173 27.6394 34.6443 27.1104 34.6443C27.1579 34.8069 27.1434 34.9813 27.0698 35.1338C27.0277 35.2154 26.9065 35.2562 26.7846 35.2154C26.744 35.1746 26.7033 35.1338 26.7033 35.0522C26.6613 34.889 26.7033 34.7259 26.744 34.562C26.3775 34.6851 26.4588 35.0522 26.2955 35.2154C26.2143 35.3377 26.0517 35.3785 25.8891 35.297C25.8471 35.2562 25.8072 35.2562 25.8072 35.2154C25.6446 35.0114 25.7259 34.6035 26.2136 34.6035C25.8884 34.4804 25.5619 34.3995 25.4407 34.8075C25.2781 34.7667 25.1969 34.6851 25.1555 34.5212C25.1969 33.787 26.2556 34.562 26.4588 34.0317C26.5401 33.7462 26.4994 33.4199 26.2955 33.1744C26.0517 32.9297 25.7259 32.7665 25.4001 32.6849C24.7484 32.5625 24.1788 32.1546 23.8123 31.6236C23.5568 31.2017 23.326 30.7663 23.12 30.3176C23.0009 30.061 22.8112 29.8439 22.5732 29.692C22.3352 29.5401 22.0589 29.4597 21.7768 29.4603C21.3019 29.5365 20.8458 29.7028 20.4329 29.9505L18.4381 30.9703C18.5194 31.0934 18.6007 31.1742 18.7233 31.2565C18.478 31.2565 18.2748 31.2565 18.031 31.1749C18.031 31.3381 18.0716 31.5013 18.1123 31.6644C17.949 31.7052 16.7684 31.8276 16.4426 31.6236C16.5245 31.5013 16.6058 31.3789 16.6458 31.2565C17.5833 31.2565 18.9265 30.8078 19.4555 30.0321C18.6413 30.6032 17.7038 30.9302 16.7277 31.0519C16.7277 30.8479 16.7277 30.6439 16.6465 30.44C16.4839 31.7868 14.9368 32.6849 14 33.5415C14.4064 33.5415 14.8142 33.1744 15.1806 32.8889C15.3026 33.052 15.4252 33.2159 15.587 33.3791C15.4252 33.4199 15.2213 33.3791 15.0587 33.2975C14.6432 33.551 14.2225 33.7958 13.7968 34.0317C14 34.5627 13.6335 34.8475 13.2264 34.3988C13.1452 34.6028 13.0232 35.0107 12.6967 34.9706C12.2903 34.889 12.6561 34.3173 12.7787 34.1548C12.4529 34.2357 12.2084 34.5212 12.2084 34.8483C11.6387 35.1338 11.3535 34.6851 11.5567 34.3581C11.6387 34.1949 11.8825 34.1949 12.1677 34.0725C11.8825 34.0317 11.5981 33.9501 11.3535 34.1949C11.1503 33.7054 11.6387 33.7054 12.0458 33.787C12.6154 33.8686 12.9006 33.583 13.2264 33.1751L13.8781 32.3171C14.4477 31.95 14.8142 31.3381 14.8955 30.6439C15.14 30.7262 15.4252 30.767 15.7097 30.6854C15.5465 30.3423 15.5036 29.954 15.5877 29.5834C15.669 29.8281 15.8729 29.9913 16.1174 30.0729C16.28 29.461 16.809 29.2155 17.0942 28.6853L17.2575 29.134C17.867 28.7668 18.3561 28.2366 18.6007 27.5832C18.7639 27.7872 19.0071 27.9503 19.2929 27.9503V27.5832C19.5375 27.7464 19.8219 27.7872 20.1071 27.7872L19.8619 27.42C20.5955 27.3384 21.3683 27.2569 22.102 27.2569C23.16 27.2161 24.1788 27.3792 25.1555 27.8279C25.6446 28.0727 26.9472 28.4813 27.1917 27.624C27.3136 27.1345 26.9465 26.889 26.5807 26.6443C26.0923 26.3995 25.604 26.1548 25.1555 25.8693C25.1969 25.7877 25.2375 25.7469 25.2375 25.6653C25.9291 25.9916 26.7846 26.2772 27.3136 26.8483C27.5988 27.2161 27.5988 27.7464 27.273 28.0727C26.8245 28.5221 26.0517 28.4806 25.4813 28.3997C25.8072 28.5629 26.0517 28.8484 26.1736 29.2155C26.0111 29.2155 25.8072 29.1748 25.6446 29.134C25.5626 28.93 25.4414 28.7668 25.3188 28.6037L25.3594 28.8076C25.4001 29.134 25.4407 29.4603 25.4407 29.7873C25.4407 30.236 25.4813 30.6847 25.522 31.1341C25.5577 31.387 25.6595 31.6259 25.8168 31.8266C25.9742 32.0273 26.1817 32.1827 26.4181 32.277C26.5807 32.3178 26.744 32.3586 26.8659 32.4402C26.9878 32.5217 26.9878 32.6033 26.9878 32.7257C26.9071 32.9449 26.895 33.1836 26.9533 33.4099C27.0115 33.6361 27.1372 33.8391 27.3136 33.9916C27.1508 33.6049 27.1083 33.1779 27.1917 32.7665C27.273 32.5217 27.1511 32.277 26.9065 32.1546C26.744 32.1138 26.5807 32.0315 26.4181 31.9908C25.8478 31.746 25.7665 31.2565 25.6852 30.7255C25.6446 30.44 25.6852 30.1137 25.6446 29.8281C25.6446 29.6242 25.6446 29.4603 25.604 29.2563C25.7665 29.4603 25.9704 29.6242 26.1736 29.7873H25.7252C26.0517 30.0321 26.2143 30.236 26.4588 30.44C26.2955 30.44 26.133 30.3584 26.0104 30.2768C25.9693 30.5118 25.9772 30.7527 26.0334 30.9845C26.0896 31.2163 26.1929 31.4339 26.3369 31.6236C26.5807 31.9092 26.8659 31.9092 27.2323 31.95C27.5988 31.9908 27.3543 32.4402 27.9246 32.4402C27.8725 32.4952 27.8091 32.5382 27.7388 32.5664C27.6686 32.5945 27.5931 32.6071 27.5175 32.6033ZM26.744 35.4601L26.9878 35.7049C26.9878 35.5825 27.0284 35.5009 27.0698 35.3785C27.0277 35.4601 26.9065 35.5009 26.744 35.4601ZM27.6394 35.0522C27.7207 34.9706 27.7207 34.8483 27.7207 34.7259C27.6394 34.8075 27.5582 34.8483 27.4769 34.8483L27.6394 35.0522ZM10.051 28.7261C10.0089 28.6445 9.80572 28.6037 9.80572 28.6037C9.84706 28.6853 9.84706 28.8076 9.8877 28.8892C9.84706 28.8076 9.96898 28.7668 10.051 28.7261ZM25.6446 35.4193C25.6446 35.5417 25.6446 35.6641 25.7259 35.7864C25.8072 35.6641 25.8478 35.6641 25.9704 35.6233C25.8072 35.6233 25.6852 35.5417 25.6446 35.4193ZM21.4917 35.5417C21.5323 35.7049 21.5729 35.8279 21.6949 35.9496C21.7768 35.8272 21.8175 35.7049 21.8981 35.5825C21.7768 35.6233 21.6136 35.6233 21.4917 35.5417ZM22.5497 35.093C22.6317 35.2154 22.713 35.297 22.7529 35.4193C22.8755 35.2562 22.8349 35.2562 22.9169 35.093C22.7979 35.1344 22.6686 35.1344 22.5497 35.093ZM20.7994 35.4193C20.5962 35.3785 20.5142 35.3377 20.4736 35.2154C20.4329 35.3377 20.4329 35.5009 20.4329 35.6233C20.5955 35.5417 20.5955 35.4601 20.7994 35.4193ZM24.993 34.7259C24.871 34.8075 24.871 34.9298 24.8304 35.0114C24.9117 34.9706 25.0336 35.0114 25.1149 35.0114C25.0742 34.9298 25.0336 34.8075 24.993 34.7259ZM23.2413 31.4605C22.3465 31.8276 22.713 32.6441 23.4445 32.8073C22.9981 32.3586 22.8349 32.1546 23.2413 31.4605ZM23.5271 34.0317C23.2013 33.9501 22.8755 33.9909 22.591 34.1949C23.1607 34.6443 22.8349 35.1746 22.1839 34.8068C22.102 35.297 21.7768 35.4608 21.6136 35.3785C21.2065 35.093 21.5729 34.8483 21.7355 34.6851C21.6103 34.6861 21.4885 34.7258 21.3866 34.7988C21.2846 34.8718 21.2076 34.9745 21.1658 35.093C20.7588 35.3785 20.4329 34.9706 20.5549 34.7259C20.6361 34.6035 20.7994 34.5219 21.1252 34.5627C20.7588 34.2765 20.6368 34.3173 20.3923 34.5212C20.3337 34.4614 20.3008 34.3808 20.3008 34.2969C20.3008 34.2129 20.3337 34.1324 20.3923 34.0725C20.429 34.0337 20.4731 34.0027 20.5221 33.9816C20.5711 33.9605 20.6238 33.9496 20.6771 33.9496C20.7304 33.9496 20.7832 33.9605 20.8322 33.9816C20.8811 34.0027 20.9253 34.0337 20.962 34.0725C21.3697 34.2765 21.6136 34.2765 21.8581 33.9093C21.98 33.7054 22.102 33.5014 22.1839 33.2975C22.3059 32.9297 22.102 32.7665 21.7768 32.6033C21.3697 32.3994 21.0439 32.073 20.88 31.6236C20.9213 31.2157 21.1252 30.8078 21.4917 30.5624C21.6949 30.3584 21.8581 30.1544 21.98 29.9097C22.713 29.9913 23.0794 30.9295 23.4052 31.7052C23.0794 32.277 23.2833 32.4402 23.6904 32.7672C23.8936 32.9297 23.8936 33.0112 23.6498 33.1336C22.9575 33.3791 22.3871 33.9501 22.2246 34.6851C22.4925 34.2942 22.8068 33.9376 23.1607 33.6231L23.2826 33.7462C23.4052 33.8278 23.4851 33.9093 23.5271 34.0317ZM11.1503 31.0934C11.2722 31.2565 11.3942 31.4197 11.5567 31.5828C11.5093 31.3271 11.4821 31.0679 11.4754 30.8078C11.3129 30.7663 11.1503 30.6847 11.069 30.5216C11.5981 30.6439 12.4123 30.8078 13.0639 30.5216C13.1045 30.1544 13.0218 29.7873 13.0639 29.3787C12.3716 29.7057 11.6387 29.9097 10.8651 29.9505C10.7425 29.9097 10.662 29.9097 10.58 29.7873C10.4987 29.6242 10.4581 29.4195 10.4174 29.2563C10.3754 29.134 10.3354 29.0116 10.2542 28.8892C10.1729 28.8484 9.84706 28.9708 9.92834 29.0524C10.0916 29.2563 10.2135 29.5011 10.2135 29.7465C10.0944 29.5911 9.94025 29.4652 9.76508 29.3787C9.35869 29.2155 9.35869 29.7057 9.43996 29.9505C9.64316 29.8689 9.8884 29.9097 10.0916 29.9913C9.52124 30.0729 9.27741 30.6847 9.76578 30.7255C9.96898 30.6847 10.1722 30.6439 10.3354 30.5216C10.4174 31.2157 10.5386 31.3381 11.1503 31.0934ZM19.5375 25.3791C19.4968 25.8285 19.4149 26.5219 19.9439 26.6851C19.7813 26.3588 19.7407 25.9508 19.7407 25.5837C19.6594 25.5422 19.6187 25.4192 19.5375 25.3791ZM13.7148 28.1958C13.6335 28.3589 13.5523 28.5221 13.5116 28.7261C13.6742 28.7668 13.7961 28.7261 13.9594 28.6853C13.8788 28.9357 13.8377 29.1972 13.8374 29.4603C14.4891 29.5426 14.8955 28.8892 15.0587 28.3181C14.8135 28.6853 14.4884 28.9708 14.1219 29.134C14.2039 28.7668 14.3664 28.4405 14.5703 28.1142C14.3664 28.2366 14.1626 28.3589 13.9187 28.4405C14.1219 28.0326 14.4477 27.6648 14.8548 27.3785C14.2032 27.4608 14.0813 27.6247 13.7148 28.1958ZM15.3026 28.8484C14.7735 29.0932 14.4477 29.6242 14.3664 30.1952C14.2445 29.9913 14.1212 29.7873 14.0406 29.5426C13.9187 30.1544 14 30.3992 14.529 30.6032C14.5703 29.9505 14.8548 29.3379 15.3026 28.8484ZM16.6871 26.2772C15.9948 26.6035 15.5471 27.3384 15.5471 28.1135C15.9952 27.8751 16.4066 27.5728 16.7684 27.2161L16.6465 27.6648C16.9723 27.5832 17.2575 27.4608 17.5013 27.2161C17.5827 27.5511 17.5827 27.9008 17.5013 28.2359C17.9497 27.5832 17.8271 27.3792 17.6645 26.6042C17.4614 26.8082 17.3387 27.0937 17.0129 27.2161L17.2575 26.1541C16.8411 26.6998 16.3472 27.1813 15.7916 27.5832C15.9542 27.0937 16.4433 26.6443 16.6871 26.2772ZM17.0129 24.8488C16.795 25.0079 16.6108 25.2089 16.471 25.4401C16.3313 25.6713 16.2387 25.9281 16.1987 26.1956C17.0536 25.9101 17.6239 25.1758 17.7052 24.277C17.4982 24.8018 17.1447 25.2556 16.6871 25.5837C16.7684 25.3383 16.9316 25.0935 17.0129 24.8488ZM17.5833 22.7262C17.7458 23.2572 17.5412 23.7882 17.1348 24.1138C17.5013 24.0323 17.7458 23.9099 17.8271 23.5428C17.8677 23.2572 17.7865 22.9302 17.5833 22.7262ZM18.7233 21.7064C18.5365 21.7533 18.3658 21.8501 18.2295 21.9866C18.0932 22.1231 17.9962 22.2941 17.949 22.4815C18.1123 22.3183 18.3155 22.1552 18.56 22.0736C18.6007 22.3591 18.6413 22.6039 18.6007 22.8894C18.8452 22.5631 18.9265 22.0743 18.7233 21.7064ZM18.3975 23.4204C18.4787 23.9099 18.3568 24.4001 18.1123 24.808C18.8046 24.604 18.8046 23.9099 18.3975 23.4204ZM18.9265 24.5632C18.4812 24.9699 18.1571 25.4926 17.9904 26.0732C17.9483 25.7469 17.9483 25.3791 18.031 25.0534C17.5826 25.7061 17.6645 26.0732 17.9084 26.7259C18.2748 26.0324 18.56 25.2567 18.9265 24.5632ZM15.8729 24.1954C16.2793 24.4409 16.9723 24.1546 16.4426 23.4612C16.5652 24.0323 16.3613 24.1546 15.8729 24.1954ZM16.3213 22.3999C16.3213 22.5223 16.3613 22.6446 16.4426 22.6446C16.5243 22.6446 16.5652 22.5631 16.5652 22.3999C16.5652 22.2367 16.5243 22.1552 16.4426 22.1552C16.3613 22.1959 16.3213 22.3183 16.3213 22.3999ZM13.6335 28.8892C13.3883 28.93 13.1045 29.0116 12.9006 28.8484C13.1856 28.6037 13.3892 28.3179 13.5116 27.9911C13.6414 27.614 13.8658 27.2768 14.1633 27.0121C14.4071 26.889 14.6516 26.8082 14.8955 26.6851C14.8142 26.8483 14.5703 26.9713 14.447 27.093C15.4252 27.4608 15.7916 27.1345 15.9135 26.318C15.8274 26.483 15.7062 26.6271 15.5585 26.74C15.4108 26.8529 15.2402 26.9319 15.0587 26.9713C15.2213 26.7259 15.3439 26.4403 15.3026 26.1548C14.9368 26.3995 14.2852 26.9706 13.8374 26.7259C13.9187 26.7259 14.1219 26.5627 14.2039 26.5219C14.4477 26.318 14.6923 26.1548 14.9774 26.0324C15.3026 25.9508 15.669 25.8693 16.0355 25.8693C15.7104 25.7877 15.3838 25.7061 15.0994 25.5422C15.5478 25.4606 15.9136 25.2159 16.1987 24.8488C16.9723 24.7672 17.2168 24.3586 17.2168 23.5828C17.0942 23.9507 17.0536 24.1954 16.7684 24.4001C16.5652 24.5224 16.28 24.604 16.0355 24.604C15.6291 24.6856 15.1806 24.6856 15.3439 24.1138V24.073C15.5471 24.1138 15.7916 24.1138 15.9955 24.1138C16.3206 24.073 16.6465 23.9915 16.5652 23.5835C16.5245 23.4204 16.362 23.298 16.1581 23.298C15.9128 23.3388 15.7097 23.3796 15.4658 23.4204C15.372 23.3612 15.2984 23.2749 15.2546 23.1728C15.2108 23.0707 15.1989 22.9576 15.2206 22.8486C15.3026 22.6446 15.5471 22.5631 15.7104 22.4815C15.3439 22.3591 15.2213 22.6446 15.0587 22.6446C15.0181 22.6039 15.0181 22.6039 15.0181 22.5631C15.1806 22.3999 15.3845 22.2775 15.5877 22.1959C15.7909 22.1144 16.0362 22.0736 16.2394 22.0736C16.3206 22.0736 16.4426 22.0328 16.5245 21.992C16.5652 22.1959 16.7277 22.3183 16.9309 22.3591C16.7277 22.5223 16.6058 22.767 16.5652 23.0118C16.809 22.7262 17.0536 22.4815 17.3794 22.2775C17.42 22.6039 17.0129 22.767 16.809 22.8486C17.4607 23.1348 17.5833 22.6446 17.4607 22.2367C17.1458 22.2041 16.8411 22.1069 16.5652 21.9512C16.6871 21.8696 16.809 21.7873 16.9716 21.7472C17.2981 21.665 17.6646 21.7057 17.9904 21.8281C17.9483 21.9512 17.9483 22.0736 17.9483 22.1959C18.0691 22.0347 18.2221 21.9005 18.3976 21.8021C18.573 21.7036 18.767 21.643 18.9671 21.6242C19.089 22.0321 19.0484 22.4407 18.9265 22.8486C19.089 22.7262 19.2117 22.6446 19.2523 22.4407C19.4555 22.6446 19.6587 22.8486 19.7407 23.1348C19.8633 23.3388 20.0258 23.5428 20.2704 23.6243C19.8633 23.9507 19.3735 23.2572 19.2117 22.971C19.2523 23.502 19.3742 23.7875 19.8633 23.9507C20.0665 24.4409 20.0665 25.0527 20.5149 25.5422C19.7 25.4606 19.618 24.5632 19.171 24.1546C19.1304 24.604 18.9678 25.0527 18.7639 25.4606C19.0484 25.3383 19.2523 25.0935 19.3336 24.808C19.3742 24.8896 19.4148 25.0119 19.4555 25.0935C19.3742 25.5422 19.171 25.9508 18.8858 26.318C18.7965 26.0983 18.7684 25.8583 18.8046 25.6238C18.7084 25.7976 18.6546 25.9917 18.6475 26.1903C18.6404 26.389 18.6803 26.5865 18.7639 26.7667C19.0078 26.5627 19.2117 26.3588 19.3735 26.114L19.5767 26.5627C19.5767 26.8483 19.6594 27.1345 19.7407 27.3785C19.586 27.2633 19.4491 27.1259 19.3343 26.9706C19.2922 27.1746 19.2117 27.3384 19.171 27.5424C18.9678 27.3384 18.7639 27.1345 18.6819 26.8483C18.56 27.2161 18.4381 27.5832 18.2335 27.9102C18.0716 28.1951 17.8271 28.4405 17.5419 28.6445C17.42 28.2773 17.2575 27.9503 17.0935 27.5832V27.7464C16.9006 27.8589 16.7231 27.9961 16.5652 28.1543C16.6058 27.9503 16.6465 27.7464 16.7684 27.5832C16.1581 27.9503 16.28 28.3589 16.4019 28.93C16.6051 28.5629 16.8504 28.1951 17.0942 27.8279C17.0942 28.1951 16.9316 28.5629 16.7277 28.8484C16.4834 29.0524 16.28 29.2974 16.1174 29.5834C15.9542 29.4195 15.8323 29.1755 15.669 28.9715C15.4252 29.3794 15.3845 29.9097 15.5065 30.3584C15.2678 30.3233 15.0428 30.2247 14.8548 30.0729C14.7735 30.6847 14.7329 31.2973 14.2445 31.7868V31.4197C14.3258 30.9302 14.3664 30.6439 13.9187 30.3176C14.1219 30.7255 14.0406 31.1749 13.7968 31.5421C13.8721 31.1063 13.844 30.6589 13.7148 30.236L13.3484 30.44C13.3077 30.1422 13.3077 29.8403 13.3484 29.5426C13.4186 29.3147 13.5143 29.0955 13.6335 28.8892ZM23.1607 25.5837C23.3639 25.5837 23.5271 25.6238 23.731 25.6646C23.8123 25.5422 23.8936 25.4606 24.0162 25.3791L23.8936 25.2567C23.7531 25.2359 23.6097 25.2557 23.4799 25.3136C23.3502 25.3715 23.2395 25.4651 23.1607 25.5837ZM15.4252 23.8283C15.4658 23.7467 15.4658 23.6651 15.5471 23.5835C15.5094 23.6039 15.4673 23.6145 15.4245 23.6145C15.3817 23.6145 15.3396 23.6039 15.3019 23.5835L15.4252 23.8283ZM21.0026 23.7875C21.6542 24.4409 22.4684 24.9304 23.3639 25.1343C23.4459 25.0935 23.5671 25.0527 23.6498 25.0119C23.4459 24.9712 23.2833 24.8488 23.0794 24.808C22.6005 24.6428 22.1478 24.409 21.7355 24.1138C21.4373 23.9436 21.1965 23.688 21.0439 23.3796C20.8407 23.0933 20.9213 22.6446 21.2065 22.4407C21.3045 22.365 21.4229 22.3206 21.5464 22.3134C21.6698 22.3061 21.7926 22.3362 21.8988 22.3999C21.9394 22.3591 21.98 22.2775 22.0207 22.2367C20.8807 21.7465 20.351 23.0933 21.0026 23.7875ZM24.6265 25.1343C24.5021 25.0703 24.4002 24.9694 24.3346 24.8454C24.2691 24.7214 24.2431 24.5802 24.2601 24.4409C23.8936 24.604 23.8936 25.0119 24.3413 25.2975L24.8304 25.5014C24.6672 25.5014 24.5046 25.5422 24.3413 25.5422C24.0569 25.583 23.731 25.9101 23.9749 26.2364C24.0162 25.7061 24.7484 26.0324 24.993 25.7061C25.1149 25.4606 24.7477 25.2567 24.6265 25.1343ZM13.0232 30.8486C12.7381 30.8894 12.4935 30.9302 12.2084 30.8894C12.4529 31.0118 12.6974 31.0934 12.9413 31.1749C12.9413 31.0526 12.9826 30.971 13.0232 30.8486ZM10.58 31.4605C10.4174 31.4197 10.4174 31.4197 10.3768 31.2973C10.3531 31.3572 10.3445 31.4219 10.3516 31.4859C10.3586 31.5499 10.3813 31.6112 10.4174 31.6644C10.4581 31.5013 10.4987 31.5421 10.58 31.4605ZM13.471 31.2565C13.5119 31.0819 13.5119 30.9001 13.471 30.7255L12.9819 31.1749C13.1452 31.2157 13.3077 31.2565 13.471 31.2565ZM12.0864 30.9302L11.5574 30.8486C11.6387 31.1341 11.8825 31.3789 12.167 31.5013V31.4197C12.1271 31.2565 12.0864 31.0933 12.0864 30.9302ZM22.5098 22.2775C22.3871 22.3183 22.2645 22.4407 22.1839 22.5631C22.1433 22.767 22.2246 23.0118 22.1433 23.2164C22.3871 23.1756 22.5098 22.8085 22.591 22.6046C22.591 23.0526 22.713 23.4612 22.9974 23.7875C22.9575 23.502 22.8755 23.2164 22.7942 22.9302C23.1198 23.3381 23.5271 23.6241 24.0162 23.7882V23.7467C23.731 23.4204 23.4459 23.0934 23.0794 22.8486C23.4052 22.971 23.9342 23.2164 24.3007 22.9302C23.9784 22.8545 23.6742 22.7159 23.4052 22.5223C23.0794 22.3183 22.8755 22.1144 22.5098 22.2775ZM25.9291 12.1965V14.0743H28.2904V13.0939H27.884V12.1958L25.9291 12.1965ZM29.4717 30.2768C29.553 30.9302 29.6343 31.6236 29.6343 32.277H31.5892L31.5471 30.2768H29.4717ZM24.0996 12.482H23.0409V14.1144H24.0989V12.482M25.1983 7.3395V9.74759H31.7125V7.3395H30.5318V8.7679H29.0254V7.34021H27.8447V8.7679H26.3383V7.34021L25.1983 7.3395ZM6.02135 19.0121H9.64526V17.0942H6.10333L6.02135 19.0121ZM30.9796 10.0739H25.9312V11.9517H27.9267V10.7273H28.9847V11.951H30.9803L30.9796 10.0739ZM8.99503 25.8693H5.81815L5.77751 27.7872H8.342C8.50596 27.1345 8.70916 26.4811 8.99363 25.8693H8.99503ZM5.65629 32.2763H7.61119V32.1954C7.65113 31.5421 7.69177 30.9295 7.81439 30.2768H5.69623L5.65629 32.2763ZM28.579 35.0114H32.0803V32.5625H28.6603L28.579 35.0114ZM5.12728 35.0114H8.66922L8.5473 32.5625H5.08594V35.0114H5.12728ZM13.9208 12.482H12.8628V14.1144H13.9208V12.482ZM31.4287 25.8693H28.2939C28.579 26.4811 28.7822 27.1345 28.9455 27.7872H31.4694L31.4287 25.8693ZM29.3113 28.0727H29.0268C29.1487 28.4806 29.23 28.8892 29.3113 29.2971V28.0727ZM28.9861 13.0946H28.579V14.0743H30.9403V12.1965H28.9455L28.9861 13.0946ZM15.1827 4.89062V7.29871H22.0634V4.89062H20.8414V6.36052H19.2537V4.93071H17.9911V6.35911H16.4033V4.93142H15.182L15.1827 4.89062ZM9.28021 13.0946H8.87241V14.0743H11.2337V12.1965H9.23817L9.27951 13.0946M31.7945 14.8901L31.957 14.3598H5.32977L5.49303 14.8901H31.7945ZM6.22524 12.1965V14.0743H8.58654V13.0939H8.18014V12.1958L6.22524 12.1965ZM11.2337 10.0739H6.22524V11.9517H8.22078V10.7273H9.27881V11.951H11.2743V10.0739H11.2337ZM5.45169 7.3395V9.78838H11.9666V7.3803H10.8266V8.80869H9.32015V7.381H8.1381V8.80869H6.63164V7.381H5.45239L5.45169 7.3395ZM15.8344 14.1151H18.4402V12.1965H15.8337L15.8344 14.1151ZM21.4118 12.1965H18.7254V14.1151H21.4132V12.1965H21.4118ZM20.5976 9.78838H19.1738V10.9312H18.1151V9.78838H16.6899V11.9109H20.5983L20.5976 9.78838ZM21.4125 9.78838H20.8828V11.9109H21.4125V9.78838ZM21.4125 7.62504H18.766V8.56465H19.1724V9.50355H21.4125V7.62504ZM15.8344 11.9109H16.3634V9.78838H15.8344V11.9109ZM18.0737 8.56394H18.4801V7.62504H15.8344V9.50285H18.0737V8.56394ZM8.26142 28.0741H7.9356V29.5018C8.01688 29.0123 8.1388 28.5636 8.26142 28.0741ZM29.3099 19.2991H25.5647V21.217H29.3106L29.3099 19.2991ZM27.6415 21.4617V23.3803H31.3467L31.3061 21.4617H27.6415ZM31.428 25.5837L31.3467 23.6658H29.5551V25.5844L31.428 25.5837ZM29.5957 15.1756V16.8087H31.1835L31.1428 15.1756H29.5957ZM25.2795 21.217V19.2984L22.837 19.3392C23.6555 19.9072 24.4314 20.5348 25.1583 21.217H25.2795ZM27.3564 17.0942H23.2448V19.0121H27.3578V17.0942H27.3564ZM27.6415 19.0121H31.2655L31.2248 17.0942H27.6822V19.0121H27.6415ZM29.5964 19.2984V21.2163H31.3061L31.2655 19.2984H29.5964ZM29.3106 25.583V23.6651H27.1525C27.5196 24.277 27.8861 24.9304 28.1706 25.5837L29.3106 25.583ZM31.5499 29.9913L31.5093 28.0727H29.5964V29.9913H31.5499ZM25.2802 15.1756H21.2899V16.8087H25.2802V15.1756ZM15.7531 19.2984C16.6892 18.8082 17.626 18.4003 18.6434 18.1147C21.9415 19.3799 24.9544 21.5426 26.8273 24.6448C28.1306 26.9713 28.8222 29.6242 28.9035 32.277H29.3519C29.3099 31.5828 29.2699 30.8894 29.1886 30.236C28.619 26.2772 26.7054 22.5631 23.4886 20.155C21.9821 19.0529 20.3538 18.1963 18.6028 17.6245C15.4273 18.7266 12.5769 20.5629 10.622 23.3796L10.4188 23.6651C8.83823 26.2633 7.96772 29.2336 7.89496 32.277H8.38334C8.5466 29.1755 9.32015 26.114 11.1111 23.5421C12.3331 21.788 13.9208 20.3589 15.7531 19.2984ZM26.95 23.3796H27.3564V21.461H25.4435C25.9668 22.0835 26.4692 22.7234 26.95 23.3796ZM25.5654 16.8087H29.3106V15.1756H25.5654V16.8087ZM11.762 21.461H9.8898V23.3796H10.2563C10.7047 22.7262 11.233 22.0736 11.762 21.461ZM5.81885 25.583H7.65113V23.6651H5.85879L5.81815 25.5837L5.81885 25.583ZM11.6821 19.2984H7.9349V21.2163H11.6807V19.2984H11.6821ZM5.94147 21.2163H7.65113V19.2984H5.98141L5.94147 21.2163ZM11.6821 15.1756H7.9349V16.8087H11.6807V15.1756H11.6821ZM7.65113 28.0727H5.73827L5.69623 29.9913H7.65113V28.0727ZM9.60603 21.4617H5.94147L5.90083 23.3796H9.64597V21.461H9.60533L9.60603 21.4617ZM15.957 15.1756H11.9673V16.8087H15.957V15.1756ZM14.4099 19.2984H11.9673V21.2163H12.0486C12.7509 20.4784 13.5445 19.8339 14.4099 19.2984ZM16.2422 16.8087H21.0061V15.1756H16.2415V16.8087M10.0923 23.6644H7.9342V25.583H9.07421C9.40003 24.9297 9.72584 24.277 10.0923 23.6644ZM18.6014 17.2975C19.9046 17.7462 21.1658 18.3173 22.3472 19.0114H22.9582V17.0935H14.2873V19.0114H14.8569C16.0456 18.3169 17.3002 17.7427 18.6021 17.2975M6.10333 15.1756L6.06269 16.8087H7.65043V15.1756H6.10333ZM14.0021 17.0942H9.8891V19.0121H14.0021V17.0942Z" fill="#FBFBF9"/>
<path d="M13.7982 35.1338C13.7576 35.0522 13.6763 34.9706 13.6356 34.889C13.6763 34.889 13.8802 34.889 13.9208 34.8075C13.9238 34.9281 13.8798 35.0451 13.7982 35.1338ZM16.8111 32.3586C16.7298 32.1546 16.5266 31.9507 16.4447 31.7467C16.2415 31.9908 16.0383 32.2362 15.793 32.4402C15.793 32.481 16.3227 32.3586 16.8111 32.3586ZM12.9027 35.4601C12.9434 35.3377 12.984 35.2562 13.0653 35.1338C12.9434 35.1746 12.8214 35.2154 12.7402 35.1338C12.7402 35.2562 12.8214 35.3785 12.9027 35.4601ZM15.7125 32.5217C15.5898 32.6033 15.5086 32.6849 15.3866 32.7665C15.7346 32.8486 16.0967 32.8486 16.4447 32.7665C16.2415 32.6849 15.9164 32.6033 15.7125 32.5217ZM23.8964 33.6646C23.8544 33.5422 23.7738 33.3791 23.6925 33.2975C23.5318 33.3406 23.3823 33.4086 23.2441 33.5014C23.4473 33.5422 23.6932 33.583 23.8964 33.6646ZM8.99363 29.5426C9.07491 29.5426 9.19683 29.665 9.23747 29.7057C9.23747 29.6242 9.23747 29.5018 9.27811 29.4202C9.19683 29.461 9.07491 29.5018 8.99363 29.5426ZM9.31945 30.6032C9.2377 30.692 9.1937 30.8093 9.19683 30.9302C9.27811 30.8894 9.40003 30.8486 9.52264 30.8486C9.40073 30.8078 9.36009 30.7262 9.31945 30.6032ZM20.1085 34.1133C19.9866 34.1949 19.9053 34.3173 19.8233 34.4396C19.946 34.4396 20.0265 34.5219 20.1898 34.5627C20.1085 34.3988 20.1492 34.2357 20.1085 34.1133ZM11.7214 35.1338C11.6401 35.093 11.5581 35.0522 11.4761 34.9706C11.4362 35.093 11.4362 35.1746 11.4362 35.297C11.516 35.2193 11.6141 35.1631 11.7214 35.1338ZM11.233 34.1949C11.1924 34.1949 11.1517 33.8278 11.1517 33.8278C11.0363 33.9063 10.95 34.0211 10.9065 34.1541C11.0291 34.1541 11.1097 34.1541 11.233 34.1949ZM23.3253 29.8689C23.4066 30.1544 23.6098 30.3992 23.8544 30.5624C23.7324 30.1952 23.6091 29.8689 23.4879 29.5011C23.2847 29.0932 22.9183 28.7668 22.4698 28.6853C22.7956 29.0524 23.0815 29.4603 23.3253 29.8689ZM18.7646 30.2768C19.2936 30.1952 19.7007 29.7873 19.1311 29.257C19.1717 29.6242 19.0085 29.9913 18.7646 30.2768ZM18.113 30.5216C18.642 30.3176 19.171 29.9097 18.5607 29.2978C18.5607 29.7465 18.3989 30.1952 18.1123 30.5216M17.5419 30.6439C17.9084 30.6439 18.4787 30.0321 17.9483 29.5834C17.9483 29.9913 17.8264 30.3584 17.5419 30.6439ZM27.5175 32.6033C27.5625 32.6883 27.6262 32.7619 27.7038 32.8184C27.7814 32.875 27.8708 32.913 27.9653 32.9297C27.8433 33.052 27.6801 33.1336 27.5168 33.1744C27.5582 33.4199 27.6801 33.7462 27.72 34.0324C27.7614 34.3173 27.6394 34.6443 27.1104 34.6443C27.1579 34.8069 27.1434 34.9813 27.0698 35.1338C27.0277 35.2154 26.9065 35.2562 26.7846 35.2154C26.744 35.1746 26.7033 35.1338 26.7033 35.0522C26.6613 34.889 26.7033 34.7259 26.744 34.562C26.3775 34.6851 26.4588 35.0522 26.2955 35.2154C26.2143 35.3377 26.0517 35.3785 25.8891 35.297C25.8471 35.2562 25.8072 35.2562 25.8072 35.2154C25.6446 35.0114 25.7259 34.6035 26.2136 34.6035C25.8884 34.4804 25.5619 34.3995 25.4407 34.8075C25.2781 34.7667 25.1969 34.6851 25.1555 34.5212C25.1969 33.787 26.2556 34.562 26.4588 34.0317C26.5401 33.7462 26.4994 33.4199 26.2955 33.1744C26.0517 32.9297 25.7259 32.7665 25.4001 32.6849C24.7484 32.5625 24.1788 32.1546 23.8123 31.6236C23.5568 31.2017 23.326 30.7663 23.12 30.3176C23.0009 30.061 22.8112 29.8439 22.5732 29.692C22.3352 29.5401 22.0589 29.4597 21.7768 29.4603C21.3019 29.5365 20.8458 29.7028 20.4329 29.9505L18.4381 30.9703C18.5194 31.0934 18.6007 31.1742 18.7233 31.2565C18.478 31.2565 18.2748 31.2565 18.031 31.1749C18.031 31.3381 18.0716 31.5013 18.1123 31.6644C17.949 31.7052 16.7684 31.8276 16.4426 31.6236C16.5245 31.5013 16.6058 31.3789 16.6458 31.2565C17.5833 31.2565 18.9265 30.8078 19.4555 30.0321C18.6413 30.6032 17.7038 30.9302 16.7277 31.0519C16.7277 30.8479 16.7277 30.6439 16.6465 30.44C16.4839 31.7868 14.9368 32.6849 14 33.5415C14.4064 33.5415 14.8142 33.1744 15.1806 32.8889C15.3026 33.052 15.4252 33.2159 15.587 33.3791C15.4252 33.4199 15.2213 33.3791 15.0587 33.2975C14.6432 33.551 14.2225 33.7958 13.7968 34.0317C14 34.5627 13.6335 34.8475 13.2264 34.3988C13.1452 34.6028 13.0232 35.0107 12.6967 34.9706C12.2903 34.889 12.6561 34.3173 12.7787 34.1548C12.4529 34.2357 12.2084 34.5212 12.2084 34.8483C11.6387 35.1338 11.3535 34.6851 11.5567 34.3581C11.6387 34.1949 11.8825 34.1949 12.1677 34.0725C11.8825 34.0317 11.5981 33.9501 11.3535 34.1949C11.1503 33.7054 11.6387 33.7054 12.0458 33.787C12.6154 33.8686 12.9006 33.583 13.2264 33.1751L13.8781 32.3171C14.4477 31.95 14.8142 31.3381 14.8955 30.6439C15.14 30.7262 15.4252 30.767 15.7097 30.6854C15.5465 30.3423 15.5036 29.954 15.5877 29.5834C15.669 29.8281 15.8729 29.9913 16.1174 30.0729C16.28 29.461 16.809 29.2155 17.0942 28.6853L17.2575 29.134C17.867 28.7668 18.3561 28.2366 18.6007 27.5832C18.7639 27.7872 19.0071 27.9503 19.2929 27.9503V27.5832C19.5375 27.7464 19.8219 27.7872 20.1071 27.7872L19.8619 27.42C20.5955 27.3384 21.3683 27.2569 22.102 27.2569C23.16 27.2161 24.1788 27.3792 25.1555 27.8279C25.6446 28.0727 26.9472 28.4813 27.1917 27.624C27.3136 27.1345 26.9465 26.889 26.5807 26.6443C26.0923 26.3995 25.604 26.1548 25.1555 25.8693C25.1969 25.7877 25.2375 25.7469 25.2375 25.6653C25.9291 25.9916 26.7846 26.2772 27.3136 26.8483C27.5988 27.2161 27.5988 27.7464 27.273 28.0727C26.8245 28.5221 26.0517 28.4806 25.4813 28.3997C25.8072 28.5629 26.0517 28.8484 26.1736 29.2155C26.0111 29.2155 25.8072 29.1748 25.6446 29.134C25.5626 28.93 25.4414 28.7668 25.3188 28.6037L25.3594 28.8076C25.4001 29.134 25.4407 29.4603 25.4407 29.7873C25.4407 30.236 25.4813 30.6847 25.522 31.1341C25.5577 31.387 25.6595 31.6259 25.8168 31.8266C25.9742 32.0273 26.1817 32.1827 26.4181 32.277C26.5807 32.3178 26.744 32.3586 26.8659 32.4402C26.9878 32.5217 26.9878 32.6033 26.9878 32.7257C26.9071 32.9449 26.895 33.1836 26.9533 33.4099C27.0115 33.6361 27.1372 33.8391 27.3136 33.9916C27.1508 33.6049 27.1083 33.1779 27.1917 32.7665C27.273 32.5217 27.1511 32.277 26.9065 32.1546C26.744 32.1138 26.5807 32.0315 26.4181 31.9908C25.8478 31.746 25.7665 31.2565 25.6852 30.7255C25.6446 30.44 25.6852 30.1137 25.6446 29.8281C25.6446 29.6242 25.6446 29.4603 25.604 29.2563C25.7665 29.4603 25.9704 29.6242 26.1736 29.7873H25.7252C26.0517 30.0321 26.2143 30.236 26.4588 30.44C26.2955 30.44 26.133 30.3584 26.0104 30.2768C25.9693 30.5118 25.9772 30.7527 26.0334 30.9845C26.0896 31.2163 26.1929 31.4339 26.3369 31.6236C26.5807 31.9092 26.8659 31.9092 27.2323 31.95C27.5988 31.9908 27.3543 32.4402 27.9246 32.4402C27.8725 32.4952 27.8091 32.5382 27.7388 32.5664C27.6686 32.5945 27.5931 32.6071 27.5175 32.6033ZM26.744 35.4601L26.9878 35.7049C26.9878 35.5825 27.0284 35.5009 27.0698 35.3785C27.0277 35.4601 26.9065 35.5009 26.744 35.4601ZM27.6394 35.0522C27.7207 34.9706 27.7207 34.8483 27.7207 34.7259C27.6394 34.8075 27.5582 34.8483 27.4769 34.8483L27.6394 35.0522ZM10.051 28.7261C10.0089 28.6445 9.80572 28.6037 9.80572 28.6037C9.84706 28.6853 9.84706 28.8076 9.8877 28.8892C9.84706 28.8076 9.96898 28.7668 10.051 28.7261ZM25.6446 35.4193C25.6446 35.5417 25.6446 35.6641 25.7259 35.7864C25.8072 35.6641 25.8478 35.6641 25.9704 35.6233C25.8072 35.6233 25.6852 35.5417 25.6446 35.4193ZM21.4917 35.5417C21.5323 35.7049 21.5729 35.8279 21.6949 35.9496C21.7768 35.8272 21.8175 35.7049 21.8981 35.5825C21.7768 35.6233 21.6136 35.6233 21.4917 35.5417ZM22.5497 35.093C22.6317 35.2154 22.713 35.297 22.7529 35.4193C22.8755 35.2562 22.8349 35.2562 22.9169 35.093C22.7979 35.1344 22.6686 35.1344 22.5497 35.093ZM20.7994 35.4193C20.5962 35.3785 20.5142 35.3377 20.4736 35.2154C20.4329 35.3377 20.4329 35.5009 20.4329 35.6233C20.5955 35.5417 20.5955 35.4601 20.7994 35.4193ZM24.993 34.7259C24.871 34.8075 24.871 34.9298 24.8304 35.0114C24.9117 34.9706 25.0336 35.0114 25.1149 35.0114C25.0742 34.9298 25.0336 34.8075 24.993 34.7259ZM23.2413 31.4605C22.3465 31.8276 22.713 32.6441 23.4445 32.8073C22.9981 32.3586 22.8349 32.1546 23.2413 31.4605ZM23.5271 34.0317C23.2013 33.9501 22.8755 33.9909 22.591 34.1949C23.1607 34.6443 22.8349 35.1746 22.1839 34.8068C22.102 35.297 21.7768 35.4608 21.6136 35.3785C21.2065 35.093 21.5729 34.8483 21.7355 34.6851C21.6103 34.6861 21.4885 34.7258 21.3866 34.7988C21.2846 34.8718 21.2076 34.9745 21.1658 35.093C20.7588 35.3785 20.4329 34.9706 20.5549 34.7259C20.6361 34.6035 20.7994 34.5219 21.1252 34.5627C20.7588 34.2765 20.6368 34.3173 20.3923 34.5212C20.3337 34.4614 20.3008 34.3808 20.3008 34.2969C20.3008 34.2129 20.3337 34.1324 20.3923 34.0725C20.429 34.0337 20.4731 34.0027 20.5221 33.9816C20.5711 33.9605 20.6238 33.9496 20.6771 33.9496C20.7304 33.9496 20.7832 33.9605 20.8322 33.9816C20.8811 34.0027 20.9253 34.0337 20.962 34.0725C21.3697 34.2765 21.6136 34.2765 21.8581 33.9093C21.98 33.7054 22.102 33.5014 22.1839 33.2975C22.3059 32.9297 22.102 32.7665 21.7768 32.6033C21.3697 32.3994 21.0439 32.073 20.88 31.6236C20.9213 31.2157 21.1252 30.8078 21.4917 30.5624C21.6949 30.3584 21.8581 30.1544 21.98 29.9097C22.713 29.9913 23.0794 30.9295 23.4052 31.7052C23.0794 32.277 23.2833 32.4402 23.6904 32.7672C23.8936 32.9297 23.8936 33.0112 23.6498 33.1336C22.9575 33.3791 22.3871 33.9501 22.2246 34.6851C22.4925 34.2942 22.8068 33.9376 23.1607 33.6231L23.2826 33.7462C23.4052 33.8278 23.4851 33.9093 23.5271 34.0317ZM11.1503 31.0934C11.2722 31.2565 11.3942 31.4197 11.5567 31.5828C11.5093 31.3271 11.4821 31.0679 11.4754 30.8078C11.3129 30.7663 11.1503 30.6847 11.069 30.5216C11.5981 30.6439 12.4123 30.8078 13.0639 30.5216C13.1045 30.1544 13.0218 29.7873 13.0639 29.3787C12.3716 29.7057 11.6387 29.9097 10.8651 29.9505C10.7425 29.9097 10.662 29.9097 10.58 29.7873C10.4987 29.6242 10.4581 29.4195 10.4174 29.2563C10.3754 29.134 10.3354 29.0116 10.2542 28.8892C10.1729 28.8484 9.84706 28.9708 9.92834 29.0524C10.0916 29.2563 10.2135 29.5011 10.2135 29.7465C10.0944 29.5911 9.94025 29.4652 9.76508 29.3787C9.35869 29.2155 9.35869 29.7057 9.43996 29.9505C9.64316 29.8689 9.8884 29.9097 10.0916 29.9913C9.52124 30.0729 9.27741 30.6847 9.76578 30.7255C9.96898 30.6847 10.1722 30.6439 10.3354 30.5216C10.4174 31.2157 10.5386 31.3381 11.1503 31.0934ZM19.5375 25.3791C19.4968 25.8285 19.4149 26.5219 19.9439 26.6851C19.7813 26.3588 19.7407 25.9508 19.7407 25.5837C19.6594 25.5422 19.6187 25.4192 19.5375 25.3791ZM13.7148 28.1958C13.6335 28.3589 13.5523 28.5221 13.5116 28.7261C13.6742 28.7668 13.7961 28.7261 13.9594 28.6853C13.8788 28.9357 13.8377 29.1972 13.8374 29.4603C14.4891 29.5426 14.8955 28.8892 15.0587 28.3181C14.8135 28.6853 14.4884 28.9708 14.1219 29.134C14.2039 28.7668 14.3664 28.4405 14.5703 28.1142C14.3664 28.2366 14.1626 28.3589 13.9187 28.4405C14.1219 28.0326 14.4477 27.6648 14.8548 27.3785C14.2032 27.4608 14.0813 27.6247 13.7148 28.1958ZM15.3026 28.8484C14.7735 29.0932 14.4477 29.6242 14.3664 30.1952C14.2445 29.9913 14.1212 29.7873 14.0406 29.5426C13.9187 30.1544 14 30.3992 14.529 30.6032C14.5703 29.9505 14.8548 29.3379 15.3026 28.8484ZM16.6871 26.2772C15.9948 26.6035 15.5471 27.3384 15.5471 28.1135C15.9952 27.8751 16.4066 27.5728 16.7684 27.2161L16.6465 27.6648C16.9723 27.5832 17.2575 27.4608 17.5013 27.2161C17.5827 27.5511 17.5827 27.9008 17.5013 28.2359C17.9497 27.5832 17.8271 27.3792 17.6645 26.6042C17.4614 26.8082 17.3387 27.0937 17.0129 27.2161L17.2575 26.1541C16.8411 26.6998 16.3472 27.1813 15.7916 27.5832C15.9542 27.0937 16.4433 26.6443 16.6871 26.2772ZM17.0129 24.8488C16.795 25.0079 16.6108 25.2089 16.471 25.4401C16.3313 25.6713 16.2387 25.9281 16.1987 26.1956C17.0536 25.9101 17.6239 25.1758 17.7052 24.277C17.4982 24.8018 17.1447 25.2556 16.6871 25.5837C16.7684 25.3383 16.9316 25.0935 17.0129 24.8488ZM17.5833 22.7262C17.7458 23.2572 17.5412 23.7882 17.1348 24.1138C17.5013 24.0323 17.7458 23.9099 17.8271 23.5428C17.8677 23.2572 17.7865 22.9302 17.5833 22.7262ZM18.7233 21.7064C18.5365 21.7533 18.3658 21.8501 18.2295 21.9866C18.0932 22.1231 17.9962 22.2941 17.949 22.4815C18.1123 22.3183 18.3155 22.1552 18.56 22.0736C18.6007 22.3591 18.6413 22.6039 18.6007 22.8894C18.8452 22.5631 18.9265 22.0743 18.7233 21.7064ZM18.3975 23.4204C18.4787 23.9099 18.3568 24.4001 18.1123 24.808C18.8046 24.604 18.8046 23.9099 18.3975 23.4204ZM18.9265 24.5632C18.4812 24.9699 18.1571 25.4926 17.9904 26.0732C17.9483 25.7469 17.9483 25.3791 18.031 25.0534C17.5826 25.7061 17.6645 26.0732 17.9084 26.7259C18.2748 26.0324 18.56 25.2567 18.9265 24.5632ZM15.8729 24.1954C16.2793 24.4409 16.9723 24.1546 16.4426 23.4612C16.5652 24.0323 16.3613 24.1546 15.8729 24.1954ZM16.3213 22.3999C16.3213 22.5223 16.3613 22.6446 16.4426 22.6446C16.5243 22.6446 16.5652 22.5631 16.5652 22.3999C16.5652 22.2367 16.5243 22.1552 16.4426 22.1552C16.3613 22.1959 16.3213 22.3183 16.3213 22.3999ZM13.6335 28.8892C13.3883 28.93 13.1045 29.0116 12.9006 28.8484C13.1856 28.6037 13.3892 28.3179 13.5116 27.9911C13.6414 27.614 13.8658 27.2768 14.1633 27.0121C14.4071 26.889 14.6516 26.8082 14.8955 26.6851C14.8142 26.8483 14.5703 26.9713 14.447 27.093C15.4252 27.4608 15.7916 27.1345 15.9135 26.318C15.8274 26.483 15.7062 26.6271 15.5585 26.74C15.4108 26.8529 15.2402 26.9319 15.0587 26.9713C15.2213 26.7259 15.3439 26.4403 15.3026 26.1548C14.9368 26.3995 14.2852 26.9706 13.8374 26.7259C13.9187 26.7259 14.1219 26.5627 14.2039 26.5219C14.4477 26.318 14.6923 26.1548 14.9774 26.0324C15.3026 25.9508 15.669 25.8693 16.0355 25.8693C15.7104 25.7877 15.3838 25.7061 15.0994 25.5422C15.5478 25.4606 15.9136 25.2159 16.1987 24.8488C16.9723 24.7672 17.2168 24.3586 17.2168 23.5828C17.0942 23.9507 17.0536 24.1954 16.7684 24.4001C16.5652 24.5224 16.28 24.604 16.0355 24.604C15.6291 24.6856 15.1806 24.6856 15.3439 24.1138V24.073C15.5471 24.1138 15.7916 24.1138 15.9955 24.1138C16.3206 24.073 16.6465 23.9915 16.5652 23.5835C16.5245 23.4204 16.362 23.298 16.1581 23.298C15.9128 23.3388 15.7097 23.3796 15.4658 23.4204C15.372 23.3612 15.2984 23.2749 15.2546 23.1728C15.2108 23.0707 15.1989 22.9576 15.2206 22.8486C15.3026 22.6446 15.5471 22.5631 15.7104 22.4815C15.3439 22.3591 15.2213 22.6446 15.0587 22.6446C15.0181 22.6039 15.0181 22.6039 15.0181 22.5631C15.1806 22.3999 15.3845 22.2775 15.5877 22.1959C15.7909 22.1144 16.0362 22.0736 16.2394 22.0736C16.3206 22.0736 16.4426 22.0328 16.5245 21.992C16.5652 22.1959 16.7277 22.3183 16.9309 22.3591C16.7277 22.5223 16.6058 22.767 16.5652 23.0118C16.809 22.7262 17.0536 22.4815 17.3794 22.2775C17.42 22.6039 17.0129 22.767 16.809 22.8486C17.4607 23.1348 17.5833 22.6446 17.4607 22.2367C17.1458 22.2041 16.8411 22.1069 16.5652 21.9512C16.6871 21.8696 16.809 21.7873 16.9716 21.7472C17.2981 21.665 17.6646 21.7057 17.9904 21.8281C17.9483 21.9512 17.9483 22.0736 17.9483 22.1959C18.0691 22.0347 18.2221 21.9005 18.3976 21.8021C18.573 21.7036 18.767 21.643 18.9671 21.6242C19.089 22.0321 19.0484 22.4407 18.9265 22.8486C19.089 22.7262 19.2117 22.6446 19.2523 22.4407C19.4555 22.6446 19.6587 22.8486 19.7407 23.1348C19.8633 23.3388 20.0258 23.5428 20.2704 23.6243C19.8633 23.9507 19.3735 23.2572 19.2117 22.971C19.2523 23.502 19.3742 23.7875 19.8633 23.9507C20.0665 24.4409 20.0665 25.0527 20.5149 25.5422C19.7 25.4606 19.618 24.5632 19.171 24.1546C19.1304 24.604 18.9678 25.0527 18.7639 25.4606C19.0484 25.3383 19.2523 25.0935 19.3336 24.808C19.3742 24.8896 19.4148 25.0119 19.4555 25.0935C19.3742 25.5422 19.171 25.9508 18.8858 26.318C18.7965 26.0983 18.7684 25.8583 18.8046 25.6238C18.7084 25.7976 18.6546 25.9917 18.6475 26.1903C18.6404 26.389 18.6803 26.5865 18.7639 26.7667C19.0078 26.5627 19.2117 26.3588 19.3735 26.114L19.5767 26.5627C19.5767 26.8483 19.6594 27.1345 19.7407 27.3785C19.586 27.2633 19.4491 27.1259 19.3343 26.9706C19.2922 27.1746 19.2117 27.3384 19.171 27.5424C18.9678 27.3384 18.7639 27.1345 18.6819 26.8483C18.56 27.2161 18.4381 27.5832 18.2335 27.9102C18.0716 28.1951 17.8271 28.4405 17.5419 28.6445C17.42 28.2773 17.2575 27.9503 17.0935 27.5832V27.7464C16.9006 27.8589 16.7231 27.9961 16.5652 28.1543C16.6058 27.9503 16.6465 27.7464 16.7684 27.5832C16.1581 27.9503 16.28 28.3589 16.4019 28.93C16.6051 28.5629 16.8504 28.1951 17.0942 27.8279C17.0942 28.1951 16.9316 28.5629 16.7277 28.8484C16.4834 29.0524 16.28 29.2974 16.1174 29.5834C15.9542 29.4195 15.8323 29.1755 15.669 28.9715C15.4252 29.3794 15.3845 29.9097 15.5065 30.3584C15.2678 30.3233 15.0428 30.2247 14.8548 30.0729C14.7735 30.6847 14.7329 31.2973 14.2445 31.7868V31.4197C14.3258 30.9302 14.3664 30.6439 13.9187 30.3176C14.1219 30.7255 14.0406 31.1749 13.7968 31.5421C13.8721 31.1063 13.844 30.6589 13.7148 30.236L13.3484 30.44C13.3077 30.1422 13.3077 29.8403 13.3484 29.5426C13.4186 29.3147 13.5143 29.0955 13.6335 28.8892ZM23.1607 25.5837C23.3639 25.5837 23.5271 25.6238 23.731 25.6646C23.8123 25.5422 23.8936 25.4606 24.0162 25.3791L23.8936 25.2567C23.7531 25.2359 23.6097 25.2557 23.4799 25.3136C23.3502 25.3715 23.2395 25.4651 23.1607 25.5837ZM15.4252 23.8283C15.4658 23.7467 15.4658 23.6651 15.5471 23.5835C15.5094 23.6039 15.4673 23.6145 15.4245 23.6145C15.3817 23.6145 15.3396 23.6039 15.3019 23.5835L15.4252 23.8283ZM21.0026 23.7875C21.6542 24.4409 22.4684 24.9304 23.3639 25.1343C23.4459 25.0935 23.5671 25.0527 23.6498 25.0119C23.4459 24.9712 23.2833 24.8488 23.0794 24.808C22.6005 24.6428 22.1478 24.409 21.7355 24.1138C21.4373 23.9436 21.1965 23.688 21.0439 23.3796C20.8407 23.0933 20.9213 22.6446 21.2065 22.4407C21.3045 22.365 21.4229 22.3206 21.5464 22.3134C21.6698 22.3061 21.7926 22.3362 21.8988 22.3999C21.9394 22.3591 21.98 22.2775 22.0207 22.2367C20.8807 21.7465 20.351 23.0933 21.0026 23.7875ZM24.6265 25.1343C24.5021 25.0703 24.4002 24.9694 24.3346 24.8454C24.2691 24.7214 24.2431 24.5802 24.2601 24.4409C23.8936 24.604 23.8936 25.0119 24.3413 25.2975L24.8304 25.5014C24.6672 25.5014 24.5046 25.5422 24.3413 25.5422C24.0569 25.583 23.731 25.9101 23.9749 26.2364C24.0162 25.7061 24.7484 26.0324 24.993 25.7061C25.1149 25.4606 24.7477 25.2567 24.6265 25.1343ZM13.0232 30.8486C12.7381 30.8894 12.4935 30.9302 12.2084 30.8894C12.4529 31.0118 12.6974 31.0934 12.9413 31.1749C12.9413 31.0526 12.9826 30.971 13.0232 30.8486ZM10.58 31.4605C10.4174 31.4197 10.4174 31.4197 10.3768 31.2973C10.3531 31.3572 10.3445 31.4219 10.3516 31.4859C10.3586 31.5499 10.3813 31.6112 10.4174 31.6644C10.4581 31.5013 10.4987 31.5421 10.58 31.4605ZM13.471 31.2565C13.5119 31.0819 13.5119 30.9001 13.471 30.7255L12.9819 31.1749C13.1452 31.2157 13.3077 31.2565 13.471 31.2565ZM12.0864 30.9302L11.5574 30.8486C11.6387 31.1341 11.8825 31.3789 12.167 31.5013V31.4197C12.1271 31.2565 12.0864 31.0933 12.0864 30.9302ZM22.5098 22.2775C22.3871 22.3183 22.2645 22.4407 22.1839 22.5631C22.1433 22.767 22.2246 23.0118 22.1433 23.2164C22.3871 23.1756 22.5098 22.8085 22.591 22.6046C22.591 23.0526 22.713 23.4612 22.9974 23.7875C22.9575 23.502 22.8755 23.2164 22.7942 22.9302C23.1198 23.3381 23.5271 23.6241 24.0162 23.7882V23.7467C23.731 23.4204 23.4459 23.0934 23.0794 22.8486C23.4052 22.971 23.9342 23.2164 24.3007 22.9302C23.9784 22.8545 23.6742 22.7159 23.4052 22.5223C23.0794 22.3183 22.8755 22.1144 22.5098 22.2775ZM25.9291 12.1965V14.0743H28.2904V13.0939H27.884V12.1958L25.9291 12.1965ZM29.4717 30.2768C29.553 30.9302 29.6343 31.6236 29.6343 32.277H31.5892L31.5471 30.2768H29.4717ZM24.0996 12.482H23.0409V14.1144H24.0989V12.482M25.1983 7.3395V9.74759H31.7125V7.3395H30.5318V8.7679H29.0254V7.34021H27.8447V8.7679H26.3383V7.34021L25.1983 7.3395ZM6.02135 19.0121H9.64526V17.0942H6.10333L6.02135 19.0121ZM30.9796 10.0739H25.9312V11.9517H27.9267V10.7273H28.9847V11.951H30.9803L30.9796 10.0739ZM8.99503 25.8693H5.81815L5.77751 27.7872H8.342C8.50596 27.1345 8.70916 26.4811 8.99363 25.8693H8.99503ZM5.65629 32.2763H7.61119V32.1954C7.65113 31.5421 7.69177 30.9295 7.81439 30.2768H5.69623L5.65629 32.2763ZM28.579 35.0114H32.0803V32.5625H28.6603L28.579 35.0114ZM5.12728 35.0114H8.66922L8.5473 32.5625H5.08594V35.0114H5.12728ZM13.9208 12.482H12.8628V14.1144H13.9208V12.482ZM31.4287 25.8693H28.2939C28.579 26.4811 28.7822 27.1345 28.9455 27.7872H31.4694L31.4287 25.8693ZM29.3113 28.0727H29.0268C29.1487 28.4806 29.23 28.8892 29.3113 29.2971V28.0727ZM28.9861 13.0946H28.579V14.0743H30.9403V12.1965H28.9455L28.9861 13.0946ZM15.1827 4.89062V7.29871H22.0634V4.89062H20.8414V6.36052H19.2537V4.93071H17.9911V6.35911H16.4033V4.93142H15.182L15.1827 4.89062ZM9.28021 13.0946H8.87241V14.0743H11.2337V12.1965H9.23817L9.27951 13.0946M31.7945 14.8901L31.957 14.3598H5.32977L5.49303 14.8901H31.7945ZM6.22524 12.1965V14.0743H8.58654V13.0939H8.18014V12.1958L6.22524 12.1965ZM11.2337 10.0739H6.22524V11.9517H8.22078V10.7273H9.27881V11.951H11.2743V10.0739H11.2337ZM5.45169 7.3395V9.78838H11.9666V7.3803H10.8266V8.80869H9.32015V7.381H8.1381V8.80869H6.63164V7.381H5.45239L5.45169 7.3395ZM15.8344 14.1151H18.4402V12.1965H15.8337L15.8344 14.1151ZM21.4118 12.1965H18.7254V14.1151H21.4132V12.1965H21.4118ZM20.5976 9.78838H19.1738V10.9312H18.1151V9.78838H16.6899V11.9109H20.5983L20.5976 9.78838ZM21.4125 9.78838H20.8828V11.9109H21.4125V9.78838ZM21.4125 7.62504H18.766V8.56465H19.1724V9.50355H21.4125V7.62504ZM15.8344 11.9109H16.3634V9.78838H15.8344V11.9109ZM18.0737 8.56394H18.4801V7.62504H15.8344V9.50285H18.0737V8.56394ZM8.26142 28.0741H7.9356V29.5018C8.01688 29.0123 8.1388 28.5636 8.26142 28.0741ZM29.3099 19.2991H25.5647V21.217H29.3106L29.3099 19.2991ZM27.6415 21.4617V23.3803H31.3467L31.3061 21.4617H27.6415ZM31.428 25.5837L31.3467 23.6658H29.5551V25.5844L31.428 25.5837ZM29.5957 15.1756V16.8087H31.1835L31.1428 15.1756H29.5957ZM25.2795 21.217V19.2984L22.837 19.3392C23.6555 19.9072 24.4314 20.5348 25.1583 21.217H25.2795ZM27.3564 17.0942H23.2448V19.0121H27.3578V17.0942H27.3564ZM27.6415 19.0121H31.2655L31.2248 17.0942H27.6822V19.0121H27.6415ZM29.5964 19.2984V21.2163H31.3061L31.2655 19.2984H29.5964ZM29.3106 25.583V23.6651H27.1525C27.5196 24.277 27.8861 24.9304 28.1706 25.5837L29.3106 25.583ZM31.5499 29.9913L31.5093 28.0727H29.5964V29.9913H31.5499ZM25.2802 15.1756H21.2899V16.8087H25.2802V15.1756ZM15.7531 19.2984C16.6892 18.8082 17.626 18.4003 18.6434 18.1147C21.9415 19.3799 24.9544 21.5426 26.8273 24.6448C28.1306 26.9713 28.8222 29.6242 28.9035 32.277H29.3519C29.3099 31.5828 29.2699 30.8894 29.1886 30.236C28.619 26.2772 26.7054 22.5631 23.4886 20.155C21.9821 19.0529 20.3538 18.1963 18.6028 17.6245C15.4273 18.7266 12.5769 20.5629 10.622 23.3796L10.4188 23.6651C8.83823 26.2633 7.96772 29.2336 7.89496 32.277H8.38334C8.5466 29.1755 9.32015 26.114 11.1111 23.5421C12.3331 21.788 13.9208 20.3589 15.7531 19.2984ZM26.95 23.3796H27.3564V21.461H25.4435C25.9668 22.0835 26.4692 22.7234 26.95 23.3796ZM25.5654 16.8087H29.3106V15.1756H25.5654V16.8087ZM11.762 21.461H9.8898V23.3796H10.2563C10.7047 22.7262 11.233 22.0736 11.762 21.461ZM5.81885 25.583H7.65113V23.6651H5.85879L5.81815 25.5837L5.81885 25.583ZM11.6821 19.2984H7.9349V21.2163H11.6807V19.2984H11.6821ZM5.94147 21.2163H7.65113V19.2984H5.98141L5.94147 21.2163ZM11.6821 15.1756H7.9349V16.8087H11.6807V15.1756H11.6821ZM7.65113 28.0727H5.73827L5.69623 29.9913H7.65113V28.0727ZM9.60603 21.4617H5.94147L5.90083 23.3796H9.64597V21.461H9.60533L9.60603 21.4617ZM15.957 15.1756H11.9673V16.8087H15.957V15.1756ZM14.4099 19.2984H11.9673V21.2163H12.0486C12.7509 20.4784 13.5445 19.8339 14.4099 19.2984ZM16.2422 16.8087H21.0061V15.1756H16.2415V16.8087M10.0923 23.6644H7.9342V25.583H9.07421C9.40003 24.9297 9.72584 24.277 10.0923 23.6644ZM18.6014 17.2975C19.9046 17.7462 21.1658 18.3173 22.3472 19.0114H22.9582V17.0935H14.2873V19.0114H14.8569C16.0456 18.3169 17.3002 17.7427 18.6021 17.2975M6.10333 15.1756L6.06269 16.8087H7.65043V15.1756H6.10333ZM14.0021 17.0942H9.8891V19.0121H14.0021V17.0942Z" fill="#FBFBF9"/>
<path d="M51.3546 5.79468C51.3546 12.9634 50.4192 14.9481 48.7501 14.9481C48.6282 14.9481 48.465 14.9481 48.3438 14.908V13.8144H48.465C49.9707 13.8144 50.134 11.1411 50.134 4.66026H55.3022V14.9481H54.1216V5.79468H51.3546ZM58.5169 11.1411H59.7782C60.5923 11.1411 61.0401 11.7481 61.0401 12.5182C61.0401 13.2883 60.7143 13.9353 59.7789 13.9353H58.5176L58.5169 11.1411ZM62.1794 12.6392C62.2607 11.343 61.2433 10.2494 59.9414 10.1685H58.5576V7.05006H57.4596V14.9481H59.9015C61.1627 14.9481 62.1794 13.8953 62.1794 12.6392ZM65.8832 11.2621C66.6154 11.2621 67.0225 11.8698 67.0225 12.5984C67.0225 13.5309 66.574 13.9353 65.8418 13.9353H64.4993V11.2628L65.8832 11.2621ZM65.7199 7.98193C66.2896 7.94044 66.7779 8.30545 66.8186 8.87231V9.11565C66.8186 9.72259 66.3302 10.2494 65.7199 10.2494H64.4993V7.94044L65.7199 7.98193ZM63.4007 14.9467H65.7606C66.8606 14.9467 68.2024 14.178 68.2024 12.8009C68.2024 11.5448 67.4702 10.9372 66.738 10.7754C67.5109 10.492 68.0399 9.76268 67.9992 8.95248C67.9992 7.89965 67.0631 7.08875 65.7606 7.08875H63.4413V14.9474L63.4007 14.9467ZM70.8475 7.00927H69.7481V14.9495H70.8475V7.00927ZM70.9694 5.34879C70.9703 5.25766 70.9529 5.16727 70.9184 5.08298C70.8839 4.99869 70.8329 4.92219 70.7684 4.85801C70.704 4.79383 70.6273 4.74326 70.5431 4.7093C70.4588 4.67533 70.3686 4.65866 70.2778 4.66026C70.1491 4.65846 70.0227 4.69542 69.9151 4.76637C69.8074 4.83732 69.7234 4.93901 69.6739 5.05833C69.6413 5.13746 69.6251 5.2224 69.6262 5.308V5.34879C69.6262 5.7138 69.9114 6.03732 70.2778 6.03732C70.4145 6.03863 70.5485 5.99898 70.6626 5.92343C70.7767 5.84787 70.8657 5.73987 70.9183 5.61323C70.9521 5.52921 70.9695 5.43942 70.9694 5.34879ZM75.4461 11.2621C76.179 11.2621 76.5854 11.8698 76.5854 12.5984C76.5854 13.5309 76.1383 13.9353 75.4054 13.9353H74.0622V11.2628L75.4461 11.2621ZM75.3234 7.98193C75.8938 7.94044 76.3822 8.30545 76.4221 8.87231V9.11565C76.4221 9.72259 75.9344 10.2494 75.3234 10.2494H74.1029V7.94044H75.3234V7.98193ZM73.0042 14.9474H75.3648C76.4635 14.9474 77.8067 14.1787 77.8067 12.8016C77.8067 11.5455 77.0737 10.9379 76.3415 10.7761C77.1144 10.4927 77.6441 9.76338 77.6035 8.95318C77.6035 7.90035 76.6666 7.08945 75.3648 7.08945H73.0448V14.9495L73.0042 14.9474ZM83.9103 9.27811C83.7071 7.94044 82.9749 6.88831 81.4691 6.88831C79.3524 6.88831 78.9053 8.9131 78.9053 11.0195C78.9053 13.0443 79.3524 15.1105 81.4691 15.1105C82.9749 15.1105 83.7071 14.057 83.9103 12.7207C83.9103 12.7207 83.3007 12.559 82.8116 12.4373C82.6491 13.3685 82.3232 14.0978 81.4691 14.0978C80.2072 14.0978 80.004 12.5182 80.004 10.9386C80.004 9.35899 80.2072 7.86026 81.4691 7.86026C82.3232 7.86026 82.6491 8.58888 82.8116 9.52075L83.9103 9.27811ZM86.3529 11.1411H87.6141C88.4276 11.1411 88.8753 11.7481 88.8753 12.5182C88.8753 13.2883 88.5495 13.9353 87.6141 13.9353H86.3529V11.1411ZM89.974 12.6392C90.0552 11.343 89.0386 10.2494 87.736 10.1685H86.3529V7.05006H85.2535V14.9481H87.6954C88.9573 14.9481 89.974 13.936 89.974 12.6392ZM91.2359 14.9481H92.3339V11.3022H93.1894C93.4739 11.3022 93.7583 11.5047 93.9622 11.9914L94.5725 13.7328C94.6278 14.0829 94.8057 14.4017 95.0743 14.6319C95.3429 14.862 95.6845 14.9883 96.0376 14.9882C96.2009 14.9882 96.3228 14.9882 96.4854 14.9474V13.9754C96.4041 14.0155 96.3635 14.0155 96.2822 14.0155C95.8751 13.9754 95.5899 13.6512 95.5086 13.2869L95.021 11.7474C94.8577 11.2621 94.4506 10.8971 93.9216 10.7761C94.3693 10.613 94.6952 10.2894 94.8171 9.84426L95.2641 8.70984C95.4274 8.26466 95.6712 8.0614 96.0376 8.0614H96.3228V7.09086C96.2009 7.05006 96.0377 7.05006 95.9157 7.05006C95.2641 7.05006 94.6545 7.45516 94.41 8.06281L93.7177 9.72329C93.5965 10.0876 93.2707 10.3302 92.8636 10.371H92.2932V7.09086H91.1946L91.2359 14.9481ZM101.165 11.7481C101.165 13.0042 100.799 14.0971 99.6188 14.0971C98.764 14.0971 98.4795 13.4902 98.4795 12.6807C98.4795 10.9787 99.6188 10.9386 101.165 10.9386V11.7481ZM99.375 15.0698C100.229 15.0698 100.718 14.8672 101.328 13.8552C101.613 14.6647 102.02 14.9889 102.59 14.9889C102.712 14.9889 102.874 14.9889 102.997 14.9481V13.9754C102.915 13.9754 102.874 14.0155 102.793 14.0155C102.386 14.0155 102.305 13.7328 102.305 13.2468V9.47995C102.305 7.45446 101.287 6.8876 99.9853 6.8876C98.764 6.8876 98.1537 7.49455 97.7067 8.62896L98.7234 8.91239C98.9273 8.34554 99.2124 7.85886 99.9446 7.85886C100.759 7.85886 101.165 8.14299 101.165 9.43916V10.0468H100.311C98.3163 10.0468 97.3402 11.0188 97.3402 12.7601C97.3402 14.0964 98.0318 15.0698 99.375 15.0698ZM56.0758 20.092H54.9757L52.6158 24.7907L50.2559 20.0927H49.1565V27.9907H50.2566V25.3175C50.2566 24.6698 50.1746 22.6443 50.0933 22.0774L52.2094 26.2902H52.9416L55.0577 22.0774C54.9764 22.6844 54.8951 24.6698 54.8951 25.3175V27.99H55.9938V20.092H56.0758ZM59.2085 20.092H58.1098V27.99H59.2085V20.092ZM59.2898 18.3914C59.2908 18.2545 59.2507 18.1204 59.1747 18.0066C59.0987 17.8928 58.9904 17.8046 58.8638 17.7535C58.7792 17.7192 58.6887 17.7017 58.5975 17.7022C58.2318 17.7022 57.9059 18.0257 57.9059 18.3914C57.9059 18.7557 58.2318 19.0793 58.5982 19.0793C58.7347 19.0802 58.8684 19.0404 58.9824 18.9651C59.0964 18.8897 59.1856 18.7821 59.2386 18.6559C59.2725 18.5719 59.2899 18.4821 59.2898 18.3914ZM65.8411 22.32C65.6386 20.9838 64.9064 19.8902 63.4007 19.8902C61.2839 19.8902 60.8369 21.9149 60.8369 24.022C60.8369 26.0461 61.2839 28.1117 63.4007 28.1117C64.9057 28.1117 65.6386 27.0596 65.8418 25.7219C65.8418 25.7219 65.2322 25.5601 64.7439 25.4385C64.5806 26.3703 64.2548 27.0996 63.4 27.0996C62.1387 27.0996 61.9355 25.52 61.9355 23.9404C61.9355 22.3608 62.1387 20.8621 63.4 20.8621C64.2548 20.8621 64.5806 21.5907 64.7432 22.5226L65.8411 22.32ZM68.365 24.1838H69.6262C70.4411 24.1838 70.8881 24.7907 70.8881 25.5601C70.8881 26.3295 70.563 26.978 69.6269 26.978H68.3657L68.365 24.1838ZM71.9875 25.6818C72.0688 24.3856 71.0507 23.292 69.7488 23.2111H68.365V20.092H67.2663V27.99H69.7082C70.9694 27.99 71.9875 26.9787 71.9875 25.6818ZM73.1268 27.9907H74.2255V24.3455H75.0796C75.3648 24.3455 75.6493 24.5481 75.8532 25.0348L76.4635 26.7761C76.5184 27.1263 76.6961 27.4453 76.9646 27.6756C77.2331 27.9059 77.5747 28.0323 77.9279 28.0322C78.0911 28.0322 78.213 28.0322 78.3763 27.9914V27.0181C78.2943 27.0589 78.2537 27.0589 78.1724 27.0589C77.984 27.0222 77.8089 26.9352 77.6657 26.807C77.5225 26.6787 77.4165 26.514 77.3589 26.3302L76.8705 24.7907C76.6666 24.3047 76.2603 23.9397 75.7719 23.8188C76.2196 23.657 76.5447 23.3335 76.6666 22.8869L77.1144 21.7525C77.2776 21.3073 77.5215 21.1054 77.8872 21.1054H78.1724V20.1314C78.0505 20.0906 77.8872 20.0906 77.766 20.0906C77.1144 20.0906 76.5041 20.4957 76.2603 21.1033L75.568 22.7638C75.4461 23.1281 75.1202 23.3715 74.7139 23.4123H74.1435V20.1328H73.0448V27.9907H73.1268ZM83.0562 24.7907C83.0562 26.0468 82.7303 27.1397 81.5098 27.1397C80.6556 27.1397 80.3704 26.5335 80.3704 25.7219C80.3704 24.0213 81.5098 23.9805 83.0562 23.9805V24.7907ZM81.2652 28.1525C82.12 28.1525 82.6084 27.9499 83.1781 26.9379C83.4632 27.7474 83.8696 28.0716 84.44 28.0716C84.5619 28.0716 84.7245 28.0716 84.8471 28.0308V27.0603C84.7651 27.0603 84.7245 27.1004 84.6432 27.1004C84.2361 27.1004 84.1548 26.8169 84.1548 26.3316V22.5648C84.1548 20.5393 83.1374 19.9724 81.8356 19.9724C80.6143 19.9724 80.004 20.5794 79.5563 21.7138L80.5736 21.9972C80.7768 21.4304 81.062 20.9444 81.7949 20.9444C82.6084 20.9444 83.0155 21.2278 83.0155 22.524V23.1309H82.1607C80.1665 23.1309 79.1905 24.1036 79.1905 25.845C79.2311 27.1819 79.9227 28.1539 81.2652 28.1539M50.2559 37.1033C50.2559 35.6046 50.4591 33.9849 51.7617 33.9849C53.0642 33.9849 53.348 35.6461 53.348 37.1033C53.348 38.562 53.1049 40.181 51.7617 40.181C50.4185 40.181 50.2559 38.6429 50.2559 37.1033ZM49.1565 43.3416H50.2566V40.2232C50.4374 40.5059 50.683 40.7413 50.9727 40.9096C51.2628 41.0784 51.5893 41.1768 51.9249 41.1951C53.9996 41.1951 54.488 39.1696 54.488 37.104C54.488 35.0385 53.9996 32.9729 51.9242 32.9729C51.1514 32.9729 50.6217 33.4589 50.1746 34.0665L49.8895 33.1346H49.1565V43.3416ZM59.4523 37.8334C59.4523 39.0887 59.0866 40.1824 57.9059 40.1824C57.0511 40.1824 56.7666 39.5754 56.7666 38.7652C56.7666 37.0633 57.9059 37.0232 59.4523 37.0232V37.8334ZM57.6621 41.1951C58.5169 41.1951 59.0053 40.9926 59.575 39.9805C59.8601 40.7893 60.2672 41.1142 60.8362 41.1142C60.9581 41.1142 61.1214 41.1142 61.2433 41.0742V40.0614C61.162 40.0614 61.1214 40.1015 61.0401 40.1015C60.6337 40.1015 60.551 39.8181 60.551 39.3314V35.5645C60.551 33.5397 59.535 32.9729 58.2317 32.9729C56.9292 32.9729 56.4002 33.5798 55.9531 34.7142L56.9705 34.9984C57.1737 34.4308 57.4589 33.9441 58.1911 33.9441C59.0053 33.9441 59.4117 34.2283 59.4117 35.5244V36.1314H58.5569C56.5634 36.1314 55.5867 37.104 55.5867 38.8461C55.6273 40.2232 56.3189 41.1951 57.6621 41.1951ZM63.5625 40.0614C64.2954 38.8461 64.4993 37.4283 64.6206 34.1467H66.6147V40.0614H63.5625ZM63.5625 33.1339C63.5625 37.3073 63.2788 39.2505 62.3826 40.0614L61.9355 40.1423V42.8148H62.7897L62.9529 41.0334H67.4296L67.5921 42.8155H68.4463V40.0614H67.7134V33.1339H63.5625ZM73.2487 37.8334C73.2487 39.0887 72.9229 40.1824 71.7023 40.1824C70.8475 40.1824 70.563 39.5754 70.563 38.7652C70.563 37.0633 71.7023 37.0232 73.2487 37.0232V37.8334ZM71.4172 41.1951C72.2713 41.1951 72.7604 40.9926 73.3706 39.9805C73.6551 40.7893 74.0622 41.1142 74.6326 41.1142C74.7545 41.1142 74.917 41.1142 75.039 41.0742V40.0614C74.9577 40.0614 74.917 40.1015 74.8358 40.1015C74.4287 40.1015 74.3474 39.8181 74.3474 39.3314V35.5645C74.3474 33.5397 73.33 32.9729 72.0281 32.9729C70.8069 32.9729 70.1966 33.5798 69.7488 34.7142L70.7655 34.9984C70.9694 34.4308 71.2546 33.9441 71.9875 33.9441C72.801 33.9441 73.2081 34.2283 73.2081 35.5244V36.1314H72.3533C70.3591 36.1314 69.3824 37.104 69.3824 38.8461C69.423 40.2232 70.1153 41.1951 71.4172 41.1951Z" fill="#2E2D2D"/>
</g>
<defs>
<clipPath id="clip0_3884_25551">
<rect width="103" height="48" fill="white"/>
</clipPath>
</defs>
</svg>
