<svg width="154" height="42" viewBox="0 0 154 42" fill="none" xmlns="http://www.w3.org/2000/svg">
<g clip-path="url(#clip0_3884_25556)">
<path d="M81.2578 34.3367V29H82.0487V33.663H84.6798V34.3367H81.2578Z" fill="#2E2D2D"/>
<path d="M86.3223 34.3347L84.6797 30.5195H85.5009L86.7937 33.7064H86.5733L87.8888 30.5195H88.672L87.0219 34.3347H86.3223Z" fill="#2E2D2D"/>
<path d="M89.4279 34.3345V30.5193H90.196V34.3345H89.4279ZM89.3672 29.7244V28.9297H90.2569V29.7244H89.3672Z" fill="#2E2D2D"/>
<path d="M92.6035 34.3347L90.9609 30.5195H91.7822L93.075 33.7064H92.8544L94.1699 30.5195H94.9532L93.303 34.3347H92.6035Z" fill="#2E2D2D"/>
<path d="M97.9609 34.3367V29H98.7517V31.3013H101.763V29H102.554V34.3367H101.763V31.9598H98.7517V34.3367H97.9609Z" fill="#2E2D2D"/>
<path d="M105.368 34.4046C105.028 34.4046 104.732 34.3264 104.478 34.1699C104.225 34.0135 104.027 33.7864 103.885 33.4887C103.748 33.1909 103.68 32.8377 103.68 32.4289C103.68 32.015 103.748 31.6618 103.885 31.3691C104.027 31.0764 104.225 30.8518 104.478 30.6954C104.732 30.5339 105.028 30.4531 105.368 30.4531C105.703 30.4531 105.994 30.5364 106.243 30.7029C106.491 30.8694 106.655 31.0966 106.736 31.3843H106.653L106.729 30.5213H107.474C107.459 30.6777 107.444 30.8342 107.428 30.9906C107.419 31.142 107.414 31.2909 107.414 31.4372V34.3364H106.646V33.4887H106.729C106.648 33.7712 106.48 33.9958 106.227 34.1624C105.979 34.3238 105.692 34.4046 105.368 34.4046ZM105.558 33.8066C105.887 33.8066 106.151 33.6905 106.348 33.4583C106.552 33.2262 106.653 32.883 106.653 32.4289C106.653 31.9747 106.552 31.6341 106.348 31.4069C106.151 31.1748 105.887 31.0588 105.558 31.0588C105.223 31.0588 104.955 31.1748 104.752 31.4069C104.554 31.6341 104.455 31.9747 104.455 32.4289C104.455 32.883 104.554 33.2262 104.752 33.4583C104.95 33.6905 105.218 33.8066 105.558 33.8066Z" fill="#2E2D2D"/>
<path d="M110.726 34.4051C110.391 34.4051 110.099 34.3218 109.852 34.1553C109.603 33.9887 109.438 33.7616 109.357 33.4739H109.44V34.3369H108.68V28.7656H109.449V31.3696H109.357C109.443 31.087 109.608 30.8649 109.852 30.7034C110.099 30.5369 110.391 30.4536 110.726 30.4536C111.066 30.4536 111.362 30.5343 111.615 30.6958C111.869 30.8523 112.065 31.0794 112.201 31.3772C112.343 31.6698 112.414 32.0231 112.414 32.437C112.414 32.8457 112.343 33.1989 112.201 33.4967C112.065 33.7894 111.866 34.0139 111.608 34.1704C111.355 34.3268 111.06 34.4051 110.726 34.4051ZM110.535 33.8071C110.865 33.8071 111.131 33.6935 111.334 33.4664C111.537 33.2342 111.638 32.8911 111.638 32.437C111.638 31.9777 111.537 31.6345 111.334 31.4074C111.131 31.1753 110.865 31.0592 110.535 31.0592C110.201 31.0592 109.933 31.1753 109.729 31.4074C109.532 31.6345 109.433 31.9752 109.433 32.4294C109.433 32.8835 109.532 33.2267 109.729 33.4588C109.933 33.691 110.201 33.8071 110.535 33.8071Z" fill="#2E2D2D"/>
<path d="M113.475 34.3345V30.5193H114.243V34.3345H113.475ZM113.414 29.7244V28.9297H114.304V29.7244H113.414Z" fill="#2E2D2D"/>
<path d="M115.516 34.3369V28.7656H116.284V34.3369H115.516Z" fill="#2E2D2D"/>
<path d="M117.569 34.3345V30.5193H118.337V34.3345H117.569ZM117.508 29.7244V28.9297H118.398V29.7244H117.508Z" fill="#2E2D2D"/>
<path d="M121.101 34.4031C120.685 34.4031 120.371 34.292 120.158 34.07C119.945 33.8429 119.838 33.5048 119.838 33.0556V31.1102H119.094V30.5198H119.838V29.513L120.607 29.3086V30.5198H121.672V31.1102H120.607V32.9875C120.607 33.2701 120.658 33.4719 120.759 33.5931C120.861 33.7142 121.007 33.7748 121.2 33.7748C121.296 33.7748 121.381 33.7672 121.451 33.7521C121.527 33.7319 121.596 33.7091 121.656 33.6839V34.3047C121.58 34.3349 121.491 34.3576 121.39 34.3727C121.289 34.393 121.193 34.4031 121.101 34.4031Z" fill="#2E2D2D"/>
<path d="M123.986 34.4046C123.646 34.4046 123.35 34.3264 123.095 34.1699C122.842 34.0135 122.645 33.7864 122.503 33.4887C122.365 33.1909 122.297 32.8377 122.297 32.4289C122.297 32.015 122.365 31.6618 122.503 31.3691C122.645 31.0764 122.842 30.8518 123.095 30.6954C123.35 30.5339 123.646 30.4531 123.986 30.4531C124.32 30.4531 124.611 30.5364 124.86 30.7029C125.108 30.8694 125.274 31.0966 125.354 31.3843H125.27L125.346 30.5213H126.092C126.076 30.6777 126.061 30.8342 126.046 30.9906C126.036 31.142 126.031 31.2909 126.031 31.4372V34.3364H125.263V33.4887H125.346C125.265 33.7712 125.098 33.9958 124.844 34.1624C124.596 34.3238 124.309 34.4046 123.986 34.4046ZM124.175 33.8066C124.505 33.8066 124.768 33.6905 124.967 33.4583C125.169 33.2262 125.27 32.883 125.27 32.4289C125.27 31.9747 125.169 31.6341 124.967 31.4069C124.768 31.1748 124.505 31.0588 124.175 31.0588C123.841 31.0588 123.572 31.1748 123.37 31.4069C123.171 31.6341 123.073 31.9747 123.073 32.4289C123.073 32.883 123.171 33.2262 123.37 33.4583C123.567 33.6905 123.836 33.8066 124.175 33.8066Z" fill="#2E2D2D"/>
<path d="M128.797 34.4031C128.382 34.4031 128.067 34.292 127.854 34.07C127.641 33.8429 127.535 33.5048 127.535 33.0556V31.1102H126.789V30.5198H127.535V29.513L128.303 29.3086V30.5198H129.367V31.1102H128.303V32.9875C128.303 33.2701 128.353 33.4719 128.455 33.5931C128.556 33.7142 128.704 33.7748 128.895 33.7748C128.993 33.7748 129.076 33.7672 129.147 33.7521C129.222 33.7319 129.291 33.7091 129.352 33.6839V34.3047C129.276 34.3349 129.188 34.3576 129.086 34.3727C128.985 34.393 128.888 34.4031 128.797 34.4031Z" fill="#2E2D2D"/>
<path d="M130.225 34.3345V30.5193H130.993V34.3345H130.225ZM130.164 29.7244V28.9297H131.054V29.7244H130.164Z" fill="#2E2D2D"/>
<path d="M133.919 34.4046C133.538 34.4046 133.209 34.3264 132.929 34.1699C132.651 34.0084 132.435 33.7813 132.284 33.4887C132.131 33.1909 132.055 32.8377 132.055 32.4289C132.055 32.0201 132.131 31.6693 132.284 31.3767C132.435 31.0789 132.651 30.8518 132.929 30.6954C133.209 30.5339 133.538 30.4531 133.919 30.4531C134.298 30.4531 134.627 30.5339 134.907 30.6954C135.191 30.8518 135.409 31.0789 135.561 31.3767C135.718 31.6693 135.796 32.0201 135.796 32.4289C135.796 32.8377 135.718 33.1909 135.561 33.4887C135.409 33.7813 135.191 34.0084 134.907 34.1699C134.627 34.3264 134.298 34.4046 133.919 34.4046ZM133.919 33.8066C134.253 33.8066 134.519 33.6905 134.717 33.4583C134.914 33.2262 135.013 32.883 135.013 32.4289C135.013 31.9747 134.914 31.6341 134.717 31.4069C134.519 31.1748 134.253 31.0588 133.919 31.0588C133.588 31.0588 133.325 31.1748 133.127 31.4069C132.929 31.6341 132.831 31.9747 132.831 32.4289C132.831 32.883 132.927 33.2262 133.12 33.4583C133.317 33.6905 133.583 33.8066 133.919 33.8066Z" fill="#2E2D2D"/>
<path d="M136.842 34.3364V31.4372C136.842 31.2909 136.834 31.142 136.819 30.9906C136.809 30.8342 136.796 30.6777 136.781 30.5213H137.526L137.594 31.3237H137.504C137.62 31.0411 137.8 30.8266 138.044 30.6802C138.286 30.5288 138.568 30.4531 138.888 30.4531C139.339 30.4531 139.679 30.5768 139.907 30.8241C140.14 31.0714 140.257 31.4549 140.257 31.9747V34.3364H139.488V32.0201C139.488 31.6819 139.42 31.4397 139.283 31.2934C139.151 31.142 138.949 31.0663 138.675 31.0663C138.35 31.0663 138.091 31.1672 137.899 31.3691C137.706 31.5659 137.61 31.8333 137.61 32.1714V34.3364H136.842Z" fill="#2E2D2D"/>
<path d="M83.6633 41.9807C83.1159 41.9807 82.6495 41.8696 82.2641 41.6477C81.8789 41.4256 81.5823 41.1102 81.3744 40.7014C81.1717 40.2876 81.0703 39.8006 81.0703 39.2404C81.0703 38.6803 81.1717 38.1958 81.3744 37.787C81.5823 37.3783 81.8789 37.0628 82.2641 36.8409C82.6495 36.6188 83.1159 36.5078 83.6633 36.5078C84.0436 36.5078 84.3832 36.5633 84.6824 36.6743C84.9815 36.7853 85.2426 36.9468 85.4656 37.1588L85.1918 37.787C84.9485 37.5802 84.7102 37.4313 84.477 37.3405C84.2489 37.2496 83.9827 37.2042 83.6786 37.2042C83.1007 37.2042 82.6596 37.3808 82.3554 37.7341C82.0513 38.0873 81.8992 38.5894 81.8992 39.2404C81.8992 39.8914 82.0513 40.3961 82.3554 40.7544C82.6596 41.1077 83.1007 41.2843 83.6786 41.2843C83.9827 41.2843 84.2489 41.2389 84.477 41.1481C84.7102 41.0571 84.9485 40.9058 85.1918 40.6938L85.4656 41.3222C85.2426 41.5341 84.9815 41.6981 84.6824 41.8142C84.3832 41.9252 84.0436 41.9807 83.6633 41.9807Z" fill="#2E2D2D"/>
<path d="M88.0548 41.9827C87.4363 41.9827 86.9496 41.8086 86.5947 41.4603C86.2399 41.1122 86.0625 40.6302 86.0625 40.0146C86.0625 39.6159 86.1384 39.2676 86.2905 38.97C86.4477 38.6722 86.6632 38.4425 86.9369 38.281C87.2158 38.1145 87.5377 38.0312 87.9027 38.0312C88.2626 38.0312 88.5643 38.107 88.8076 38.2584C89.0509 38.4098 89.236 38.6243 89.3627 38.9018C89.4894 39.1743 89.5528 39.4973 89.5528 39.8707V40.113H86.6632V39.6739H89.0282L88.8988 39.7724C88.8988 39.3938 88.8127 39.1011 88.6403 38.8942C88.473 38.6822 88.2297 38.5763 87.9103 38.5763C87.5555 38.5763 87.2816 38.6999 87.089 38.9472C86.8964 39.1894 86.8001 39.5251 86.8001 39.954V40.0297C86.8001 40.4788 86.9091 40.8169 87.1271 41.044C87.3501 41.2711 87.6644 41.3846 88.07 41.3846C88.2931 41.3846 88.5009 41.3544 88.6936 41.2938C88.8912 41.2283 89.0788 41.1222 89.2563 40.9759L89.5072 41.4982C89.3297 41.6547 89.1143 41.7758 88.8609 41.8615C88.6074 41.9423 88.3386 41.9827 88.0548 41.9827Z" fill="#2E2D2D"/>
<path d="M90.5765 41.9146V39.0153C90.5765 38.869 90.5688 38.7202 90.5536 38.5687C90.5435 38.4123 90.5308 38.2558 90.5156 38.0994H91.2608L91.3293 38.9018H91.2381C91.3546 38.6191 91.5346 38.4047 91.7779 38.2584C92.0212 38.107 92.3027 38.0312 92.6221 38.0312C93.0732 38.0312 93.4128 38.1549 93.641 38.4022C93.8742 38.6495 93.9908 39.0331 93.9908 39.5528V41.9146H93.2228V39.5982C93.2228 39.2601 93.1543 39.0178 93.0174 38.8716C92.8856 38.7202 92.6828 38.6444 92.4091 38.6444C92.0846 38.6444 91.8261 38.7454 91.6334 38.9472C91.4408 39.144 91.3445 39.4115 91.3445 39.7496V41.9146H90.5765Z" fill="#2E2D2D"/>
<path d="M96.7341 41.9812C96.3184 41.9812 96.0041 41.8701 95.7912 41.6482C95.5782 41.421 95.4718 41.0829 95.4718 40.6337V38.6883H94.7266V38.0979H95.4718V37.0912L96.2398 36.8867V38.0979H97.3044V38.6883H96.2398V40.5656C96.2398 40.8483 96.2905 41.0501 96.3919 41.1712C96.4933 41.2923 96.6403 41.3529 96.833 41.3529C96.9293 41.3529 97.0129 41.3453 97.0839 41.3302C97.16 41.3101 97.2284 41.2873 97.2892 41.2621V41.8828C97.2131 41.9131 97.1244 41.9358 97.0231 41.9509C96.9217 41.9711 96.8254 41.9812 96.7341 41.9812Z" fill="#2E2D2D"/>
<path d="M99.883 41.9827C99.2645 41.9827 98.7778 41.8086 98.423 41.4603C98.0681 41.1122 97.8906 40.6302 97.8906 40.0146C97.8906 39.6159 97.9667 39.2676 98.1188 38.97C98.2759 38.6722 98.4914 38.4425 98.7652 38.281C99.044 38.1145 99.3659 38.0312 99.7309 38.0312C100.091 38.0312 100.392 38.107 100.636 38.2584C100.879 38.4098 101.064 38.6243 101.191 38.9018C101.318 39.1743 101.381 39.4973 101.381 39.8707V40.113H98.4914V39.6739H100.856L100.727 39.7724C100.727 39.3938 100.641 39.1011 100.469 38.8942C100.301 38.6822 100.058 38.5763 99.7385 38.5763C99.3837 38.5763 99.1099 38.6999 98.9173 38.9472C98.7246 39.1894 98.6282 39.5251 98.6282 39.954V40.0297C98.6282 40.4788 98.7373 40.8169 98.9552 41.044C99.1783 41.2711 99.4926 41.3846 99.8982 41.3846C100.121 41.3846 100.329 41.3544 100.522 41.2938C100.719 41.2283 100.907 41.1222 101.084 40.9759L101.335 41.4982C101.158 41.6547 100.943 41.7758 100.689 41.8615C100.436 41.9423 100.167 41.9827 99.883 41.9827Z" fill="#2E2D2D"/>
<path d="M102.405 41.9146V39.0457C102.405 38.8892 102.4 38.7328 102.39 38.5763C102.385 38.4148 102.375 38.2558 102.359 38.0994H103.105L103.188 39.0835H103.067C103.117 38.8463 103.203 38.6495 103.325 38.493C103.447 38.3366 103.594 38.2206 103.766 38.1449C103.944 38.0692 104.129 38.0312 104.321 38.0312C104.402 38.0312 104.471 38.0363 104.527 38.0464C104.582 38.0514 104.638 38.0616 104.694 38.0767L104.686 38.758C104.6 38.7227 104.524 38.7024 104.458 38.6974C104.397 38.6873 104.321 38.6822 104.23 38.6822C104.007 38.6822 103.817 38.7328 103.66 38.8337C103.503 38.9295 103.383 39.0608 103.302 39.2273C103.221 39.3938 103.181 39.573 103.181 39.7648V41.9146H102.405Z" fill="#2E2D2D"/>
<path d="M80.9375 24.1254V0H86.3003V9.6844H97.4039V0H102.801V24.1254H97.4039V14.0989H86.3003V24.1254H80.9375Z" fill="#2E2D2D"/>
<path d="M104.883 24.1254L116.021 0H120.455L131.731 24.1254H126.3L123.377 17.4182L125.474 18.8897H111.071L113.202 17.4182L110.28 24.1254H104.883ZM118.221 5.61217L113.786 16.0837L112.858 14.7833H123.687L122.896 16.0837L118.358 5.61217H118.221Z" fill="#2E2D2D"/>
<path d="M133.812 24.1254V0H144.985C147.643 0 149.695 0.558935 151.139 1.67681C152.583 2.79468 153.304 4.3232 153.304 6.26236C153.304 7.69962 152.868 8.92015 151.998 9.92395C151.15 10.9278 149.981 11.6007 148.491 11.9429V11.3954C150.234 11.692 151.574 12.3536 152.514 13.3803C153.476 14.3841 153.957 15.6958 153.957 17.3155C153.957 19.4601 153.19 21.1369 151.654 22.346C150.142 23.5323 148.045 24.1254 145.364 24.1254H133.812ZM138.935 20.1559H144.71C146.04 20.1559 147.059 19.905 147.77 19.4031C148.48 18.9012 148.835 18.1026 148.835 17.0076C148.835 15.8898 148.48 15.0912 147.77 14.6121C147.059 14.1102 146.04 13.8593 144.71 13.8593H138.935V20.1559ZM138.935 9.92395H144.023C145.421 9.92395 146.452 9.673 147.117 9.1711C147.781 8.6692 148.113 7.91635 148.113 6.91255C148.113 5.93155 147.781 5.19011 147.117 4.68821C146.452 4.18631 145.421 3.93536 144.023 3.93536H138.935V9.92395Z" fill="#2E2D2D"/>
<path d="M38.0638 25.5633C40.3437 25.5633 42.1918 23.7235 42.1918 21.4541V20.546C42.1918 18.2765 40.3437 16.4368 38.0638 16.4368C31.2244 16.4368 25.68 10.9175 25.68 4.10922C25.68 1.83977 23.8318 2.77786e-07 21.5521 7.93842e-08L20.6399 0C18.3601 -1.98402e-07 16.5119 1.83975 16.5119 4.10921C16.5119 10.9176 10.9674 16.4368 4.12798 16.4368C1.84816 16.4368 1.39518e-07 18.2765 3.98713e-08 20.546L0 21.454C-9.9657e-08 23.7235 1.84818 25.5633 4.12799 25.5633C10.9674 25.5633 16.5119 31.0825 16.5119 37.8908C16.5119 40.1603 18.3601 42 20.6398 42H21.5521C23.8319 42 25.68 40.1603 25.68 37.8908C25.68 31.0825 31.2244 25.5633 38.0638 25.5633Z" fill="#2E2D2D"/>
<path d="M71.9153 25.5633C74.1951 25.5633 76.0432 23.7235 76.0432 21.4541V20.546C76.0432 18.2765 74.1951 16.4368 71.9153 16.4368C65.0759 16.4368 59.5315 10.9175 59.5315 4.10922C59.5315 1.83977 57.6834 2.77786e-07 55.4036 7.93842e-08L54.4914 0C52.2115 -1.98402e-07 50.3634 1.83975 50.3634 4.10921C50.3634 10.9176 44.8189 16.4368 37.9795 16.4368C35.6997 16.4368 33.8516 18.2765 33.8516 20.546V21.454C33.8516 23.7235 35.6997 25.5633 37.9795 25.5633C44.8189 25.5633 50.3634 31.0825 50.3634 37.8908C50.3634 40.1603 52.2115 42 54.4914 42H55.4036C57.6834 42 59.5315 40.1603 59.5315 37.8908C59.5315 31.0825 65.0759 25.5633 71.9153 25.5633Z" fill="#2E2D2D"/>
</g>
<defs>
<clipPath id="clip0_3884_25556">
<rect width="154" height="42" fill="white"/>
</clipPath>
</defs>
</svg>
