<svg width="109" height="40" viewBox="0 0 109 40" fill="none" xmlns="http://www.w3.org/2000/svg">
<g clip-path="url(#clip0_3884_26224)">
<path d="M-73.0625 -70.7461C10.1428 -70.7461 93.3482 -70.7461 179.075 -70.7461C179.075 -12.1342 179.075 46.4778 179.075 106.866C95.8695 106.866 12.6642 106.866 -73.0625 106.866C-73.0625 48.2539 -73.0625 -10.358 -73.0625 -70.7461Z" fill="#FBFBF9"/>
<path d="M-73.0625 -70.7461C10.1428 -70.7461 93.3482 -70.7461 179.075 -70.7461C179.075 -12.1342 179.075 46.4778 179.075 106.866C95.8695 106.866 12.6642 106.866 -73.0625 106.866C-73.0625 48.2539 -73.0625 -10.358 -73.0625 -70.7461Z" fill="#FBFBF9"/>
<path d="M11.0778 2.08984C12.666 2.22633 13.9062 2.38855 15.2701 3.28387C15.6445 4.21781 15.5522 4.7602 15.1824 5.67776C15.0481 6.02188 15.0481 6.02188 14.9111 6.37294C14.8134 6.61568 14.7157 6.85841 14.615 7.1085C13.655 9.58468 12.8986 12.0464 12.2756 14.6272C12.8685 14.6272 13.4614 14.6272 14.0723 14.6272C14.1157 14.3178 14.1157 14.3178 14.16 14.0022C15.236 9.59343 19.1592 5.65148 22.885 3.30603C23.804 2.92316 24.4644 2.88382 25.4514 2.98537C26.1505 3.68225 26.3467 4.17962 26.3568 5.1647C26.2972 5.85431 26.2344 6.49667 26.0503 7.16447C25.8527 7.26298 25.655 7.36149 25.4514 7.46298C25.3032 7.01969 25.3032 7.01969 25.152 6.56746C22.2518 6.56746 20.5263 7.94654 18.4845 9.90468C17.0572 11.4307 15.9787 13.1025 14.9706 14.9257C15.3227 14.9534 15.3227 14.9534 15.6818 14.9816C17.5222 15.3928 19.382 16.1928 20.6602 17.6122C21.8052 17.2144 22.5882 16.7187 23.505 15.9331C25.2434 14.5039 27.1069 13.3776 29.0448 12.2391C28.7484 11.5003 28.7484 11.5003 28.4459 10.7466C29.529 10.3867 29.9607 10.4542 31.0661 10.8398C32.0393 11.3436 32.0393 11.3436 32.3388 11.9406C32.592 11.7928 32.8452 11.6451 33.1061 11.4928C34.2493 10.9956 34.9976 10.9268 36.2316 11.0451C36.8305 11.6421 36.8305 11.6421 36.9428 12.4816C36.9117 13.9534 36.3681 15.3114 35.8947 16.6911C35.6497 17.5525 35.5798 18.217 35.6327 19.1048C37.3757 18.9355 37.3757 18.9355 38.9267 18.2092C39.1824 17.5342 39.1824 17.5342 39.2636 16.7354C39.3064 16.4433 39.3493 16.1512 39.3934 15.8503C39.4588 15.3926 39.4588 15.3926 39.5256 14.9257C39.6947 14.0605 39.8687 13.1964 40.0438 12.3324C40.1795 11.5957 40.1795 11.5957 39.825 10.7466C41.0396 10.8863 42.0607 11.0091 43.119 11.6421C42.9883 12.867 42.7701 13.9327 42.3516 15.0936C41.9709 16.1697 41.8323 17.0575 41.9212 18.2092C42.6078 18.4659 42.6078 18.4659 43.4184 18.5078C44.6222 17.6054 44.9492 16.5359 45.29 15.1309C45.3904 14.7503 45.4907 14.3698 45.5941 13.9777C45.8078 12.8686 45.855 11.8724 45.814 10.7466C47.1284 10.8989 48.0111 11.2009 49.108 11.9406C48.989 13.0974 48.704 13.9889 48.1909 15.0189C47.5183 16.4423 47.5115 17.546 47.6107 19.1048C48.1048 19.2033 48.5989 19.3018 49.108 19.4033C49.0956 19.1201 49.0833 18.8369 49.0706 18.5451C49.108 17.6122 49.108 17.6122 49.7069 17.0152C50.3432 17.1272 50.3432 17.1272 50.9047 17.3137C50.8059 17.9048 50.7071 18.4958 50.6053 19.1048C51.4792 19.0869 51.4792 19.0869 52.402 18.8063C52.9251 18.0761 52.9251 18.0761 53.2254 17.1458C53.3455 16.821 53.4655 16.4963 53.5892 16.1617C54.1985 14.319 54.5796 12.6954 54.4981 10.7466C55.8628 10.8774 56.7669 11.0004 57.7921 11.9406C57.7342 12.0999 57.6763 12.2592 57.6166 12.4233C56.9289 14.3851 56.2948 16.4142 56.2948 18.5078C57.686 18.363 57.686 18.363 58.9899 17.9107C59.2348 17.2122 59.4407 16.5355 59.6262 15.8212C59.7065 15.5181 59.7065 15.5181 59.7885 15.2089C60.1756 13.6684 60.2987 12.3233 60.1877 10.7466C61.5524 10.8774 62.4565 11.0004 63.4816 11.9406C63.3788 13.3498 63.1863 14.416 62.5646 15.6906C61.9749 16.913 61.8696 17.7603 61.9844 19.1048C63.2305 19.1291 64.3642 19.0995 65.5778 18.8063C65.479 18.6092 65.3801 18.4122 65.2783 18.2092C65.0599 16.0572 65.1774 14.5857 66.4761 12.8361C68.2606 10.8349 68.2606 10.8349 69.7362 10.6918C70.8751 10.6561 71.8068 10.6561 72.7646 11.3436C73.1149 12.042 73.1138 12.488 73.1202 13.2652C73.1244 13.4988 73.1287 13.7324 73.1331 13.973C73.064 14.6272 73.064 14.6272 72.4651 15.5227C71.971 15.5227 71.477 15.5227 70.9679 15.5227C71.0667 14.3406 71.1655 13.1585 71.2673 11.9406C69.9333 12.4725 69.4517 12.6984 68.5723 13.7316C68.2839 14.5941 68.2143 15.201 68.198 16.101C68.1903 16.3562 68.1825 16.6113 68.1746 16.8741C68.296 17.7865 68.5024 18.1726 69.1712 18.8063C70.4922 19.1292 71.8709 19.0932 73.105 18.4973C74.7295 17.2362 75.5587 15.5122 75.8971 13.5136C75.9962 12.5891 76.0585 11.6762 76.0585 10.7466C77.1722 10.8979 78.0752 11.0797 79.0531 11.6421C78.9406 13.1271 78.6696 14.3215 78.1173 15.7092C77.6318 16.9608 77.4255 17.7838 77.8553 19.1048C78.4218 19.3082 78.4218 19.3082 79.0531 19.4033C79.9122 18.5468 79.9402 17.5833 79.9514 16.4182C79.7106 15.5532 79.7106 15.5532 79.3525 14.9257C79.6304 14.9503 79.9084 14.9749 80.1947 15.0003C81.7957 15.0068 83.3107 14.4083 84.7426 13.7316C85.085 13.0489 85.073 12.6592 85.0608 11.9033C85.0515 11.3307 85.0515 11.3307 85.0421 10.7466C86.0533 10.6762 86.7497 10.7118 87.6997 11.0824C88.336 11.6421 88.336 11.6421 88.4296 12.5936C88.3987 12.8706 88.3678 13.1477 88.336 13.4331C88.4916 13.2573 88.6471 13.0814 88.8074 12.9002C89.1207 12.5637 89.1207 12.5637 89.4402 12.2204C89.6452 11.9953 89.8502 11.7702 90.0614 11.5383C90.7316 11.0451 90.7316 11.0451 91.5423 11.0835C92.2289 11.3436 92.2289 11.3436 92.5283 11.9406C92.5403 12.5375 92.5413 13.1348 92.5283 13.7316C92.4295 13.5346 92.3307 13.3376 92.2289 13.1346C89.8932 13.9454 89.8932 13.9454 88.0366 15.5227C87.8389 15.5227 87.6413 15.5227 87.4377 15.5227C87.4377 15.7197 87.4377 15.9167 87.4377 16.1197C87.7139 16.1584 87.7139 16.1584 87.9956 16.1978C89.9901 16.5435 89.9901 16.5435 90.7316 17.4443C90.9461 17.9922 91.1439 18.5468 91.3305 19.1048C92.3681 18.957 92.3681 18.957 93.4267 18.8063C93.4344 18.5538 93.4421 18.3014 93.4501 18.0413C93.6691 13.6745 93.6691 13.6745 95.4374 12.0724C96.9674 10.9342 98.3847 10.496 100.314 10.7466C101.503 11.1571 102.273 11.7488 103.009 12.7801C103.423 14.0951 103.229 15.1188 102.822 16.4182C102.648 17.3413 102.85 18.1883 103.009 19.1048C104.283 19.4512 105.31 19.3322 106.603 19.1048C105.618 20.1568 104.879 20.8288 103.411 20.9751C102.99 20.9728 102.99 20.9728 102.56 20.9704C102.279 20.972 101.998 20.9735 101.708 20.9751C100.895 20.894 100.431 20.6663 99.7151 20.2988C99.2108 20.484 98.712 20.6847 98.2179 20.8958C96.974 21.0541 96.5514 20.9859 95.5041 20.2615C95.2138 20.0768 94.9236 19.8921 94.6245 19.7018C93.7971 19.8674 93.7971 19.8674 93.1272 20.2988C91.9962 20.8625 90.7548 20.8695 89.5338 20.5973C88.8206 19.8945 88.4512 19.1099 88.0366 18.2092C87.8389 17.9137 87.6413 17.6182 87.4377 17.3137C87.24 17.3137 87.0424 17.3137 86.8388 17.3137C86.5423 18.2988 86.2459 19.2839 85.9404 20.2988C85.4463 20.2988 84.9522 20.2988 84.4432 20.2988C84.2455 20.1018 84.0479 19.9048 83.8443 19.7018C83.9168 18.7293 83.9168 18.7293 84.1063 17.5749C84.1673 17.1924 84.2283 16.8099 84.2911 16.4159C84.3413 16.1211 84.3915 15.8264 84.4432 15.5227C83.455 15.7197 82.4668 15.9167 81.4487 16.1197C81.466 16.3429 81.4834 16.5661 81.5013 16.796C81.6105 19.172 81.6105 19.172 80.8872 20.2055C79.5552 20.7632 78.3802 20.8307 76.9569 20.5973C75.8412 19.9485 75.398 19.3474 74.8607 18.2092C74.7087 18.3532 74.5566 18.4971 74.3999 18.6453C72.656 20.2405 71.3305 21.0429 68.8788 20.9961C67.8297 20.8225 67.0705 20.2608 66.1767 19.7018C65.2574 19.6277 65.2574 19.6277 64.4923 20.1495C63.2168 20.7146 62.1631 20.7952 60.7866 20.5973C60.0192 20.1869 60.0192 20.1869 59.5888 19.7018C59.5888 19.5048 59.5888 19.3078 59.5888 19.1048C59.3294 19.2956 59.07 19.4865 58.8027 19.6831C57.7787 20.3069 57.1869 20.572 55.9954 20.5973C55.7421 20.4434 55.4889 20.2895 55.228 20.1309C54.9872 19.9893 54.7463 19.8477 54.4981 19.7018C53.7608 19.9159 53.7608 19.9159 53.0009 20.2988C51.1466 20.6949 51.1466 20.6949 50.1186 20.2801C49.1632 19.9042 48.8411 20.2217 47.9102 20.5973C46.6752 20.5541 46.036 20.486 45.0841 19.6831C44.9297 19.4923 44.7753 19.3014 44.6162 19.1048C44.4124 19.2956 44.2086 19.4865 43.9986 19.6831C42.9458 20.42 42.3063 20.5973 41.0228 20.5973C40.7696 20.3941 40.5164 20.191 40.2555 19.9816C40.0146 19.7908 39.7738 19.5999 39.5256 19.4033C38.5979 19.5959 37.8552 19.9422 36.999 20.3361C35.9829 20.682 35.2019 20.7133 34.1355 20.5973C33.4056 20.1869 33.4056 20.1869 32.9377 19.4033C32.7047 17.6863 32.9243 16.2427 33.5366 14.6272C33.649 13.9325 33.7519 13.2362 33.836 12.5376C33.5519 12.6854 33.2678 12.8331 32.9751 12.9854C32.0393 13.4331 32.0393 13.4331 31.4404 13.4331C30.1182 18.4528 29.0419 23.4979 28.4459 28.657C26.9861 28.3958 26.9861 28.3958 26.6492 28.06C26.4729 25.5753 26.775 23.1721 27.192 20.7279C27.2416 20.4156 27.2912 20.1034 27.3423 19.7817C27.6819 17.7233 28.1548 15.7325 28.7454 13.7316C26.887 14.6822 25.3019 15.768 23.7038 17.1132C23.0558 17.6122 23.0558 17.6122 22.1575 17.9107C22.2656 19.1778 22.4642 20.0577 23.0745 21.1757C24.2222 23.6273 23.9859 26.7948 23.1494 29.31C22.3888 31.0906 21.2448 32.3308 19.4624 33.1346C18.4576 33.2803 17.7412 33.3529 16.8434 32.8303C16.0311 32.1875 15.6007 31.7352 15.2701 30.7466C14.8297 26.4446 16.3172 23.3291 18.9255 20.0504C19.1027 19.8369 19.2798 19.6233 19.4624 19.4033C18.8537 17.9483 17.8266 17.4265 16.4679 16.7167C15.4785 16.3289 15.4785 16.3289 14.6712 16.1197C13.2417 19.2589 12.5717 22.5466 12.2756 25.9704C11.9791 25.8227 11.9791 25.8227 11.6767 25.6719C11.7832 22.3706 12.3919 19.3177 13.1739 16.1197C12.6798 16.0212 12.1857 15.9227 11.6767 15.8212C11.662 16.0167 11.6473 16.2121 11.6322 16.4135C11.5108 17.8913 11.3442 19.3283 11.0591 20.7839C10.6454 23.0995 10.7282 25.4191 10.7783 27.7615C10.0731 27.5867 9.37408 27.3859 8.68218 27.1645C7.2038 24.6656 8.17075 20.4082 8.38273 17.6122C6.69832 18.9219 5.59598 20.2723 4.48987 22.0898C3.77867 21.9966 3.77867 21.9966 2.99262 21.7913C2.39372 20.8958 2.39372 20.8958 2.375 20.2242C3.20176 18.0911 5.52508 16.57 7.48438 15.5227C8.55117 15.2615 8.55117 15.2615 9.28108 15.2242C9.29032 15.0528 9.29956 14.8815 9.30908 14.705C9.47273 12.5186 10.0152 10.5267 10.6473 8.43313C10.8433 7.78236 11.0372 7.13094 11.2287 6.47884C11.3146 6.19457 11.4005 5.9103 11.489 5.61742C11.6902 4.71601 11.7093 3.90588 11.6767 2.98537C11.3802 2.88686 11.0838 2.78835 10.7783 2.68686C10.8771 2.48984 10.976 2.29283 11.0778 2.08984Z" fill="#2E2D2D"/>
<path d="M11.0778 2.08984C12.666 2.22633 13.9062 2.38855 15.2701 3.28387C15.6445 4.21781 15.5522 4.7602 15.1824 5.67776C15.0481 6.02188 15.0481 6.02188 14.9111 6.37294C14.8134 6.61568 14.7157 6.85841 14.615 7.1085C13.655 9.58468 12.8986 12.0464 12.2756 14.6272C12.8685 14.6272 13.4614 14.6272 14.0723 14.6272C14.1157 14.3178 14.1157 14.3178 14.16 14.0022C15.236 9.59343 19.1592 5.65148 22.885 3.30603C23.804 2.92316 24.4644 2.88382 25.4514 2.98537C26.1505 3.68225 26.3467 4.17962 26.3568 5.1647C26.2972 5.85431 26.2344 6.49667 26.0503 7.16447C25.8527 7.26298 25.655 7.36149 25.4514 7.46298C25.3032 7.01969 25.3032 7.01969 25.152 6.56746C22.2518 6.56746 20.5263 7.94654 18.4845 9.90468C17.0572 11.4307 15.9787 13.1025 14.9706 14.9257C15.3227 14.9534 15.3227 14.9534 15.6818 14.9816C17.5222 15.3928 19.382 16.1928 20.6602 17.6122C21.8258 17.2092 22.6252 16.6916 23.5611 15.8958C27.297 12.8361 27.297 12.8361 28.7454 12.8361C28.3625 13.9812 27.958 14.0984 26.9299 14.7018C25.5608 15.5352 24.387 16.4296 23.2231 17.5271C22.7564 17.9107 22.7564 17.9107 22.1575 17.9107C22.2656 19.1778 22.4642 20.0577 23.0745 21.1757C24.2222 23.6273 23.9859 26.7948 23.1494 29.31C22.3888 31.0906 21.2448 32.3308 19.4624 33.1346C18.4576 33.2803 17.7412 33.3529 16.8434 32.8303C16.0311 32.1875 15.6007 31.7352 15.2701 30.7466C14.8297 26.4446 16.3172 23.3291 18.9255 20.0504C19.1027 19.8369 19.2798 19.6233 19.4624 19.4033C18.8537 17.9483 17.8266 17.4265 16.4679 16.7167C15.4785 16.3289 15.4785 16.3289 14.6712 16.1197C13.2417 19.2589 12.5717 22.5466 12.2756 25.9704C11.9791 25.8227 11.9791 25.8227 11.6767 25.6719C11.7832 22.3706 12.3919 19.3177 13.1739 16.1197C12.6798 16.0212 12.1857 15.9227 11.6767 15.8212C11.662 16.0167 11.6473 16.2121 11.6322 16.4135C11.5108 17.8913 11.3442 19.3283 11.0591 20.7839C10.6454 23.0995 10.7282 25.4191 10.7783 27.7615C10.0731 27.5867 9.37408 27.3859 8.68218 27.1645C7.2038 24.6656 8.17075 20.4082 8.38273 17.6122C6.69832 18.9219 5.59598 20.2723 4.48987 22.0898C3.77867 21.9966 3.77867 21.9966 2.99262 21.7913C2.39372 20.8958 2.39372 20.8958 2.375 20.2242C3.20176 18.0911 5.52508 16.57 7.48438 15.5227C8.55117 15.2615 8.55117 15.2615 9.28108 15.2242C9.29032 15.0528 9.29956 14.8815 9.30908 14.705C9.47273 12.5186 10.0152 10.5267 10.6473 8.43313C10.8433 7.78236 11.0372 7.13094 11.2287 6.47884C11.3146 6.19457 11.4005 5.9103 11.489 5.61742C11.6902 4.71601 11.7093 3.90588 11.6767 2.98537C11.3802 2.88686 11.0838 2.78835 10.7783 2.68686C10.8771 2.48984 10.976 2.29283 11.0778 2.08984Z" fill="#2E2D2D"/>
<path d="M35.3359 24.1797C36.0276 24.2782 36.7193 24.3767 37.432 24.4782C37.5308 24.9707 37.6296 25.4633 37.7315 25.9707C38.0464 25.8168 38.3614 25.6629 38.686 25.5043C39.6735 25.0761 40.2787 25.0261 41.3249 25.3737C41.1497 27.207 40.8635 28.9578 40.4265 30.7469C41.2171 30.7469 42.0076 30.7469 42.8221 30.7469C42.7542 30.3959 42.6862 30.045 42.6162 29.6834C42.4108 28.0306 42.9711 26.9005 43.9263 25.5603C44.9634 24.8338 45.7479 24.8168 47.0144 24.7767C47.3109 24.9737 47.6073 25.1707 47.9128 25.3737C48.0983 26.5361 47.9599 27.0792 47.3887 28.1163C46.7973 28.8532 46.3238 29.3689 45.5172 29.8513C45.3195 29.8513 45.1219 29.8513 44.9183 29.8513C45.0665 30.1469 45.0665 30.1469 45.2177 30.4483C45.6418 30.4646 46.0661 30.4761 46.4904 30.4857C46.8447 30.496 46.8447 30.496 47.2063 30.5066C48.021 30.4394 48.4526 30.3401 49.1106 29.8513C49.4424 29.0699 49.4424 29.0699 49.6159 28.1536C49.6869 27.8338 49.758 27.514 49.8311 27.1846C50.0256 26.1832 50.1929 25.1929 50.3084 24.1797C51.1693 24.273 51.1693 24.273 52.1051 24.4782C52.3027 24.7737 52.5004 25.0692 52.704 25.3737C52.8522 25.5215 52.8522 25.5215 53.0034 25.6722C53.4559 25.589 53.9049 25.4863 54.351 25.3737C54.797 25.2611 55.246 25.1585 55.6985 25.0752C55.9979 25.3737 55.9979 25.3737 56.0541 26.4931C56.0428 27.5495 55.834 28.285 55.399 29.2543C55.2865 29.8491 55.1835 30.4459 55.0996 31.0454C55.6925 30.9469 56.2854 30.8483 56.8963 30.7469C56.8778 30.3959 56.8592 30.045 56.8401 29.6834C56.8461 28.0185 57.308 26.7813 58.4684 25.5603C59.4701 24.9702 60.2291 24.8195 61.3881 24.7767C61.6845 24.9737 61.981 25.1707 62.2864 25.3737C62.4706 26.414 62.5062 27.1264 61.9144 28.0335C61.4591 28.5652 60.9898 29.0628 60.4897 29.5528C60.3218 29.7206 60.1539 29.8884 59.9809 30.0612C59.8523 30.189 59.7238 30.3167 59.5913 30.4483C61.0717 30.8083 62.0494 30.6361 63.4842 30.1498C63.6363 29.4912 63.7854 28.8318 63.9334 28.1722C64.0168 27.8051 64.1001 27.438 64.186 27.0598C64.3649 26.0688 64.4197 25.1829 64.3826 24.1797C65.0743 24.2782 65.766 24.3767 66.4787 24.4782C66.6269 25.217 66.6269 25.217 66.7782 25.9707C67.0931 25.8168 67.4081 25.6629 67.7327 25.5043C68.7202 25.0761 69.3254 25.0261 70.3716 25.3737C70.4996 27.2886 70.0294 28.9218 69.4732 30.7469C70.5359 30.7709 71.4448 30.7299 72.4677 30.4483C72.4615 30.0728 72.4554 29.6972 72.449 29.3103C72.4464 27.6886 72.5979 26.0898 72.7672 24.4782C74.489 24.7394 74.489 24.7394 75.1628 25.0752C75.1195 25.4631 75.0763 25.851 75.0318 26.2506C75.0051 26.4934 74.9785 26.7362 74.9511 26.9864C74.8929 27.5006 74.8313 28.0145 74.7662 28.5279C74.7365 28.7676 74.7068 29.0073 74.6762 29.2543C74.6476 29.476 74.619 29.6976 74.5896 29.926C74.5811 30.0983 74.5726 30.2707 74.5639 30.4483C74.8581 30.8082 74.8581 30.8082 75.4166 30.776C76.0307 30.7663 76.6448 30.7566 77.2589 30.7469C76.66 31.6424 76.66 31.6424 75.7617 31.9409C73.6579 32.0085 73.6579 32.0085 72.5613 31.7543C71.6648 31.6094 71.2063 31.9026 70.3716 32.2394C69.2174 32.3605 68.5364 32.379 67.5081 31.8289C66.8056 30.5502 67.315 29.4121 67.6765 28.0603C67.7795 27.5634 67.8803 27.0661 67.976 26.5677C67.2365 26.692 67.2365 26.692 66.4787 27.1648C65.8275 28.2869 65.5944 29.4548 65.4119 30.7282C65.3687 31.0299 65.3254 31.3316 65.2809 31.6424C65.0833 31.7409 64.8856 31.8394 64.682 31.9409C63.8959 31.5118 63.8959 31.5118 63.1848 31.0454C62.8883 31.2578 62.8883 31.2578 62.5859 31.4745C61.4877 32.0446 60.5289 32.2545 59.2919 32.2394C59.0325 32.1347 58.7731 32.0301 58.5058 31.9222C57.5051 31.5284 56.9923 31.8826 55.9979 32.2394C54.0953 32.368 54.0953 32.368 53.0034 31.6424C52.8468 29.8626 53.1551 28.2874 53.6023 26.5677C52.8595 26.7415 52.8595 26.7415 52.1051 27.1648C51.6921 27.9366 51.6921 27.9366 51.4688 28.8812C51.3257 29.4035 51.3257 29.4035 51.1798 29.9365C50.5048 32.6831 49.899 35.3823 49.7095 38.2095C49.2154 38.111 48.7213 38.0125 48.2122 37.911C48.1376 35.5427 48.2991 33.3605 48.8111 31.0454C48.5703 31.1931 48.3294 31.3409 48.0812 31.4931C46.5493 32.1361 45.1274 32.1282 43.5146 31.7543C42.5657 31.6009 41.9256 31.9281 41.0254 32.2394C39.7826 32.3366 39.3861 32.344 38.3304 31.6424C37.9988 29.9296 38.4505 28.2081 38.9293 26.5677C38.1897 26.692 38.1897 26.692 37.432 27.1648C36.6589 28.7916 36.2823 30.4786 35.9348 32.2394C34.7744 31.9782 34.7744 31.9782 34.4375 31.6424C34.4832 29.5452 34.8063 27.4809 35.2154 25.4274C35.354 24.7891 35.354 24.7891 35.3359 24.1797Z" fill="#2E2D2D"/>
<path d="M85.0465 10.7441C86.0578 10.6737 86.7541 10.7093 87.7042 11.0799C88.3405 11.6396 88.3405 11.6396 88.4341 12.5911C88.4032 12.8681 88.3723 13.1452 88.3405 13.4306C88.496 13.2548 88.6516 13.0789 88.8119 12.8978C89.0207 12.6734 89.2296 12.4491 89.4447 12.218C89.6497 11.9929 89.8547 11.7677 90.0658 11.5358C90.7361 11.0426 90.7361 11.0426 91.5467 11.0811C92.2333 11.3411 92.2333 11.3411 92.5328 11.9381C92.5448 12.535 92.5458 13.1323 92.5328 13.7292C92.3846 13.4336 92.3846 13.4336 92.2333 13.1321C89.8977 13.943 89.8977 13.943 88.041 15.5202C87.8434 15.5202 87.6458 15.5202 87.4421 15.5202C87.4421 15.7172 87.4421 15.9142 87.4421 16.1172C87.6263 16.143 87.8104 16.1688 88.0001 16.1953C89.9946 16.541 89.9946 16.541 90.7361 17.4418C90.9506 17.9898 91.1484 18.5443 91.335 19.1023C92.0267 19.0038 92.7185 18.9053 93.4311 18.8038C93.4427 18.4251 93.4427 18.4251 93.4545 18.0389C93.6736 13.672 93.6736 13.672 95.4419 12.0699C96.9718 10.9317 98.3891 10.4935 100.319 10.7441C101.507 11.1546 102.278 11.7463 103.014 12.7777C103.427 14.0926 103.234 15.1163 102.826 16.4157C102.653 17.3388 102.854 18.1858 103.014 19.1023C104.288 19.4487 105.314 19.3297 106.607 19.1023C105.622 20.1543 104.883 20.8264 103.416 20.9726C102.994 20.9703 102.994 20.9703 102.564 20.968C102.283 20.9695 102.002 20.971 101.713 20.9726C100.899 20.8915 100.435 20.6638 99.7196 20.2963C99.2152 20.4816 98.7164 20.6823 98.2224 20.8933C96.9784 21.0516 96.5559 20.9834 95.5086 20.259C95.2183 20.0743 94.928 19.8896 94.6289 19.6993C93.8015 19.8649 93.8015 19.8649 93.1317 20.2963C92.0006 20.8601 90.7593 20.867 89.5383 20.5948C88.825 19.892 88.4556 19.1074 88.041 18.2068C87.8434 17.9112 87.6458 17.6157 87.4421 17.3112C87.2445 17.3112 87.0469 17.3112 86.8432 17.3112C86.5468 18.2963 86.2503 19.2814 85.9449 20.2963C85.4508 20.2963 84.9567 20.2963 84.4476 20.2963C84.25 20.0993 84.0524 19.9023 83.8487 19.6993C83.9213 18.7268 83.9213 18.7268 84.1107 17.5724C84.1717 17.1899 84.2327 16.8075 84.2956 16.4134C84.3457 16.1186 84.3959 15.8239 84.4476 15.5202C83.4594 15.5202 82.4713 15.5202 81.4531 15.5202C81.9551 14.5194 83.0582 14.3956 84.0733 14.0277C84.7941 13.7935 84.7941 13.7935 85.0465 13.1321C85.0672 12.7222 85.0719 12.3112 85.0652 11.9008C85.0591 11.5191 85.0529 11.1374 85.0465 10.7441Z" fill="#2E2D2D"/>
<path d="M77.8557 24.4766C79.2781 24.7378 79.2781 24.7378 79.9518 25.0736C79.853 26.0587 79.7542 27.0437 79.6524 28.0587C80.1465 28.0587 80.6406 28.0587 81.1496 28.0587C81.3473 26.9751 81.5449 25.8915 81.7485 24.7751C83.2458 25.0736 83.2458 25.0736 84.1441 25.6706C83.9552 27.1018 83.568 28.4269 83.1323 29.7984C82.9189 30.43 82.9189 30.43 82.9463 31.0437C83.9345 30.8467 84.9227 30.6497 85.9408 30.4467C86.0119 29.8093 86.0829 29.1719 86.1537 28.5344C86.2107 28.0244 86.2684 27.5144 86.3268 27.0045C86.3539 26.7675 86.3809 26.5305 86.4087 26.2863C86.4338 26.0681 86.4589 25.8499 86.4848 25.6251C86.5496 25.0669 86.5496 25.0669 86.5397 24.4766C87.5504 24.5512 87.5504 24.5512 88.6359 24.7751C89.1178 25.4226 89.2348 25.7659 89.2348 26.5661C89.3506 26.4334 89.4664 26.3006 89.5857 26.1638C89.8196 25.9104 89.8196 25.9104 90.0583 25.6519C90.2876 25.3974 90.2876 25.3974 90.5215 25.1377C91.0315 24.7751 91.0315 24.7751 91.6912 24.8695C91.8688 24.9369 92.0464 25.0042 92.2293 25.0736C92.3775 25.9601 92.3775 25.9601 92.5288 26.8646C92.2323 26.7661 91.9358 26.6676 91.6304 26.5661C90.9402 26.8353 90.9402 26.8353 90.2454 27.2564C90.0069 27.3907 89.7683 27.525 89.5225 27.6634C88.8957 28.0156 88.8957 28.0156 88.6359 28.6557C88.9694 28.7665 89.3029 28.8773 89.6465 28.9915C90.6164 29.3958 90.6999 29.4802 91.1625 30.5027C91.2459 30.9183 91.2459 30.9183 91.3309 31.3422C91.9239 31.1452 92.5168 30.9482 93.1277 30.7452C93.1091 30.4497 93.0906 30.1542 93.0715 29.8497C93.0839 28.318 93.4172 26.9485 94.4576 25.7849C95.6293 24.8255 96.6859 24.5541 98.1926 24.6515C99.1947 24.8498 99.6697 25.1858 100.314 25.9691C100.753 27.781 100.753 27.781 100.314 28.6557C100.223 30.0446 100.223 30.0446 100.614 31.3422C101.8 31.1945 101.8 31.1945 103.01 31.0437C103.01 31.2407 103.01 31.4378 103.01 31.6407C101.644 32.294 100.662 32.7075 99.1167 32.5363C98.713 32.3463 98.3123 32.1494 97.9189 31.9392C97.7212 32.0378 97.5236 32.1363 97.32 32.2378C95.8399 32.3091 95.0414 32.2961 93.7266 31.6407C93.5536 31.7269 93.3807 31.8131 93.2025 31.9019C92.1957 32.4037 91.2351 32.4633 90.1331 32.2378C89.3148 31.4638 88.9913 30.9126 88.6359 29.8497C88.3394 29.7512 88.043 29.6527 87.7375 29.5512C87.5399 30.4378 87.3423 31.3243 87.1386 32.2378C86.8731 32.1269 86.6075 32.0161 86.3339 31.9019C85.1638 31.5938 84.9209 31.778 83.8447 32.2378C82.7847 32.3688 81.8041 32.4201 80.8315 31.9206C80.3853 31.0015 80.6481 30.2233 80.8502 29.2527C80.4734 29.3204 80.0967 29.3881 79.7085 29.4579C78.9407 29.5959 78.6027 29.6367 77.9212 29.2434C77.3523 28.3272 77.5432 27.5631 77.6498 26.5101C77.6857 26.1304 77.7216 25.7506 77.7586 25.3593C77.7906 25.068 77.8227 24.7767 77.8557 24.4766Z" fill="#2E2D2D"/>
<path d="M60.2442 1.60572C60.6191 1.63265 60.9939 1.65959 61.3801 1.68734C62.2843 1.79229 62.2843 1.79229 62.5837 2.09079C63.1176 2.09578 63.6517 2.0797 64.1851 2.05465C64.5083 2.04022 64.8316 2.02579 65.1647 2.01092C65.505 1.99418 65.8452 1.97744 66.1958 1.9602C66.5373 1.94461 66.8787 1.92903 67.2305 1.91297C68.0772 1.87412 68.9239 1.83383 69.7705 1.79229C69.7705 1.89079 69.7705 1.9893 69.7705 2.09079C68.98 2.1893 68.1894 2.28781 67.3749 2.3893C67.6714 2.58632 67.9678 2.78333 68.2733 2.98632C65.9016 3.13408 65.9016 3.13408 63.4821 3.28482C63.5809 3.28482 63.6797 3.28482 63.7815 3.28482C65.6879 3.4257 67.5827 3.58236 69.4711 3.88184C69.4711 3.98034 69.4711 4.07885 69.4711 4.18035C69.2402 4.17342 69.0094 4.16649 68.7716 4.15936C68.4713 4.15397 68.1709 4.14858 67.8615 4.14303C67.5627 4.13611 67.264 4.12918 66.9562 4.12204C66.1284 4.0991 66.1284 4.0991 65.5782 4.77736C65.5782 4.87587 65.5782 4.97437 65.5782 5.07587C64.9853 5.17437 64.3924 5.27288 63.7815 5.37437C63.9297 5.81766 63.9297 5.81766 64.081 6.2699C61.1915 6.63986 58.3043 6.59766 55.3975 6.57314C54.3012 6.56448 53.2091 6.58883 52.1135 6.62671C51.504 6.5684 51.504 6.5684 50.9098 6.26523C48.7139 5.19617 45.0087 6.77988 42.82 7.46393C42.4415 7.62092 42.0648 7.78218 41.69 7.94784C40.763 8.34276 40.2164 8.44915 39.2266 8.35945C40.1221 7.61376 40.898 7.26225 42.0187 6.95087C42.481 6.81984 42.481 6.81984 42.9527 6.68617C43.2733 6.59806 43.5939 6.50994 43.9242 6.41915C48.0728 5.50605 48.0728 5.50605 51.504 3.28482C52.6088 2.80302 53.3497 2.54584 54.4985 2.98632C54.1033 3.47885 53.708 3.97139 53.3007 4.47885C53.9925 4.67587 54.6842 4.87288 55.3969 5.07587C55.4957 4.87885 55.5945 4.68184 55.6963 4.47885C56.503 4.38539 57.2825 4.32556 58.0919 4.29229C58.3166 4.28074 58.5413 4.2692 58.7727 4.2573C60.3002 4.18035 60.3002 4.18035 60.787 4.18035C59.824 3.86036 59.1 3.83815 58.0919 3.88184C57.9931 3.98034 57.8943 4.07885 57.7925 4.18035C57.1936 4.18035 56.5947 4.18035 55.9958 4.18035C55.2958 4.27038 54.5966 4.36769 53.8996 4.47885C54.8319 2.87037 55.6662 2.21313 57.4147 1.61388C58.3768 1.44327 59.2716 1.53137 60.2442 1.60572Z" fill="#2E2D2D"/>
<path d="M20.0611 20.2969C20.2588 20.2969 20.4564 20.2969 20.66 20.2969C21.6914 22.5246 21.9816 24.7072 21.3303 27.1077C20.8145 28.4713 20.2419 29.7341 19.1628 30.7446C18.3954 31.0431 18.3954 31.0431 17.6655 31.0431C17.0612 30.5914 16.8047 30.2224 16.4677 29.5506C16.1538 26.1085 17.8305 23.3339 19.7617 20.5954C19.8605 20.4969 19.9593 20.3984 20.0611 20.2969Z" fill="#FBFBF9"/>
<path d="M20.0611 20.2969C20.2588 20.2969 20.4564 20.2969 20.66 20.2969C21.6914 22.5246 21.9816 24.7072 21.3303 27.1077C20.8145 28.4713 20.2419 29.7341 19.1628 30.7446C18.3954 31.0431 18.3954 31.0431 17.6655 31.0431C17.0612 30.5914 16.8047 30.2224 16.4677 29.5506C16.1538 26.1085 17.8305 23.3339 19.7617 20.5954C19.8605 20.4969 19.9593 20.3984 20.0611 20.2969Z" fill="#FBFBF9"/>
<path d="M72.7663 24.4766C74.4882 24.7378 74.4882 24.7378 75.1619 25.0736C75.1187 25.4615 75.0755 25.8493 75.0309 26.249C75.0043 26.4918 74.9776 26.7346 74.9502 26.9847C74.892 27.499 74.8305 28.0128 74.7654 28.5262C74.7357 28.766 74.7059 29.0057 74.6753 29.2527C74.6325 29.5851 74.6325 29.5851 74.5888 29.9243C74.576 30.1829 74.576 30.1829 74.563 30.4467C74.8573 30.8066 74.8573 30.8066 75.4158 30.7744C76.0299 30.7647 76.644 30.7549 77.2581 30.7452C76.6592 31.6407 76.6592 31.6407 75.7608 31.9392C73.657 32.0069 73.657 32.0069 72.5605 31.7527C71.664 31.6078 71.2055 31.9009 70.3707 32.2378C69.2166 32.3589 68.5356 32.3774 67.5072 31.8273C66.8047 30.5486 67.3142 29.4105 67.6757 28.0587C67.8994 27.2806 67.8994 27.2806 67.9751 26.5661C67.7775 26.3691 67.5798 26.1721 67.3762 25.9691C68.6662 25.0506 68.6662 25.0506 69.7157 25.1669C70.0399 25.2684 70.0399 25.2684 70.3707 25.3721C70.4988 27.287 70.0286 28.9201 69.4724 30.7452C70.535 30.7693 71.4439 30.7282 72.4669 30.4467C72.4607 30.0712 72.4545 29.6956 72.4482 29.3087C72.4456 27.687 72.5971 26.0882 72.7663 24.4766Z" fill="#2E2D2D"/>
<path d="M100.614 12.2392C101.101 13.0788 101.101 13.0788 101.213 14.0303C100.689 14.8885 100.689 14.8885 100.015 15.5228C99.8175 15.5228 99.6199 15.5228 99.4162 15.5228C99.5883 16.6962 99.5883 16.6962 100.315 17.6124C100.018 18.3512 100.018 18.3512 99.7157 19.1049C98.5169 19.3861 97.8706 19.534 96.7586 18.9557C95.8972 17.9454 95.8016 17.4517 95.8228 16.1198C96.6669 12.9367 96.6669 12.9367 97.919 11.9407C99.0762 11.5562 99.5286 11.7097 100.614 12.2392Z" fill="#FBFBF9"/>
<path d="M100.614 12.2392C101.101 13.0788 101.101 13.0788 101.213 14.0303C100.689 14.8885 100.689 14.8885 100.015 15.5228C99.8175 15.5228 99.6199 15.5228 99.4162 15.5228C99.5883 16.6962 99.5883 16.6962 100.315 17.6124C100.018 18.3512 100.018 18.3512 99.7157 19.1049C98.5169 19.3861 97.8706 19.534 96.7586 18.9557C95.8972 17.9454 95.8016 17.4517 95.8228 16.1198C96.6669 12.9367 96.6669 12.9367 97.919 11.9407C99.0762 11.5562 99.5286 11.7097 100.614 12.2392Z" fill="#FBFBF9"/>
<path d="M60.243 1.60572C60.8053 1.64612 60.8053 1.64612 61.3789 1.68734C62.2831 1.79229 62.2831 1.79229 62.5825 2.09079C63.1164 2.09578 63.6505 2.0797 64.1839 2.05465C64.5071 2.04022 64.8304 2.02579 65.1635 2.01092C65.5038 1.99418 65.844 1.97744 66.1946 1.9602C66.5361 1.94461 66.8775 1.92903 67.2293 1.91297C68.076 1.87412 68.9227 1.83383 69.7693 1.79229C69.7693 1.89079 69.7693 1.9893 69.7693 2.09079C68.9788 2.1893 68.1882 2.28781 67.3737 2.3893C67.6702 2.58632 67.9666 2.78333 68.2721 2.98632C67.9331 3.00094 67.5942 3.01556 67.245 3.03062C66.8013 3.05302 66.3576 3.07557 65.9139 3.09826C65.6904 3.10749 65.4669 3.11673 65.2366 3.12624C63.9196 3.15242 63.9196 3.15242 62.882 3.88184C61.7339 4.11073 61.0075 4.254 59.8874 3.88184C58.9641 3.83204 58.9641 3.83204 58.0907 3.88184C57.9919 3.98034 57.8931 4.07885 57.7913 4.18035C57.1924 4.18035 56.5935 4.18035 55.9946 4.18035C55.2946 4.27038 54.5954 4.36769 53.8984 4.47885C54.8307 2.87037 55.665 2.21313 57.4135 1.61388C58.3756 1.44327 59.2704 1.53137 60.243 1.60572Z" fill="#2E2D2D"/>
<path d="M97.8086 25.4672C98.5197 25.6725 98.5197 25.6725 98.8192 25.971C98.9128 26.8105 98.9128 26.8105 98.8192 27.762C98.2203 28.471 98.2203 28.471 97.6214 28.956C97.819 29.4486 98.0167 29.9411 98.2203 30.4486C97.8647 30.915 97.8647 30.915 97.3219 31.3441C96.3212 31.2711 95.9428 31.1634 95.2258 30.4486C94.9679 28.7792 95.1832 27.3953 96.1241 25.971C97.0225 25.374 97.0225 25.374 97.8086 25.4672Z" fill="#FBFBF9"/>
<path d="M97.8086 25.4672C98.5197 25.6725 98.5197 25.6725 98.8192 25.971C98.9128 26.8105 98.9128 26.8105 98.8192 27.762C98.2203 28.471 98.2203 28.471 97.6214 28.956C97.819 29.4486 98.0167 29.9411 98.2203 30.4486C97.8647 30.915 97.8647 30.915 97.3219 31.3441C96.3212 31.2711 95.9428 31.1634 95.2258 30.4486C94.9679 28.7792 95.1832 27.3953 96.1241 25.971C97.0225 25.374 97.0225 25.374 97.8086 25.4672Z" fill="#FBFBF9"/>
<path d="M35.3359 24.1797C36.0276 24.2782 36.7193 24.3767 37.432 24.4782C37.8063 25.2431 37.8063 25.2431 38.0309 26.2692C37.7627 26.7545 37.489 27.238 37.1805 27.6988C36.4474 29.0915 36.2398 30.7073 35.9348 32.2394C34.7744 31.9782 34.7744 31.9782 34.4375 31.6424C34.4832 29.5452 34.8063 27.4809 35.2154 25.4274C35.354 24.7891 35.354 24.7891 35.3359 24.1797Z" fill="#2E2D2D"/>
<path d="M64.5542 3.28125C64.8619 3.31319 65.1695 3.34513 65.4865 3.37803C65.9677 3.42652 65.9677 3.42652 66.4586 3.47598C67.4672 3.59382 68.47 3.72271 69.473 3.88176C69.473 3.98027 69.473 4.07878 69.473 4.18027C69.2421 4.17334 69.0113 4.16642 68.7735 4.15928C68.323 4.1512 68.323 4.1512 67.8634 4.14296C67.5646 4.13603 67.2659 4.1291 66.958 4.12197C66.1303 4.09903 66.1303 4.09903 65.5801 4.77729C65.5801 4.87579 65.5801 4.9743 65.5801 5.07579C64.9872 5.1743 64.3943 5.27281 63.7834 5.3743C63.7834 5.47281 63.7834 5.57132 63.7834 5.67281C63.3031 5.68089 62.8227 5.68667 62.3423 5.69146C61.941 5.69666 61.941 5.69666 61.5317 5.70196C60.7889 5.67281 60.7889 5.67281 59.8905 5.3743C59.3852 4.75863 59.3852 4.75863 58.9922 4.18027C59.7827 4.27878 60.5733 4.37729 61.3878 4.47878C61.4866 4.28176 61.5854 4.08475 61.6872 3.88176C61.9219 3.89408 62.1566 3.90639 62.3984 3.91908C63.4475 3.86928 63.5062 3.28601 64.5542 3.28125Z" fill="#2E2D2D"/>
<path d="M51.504 3.28516C51.7017 3.38366 51.8993 3.48217 52.1029 3.58366C51.9856 3.85456 51.8682 4.12545 51.7473 4.40456C51.387 5.36293 51.387 5.36293 51.9158 6.08366C52.0764 6.24374 52.2369 6.40381 52.4024 6.56874C52.1924 6.52564 51.9824 6.48254 51.7661 6.43814C51.3399 6.35503 51.3399 6.35503 50.9051 6.27023C50.645 6.20712 50.3848 6.14402 50.1167 6.079C48.8169 5.94071 47.7502 6.1753 46.4882 6.47546C46.2498 6.52981 46.0114 6.58416 45.7657 6.64016C44.2224 7.00577 42.7733 7.46182 41.3356 8.14057C40.6048 8.40242 39.9972 8.39732 39.2266 8.35978C40.1221 7.61409 40.898 7.26259 42.0187 6.9512C42.3269 6.86385 42.6352 6.7765 42.9527 6.68651C43.2733 6.59839 43.5939 6.51027 43.9242 6.41948C48.1132 5.5603 48.1132 5.5603 51.504 3.28516Z" fill="#2E2D2D"/>
<path d="M50.0069 0C50.1551 0.295522 50.1551 0.295522 50.3063 0.597015C48.838 3.09754 46.8351 4.49488 44.2799 5.78358C44.076 5.88685 43.8721 5.99012 43.662 6.09652C42.4843 6.66694 41.4426 7.02097 40.125 7.16418C41.3656 5.64636 43.208 4.97222 44.9607 4.19077C47.0318 3.23597 48.6811 1.85426 50.0069 0Z" fill="#2E2D2D"/>
<path d="M57.1953 4.47656C57.9859 4.47656 58.7764 4.47656 59.5909 4.47656C59.6897 4.77208 59.7886 5.06761 59.8904 5.37208C60.1868 5.37208 60.4833 5.37208 60.7887 5.37208C60.7887 5.5691 60.7887 5.76611 60.7887 5.9691C61.8757 5.9691 62.9627 5.9691 64.0827 5.9691C64.0827 6.06761 64.0827 6.16611 64.0827 6.26761C63.3529 6.32577 62.623 6.38138 61.8929 6.43552C61.6862 6.45226 61.4795 6.46899 61.2666 6.48624C60.3021 6.55591 59.6199 6.57574 58.6926 6.26761C58.6926 6.07059 58.6926 5.87358 58.6926 5.67059C58.5011 5.63981 58.3096 5.60903 58.1124 5.57731C57.9086 5.50958 57.7048 5.44186 57.4948 5.37208C57.3959 5.07656 57.2971 4.78104 57.1953 4.47656Z" fill="#2E2D2D"/>
<path d="M54.4973 2.38672C54.6949 2.38672 54.8925 2.38672 55.0962 2.38672C54.5347 3.84194 54.5347 3.84194 54.1978 4.17776C54.7843 4.13574 55.3707 4.09186 55.9571 4.04717C56.2836 4.02292 56.6102 3.99868 56.9467 3.97371C57.7754 3.93 57.7754 3.93 58.3901 3.58075C59.6597 3.51044 60.5946 3.4827 61.6841 4.17776C61.5852 4.37478 61.4864 4.57179 61.3846 4.77478C61.0449 4.71937 60.7052 4.66396 60.3553 4.60687C59.1459 4.45 58.059 4.54455 56.8578 4.72814C56.294 4.77478 56.294 4.77478 55.6951 4.47627C55.5962 4.77179 55.4974 5.06732 55.3956 5.37179C55.2968 5.27329 55.198 5.17478 55.0962 5.07329C54.399 4.96355 53.7002 4.86361 53 4.77478C53.2344 4.37521 53.4721 3.97754 53.7112 3.58075C53.8432 3.35911 53.9752 3.13747 54.1112 2.90911C54.2386 2.73672 54.366 2.56433 54.4973 2.38672Z" fill="#2E2D2D"/>
<path d="M60.1869 1.49474C60.1869 1.59325 60.1869 1.69176 60.1869 1.79325C59.594 1.79325 59.0011 1.79325 58.3902 1.79325C58.2914 1.99026 58.1926 2.18728 58.0907 2.39026C57.8128 2.43644 57.8128 2.43644 57.5293 2.48355C56.8107 2.63363 56.8107 2.63363 56.4999 3.43504C55.9946 4.18131 55.9946 4.18131 54.8904 4.42385C54.563 4.44232 54.2357 4.46079 53.8984 4.47982C54.8486 2.84052 55.7065 2.21291 57.4731 1.58803C58.3792 1.45117 59.2725 1.47721 60.1869 1.49474Z" fill="#2E2D2D"/>
<path d="M54.4971 2.9842C54.2691 3.32816 54.0376 3.66977 53.8046 4.01032C53.6761 4.20079 53.5475 4.39127 53.4151 4.58751C52.9998 5.07375 52.9998 5.07375 52.1015 5.37226C52.1015 5.66778 52.1015 5.96331 52.1015 6.26778C51.805 5.97226 51.5086 5.67674 51.2031 5.37226C51.7646 3.65584 51.7646 3.65584 52.1015 2.9842C53.0129 2.63959 53.5766 2.72835 54.4971 2.9842Z" fill="#2E2D2D"/>
<path d="M69.7752 1.79182C69.7752 1.89033 69.7752 1.98884 69.7752 2.09033C68.9847 2.18884 68.1941 2.28734 67.3796 2.38884C67.6761 2.58585 67.9725 2.78287 68.278 2.98585C66.0052 2.98585 63.7323 2.98585 61.3906 2.98585C61.7859 2.88734 62.1812 2.78884 62.5884 2.68734C62.5884 2.49033 62.5884 2.29331 62.5884 2.09033C64.9874 1.91389 67.3683 1.74973 69.7752 1.79182Z" fill="#2E2D2D"/>
<path d="M55.6953 4.47656C56.7394 4.80773 57.724 5.1522 58.6898 5.67059C58.6898 5.86761 58.6898 6.06462 58.6898 6.26761C58.9863 6.36611 59.2827 6.46462 59.5882 6.56611C59.1641 6.58237 58.7398 6.59388 58.3155 6.60343C58.0793 6.61035 57.843 6.61728 57.5996 6.62442C56.831 6.56099 56.3566 6.35314 55.6953 5.9691C55.6953 5.47656 55.6953 4.98403 55.6953 4.47656Z" fill="#2E2D2D"/>
<path d="M61.3878 26.2695C61.3621 27.139 61.2144 27.6331 60.6017 28.26C60.075 28.7056 59.5422 29.1365 58.9922 29.5531C59.3089 26.2695 59.3089 26.2695 61.3878 26.2695Z" fill="#FBFBF9"/>
<path d="M61.3878 26.2695C61.3621 27.139 61.2144 27.6331 60.6017 28.26C60.075 28.7056 59.5422 29.1365 58.9922 29.5531C59.3089 26.2695 59.3089 26.2695 61.3878 26.2695Z" fill="#FBFBF9"/>
<path d="M46.1144 25.9688C46.4109 26.0673 46.7074 26.1658 47.0128 26.2673C46.5841 27.7631 45.8196 28.3403 44.6172 29.2523C44.7646 27.3419 44.7646 27.3419 45.5343 26.4352C45.8214 26.2043 45.8214 26.2043 46.1144 25.9688Z" fill="#FBFBF9"/>
<path d="M46.1144 25.9688C46.4109 26.0673 46.7074 26.1658 47.0128 26.2673C46.5841 27.7631 45.8196 28.3403 44.6172 29.2523C44.7646 27.3419 44.7646 27.3419 45.5343 26.4352C45.8214 26.2043 45.8214 26.2043 46.1144 25.9688Z" fill="#FBFBF9"/>
<path d="M75.1587 21.4922C75.2731 21.9866 75.3724 22.4846 75.4581 22.9847C75.1587 23.2832 75.1587 23.2832 74.3913 23.3019C74.03 23.2927 74.03 23.2927 73.6614 23.2832C73.4638 22.8892 73.2661 22.4952 73.0625 22.0892C73.9609 21.4922 73.9609 21.4922 75.1587 21.4922Z" fill="#2E2D2D"/>
<path d="M58.9922 4.17969C60.7494 4.33609 62.151 4.70539 63.7834 5.37372C63.7834 5.47222 63.7834 5.57073 63.7834 5.67222C63.3031 5.68031 62.8227 5.68609 62.3423 5.69088C61.941 5.69608 61.941 5.69608 61.5317 5.70138C60.7889 5.67222 60.7889 5.67222 59.8905 5.37372C59.3852 4.75805 59.3852 4.75805 58.9922 4.17969Z" fill="#2E2D2D"/>
<path d="M61.6875 3.87833C62.8003 3.81837 63.1165 3.83297 64.0831 4.47534C64.5788 4.59027 65.078 4.69263 65.5804 4.77385C65.5804 4.87236 65.5804 4.97086 65.5804 5.07236C64.3945 5.07236 63.2087 5.07236 61.987 5.07236C61.8881 4.67833 61.7893 4.2843 61.6875 3.87833Z" fill="#2E2D2D"/>
<path d="M51.8047 5.07422C52.5159 5.14885 52.5159 5.14885 53.3019 5.37273C53.695 5.9884 53.695 5.9884 53.9008 6.56676C53.1896 6.49213 53.1896 6.49213 52.4036 6.26825C52.0106 5.65258 52.0106 5.65258 51.8047 5.07422Z" fill="#2E2D2D"/>
<path d="M60.4868 2.6875C60.4868 2.98302 60.4868 3.27854 60.4868 3.58302C59.795 3.68153 59.1033 3.78004 58.3906 3.88153C59.4761 2.6875 59.4761 2.6875 60.4868 2.6875Z" fill="#2E2D2D"/>
</g>
<defs>
<clipPath id="clip0_3884_26224">
<rect width="109" height="40" fill="white"/>
</clipPath>
</defs>
</svg>
