<svg width="130" height="42" viewBox="0 0 130 42" fill="none" xmlns="http://www.w3.org/2000/svg">
<g clip-path="url(#clip0_3884_25795)">
<path d="M1.58409 35.708V35.3804H2.80784V36.4567C2.61957 36.5971 2.4313 36.7141 2.2195 36.7843C2.03123 36.8545 1.81942 36.9013 1.60762 36.9013C1.32522 36.9013 1.06635 36.8311 0.83101 36.7141C0.595673 36.5971 0.430938 36.4099 0.313269 36.1993C0.195601 35.9653 0.125 35.708 0.125 35.4272C0.125 35.1464 0.172067 34.889 0.313269 34.655C0.430938 34.4211 0.595673 34.2339 0.83101 34.1169C1.04281 33.9999 1.30168 33.9297 1.58409 33.9297C1.79589 33.9297 1.98416 33.9531 2.1489 34.0233C2.31363 34.0935 2.45483 34.1871 2.54897 34.3041C2.6431 34.4211 2.7137 34.5848 2.76077 34.772L2.40777 34.8656C2.3607 34.7252 2.31363 34.6082 2.24303 34.5146C2.17243 34.4211 2.07829 34.3743 1.96063 34.3041C1.84296 34.2573 1.70176 34.2339 1.56055 34.2339C1.39582 34.2339 1.23108 34.2573 1.11341 34.3041C0.995746 34.3509 0.878077 34.4211 0.807476 34.5146C0.736875 34.6082 0.666274 34.7018 0.619207 34.7954C0.548606 34.9826 0.501539 35.1698 0.501539 35.3804C0.501539 35.6378 0.548606 35.8484 0.642741 36.0355C0.736875 36.1993 0.854544 36.3397 1.01928 36.4099C1.18402 36.5035 1.37228 36.5269 1.56055 36.5269C1.72529 36.5269 1.89003 36.5035 2.05476 36.4333C2.2195 36.3631 2.33716 36.2929 2.40777 36.2227V35.6846H1.58409V35.708Z" fill="#2E2D2D"/>
<path d="M3.32031 36.8324V34.75H3.64978V35.0775C3.72038 34.9371 3.81452 34.8436 3.88512 34.7968C3.95572 34.75 4.02632 34.7266 4.12046 34.7266C4.23813 34.7266 4.35579 34.7734 4.497 34.8436L4.37933 35.1711C4.28519 35.1243 4.21459 35.1009 4.12046 35.1009C4.04986 35.1009 3.97926 35.1243 3.90865 35.1711C3.83805 35.2179 3.79099 35.2881 3.76745 35.3583C3.72038 35.4753 3.69685 35.6157 3.69685 35.7795V36.8792H3.32031V36.8324Z" fill="#2E2D2D"/>
<path d="M4.53906 35.7794C4.53906 35.405 4.65673 35.1009 4.86853 34.9137C5.0568 34.7499 5.26861 34.6797 5.52748 34.6797C5.80988 34.6797 6.04522 34.7733 6.23349 34.9605C6.42176 35.1477 6.51589 35.405 6.51589 35.7326C6.51589 35.99 6.46882 36.2006 6.39822 36.3644C6.32762 36.5282 6.20995 36.6451 6.04522 36.7153C5.88048 36.8089 5.71575 36.8323 5.52748 36.8323C5.24507 36.8323 4.9862 36.7387 4.82147 36.5516C4.6332 36.4112 4.53906 36.1538 4.53906 35.7794ZM4.9156 35.7794C4.9156 36.0368 4.96267 36.2474 5.08034 36.3878C5.19801 36.5282 5.33921 36.5983 5.52748 36.5983C5.69221 36.5983 5.85695 36.5282 5.97462 36.3878C6.09228 36.2474 6.13935 36.0602 6.13935 35.7794C6.13935 35.522 6.06875 35.3348 5.95108 35.1944C5.83341 35.0541 5.69221 34.9839 5.50394 34.9839C5.31567 34.9839 5.17447 35.0541 5.0568 35.1711C4.96267 35.3348 4.9156 35.522 4.9156 35.7794Z" fill="#2E2D2D"/>
<path d="M7.32291 36.8324L6.6875 34.75H7.06404L7.39351 35.9433L7.51118 36.3879C7.51118 36.3645 7.55825 36.2241 7.62885 35.9667L7.95832 34.75H8.33486L8.64079 35.9667L8.73493 36.3645L8.8526 35.9667L9.2056 34.7734H9.55861L8.89966 36.8558H8.52313L8.19365 35.6157L8.12305 35.2648L7.69945 36.8792H7.32291V36.8324Z" fill="#2E2D2D"/>
<path d="M9.83594 34.3509V33.9531H10.1889V34.3509H9.83594ZM9.83594 36.8311V34.7487H10.1889V36.8311H9.83594Z" fill="#2E2D2D"/>
<path d="M10.7344 36.8285V34.746H11.0638V35.0502C11.2286 34.8162 11.4404 34.6992 11.7228 34.6992C11.8405 34.6992 11.9581 34.7226 12.0758 34.7694C12.1699 34.8162 12.2641 34.863 12.3111 34.9566C12.3582 35.0268 12.4053 35.1204 12.4288 35.214C12.4523 35.2842 12.4523 35.4012 12.4523 35.565V36.8519H12.0993V35.565C12.0993 35.4246 12.0758 35.3076 12.0523 35.2374C12.0287 35.1672 11.9817 35.1204 11.9111 35.0736C11.8405 35.0268 11.7699 35.0034 11.6522 35.0034C11.511 35.0034 11.3698 35.0502 11.2521 35.1438C11.1344 35.2374 11.0874 35.4246 11.0874 35.6819V36.8285H10.7344Z" fill="#2E2D2D"/>
<path d="M12.9144 36.9961L13.2674 37.0429C13.2909 37.1599 13.3144 37.2301 13.385 37.2769C13.4792 37.3471 13.5968 37.3705 13.738 37.3705C13.9028 37.3705 14.0204 37.3471 14.1146 37.2769C14.2087 37.2067 14.2558 37.1131 14.3028 36.9961C14.3264 36.9259 14.3264 36.7621 14.3264 36.5516C14.1616 36.7387 13.9734 36.8323 13.738 36.8323C13.4556 36.8323 13.2203 36.7387 13.0791 36.5282C12.9144 36.3176 12.8438 36.0836 12.8438 35.7794C12.8438 35.5922 12.8908 35.405 12.9614 35.2178C13.032 35.0541 13.1497 34.9137 13.2674 34.8201C13.4086 34.7265 13.5733 34.6797 13.7616 34.6797C14.0204 34.6797 14.2087 34.7733 14.3734 34.9839V34.7265H14.7029V36.5282C14.7029 36.8557 14.6794 37.0897 14.6088 37.2067C14.5382 37.3471 14.444 37.4407 14.3028 37.5343C14.1616 37.6045 13.9734 37.6513 13.7616 37.6513C13.5027 37.6513 13.3144 37.6045 13.1497 37.4875C12.985 37.3939 12.9144 37.2301 12.9144 36.9961ZM13.2203 35.756C13.2203 36.0368 13.2674 36.224 13.385 36.3644C13.5027 36.4814 13.6204 36.5516 13.7851 36.5516C13.9498 36.5516 14.091 36.4814 14.1852 36.3644C14.3028 36.2474 14.3499 36.0368 14.3499 35.7794C14.3499 35.522 14.3028 35.3348 14.1852 35.1945C14.0675 35.0541 13.9263 35.0073 13.7851 35.0073C13.6204 35.0073 13.5027 35.0775 13.385 35.1945C13.2674 35.3114 13.2203 35.4986 13.2203 35.756Z" fill="#2E2D2D"/>
<path d="M17.7247 36.0603L18.0777 36.1071C18.0307 36.341 17.9365 36.5282 17.7953 36.6686C17.6306 36.809 17.4423 36.8792 17.207 36.8792C16.9246 36.8792 16.6892 36.7856 16.5245 36.5984C16.3598 36.4112 16.2656 36.1539 16.2656 35.8029C16.2656 35.5689 16.3127 35.3817 16.3833 35.2179C16.4539 35.0541 16.5716 34.9137 16.7363 34.8436C16.901 34.75 17.0658 34.7266 17.2305 34.7266C17.4658 34.7266 17.6541 34.7734 17.7953 34.8904C17.9365 35.0073 18.0307 35.1711 18.0777 35.3817L17.7247 35.4285C17.7012 35.2881 17.6306 35.1945 17.56 35.1243C17.4658 35.0541 17.3717 35.0073 17.254 35.0073C17.0658 35.0073 16.9246 35.0775 16.8069 35.1945C16.6892 35.3115 16.6422 35.5221 16.6422 35.8029C16.6422 36.0837 16.6892 36.2943 16.8069 36.4112C16.9246 36.5282 17.0658 36.5984 17.2305 36.5984C17.3717 36.5984 17.4894 36.5516 17.5835 36.4814C17.6541 36.3878 17.7012 36.2475 17.7247 36.0603Z" fill="#2E2D2D"/>
<path d="M18.2344 35.7794C18.2344 35.405 18.352 35.1009 18.5638 34.9137C18.7521 34.7499 18.9639 34.6797 19.2228 34.6797C19.5052 34.6797 19.7405 34.7733 19.9288 34.9605C20.1171 35.1477 20.2112 35.405 20.2112 35.7326C20.2112 35.99 20.1641 36.2006 20.0935 36.3644C20.0229 36.5282 19.9053 36.6451 19.7405 36.7153C19.5758 36.8089 19.4111 36.8323 19.2228 36.8323C18.9404 36.8323 18.6815 36.7387 18.5168 36.5516C18.3285 36.4112 18.2344 36.1538 18.2344 35.7794ZM18.6109 35.7794C18.6109 36.0368 18.658 36.2474 18.7757 36.3878C18.8933 36.5282 19.0345 36.5983 19.2228 36.5983C19.3875 36.5983 19.5523 36.5282 19.6699 36.3878C19.7876 36.2474 19.8347 36.0602 19.8347 35.7794C19.8347 35.522 19.7641 35.3348 19.6464 35.1944C19.5287 35.0541 19.3875 34.9839 19.1993 34.9839C19.011 34.9839 18.8698 35.0541 18.7521 35.1711C18.658 35.3348 18.6109 35.522 18.6109 35.7794Z" fill="#2E2D2D"/>
<path d="M22.0057 36.8324V36.5283C21.8409 36.7623 21.6291 36.8792 21.3467 36.8792C21.2291 36.8792 21.1114 36.8559 20.9937 36.8091C20.8761 36.7623 20.8055 36.6921 20.7584 36.6219C20.7113 36.5517 20.6643 36.4581 20.6407 36.3645C20.6172 36.2943 20.6172 36.1773 20.6172 36.0369V34.75H20.9702V35.8965C20.9702 36.0837 20.9702 36.2007 20.9937 36.2709C21.0173 36.3645 21.0643 36.4347 21.1349 36.4815C21.2055 36.5283 21.2997 36.5517 21.3938 36.5517C21.5115 36.5517 21.6056 36.5283 21.6997 36.4815C21.7939 36.4347 21.8645 36.3645 21.888 36.2709C21.9351 36.1773 21.9351 36.0369 21.9351 35.8731V34.75H22.2881V36.8324H22.0057Z" fill="#2E2D2D"/>
<path d="M22.875 36.8285V34.746H23.2045V35.0502C23.3692 34.8162 23.581 34.6992 23.8634 34.6992C23.9811 34.6992 24.0988 34.7226 24.2164 34.7694C24.3106 34.8162 24.4047 34.863 24.4518 34.9566C24.4988 35.0268 24.5459 35.1204 24.5694 35.214C24.593 35.2842 24.593 35.4012 24.593 35.565V36.8519H24.24V35.565C24.24 35.4246 24.2164 35.3076 24.1929 35.2374C24.1694 35.1672 24.1223 35.1204 24.0517 35.0736C23.9811 35.0268 23.9105 35.0034 23.7928 35.0034C23.6516 35.0034 23.5104 35.0502 23.3927 35.1438C23.2751 35.2374 23.228 35.4246 23.228 35.6819V36.8285H22.875Z" fill="#2E2D2D"/>
<path d="M25.8868 36.5036L25.9338 36.8078C25.8397 36.8312 25.7456 36.8312 25.675 36.8312C25.5573 36.8312 25.4396 36.8078 25.369 36.761C25.2984 36.7142 25.2513 36.6674 25.2278 36.5972C25.2043 36.527 25.1807 36.3866 25.1807 36.176V34.9827H24.9219V34.7019H25.1807V34.1871L25.5338 33.9766V34.7019H25.8868V34.9827H25.5338V36.1994C25.5338 36.293 25.5337 36.3632 25.5573 36.3866C25.5808 36.41 25.5808 36.4334 25.6279 36.4568C25.6514 36.4802 25.6985 36.4802 25.7456 36.4802C25.7926 36.527 25.8397 36.527 25.8868 36.5036Z" fill="#2E2D2D"/>
<path d="M26.2422 36.8324V34.75H26.5717V35.0775C26.6423 34.9371 26.7364 34.8436 26.807 34.7968C26.8776 34.75 26.9482 34.7266 27.0423 34.7266C27.16 34.7266 27.2777 34.7734 27.4189 34.8436L27.3012 35.1711C27.2071 35.1243 27.1365 35.1009 27.0423 35.1009C26.9717 35.1009 26.9011 35.1243 26.8305 35.1711C26.7599 35.2179 26.7129 35.2881 26.6893 35.3583C26.6423 35.4753 26.6187 35.6157 26.6187 35.7795V36.8792H26.2422V36.8324Z" fill="#2E2D2D"/>
<path d="M27.5789 37.628L27.5318 37.3004C27.6024 37.3238 27.673 37.3238 27.7436 37.3238C27.8142 37.3238 27.8848 37.3004 27.9319 37.277C27.979 37.2536 28.026 37.2068 28.0496 37.16C28.0731 37.1132 28.0966 37.043 28.1672 36.9026C28.1672 36.8792 28.1908 36.8558 28.1908 36.809L27.3906 34.7266H27.7672L28.2143 35.9433C28.2614 36.1071 28.332 36.2475 28.3555 36.4346C28.4026 36.2709 28.4496 36.1071 28.4967 35.9667L28.9438 34.75H29.2969L28.4967 36.8792C28.4026 37.1132 28.3555 37.277 28.3084 37.3472C28.2378 37.4642 28.1672 37.5578 28.0966 37.6046C28.026 37.6514 27.9084 37.6748 27.8142 37.6748C27.7436 37.6748 27.6495 37.6748 27.5789 37.628Z" fill="#2E2D2D"/>
<path d="M31.0717 36.8311H30.7422V33.9531H31.0952V34.9827C31.2364 34.7955 31.4482 34.7019 31.66 34.7019C31.7777 34.7019 31.9189 34.7253 32.0365 34.7721C32.1542 34.8189 32.2483 34.8891 32.3189 34.9827C32.3895 35.0762 32.4601 35.1932 32.4837 35.3102C32.5307 35.4506 32.5543 35.591 32.5543 35.7314C32.5543 36.0824 32.4601 36.3632 32.2954 36.5503C32.1071 36.7375 31.8953 36.8311 31.66 36.8311C31.4011 36.8311 31.2129 36.7375 31.0717 36.5269V36.8311ZM31.0717 35.7782C31.0717 36.0356 31.0952 36.1994 31.1658 36.3164C31.2835 36.5035 31.4247 36.5971 31.6129 36.5971C31.7777 36.5971 31.8953 36.5269 32.013 36.3865C32.1307 36.2462 32.1777 36.059 32.1777 35.7782C32.1777 35.4974 32.1307 35.3102 32.013 35.1698C31.8953 35.0294 31.7777 34.9827 31.6129 34.9827C31.4482 34.9827 31.3305 35.0528 31.2129 35.1932C31.1187 35.3336 31.0717 35.5208 31.0717 35.7782Z" fill="#2E2D2D"/>
<path d="M32.9773 37.628L32.9303 37.3004C33.0009 37.3238 33.0715 37.3238 33.1421 37.3238C33.2127 37.3238 33.2833 37.3004 33.3303 37.277C33.3774 37.2536 33.4245 37.2068 33.448 37.16C33.4715 37.1132 33.4951 37.043 33.5657 36.9026C33.5657 36.8792 33.5892 36.8558 33.5892 36.809L32.7891 34.7266H33.1656L33.6127 35.9433C33.6598 36.1071 33.7304 36.2475 33.7539 36.4346C33.801 36.2709 33.8481 36.1071 33.8951 35.9667L34.3423 34.75H34.6953L33.8951 36.8792C33.801 37.1132 33.7539 37.277 33.7069 37.3472C33.6363 37.4642 33.5657 37.5578 33.4951 37.6046C33.4245 37.6514 33.3068 37.6748 33.2127 37.6748C33.1421 37.6748 33.0479 37.6748 32.9773 37.628Z" fill="#2E2D2D"/>
<path d="M0.117476 41.1367L0.470481 41.1835C0.494015 41.3005 0.517548 41.3707 0.588149 41.4175C0.682284 41.4877 0.799952 41.5111 0.941154 41.5111C1.10589 41.5111 1.22356 41.4877 1.31769 41.4175C1.41183 41.3473 1.4589 41.2537 1.50596 41.1367C1.5295 41.0666 1.5295 40.9028 1.5295 40.6922C1.36476 40.8794 1.17649 40.973 0.941154 40.973C0.65875 40.973 0.423414 40.8794 0.282212 40.6688C0.117476 40.4582 0.046875 40.2242 0.046875 39.92C0.046875 39.7329 0.0939423 39.5457 0.164543 39.3585C0.235144 39.1947 0.352813 39.0543 0.470481 38.9607C0.611683 38.8671 0.776419 38.8203 0.964688 38.8203C1.22356 38.8203 1.41183 38.9139 1.57656 39.1245V38.8671H1.90604V40.6688C1.90604 40.9964 1.8825 41.2303 1.8119 41.3473C1.7413 41.4877 1.64716 41.5813 1.50596 41.6749C1.36476 41.7451 1.17649 41.7919 0.964688 41.7919C0.705818 41.7919 0.517548 41.7451 0.352813 41.6281C0.188077 41.5345 0.117476 41.3707 0.117476 41.1367ZM0.423414 39.8966C0.423414 40.1774 0.470481 40.3646 0.588149 40.505C0.705818 40.622 0.823486 40.6922 0.988222 40.6922C1.15296 40.6922 1.29416 40.622 1.38829 40.505C1.50596 40.388 1.55303 40.1774 1.55303 39.92C1.55303 39.6627 1.50596 39.4755 1.38829 39.3351C1.27063 39.1947 1.12942 39.1479 0.988222 39.1479C0.823486 39.1479 0.705818 39.2181 0.588149 39.3351C0.470481 39.4521 0.423414 39.6393 0.423414 39.8966Z" fill="#2E2D2D"/>
<path d="M2.42188 40.973V38.8906H2.75135V39.2182C2.82195 39.0778 2.91608 38.9842 2.98668 38.9374C3.05728 38.8906 3.12788 38.8672 3.22202 38.8672C3.33969 38.8672 3.45736 38.914 3.59856 38.9842L3.48089 39.3118C3.38676 39.265 3.31615 39.2416 3.22202 39.2416C3.15142 39.2416 3.08082 39.265 3.01022 39.3118C2.93962 39.3586 2.89255 39.4287 2.86901 39.4989C2.82195 39.6159 2.79841 39.7563 2.79841 39.9201V41.0198H2.42188V40.973Z" fill="#2E2D2D"/>
<path d="M3.64844 39.92C3.64844 39.5457 3.76611 39.2415 3.97791 39.0543C4.16618 38.8905 4.37798 38.8203 4.63685 38.8203C4.91926 38.8203 5.15459 38.9139 5.34286 39.1011C5.53113 39.2883 5.62527 39.5457 5.62527 39.8732C5.62527 40.1306 5.5782 40.3412 5.5076 40.505C5.437 40.6688 5.31933 40.7858 5.15459 40.856C4.98986 40.9496 4.82512 40.973 4.63685 40.973C4.35445 40.973 4.09558 40.8794 3.93084 40.6922C3.74257 40.5518 3.64844 40.2944 3.64844 39.92ZM4.02498 39.92C4.02498 40.1774 4.07204 40.388 4.18971 40.5284C4.30738 40.6688 4.44858 40.739 4.63685 40.739C4.80159 40.739 4.96632 40.6688 5.08399 40.5284C5.20166 40.388 5.24873 40.2008 5.24873 39.92C5.24873 39.6627 5.17813 39.4755 5.06046 39.3351C4.94279 39.1947 4.80159 39.1245 4.61332 39.1245C4.42505 39.1245 4.28385 39.1947 4.16618 39.3117C4.07204 39.4755 4.02498 39.6627 4.02498 39.92Z" fill="#2E2D2D"/>
<path d="M6.42447 40.9692L5.78906 38.8867H6.1656L6.49507 40.08L6.61274 40.5246C6.61274 40.5012 6.65981 40.3608 6.73041 40.1034L7.05988 38.8867H7.43642L7.74236 40.1034L7.83649 40.5012L7.95416 40.1034L8.30716 38.9101H8.66017L8.00123 40.9926H7.62469L7.29522 39.7525L7.22462 39.4015L6.80101 41.016H6.42447V40.9692Z" fill="#2E2D2D"/>
<path d="M8.9375 38.4915V38.0938H9.29051V38.4915H8.9375ZM8.9375 40.9717V38.8893H9.29051V40.9717H8.9375Z" fill="#2E2D2D"/>
<path d="M9.83594 40.973V38.8905H10.1654V39.1947C10.3301 38.9607 10.5419 38.8438 10.8244 38.8438C10.942 38.8438 11.0597 38.8671 11.1774 38.9139C11.2715 38.9607 11.3656 39.0075 11.4127 39.1011C11.4598 39.1713 11.5068 39.2649 11.5304 39.3585C11.5539 39.4287 11.5539 39.5457 11.5539 39.7095V40.9964H11.2009V39.7329C11.2009 39.5925 11.1774 39.4755 11.1538 39.4053C11.1303 39.3351 11.0832 39.2883 11.0126 39.2415C10.942 39.1947 10.8714 39.1713 10.7538 39.1713C10.6125 39.1713 10.4713 39.2181 10.3537 39.3117C10.236 39.4053 10.1889 39.5925 10.1889 39.8499V40.9964H9.83594V40.973Z" fill="#2E2D2D"/>
<path d="M12.0237 41.1367L12.3767 41.1835C12.4003 41.3005 12.4238 41.3707 12.4944 41.4175C12.5885 41.4877 12.7062 41.5111 12.8474 41.5111C13.0121 41.5111 13.1298 41.4877 13.2239 41.4175C13.3181 41.3473 13.3651 41.2537 13.4122 41.1367C13.4357 41.0666 13.4357 40.9028 13.4357 40.6922C13.271 40.8794 13.0827 40.973 12.8474 40.973C12.565 40.973 12.3297 40.8794 12.1885 40.6688C12.0237 40.4582 11.9531 40.2242 11.9531 39.92C11.9531 39.7329 12.0002 39.5457 12.0708 39.3585C12.1414 39.1947 12.2591 39.0543 12.3767 38.9607C12.5179 38.8671 12.6827 38.8203 12.8709 38.8203C13.1298 38.8203 13.3181 38.9139 13.4828 39.1245V38.8671H13.8123V40.6688C13.8123 40.9964 13.7888 41.2303 13.7182 41.3473C13.6475 41.4877 13.5534 41.5813 13.4122 41.6749C13.271 41.7451 13.0827 41.7919 12.8709 41.7919C12.6121 41.7919 12.4238 41.7451 12.2591 41.6281C12.0943 41.5345 12.0237 41.3707 12.0237 41.1367ZM12.3297 39.8966C12.3297 40.1774 12.3767 40.3646 12.4944 40.505C12.6121 40.622 12.7297 40.6922 12.8945 40.6922C13.0592 40.6922 13.2004 40.622 13.2945 40.505C13.4122 40.388 13.4593 40.1774 13.4593 39.92C13.4593 39.6627 13.4122 39.4755 13.2945 39.3351C13.1769 39.1947 13.0357 39.1479 12.8945 39.1479C12.7297 39.1479 12.6121 39.2181 12.4944 39.3351C12.3767 39.4521 12.3297 39.6393 12.3297 39.8966Z" fill="#2E2D2D"/>
<path d="M16.8263 40.2009L17.1793 40.2477C17.1322 40.4817 17.0381 40.6689 16.8969 40.8092C16.7321 40.9496 16.5439 41.0198 16.3085 41.0198C16.0261 41.0198 15.7908 40.9262 15.6261 40.7391C15.4613 40.5519 15.3672 40.2945 15.3672 39.9435C15.3672 39.7095 15.4143 39.5223 15.4849 39.3586C15.5555 39.1948 15.6731 39.0544 15.8379 38.9842C16.0026 38.8906 16.1673 38.8672 16.3321 38.8672C16.5674 38.8672 16.7557 38.914 16.8969 39.031C17.0381 39.148 17.1322 39.3118 17.1793 39.5223L16.8263 39.5691C16.8027 39.4287 16.7321 39.3352 16.6615 39.265C16.5674 39.1948 16.4733 39.148 16.3556 39.148C16.1673 39.148 16.0261 39.2182 15.9085 39.3352C15.7908 39.4521 15.7437 39.6627 15.7437 39.9435C15.7437 40.2243 15.7908 40.4349 15.9085 40.5519C16.0261 40.6689 16.1673 40.7391 16.3321 40.7391C16.4733 40.7391 16.5909 40.6923 16.6851 40.6221C16.7557 40.5285 16.8027 40.3881 16.8263 40.2009Z" fill="#2E2D2D"/>
<path d="M17.3438 39.92C17.3438 39.5457 17.4614 39.2415 17.6732 39.0543C17.8615 38.8905 18.0733 38.8203 18.3322 38.8203C18.6146 38.8203 18.8499 38.9139 19.0382 39.1011C19.2264 39.2883 19.3206 39.5457 19.3206 39.8732C19.3206 40.1306 19.2735 40.3412 19.2029 40.505C19.1323 40.6688 19.0146 40.7858 18.8499 40.856C18.6852 40.9496 18.5204 40.973 18.3322 40.973C18.0498 40.973 17.7909 40.8794 17.6262 40.6922C17.4379 40.5518 17.3438 40.2944 17.3438 39.92ZM17.7203 39.92C17.7203 40.1774 17.7674 40.388 17.885 40.5284C18.0027 40.6688 18.1439 40.739 18.3322 40.739C18.4969 40.739 18.6616 40.6688 18.7793 40.5284C18.897 40.388 18.944 40.2008 18.944 39.92C18.944 39.6627 18.8734 39.4755 18.7558 39.3351C18.6381 39.1947 18.4969 39.1245 18.3086 39.1245C18.1204 39.1245 17.9792 39.1947 17.8615 39.3117C17.7674 39.4755 17.7203 39.6627 17.7203 39.92Z" fill="#2E2D2D"/>
<path d="M19.7266 40.9729V38.8905H20.0325V39.1712C20.1031 39.0777 20.1972 38.9841 20.2914 38.9139C20.409 38.8437 20.5267 38.8203 20.6679 38.8203C20.8326 38.8203 20.9503 38.8437 21.0444 38.9139C21.1386 38.9841 21.2092 39.0777 21.2563 39.1712C21.421 38.9373 21.6328 38.7969 21.9152 38.7969C22.127 38.7969 22.2917 38.8437 22.3859 38.9607C22.5035 39.0777 22.5506 39.2414 22.5506 39.4988V40.9261H22.1976V39.6158C22.1976 39.4754 22.1976 39.3818 22.1741 39.3116C22.1505 39.2414 22.1035 39.1946 22.0564 39.1712C21.9858 39.1244 21.9152 39.1245 21.8446 39.1245C21.7034 39.1245 21.5857 39.1712 21.4681 39.2648C21.3739 39.3584 21.3269 39.5222 21.3269 39.7328V40.9495H20.9738V39.5924C20.9738 39.4286 20.9503 39.3116 20.8797 39.2414C20.8326 39.1712 20.7385 39.1245 20.5973 39.1245C20.5032 39.1245 20.409 39.1478 20.3149 39.1946C20.2208 39.2414 20.1737 39.335 20.1266 39.4286C20.0796 39.5222 20.0796 39.686 20.0796 39.8732V40.9495H19.7266V40.9729Z" fill="#2E2D2D"/>
<path d="M23.1094 41.7686V38.8906H23.4388V39.1714C23.5094 39.0544 23.6036 38.9842 23.6977 38.9374C23.7919 38.8906 23.9095 38.8672 24.0507 38.8672C24.239 38.8672 24.3802 38.914 24.5214 39.0076C24.6626 39.1012 24.7567 39.2182 24.8273 39.4053C24.8979 39.5691 24.9215 39.7563 24.9215 39.9435C24.9215 40.1541 24.8744 40.3413 24.8038 40.5285C24.7332 40.6923 24.6155 40.8326 24.4743 40.9262C24.3331 41.0198 24.1684 41.0666 24.0037 41.0666C23.886 41.0666 23.7683 41.0432 23.6742 40.9964C23.58 40.9496 23.5094 40.8794 23.4388 40.8092V41.8154H23.1094V41.7686ZM23.4153 39.9435C23.4153 40.2009 23.4624 40.4115 23.58 40.5285C23.6977 40.6455 23.8154 40.7157 23.9801 40.7157C24.1449 40.7157 24.2625 40.6455 24.3802 40.5051C24.4979 40.3647 24.5449 40.1775 24.5449 39.8967C24.5449 39.6393 24.4979 39.4287 24.3802 39.3118C24.2625 39.1714 24.1449 39.1246 23.9801 39.1246C23.8389 39.1246 23.6977 39.1948 23.58 39.3352C23.4859 39.4755 23.4153 39.6861 23.4153 39.9435Z" fill="#2E2D2D"/>
<path d="M26.7093 40.7157C26.5681 40.8326 26.4504 40.9028 26.3327 40.9496C26.2151 40.9964 26.0739 41.0198 25.9327 41.0198C25.6973 41.0198 25.5326 40.973 25.3914 40.856C25.2737 40.7391 25.2031 40.5987 25.2031 40.4349C25.2031 40.3413 25.2267 40.2477 25.2737 40.1541C25.3208 40.0605 25.3914 40.0137 25.462 39.9435C25.5326 39.8967 25.6267 39.8499 25.7209 39.8265C25.7915 39.8031 25.8856 39.7797 26.0268 39.7797C26.3092 39.7563 26.521 39.7095 26.6622 39.6627C26.6622 39.6159 26.6622 39.5925 26.6622 39.5691C26.6622 39.4287 26.6387 39.3352 26.5681 39.265C26.4739 39.1948 26.3327 39.148 26.168 39.148C26.0033 39.148 25.8856 39.1714 25.7915 39.2416C25.7209 39.2884 25.6503 39.4053 25.6032 39.5457L25.2502 39.4989C25.2737 39.3586 25.3443 39.2416 25.4149 39.148C25.4855 39.0544 25.6032 38.9842 25.7209 38.9374C25.8621 38.8906 26.0268 38.8672 26.1915 38.8672C26.3798 38.8672 26.521 38.8906 26.6387 38.9374C26.7563 38.9842 26.8269 39.031 26.874 39.1012C26.9211 39.1714 26.9682 39.2416 26.9917 39.3352C26.9917 39.4053 27.0152 39.4989 27.0152 39.6627V40.1307C27.0152 40.4583 27.0152 40.6689 27.0388 40.7624C27.0623 40.856 27.0858 40.9262 27.1329 41.0198H26.7563C26.7563 40.9028 26.7328 40.8092 26.7093 40.7157ZM26.6857 39.9201C26.5681 39.9669 26.3563 40.0137 26.0974 40.0605C25.9562 40.0839 25.8385 40.1073 25.7915 40.1307C25.7209 40.1541 25.6738 40.2009 25.6503 40.2477C25.6267 40.2945 25.6032 40.3647 25.6032 40.4115C25.6032 40.5051 25.6503 40.5753 25.7209 40.6455C25.7915 40.7157 25.9091 40.7391 26.0268 40.7391C26.168 40.7391 26.2857 40.7157 26.4033 40.6455C26.521 40.5753 26.5916 40.5051 26.6387 40.4115C26.6857 40.3413 26.6857 40.2243 26.6857 40.0605V39.9201Z" fill="#2E2D2D"/>
<path d="M27.6016 40.973V38.8905H27.931V39.1947C28.0958 38.9607 28.3076 38.8438 28.59 38.8438C28.7076 38.8438 28.8253 38.8671 28.943 38.9139C29.0371 38.9607 29.1313 39.0075 29.1783 39.1011C29.2254 39.1713 29.2725 39.2649 29.296 39.3585C29.3195 39.4287 29.3195 39.5457 29.3195 39.7095V40.9964H28.943V39.7329C28.943 39.5925 28.9194 39.4755 28.8959 39.4053C28.8724 39.3351 28.8253 39.2883 28.7547 39.2415C28.6841 39.1947 28.6135 39.1713 28.4958 39.1713C28.3546 39.1713 28.2134 39.2181 28.0958 39.3117C27.9781 39.4053 27.931 39.5925 27.931 39.8499V40.9964H27.6016V40.973Z" fill="#2E2D2D"/>
<path d="M29.8359 38.4915V38.0938H30.1889V38.4915H29.8359ZM29.8359 40.9717V38.8893H30.1889V40.9717H29.8359Z" fill="#2E2D2D"/>
<path d="M32.1703 40.2944L32.5469 40.3412C32.4998 40.5518 32.3821 40.7156 32.2174 40.8326C32.0526 40.9496 31.8644 41.0198 31.629 41.0198C31.3231 41.0198 31.0878 40.9262 30.8995 40.739C30.7112 40.5518 30.6406 40.2944 30.6406 39.9435C30.6406 39.5925 30.7348 39.3117 30.923 39.1245C31.1113 38.9373 31.3466 38.8438 31.629 38.8438C31.9114 38.8438 32.1468 38.9373 32.3115 39.1245C32.4998 39.3117 32.5704 39.5925 32.5704 39.9201C32.5704 39.9435 32.5704 39.9669 32.5704 40.0137H31.0172C31.0407 40.2476 31.0878 40.4114 31.2054 40.5284C31.3231 40.6454 31.4643 40.7156 31.6526 40.7156C31.7938 40.7156 31.8879 40.6922 31.982 40.622C32.0526 40.5518 32.1232 40.4582 32.1703 40.2944ZM31.0172 39.7329H32.1938C32.1703 39.5691 32.1232 39.4287 32.0526 39.3351C31.935 39.1947 31.7938 39.1245 31.6055 39.1245C31.4408 39.1245 31.2996 39.1713 31.2054 39.2883C31.0878 39.4053 31.0172 39.5457 31.0172 39.7329Z" fill="#2E2D2D"/>
<path d="M32.8516 40.3374L33.2046 40.2906C33.2281 40.431 33.2752 40.548 33.3693 40.6182C33.4634 40.6884 33.5811 40.7352 33.7458 40.7352C33.9106 40.7352 34.0282 40.7118 34.0988 40.6416C34.1694 40.5714 34.2165 40.5012 34.2165 40.4076C34.2165 40.3374 34.193 40.2672 34.1224 40.2204C34.0753 40.197 33.9576 40.1502 33.7694 40.1034C33.5105 40.0332 33.3222 39.9864 33.2281 39.9396C33.134 39.8928 33.0398 39.8227 32.9928 39.7525C32.9457 39.6589 32.9222 39.5653 32.9222 39.4717C32.9222 39.3781 32.9457 39.2845 32.9928 39.2143C33.0398 39.1441 33.0869 39.0739 33.1575 39.0271C33.2046 38.9803 33.2987 38.9569 33.3928 38.9335C33.487 38.9101 33.5811 38.8867 33.6988 38.8867C33.8635 38.8867 34.0047 38.9101 34.1224 38.9569C34.24 39.0037 34.3342 39.0739 34.4048 39.1441C34.4754 39.2143 34.4989 39.3313 34.5225 39.4717L34.1694 39.5185C34.1459 39.4015 34.0988 39.3313 34.0282 39.2611C33.9576 39.1909 33.84 39.1675 33.6988 39.1675C33.534 39.1675 33.4164 39.1909 33.3458 39.2377C33.2752 39.2845 33.2516 39.3547 33.2516 39.4249C33.2516 39.4717 33.2752 39.5185 33.2987 39.5419C33.3222 39.5887 33.3693 39.6121 33.4399 39.6355C33.487 39.6589 33.5811 39.6823 33.7458 39.7291C34.0047 39.7993 34.1694 39.8461 34.2636 39.8928C34.3577 39.9396 34.4519 39.9864 34.4989 40.08C34.546 40.1502 34.5931 40.2672 34.5931 40.3842C34.5931 40.5012 34.5695 40.6182 34.4989 40.7118C34.4283 40.8054 34.3342 40.899 34.193 40.9458C34.0518 40.9926 33.9106 41.0394 33.7458 41.0394C33.4634 41.0394 33.2752 40.9926 33.134 40.8756C32.9692 40.7352 32.8751 40.5714 32.8516 40.3374Z" fill="#2E2D2D"/>
<path d="M37.4905 40.7157C37.3493 40.8326 37.2317 40.9028 37.114 40.9496C36.9963 40.9964 36.8551 41.0198 36.7139 41.0198C36.4786 41.0198 36.3138 40.973 36.1726 40.856C36.055 40.7391 35.9844 40.5987 35.9844 40.4349C35.9844 40.3413 36.0079 40.2477 36.055 40.1541C36.102 40.0605 36.1726 40.0137 36.2432 39.9435C36.3138 39.8967 36.408 39.8499 36.5021 39.8265C36.5727 39.8031 36.6669 39.7797 36.8081 39.7797C37.0905 39.7563 37.3023 39.7095 37.4435 39.6627C37.4435 39.6159 37.4435 39.5925 37.4435 39.5691C37.4435 39.4287 37.4199 39.3352 37.3493 39.265C37.2552 39.1948 37.114 39.148 36.9493 39.148C36.7845 39.148 36.6669 39.1714 36.5727 39.2416C36.5021 39.2884 36.4315 39.4053 36.3845 39.5457L36.0314 39.4989C36.055 39.3586 36.1256 39.2416 36.1962 39.148C36.2668 39.0544 36.3845 38.9842 36.5021 38.9374C36.6433 38.8906 36.8081 38.8672 36.9728 38.8672C37.1611 38.8672 37.3023 38.8906 37.4199 38.9374C37.5376 38.9842 37.6082 39.031 37.6553 39.1012C37.7023 39.1714 37.7494 39.2416 37.7729 39.3352C37.7729 39.4053 37.7965 39.4989 37.7965 39.6627V40.1307C37.7965 40.4583 37.7965 40.6689 37.82 40.7624C37.8435 40.856 37.8671 40.9262 37.9141 41.0198H37.5376C37.5376 40.9028 37.5141 40.8092 37.4905 40.7157ZM37.467 39.9201C37.3493 39.9669 37.1375 40.0137 36.8787 40.0605C36.7375 40.0839 36.6198 40.1073 36.5727 40.1307C36.5021 40.1541 36.4551 40.2009 36.4315 40.2477C36.408 40.2945 36.3845 40.3647 36.3845 40.4115C36.3845 40.5051 36.4315 40.5753 36.5021 40.6455C36.5727 40.7157 36.6904 40.7391 36.8081 40.7391C36.9493 40.7391 37.0669 40.7157 37.1846 40.6455C37.3023 40.5753 37.3729 40.5051 37.4199 40.4115C37.467 40.3413 37.467 40.2243 37.467 40.0605V39.9201Z" fill="#2E2D2D"/>
<path d="M38.3828 40.973V38.8905H38.7123V39.1947C38.877 38.9607 39.0888 38.8438 39.3712 38.8438C39.4889 38.8438 39.6066 38.8671 39.7242 38.9139C39.8184 38.9607 39.9125 39.0075 39.9596 39.1011C40.0066 39.1713 40.0537 39.2649 40.0772 39.3585C40.1008 39.4287 40.1008 39.5457 40.1008 39.7095V40.9964H39.7478V39.7329C39.7478 39.5925 39.7242 39.4755 39.7007 39.4053C39.6772 39.3351 39.6301 39.2883 39.5595 39.2415C39.4889 39.1947 39.4183 39.1713 39.3006 39.1713C39.1594 39.1713 39.0182 39.2181 38.9006 39.3117C38.7829 39.4053 38.7358 39.5925 38.7358 39.8499V40.9964H38.3828V40.973Z" fill="#2E2D2D"/>
<path d="M41.9827 40.9717V40.7144C41.8415 40.9249 41.6532 41.0185 41.3944 41.0185C41.2296 41.0185 41.0649 40.9717 40.9237 40.8781C40.7825 40.7846 40.6648 40.6676 40.5942 40.5038C40.5236 40.34 40.4766 40.1528 40.4766 39.9422C40.4766 39.7316 40.5001 39.5444 40.5707 39.3807C40.6413 39.2169 40.7354 39.0765 40.8766 38.9829C41.0178 38.8893 41.1826 38.8425 41.3473 38.8425C41.465 38.8425 41.5826 38.8659 41.6768 38.9127C41.7709 38.9595 41.8651 39.0297 41.9121 39.1233V38.0938H42.2651V40.9717H41.9827ZM40.8531 39.9422C40.8531 40.1996 40.9002 40.4102 41.0178 40.5506C41.1355 40.691 41.2532 40.7378 41.4179 40.7378C41.5826 40.7378 41.7003 40.6676 41.818 40.5506C41.9356 40.4336 41.9827 40.223 41.9827 39.9656C41.9827 39.6848 41.9356 39.4743 41.818 39.3339C41.7003 39.1935 41.5826 39.1233 41.4179 39.1233C41.2532 39.1233 41.1355 39.1935 41.0178 39.3105C40.9237 39.4509 40.8531 39.6614 40.8531 39.9422Z" fill="#2E2D2D"/>
<path d="M43.9844 41.7686V38.8906H44.3138V39.1714C44.3844 39.0544 44.4786 38.9842 44.5727 38.9374C44.6669 38.8906 44.7845 38.8672 44.9257 38.8672C45.114 38.8672 45.2552 38.914 45.3964 39.0076C45.5376 39.1012 45.6317 39.2182 45.7023 39.4053C45.7729 39.5925 45.7965 39.7563 45.7965 39.9435C45.7965 40.1541 45.7494 40.3413 45.6788 40.5285C45.6082 40.6923 45.4905 40.8326 45.3493 40.9262C45.2081 41.0198 45.0434 41.0666 44.8787 41.0666C44.761 41.0666 44.6433 41.0432 44.5492 40.9964C44.4551 40.9496 44.3844 40.8794 44.3138 40.8092V41.8154H43.9844V41.7686ZM44.3138 39.9435C44.3138 40.2009 44.3609 40.4115 44.4786 40.5285C44.5963 40.6455 44.7139 40.7157 44.8787 40.7157C45.0434 40.7157 45.1611 40.6455 45.2787 40.5051C45.3964 40.3647 45.4435 40.1775 45.4435 39.8967C45.4435 39.6393 45.3964 39.4287 45.2787 39.3118C45.1611 39.1714 45.0434 39.1246 44.8787 39.1246C44.7375 39.1246 44.5963 39.1948 44.4786 39.3352C44.3844 39.4755 44.3138 39.6861 44.3138 39.9435Z" fill="#2E2D2D"/>
<path d="M47.6781 40.2944L48.0547 40.3412C48.0076 40.5518 47.8899 40.7156 47.7252 40.8326C47.5605 40.9496 47.3722 41.0198 47.1369 41.0198C46.8309 41.0198 46.5956 40.9262 46.4073 40.739C46.219 40.5518 46.1484 40.2944 46.1484 39.9435C46.1484 39.5925 46.2426 39.3117 46.4308 39.1245C46.6191 38.9373 46.8544 38.8438 47.1369 38.8438C47.4193 38.8438 47.6546 38.9373 47.8193 39.1245C48.0076 39.3117 48.0782 39.5925 48.0782 39.9201C48.0782 39.9435 48.0782 39.9669 48.0782 40.0137H46.525C46.5485 40.2476 46.5956 40.4114 46.7132 40.5284C46.8309 40.6454 46.9721 40.7156 47.1604 40.7156C47.3016 40.7156 47.3957 40.6922 47.4899 40.622C47.5605 40.5518 47.6311 40.4582 47.6781 40.2944ZM46.5014 39.7329H47.6781C47.6546 39.5691 47.6075 39.4287 47.5369 39.3351C47.4193 39.1947 47.2781 39.1245 47.0898 39.1245C46.925 39.1245 46.7838 39.1713 46.6897 39.2883C46.5956 39.4053 46.525 39.5457 46.5014 39.7329Z" fill="#2E2D2D"/>
<path d="M48.3594 39.92C48.3594 39.5457 48.477 39.2415 48.6888 39.0543C48.8771 38.8905 49.0889 38.8203 49.3478 38.8203C49.6302 38.8203 49.8655 38.9139 50.0538 39.1011C50.2421 39.2883 50.3362 39.5457 50.3362 39.8732C50.3362 40.1306 50.2891 40.3412 50.2185 40.505C50.1479 40.6688 50.0303 40.7858 49.8655 40.856C49.7008 40.9496 49.5361 40.973 49.3478 40.973C49.0654 40.973 48.8065 40.8794 48.6418 40.6922C48.4535 40.5518 48.3594 40.2944 48.3594 39.92ZM48.7124 39.92C48.7124 40.1774 48.7594 40.388 48.8771 40.5284C48.9948 40.6688 49.136 40.739 49.3243 40.739C49.489 40.739 49.6537 40.6688 49.7714 40.5284C49.8891 40.388 49.9361 40.2008 49.9361 39.92C49.9361 39.6627 49.8655 39.4755 49.7479 39.3351C49.6302 39.1947 49.489 39.1245 49.3007 39.1245C49.1125 39.1245 48.9713 39.1947 48.8536 39.3117C48.783 39.4755 48.7124 39.6627 48.7124 39.92Z" fill="#2E2D2D"/>
<path d="M50.7344 41.7686V38.8906H51.0638V39.1714C51.1344 39.0544 51.2286 38.9842 51.3227 38.9374C51.4169 38.8906 51.5345 38.8672 51.6757 38.8672C51.864 38.8672 52.0052 38.914 52.1464 39.0076C52.2876 39.1012 52.3817 39.2182 52.4523 39.4053C52.5229 39.5691 52.5465 39.7563 52.5465 39.9435C52.5465 40.1541 52.4994 40.3413 52.4288 40.5285C52.3582 40.6923 52.2405 40.8326 52.0993 40.9262C51.9581 41.0198 51.7934 41.0666 51.6287 41.0666C51.511 41.0666 51.3933 41.0432 51.2992 40.9964C51.205 40.9496 51.1344 40.8794 51.0638 40.8092V41.8154H50.7344V41.7686ZM51.0638 39.9435C51.0638 40.2009 51.1109 40.4115 51.2286 40.5285C51.3462 40.6455 51.4639 40.7157 51.6287 40.7157C51.7934 40.7157 51.9111 40.6455 52.0287 40.5051C52.1464 40.3647 52.1935 40.1775 52.1935 39.8967C52.1935 39.6393 52.1464 39.4287 52.0287 39.3118C51.9111 39.1714 51.7934 39.1246 51.6287 39.1246C51.4874 39.1246 51.3462 39.1948 51.2286 39.3352C51.1109 39.4755 51.0638 39.6861 51.0638 39.9435Z" fill="#2E2D2D"/>
<path d="M52.9766 40.9717V38.0938H53.3296V40.9717H52.9766Z" fill="#2E2D2D"/>
<path d="M55.3266 40.2944L55.7031 40.3412C55.656 40.5518 55.5384 40.7156 55.3736 40.8326C55.2089 40.9496 55.0206 41.0198 54.7853 41.0198C54.4794 41.0198 54.244 40.9262 54.0557 40.739C53.8675 40.5518 53.7969 40.2944 53.7969 39.9435C53.7969 39.5925 53.891 39.3117 54.0793 39.1245C54.2675 38.9373 54.5029 38.8438 54.7853 38.8438C55.0677 38.8438 55.303 38.9373 55.4678 39.1245C55.656 39.3117 55.7266 39.5925 55.7266 39.9201C55.7266 39.9435 55.7266 39.9669 55.7266 40.0137H54.1263C54.1499 40.2476 54.1969 40.4114 54.3146 40.5284C54.4323 40.6454 54.5735 40.7156 54.7618 40.7156C54.903 40.7156 54.9971 40.6922 55.0912 40.622C55.1854 40.5518 55.256 40.4582 55.3266 40.2944ZM54.1499 39.7329H55.3266C55.303 39.5691 55.256 39.4287 55.1854 39.3351C55.0677 39.1947 54.9265 39.1245 54.7382 39.1245C54.5735 39.1245 54.4323 39.1713 54.3381 39.2883C54.2205 39.4053 54.1734 39.5457 54.1499 39.7329Z" fill="#2E2D2D"/>
<path d="M46.2862 8.7293V8.61231C48.5219 7.91036 49.0632 6.27248 49.0632 4.04963V4.00284C49.0632 2.83292 48.8278 1.82679 48.3336 1.03125H39.3673V16.9187L39.3438 18.9778H43.9564C47.4158 18.9778 49.2514 17.4569 49.2514 13.1282V13.0814C49.2514 10.8351 48.4277 9.19727 46.2862 8.7293ZM43.2033 2.03738H43.4857C44.9448 2.03738 45.3448 2.90312 45.3448 4.30702V4.40061C45.3448 5.85131 44.9448 7.02122 43.5563 7.02122H43.1797V2.03738H43.2033ZM45.3684 13.058C45.3684 14.9533 44.9212 15.6552 43.4386 15.6552H43.1797V10.4374H43.4857C44.8506 10.4374 45.3448 11.4201 45.3448 12.9644V13.058H45.3684Z" fill="#2E2D2D"/>
<path d="M56.4074 1.03125V14.0875C56.4074 15.234 56.1486 15.8892 55.3249 15.8892C54.5012 15.8892 54.2423 15.234 54.2423 14.0875V1.03125H50.3828V13.9705C50.3828 17.4101 52.1949 19.3287 55.3013 19.3287C58.3843 19.3287 60.267 17.4101 60.267 13.9705V1.03125H56.4074Z" fill="#2E2D2D"/>
<path d="M68.4067 7.67243L66.9712 6.59611C65.8886 5.80056 65.3238 4.93483 65.3238 3.71811C65.3238 2.66519 65.7474 2.03343 66.477 2.03343C67.183 2.03343 67.5595 2.68859 67.5595 4.63065H71.2778C71.3014 3.10976 71.1131 1.91644 70.7601 1.00391H62.2174C61.7938 1.82285 61.582 2.85237 61.582 4.06909C61.582 6.6663 62.5468 8.32758 64.6413 9.89527L65.9357 10.878C67.23 11.8607 67.583 13.0072 67.583 14.107C67.583 15.3471 67.1359 15.7449 66.524 15.7449C65.6533 15.7449 65.2532 14.9259 65.2532 12.9839H61.4172C61.3231 17.4529 63.347 19.3248 66.3357 19.3248C69.3716 19.3248 71.372 17.4061 71.372 13.4752C71.372 10.3164 70.0776 8.91254 68.4067 7.67243Z" fill="#2E2D2D"/>
<path d="M76.4143 16.9187V1.03125H72.5548V16.9187L72.5312 18.9778H76.4378L76.4143 16.9187Z" fill="#2E2D2D"/>
<path d="M88.1337 16.9187V1.03125H84.533V5.33654C84.533 6.03849 84.5565 7.02122 84.5801 7.69977H84.4859C84.18 6.90423 84.1565 6.71704 83.6623 5.61732L81.7796 1.03125H78.3907V16.9187L78.3672 18.9778H82.0149L81.9914 16.9187V12.3794C81.9914 11.6541 81.9678 10.6714 81.8972 10.0162H82.0149C82.1326 10.2736 82.4385 11.1627 82.7209 11.7945L85.7568 18.9778H88.1807L88.1337 16.9187Z" fill="#2E2D2D"/>
<path d="M93.969 15.5148V10.5778H97.2166V6.76384H93.969V2.24796H98.0168V1.03125H90.1095V16.9187L90.0859 18.9778H98.0874V15.5148H93.969Z" fill="#2E2D2D"/>
<path d="M106.25 7.67637L104.815 6.60005C103.732 5.80451 103.168 4.93877 103.168 3.72206C103.168 2.66913 103.591 2.03738 104.321 2.03738C105.027 2.03738 105.403 2.69253 105.403 4.63459H109.122C109.145 3.1371 108.957 1.94378 108.604 1.03125H100.014C99.614 1.85019 99.3786 2.87972 99.3786 4.07303C99.3786 6.67025 100.344 8.33153 102.438 9.89922L103.732 10.8819C105.027 11.8647 105.38 13.0112 105.38 14.1109C105.38 15.351 104.933 15.7488 104.344 15.7488C103.473 15.7488 103.073 14.9299 103.073 12.9878H99.261C99.1668 17.4569 101.191 19.3287 104.18 19.3287C107.215 19.3287 109.216 17.4101 109.216 13.4792C109.216 10.3204 107.921 8.91649 106.25 7.67637Z" fill="#2E2D2D"/>
<path d="M117.219 7.67637L115.784 6.60005C114.701 5.80451 114.136 4.93877 114.136 3.72206C114.136 2.66913 114.56 2.03738 115.289 2.03738C115.995 2.03738 116.372 2.69253 116.372 4.63459H120.09C120.114 3.1371 119.925 1.94378 119.572 1.03125H111.006C110.606 1.85019 110.371 2.87972 110.371 4.07303C110.371 6.67025 111.336 8.33153 113.43 9.89922L114.725 10.8819C116.019 11.8647 116.372 13.0112 116.372 14.1109C116.372 15.351 115.925 15.7488 115.336 15.7488C114.466 15.7488 114.066 14.9299 114.066 12.9878H110.253C110.159 17.4569 112.183 19.3287 115.172 19.3287C118.208 19.3287 120.208 17.4101 120.208 13.4792C120.184 10.3204 118.89 8.91649 117.219 7.67637Z" fill="#2E2D2D"/>
<path d="M71.54 31.0041L70.1045 29.9278C69.0219 29.1323 68.4571 28.2665 68.4571 27.0498C68.4571 25.9969 68.8807 25.3651 69.6102 25.3651C70.3163 25.3651 70.6928 26.0203 70.6928 27.9624H74.4111C74.5053 23.4933 72.7167 21.8086 69.775 21.8086C66.7156 21.8086 64.7152 23.7741 64.7152 27.4008C64.7152 29.998 65.6801 31.6593 67.7746 33.227L69.069 34.2097C70.3633 35.1924 70.7163 36.3624 70.7163 37.4387C70.7163 38.6788 70.2692 39.0766 69.6573 39.0766C68.7866 39.0766 68.3865 38.2576 68.3865 36.3156H64.574C64.527 38.3512 64.9271 39.8487 65.6566 40.8548H73.4227C74.1287 39.8955 74.5288 38.5384 74.5288 36.7835C74.5053 33.6481 73.2109 32.2442 71.54 31.0041Z" fill="#2E2D2D"/>
<path d="M81.7598 34.7245V34.8883C81.7598 38.0237 81.7598 39.1936 80.6301 39.1936C79.477 39.1936 79.477 37.9535 79.477 35.6838V28.7813C79.477 26.3011 79.5711 25.2716 80.6301 25.2716C81.7127 25.2716 81.7127 26.3479 81.7127 28.7111V28.8749H85.5016V28.7579C85.5016 25.4822 84.9603 23.9379 84.019 23.0487C83.2189 22.3 81.9716 21.832 80.5125 21.832C79.0769 21.832 77.8767 22.2532 77.053 23.0721C76.0175 24.1017 75.5469 25.9033 75.5469 29.5769V34.8883C75.5469 37.8365 75.8293 39.7084 76.6059 40.8783H84.4426C85.1486 39.8253 85.5487 38.1641 85.5487 34.8415V34.7245H81.7598Z" fill="#2E2D2D"/>
<path d="M96.7672 24.2387L96.7908 22.1797H92.8842L92.9077 24.2387V30.0181H90.6956V24.2387L90.7191 22.1797H86.8125L86.836 24.2387V40.2432V40.875H90.7191V40.2432V33.8555H92.9313V40.2432V40.875H96.7908V40.2432V24.2387H96.7672Z" fill="#2E2D2D"/>
<path d="M107.622 23.1386C106.892 22.3898 105.668 21.9219 104.021 21.9219C102.421 21.9219 101.173 22.3664 100.42 23.1386C99.4318 24.1681 98.9141 25.6188 98.9141 29.6667V34.9781C98.9141 38.2773 99.2435 39.845 99.9025 40.8745H108.116C108.798 39.845 109.128 38.2773 109.128 34.9781V29.6667C109.151 25.5954 108.633 24.1915 107.622 23.1386ZM105.221 35.7737C105.221 38.1369 105.103 39.2834 104.021 39.2834C102.891 39.2834 102.821 38.1369 102.821 35.7737V28.8712C102.821 26.5079 102.868 25.3614 104.021 25.3614C105.103 25.3614 105.221 26.5079 105.221 28.8712V35.7737Z" fill="#2E2D2D"/>
<path d="M118.918 23.1386C118.189 22.3898 116.965 21.9219 115.318 21.9219C113.694 21.9219 112.447 22.3664 111.717 23.1386C110.729 24.1681 110.211 25.6188 110.211 29.6667V34.9781C110.211 38.2773 110.54 39.845 111.223 40.8745H119.413C120.095 39.845 120.425 38.2773 120.425 34.9781V29.6667C120.448 25.5954 119.907 24.1915 118.918 23.1386ZM116.518 35.7737C116.518 38.1369 116.4 39.2834 115.341 39.2834C114.212 39.2834 114.141 38.1369 114.141 35.7737V28.8712C114.141 26.5079 114.188 25.3614 115.341 25.3614C116.424 25.3614 116.518 26.5079 116.518 28.8712V35.7737Z" fill="#2E2D2D"/>
<path d="M125.906 38.8393V24.2387L125.93 22.1797H122.023L122.047 24.2387V40.2432V40.875H130.001V38.8393H125.906Z" fill="#2E2D2D"/>
<path d="M6.00109 1.03125V14.2747C6.00109 15.4212 5.74222 16.0764 4.91854 16.0764C4.09486 16.0764 3.83599 15.4212 3.83599 14.2747V1.03125H0V14.1577C0 17.5973 1.81209 19.5159 4.91854 19.5159C8.00145 19.5159 9.86061 17.5973 9.86061 14.1577V1.03125H6.00109Z" fill="#2E2D2D"/>
<path d="M17.6738 11.5839V11.7477C17.6738 14.8597 17.6738 16.053 16.5442 16.053C15.3911 16.053 15.3911 14.8129 15.3911 12.5432V5.64072C15.3911 3.1605 15.4852 2.13097 16.5442 2.13097C17.6268 2.13097 17.6268 3.20729 17.6268 5.57053V5.73431H21.4157V5.61732C21.4157 3.41788 21.1803 1.99058 20.7332 1.03125H12.214C11.6963 2.15437 11.4609 3.81565 11.4609 6.43626V11.7477C11.4609 15.2106 11.861 17.1761 12.9671 18.2758C13.7672 19.0714 14.8969 19.4925 16.4736 19.4925C18.0033 19.4925 19.1094 19.0948 19.9095 18.2758C20.8979 17.2697 21.4627 15.6552 21.4627 11.7009V11.5839H17.6738Z" fill="#2E2D2D"/>
<path d="M28.6651 1.03125V14.2747C28.6651 15.4212 28.4063 16.0764 27.5826 16.0764C26.7589 16.0764 26.5 15.4212 26.5 14.2747V1.03125H22.6641V14.1577C22.6641 17.5973 24.4762 19.5159 27.5826 19.5159C30.6655 19.5159 32.5482 17.5973 32.5482 14.1577V1.03125H28.6651Z" fill="#2E2D2D"/>
</g>
<defs>
<clipPath id="clip0_3884_25795">
<rect width="130" height="42" fill="white"/>
</clipPath>
</defs>
</svg>
