<svg width="175" height="42" viewBox="0 0 175 42" fill="none" xmlns="http://www.w3.org/2000/svg">
<path d="M0 42H174.551V7.62939e-06H0V42Z" fill="#FBFBF9"/>
<path d="M0 42H174.551V7.62939e-06H0V42Z" fill="#FBFBF9"/>
<mask id="mask0_3901_26318" style="mask-type:luminance" maskUnits="userSpaceOnUse" x="0" y="0" width="175" height="42">
<path d="M0 7.62939e-06H174.551V42H0V7.62939e-06Z" fill="white"/>
</mask>
<g mask="url(#mask0_3901_26318)">
<path d="M13.1172 18.869C13.1172 23.8279 16.4332 28.0001 24.1834 28.0001C27.7862 28.0001 30.3842 26.1508 31.9525 24.102L36.6633 28.707V18.0097H27.7772C27.7772 23.1126 26.4501 25.2857 24.7257 25.2857C23.0008 25.2857 21.5319 23.8195 21.5319 18.7166C21.5319 14.0846 22.5743 12.4522 26.5898 12.4522C29.3296 12.4522 34.4897 13.9999 36.6633 15.2455V9.73783H25.1257C16.1189 9.73783 13.1172 13.91 13.1172 18.869Z" fill="#2E2D2D"/>
</g>
<mask id="mask1_3901_26318" style="mask-type:luminance" maskUnits="userSpaceOnUse" x="0" y="0" width="175" height="42">
<path d="M0 7.62939e-06H174.551V42H0V7.62939e-06Z" fill="white"/>
</mask>
<g mask="url(#mask1_3901_26318)">
<path d="M78.3246 20.8478C78.3246 17.0661 77.4124 13.9998 70.3443 13.9998H60.2422V28H66.7843V20.8478C66.7843 16.8296 67.8505 16.0698 69.1659 16.0698C70.4813 16.0698 71.5475 16.8296 71.5475 20.8478V22.9564L78.3246 20.8478Z" fill="#2E2D2D"/>
</g>
<mask id="mask2_3901_26318" style="mask-type:luminance" maskUnits="userSpaceOnUse" x="0" y="0" width="175" height="42">
<path d="M0 7.62939e-06H174.551V42H0V7.62939e-06Z" fill="white"/>
</mask>
<g mask="url(#mask2_3901_26318)">
<path d="M48.5618 26.3324C47.2464 26.3324 46.1802 25.5541 46.1802 21.002C46.1802 16.4494 47.2464 15.6715 48.5618 15.6715C49.8772 15.6715 50.9434 16.4494 50.9434 21.002C50.9434 25.5541 49.8772 26.3324 48.5618 26.3324ZM48.5618 13.6016C41.4937 13.6016 39.2031 17.2198 39.2031 21.002C39.2031 24.7836 41.4937 28.4023 48.5618 28.4023C55.6299 28.4023 57.9205 24.7836 57.9205 21.002C57.9205 17.2198 55.6299 13.6016 48.5618 13.6016Z" fill="#2E2D2D"/>
</g>
<mask id="mask3_3901_26318" style="mask-type:luminance" maskUnits="userSpaceOnUse" x="0" y="0" width="175" height="42">
<path d="M0 7.62939e-06H174.551V42H0V7.62939e-06Z" fill="white"/>
</mask>
<g mask="url(#mask3_3901_26318)">
<path d="M131.27 13.9998H121.406V28H128.183V20.8478C128.183 16.8291 129.015 16.0698 130.33 16.0698C131.645 16.0698 132.477 16.8291 132.477 20.8478V28H139.254V20.8478C139.254 17.0656 138.872 13.9998 131.27 13.9998Z" fill="#2E2D2D"/>
</g>
<mask id="mask4_3901_26318" style="mask-type:luminance" maskUnits="userSpaceOnUse" x="0" y="0" width="175" height="42">
<path d="M0 7.62939e-06H174.551V42H0V7.62939e-06Z" fill="white"/>
</mask>
<g mask="url(#mask4_3901_26318)">
<path d="M89.1509 25.9315C87.8354 25.9315 86.7692 25.0198 86.7692 21.0016C86.7692 16.9834 87.8354 16.0712 89.1509 16.0712C90.4663 16.0712 91.5325 16.9834 91.5325 21.0016C91.5325 25.0198 90.4663 25.9315 89.1509 25.9315ZM88.9159 14.0012C81.8478 14.0012 79.9922 17.2194 79.9922 21.0016C79.9922 24.7833 81.8478 28.0014 88.9159 28.0014H91.4589C91.1848 30.4502 90.1303 31.4 88.5503 31.4C85.9121 31.4 82.8103 29.8899 81.2594 29.2787V33.234C81.2594 33.234 85.6613 33.9414 88.6794 33.9414C95.8422 33.9414 97.874 30.1962 97.874 25.7854V14.0012H88.9159Z" fill="#2E2D2D"/>
</g>
<mask id="mask5_3901_26318" style="mask-type:luminance" maskUnits="userSpaceOnUse" x="0" y="0" width="175" height="42">
<path d="M0 7.62939e-06H174.551V42H0V7.62939e-06Z" fill="white"/>
</mask>
<g mask="url(#mask5_3901_26318)">
<path d="M111.642 21.0002C111.642 25.0184 110.576 25.9301 109.26 25.9301C107.945 25.9301 106.879 25.0184 106.879 21.0002C106.879 16.982 107.945 16.0703 109.26 16.0703C110.576 16.0703 111.642 16.982 111.642 21.0002ZM100.102 21.0002C100.102 24.7818 101.957 28 109.025 28H117.983V14.0004H109.025C101.957 14.0004 100.102 17.2185 100.102 21.0002Z" fill="#2E2D2D"/>
</g>
<mask id="mask6_3901_26318" style="mask-type:luminance" maskUnits="userSpaceOnUse" x="0" y="0" width="175" height="42">
<path d="M0 7.62939e-06H174.551V42H0V7.62939e-06Z" fill="white"/>
</mask>
<g mask="url(#mask6_3901_26318)">
<path d="M153.07 14.0018V20.8497C153.07 24.8679 152.239 25.932 150.924 25.932C149.608 25.932 148.777 24.8679 148.777 20.8497V14.0018H142V20.8497C142 24.6314 143.386 28.002 150.454 28.002H152.997C152.723 30.4502 151.668 31.4 150.088 31.4C147.52 31.4 144.583 29.8899 143.032 29.2787V33.2345C143.032 33.2345 147.199 33.9414 150.217 33.9414C157.38 33.9414 159.847 30.1962 159.847 25.786V14.0018H153.07Z" fill="#2E2D2D"/>
</g>
</svg>
