<svg width="80" height="80" viewBox="0 0 80 80" fill="none" xmlns="http://www.w3.org/2000/svg">
<path d="M39.9974 73.3346C49.2021 73.3346 57.5354 69.6036 63.5676 63.5715C69.5997 57.5393 73.3307 49.206 73.3307 40.0013C73.3307 30.7966 69.5997 22.4633 63.5676 16.4311C57.5354 10.3989 49.2021 6.66797 39.9974 6.66797C30.7927 6.66797 22.4594 10.3989 16.4272 16.4311C10.395 22.4633 6.66406 30.7966 6.66406 40.0013C6.66406 49.206 10.395 57.5393 16.4272 63.5715C22.4594 69.6036 30.7927 73.3346 39.9974 73.3346Z" fill="#28694D"/>
<path d="M26.6641 40L36.6641 50L56.6641 30" stroke="#FBFBF9" stroke-width="2" stroke-linecap="round" stroke-linejoin="round"/>
<path d="M26.6641 40L36.6641 50L56.6641 30" stroke="#FBFBF9" stroke-width="2" stroke-linecap="round" stroke-linejoin="round"/>
</svg>
