<svg width="172" height="76" viewBox="0 0 172 76" fill="none" xmlns="http://www.w3.org/2000/svg">
<path d="M6.4985 18.5V10.1H7.6345V17.508H12.7705V10.1H13.9065V18.5H6.4985ZM14.1945 20.532V18.404L14.4825 18.5H12.7705V17.508H15.2665V20.532H14.1945ZM21.116 18.58C20.2413 18.58 19.4733 18.3987 18.812 18.036C18.1507 17.6627 17.6333 17.156 17.26 16.516C16.8867 15.8653 16.7 15.124 16.7 14.292C16.7 13.46 16.876 12.724 17.228 12.084C17.5907 11.444 18.0813 10.9427 18.7 10.58C19.3293 10.2067 20.0333 10.02 20.812 10.02C21.6013 10.02 22.3 10.2013 22.908 10.564C23.5267 10.916 24.012 11.4173 24.364 12.068C24.716 12.708 24.892 13.4493 24.892 14.292C24.892 14.3453 24.8867 14.404 24.876 14.468C24.876 14.5213 24.876 14.58 24.876 14.644H17.564V13.796H24.268L23.82 14.132C23.82 13.524 23.6867 12.9853 23.42 12.516C23.164 12.036 22.812 11.6627 22.364 11.396C21.916 11.1293 21.3987 10.996 20.812 10.996C20.236 10.996 19.7187 11.1293 19.26 11.396C18.8013 11.6627 18.444 12.036 18.188 12.516C17.932 12.996 17.804 13.5453 17.804 14.164V14.34C17.804 14.98 17.9427 15.5453 18.22 16.036C18.508 16.516 18.9027 16.8947 19.404 17.172C19.916 17.4387 20.4973 17.572 21.148 17.572C21.66 17.572 22.1347 17.4813 22.572 17.3C23.02 17.1187 23.404 16.8413 23.724 16.468L24.364 17.204C23.9907 17.652 23.5213 17.9933 22.956 18.228C22.4013 18.4627 21.788 18.58 21.116 18.58ZM27.4866 18.5V10.1H28.6226V13.812H33.9186V10.1H35.0546V18.5H33.9186V14.788H28.6226V18.5H27.4866ZM39.9635 18.5V10.788L40.2515 11.092H36.7795V10.1H44.2835V11.092H40.8115L41.0995 10.788V18.5H39.9635ZM50.342 18.58C49.6167 18.58 48.9607 18.4147 48.374 18.084C47.7873 17.7427 47.318 17.2573 46.966 16.628C46.6247 15.988 46.454 15.2093 46.454 14.292C46.454 13.3747 46.6247 12.6013 46.966 11.972C47.3073 11.332 47.7713 10.8467 48.358 10.516C48.9447 10.1853 49.606 10.02 50.342 10.02C51.142 10.02 51.8567 10.2013 52.486 10.564C53.126 10.916 53.6273 11.4173 53.99 12.068C54.3527 12.708 54.534 13.4493 54.534 14.292C54.534 15.1453 54.3527 15.892 53.99 16.532C53.6273 17.172 53.126 17.6733 52.486 18.036C51.8567 18.3987 51.142 18.58 50.342 18.58ZM46.006 21.604V10.1H47.094V12.628L46.982 14.308L47.142 16.004V21.604H46.006ZM50.262 17.572C50.8593 17.572 51.3927 17.4387 51.862 17.172C52.3313 16.8947 52.7047 16.5107 52.982 16.02C53.2593 15.5187 53.398 14.9427 53.398 14.292C53.398 13.6413 53.2593 13.0707 52.982 12.58C52.7047 12.0893 52.3313 11.7053 51.862 11.428C51.3927 11.1507 50.8593 11.012 50.262 11.012C49.6647 11.012 49.126 11.1507 48.646 11.428C48.1767 11.7053 47.8033 12.0893 47.526 12.58C47.2593 13.0707 47.126 13.6413 47.126 14.292C47.126 14.9427 47.2593 15.5187 47.526 16.02C47.8033 16.5107 48.1767 16.8947 48.646 17.172C49.126 17.4387 49.6647 17.572 50.262 17.572ZM61.3222 18.5V10.1H65.0342C65.9836 10.1 66.7302 10.2813 67.2742 10.644C67.8289 11.0067 68.1062 11.54 68.1062 12.244C68.1062 12.9267 67.8449 13.4547 67.3222 13.828C66.7996 14.1907 66.1116 14.372 65.2582 14.372L65.4822 14.036C66.4849 14.036 67.2209 14.2227 67.6902 14.596C68.1596 14.9693 68.3942 15.508 68.3942 16.212C68.3942 16.9373 68.1276 17.5027 67.5942 17.908C67.0716 18.3027 66.2556 18.5 65.1462 18.5H61.3222ZM62.4262 17.604H65.0982C65.8129 17.604 66.3516 17.492 66.7142 17.268C67.0876 17.0333 67.2742 16.66 67.2742 16.148C67.2742 15.636 67.1089 15.2627 66.7782 15.028C66.4476 14.7933 65.9249 14.676 65.2102 14.676H62.4262V17.604ZM62.4262 13.828H64.9542C65.6049 13.828 66.1009 13.7053 66.4422 13.46C66.7942 13.2147 66.9702 12.8573 66.9702 12.388C66.9702 11.9187 66.7942 11.5667 66.4422 11.332C66.1009 11.0973 65.6049 10.98 64.9542 10.98H62.4262V13.828ZM71.1366 18.5V10.1H72.2726V18.5H71.1366ZM71.7126 8.244C71.478 8.244 71.2806 8.164 71.1206 8.004C70.9606 7.844 70.8806 7.652 70.8806 7.428C70.8806 7.204 70.9606 7.01733 71.1206 6.868C71.2806 6.708 71.478 6.628 71.7126 6.628C71.9473 6.628 72.1446 6.70267 72.3046 6.852C72.4646 7.00133 72.5446 7.188 72.5446 7.412C72.5446 7.64667 72.4646 7.844 72.3046 8.004C72.1553 8.164 71.958 8.244 71.7126 8.244ZM81.3516 17.956V11.092H77.3036L77.2076 12.964C77.1863 13.5293 77.149 14.084 77.0956 14.628C77.053 15.172 76.973 15.6733 76.8556 16.132C76.749 16.58 76.5943 16.948 76.3916 17.236C76.189 17.5133 75.9276 17.6733 75.6076 17.716L74.4716 17.508C74.8023 17.5187 75.0743 17.4013 75.2876 17.156C75.501 16.9 75.6663 16.5533 75.7836 16.116C75.901 15.6787 75.9863 15.1827 76.0396 14.628C76.093 14.0627 76.1356 13.4867 76.1676 12.9L76.2796 10.1H82.4876V17.956H81.3516ZM74.1196 20.532V17.508H83.7996V20.532H82.7276V18.5H75.1916V20.532H74.1196ZM86.0935 18.5V10.1H87.2295V13.812H92.5255V10.1H93.6615V18.5H92.5255V14.788H87.2295V18.5H86.0935ZM100.426 18.58C99.6157 18.58 98.885 18.3987 98.2344 18.036C97.5944 17.6627 97.0877 17.156 96.7144 16.516C96.341 15.8653 96.1544 15.124 96.1544 14.292C96.1544 13.4493 96.341 12.708 96.7144 12.068C97.0877 11.428 97.5944 10.9267 98.2344 10.564C98.8744 10.2013 99.605 10.02 100.426 10.02C101.258 10.02 101.994 10.2013 102.634 10.564C103.285 10.9267 103.792 11.428 104.154 12.068C104.528 12.708 104.714 13.4493 104.714 14.292C104.714 15.124 104.528 15.8653 104.154 16.516C103.792 17.156 103.285 17.6627 102.634 18.036C101.984 18.3987 101.248 18.58 100.426 18.58ZM100.426 17.572C101.034 17.572 101.573 17.4387 102.042 17.172C102.512 16.8947 102.88 16.5107 103.146 16.02C103.424 15.5187 103.562 14.9427 103.562 14.292C103.562 13.6307 103.424 13.0547 103.146 12.564C102.88 12.0733 102.512 11.6947 102.042 11.428C101.573 11.1507 101.04 11.012 100.442 11.012C99.845 11.012 99.3117 11.1507 98.8424 11.428C98.373 11.6947 97.9997 12.0733 97.7224 12.564C97.445 13.0547 97.3064 13.6307 97.3064 14.292C97.3064 14.9427 97.445 15.5187 97.7224 16.02C97.9997 16.5107 98.373 16.8947 98.8424 17.172C99.3117 17.4387 99.8397 17.572 100.426 17.572ZM107.222 18.5V10.1H110.934C111.884 10.1 112.63 10.2813 113.174 10.644C113.729 11.0067 114.006 11.54 114.006 12.244C114.006 12.9267 113.745 13.4547 113.222 13.828C112.7 14.1907 112.012 14.372 111.158 14.372L111.382 14.036C112.385 14.036 113.121 14.2227 113.59 14.596C114.06 14.9693 114.294 15.508 114.294 16.212C114.294 16.9373 114.028 17.5027 113.494 17.908C112.972 18.3027 112.156 18.5 111.046 18.5H107.222ZM108.326 17.604H110.998C111.713 17.604 112.252 17.492 112.614 17.268C112.988 17.0333 113.174 16.66 113.174 16.148C113.174 15.636 113.009 15.2627 112.678 15.028C112.348 14.7933 111.825 14.676 111.11 14.676H108.326V17.604ZM108.326 13.828H110.854C111.505 13.828 112.001 13.7053 112.342 13.46C112.694 13.2147 112.87 12.8573 112.87 12.388C112.87 11.9187 112.694 11.5667 112.342 11.332C112.001 11.0973 111.505 10.98 110.854 10.98H108.326V13.828ZM115.501 18.484L115.581 17.508C115.655 17.5187 115.725 17.5347 115.789 17.556C115.863 17.5667 115.927 17.572 115.981 17.572C116.322 17.572 116.594 17.444 116.797 17.188C117.01 16.932 117.17 16.5907 117.277 16.164C117.383 15.7373 117.458 15.2573 117.501 14.724C117.543 14.18 117.581 13.636 117.613 13.092L117.757 10.1H123.917V18.5H122.781V10.756L123.069 11.092H118.493L118.765 10.74L118.637 13.172C118.605 13.8973 118.546 14.5907 118.461 15.252C118.386 15.9133 118.263 16.4947 118.093 16.996C117.933 17.4973 117.709 17.892 117.421 18.18C117.133 18.4573 116.765 18.596 116.317 18.596C116.189 18.596 116.055 18.5853 115.917 18.564C115.789 18.5427 115.65 18.516 115.501 18.484ZM130.826 18.58C129.951 18.58 129.183 18.3987 128.522 18.036C127.861 17.6627 127.343 17.156 126.97 16.516C126.597 15.8653 126.41 15.124 126.41 14.292C126.41 13.46 126.586 12.724 126.938 12.084C127.301 11.444 127.791 10.9427 128.41 10.58C129.039 10.2067 129.743 10.02 130.522 10.02C131.311 10.02 132.01 10.2013 132.618 10.564C133.237 10.916 133.722 11.4173 134.074 12.068C134.426 12.708 134.602 13.4493 134.602 14.292C134.602 14.3453 134.597 14.404 134.586 14.468C134.586 14.5213 134.586 14.58 134.586 14.644H127.274V13.796H133.978L133.53 14.132C133.53 13.524 133.397 12.9853 133.13 12.516C132.874 12.036 132.522 11.6627 132.074 11.396C131.626 11.1293 131.109 10.996 130.522 10.996C129.946 10.996 129.429 11.1293 128.97 11.396C128.511 11.6627 128.154 12.036 127.898 12.516C127.642 12.996 127.514 13.5453 127.514 14.164V14.34C127.514 14.98 127.653 15.5453 127.93 16.036C128.218 16.516 128.613 16.8947 129.114 17.172C129.626 17.4387 130.207 17.572 130.858 17.572C131.37 17.572 131.845 17.4813 132.282 17.3C132.73 17.1187 133.114 16.8413 133.434 16.468L134.074 17.204C133.701 17.652 133.231 17.9933 132.666 18.228C132.111 18.4627 131.498 18.58 130.826 18.58ZM137.197 18.5V10.1H138.333V13.812H143.629V10.1H144.765V18.5H143.629V14.788H138.333V18.5H137.197ZM148.073 18.5V10.1H149.209V13.812H154.505V10.1H155.641V18.5H154.505V14.788H149.209V18.5H148.073ZM164.374 18.5V15.476L164.582 15.716H161.734C160.657 15.716 159.814 15.4813 159.206 15.012C158.598 14.5427 158.294 13.86 158.294 12.964C158.294 12.004 158.62 11.2893 159.27 10.82C159.921 10.34 160.79 10.1 161.878 10.1H165.414V18.5H164.374ZM158.23 18.5L160.534 15.268H161.718L159.462 18.5H158.23ZM164.374 15.14V10.756L164.582 11.092H161.91C161.132 11.092 160.524 11.2413 160.086 11.54C159.66 11.8387 159.446 12.324 159.446 12.996C159.446 14.244 160.241 14.868 161.83 14.868H164.582L164.374 15.14Z" fill="black"/>
<path d="M14.5912 48C8.48389 48 4 43.8514 4 38.0001C4 32.1484 8.48389 28 14.5912 28C18.1397 28 21.0009 29.2913 22.8713 31.6264L19.4052 34.7584C18.1948 33.3022 16.7093 32.5055 14.8663 32.5055C11.7026 32.5055 9.50168 34.7033 9.50168 38.0001C9.50168 41.2968 11.7026 43.4944 14.8663 43.4944C16.7093 43.4944 18.1948 42.6977 19.4052 41.2418L22.8713 44.3735C21.0009 46.7088 18.1397 48 14.5912 48Z" fill="#404040"/>
<path d="M25.4297 28.3905H43.5036V47.6211H38.1116V32.7036H30.7939V47.6211H25.4297V28.3905Z" fill="#404040"/>
<path d="M55.8845 39.1597C58.1128 39.1597 59.3506 38.0058 59.3506 35.8903C59.3506 33.83 58.1402 32.5936 56.0768 32.5936C53.8763 32.5936 52.5833 33.9674 52.5833 36.3574V38.2806C53.491 38.83 54.6741 39.1597 55.8845 39.1597ZM55.967 28.1981C61.5238 28.1981 64.825 30.9453 64.825 35.7806C64.825 40.3685 61.909 43.1155 56.7922 43.1155C55.4169 43.1155 54.1513 42.8958 52.5833 42.3464V47.6211H47.2188V36.4123C47.2188 31.11 50.2175 28.1981 55.967 28.1981Z" fill="#404040"/>
<path d="M72.2473 39.1597H79.7574V36.7694C79.7574 33.8574 78.2168 32.5112 76.0161 32.5112C73.7879 32.5112 72.2473 33.8574 72.2473 36.7694V39.1597ZM76.0436 28.0058C81.4905 28.0058 85.2043 31.3024 85.2043 37.2365V47.6211H79.7574V43.3629H72.2473V47.6211H66.8828V37.2365C66.8828 31.3024 70.5966 28.0058 76.0436 28.0058Z" fill="#404040"/>
<path d="M98.6793 43.7199C100.247 43.7199 101.045 43.0332 101.045 41.7146C101.045 40.3958 100.247 39.764 98.6793 39.764H94.3876V43.7199H98.6793ZM94.3876 32.2915V36.0826H97.854C99.3943 36.0826 100.165 35.4509 100.165 34.1871C100.165 32.9509 99.3943 32.2915 97.854 32.2915H94.3876ZM103.053 37.5662C105.281 38.2806 106.547 39.8191 106.547 42.1267C106.547 45.5058 103.851 47.6211 98.8992 47.6211H89.0234V28.3904H98.3765C102.971 28.3904 105.667 30.2035 105.667 33.3903C105.667 35.2859 104.704 36.742 103.053 37.5662Z" fill="#404040"/>
<path d="M131.127 47.6211L127.386 40.2586H125.103V47.6211H119.766V40.2586H117.483L113.714 47.6211H107.414L112.888 37.5388L107.744 28.3905H113.466L117.318 35.8629H119.766V28.3905H125.103V35.8629H127.441L131.375 28.3905H137.069L131.925 37.5388L137.399 47.6211H131.127Z" fill="#404040"/>
<path d="M152.023 28.3905H157.47V47.6211H152.023V40.1212H144.595V47.6211H139.148V28.3905H144.595V35.6157H152.023V28.3905Z" fill="#404040"/>
<path d="M161.617 28.3866H166.981V47.6172H161.617V28.3866Z" fill="#404040"/>
<path d="M151.135 55.5522C151.137 55.5526 151.14 55.553 151.142 55.5534C151.136 55.5524 151.13 55.5515 151.125 55.5506C151.128 55.5511 151.131 55.5516 151.135 55.5522ZM149.851 55.5547C149.857 55.5536 149.864 55.5524 149.87 55.5513C149.878 55.5501 149.885 55.549 149.893 55.5478C149.879 55.55 149.864 55.5523 149.851 55.5547ZM149.564 55.6146C149.57 55.613 149.576 55.6114 149.582 55.6099C149.589 55.6083 149.596 55.6068 149.602 55.6052C149.589 55.6083 149.576 55.6114 149.564 55.6146ZM149.485 55.6349C149.493 55.6327 149.501 55.6305 149.51 55.6283C149.515 55.6268 149.521 55.6254 149.527 55.6239C149.513 55.6275 149.499 55.6311 149.485 55.6349ZM148.572 56.0134C148.575 56.0116 148.578 56.0098 148.581 56.0081C148.597 55.999 148.613 55.99 148.629 55.9812C148.61 55.9917 148.591 56.0025 148.572 56.0134ZM146.586 57.7977C146.349 58.0331 146.152 58.2314 145.986 58.4067C145.958 58.4364 145.931 58.4654 145.904 58.4938C145.83 58.574 145.764 58.6497 145.702 58.722C145.764 58.6497 145.83 58.5741 145.904 58.494C145.931 58.4655 145.958 58.4364 145.986 58.4067C146.023 58.3681 146.061 58.3283 146.1 58.2873C146.17 58.2148 146.246 58.1383 146.326 58.057C146.488 57.8944 146.672 57.7125 146.882 57.5047L146.586 57.7977ZM164.067 60.1862C163.567 59.6926 162.758 59.6927 162.258 60.1863L156.021 66.3505C156.001 66.3704 155.991 66.3804 155.981 66.3866C155.948 66.4065 155.906 66.4065 155.873 66.3866C155.863 66.3804 155.853 66.3704 155.833 66.3505L153.214 63.7619C152.714 63.2682 151.904 63.2682 151.405 63.7619C150.905 64.2555 150.905 65.0559 151.405 65.5495L153.756 67.8736C154.092 68.2058 154.26 68.372 154.423 68.4889C155.32 69.1327 156.534 69.1327 157.431 68.4889C157.594 68.372 157.762 68.2058 158.098 67.8736L164.067 61.9741C164.567 61.4804 164.567 60.68 164.067 60.1863L164.067 60.1862ZM159.098 56.2243C160.443 55.2586 162.264 55.2586 163.609 56.2243C163.854 56.3997 164.106 56.6489 164.61 57.1471L164.972 57.5047C165.813 58.3359 166.233 58.7516 166.486 59.184C167.171 60.3573 167.171 61.803 166.486 62.9764C166.233 63.4088 165.813 63.8244 164.972 64.6557L163.163 66.4434C159.752 69.8145 158.046 71.5 155.927 71.5C154.219 71.5 152.78 70.405 150.5 68.2152C150.497 68.2177 150.494 68.2205 150.492 68.223L148.691 66.4433L148.691 66.4432L146.882 64.6557C146.835 64.6087 146.789 64.563 146.744 64.5186C146.789 64.5629 146.835 64.6085 146.882 64.6554L146.882 64.6556C146.041 63.8244 145.62 63.4087 145.368 62.9763C144.682 61.803 144.682 60.3573 145.368 59.184C145.62 58.7516 146.041 58.3359 146.882 57.5047C146.987 57.4008 147.086 57.3033 147.179 57.2119L147.244 57.1471C147.748 56.6489 148 56.3997 148.245 56.2243C149.59 55.2586 151.411 55.2586 152.756 56.2243C153 56.3997 153.252 56.6489 153.756 57.1471C154.092 57.4793 154.26 57.6453 154.423 57.7623C155.32 58.4061 156.534 58.4061 157.431 57.7623C157.594 57.6453 157.762 57.4793 158.098 57.1471C158.602 56.6489 158.854 56.3997 159.098 56.2243ZM137.391 56.2243C138.736 55.2586 140.557 55.2587 141.902 56.2244C142.085 56.3559 142.273 56.5289 142.568 56.8173L143.125 57.367C143.322 57.5593 143.447 57.6747 143.569 57.7624C143.856 57.9682 144.175 58.1081 144.506 58.1823C144.415 58.3047 144.333 58.4272 144.26 58.552C143.346 60.1165 143.346 62.044 144.26 63.6084C144.618 64.2212 145.195 64.7758 145.977 65.5494L145.167 66.3505C145.147 66.3704 145.137 66.3805 145.127 66.3867C145.094 66.4066 145.052 66.4066 145.019 66.3867C145.009 66.3805 144.999 66.3703 144.979 66.3505L142.36 63.7618C141.86 63.2681 141.05 63.2682 140.551 63.7618C140.051 64.2554 140.051 65.0559 140.551 65.5495L142.902 67.8735C143.238 68.2057 143.406 68.3719 143.569 68.4888C144.466 69.1326 145.68 69.1327 146.577 68.4889C146.74 68.372 146.908 68.2057 147.244 67.8736L147.786 67.3371L149.563 69.0933C147.8 70.6974 146.535 71.5 145.073 71.5C142.954 71.5 141.248 69.8145 137.837 66.4434L136.028 64.6557C135.187 63.8244 134.767 63.4087 134.514 62.9763C133.829 61.803 133.829 60.3573 134.514 59.184C134.767 58.7516 135.187 58.3359 136.028 57.5047L136.39 57.1471C136.894 56.6489 137.146 56.3997 137.391 56.2243Z" fill="#404040"/>
</svg>
