<svg width="172" height="76" viewBox="0 0 172 76" fill="none" xmlns="http://www.w3.org/2000/svg">
<path d="M4.88369 18.5V10.1H5.97169V12.388L5.85969 11.988C6.09436 11.348 6.48902 10.8627 7.04369 10.532C7.59836 10.1907 8.28636 10.02 9.10769 10.02V11.124C9.06502 11.124 9.02236 11.124 8.97969 11.124C8.93702 11.1133 8.89436 11.108 8.85169 11.108C7.96636 11.108 7.27302 11.38 6.77169 11.924C6.27036 12.4573 6.01969 13.22 6.01969 14.212V18.5H4.88369ZM18.1904 18.58C17.3158 18.58 16.5478 18.3987 15.8864 18.036C15.2251 17.6627 14.7078 17.156 14.3344 16.516C13.9611 15.8653 13.7744 15.124 13.7744 14.292C13.7744 13.46 13.9504 12.724 14.3024 12.084C14.6651 11.444 15.1558 10.9427 15.7744 10.58C16.4038 10.2067 17.1078 10.02 17.8864 10.02C18.6758 10.02 19.3744 10.2013 19.9824 10.564C20.6011 10.916 21.0864 11.4173 21.4384 12.068C21.7904 12.708 21.9664 13.4493 21.9664 14.292C21.9664 14.3453 21.9611 14.404 21.9504 14.468C21.9504 14.5213 21.9504 14.58 21.9504 14.644H14.6384V13.796H21.3424L20.8944 14.132C20.8944 13.524 20.7611 12.9853 20.4944 12.516C20.2384 12.036 19.8864 11.6627 19.4384 11.396C18.9904 11.1293 18.4731 10.996 17.8864 10.996C17.3104 10.996 16.7931 11.1293 16.3344 11.396C15.8758 11.6627 15.5184 12.036 15.2624 12.516C15.0064 12.996 14.8784 13.5453 14.8784 14.164V14.34C14.8784 14.98 15.0171 15.5453 15.2944 16.036C15.5824 16.516 15.9771 16.8947 16.4784 17.172C16.9904 17.4387 17.5718 17.572 18.2224 17.572C18.7344 17.572 19.2091 17.4813 19.6464 17.3C20.0944 17.1187 20.4784 16.8413 20.7984 16.468L21.4384 17.204C21.0651 17.652 20.5958 17.9933 20.0304 18.228C19.4758 18.4627 18.8624 18.58 18.1904 18.58ZM32.0867 10.02C32.7694 10.02 33.3667 10.1533 33.8787 10.42C34.4014 10.676 34.8067 11.0707 35.0947 11.604C35.3934 12.1373 35.5427 12.8093 35.5427 13.62V18.5H34.4067V13.732C34.4067 12.8467 34.1827 12.18 33.7347 11.732C33.2974 11.2733 32.6787 11.044 31.8787 11.044C31.2814 11.044 30.7587 11.1667 30.3107 11.412C29.8734 11.6467 29.532 11.9933 29.2867 12.452C29.052 12.9 28.9347 13.444 28.9347 14.084V18.5H27.7987V10.1H28.8867V12.404L28.7107 11.972C28.9774 11.364 29.404 10.8893 29.9907 10.548C30.5774 10.196 31.276 10.02 32.0867 10.02ZM45.6992 18.58C44.8245 18.58 44.0565 18.3987 43.3952 18.036C42.7339 17.6627 42.2165 17.156 41.8432 16.516C41.4699 15.8653 41.2832 15.124 41.2832 14.292C41.2832 13.46 41.4592 12.724 41.8112 12.084C42.1739 11.444 42.6645 10.9427 43.2832 10.58C43.9125 10.2067 44.6165 10.02 45.3952 10.02C46.1845 10.02 46.8832 10.2013 47.4912 10.564C48.1099 10.916 48.5952 11.4173 48.9472 12.068C49.2992 12.708 49.4752 13.4493 49.4752 14.292C49.4752 14.3453 49.4699 14.404 49.4592 14.468C49.4592 14.5213 49.4592 14.58 49.4592 14.644H42.1472V13.796H48.8512L48.4032 14.132C48.4032 13.524 48.2699 12.9853 48.0032 12.516C47.7472 12.036 47.3952 11.6627 46.9472 11.396C46.4992 11.1293 45.9819 10.996 45.3952 10.996C44.8192 10.996 44.3019 11.1293 43.8432 11.396C43.3845 11.6627 43.0272 12.036 42.7712 12.516C42.5152 12.996 42.3872 13.5453 42.3872 14.164V14.34C42.3872 14.98 42.5259 15.5453 42.8032 16.036C43.0912 16.516 43.4859 16.8947 43.9872 17.172C44.4992 17.4387 45.0805 17.572 45.7312 17.572C46.2432 17.572 46.7179 17.4813 47.1552 17.3C47.6032 17.1187 47.9872 16.8413 48.3072 16.468L48.9472 17.204C48.5739 17.652 48.1045 17.9933 47.5392 18.228C46.9845 18.4627 46.3712 18.58 45.6992 18.58ZM56.8632 18.5L53.6952 10.1H54.7832L57.6632 17.892H57.1672L60.1272 10.1H61.1032L64.0312 17.892H63.5352L66.4632 10.1H67.5032L64.3192 18.5H63.2472L60.4312 11.172H60.7672L57.9352 18.5H56.8632ZM77.7477 18.5V16.644L77.6997 16.34V13.236C77.6997 12.5213 77.497 11.972 77.0917 11.588C76.697 11.204 76.105 11.012 75.3157 11.012C74.7717 11.012 74.2544 11.1027 73.7637 11.284C73.273 11.4653 72.857 11.7053 72.5157 12.004L72.0037 11.156C72.4304 10.7933 72.9424 10.516 73.5397 10.324C74.137 10.1213 74.7664 10.02 75.4277 10.02C76.5157 10.02 77.353 10.292 77.9397 10.836C78.537 11.3693 78.8357 12.1853 78.8357 13.284V18.5H77.7477ZM74.8517 18.58C74.2224 18.58 73.673 18.4787 73.2037 18.276C72.745 18.0627 72.393 17.7747 72.1477 17.412C71.9024 17.0387 71.7797 16.612 71.7797 16.132C71.7797 15.6947 71.881 15.3 72.0837 14.948C72.297 14.5853 72.6384 14.2973 73.1077 14.084C73.5877 13.86 74.2277 13.748 75.0277 13.748H77.9237V14.596H75.0597C74.249 14.596 73.6837 14.74 73.3637 15.028C73.0544 15.316 72.8997 15.6733 72.8997 16.1C72.8997 16.58 73.0864 16.964 73.4597 17.252C73.833 17.54 74.3557 17.684 75.0277 17.684C75.6677 17.684 76.217 17.54 76.6757 17.252C77.145 16.9533 77.4864 16.5267 77.6997 15.972L77.9557 16.756C77.7424 17.3107 77.369 17.7533 76.8357 18.084C76.313 18.4147 75.6517 18.58 74.8517 18.58ZM85.4412 18.5V6.628H86.5772V18.5H85.4412ZM104.454 18.58C103.622 18.58 102.875 18.3987 102.214 18.036C101.563 17.6627 101.051 17.156 100.678 16.516C100.304 15.8653 100.118 15.124 100.118 14.292C100.118 13.4493 100.304 12.708 100.678 12.068C101.051 11.428 101.563 10.9267 102.214 10.564C102.875 10.2013 103.622 10.02 104.454 10.02C105.168 10.02 105.814 10.1587 106.39 10.436C106.966 10.7133 107.419 11.1293 107.75 11.684L106.902 12.26C106.614 11.8333 106.256 11.5187 105.83 11.316C105.403 11.1133 104.939 11.012 104.438 11.012C103.84 11.012 103.302 11.1507 102.822 11.428C102.342 11.6947 101.963 12.0733 101.686 12.564C101.408 13.0547 101.27 13.6307 101.27 14.292C101.27 14.9533 101.408 15.5293 101.686 16.02C101.963 16.5107 102.342 16.8947 102.822 17.172C103.302 17.4387 103.84 17.572 104.438 17.572C104.939 17.572 105.403 17.4707 105.83 17.268C106.256 17.0653 106.614 16.756 106.902 16.34L107.75 16.916C107.419 17.46 106.966 17.876 106.39 18.164C105.814 18.4413 105.168 18.58 104.454 18.58ZM116.929 18.58C116.054 18.58 115.286 18.3987 114.625 18.036C113.963 17.6627 113.446 17.156 113.073 16.516C112.699 15.8653 112.513 15.124 112.513 14.292C112.513 13.46 112.689 12.724 113.041 12.084C113.403 11.444 113.894 10.9427 114.513 10.58C115.142 10.2067 115.846 10.02 116.625 10.02C117.414 10.02 118.113 10.2013 118.721 10.564C119.339 10.916 119.825 11.4173 120.177 12.068C120.529 12.708 120.705 13.4493 120.705 14.292C120.705 14.3453 120.699 14.404 120.689 14.468C120.689 14.5213 120.689 14.58 120.689 14.644H113.377V13.796H120.081L119.633 14.132C119.633 13.524 119.499 12.9853 119.233 12.516C118.977 12.036 118.625 11.6627 118.177 11.396C117.729 11.1293 117.211 10.996 116.625 10.996C116.049 10.996 115.531 11.1293 115.073 11.396C114.614 11.6627 114.257 12.036 114.001 12.516C113.745 12.996 113.617 13.5453 113.617 14.164V14.34C113.617 14.98 113.755 15.5453 114.033 16.036C114.321 16.516 114.715 16.8947 115.217 17.172C115.729 17.4387 116.31 17.572 116.961 17.572C117.473 17.572 117.947 17.4813 118.385 17.3C118.833 17.1187 119.217 16.8413 119.537 16.468L120.177 17.204C119.803 17.652 119.334 17.9933 118.769 18.228C118.214 18.4627 117.601 18.58 116.929 18.58ZM130.825 10.02C131.507 10.02 132.105 10.1533 132.617 10.42C133.139 10.676 133.545 11.0707 133.833 11.604C134.131 12.1373 134.281 12.8093 134.281 13.62V18.5H133.145V13.732C133.145 12.8467 132.921 12.18 132.473 11.732C132.035 11.2733 131.417 11.044 130.617 11.044C130.019 11.044 129.497 11.1667 129.049 11.412C128.611 11.6467 128.27 11.9933 128.025 12.452C127.79 12.9 127.673 13.444 127.673 14.084V18.5H126.537V10.1H127.625V12.404L127.449 11.972C127.715 11.364 128.142 10.8893 128.729 10.548C129.315 10.196 130.014 10.02 130.825 10.02ZM143.525 18.58C142.736 18.58 142.128 18.3667 141.701 17.94C141.275 17.5133 141.061 16.9107 141.061 16.132V8.244H142.197V16.068C142.197 16.5587 142.32 16.9373 142.565 17.204C142.821 17.4707 143.184 17.604 143.653 17.604C144.155 17.604 144.571 17.46 144.901 17.172L145.301 17.988C145.077 18.1907 144.805 18.34 144.485 18.436C144.176 18.532 143.856 18.58 143.525 18.58ZM139.557 11.044V10.1H144.757V11.044H139.557ZM150.889 18.5V10.1H151.977V12.388L151.865 11.988C152.1 11.348 152.495 10.8627 153.049 10.532C153.604 10.1907 154.292 10.02 155.113 10.02V11.124C155.071 11.124 155.028 11.124 154.985 11.124C154.943 11.1133 154.9 11.108 154.857 11.108C153.972 11.108 153.279 11.38 152.777 11.924C152.276 12.4573 152.025 13.22 152.025 14.212V18.5H150.889ZM164.196 18.58C163.321 18.58 162.553 18.3987 161.892 18.036C161.231 17.6627 160.713 17.156 160.34 16.516C159.967 15.8653 159.78 15.124 159.78 14.292C159.78 13.46 159.956 12.724 160.308 12.084C160.671 11.444 161.161 10.9427 161.78 10.58C162.409 10.2067 163.113 10.02 163.892 10.02C164.681 10.02 165.38 10.2013 165.988 10.564C166.607 10.916 167.092 11.4173 167.444 12.068C167.796 12.708 167.972 13.4493 167.972 14.292C167.972 14.3453 167.967 14.404 167.956 14.468C167.956 14.5213 167.956 14.58 167.956 14.644H160.644V13.796H167.348L166.9 14.132C166.9 13.524 166.767 12.9853 166.5 12.516C166.244 12.036 165.892 11.6627 165.444 11.396C164.996 11.1293 164.479 10.996 163.892 10.996C163.316 10.996 162.799 11.1293 162.34 11.396C161.881 11.6627 161.524 12.036 161.268 12.516C161.012 12.996 160.884 13.5453 160.884 14.164V14.34C160.884 14.98 161.023 15.5453 161.3 16.036C161.588 16.516 161.983 16.8947 162.484 17.172C162.996 17.4387 163.577 17.572 164.228 17.572C164.74 17.572 165.215 17.4813 165.652 17.3C166.1 17.1187 166.484 16.8413 166.804 16.468L167.444 17.204C167.071 17.652 166.601 17.9933 166.036 18.228C165.481 18.4627 164.868 18.58 164.196 18.58Z" fill="#FBFBF9"/>
<path d="M4.88369 18.5V10.1H5.97169V12.388L5.85969 11.988C6.09436 11.348 6.48902 10.8627 7.04369 10.532C7.59836 10.1907 8.28636 10.02 9.10769 10.02V11.124C9.06502 11.124 9.02236 11.124 8.97969 11.124C8.93702 11.1133 8.89436 11.108 8.85169 11.108C7.96636 11.108 7.27302 11.38 6.77169 11.924C6.27036 12.4573 6.01969 13.22 6.01969 14.212V18.5H4.88369ZM18.1904 18.58C17.3158 18.58 16.5478 18.3987 15.8864 18.036C15.2251 17.6627 14.7078 17.156 14.3344 16.516C13.9611 15.8653 13.7744 15.124 13.7744 14.292C13.7744 13.46 13.9504 12.724 14.3024 12.084C14.6651 11.444 15.1558 10.9427 15.7744 10.58C16.4038 10.2067 17.1078 10.02 17.8864 10.02C18.6758 10.02 19.3744 10.2013 19.9824 10.564C20.6011 10.916 21.0864 11.4173 21.4384 12.068C21.7904 12.708 21.9664 13.4493 21.9664 14.292C21.9664 14.3453 21.9611 14.404 21.9504 14.468C21.9504 14.5213 21.9504 14.58 21.9504 14.644H14.6384V13.796H21.3424L20.8944 14.132C20.8944 13.524 20.7611 12.9853 20.4944 12.516C20.2384 12.036 19.8864 11.6627 19.4384 11.396C18.9904 11.1293 18.4731 10.996 17.8864 10.996C17.3104 10.996 16.7931 11.1293 16.3344 11.396C15.8758 11.6627 15.5184 12.036 15.2624 12.516C15.0064 12.996 14.8784 13.5453 14.8784 14.164V14.34C14.8784 14.98 15.0171 15.5453 15.2944 16.036C15.5824 16.516 15.9771 16.8947 16.4784 17.172C16.9904 17.4387 17.5718 17.572 18.2224 17.572C18.7344 17.572 19.2091 17.4813 19.6464 17.3C20.0944 17.1187 20.4784 16.8413 20.7984 16.468L21.4384 17.204C21.0651 17.652 20.5958 17.9933 20.0304 18.228C19.4758 18.4627 18.8624 18.58 18.1904 18.58ZM32.0867 10.02C32.7694 10.02 33.3667 10.1533 33.8787 10.42C34.4014 10.676 34.8067 11.0707 35.0947 11.604C35.3934 12.1373 35.5427 12.8093 35.5427 13.62V18.5H34.4067V13.732C34.4067 12.8467 34.1827 12.18 33.7347 11.732C33.2974 11.2733 32.6787 11.044 31.8787 11.044C31.2814 11.044 30.7587 11.1667 30.3107 11.412C29.8734 11.6467 29.532 11.9933 29.2867 12.452C29.052 12.9 28.9347 13.444 28.9347 14.084V18.5H27.7987V10.1H28.8867V12.404L28.7107 11.972C28.9774 11.364 29.404 10.8893 29.9907 10.548C30.5774 10.196 31.276 10.02 32.0867 10.02ZM45.6992 18.58C44.8245 18.58 44.0565 18.3987 43.3952 18.036C42.7339 17.6627 42.2165 17.156 41.8432 16.516C41.4699 15.8653 41.2832 15.124 41.2832 14.292C41.2832 13.46 41.4592 12.724 41.8112 12.084C42.1739 11.444 42.6645 10.9427 43.2832 10.58C43.9125 10.2067 44.6165 10.02 45.3952 10.02C46.1845 10.02 46.8832 10.2013 47.4912 10.564C48.1099 10.916 48.5952 11.4173 48.9472 12.068C49.2992 12.708 49.4752 13.4493 49.4752 14.292C49.4752 14.3453 49.4699 14.404 49.4592 14.468C49.4592 14.5213 49.4592 14.58 49.4592 14.644H42.1472V13.796H48.8512L48.4032 14.132C48.4032 13.524 48.2699 12.9853 48.0032 12.516C47.7472 12.036 47.3952 11.6627 46.9472 11.396C46.4992 11.1293 45.9819 10.996 45.3952 10.996C44.8192 10.996 44.3019 11.1293 43.8432 11.396C43.3845 11.6627 43.0272 12.036 42.7712 12.516C42.5152 12.996 42.3872 13.5453 42.3872 14.164V14.34C42.3872 14.98 42.5259 15.5453 42.8032 16.036C43.0912 16.516 43.4859 16.8947 43.9872 17.172C44.4992 17.4387 45.0805 17.572 45.7312 17.572C46.2432 17.572 46.7179 17.4813 47.1552 17.3C47.6032 17.1187 47.9872 16.8413 48.3072 16.468L48.9472 17.204C48.5739 17.652 48.1045 17.9933 47.5392 18.228C46.9845 18.4627 46.3712 18.58 45.6992 18.58ZM56.8632 18.5L53.6952 10.1H54.7832L57.6632 17.892H57.1672L60.1272 10.1H61.1032L64.0312 17.892H63.5352L66.4632 10.1H67.5032L64.3192 18.5H63.2472L60.4312 11.172H60.7672L57.9352 18.5H56.8632ZM77.7477 18.5V16.644L77.6997 16.34V13.236C77.6997 12.5213 77.497 11.972 77.0917 11.588C76.697 11.204 76.105 11.012 75.3157 11.012C74.7717 11.012 74.2544 11.1027 73.7637 11.284C73.273 11.4653 72.857 11.7053 72.5157 12.004L72.0037 11.156C72.4304 10.7933 72.9424 10.516 73.5397 10.324C74.137 10.1213 74.7664 10.02 75.4277 10.02C76.5157 10.02 77.353 10.292 77.9397 10.836C78.537 11.3693 78.8357 12.1853 78.8357 13.284V18.5H77.7477ZM74.8517 18.58C74.2224 18.58 73.673 18.4787 73.2037 18.276C72.745 18.0627 72.393 17.7747 72.1477 17.412C71.9024 17.0387 71.7797 16.612 71.7797 16.132C71.7797 15.6947 71.881 15.3 72.0837 14.948C72.297 14.5853 72.6384 14.2973 73.1077 14.084C73.5877 13.86 74.2277 13.748 75.0277 13.748H77.9237V14.596H75.0597C74.249 14.596 73.6837 14.74 73.3637 15.028C73.0544 15.316 72.8997 15.6733 72.8997 16.1C72.8997 16.58 73.0864 16.964 73.4597 17.252C73.833 17.54 74.3557 17.684 75.0277 17.684C75.6677 17.684 76.217 17.54 76.6757 17.252C77.145 16.9533 77.4864 16.5267 77.6997 15.972L77.9557 16.756C77.7424 17.3107 77.369 17.7533 76.8357 18.084C76.313 18.4147 75.6517 18.58 74.8517 18.58ZM85.4412 18.5V6.628H86.5772V18.5H85.4412ZM104.454 18.58C103.622 18.58 102.875 18.3987 102.214 18.036C101.563 17.6627 101.051 17.156 100.678 16.516C100.304 15.8653 100.118 15.124 100.118 14.292C100.118 13.4493 100.304 12.708 100.678 12.068C101.051 11.428 101.563 10.9267 102.214 10.564C102.875 10.2013 103.622 10.02 104.454 10.02C105.168 10.02 105.814 10.1587 106.39 10.436C106.966 10.7133 107.419 11.1293 107.75 11.684L106.902 12.26C106.614 11.8333 106.256 11.5187 105.83 11.316C105.403 11.1133 104.939 11.012 104.438 11.012C103.84 11.012 103.302 11.1507 102.822 11.428C102.342 11.6947 101.963 12.0733 101.686 12.564C101.408 13.0547 101.27 13.6307 101.27 14.292C101.27 14.9533 101.408 15.5293 101.686 16.02C101.963 16.5107 102.342 16.8947 102.822 17.172C103.302 17.4387 103.84 17.572 104.438 17.572C104.939 17.572 105.403 17.4707 105.83 17.268C106.256 17.0653 106.614 16.756 106.902 16.34L107.75 16.916C107.419 17.46 106.966 17.876 106.39 18.164C105.814 18.4413 105.168 18.58 104.454 18.58ZM116.929 18.58C116.054 18.58 115.286 18.3987 114.625 18.036C113.963 17.6627 113.446 17.156 113.073 16.516C112.699 15.8653 112.513 15.124 112.513 14.292C112.513 13.46 112.689 12.724 113.041 12.084C113.403 11.444 113.894 10.9427 114.513 10.58C115.142 10.2067 115.846 10.02 116.625 10.02C117.414 10.02 118.113 10.2013 118.721 10.564C119.339 10.916 119.825 11.4173 120.177 12.068C120.529 12.708 120.705 13.4493 120.705 14.292C120.705 14.3453 120.699 14.404 120.689 14.468C120.689 14.5213 120.689 14.58 120.689 14.644H113.377V13.796H120.081L119.633 14.132C119.633 13.524 119.499 12.9853 119.233 12.516C118.977 12.036 118.625 11.6627 118.177 11.396C117.729 11.1293 117.211 10.996 116.625 10.996C116.049 10.996 115.531 11.1293 115.073 11.396C114.614 11.6627 114.257 12.036 114.001 12.516C113.745 12.996 113.617 13.5453 113.617 14.164V14.34C113.617 14.98 113.755 15.5453 114.033 16.036C114.321 16.516 114.715 16.8947 115.217 17.172C115.729 17.4387 116.31 17.572 116.961 17.572C117.473 17.572 117.947 17.4813 118.385 17.3C118.833 17.1187 119.217 16.8413 119.537 16.468L120.177 17.204C119.803 17.652 119.334 17.9933 118.769 18.228C118.214 18.4627 117.601 18.58 116.929 18.58ZM130.825 10.02C131.507 10.02 132.105 10.1533 132.617 10.42C133.139 10.676 133.545 11.0707 133.833 11.604C134.131 12.1373 134.281 12.8093 134.281 13.62V18.5H133.145V13.732C133.145 12.8467 132.921 12.18 132.473 11.732C132.035 11.2733 131.417 11.044 130.617 11.044C130.019 11.044 129.497 11.1667 129.049 11.412C128.611 11.6467 128.27 11.9933 128.025 12.452C127.79 12.9 127.673 13.444 127.673 14.084V18.5H126.537V10.1H127.625V12.404L127.449 11.972C127.715 11.364 128.142 10.8893 128.729 10.548C129.315 10.196 130.014 10.02 130.825 10.02ZM143.525 18.58C142.736 18.58 142.128 18.3667 141.701 17.94C141.275 17.5133 141.061 16.9107 141.061 16.132V8.244H142.197V16.068C142.197 16.5587 142.32 16.9373 142.565 17.204C142.821 17.4707 143.184 17.604 143.653 17.604C144.155 17.604 144.571 17.46 144.901 17.172L145.301 17.988C145.077 18.1907 144.805 18.34 144.485 18.436C144.176 18.532 143.856 18.58 143.525 18.58ZM139.557 11.044V10.1H144.757V11.044H139.557ZM150.889 18.5V10.1H151.977V12.388L151.865 11.988C152.1 11.348 152.495 10.8627 153.049 10.532C153.604 10.1907 154.292 10.02 155.113 10.02V11.124C155.071 11.124 155.028 11.124 154.985 11.124C154.943 11.1133 154.9 11.108 154.857 11.108C153.972 11.108 153.279 11.38 152.777 11.924C152.276 12.4573 152.025 13.22 152.025 14.212V18.5H150.889ZM164.196 18.58C163.321 18.58 162.553 18.3987 161.892 18.036C161.231 17.6627 160.713 17.156 160.34 16.516C159.967 15.8653 159.78 15.124 159.78 14.292C159.78 13.46 159.956 12.724 160.308 12.084C160.671 11.444 161.161 10.9427 161.78 10.58C162.409 10.2067 163.113 10.02 163.892 10.02C164.681 10.02 165.38 10.2013 165.988 10.564C166.607 10.916 167.092 11.4173 167.444 12.068C167.796 12.708 167.972 13.4493 167.972 14.292C167.972 14.3453 167.967 14.404 167.956 14.468C167.956 14.5213 167.956 14.58 167.956 14.644H160.644V13.796H167.348L166.9 14.132C166.9 13.524 166.767 12.9853 166.5 12.516C166.244 12.036 165.892 11.6627 165.444 11.396C164.996 11.1293 164.479 10.996 163.892 10.996C163.316 10.996 162.799 11.1293 162.34 11.396C161.881 11.6627 161.524 12.036 161.268 12.516C161.012 12.996 160.884 13.5453 160.884 14.164V14.34C160.884 14.98 161.023 15.5453 161.3 16.036C161.588 16.516 161.983 16.8947 162.484 17.172C162.996 17.4387 163.577 17.572 164.228 17.572C164.74 17.572 165.215 17.4813 165.652 17.3C166.1 17.1187 166.484 16.8413 166.804 16.468L167.444 17.204C167.071 17.652 166.601 17.9933 166.036 18.228C165.481 18.4627 164.868 18.58 164.196 18.58Z" fill="#FBFBF9"/>
<path d="M9.7375 48.52C8.17917 48.52 6.66667 48.3275 5.2 47.9425C3.73333 47.5575 2.54167 47.0442 1.625 46.4025L3.4125 42.3875C4.27417 42.9558 5.27333 43.4142 6.41 43.7625C7.54667 44.1108 8.665 44.285 9.765 44.285C11.855 44.285 12.9 43.7625 12.9 42.7175C12.9 42.1675 12.5975 41.7642 11.9925 41.5075C11.4058 41.2325 10.4525 40.9483 9.1325 40.655C7.68417 40.3433 6.47417 40.0133 5.5025 39.665C4.53083 39.2983 3.69667 38.7208 3 37.9325C2.30333 37.1442 1.955 36.0808 1.955 34.7425C1.955 33.5692 2.27583 32.515 2.9175 31.58C3.55917 30.6267 4.5125 29.875 5.7775 29.325C7.06083 28.775 8.62833 28.5 10.48 28.5C11.745 28.5 12.9917 28.6467 14.22 28.94C15.4483 29.215 16.53 29.6275 17.465 30.1775L15.7875 34.22C13.9542 33.23 12.1758 32.735 10.4525 32.735C9.37083 32.735 8.5825 32.9 8.0875 33.23C7.5925 33.5417 7.345 33.9542 7.345 34.4675C7.345 34.9808 7.63833 35.3658 8.225 35.6225C8.81167 35.8792 9.75583 36.145 11.0575 36.42C12.5242 36.7317 13.7342 37.0708 14.6875 37.4375C15.6592 37.7858 16.4933 38.3542 17.19 39.1425C17.905 39.9125 18.2625 40.9667 18.2625 42.305C18.2625 43.46 17.9417 44.505 17.3 45.44C16.6583 46.375 15.6958 47.1267 14.4125 47.695C13.1292 48.245 11.5708 48.52 9.7375 48.52Z" fill="#FBFBF9"/>
<path d="M9.7375 48.52C8.17917 48.52 6.66667 48.3275 5.2 47.9425C3.73333 47.5575 2.54167 47.0442 1.625 46.4025L3.4125 42.3875C4.27417 42.9558 5.27333 43.4142 6.41 43.7625C7.54667 44.1108 8.665 44.285 9.765 44.285C11.855 44.285 12.9 43.7625 12.9 42.7175C12.9 42.1675 12.5975 41.7642 11.9925 41.5075C11.4058 41.2325 10.4525 40.9483 9.1325 40.655C7.68417 40.3433 6.47417 40.0133 5.5025 39.665C4.53083 39.2983 3.69667 38.7208 3 37.9325C2.30333 37.1442 1.955 36.0808 1.955 34.7425C1.955 33.5692 2.27583 32.515 2.9175 31.58C3.55917 30.6267 4.5125 29.875 5.7775 29.325C7.06083 28.775 8.62833 28.5 10.48 28.5C11.745 28.5 12.9917 28.6467 14.22 28.94C15.4483 29.215 16.53 29.6275 17.465 30.1775L15.7875 34.22C13.9542 33.23 12.1758 32.735 10.4525 32.735C9.37083 32.735 8.5825 32.9 8.0875 33.23C7.5925 33.5417 7.345 33.9542 7.345 34.4675C7.345 34.9808 7.63833 35.3658 8.225 35.6225C8.81167 35.8792 9.75583 36.145 11.0575 36.42C12.5242 36.7317 13.7342 37.0708 14.6875 37.4375C15.6592 37.7858 16.4933 38.3542 17.19 39.1425C17.905 39.9125 18.2625 40.9667 18.2625 42.305C18.2625 43.46 17.9417 44.505 17.3 45.44C16.6583 46.375 15.6958 47.1267 14.4125 47.695C13.1292 48.245 11.5708 48.52 9.7375 48.52Z" fill="#FBFBF9"/>
<path d="M28.7527 28.885C30.4943 28.885 32.0068 29.1783 33.2902 29.765C34.5735 30.3333 35.5635 31.1583 36.2602 32.24C36.9568 33.3033 37.3052 34.5592 37.3052 36.0075C37.3052 37.4558 36.9568 38.7117 36.2602 39.775C35.5635 40.8383 34.5735 41.6633 33.2902 42.25C32.0068 42.8183 30.4943 43.1025 28.7527 43.1025H25.3977V48.135H19.9527V28.885H28.7527ZM28.4227 38.8125C29.541 38.8125 30.3843 38.5742 30.9527 38.0975C31.521 37.6025 31.8052 36.9058 31.8052 36.0075C31.8052 35.1092 31.521 34.4125 30.9527 33.9175C30.3843 33.4225 29.541 33.175 28.4227 33.175H25.3977V38.8125H28.4227Z" fill="#FBFBF9"/>
<path d="M28.7527 28.885C30.4943 28.885 32.0068 29.1783 33.2902 29.765C34.5735 30.3333 35.5635 31.1583 36.2602 32.24C36.9568 33.3033 37.3052 34.5592 37.3052 36.0075C37.3052 37.4558 36.9568 38.7117 36.2602 39.775C35.5635 40.8383 34.5735 41.6633 33.2902 42.25C32.0068 42.8183 30.4943 43.1025 28.7527 43.1025H25.3977V48.135H19.9527V28.885H28.7527ZM28.4227 38.8125C29.541 38.8125 30.3843 38.5742 30.9527 38.0975C31.521 37.6025 31.8052 36.9058 31.8052 36.0075C31.8052 35.1092 31.521 34.4125 30.9527 33.9175C30.3843 33.4225 29.541 33.175 28.4227 33.175H25.3977V38.8125H28.4227Z" fill="#FBFBF9"/>
<path d="M47.55 43.02H44.58V48.135H39.135V28.885H47.935C49.6767 28.885 51.1892 29.1783 52.4725 29.765C53.7558 30.3333 54.7458 31.1583 55.4425 32.24C56.1392 33.3033 56.4875 34.5592 56.4875 36.0075C56.4875 37.4008 56.1575 38.62 55.4975 39.665C54.8558 40.6917 53.93 41.4983 52.72 42.085L56.8725 48.135H51.0425L47.55 43.02ZM50.9875 36.0075C50.9875 35.1092 50.7033 34.4125 50.135 33.9175C49.5667 33.4225 48.7233 33.175 47.605 33.175H44.58V38.8125H47.605C48.7233 38.8125 49.5667 38.5742 50.135 38.0975C50.7033 37.6025 50.9875 36.9058 50.9875 36.0075Z" fill="#FBFBF9"/>
<path d="M47.55 43.02H44.58V48.135H39.135V28.885H47.935C49.6767 28.885 51.1892 29.1783 52.4725 29.765C53.7558 30.3333 54.7458 31.1583 55.4425 32.24C56.1392 33.3033 56.4875 34.5592 56.4875 36.0075C56.4875 37.4008 56.1575 38.62 55.4975 39.665C54.8558 40.6917 53.93 41.4983 52.72 42.085L56.8725 48.135H51.0425L47.55 43.02ZM50.9875 36.0075C50.9875 35.1092 50.7033 34.4125 50.135 33.9175C49.5667 33.4225 48.7233 33.175 47.605 33.175H44.58V38.8125H47.605C48.7233 38.8125 49.5667 38.5742 50.135 38.0975C50.7033 37.6025 50.9875 36.9058 50.9875 36.0075Z" fill="#FBFBF9"/>
<path d="M67.659 28.5C69.474 28.5 71.0689 28.8667 72.4439 29.6C73.8373 30.315 74.9098 31.3692 75.6614 32.7625C76.4314 34.1375 76.8164 35.7967 76.8164 37.74V48.135H71.3714V43.8725H63.8639V48.135H58.5014V37.74C58.5014 35.7967 58.8773 34.1375 59.6289 32.7625C60.3989 31.3692 61.4714 30.315 62.8464 29.6C64.2398 28.8667 65.8439 28.5 67.659 28.5ZM71.3714 39.665V37.2725C71.3714 35.8608 71.0323 34.7975 70.354 34.0825C69.6756 33.3675 68.7681 33.01 67.6314 33.01C66.4764 33.01 65.5598 33.3675 64.8814 34.0825C64.2031 34.7975 63.8639 35.8608 63.8639 37.2725V39.665H71.3714Z" fill="#FBFBF9"/>
<path d="M67.659 28.5C69.474 28.5 71.0689 28.8667 72.4439 29.6C73.8373 30.315 74.9098 31.3692 75.6614 32.7625C76.4314 34.1375 76.8164 35.7967 76.8164 37.74V48.135H71.3714V43.8725H63.8639V48.135H58.5014V37.74C58.5014 35.7967 58.8773 34.1375 59.6289 32.7625C60.3989 31.3692 61.4714 30.315 62.8464 29.6C64.2398 28.8667 65.8439 28.5 67.659 28.5ZM71.3714 39.665V37.2725C71.3714 35.8608 71.0323 34.7975 70.354 34.0825C69.6756 33.3675 68.7681 33.01 67.6314 33.01C66.4764 33.01 65.5598 33.3675 64.8814 34.0825C64.2031 34.7975 63.8639 35.8608 63.8639 37.2725V39.665H71.3714Z" fill="#FBFBF9"/>
<path d="M98.6628 28.885L90.4128 48.135H85.0503L76.8278 28.885H82.7128L87.9378 41.425L93.2728 28.885H98.6628Z" fill="#FBFBF9"/>
<path d="M98.6628 28.885L90.4128 48.135H85.0503L76.8278 28.885H82.7128L87.9378 41.425L93.2728 28.885H98.6628Z" fill="#FBFBF9"/>
<path d="M115.516 43.9275V48.135H98.274V45.055L102.316 40.2425H99.7315V36.3925H105.561L108.311 33.0925H98.5215V28.8575H115.104V31.9375L111.281 36.5025H113.674V40.325H108.064L105.039 43.9275H115.516Z" fill="#FBFBF9"/>
<path d="M115.516 43.9275V48.135H98.274V45.055L102.316 40.2425H99.7315V36.3925H105.561L108.311 33.0925H98.5215V28.8575H115.104V31.9375L111.281 36.5025H113.674V40.325H108.064L105.039 43.9275H115.516Z" fill="#FBFBF9"/>
<path d="M135.549 28.885V48.135H130.104V40.6275H122.679V48.135H117.234V28.885H122.679V36.1175H130.104V28.885H135.549Z" fill="#FBFBF9"/>
<path d="M135.549 28.885V48.135H130.104V40.6275H122.679V48.135H117.234V28.885H122.679V36.1175H130.104V28.885H135.549Z" fill="#FBFBF9"/>
<path d="M149.51 28.5C151.801 28.5 153.58 29.2333 154.845 30.7C156.11 32.1483 156.742 34.22 156.742 36.915V48.135H151.297V37.08C151.297 35.7233 150.986 34.7058 150.362 34.0275C149.757 33.3492 148.905 33.01 147.805 33.01C146.668 33.01 145.751 33.3767 145.055 34.11C144.358 34.825 144.01 35.9067 144.01 37.355V48.135H138.565V28.885H143.845V31.085C145.146 29.3617 147.035 28.5 149.51 28.5Z" fill="#FBFBF9"/>
<path d="M149.51 28.5C151.801 28.5 153.58 29.2333 154.845 30.7C156.11 32.1483 156.742 34.22 156.742 36.915V48.135H151.297V37.08C151.297 35.7233 150.986 34.7058 150.362 34.0275C149.757 33.3492 148.905 33.01 147.805 33.01C146.668 33.01 145.751 33.3767 145.055 34.11C144.358 34.825 144.01 35.9067 144.01 37.355V48.135H138.565V28.885H143.845V31.085C145.146 29.3617 147.035 28.5 149.51 28.5Z" fill="#FBFBF9"/>
<path d="M167.273 33.0925V43.9275H170.38V48.135H158.693V43.9275H161.828V33.0925H158.693V28.885H170.38V33.0925H167.273Z" fill="#FBFBF9"/>
<path d="M167.273 33.0925V43.9275H170.38V48.135H158.693V43.9275H161.828V33.0925H158.693V28.885H170.38V33.0925H167.273Z" fill="#FBFBF9"/>
<path d="M148.76 56.5717C148.762 56.5721 148.765 56.5725 148.767 56.5729C148.761 56.572 148.755 56.5711 148.75 56.5701C148.753 56.5707 148.756 56.5712 148.76 56.5717ZM147.476 56.5742C147.482 56.5731 147.489 56.5719 147.495 56.5708C147.503 56.5696 147.51 56.5685 147.518 56.5673C147.504 56.5696 147.489 56.5718 147.476 56.5742ZM147.189 56.6341C147.195 56.6326 147.201 56.6309 147.207 56.6294C147.214 56.6278 147.221 56.6263 147.227 56.6247C147.214 56.6278 147.201 56.6309 147.189 56.6341ZM147.11 56.6544C147.118 56.6522 147.126 56.65 147.135 56.6478C147.14 56.6463 147.146 56.6449 147.152 56.6435C147.138 56.6471 147.124 56.6507 147.11 56.6544ZM146.197 57.0329C146.2 57.0311 146.203 57.0294 146.206 57.0276C146.222 57.0186 146.238 57.0096 146.254 57.0007C146.235 57.0113 146.216 57.022 146.197 57.0329ZM144.211 58.8172C143.974 59.0526 143.777 59.2509 143.611 59.4262C143.583 59.4559 143.556 59.4849 143.529 59.5134C143.455 59.5935 143.389 59.6692 143.327 59.7415C143.389 59.6692 143.455 59.5936 143.529 59.5135C143.556 59.485 143.583 59.4559 143.611 59.4262C143.648 59.3876 143.686 59.3479 143.725 59.3069C143.795 59.2343 143.871 59.1578 143.951 59.0765C144.113 58.9139 144.297 58.732 144.507 58.5242L144.211 58.8172ZM161.692 61.2057C161.192 60.7122 160.383 60.7122 159.883 61.2058L153.646 67.37C153.626 67.3899 153.616 67.3999 153.606 67.4061C153.573 67.426 153.531 67.426 153.498 67.4061C153.488 67.3999 153.478 67.3899 153.458 67.37L150.839 64.7814C150.339 64.2877 149.529 64.2877 149.03 64.7814C148.53 65.2751 148.53 66.0754 149.03 66.5691L151.381 68.8931C151.717 69.2253 151.885 69.3915 152.048 69.5084C152.945 70.1522 154.159 70.1522 155.056 69.5084C155.219 69.3915 155.387 69.2253 155.723 68.8931L161.692 62.9936C162.192 62.4999 162.192 61.6995 161.692 61.2058L161.692 61.2057ZM156.723 57.2438C158.068 56.2781 159.889 56.2781 161.234 57.2438C161.479 57.4192 161.731 57.6684 162.235 58.1666L162.597 58.5242C163.438 59.3554 163.858 59.7711 164.111 60.2035C164.796 61.3769 164.796 62.8226 164.111 63.9959C163.858 64.4283 163.438 64.844 162.597 65.6752L160.788 67.463C157.377 70.834 155.671 72.5195 153.552 72.5195C151.844 72.5195 150.405 71.4245 148.125 69.2347C148.122 69.2372 148.119 69.24 148.117 69.2426L146.316 67.4629L146.316 67.4628L144.507 65.6752C144.46 65.6283 144.414 65.5825 144.369 65.5381C144.414 65.5824 144.46 65.6281 144.507 65.6749L144.507 65.6751C143.666 64.844 143.245 64.4282 142.993 63.9959C142.307 62.8225 142.307 61.3768 142.993 60.2035C143.245 59.7711 143.666 59.3554 144.507 58.5242C144.612 58.4203 144.711 58.3228 144.804 58.2314L144.869 58.1666C145.373 57.6684 145.625 57.4192 145.87 57.2438C147.215 56.2781 149.036 56.2781 150.381 57.2438C150.625 57.4192 150.877 57.6684 151.381 58.1666C151.717 58.4988 151.885 58.6649 152.048 58.7818C152.945 59.4256 154.159 59.4256 155.056 58.7818C155.219 58.6649 155.387 58.4988 155.723 58.1666C156.227 57.6684 156.479 57.4192 156.723 57.2438ZM135.016 57.2438C136.361 56.2781 138.182 56.2782 139.527 57.2439C139.71 57.3755 139.898 57.5484 140.193 57.8369L140.75 58.3865C140.947 58.5788 141.072 58.6942 141.194 58.7819C141.481 58.9878 141.8 59.1276 142.131 59.2019C142.04 59.3242 141.958 59.4467 141.885 59.5716C140.971 61.136 140.971 63.0635 141.885 64.628C142.243 65.2408 142.82 65.7953 143.602 66.569L142.792 67.37C142.772 67.3899 142.762 67.4 142.752 67.4062C142.719 67.4261 142.677 67.4261 142.644 67.4062C142.634 67.4 142.624 67.3898 142.604 67.37L139.985 64.7813C139.485 64.2877 138.675 64.2877 138.176 64.7813C137.676 65.275 137.676 66.0754 138.176 66.5691L140.527 68.893C140.863 69.2252 141.031 69.3914 141.194 69.5083C142.091 70.1521 143.305 70.1522 144.202 69.5084C144.365 69.3915 144.533 69.2252 144.869 68.8931L145.411 68.3566L147.188 70.1128C145.425 71.717 144.16 72.5195 142.698 72.5195C140.579 72.5195 138.873 70.834 135.462 67.463L133.653 65.6752C132.812 64.844 132.392 64.4282 132.139 63.9959C131.454 62.8225 131.454 61.3768 132.139 60.2035C132.392 59.7711 132.812 59.3554 133.653 58.5242L134.015 58.1666C134.519 57.6685 134.771 57.4192 135.016 57.2438Z" fill="#FBFBF9"/>
<path d="M148.76 56.5717C148.762 56.5721 148.765 56.5725 148.767 56.5729C148.761 56.572 148.755 56.5711 148.75 56.5701C148.753 56.5707 148.756 56.5712 148.76 56.5717ZM147.476 56.5742C147.482 56.5731 147.489 56.5719 147.495 56.5708C147.503 56.5696 147.51 56.5685 147.518 56.5673C147.504 56.5696 147.489 56.5718 147.476 56.5742ZM147.189 56.6341C147.195 56.6326 147.201 56.6309 147.207 56.6294C147.214 56.6278 147.221 56.6263 147.227 56.6247C147.214 56.6278 147.201 56.6309 147.189 56.6341ZM147.11 56.6544C147.118 56.6522 147.126 56.65 147.135 56.6478C147.14 56.6463 147.146 56.6449 147.152 56.6435C147.138 56.6471 147.124 56.6507 147.11 56.6544ZM146.197 57.0329C146.2 57.0311 146.203 57.0294 146.206 57.0276C146.222 57.0186 146.238 57.0096 146.254 57.0007C146.235 57.0113 146.216 57.022 146.197 57.0329ZM144.211 58.8172C143.974 59.0526 143.777 59.2509 143.611 59.4262C143.583 59.4559 143.556 59.4849 143.529 59.5134C143.455 59.5935 143.389 59.6692 143.327 59.7415C143.389 59.6692 143.455 59.5936 143.529 59.5135C143.556 59.485 143.583 59.4559 143.611 59.4262C143.648 59.3876 143.686 59.3479 143.725 59.3069C143.795 59.2343 143.871 59.1578 143.951 59.0765C144.113 58.9139 144.297 58.732 144.507 58.5242L144.211 58.8172ZM161.692 61.2057C161.192 60.7122 160.383 60.7122 159.883 61.2058L153.646 67.37C153.626 67.3899 153.616 67.3999 153.606 67.4061C153.573 67.426 153.531 67.426 153.498 67.4061C153.488 67.3999 153.478 67.3899 153.458 67.37L150.839 64.7814C150.339 64.2877 149.529 64.2877 149.03 64.7814C148.53 65.2751 148.53 66.0754 149.03 66.5691L151.381 68.8931C151.717 69.2253 151.885 69.3915 152.048 69.5084C152.945 70.1522 154.159 70.1522 155.056 69.5084C155.219 69.3915 155.387 69.2253 155.723 68.8931L161.692 62.9936C162.192 62.4999 162.192 61.6995 161.692 61.2058L161.692 61.2057ZM156.723 57.2438C158.068 56.2781 159.889 56.2781 161.234 57.2438C161.479 57.4192 161.731 57.6684 162.235 58.1666L162.597 58.5242C163.438 59.3554 163.858 59.7711 164.111 60.2035C164.796 61.3769 164.796 62.8226 164.111 63.9959C163.858 64.4283 163.438 64.844 162.597 65.6752L160.788 67.463C157.377 70.834 155.671 72.5195 153.552 72.5195C151.844 72.5195 150.405 71.4245 148.125 69.2347C148.122 69.2372 148.119 69.24 148.117 69.2426L146.316 67.4629L146.316 67.4628L144.507 65.6752C144.46 65.6283 144.414 65.5825 144.369 65.5381C144.414 65.5824 144.46 65.6281 144.507 65.6749L144.507 65.6751C143.666 64.844 143.245 64.4282 142.993 63.9959C142.307 62.8225 142.307 61.3768 142.993 60.2035C143.245 59.7711 143.666 59.3554 144.507 58.5242C144.612 58.4203 144.711 58.3228 144.804 58.2314L144.869 58.1666C145.373 57.6684 145.625 57.4192 145.87 57.2438C147.215 56.2781 149.036 56.2781 150.381 57.2438C150.625 57.4192 150.877 57.6684 151.381 58.1666C151.717 58.4988 151.885 58.6649 152.048 58.7818C152.945 59.4256 154.159 59.4256 155.056 58.7818C155.219 58.6649 155.387 58.4988 155.723 58.1666C156.227 57.6684 156.479 57.4192 156.723 57.2438ZM135.016 57.2438C136.361 56.2781 138.182 56.2782 139.527 57.2439C139.71 57.3755 139.898 57.5484 140.193 57.8369L140.75 58.3865C140.947 58.5788 141.072 58.6942 141.194 58.7819C141.481 58.9878 141.8 59.1276 142.131 59.2019C142.04 59.3242 141.958 59.4467 141.885 59.5716C140.971 61.136 140.971 63.0635 141.885 64.628C142.243 65.2408 142.82 65.7953 143.602 66.569L142.792 67.37C142.772 67.3899 142.762 67.4 142.752 67.4062C142.719 67.4261 142.677 67.4261 142.644 67.4062C142.634 67.4 142.624 67.3898 142.604 67.37L139.985 64.7813C139.485 64.2877 138.675 64.2877 138.176 64.7813C137.676 65.275 137.676 66.0754 138.176 66.5691L140.527 68.893C140.863 69.2252 141.031 69.3914 141.194 69.5083C142.091 70.1521 143.305 70.1522 144.202 69.5084C144.365 69.3915 144.533 69.2252 144.869 68.8931L145.411 68.3566L147.188 70.1128C145.425 71.717 144.16 72.5195 142.698 72.5195C140.579 72.5195 138.873 70.834 135.462 67.463L133.653 65.6752C132.812 64.844 132.392 64.4282 132.139 63.9959C131.454 62.8225 131.454 61.3768 132.139 60.2035C132.392 59.7711 132.812 59.3554 133.653 58.5242L134.015 58.1666C134.519 57.6685 134.771 57.4192 135.016 57.2438Z" fill="#FBFBF9"/>
</svg>
