<svg width="72" height="56" viewBox="0 0 72 56" fill="none" xmlns="http://www.w3.org/2000/svg">
<g clip-path="url(#clip0_4017_776)">
<path d="M19.1453 36.9015V19.0048H55.7381V16.8715V16.8448V11.3282V11.3015V5.78484V5.75818V0.214844H50.1689H50.1388H44.5998H44.5697H39.0274H39.0006H33.4582H33.4314H27.8757H27.8623H22.3066H22.2765H16.7375H16.7073H11.1684H11.1382H5.59926H5.56912H0V5.75818V5.78484V11.3015V11.3282V16.8448V16.8715V22.3882V22.4148V27.9482V27.9582V33.4915V33.5182V39.0349V39.0615V44.5782V44.6049V50.1215V50.1482V55.6915H5.56912H5.59926H11.1382H11.1684H16.7073H16.7375H22.2765H22.3066H27.8623H27.8757H33.4314H33.4582H39.0006H39.0274H44.5697H44.5998H50.1388H50.1689H55.7381V50.1482V50.1215V44.6049V44.5782V39.0615V39.0349V36.9015H19.1453Z" fill="#2E2D2D"/>
<path d="M24.5986 23.0625L23.6174 24.8792C23.5405 25.0369 23.4255 25.1732 23.2826 25.2758C23.1559 25.3641 23.0052 25.4117 22.8506 25.4125C22.7181 25.4119 22.5871 25.3847 22.4654 25.3325L22.596 24.9292C22.6703 24.9557 22.7483 24.9704 22.8271 24.9725C22.8893 24.9724 22.9505 24.9563 23.0046 24.9258C23.0631 24.887 23.1123 24.8358 23.1486 24.7758L23.1687 24.7492L22.2578 23.0625H22.8305L23.44 24.2958L24.0729 23.0625H24.5986Z" fill="#2E2D2D"/>
<path d="M25.9477 24.4325H25.5793V25.3592H25.0469V23.0625H25.5793V23.9892H25.9611L26.5672 23.0625H27.1299L26.3764 24.1725L27.1533 25.3592H26.5472L25.9477 24.4325Z" fill="#2E2D2D"/>
<path d="M29.1342 23.1628C29.2784 23.2229 29.4007 23.3253 29.4851 23.4563C29.5694 23.5873 29.6118 23.7407 29.6064 23.8962C29.6047 24.052 29.557 24.2039 29.4691 24.3328C29.3885 24.4601 29.272 24.561 29.1342 24.6228C28.9657 24.6929 28.7843 24.727 28.6017 24.7228H28.1296V25.3562H27.5938V23.0628H28.5984C28.781 23.0586 28.9624 23.0927 29.1309 23.1628H29.1342ZM28.9366 24.1895C28.976 24.151 29.0073 24.1051 29.0287 24.0545C29.05 24.0038 29.061 23.9494 29.061 23.8945C29.061 23.8396 29.05 23.7852 29.0287 23.7345C29.0073 23.6839 28.976 23.638 28.9366 23.5995C28.8297 23.5233 28.6994 23.4867 28.5683 23.4962H28.1296V24.2928H28.5616C28.6927 24.3023 28.823 24.2657 28.9299 24.1895" fill="#2E2D2D"/>
<path d="M31.603 24.8658H30.5314L30.3271 25.3592H29.7812L30.8127 23.0625H31.3385L32.3732 25.3592H31.8173L31.603 24.8658ZM31.4356 24.4625L31.0706 23.5858L30.7022 24.4625H31.4356Z" fill="#2E2D2D"/>
<path d="M32.621 22.7953C32.5784 22.7502 32.5547 22.6906 32.5547 22.6287C32.5547 22.5667 32.5784 22.5071 32.621 22.462C32.6432 22.4407 32.6695 22.4241 32.6982 22.4132C32.727 22.4024 32.7577 22.3974 32.7885 22.3987C32.8182 22.3977 32.8478 22.4029 32.8754 22.4138C32.9031 22.4247 32.9282 22.4411 32.9492 22.462C32.9918 22.5071 33.0156 22.5667 33.0156 22.6287C33.0156 22.6906 32.9918 22.7502 32.9492 22.7953C32.9282 22.8162 32.9031 22.8327 32.8754 22.8436C32.8478 22.8544 32.8182 22.8596 32.7885 22.8587C32.7577 22.8599 32.727 22.8549 32.6982 22.8441C32.6695 22.8332 32.6432 22.8166 32.621 22.7953ZM32.8521 23.062H33.3879V25.3587H32.8521V23.062ZM33.2908 22.7953C33.2685 22.7736 33.2508 22.7477 33.2388 22.719C33.2267 22.6904 33.2204 22.6597 33.2204 22.6287C33.2204 22.5976 33.2267 22.5669 33.2388 22.5383C33.2508 22.5096 33.2685 22.4837 33.2908 22.462C33.3116 22.4407 33.3366 22.4241 33.3643 22.4132C33.3921 22.4023 33.4218 22.3973 33.4515 22.3987C33.4823 22.3976 33.5129 22.4026 33.5417 22.4135C33.5705 22.4244 33.5966 22.4409 33.619 22.462C33.6616 22.5071 33.6854 22.5667 33.6854 22.6287C33.6854 22.6906 33.6616 22.7502 33.619 22.7953C33.5966 22.8164 33.5705 22.8329 33.5417 22.8438C33.5129 22.8547 33.4823 22.8597 33.4515 22.8587C33.4218 22.86 33.3921 22.855 33.3643 22.8441C33.3366 22.8332 33.3116 22.8166 33.2908 22.7953Z" fill="#2E2D2D"/>
<path d="M36.2649 23.0625V25.3592H35.7324V24.4158H34.6843V25.3592H34.1484V23.0625H34.6843V23.9692H35.7324V23.0625H36.2649Z" fill="#2E2D2D"/>
<path d="M37.5036 25.247C37.3646 25.1691 37.2424 25.0645 37.1446 24.9392C37.0465 24.8139 36.9745 24.6705 36.9326 24.5172C36.8908 24.364 36.88 24.204 36.9011 24.0465C36.9222 23.8891 36.9745 23.7374 37.0549 23.6003C37.1617 23.4202 37.3171 23.2735 37.5036 23.177C37.7002 23.0725 37.9205 23.0197 38.1432 23.0236C38.3298 23.0213 38.5143 23.0576 38.6857 23.1303C38.8435 23.1976 38.9831 23.3003 39.0943 23.4303L38.7594 23.747C38.6898 23.6612 38.6013 23.5922 38.5012 23.5455C38.4008 23.4987 38.2909 23.4753 38.1801 23.477C38.0468 23.4738 37.9148 23.506 37.7983 23.5703C37.6885 23.6309 37.598 23.721 37.5371 23.8303C37.4755 23.9482 37.4433 24.0791 37.4433 24.212C37.4433 24.3449 37.4755 24.4758 37.5371 24.5936C37.598 24.703 37.6885 24.7931 37.7983 24.8536C37.9148 24.918 38.0468 24.9502 38.1801 24.947C38.2912 24.9488 38.4014 24.9251 38.5019 24.8777C38.6024 24.8303 38.6904 24.7605 38.7594 24.6736L39.0943 25.007C38.9841 25.1389 38.8441 25.2429 38.6857 25.3103C38.5129 25.3827 38.3274 25.419 38.1399 25.417C37.9182 25.4205 37.6992 25.3677 37.5036 25.2636" fill="#2E2D2D"/>
<path d="M41.3977 23.9992C41.4763 24.0674 41.5376 24.1529 41.5771 24.249C41.6167 24.3451 41.6334 24.449 41.6254 24.5525C41.6324 24.6645 41.6133 24.7766 41.5698 24.8801C41.5262 24.9835 41.4593 25.0756 41.3742 25.1492C41.1723 25.2968 40.9245 25.3688 40.6743 25.3525H39.6328V23.0625H40.1653V23.8158H40.7513C40.9824 23.8007 41.2118 23.868 41.3977 24.0058V23.9992ZM40.969 24.8625C41.0099 24.8259 41.0417 24.7803 41.0621 24.7295C41.0822 24.6786 41.0906 24.6237 41.0862 24.5692C41.0862 24.3292 40.9389 24.2125 40.6442 24.2125H40.1653V24.9658H40.6442C40.7651 24.9765 40.8853 24.9394 40.979 24.8625" fill="#2E2D2D"/>
<path d="M43.0961 24.4325H42.7244V25.3592H42.1953V23.0625H42.7244V23.9892H43.1095L43.7157 23.0625H44.2783L43.5248 24.1725L44.3017 25.3592H43.6956L43.0961 24.4325Z" fill="#2E2D2D"/>
<path d="M44.75 23.0625H45.2791V24.5592L46.3809 23.0625H46.8832V25.3592H46.3541V23.8658L45.2557 25.3592H44.75V23.0625Z" fill="#2E2D2D"/>
<path d="M47.6562 23.0651H48.1887V24.5618L49.2871 23.0651H49.7895V25.3618H49.2637V23.8684L48.1619 25.3618H47.6562V23.0651ZM48.0816 22.3984H48.4466C48.4466 22.5584 48.5437 22.6384 48.7212 22.6384C48.7932 22.643 48.8645 22.6218 48.9221 22.5784C48.9466 22.5553 48.9656 22.5274 48.9784 22.4963C48.9911 22.4653 48.9971 22.4319 48.9958 22.3984H49.3608C49.3642 22.4687 49.3511 22.5388 49.3233 22.6034C49.2955 22.6681 49.2533 22.7256 49.2001 22.7718C49.0601 22.8684 48.891 22.9143 48.7212 22.9018C48.2992 22.9018 48.0883 22.7318 48.0816 22.3984Z" fill="#2E2D2D"/>
<path d="M25.6724 29.0214C25.8183 29.2259 25.8794 29.4785 25.8433 29.7267C25.8071 29.975 25.6764 30.1998 25.4782 30.3547C25.1591 30.5565 24.7838 30.6522 24.4066 30.6281H22.5781V26.9247H24.3061C24.6587 26.9045 25.0092 26.9917 25.3108 27.1747C25.4273 27.2513 25.5219 27.3567 25.5853 27.4805C25.6487 27.6044 25.6787 27.7425 25.6724 27.8814C25.6752 28.0524 25.6275 28.2205 25.5351 28.3647C25.439 28.5094 25.3046 28.6247 25.1467 28.6981C25.3518 28.7515 25.5346 28.8682 25.6691 29.0314L25.6724 29.0214ZM23.4455 28.4581H24.2458C24.3962 28.4673 24.5455 28.4275 24.6711 28.3447C24.719 28.3037 24.7569 28.2524 24.7818 28.1946C24.8068 28.1369 24.8182 28.0742 24.8151 28.0114C24.818 27.9483 24.8062 27.8854 24.7807 27.8275C24.7551 27.7697 24.7165 27.7186 24.6678 27.6781C24.5442 27.5932 24.3956 27.5521 24.2458 27.5614H23.4455V28.4581ZM24.9959 29.5147C24.9959 29.2081 24.7917 29.0547 24.3898 29.0547H23.4455V29.9981H24.3898C24.7917 29.9981 24.9959 29.8414 24.9959 29.5247" fill="#2E2D2D"/>
<path d="M29.7204 29.9358V30.6224H26.8438V26.9258H29.6501V27.6124H27.6977V28.4158H29.4224V29.0824H27.6977V29.9358H29.7204Z" fill="#2E2D2D"/>
<path d="M33.5698 27.6258H32.381V30.6224H31.5337V27.6258H30.3516V26.9258H33.5698V27.6258Z" fill="#2E2D2D"/>
<path d="M37.3063 29.9358V30.6224H34.4297V26.9258H37.236V27.6124H35.2836V28.4158H37.0083V29.0824H35.2836V29.9358H37.3063Z" fill="#2E2D2D"/>
<path d="M40.7851 27.0895C40.9525 27.1707 41.1012 27.2857 41.2214 27.4273C41.342 27.5688 41.431 27.7338 41.484 27.9117C41.5365 28.0895 41.5513 28.2764 41.5272 28.4602C41.503 28.6441 41.4411 28.821 41.3443 28.9795C41.2087 29.1861 41.0138 29.3474 40.7851 29.4429C40.5141 29.5564 40.2218 29.612 39.9278 29.6062H39.181V30.6229H38.3203V26.9262H39.9278C40.2218 26.9204 40.5141 26.976 40.7851 27.0895ZM40.4703 28.7562C40.5342 28.6941 40.5848 28.6199 40.6193 28.5381C40.6541 28.4562 40.6719 28.3683 40.6719 28.2795C40.6719 28.1907 40.6541 28.1028 40.6193 28.0209C40.5848 27.9391 40.5342 27.8649 40.4703 27.8029C40.2991 27.681 40.0908 27.6221 39.8809 27.6362H39.181V28.9195H39.8809C40.0905 28.9346 40.2988 28.8769 40.4703 28.7562Z" fill="#2E2D2D"/>
<path d="M44.7606 29.8324H43.0359L42.7011 30.6224H41.8203L43.4746 26.9258H44.3252L45.9829 30.6224H45.0821L44.7606 29.8324ZM44.4893 29.1658L43.8999 27.7491L43.3105 29.1658H44.4893Z" fill="#2E2D2D"/>
<path d="M50.2026 26.9258V30.6224H49.342V29.1091H47.6542V30.6224H46.7969V26.9258H47.6542V28.3858H49.342V26.9258H50.2026Z" fill="#2E2D2D"/>
<path d="M52.1804 30.4432C51.8783 30.2822 51.6265 30.0415 51.453 29.7475C51.2792 29.4535 51.1901 29.1176 51.1958 28.7766C51.1878 28.4251 51.2795 28.0785 51.4604 27.7766C51.6348 27.4933 51.884 27.2628 52.1804 27.1099C52.4737 26.9618 52.7959 26.8784 53.1247 26.8651C53.4536 26.8519 53.7811 26.9092 54.0858 27.0332C54.3454 27.1392 54.5751 27.3062 54.7556 27.5199L54.2031 28.0266C54.0902 27.8888 53.9475 27.7783 53.7858 27.7032C53.624 27.6282 53.4472 27.5906 53.2687 27.5932C53.0537 27.5895 52.8414 27.6412 52.6525 27.7432C52.4744 27.8404 52.328 27.9861 52.2306 28.1632C52.1318 28.3528 52.0806 28.5631 52.0806 28.7766C52.0806 28.99 52.1318 29.2004 52.2306 29.3899C52.329 29.5663 52.4754 29.7118 52.6525 29.8099C52.8414 29.912 53.0537 29.9637 53.2687 29.9599C53.4479 29.962 53.625 29.9235 53.7868 29.8473C53.9489 29.771 54.0912 29.6591 54.2031 29.5199L54.7556 30.0266C54.5761 30.2429 54.346 30.4123 54.0858 30.5199C53.8086 30.6335 53.5115 30.6902 53.2118 30.6866C52.8541 30.692 52.5005 30.6084 52.1837 30.4432" fill="#2E2D2D"/>
<path d="M58.4648 28.4424C58.5897 28.554 58.6872 28.6925 58.7498 28.8473C58.8124 29.0022 58.8389 29.1693 58.8265 29.3358C58.8382 29.515 58.8084 29.6945 58.7394 29.8604C58.6704 30.0263 58.5636 30.1741 58.428 30.2924C58.1028 30.5318 57.7033 30.6498 57.2994 30.6258H55.625V26.9258H56.4789V28.1424H57.4233C57.795 28.1179 58.1638 28.2241 58.4648 28.4424ZM57.775 29.8258C57.8393 29.7654 57.8891 29.6917 57.9216 29.6099C57.9541 29.5281 57.9678 29.4402 57.9625 29.3524C57.9625 28.9658 57.7247 28.7758 57.2525 28.7758H56.4789V29.9991H57.2659C57.4545 30.0108 57.6407 29.9526 57.7883 29.8358" fill="#2E2D2D"/>
<path d="M61.2045 29.1358H60.6118V30.6224H59.7578V26.9258H60.6118V28.4224H61.228L62.2025 26.9258H63.11L61.8944 28.7124L63.1468 30.6224H62.1723L61.2045 29.1358Z" fill="#2E2D2D"/>
<path d="M63.8672 26.9258H64.7211V29.3358L66.4927 26.9258H67.2997V30.6224H66.4491V28.2224L64.6776 30.6224H63.8672V26.9258Z" fill="#2E2D2D"/>
<path d="M68.5391 26.9261H69.393V29.3328L71.1679 26.9228H71.9716V30.6195H71.1244V28.2161L69.3528 30.6195H68.5391V26.9261ZM69.2256 25.8828H69.815C69.815 26.1395 69.9657 26.2661 70.2537 26.2661C70.3736 26.2776 70.4934 26.243 70.5885 26.1695C70.6271 26.1325 70.6575 26.0879 70.6776 26.0385C70.6981 25.9892 70.7074 25.9361 70.7058 25.8828H71.2918C71.2972 25.9957 71.2767 26.1084 71.2322 26.2123C71.1877 26.3163 71.1197 26.4087 71.0339 26.4828C70.8079 26.636 70.5366 26.7088 70.2637 26.6895C69.5939 26.6895 69.2591 26.4195 69.2356 25.8828" fill="#2E2D2D"/>
<path d="M24.9402 33.7302C24.6817 33.9208 24.3678 34.0228 24.046 34.0202V34.2702H23.5538V34.0168C23.2308 34.0172 22.9161 33.9145 22.6563 33.7235C22.5532 33.6368 22.4715 33.5275 22.4175 33.4045C22.3635 33.2814 22.3386 33.1476 22.3448 33.0134C22.3381 32.8792 22.3627 32.7452 22.4168 32.622C22.4708 32.4988 22.5528 32.3898 22.6563 32.3034C22.9164 32.1125 23.2306 32.0086 23.5538 32.0068V31.7734H24.046V32.0001C24.3683 32.0011 24.6818 32.1051 24.9402 32.2968C25.0384 32.3884 25.1167 32.4992 25.1703 32.6222C25.2238 32.7451 25.2514 32.8777 25.2514 33.0118C25.2514 33.1458 25.2238 33.2784 25.1703 33.4015C25.1167 33.5245 25.0384 33.6352 24.9402 33.7268V33.7302ZM23.5538 33.6002V32.4234C23.3662 32.4281 23.1842 32.4884 23.0313 32.5968C22.9738 32.6486 22.9289 32.7127 22.8999 32.7843C22.8709 32.8559 22.8586 32.9331 22.8639 33.0101C22.8639 33.3435 23.0916 33.5502 23.5538 33.6002ZM24.5584 33.4202C24.6175 33.3692 24.664 33.3055 24.6943 33.2338C24.7245 33.1621 24.7376 33.0844 24.7325 33.0068C24.7325 32.6734 24.5015 32.4601 24.0393 32.4234V33.6002C24.2265 33.5932 24.4073 33.5305 24.5584 33.4202Z" fill="#2E2D2D"/>
<path d="M26.3039 34.0514C26.1154 33.9524 25.9581 33.8034 25.8494 33.6211C25.7406 33.4387 25.6847 33.2301 25.6877 33.018C25.684 32.8034 25.7408 32.5921 25.8518 32.408C25.9589 32.227 26.1158 32.0801 26.3039 31.9847C26.5036 31.8818 26.7253 31.8281 26.9502 31.8281C27.1751 31.8281 27.3967 31.8818 27.5965 31.9847C27.736 32.0613 27.8586 32.1649 27.9571 32.2894C28.0557 32.4139 28.1282 32.5569 28.1703 32.7097C28.2125 32.8626 28.2234 33.0223 28.2025 33.1795C28.1816 33.3367 28.1293 33.4881 28.0486 33.6247C27.9388 33.8044 27.7827 33.9517 27.5965 34.0514C27.3961 34.1521 27.1747 34.2047 26.9502 34.2047C26.7257 34.2047 26.5043 34.1521 26.3039 34.0514ZM27.3085 33.6581C27.4174 33.5961 27.5076 33.5064 27.5697 33.3981C27.6321 33.2811 27.6643 33.1505 27.6635 33.018C27.665 32.8855 27.6328 32.7548 27.5697 32.638C27.5094 32.5275 27.4188 32.4362 27.3085 32.3747C27.1959 32.3124 27.069 32.2802 26.9401 32.2814C26.8114 32.2811 26.6847 32.3132 26.5718 32.3747C26.4627 32.4367 26.3734 32.5279 26.3139 32.638C26.2493 32.7542 26.2169 32.8853 26.2201 33.018C26.2177 33.1507 26.25 33.2816 26.3139 33.3981C26.3739 33.5071 26.4632 33.5971 26.5718 33.6581C26.6841 33.7211 26.8112 33.7534 26.9401 33.7514C27.0692 33.7541 27.1965 33.7221 27.3085 33.6581Z" fill="#2E2D2D"/>
<path d="M30.9368 31.8711V34.1678H30.4043V33.2278H29.3561V34.1678H28.8203V31.8711H29.3561V32.7778H30.4043V31.8711H30.9368Z" fill="#2E2D2D"/>
<path d="M34.0798 33.7345V34.6445H33.5841V34.1678H31.9566V34.6445H31.4609V33.7345H31.5514C31.692 33.7345 31.7891 33.6311 31.8461 33.4345C31.9142 33.1583 31.9501 32.8754 31.9532 32.5911L31.9767 31.8711H33.7516V33.7345H34.0798ZM32.3584 33.3344C32.3377 33.4811 32.2814 33.6208 32.1943 33.7411H33.2258V32.3111H32.4354V32.6444C32.4291 32.8746 32.4067 33.104 32.3685 33.3311" fill="#2E2D2D"/>
</g>
<defs>
<clipPath id="clip0_4017_776">
<rect width="72" height="56" fill="white"/>
</clipPath>
</defs>
</svg>
