<svg width="121" height="56" viewBox="0 0 121 56" fill="none" xmlns="http://www.w3.org/2000/svg">
<g clip-path="url(#clip0_4017_744)">
<path d="M42.904 32.5569V32.6996C42.904 45.1755 33.2898 55.2703 21.4754 55.2703C9.66189 55.2703 0 45.1279 0 32.652V0.511719H42.904V32.5569Z" fill="#2E2D2D"/>
<path d="M16.2114 40.9868C16.1636 40.8916 16.0681 40.7965 16.0204 40.7013C16.0681 40.7013 16.3077 40.7013 16.3554 40.6061C16.3589 40.7468 16.3072 40.8834 16.2114 40.9868ZM19.7508 37.7491C19.6553 37.5111 19.4166 37.2732 19.3203 37.0352C19.0816 37.3199 18.8429 37.6063 18.5548 37.8443C18.5548 37.8918 19.1771 37.7491 19.7508 37.7491ZM15.1594 41.3675C15.2071 41.2248 15.2549 41.1296 15.3504 40.9868C15.2071 41.0344 15.0639 41.082 14.9684 40.9868C14.9684 41.1296 15.0639 41.2724 15.1594 41.3675ZM18.4601 37.9394C18.3161 38.0346 18.2206 38.1298 18.0774 38.225C18.4861 38.3207 18.9116 38.3207 19.3203 38.225C19.0816 38.1298 18.6997 38.0346 18.4601 37.9394ZM28.0743 39.2728C28.0249 39.13 27.9302 38.9396 27.8348 38.8445C27.646 38.8948 27.4704 38.9741 27.308 39.0824C27.5467 39.13 27.8356 39.1776 28.0743 39.2728ZM10.5672 34.4637C10.6626 34.4637 10.8059 34.6065 10.8536 34.6541C10.8536 34.5589 10.8536 34.4161 10.9013 34.321C10.8059 34.3686 10.6626 34.4161 10.5672 34.4637ZM10.9499 35.7011C10.8539 35.8047 10.8022 35.9416 10.8059 36.0826C10.9013 36.035 11.0446 35.9874 11.1886 35.9874C11.0454 35.9398 10.9977 35.8447 10.9499 35.7011ZM23.6245 39.7962C23.4812 39.8914 23.3857 40.0342 23.2894 40.177C23.4335 40.177 23.5281 40.273 23.7199 40.3206C23.6245 40.1294 23.6722 39.939 23.6245 39.7962ZM13.7716 40.9868C13.6761 40.9392 13.5798 40.8916 13.4835 40.7965C13.4366 40.9392 13.4366 41.0344 13.4366 41.1772C13.5303 41.0866 13.6456 41.0211 13.7716 40.9868ZM13.1979 39.8914C13.1501 39.8914 13.1024 39.4631 13.1024 39.4631C12.9668 39.5548 12.8654 39.6887 12.8143 39.8438C12.9583 39.8438 13.053 39.8438 13.1979 39.8914ZM27.4034 34.8445C27.4989 35.1776 27.7376 35.4631 28.0249 35.6535C27.8817 35.2252 27.7368 34.8445 27.5944 34.4153C27.3557 33.9394 26.9252 33.5587 26.3984 33.4635C26.7812 33.8918 27.117 34.3677 27.4034 34.8445ZM22.0457 35.3204C22.6672 35.2252 23.1454 34.7493 22.4762 34.1306C22.5239 34.5589 22.3321 34.9872 22.0457 35.3204ZM21.2802 35.6059C21.9016 35.3679 22.5231 34.892 21.8062 34.1782C21.8062 34.7017 21.616 35.2252 21.2794 35.6059M20.6093 35.7487C21.0398 35.7487 21.7099 35.0348 21.0867 34.5113C21.0867 34.9872 20.9435 35.4155 20.6093 35.7487ZM32.3282 38.0346C32.3811 38.1338 32.4559 38.2196 32.5471 38.2855C32.6382 38.3515 32.7433 38.3959 32.8542 38.4153C32.711 38.5581 32.5192 38.6533 32.3274 38.7009C32.376 38.9872 32.5192 39.3679 32.5661 39.7019C32.6147 40.0342 32.4714 40.4157 31.85 40.4157C31.9058 40.6054 31.8887 40.809 31.8022 40.9868C31.7529 41.082 31.6105 41.1296 31.4672 41.082C31.4195 41.0344 31.3717 40.9868 31.3717 40.8916C31.3224 40.7013 31.3717 40.5109 31.4195 40.3197C30.989 40.4633 31.0845 40.8916 30.8927 41.082C30.7972 41.2248 30.6062 41.2724 30.4153 41.1772C30.3659 41.1296 30.319 41.1296 30.319 41.082C30.128 40.844 30.2235 40.3681 30.7964 40.3681C30.4144 40.2246 30.0309 40.1302 29.8885 40.6061C29.6975 40.5585 29.602 40.4633 29.5535 40.2721C29.602 39.4155 30.8458 40.3197 31.0845 39.7011C31.18 39.3679 31.1322 38.9872 30.8927 38.7009C30.6062 38.4153 30.2235 38.225 29.8407 38.1298C29.0752 37.987 28.406 37.5111 27.9755 36.8916C27.6754 36.3993 27.4043 35.8914 27.1623 35.3679C27.0224 35.0686 26.7994 34.8153 26.5199 34.6381C26.2403 34.4609 25.9157 34.3671 25.5843 34.3677C25.0264 34.4566 24.4906 34.6507 24.0056 34.9396L21.6621 36.1294C21.7576 36.273 21.8531 36.3673 21.9971 36.4633C21.709 36.4633 21.4703 36.4633 21.1839 36.3681C21.1839 36.5585 21.2316 36.7489 21.2794 36.9392C21.0876 36.9868 19.7006 37.1296 19.3178 36.8916C19.4141 36.7489 19.5096 36.6061 19.5565 36.4633C20.6579 36.4633 22.2358 35.9398 22.8573 35.0348C21.9008 35.7011 20.7995 36.0826 19.6529 36.2246C19.6529 35.9866 19.6529 35.7487 19.5574 35.5107C19.3664 37.082 17.5489 38.1298 16.4484 39.1292C16.9258 39.1292 17.4049 38.7009 17.8354 38.3677C17.9786 38.5581 18.1227 38.7493 18.3128 38.9396C18.1227 38.9872 17.8831 38.9396 17.6922 38.8445C17.204 39.1402 16.7098 39.4258 16.2097 39.7011C16.4484 40.3206 16.0179 40.6529 15.5397 40.1294C15.4442 40.3673 15.301 40.8432 14.9174 40.7965C14.44 40.7013 14.8697 40.0342 15.0137 39.8447C14.6309 39.939 14.3437 40.2721 14.3437 40.6537C13.6745 40.9868 13.3395 40.4633 13.5782 40.0818C13.6745 39.8914 13.9609 39.8914 14.2959 39.7487C13.9609 39.7011 13.6267 39.6059 13.3395 39.8914C13.1007 39.3204 13.6745 39.3204 14.1527 39.4155C14.8219 39.5107 15.1569 39.1776 15.5397 38.7017L16.3052 37.7007C16.9744 37.2724 17.4049 36.5585 17.5004 35.7487C17.7876 35.8447 18.1227 35.8923 18.4568 35.7971C18.2652 35.3968 18.2148 34.9438 18.3136 34.5113C18.4091 34.7969 18.6486 34.9872 18.9359 35.0824C19.1269 34.3686 19.7483 34.0822 20.0834 33.4635L20.2751 33.987C20.9913 33.5587 21.5658 32.94 21.8531 32.1778C22.0449 32.4157 22.3305 32.6061 22.6663 32.6061V32.1778C22.9536 32.3681 23.2878 32.4157 23.6228 32.4157L23.3347 31.9874C24.1965 31.8923 25.1044 31.7971 25.9663 31.7971C27.2092 31.7495 28.406 31.9398 29.5535 32.4633C30.128 32.7489 31.6582 33.2256 31.9455 32.2254C32.0887 31.6543 31.6574 31.3679 31.2277 31.0824C30.654 30.7969 30.0803 30.5113 29.5535 30.1782C29.602 30.083 29.6498 30.0354 29.6498 29.9403C30.4622 30.321 31.4672 30.6541 32.0887 31.3204C32.4237 31.7495 32.4237 32.3681 32.041 32.7489C31.5142 33.2732 30.6062 33.2248 29.9362 33.1304C30.319 33.3208 30.6062 33.6539 30.7495 34.0822C30.5585 34.0822 30.319 34.0346 30.128 33.987C30.0317 33.7491 29.8893 33.5587 29.7452 33.3684L29.793 33.6063C29.8407 33.987 29.8885 34.3677 29.8885 34.7493C29.8885 35.2728 29.9362 35.7962 29.984 36.3206C30.026 36.6156 30.1455 36.8943 30.3303 37.1285C30.5152 37.3626 30.7589 37.5439 31.0367 37.6539C31.2277 37.7015 31.4195 37.7491 31.5627 37.8443C31.7059 37.9394 31.7059 38.0346 31.7059 38.1774C31.6111 38.4331 31.597 38.7116 31.6654 38.9756C31.7338 39.2395 31.8815 39.4764 32.0887 39.6543C31.8975 39.2032 31.8475 38.7049 31.9455 38.225C32.041 37.9394 31.8977 37.6539 31.6105 37.5111C31.4195 37.4635 31.2277 37.3675 31.0367 37.3199C30.3667 37.0344 30.2712 36.4633 30.1757 35.8438C30.128 35.5107 30.1757 35.13 30.128 34.7969C30.128 34.5589 30.128 34.3677 30.0803 34.1298C30.2712 34.3677 30.5108 34.5589 30.7495 34.7493H30.2227C30.6062 35.0348 30.7972 35.2728 31.0845 35.5107C30.8927 35.5107 30.7017 35.4155 30.5577 35.3204C30.5095 35.5945 30.5187 35.8756 30.5847 36.146C30.6507 36.4164 30.7721 36.6702 30.9412 36.8916C31.2277 37.2248 31.5627 37.2248 31.9932 37.2724C32.4237 37.3199 32.1364 37.8443 32.8065 37.8443C32.7452 37.9084 32.6707 37.9587 32.5882 37.9915C32.5057 38.0244 32.417 38.0391 32.3282 38.0346ZM31.4195 41.3675L31.7059 41.6531C31.7059 41.5103 31.7537 41.4151 31.8022 41.2724C31.7529 41.3675 31.6105 41.4151 31.4195 41.3675ZM32.4714 40.8916C32.5669 40.7965 32.5669 40.6537 32.5669 40.5109C32.4714 40.6061 32.376 40.6537 32.2805 40.6537L32.4714 40.8916ZM11.8093 33.5111C11.7599 33.4159 11.5212 33.3684 11.5212 33.3684C11.5697 33.4635 11.5697 33.6063 11.6175 33.7015C11.5697 33.6063 11.713 33.5587 11.8093 33.5111ZM30.128 41.3199C30.128 41.4627 30.128 41.6055 30.2235 41.7483C30.319 41.6055 30.3667 41.6055 30.5108 41.5579C30.319 41.5579 30.1757 41.4627 30.128 41.3199ZM25.2493 41.4627C25.2971 41.6531 25.3448 41.7967 25.488 41.9386C25.5843 41.7958 25.6321 41.6531 25.7267 41.5103C25.5843 41.5579 25.3925 41.5579 25.2493 41.4627ZM26.4922 40.9392C26.5885 41.082 26.684 41.1772 26.7309 41.3199C26.875 41.1296 26.8273 41.1296 26.9236 40.9392C26.7839 40.9875 26.6319 40.9875 26.4922 40.9392ZM24.4361 41.3199C24.1974 41.2724 24.101 41.2248 24.0533 41.082C24.0056 41.2248 24.0056 41.4151 24.0056 41.5579C24.1965 41.4627 24.1965 41.3675 24.4361 41.3199ZM29.3625 40.5109C29.2193 40.6061 29.2193 40.7489 29.1715 40.844C29.267 40.7965 29.4102 40.844 29.5057 40.844C29.458 40.7489 29.4102 40.6061 29.3625 40.5109ZM27.3047 36.7013C26.2535 37.1296 26.684 38.0822 27.5434 38.2726C27.019 37.7491 26.8272 37.5111 27.3047 36.7013ZM27.6405 39.7011C27.2577 39.6059 26.875 39.6535 26.5408 39.8914C27.21 40.4157 26.8273 41.0344 26.0626 40.6053C25.9663 41.1772 25.5843 41.3684 25.3925 41.2724C24.9143 40.9392 25.3448 40.6537 25.5358 40.4633C25.3887 40.4646 25.2456 40.5109 25.1258 40.596C25.0061 40.6812 24.9156 40.801 24.8666 40.9392C24.3883 41.2724 24.0056 40.7965 24.1488 40.5109C24.2443 40.3681 24.4361 40.273 24.8188 40.3206C24.3883 39.9866 24.2451 40.0342 23.9578 40.2721C23.889 40.2023 23.8504 40.1083 23.8504 40.0104C23.8504 39.9125 23.889 39.8185 23.9578 39.7487C24.0009 39.7034 24.0528 39.6673 24.1103 39.6426C24.1678 39.6179 24.2298 39.6052 24.2924 39.6052C24.355 39.6052 24.417 39.6179 24.4745 39.6426C24.5321 39.6673 24.584 39.7034 24.627 39.7487C25.1061 39.9866 25.3925 39.9866 25.6798 39.5583C25.823 39.3204 25.9663 39.0824 26.0626 38.8445C26.2058 38.4153 25.9663 38.225 25.5843 38.0346C25.1061 37.7967 24.7233 37.4159 24.5307 36.8916C24.5793 36.4157 24.8188 35.9398 25.2493 35.6535C25.488 35.4155 25.6798 35.1776 25.823 34.892C26.684 34.9872 27.1145 36.0818 27.4973 36.9868C27.1145 37.6539 27.3541 37.8443 27.8323 38.2258C28.071 38.4153 28.071 38.5105 27.7845 38.6533C26.9713 38.9396 26.3013 39.6059 26.1103 40.4633C26.425 40.0073 26.7943 39.5913 27.21 39.2244L27.3532 39.3679C27.4973 39.4631 27.5911 39.5583 27.6405 39.7011ZM13.1007 36.273C13.244 36.4633 13.3872 36.6537 13.5782 36.844C13.5224 36.5456 13.4905 36.2433 13.4827 35.9398C13.2917 35.8914 13.1007 35.7963 13.0053 35.6059C13.6267 35.7487 14.5832 35.9398 15.3487 35.6059C15.3965 35.1776 15.2993 34.7493 15.3487 34.2726C14.5355 34.6541 13.6745 34.892 12.7657 34.9396C12.6217 34.892 12.527 34.892 12.4307 34.7493C12.3352 34.5589 12.2875 34.3201 12.2398 34.1298C12.1904 33.987 12.1434 33.8443 12.048 33.7015C11.9525 33.6539 11.5697 33.7967 11.6652 33.8918C11.857 34.1298 12.0002 34.4153 12.0002 34.7017C11.8603 34.5204 11.6792 34.3735 11.4734 34.2726C10.996 34.0822 10.996 34.6541 11.0915 34.9396C11.3302 34.8445 11.6183 34.892 11.857 34.9872C11.187 35.0824 10.9005 35.7962 11.4742 35.8438C11.713 35.7962 11.9517 35.7487 12.1434 35.6059C12.2398 36.4157 12.3822 36.5585 13.1007 36.273ZM22.9536 29.6063C22.9059 30.1306 22.8096 30.9396 23.431 31.13C23.2401 30.7493 23.1923 30.2734 23.1923 29.8451C23.0968 29.7967 23.0491 29.6531 22.9536 29.6063ZM16.1134 32.8925C16.0179 33.0828 15.9224 33.2732 15.8747 33.5111C16.0657 33.5587 16.2089 33.5111 16.4007 33.4635C16.3061 33.7557 16.2578 34.0607 16.2574 34.3677C17.023 34.4637 17.5004 33.7015 17.6922 33.0352C17.4041 33.4635 17.0221 33.7967 16.5916 33.987C16.6879 33.5587 16.8789 33.178 17.1184 32.7973C16.8789 32.94 16.6394 33.0828 16.3529 33.178C16.5916 32.7021 16.9744 32.273 17.4526 31.939C16.6871 32.035 16.5439 32.2262 16.1134 32.8925ZM17.9786 33.6539C17.3571 33.9394 16.9744 34.5589 16.8789 35.2252C16.7357 34.9872 16.5908 34.7493 16.4962 34.4637C16.3529 35.1776 16.4484 35.4631 17.0699 35.7011C17.1184 34.9396 17.4526 34.225 17.9786 33.6539ZM19.6051 30.6541C18.7919 31.0348 18.2659 31.8923 18.2659 32.7965C18.7923 32.5183 19.2755 32.1657 19.7006 31.7495L19.5574 32.273C19.9401 32.1778 20.2751 32.035 20.5616 31.7495C20.6572 32.1403 20.6572 32.5484 20.5616 32.9392C21.0884 32.1778 20.9443 31.9398 20.7534 31.0356C20.5147 31.2736 20.3706 31.6067 19.9879 31.7495L20.2751 30.5105C19.786 31.1472 19.2058 31.7089 18.5532 32.1778C18.7441 31.6067 19.3187 31.0824 19.6051 30.6541ZM19.9879 28.9876C19.7319 29.1732 19.5155 29.4078 19.3513 29.6775C19.1871 29.9473 19.0783 30.2469 19.0314 30.5589C20.0356 30.2258 20.7056 29.3692 20.8011 28.3206C20.5579 28.9329 20.1427 29.4622 19.6051 29.8451C19.7006 29.5587 19.8924 29.2732 19.9879 28.9876ZM20.6579 26.5113C20.8489 27.1308 20.6085 27.7503 20.1311 28.1302C20.5616 28.035 20.8489 27.8923 20.9443 27.4639C20.9921 27.1308 20.8966 26.7493 20.6579 26.5113ZM21.9971 25.3216C21.7777 25.3763 21.5772 25.4892 21.4171 25.6484C21.2569 25.8077 21.143 26.0072 21.0876 26.2258C21.2794 26.0354 21.5181 25.8451 21.8053 25.7499C21.8531 26.083 21.9008 26.3686 21.8531 26.7017C22.1404 26.321 22.2358 25.7507 21.9971 25.3216ZM21.6144 27.3212C21.7099 27.8923 21.5666 28.4641 21.2794 28.94C22.0926 28.7021 22.0926 27.8923 21.6144 27.3212ZM22.2358 28.6545C21.7127 29.1289 21.332 29.7388 21.1361 30.4161C21.0867 30.0354 21.0867 29.6063 21.1839 29.2264C20.6571 29.9878 20.7534 30.4161 21.0398 31.1776C21.4703 30.3686 21.8053 29.4635 22.2358 28.6545ZM18.6486 28.2254C19.1261 28.5117 19.9401 28.1778 19.3178 27.3688C19.4619 28.035 19.2224 28.1778 18.6486 28.2254ZM19.1754 26.1306C19.1754 26.2734 19.2224 26.4161 19.3178 26.4161C19.4139 26.4161 19.4619 26.321 19.4619 26.1306C19.4619 25.9403 19.4139 25.8451 19.3178 25.8451C19.2224 25.8927 19.1754 26.0354 19.1754 26.1306ZM16.0179 33.7015C15.7298 33.7491 15.3965 33.8442 15.1569 33.6539C15.4917 33.3684 15.7309 33.035 15.8747 32.6537C16.0271 32.2137 16.2908 31.8203 16.6402 31.5115C16.9267 31.3679 17.2139 31.2736 17.5004 31.13C17.4049 31.3204 17.1184 31.4639 16.9736 31.6059C18.1227 32.035 18.5532 31.6543 18.6964 30.7017C18.5952 30.8943 18.4528 31.0624 18.2793 31.1941C18.1057 31.3258 17.9053 31.4179 17.6922 31.4639C17.8831 31.1776 18.0272 30.8445 17.9786 30.5113C17.5489 30.7969 16.7834 31.4631 16.2574 31.1776C16.3529 31.1776 16.5916 30.9872 16.6879 30.9396C16.9744 30.7017 17.2617 30.5113 17.5967 30.3686C17.9786 30.2734 18.4091 30.1782 18.8396 30.1782C18.4577 30.083 18.0741 29.9878 17.7399 29.7967C18.2667 29.7015 18.6964 29.4159 19.0314 28.9876C19.9401 28.8925 20.2274 28.4157 20.2274 27.5107C20.0834 27.9398 20.0356 28.2254 19.7006 28.4641C19.4619 28.6069 19.1269 28.7021 18.8396 28.7021C18.3622 28.7973 17.8354 28.7973 18.0272 28.1302V28.0826C18.2659 28.1302 18.5532 28.1302 18.7927 28.1302C19.1746 28.0826 19.5574 27.9874 19.4619 27.5115C19.4141 27.3212 19.2232 27.1784 18.9837 27.1784C18.6956 27.226 18.4568 27.2736 18.1704 27.3212C18.0602 27.2522 17.9737 27.1514 17.9222 27.0323C17.8708 26.9132 17.8569 26.7813 17.8823 26.6541C17.9786 26.4161 18.2659 26.321 18.4577 26.2258C18.0272 26.083 17.8831 26.4161 17.6922 26.4161C17.6444 26.3686 17.6444 26.3686 17.6444 26.321C17.8354 26.1306 18.0749 25.9878 18.3136 25.8927C18.5523 25.7975 18.8404 25.7499 19.0791 25.7499C19.1746 25.7499 19.3178 25.7023 19.4141 25.6547C19.4619 25.8927 19.6529 26.0354 19.8916 26.083C19.6529 26.2734 19.5096 26.5589 19.4619 26.8445C19.7483 26.5113 20.0356 26.2258 20.4184 25.9878C20.4661 26.3686 19.9879 26.5589 19.7483 26.6541C20.5139 26.988 20.6579 26.4162 20.5138 25.9403C20.144 25.9021 19.786 25.7888 19.4619 25.6071C19.6051 25.5119 19.7483 25.4159 19.9393 25.3692C20.3229 25.2732 20.7534 25.3208 21.1361 25.4635C21.0867 25.6071 21.0867 25.7499 21.0867 25.8927C21.2286 25.7045 21.4084 25.548 21.6145 25.4332C21.8206 25.3183 22.0485 25.2476 22.2836 25.2256C22.4268 25.7015 22.3791 26.1782 22.2358 26.6541C22.4268 26.5113 22.5709 26.4161 22.6186 26.1782C22.8573 26.4161 23.096 26.6541 23.1923 26.988C23.3364 27.226 23.5273 27.4639 23.8146 27.5591C23.3364 27.9398 22.761 27.1308 22.5708 26.7969C22.6186 27.4164 22.7618 27.7495 23.3364 27.9398C23.5751 28.5117 23.5751 29.2256 24.1019 29.7967C23.1446 29.7015 23.0483 28.6545 22.5231 28.1778C22.4754 28.7021 22.2844 29.2256 22.0449 29.7015C22.3791 29.5587 22.6186 29.2732 22.7141 28.94C22.7618 29.0352 22.8096 29.178 22.8573 29.2732C22.7618 29.7967 22.5231 30.2734 22.1881 30.7017C22.0832 30.4454 22.0502 30.1654 22.0926 29.8918C21.9796 30.0945 21.9164 30.321 21.9081 30.5528C21.8998 30.7845 21.9467 31.015 22.0449 31.2252C22.3313 30.9872 22.5709 30.7493 22.761 30.4637L22.9997 30.9872C22.9997 31.3204 23.0968 31.6543 23.1923 31.939C23.0106 31.8046 22.8497 31.6443 22.7149 31.4631C22.6655 31.7011 22.5708 31.8923 22.5231 32.1302C22.2844 31.8923 22.0449 31.6543 21.9486 31.3204C21.8053 31.7495 21.6621 32.1778 21.4218 32.5593C21.2316 32.8916 20.9443 33.178 20.6093 33.4159C20.4661 32.9876 20.2751 32.6061 20.0825 32.1778V32.3682C19.856 32.4995 19.6474 32.6595 19.4619 32.844C19.5096 32.6061 19.5574 32.3681 19.7006 32.1778C18.9837 32.6061 19.1269 33.0828 19.2701 33.7491C19.5088 33.3208 19.7969 32.8916 20.0834 32.4633C20.0834 32.8916 19.8924 33.3208 19.6529 33.6539C19.3659 33.8918 19.1269 34.1777 18.9359 34.5113C18.7441 34.3202 18.6009 34.0354 18.4091 33.7975C18.1227 34.2734 18.0749 34.892 18.2181 35.4155C17.9377 35.3745 17.6734 35.2595 17.4526 35.0824C17.3571 35.7963 17.3094 36.5109 16.7357 37.082V36.6537C16.8312 36.0826 16.8789 35.7487 16.3529 35.3679C16.5916 35.8438 16.4962 36.3681 16.2097 36.7965C16.2982 36.2881 16.2652 35.7661 16.1134 35.2728L15.6829 35.5107C15.6352 35.1633 15.6352 34.8111 15.6829 34.4637C15.7654 34.1979 15.8778 33.9422 16.0179 33.7015ZM27.21 29.8451C27.4487 29.8451 27.6405 29.8918 27.88 29.9394C27.9755 29.7967 28.071 29.7015 28.215 29.6063L28.071 29.4635C27.906 29.4393 27.7374 29.4623 27.585 29.5299C27.4326 29.5974 27.3025 29.7067 27.21 29.8451ZM18.1227 27.7971C18.1704 27.7019 18.1704 27.6067 18.2659 27.5115C18.2216 27.5352 18.1721 27.5476 18.1218 27.5476C18.0716 27.5476 18.0221 27.5352 17.9778 27.5115L18.1227 27.7971ZM24.6748 27.7495C25.4403 28.5117 26.3968 29.0828 27.4487 29.3208C27.545 29.2732 27.6874 29.2256 27.7845 29.178C27.545 29.1304 27.3541 28.9876 27.1145 28.94C26.5519 28.7473 26.0201 28.4746 25.5358 28.1302C25.1855 27.9316 24.9026 27.6333 24.7233 27.2736C24.4846 26.9396 24.5793 26.4161 24.9143 26.1782C25.0294 26.0899 25.1686 26.0381 25.3136 26.0296C25.4586 26.0212 25.6028 26.0563 25.7276 26.1306C25.7753 26.083 25.823 25.9878 25.8708 25.9403C24.5315 25.3684 23.9093 26.9396 24.6748 27.7495ZM28.932 29.3208C28.7858 29.2461 28.6661 29.1284 28.5891 28.9837C28.5121 28.839 28.4816 28.6743 28.5015 28.5117C28.071 28.7021 28.071 29.178 28.597 29.5111L29.1715 29.7491C28.9797 29.7491 28.7888 29.7967 28.597 29.7967C28.2628 29.8442 27.88 30.2258 28.1665 30.6065C28.215 29.9878 29.0752 30.3686 29.3625 29.9878C29.5057 29.7015 29.0744 29.4635 28.932 29.3208ZM15.301 35.9874C14.966 36.035 14.6787 36.0826 14.3437 36.035C14.6309 36.1778 14.9182 36.273 15.2047 36.3681C15.2047 36.2254 15.2532 36.1302 15.301 35.9874ZM12.4307 36.7013C12.2398 36.6537 12.2398 36.6537 12.192 36.5109C12.1642 36.5808 12.1541 36.6563 12.1624 36.731C12.1707 36.8057 12.1973 36.8772 12.2398 36.9392C12.2875 36.7489 12.3352 36.7965 12.4307 36.7013ZM15.827 36.4633C15.875 36.2596 15.875 36.0476 15.827 35.8438L15.2524 36.3681C15.4442 36.4157 15.6352 36.4633 15.827 36.4633ZM14.2004 36.0826L13.579 35.9874C13.6745 36.3206 13.9609 36.6061 14.2951 36.7489V36.6537C14.2482 36.4633 14.2004 36.273 14.2004 36.0826ZM26.4453 25.9878C26.3013 26.0354 26.1572 26.1782 26.0626 26.321C26.0148 26.5589 26.1103 26.8445 26.0148 27.0832C26.3013 27.0356 26.4453 26.6073 26.5408 26.3694C26.5408 26.892 26.684 27.3688 27.0182 27.7495C26.9713 27.4164 26.875 27.0832 26.7795 26.7493C27.162 27.2252 27.6405 27.5588 28.215 27.7503V27.7019C27.88 27.3212 27.545 26.9396 27.1145 26.6541C27.4973 26.7969 28.1187 27.0832 28.5492 26.7493C28.1707 26.661 27.8132 26.4993 27.4973 26.2734C27.1145 26.0354 26.875 25.7975 26.4453 25.9878ZM30.4622 14.2266V16.4174H33.2361V15.2736H32.7587V14.2258L30.4622 14.2266ZM34.6239 35.3204C34.7194 36.0826 34.8149 36.8916 34.8149 37.6539H37.1114L37.062 35.3204H34.6239ZM28.313 14.5597H27.0693V16.4642H28.3122V14.5597M29.6037 8.56015V11.3696H37.2563V8.56015H35.8693V10.2266H34.0996V8.56097H32.7126V10.2266H30.9429V8.56097L29.6037 8.56015ZM7.07544 22.1782H11.3327V19.9407H7.17175L7.07544 22.1782ZM36.3953 11.7503H30.4647V13.9411H32.8089V12.5126H34.0519V13.9403H36.3961L36.3953 11.7503ZM10.5688 30.1782H6.83673L6.78899 32.4157H9.80164C9.99426 31.6543 10.233 30.892 10.5672 30.1782H10.5688ZM6.64659 37.6531H8.94312V37.5587C8.99004 36.7965 9.03778 36.0818 9.18183 35.3204H6.69351L6.64659 37.6531ZM33.5753 40.844H37.6884V37.987H33.6707L33.5753 40.844ZM6.02513 40.844H10.186L10.0428 37.987H5.97656V40.844H6.02513ZM16.3554 14.5597H15.1125V16.4642H16.3554V14.5597ZM36.9229 30.1782H33.2403C33.5753 30.892 33.814 31.6543 34.0058 32.4157H36.9707L36.9229 30.1782ZM34.4354 32.7489H34.1012C34.2445 33.2248 34.34 33.7015 34.4354 34.1774V32.7489ZM34.0535 15.2744H33.5753V16.4174H36.3492V14.2266H34.0058L34.0535 15.2744ZM17.8379 5.70312V8.51256H25.921V5.70312H24.4854V7.418H22.6202V5.74989H21.137V7.41636H19.2717V5.75071H17.837L17.8379 5.70312ZM10.9038 15.2744H10.4248V16.4174H13.1987V14.2266H10.8544L10.903 15.2744M37.3526 17.3692L37.5436 16.7505H6.26301L6.4548 17.3692H37.3526ZM7.31497 14.2266V16.4174H10.0889V15.2736H9.6115V14.2258L7.31497 14.2266ZM13.1987 11.7503H7.31497V13.9411H9.65924V12.5126H10.9022V13.9403H13.2464V11.7503H13.1987ZM6.40624 8.56015V11.4172H14.0597V8.60774H12.7205V10.2742H10.9507V8.60856H9.56211V10.2742H7.79239V8.60856H6.40706L6.40624 8.56015ZM18.6034 16.465H21.6646V14.2266H18.6025L18.6034 16.465ZM25.1555 14.2266H21.9996V16.465H25.1571V14.2266H25.1555ZM24.199 11.4172H22.5264V12.7505H21.2827V11.4172H19.6084V13.8935H24.1998L24.199 11.4172ZM25.1563 11.4172H24.534V13.8935H25.1563V11.4172ZM25.1563 8.89328H22.0473V9.98948H22.5248V11.0849H25.1563V8.89328ZM18.6034 13.8935H19.2248V11.4172H18.6034V13.8935ZM21.2341 9.98866H21.7115V8.89328H18.6034V11.084H21.2341V9.98866ZM9.70698 32.7505H9.32423V34.4161C9.41971 33.8451 9.56294 33.3216 9.70698 32.7505ZM34.4338 22.513H30.0342V24.7505H34.4346L34.4338 22.513ZM32.4739 25.036V27.2744H36.8266L36.7789 25.036H32.4739ZM36.9221 29.8451L36.8266 27.6075H34.7219V29.8459L36.9221 29.8451ZM34.7696 17.7023V19.6075H36.6348L36.5871 17.7023H34.7696ZM29.6991 24.7505V22.5121L26.8297 22.5597C27.7913 23.2224 28.7028 23.9547 29.5567 24.7505H29.6991ZM32.1389 19.9407H27.3088V22.1782H32.1406V19.9407H32.1389ZM32.4739 22.1782H36.7311L36.6834 19.9407H32.5217V22.1782H32.4739ZM34.7704 22.5121V24.7497H36.7789L36.7311 22.5121H34.7704ZM34.4346 29.8443V27.6067H31.8994C32.3307 28.3206 32.7612 29.0828 33.0954 29.8451L34.4346 29.8443ZM37.0653 34.9872L37.0176 32.7489H34.7704V34.9872H37.0653ZM29.7 17.7023H25.0123V19.6075H29.7V17.7023ZM18.5079 22.5121C19.6076 21.9403 20.7081 21.4644 21.9033 21.1312C25.7778 22.6073 29.3172 25.1304 31.5174 28.7497C33.0485 31.4639 33.8609 34.5589 33.9564 37.6539H34.4832C34.4338 36.844 34.3869 36.035 34.2914 35.2728C33.6222 30.6541 31.3742 26.321 27.5952 23.5115C25.8255 22.2258 23.9125 21.2264 21.8555 20.5593C18.1251 21.8451 14.7766 23.9874 12.4801 27.2736L12.2414 27.6067C10.3846 30.6379 9.36195 34.1033 9.27649 37.6539H9.85021C10.042 34.0354 10.9507 30.4637 13.0547 27.4631C14.4902 25.4168 16.3554 23.7495 18.5079 22.5121ZM31.6615 27.2736H32.1389V25.0352H29.8918C30.5065 25.7615 31.0967 26.508 31.6615 27.2736ZM30.035 19.6075H34.4346V17.7023H30.035V19.6075ZM13.8193 25.0352H11.6199V27.2736H12.0504C12.5772 26.5113 13.1979 25.7499 13.8193 25.0352ZM6.83756 29.8443H8.99004V27.6067H6.88447L6.83673 29.8451L6.83756 29.8443ZM13.7255 22.5121H9.32341V24.7497H13.7239V22.5121H13.7255ZM6.9816 24.7497H8.99004V22.5121H7.02852L6.9816 24.7497ZM13.7255 17.7023H9.32341V19.6075H13.7239V17.7023H13.7255ZM8.99004 32.7489H6.7429L6.69351 34.9872H8.99004V32.7489ZM11.2866 25.036H6.9816L6.93386 27.2736H11.3335V25.0352H11.2857L11.2866 25.036ZM18.7474 17.7023H14.0605V19.6075H18.7474V17.7023ZM16.9299 22.5121H14.0605V24.7497H14.156C14.9811 23.8889 15.9133 23.1369 16.9299 22.5121ZM19.0824 19.6075H24.6789V17.7023H19.0816V19.6075M11.8578 27.6059H9.32258V29.8443H10.6618C11.0446 29.082 11.4273 28.3206 11.8578 27.6059ZM21.8539 20.1778C23.3849 20.7013 24.8666 21.3675 26.2544 22.1774H26.9721V19.9398H16.7859V22.1774H17.4551C18.8515 21.3671 20.3253 20.6973 21.8547 20.1778M7.17175 17.7023L7.124 19.6075H8.98922V17.7023H7.17175ZM16.4509 19.9407H11.6191V22.1782H16.4509V19.9407Z" fill="#FBFBF9"/>
<path d="M16.2114 40.9868C16.1636 40.8916 16.0681 40.7965 16.0204 40.7013C16.0681 40.7013 16.3077 40.7013 16.3554 40.6061C16.3589 40.7468 16.3072 40.8834 16.2114 40.9868ZM19.7508 37.7491C19.6553 37.5111 19.4166 37.2732 19.3203 37.0352C19.0816 37.3199 18.8429 37.6063 18.5548 37.8443C18.5548 37.8918 19.1771 37.7491 19.7508 37.7491ZM15.1594 41.3675C15.2071 41.2248 15.2549 41.1296 15.3504 40.9868C15.2071 41.0344 15.0639 41.082 14.9684 40.9868C14.9684 41.1296 15.0639 41.2724 15.1594 41.3675ZM18.4601 37.9394C18.3161 38.0346 18.2206 38.1298 18.0774 38.225C18.4861 38.3207 18.9116 38.3207 19.3203 38.225C19.0816 38.1298 18.6997 38.0346 18.4601 37.9394ZM28.0743 39.2728C28.0249 39.13 27.9302 38.9396 27.8348 38.8445C27.646 38.8948 27.4704 38.9741 27.308 39.0824C27.5467 39.13 27.8356 39.1776 28.0743 39.2728ZM10.5672 34.4637C10.6626 34.4637 10.8059 34.6065 10.8536 34.6541C10.8536 34.5589 10.8536 34.4161 10.9013 34.321C10.8059 34.3686 10.6626 34.4161 10.5672 34.4637ZM10.9499 35.7011C10.8539 35.8047 10.8022 35.9416 10.8059 36.0826C10.9013 36.035 11.0446 35.9874 11.1886 35.9874C11.0454 35.9398 10.9977 35.8447 10.9499 35.7011ZM23.6245 39.7962C23.4812 39.8914 23.3857 40.0342 23.2894 40.177C23.4335 40.177 23.5281 40.273 23.7199 40.3206C23.6245 40.1294 23.6722 39.939 23.6245 39.7962ZM13.7716 40.9868C13.6761 40.9392 13.5798 40.8916 13.4835 40.7965C13.4366 40.9392 13.4366 41.0344 13.4366 41.1772C13.5303 41.0866 13.6456 41.0211 13.7716 40.9868ZM13.1979 39.8914C13.1501 39.8914 13.1024 39.4631 13.1024 39.4631C12.9668 39.5548 12.8654 39.6887 12.8143 39.8438C12.9583 39.8438 13.053 39.8438 13.1979 39.8914ZM27.4034 34.8445C27.4989 35.1776 27.7376 35.4631 28.0249 35.6535C27.8817 35.2252 27.7368 34.8445 27.5944 34.4153C27.3557 33.9394 26.9252 33.5587 26.3984 33.4635C26.7812 33.8918 27.117 34.3677 27.4034 34.8445ZM22.0457 35.3204C22.6672 35.2252 23.1454 34.7493 22.4762 34.1306C22.5239 34.5589 22.3321 34.9872 22.0457 35.3204ZM21.2802 35.6059C21.9016 35.3679 22.5231 34.892 21.8062 34.1782C21.8062 34.7017 21.616 35.2252 21.2794 35.6059M20.6093 35.7487C21.0398 35.7487 21.7099 35.0348 21.0867 34.5113C21.0867 34.9872 20.9435 35.4155 20.6093 35.7487ZM32.3282 38.0346C32.3811 38.1338 32.4559 38.2196 32.5471 38.2855C32.6382 38.3515 32.7433 38.3959 32.8542 38.4153C32.711 38.5581 32.5192 38.6533 32.3274 38.7009C32.376 38.9872 32.5192 39.3679 32.5661 39.7019C32.6147 40.0342 32.4714 40.4157 31.85 40.4157C31.9058 40.6054 31.8887 40.809 31.8022 40.9868C31.7529 41.082 31.6105 41.1296 31.4672 41.082C31.4195 41.0344 31.3717 40.9868 31.3717 40.8916C31.3224 40.7013 31.3717 40.5109 31.4195 40.3197C30.989 40.4633 31.0845 40.8916 30.8927 41.082C30.7972 41.2248 30.6062 41.2724 30.4153 41.1772C30.3659 41.1296 30.319 41.1296 30.319 41.082C30.128 40.844 30.2235 40.3681 30.7964 40.3681C30.4144 40.2246 30.0309 40.1302 29.8885 40.6061C29.6975 40.5585 29.602 40.4633 29.5535 40.2721C29.602 39.4155 30.8458 40.3197 31.0845 39.7011C31.18 39.3679 31.1322 38.9872 30.8927 38.7009C30.6062 38.4153 30.2235 38.225 29.8407 38.1298C29.0752 37.987 28.406 37.5111 27.9755 36.8916C27.6754 36.3993 27.4043 35.8914 27.1623 35.3679C27.0224 35.0686 26.7994 34.8153 26.5199 34.6381C26.2403 34.4609 25.9157 34.3671 25.5843 34.3677C25.0264 34.4566 24.4906 34.6507 24.0056 34.9396L21.6621 36.1294C21.7576 36.273 21.8531 36.3673 21.9971 36.4633C21.709 36.4633 21.4703 36.4633 21.1839 36.3681C21.1839 36.5585 21.2316 36.7489 21.2794 36.9392C21.0876 36.9868 19.7006 37.1296 19.3178 36.8916C19.4141 36.7489 19.5096 36.6061 19.5565 36.4633C20.6579 36.4633 22.2358 35.9398 22.8573 35.0348C21.9008 35.7011 20.7995 36.0826 19.6529 36.2246C19.6529 35.9866 19.6529 35.7487 19.5574 35.5107C19.3664 37.082 17.5489 38.1298 16.4484 39.1292C16.9258 39.1292 17.4049 38.7009 17.8354 38.3677C17.9786 38.5581 18.1227 38.7493 18.3128 38.9396C18.1227 38.9872 17.8831 38.9396 17.6922 38.8445C17.204 39.1402 16.7098 39.4258 16.2097 39.7011C16.4484 40.3206 16.0179 40.6529 15.5397 40.1294C15.4442 40.3673 15.301 40.8432 14.9174 40.7965C14.44 40.7013 14.8697 40.0342 15.0137 39.8447C14.6309 39.939 14.3437 40.2721 14.3437 40.6537C13.6745 40.9868 13.3395 40.4633 13.5782 40.0818C13.6745 39.8914 13.9609 39.8914 14.2959 39.7487C13.9609 39.7011 13.6267 39.6059 13.3395 39.8914C13.1007 39.3204 13.6745 39.3204 14.1527 39.4155C14.8219 39.5107 15.1569 39.1776 15.5397 38.7017L16.3052 37.7007C16.9744 37.2724 17.4049 36.5585 17.5004 35.7487C17.7876 35.8447 18.1227 35.8923 18.4568 35.7971C18.2652 35.3968 18.2148 34.9438 18.3136 34.5113C18.4091 34.7969 18.6486 34.9872 18.9359 35.0824C19.1269 34.3686 19.7483 34.0822 20.0834 33.4635L20.2751 33.987C20.9913 33.5587 21.5658 32.94 21.8531 32.1778C22.0449 32.4157 22.3305 32.6061 22.6663 32.6061V32.1778C22.9536 32.3681 23.2878 32.4157 23.6228 32.4157L23.3347 31.9874C24.1965 31.8923 25.1044 31.7971 25.9663 31.7971C27.2092 31.7495 28.406 31.9398 29.5535 32.4633C30.128 32.7489 31.6582 33.2256 31.9455 32.2254C32.0887 31.6543 31.6574 31.3679 31.2277 31.0824C30.654 30.7969 30.0803 30.5113 29.5535 30.1782C29.602 30.083 29.6498 30.0354 29.6498 29.9403C30.4622 30.321 31.4672 30.6541 32.0887 31.3204C32.4237 31.7495 32.4237 32.3681 32.041 32.7489C31.5142 33.2732 30.6062 33.2248 29.9362 33.1304C30.319 33.3208 30.6062 33.6539 30.7495 34.0822C30.5585 34.0822 30.319 34.0346 30.128 33.987C30.0317 33.7491 29.8893 33.5587 29.7452 33.3684L29.793 33.6063C29.8407 33.987 29.8885 34.3677 29.8885 34.7493C29.8885 35.2728 29.9362 35.7962 29.984 36.3206C30.026 36.6156 30.1455 36.8943 30.3303 37.1285C30.5152 37.3626 30.7589 37.5439 31.0367 37.6539C31.2277 37.7015 31.4195 37.7491 31.5627 37.8443C31.7059 37.9394 31.7059 38.0346 31.7059 38.1774C31.6111 38.4331 31.597 38.7116 31.6654 38.9756C31.7338 39.2395 31.8815 39.4764 32.0887 39.6543C31.8975 39.2032 31.8475 38.7049 31.9455 38.225C32.041 37.9394 31.8977 37.6539 31.6105 37.5111C31.4195 37.4635 31.2277 37.3675 31.0367 37.3199C30.3667 37.0344 30.2712 36.4633 30.1757 35.8438C30.128 35.5107 30.1757 35.13 30.128 34.7969C30.128 34.5589 30.128 34.3677 30.0803 34.1298C30.2712 34.3677 30.5108 34.5589 30.7495 34.7493H30.2227C30.6062 35.0348 30.7972 35.2728 31.0845 35.5107C30.8927 35.5107 30.7017 35.4155 30.5577 35.3204C30.5095 35.5945 30.5187 35.8756 30.5847 36.146C30.6507 36.4164 30.7721 36.6702 30.9412 36.8916C31.2277 37.2248 31.5627 37.2248 31.9932 37.2724C32.4237 37.3199 32.1364 37.8443 32.8065 37.8443C32.7452 37.9084 32.6707 37.9587 32.5882 37.9915C32.5057 38.0244 32.417 38.0391 32.3282 38.0346ZM31.4195 41.3675L31.7059 41.6531C31.7059 41.5103 31.7537 41.4151 31.8022 41.2724C31.7529 41.3675 31.6105 41.4151 31.4195 41.3675ZM32.4714 40.8916C32.5669 40.7965 32.5669 40.6537 32.5669 40.5109C32.4714 40.6061 32.376 40.6537 32.2805 40.6537L32.4714 40.8916ZM11.8093 33.5111C11.7599 33.4159 11.5212 33.3684 11.5212 33.3684C11.5697 33.4635 11.5697 33.6063 11.6175 33.7015C11.5697 33.6063 11.713 33.5587 11.8093 33.5111ZM30.128 41.3199C30.128 41.4627 30.128 41.6055 30.2235 41.7483C30.319 41.6055 30.3667 41.6055 30.5108 41.5579C30.319 41.5579 30.1757 41.4627 30.128 41.3199ZM25.2493 41.4627C25.2971 41.6531 25.3448 41.7967 25.488 41.9386C25.5843 41.7958 25.6321 41.6531 25.7267 41.5103C25.5843 41.5579 25.3925 41.5579 25.2493 41.4627ZM26.4922 40.9392C26.5885 41.082 26.684 41.1772 26.7309 41.3199C26.875 41.1296 26.8273 41.1296 26.9236 40.9392C26.7839 40.9875 26.6319 40.9875 26.4922 40.9392ZM24.4361 41.3199C24.1974 41.2724 24.101 41.2248 24.0533 41.082C24.0056 41.2248 24.0056 41.4151 24.0056 41.5579C24.1965 41.4627 24.1965 41.3675 24.4361 41.3199ZM29.3625 40.5109C29.2193 40.6061 29.2193 40.7489 29.1715 40.844C29.267 40.7965 29.4102 40.844 29.5057 40.844C29.458 40.7489 29.4102 40.6061 29.3625 40.5109ZM27.3047 36.7013C26.2535 37.1296 26.684 38.0822 27.5434 38.2726C27.019 37.7491 26.8272 37.5111 27.3047 36.7013ZM27.6405 39.7011C27.2577 39.6059 26.875 39.6535 26.5408 39.8914C27.21 40.4157 26.8273 41.0344 26.0626 40.6053C25.9663 41.1772 25.5843 41.3684 25.3925 41.2724C24.9143 40.9392 25.3448 40.6537 25.5358 40.4633C25.3887 40.4646 25.2456 40.5109 25.1258 40.596C25.0061 40.6812 24.9156 40.801 24.8666 40.9392C24.3883 41.2724 24.0056 40.7965 24.1488 40.5109C24.2443 40.3681 24.4361 40.273 24.8188 40.3206C24.3883 39.9866 24.2451 40.0342 23.9578 40.2721C23.889 40.2023 23.8504 40.1083 23.8504 40.0104C23.8504 39.9125 23.889 39.8185 23.9578 39.7487C24.0009 39.7034 24.0528 39.6673 24.1103 39.6426C24.1678 39.6179 24.2298 39.6052 24.2924 39.6052C24.355 39.6052 24.417 39.6179 24.4745 39.6426C24.5321 39.6673 24.584 39.7034 24.627 39.7487C25.1061 39.9866 25.3925 39.9866 25.6798 39.5583C25.823 39.3204 25.9663 39.0824 26.0626 38.8445C26.2058 38.4153 25.9663 38.225 25.5843 38.0346C25.1061 37.7967 24.7233 37.4159 24.5307 36.8916C24.5793 36.4157 24.8188 35.9398 25.2493 35.6535C25.488 35.4155 25.6798 35.1776 25.823 34.892C26.684 34.9872 27.1145 36.0818 27.4973 36.9868C27.1145 37.6539 27.3541 37.8443 27.8323 38.2258C28.071 38.4153 28.071 38.5105 27.7845 38.6533C26.9713 38.9396 26.3013 39.6059 26.1103 40.4633C26.425 40.0073 26.7943 39.5913 27.21 39.2244L27.3532 39.3679C27.4973 39.4631 27.5911 39.5583 27.6405 39.7011ZM13.1007 36.273C13.244 36.4633 13.3872 36.6537 13.5782 36.844C13.5224 36.5456 13.4905 36.2433 13.4827 35.9398C13.2917 35.8914 13.1007 35.7963 13.0053 35.6059C13.6267 35.7487 14.5832 35.9398 15.3487 35.6059C15.3965 35.1776 15.2993 34.7493 15.3487 34.2726C14.5355 34.6541 13.6745 34.892 12.7657 34.9396C12.6217 34.892 12.527 34.892 12.4307 34.7493C12.3352 34.5589 12.2875 34.3201 12.2398 34.1298C12.1904 33.987 12.1434 33.8443 12.048 33.7015C11.9525 33.6539 11.5697 33.7967 11.6652 33.8918C11.857 34.1298 12.0002 34.4153 12.0002 34.7017C11.8603 34.5204 11.6792 34.3735 11.4734 34.2726C10.996 34.0822 10.996 34.6541 11.0915 34.9396C11.3302 34.8445 11.6183 34.892 11.857 34.9872C11.187 35.0824 10.9005 35.7962 11.4742 35.8438C11.713 35.7962 11.9517 35.7487 12.1434 35.6059C12.2398 36.4157 12.3822 36.5585 13.1007 36.273ZM22.9536 29.6063C22.9059 30.1306 22.8096 30.9396 23.431 31.13C23.2401 30.7493 23.1923 30.2734 23.1923 29.8451C23.0968 29.7967 23.0491 29.6531 22.9536 29.6063ZM16.1134 32.8925C16.0179 33.0828 15.9224 33.2732 15.8747 33.5111C16.0657 33.5587 16.2089 33.5111 16.4007 33.4635C16.3061 33.7557 16.2578 34.0607 16.2574 34.3677C17.023 34.4637 17.5004 33.7015 17.6922 33.0352C17.4041 33.4635 17.0221 33.7967 16.5916 33.987C16.6879 33.5587 16.8789 33.178 17.1184 32.7973C16.8789 32.94 16.6394 33.0828 16.3529 33.178C16.5916 32.7021 16.9744 32.273 17.4526 31.939C16.6871 32.035 16.5439 32.2262 16.1134 32.8925ZM17.9786 33.6539C17.3571 33.9394 16.9744 34.5589 16.8789 35.2252C16.7357 34.9872 16.5908 34.7493 16.4962 34.4637C16.3529 35.1776 16.4484 35.4631 17.0699 35.7011C17.1184 34.9396 17.4526 34.225 17.9786 33.6539ZM19.6051 30.6541C18.7919 31.0348 18.2659 31.8923 18.2659 32.7965C18.7923 32.5183 19.2755 32.1657 19.7006 31.7495L19.5574 32.273C19.9401 32.1778 20.2751 32.035 20.5616 31.7495C20.6572 32.1403 20.6572 32.5484 20.5616 32.9392C21.0884 32.1778 20.9443 31.9398 20.7534 31.0356C20.5147 31.2736 20.3706 31.6067 19.9879 31.7495L20.2751 30.5105C19.786 31.1472 19.2058 31.7089 18.5532 32.1778C18.7441 31.6067 19.3187 31.0824 19.6051 30.6541ZM19.9879 28.9876C19.7319 29.1732 19.5155 29.4078 19.3513 29.6775C19.1871 29.9473 19.0783 30.2469 19.0314 30.5589C20.0356 30.2258 20.7056 29.3692 20.8011 28.3206C20.5579 28.9329 20.1427 29.4622 19.6051 29.8451C19.7006 29.5587 19.8924 29.2732 19.9879 28.9876ZM20.6579 26.5113C20.8489 27.1308 20.6085 27.7503 20.1311 28.1302C20.5616 28.035 20.8489 27.8923 20.9443 27.4639C20.9921 27.1308 20.8966 26.7493 20.6579 26.5113ZM21.9971 25.3216C21.7777 25.3763 21.5772 25.4892 21.4171 25.6484C21.2569 25.8077 21.143 26.0072 21.0876 26.2258C21.2794 26.0354 21.5181 25.8451 21.8053 25.7499C21.8531 26.083 21.9008 26.3686 21.8531 26.7017C22.1404 26.321 22.2358 25.7507 21.9971 25.3216ZM21.6144 27.3212C21.7099 27.8923 21.5666 28.4641 21.2794 28.94C22.0926 28.7021 22.0926 27.8923 21.6144 27.3212ZM22.2358 28.6545C21.7127 29.1289 21.332 29.7388 21.1361 30.4161C21.0867 30.0354 21.0867 29.6063 21.1839 29.2264C20.6571 29.9878 20.7534 30.4161 21.0398 31.1776C21.4703 30.3686 21.8053 29.4635 22.2358 28.6545ZM18.6486 28.2254C19.1261 28.5117 19.9401 28.1778 19.3178 27.3688C19.4619 28.035 19.2224 28.1778 18.6486 28.2254ZM19.1754 26.1306C19.1754 26.2734 19.2224 26.4161 19.3178 26.4161C19.4139 26.4161 19.4619 26.321 19.4619 26.1306C19.4619 25.9403 19.4139 25.8451 19.3178 25.8451C19.2224 25.8927 19.1754 26.0354 19.1754 26.1306ZM16.0179 33.7015C15.7298 33.7491 15.3965 33.8442 15.1569 33.6539C15.4917 33.3684 15.7309 33.035 15.8747 32.6537C16.0271 32.2137 16.2908 31.8203 16.6402 31.5115C16.9267 31.3679 17.2139 31.2736 17.5004 31.13C17.4049 31.3204 17.1184 31.4639 16.9736 31.6059C18.1227 32.035 18.5532 31.6543 18.6964 30.7017C18.5952 30.8943 18.4528 31.0624 18.2793 31.1941C18.1057 31.3258 17.9053 31.4179 17.6922 31.4639C17.8831 31.1776 18.0272 30.8445 17.9786 30.5113C17.5489 30.7969 16.7834 31.4631 16.2574 31.1776C16.3529 31.1776 16.5916 30.9872 16.6879 30.9396C16.9744 30.7017 17.2617 30.5113 17.5967 30.3686C17.9786 30.2734 18.4091 30.1782 18.8396 30.1782C18.4577 30.083 18.0741 29.9878 17.7399 29.7967C18.2667 29.7015 18.6964 29.4159 19.0314 28.9876C19.9401 28.8925 20.2274 28.4157 20.2274 27.5107C20.0834 27.9398 20.0356 28.2254 19.7006 28.4641C19.4619 28.6069 19.1269 28.7021 18.8396 28.7021C18.3622 28.7973 17.8354 28.7973 18.0272 28.1302V28.0826C18.2659 28.1302 18.5532 28.1302 18.7927 28.1302C19.1746 28.0826 19.5574 27.9874 19.4619 27.5115C19.4141 27.3212 19.2232 27.1784 18.9837 27.1784C18.6956 27.226 18.4568 27.2736 18.1704 27.3212C18.0602 27.2522 17.9737 27.1514 17.9222 27.0323C17.8708 26.9132 17.8569 26.7813 17.8823 26.6541C17.9786 26.4161 18.2659 26.321 18.4577 26.2258C18.0272 26.083 17.8831 26.4161 17.6922 26.4161C17.6444 26.3686 17.6444 26.3686 17.6444 26.321C17.8354 26.1306 18.0749 25.9878 18.3136 25.8927C18.5523 25.7975 18.8404 25.7499 19.0791 25.7499C19.1746 25.7499 19.3178 25.7023 19.4141 25.6547C19.4619 25.8927 19.6529 26.0354 19.8916 26.083C19.6529 26.2734 19.5096 26.5589 19.4619 26.8445C19.7483 26.5113 20.0356 26.2258 20.4184 25.9878C20.4661 26.3686 19.9879 26.5589 19.7483 26.6541C20.5139 26.988 20.6579 26.4162 20.5138 25.9403C20.144 25.9021 19.786 25.7888 19.4619 25.6071C19.6051 25.5119 19.7483 25.4159 19.9393 25.3692C20.3229 25.2732 20.7534 25.3208 21.1361 25.4635C21.0867 25.6071 21.0867 25.7499 21.0867 25.8927C21.2286 25.7045 21.4084 25.548 21.6145 25.4332C21.8206 25.3183 22.0485 25.2476 22.2836 25.2256C22.4268 25.7015 22.3791 26.1782 22.2358 26.6541C22.4268 26.5113 22.5709 26.4161 22.6186 26.1782C22.8573 26.4161 23.096 26.6541 23.1923 26.988C23.3364 27.226 23.5273 27.4639 23.8146 27.5591C23.3364 27.9398 22.761 27.1308 22.5708 26.7969C22.6186 27.4164 22.7618 27.7495 23.3364 27.9398C23.5751 28.5117 23.5751 29.2256 24.1019 29.7967C23.1446 29.7015 23.0483 28.6545 22.5231 28.1778C22.4754 28.7021 22.2844 29.2256 22.0449 29.7015C22.3791 29.5587 22.6186 29.2732 22.7141 28.94C22.7618 29.0352 22.8096 29.178 22.8573 29.2732C22.7618 29.7967 22.5231 30.2734 22.1881 30.7017C22.0832 30.4454 22.0502 30.1654 22.0926 29.8918C21.9796 30.0945 21.9164 30.321 21.9081 30.5528C21.8998 30.7845 21.9467 31.015 22.0449 31.2252C22.3313 30.9872 22.5709 30.7493 22.761 30.4637L22.9997 30.9872C22.9997 31.3204 23.0968 31.6543 23.1923 31.939C23.0106 31.8046 22.8497 31.6443 22.7149 31.4631C22.6655 31.7011 22.5708 31.8923 22.5231 32.1302C22.2844 31.8923 22.0449 31.6543 21.9486 31.3204C21.8053 31.7495 21.6621 32.1778 21.4218 32.5593C21.2316 32.8916 20.9443 33.178 20.6093 33.4159C20.4661 32.9876 20.2751 32.6061 20.0825 32.1778V32.3682C19.856 32.4995 19.6474 32.6595 19.4619 32.844C19.5096 32.6061 19.5574 32.3681 19.7006 32.1778C18.9837 32.6061 19.1269 33.0828 19.2701 33.7491C19.5088 33.3208 19.7969 32.8916 20.0834 32.4633C20.0834 32.8916 19.8924 33.3208 19.6529 33.6539C19.3659 33.8918 19.1269 34.1777 18.9359 34.5113C18.7441 34.3202 18.6009 34.0354 18.4091 33.7975C18.1227 34.2734 18.0749 34.892 18.2181 35.4155C17.9377 35.3745 17.6734 35.2595 17.4526 35.0824C17.3571 35.7963 17.3094 36.5109 16.7357 37.082V36.6537C16.8312 36.0826 16.8789 35.7487 16.3529 35.3679C16.5916 35.8438 16.4962 36.3681 16.2097 36.7965C16.2982 36.2881 16.2652 35.7661 16.1134 35.2728L15.6829 35.5107C15.6352 35.1633 15.6352 34.8111 15.6829 34.4637C15.7654 34.1979 15.8778 33.9422 16.0179 33.7015ZM27.21 29.8451C27.4487 29.8451 27.6405 29.8918 27.88 29.9394C27.9755 29.7967 28.071 29.7015 28.215 29.6063L28.071 29.4635C27.906 29.4393 27.7374 29.4623 27.585 29.5299C27.4326 29.5974 27.3025 29.7067 27.21 29.8451ZM18.1227 27.7971C18.1704 27.7019 18.1704 27.6067 18.2659 27.5115C18.2216 27.5352 18.1721 27.5476 18.1218 27.5476C18.0716 27.5476 18.0221 27.5352 17.9778 27.5115L18.1227 27.7971ZM24.6748 27.7495C25.4403 28.5117 26.3968 29.0828 27.4487 29.3208C27.545 29.2732 27.6874 29.2256 27.7845 29.178C27.545 29.1304 27.3541 28.9876 27.1145 28.94C26.5519 28.7473 26.0201 28.4746 25.5358 28.1302C25.1855 27.9316 24.9026 27.6333 24.7233 27.2736C24.4846 26.9396 24.5793 26.4161 24.9143 26.1782C25.0294 26.0899 25.1686 26.0381 25.3136 26.0296C25.4586 26.0212 25.6028 26.0563 25.7276 26.1306C25.7753 26.083 25.823 25.9878 25.8708 25.9403C24.5315 25.3684 23.9093 26.9396 24.6748 27.7495ZM28.932 29.3208C28.7858 29.2461 28.6661 29.1284 28.5891 28.9837C28.5121 28.839 28.4816 28.6743 28.5015 28.5117C28.071 28.7021 28.071 29.178 28.597 29.5111L29.1715 29.7491C28.9797 29.7491 28.7888 29.7967 28.597 29.7967C28.2628 29.8442 27.88 30.2258 28.1665 30.6065C28.215 29.9878 29.0752 30.3686 29.3625 29.9878C29.5057 29.7015 29.0744 29.4635 28.932 29.3208ZM15.301 35.9874C14.966 36.035 14.6787 36.0826 14.3437 36.035C14.6309 36.1778 14.9182 36.273 15.2047 36.3681C15.2047 36.2254 15.2532 36.1302 15.301 35.9874ZM12.4307 36.7013C12.2398 36.6537 12.2398 36.6537 12.192 36.5109C12.1642 36.5808 12.1541 36.6563 12.1624 36.731C12.1707 36.8057 12.1973 36.8772 12.2398 36.9392C12.2875 36.7489 12.3352 36.7965 12.4307 36.7013ZM15.827 36.4633C15.875 36.2596 15.875 36.0476 15.827 35.8438L15.2524 36.3681C15.4442 36.4157 15.6352 36.4633 15.827 36.4633ZM14.2004 36.0826L13.579 35.9874C13.6745 36.3206 13.9609 36.6061 14.2951 36.7489V36.6537C14.2482 36.4633 14.2004 36.273 14.2004 36.0826ZM26.4453 25.9878C26.3013 26.0354 26.1572 26.1782 26.0626 26.321C26.0148 26.5589 26.1103 26.8445 26.0148 27.0832C26.3013 27.0356 26.4453 26.6073 26.5408 26.3694C26.5408 26.892 26.684 27.3688 27.0182 27.7495C26.9713 27.4164 26.875 27.0832 26.7795 26.7493C27.162 27.2252 27.6405 27.5588 28.215 27.7503V27.7019C27.88 27.3212 27.545 26.9396 27.1145 26.6541C27.4973 26.7969 28.1187 27.0832 28.5492 26.7493C28.1707 26.661 27.8132 26.4993 27.4973 26.2734C27.1145 26.0354 26.875 25.7975 26.4453 25.9878ZM30.4622 14.2266V16.4174H33.2361V15.2736H32.7587V14.2258L30.4622 14.2266ZM34.6239 35.3204C34.7194 36.0826 34.8149 36.8916 34.8149 37.6539H37.1114L37.062 35.3204H34.6239ZM28.313 14.5597H27.0693V16.4642H28.3122V14.5597M29.6037 8.56015V11.3696H37.2563V8.56015H35.8693V10.2266H34.0996V8.56097H32.7126V10.2266H30.9429V8.56097L29.6037 8.56015ZM7.07544 22.1782H11.3327V19.9407H7.17175L7.07544 22.1782ZM36.3953 11.7503H30.4647V13.9411H32.8089V12.5126H34.0519V13.9403H36.3961L36.3953 11.7503ZM10.5688 30.1782H6.83673L6.78899 32.4157H9.80164C9.99426 31.6543 10.233 30.892 10.5672 30.1782H10.5688ZM6.64659 37.6531H8.94312V37.5587C8.99004 36.7965 9.03778 36.0818 9.18183 35.3204H6.69351L6.64659 37.6531ZM33.5753 40.844H37.6884V37.987H33.6707L33.5753 40.844ZM6.02513 40.844H10.186L10.0428 37.987H5.97656V40.844H6.02513ZM16.3554 14.5597H15.1125V16.4642H16.3554V14.5597ZM36.9229 30.1782H33.2403C33.5753 30.892 33.814 31.6543 34.0058 32.4157H36.9707L36.9229 30.1782ZM34.4354 32.7489H34.1012C34.2445 33.2248 34.34 33.7015 34.4354 34.1774V32.7489ZM34.0535 15.2744H33.5753V16.4174H36.3492V14.2266H34.0058L34.0535 15.2744ZM17.8379 5.70312V8.51256H25.921V5.70312H24.4854V7.418H22.6202V5.74989H21.137V7.41636H19.2717V5.75071H17.837L17.8379 5.70312ZM10.9038 15.2744H10.4248V16.4174H13.1987V14.2266H10.8544L10.903 15.2744M37.3526 17.3692L37.5436 16.7505H6.26301L6.4548 17.3692H37.3526ZM7.31497 14.2266V16.4174H10.0889V15.2736H9.6115V14.2258L7.31497 14.2266ZM13.1987 11.7503H7.31497V13.9411H9.65924V12.5126H10.9022V13.9403H13.2464V11.7503H13.1987ZM6.40624 8.56015V11.4172H14.0597V8.60774H12.7205V10.2742H10.9507V8.60856H9.56211V10.2742H7.79239V8.60856H6.40706L6.40624 8.56015ZM18.6034 16.465H21.6646V14.2266H18.6025L18.6034 16.465ZM25.1555 14.2266H21.9996V16.465H25.1571V14.2266H25.1555ZM24.199 11.4172H22.5264V12.7505H21.2827V11.4172H19.6084V13.8935H24.1998L24.199 11.4172ZM25.1563 11.4172H24.534V13.8935H25.1563V11.4172ZM25.1563 8.89328H22.0473V9.98948H22.5248V11.0849H25.1563V8.89328ZM18.6034 13.8935H19.2248V11.4172H18.6034V13.8935ZM21.2341 9.98866H21.7115V8.89328H18.6034V11.084H21.2341V9.98866ZM9.70698 32.7505H9.32423V34.4161C9.41971 33.8451 9.56294 33.3216 9.70698 32.7505ZM34.4338 22.513H30.0342V24.7505H34.4346L34.4338 22.513ZM32.4739 25.036V27.2744H36.8266L36.7789 25.036H32.4739ZM36.9221 29.8451L36.8266 27.6075H34.7219V29.8459L36.9221 29.8451ZM34.7696 17.7023V19.6075H36.6348L36.5871 17.7023H34.7696ZM29.6991 24.7505V22.5121L26.8297 22.5597C27.7913 23.2224 28.7028 23.9547 29.5567 24.7505H29.6991ZM32.1389 19.9407H27.3088V22.1782H32.1406V19.9407H32.1389ZM32.4739 22.1782H36.7311L36.6834 19.9407H32.5217V22.1782H32.4739ZM34.7704 22.5121V24.7497H36.7789L36.7311 22.5121H34.7704ZM34.4346 29.8443V27.6067H31.8994C32.3307 28.3206 32.7612 29.0828 33.0954 29.8451L34.4346 29.8443ZM37.0653 34.9872L37.0176 32.7489H34.7704V34.9872H37.0653ZM29.7 17.7023H25.0123V19.6075H29.7V17.7023ZM18.5079 22.5121C19.6076 21.9403 20.7081 21.4644 21.9033 21.1312C25.7778 22.6073 29.3172 25.1304 31.5174 28.7497C33.0485 31.4639 33.8609 34.5589 33.9564 37.6539H34.4832C34.4338 36.844 34.3869 36.035 34.2914 35.2728C33.6222 30.6541 31.3742 26.321 27.5952 23.5115C25.8255 22.2258 23.9125 21.2264 21.8555 20.5593C18.1251 21.8451 14.7766 23.9874 12.4801 27.2736L12.2414 27.6067C10.3846 30.6379 9.36195 34.1033 9.27649 37.6539H9.85021C10.042 34.0354 10.9507 30.4637 13.0547 27.4631C14.4902 25.4168 16.3554 23.7495 18.5079 22.5121ZM31.6615 27.2736H32.1389V25.0352H29.8918C30.5065 25.7615 31.0967 26.508 31.6615 27.2736ZM30.035 19.6075H34.4346V17.7023H30.035V19.6075ZM13.8193 25.0352H11.6199V27.2736H12.0504C12.5772 26.5113 13.1979 25.7499 13.8193 25.0352ZM6.83756 29.8443H8.99004V27.6067H6.88447L6.83673 29.8451L6.83756 29.8443ZM13.7255 22.5121H9.32341V24.7497H13.7239V22.5121H13.7255ZM6.9816 24.7497H8.99004V22.5121H7.02852L6.9816 24.7497ZM13.7255 17.7023H9.32341V19.6075H13.7239V17.7023H13.7255ZM8.99004 32.7489H6.7429L6.69351 34.9872H8.99004V32.7489ZM11.2866 25.036H6.9816L6.93386 27.2736H11.3335V25.0352H11.2857L11.2866 25.036ZM18.7474 17.7023H14.0605V19.6075H18.7474V17.7023ZM16.9299 22.5121H14.0605V24.7497H14.156C14.9811 23.8889 15.9133 23.1369 16.9299 22.5121ZM19.0824 19.6075H24.6789V17.7023H19.0816V19.6075M11.8578 27.6059H9.32258V29.8443H10.6618C11.0446 29.082 11.4273 28.3206 11.8578 27.6059ZM21.8539 20.1778C23.3849 20.7013 24.8666 21.3675 26.2544 22.1774H26.9721V19.9398H16.7859V22.1774H17.4551C18.8515 21.3671 20.3253 20.6973 21.8547 20.1778M7.17175 17.7023L7.124 19.6075H8.98922V17.7023H7.17175ZM16.4509 19.9407H11.6191V22.1782H16.4509V19.9407Z" fill="#FBFBF9"/>
<path d="M60.3339 6.76111C60.3339 15.1246 59.235 17.4401 57.2743 17.4401C57.1311 17.4401 56.9393 17.4401 56.7969 17.3933V16.1174H56.9393C58.7082 16.1174 58.9 12.9986 58.9 5.43762H64.9714V17.4401H63.5844V6.76111H60.3339ZM68.7479 12.9986H70.2295C71.186 12.9986 71.712 13.7068 71.712 14.6052C71.712 15.5037 71.3292 16.2585 70.2303 16.2585H68.7487L68.7479 12.9986ZM73.0504 14.7463C73.1459 13.2341 71.9507 11.9582 70.4213 11.8639H68.7956V8.22573H67.5058V17.4401H70.3744C71.856 17.4401 73.0504 16.2118 73.0504 14.7463ZM77.4014 13.1398C78.2616 13.1398 78.7399 13.8487 78.7399 14.6988C78.7399 15.7868 78.2131 16.2585 77.3529 16.2585H75.7758V13.1406L77.4014 13.1398ZM77.2097 9.3129C77.8789 9.26449 78.4526 9.69034 78.5003 10.3517V10.6356C78.5003 11.3437 77.9266 11.9582 77.2097 11.9582H75.7758V9.26449L77.2097 9.3129ZM74.4851 17.4384H77.2574C78.5497 17.4384 80.126 16.5416 80.126 14.9351C80.126 13.4696 79.2658 12.7607 78.4057 12.572C79.3136 12.2413 79.935 11.3904 79.8873 10.4452C79.8873 9.2169 78.7876 8.27085 77.2574 8.27085H74.5328V17.4393L74.4851 17.4384ZM83.2333 8.17814H81.9418V17.4417H83.2333V8.17814ZM83.3765 6.24091C83.3775 6.13458 83.3572 6.02914 83.3166 5.93079C83.2761 5.83245 83.2162 5.74321 83.1404 5.66833C83.0647 5.59345 82.9747 5.53446 82.8757 5.49483C82.7767 5.45521 82.6708 5.43575 82.5641 5.43762C82.4128 5.43553 82.2644 5.47864 82.1379 5.56142C82.0115 5.64419 81.9128 5.76283 81.8546 5.90203C81.8164 5.99436 81.7973 6.09345 81.7986 6.19332V6.24091C81.7986 6.66675 82.1336 7.04419 82.5641 7.04419C82.7247 7.04572 82.882 6.99946 83.0161 6.91131C83.1501 6.82317 83.2547 6.69716 83.3165 6.54942C83.3562 6.4514 83.3766 6.34664 83.3765 6.24091ZM88.6355 13.1398C89.4965 13.1398 89.9739 13.8487 89.9739 14.6988C89.9739 15.7868 89.4488 16.2585 88.5878 16.2585H87.0098V13.1406L88.6355 13.1398ZM88.4915 9.3129C89.1615 9.26449 89.7352 9.69034 89.7821 10.3517V10.6356C89.7821 11.3437 89.2092 11.9582 88.4915 11.9582H87.0576V9.26449H88.4915V9.3129ZM85.7669 17.4393H88.54C89.8307 17.4393 91.4086 16.5424 91.4086 14.9359C91.4086 13.4704 90.5476 12.7615 89.6875 12.5728C90.5954 12.2421 91.2177 11.3913 91.1699 10.446C91.1699 9.21773 90.0694 8.27167 88.54 8.27167H85.8146V17.4417L85.7669 17.4393ZM98.5789 10.8251C98.3402 9.26449 97.48 8.03701 95.7111 8.03701C93.2245 8.03701 92.6993 10.3993 92.6993 12.8567C92.6993 15.219 93.2245 17.6296 95.7111 17.6296C97.48 17.6296 98.3402 16.4005 98.5789 14.8415C98.5789 14.8415 97.8628 14.6528 97.2882 14.5109C97.0973 15.5972 96.7145 16.4481 95.7111 16.4481C94.2287 16.4481 93.99 14.6052 93.99 12.7623C93.99 10.9195 94.2287 9.17096 95.7111 9.17096C96.7145 9.17096 97.0973 10.021 97.2882 11.1082L98.5789 10.8251ZM101.448 12.9986H102.93C103.886 12.9986 104.412 13.7068 104.412 14.6052C104.412 15.5037 104.029 16.2585 102.93 16.2585H101.448V12.9986ZM105.702 14.7463C105.798 13.2341 104.603 11.9582 103.073 11.8639H101.448V8.22573H100.157V17.4401H103.025C104.508 17.4401 105.702 16.2594 105.702 14.7463ZM107.185 17.4401H108.475V13.1865H109.48C109.814 13.1865 110.148 13.4229 110.388 13.9906L111.104 16.0222C111.169 16.4307 111.378 16.8026 111.694 17.0711C112.009 17.3396 112.411 17.4871 112.826 17.4869C113.017 17.4869 113.161 17.4869 113.352 17.4393V16.3053C113.256 16.3521 113.208 16.3521 113.113 16.3521C112.635 16.3053 112.3 15.9271 112.204 15.502L111.631 13.7059C111.439 13.1398 110.961 12.7139 110.34 12.5728C110.866 12.3824 111.249 12.005 111.392 11.4856L111.917 10.1621C112.109 9.64275 112.395 9.40562 112.826 9.40562H113.161V8.27332C113.017 8.22573 112.826 8.22573 112.682 8.22573C111.917 8.22573 111.201 8.69834 110.914 9.40726L110.1 11.3445C109.958 11.7695 109.575 12.0526 109.097 12.1002H108.427V8.27332H107.136L107.185 17.4401ZM118.849 13.7068C118.849 15.1722 118.42 16.4473 117.033 16.4473C116.028 16.4473 115.694 15.7392 115.694 14.7948C115.694 12.8091 117.033 12.7623 118.849 12.7623V13.7068ZM116.746 17.582C117.75 17.582 118.324 17.3457 119.04 16.165C119.375 17.1094 119.854 17.4877 120.523 17.4877C120.666 17.4877 120.857 17.4877 121.001 17.4401V16.3053C120.905 16.3053 120.857 16.3521 120.761 16.3521C120.283 16.3521 120.188 16.0222 120.188 15.4553V11.0606C120.188 8.69752 118.993 8.03619 117.463 8.03619C116.028 8.03619 115.311 8.74429 114.786 10.0678L115.981 10.3984C116.22 9.73711 116.555 9.16932 117.415 9.16932C118.372 9.16932 118.849 9.5008 118.849 11.013V11.7219H117.846C115.502 11.7219 114.356 12.8559 114.356 14.8875C114.356 16.4464 115.168 17.582 116.746 17.582ZM65.8801 23.4413H64.5878L61.8155 28.9232L59.0432 23.4421H57.7517V32.6565H59.044V29.5377C59.044 28.782 58.9477 26.419 58.8522 25.7576L61.3381 30.6725H62.1982L64.6841 25.7576C64.5886 26.4657 64.4931 28.782 64.4931 29.5377V32.6557H65.7838V23.4413H65.8801ZM69.5603 23.4413H68.2697V32.6557H69.5603V23.4413ZM69.6558 21.4573C69.657 21.2975 69.6099 21.1411 69.5206 21.0084C69.4313 20.8756 69.3041 20.7727 69.1553 20.7131C69.056 20.673 68.9497 20.6527 68.8426 20.6532C68.4129 20.6532 68.0301 21.0307 68.0301 21.4573C68.0301 21.8823 68.4129 22.2598 68.8434 22.2598C69.0037 22.2608 69.1608 22.2145 69.2947 22.1265C69.4286 22.0386 69.5334 21.9131 69.5957 21.7658C69.6355 21.6678 69.6559 21.5631 69.6558 21.4573ZM77.3521 26.0407C77.1142 24.4817 76.254 23.2058 74.4851 23.2058C71.9984 23.2058 71.4733 25.5681 71.4733 28.0263C71.4733 30.3878 71.9984 32.7976 74.4851 32.7976C76.2532 32.7976 77.1142 31.5701 77.3529 30.0095C77.3529 30.0095 76.6368 29.8208 76.063 29.6789C75.8712 30.766 75.4885 31.6169 74.4843 31.6169C73.0026 31.6169 72.7639 29.774 72.7639 27.9312C72.7639 26.0883 73.0026 24.3398 74.4843 24.3398C75.4885 24.3398 75.8712 25.1898 76.0622 26.277L77.3521 26.0407ZM80.317 28.2151H81.7986C82.7559 28.2151 83.2811 28.9232 83.2811 29.8208C83.2811 30.7184 82.8991 31.475 81.7994 31.475H80.3178L80.317 28.2151ZM84.5725 29.9628C84.668 28.4505 83.472 27.1747 81.9427 27.0803H80.317V23.4413H79.0263V32.6557H81.8949C83.3765 32.6557 84.5725 31.4758 84.5725 29.9628ZM85.911 32.6565H87.2016V28.4038H88.205C88.54 28.4038 88.8742 28.6401 89.1138 29.2079L89.8307 31.2395C89.8952 31.648 90.104 32.0201 90.4194 32.2888C90.7348 32.5575 91.1361 32.7051 91.551 32.7049C91.7428 32.7049 91.8861 32.7049 92.0778 32.6573V31.5217C91.9815 31.5693 91.9338 31.5693 91.8383 31.5693C91.617 31.5266 91.4113 31.4251 91.2431 31.2754C91.0749 31.1258 90.9503 30.9336 90.8827 30.7193L90.3089 28.9232C90.0694 28.3562 89.592 27.9303 89.0183 27.7892C89.5442 27.6005 89.9262 27.2231 90.0694 26.702L90.5954 25.3785C90.7872 24.8592 91.0736 24.6237 91.5033 24.6237H91.8383V23.4873C91.6951 23.4397 91.5033 23.4397 91.3609 23.4397C90.5954 23.4397 89.8784 23.9123 89.592 24.6212L88.7787 26.5584C88.6355 26.9835 88.2528 27.2674 87.7753 27.315H87.1053V23.4889H85.8146V32.6565H85.911ZM97.5755 28.9232C97.5755 30.3886 97.1928 31.6637 95.7589 31.6637C94.7555 31.6637 94.4205 30.9564 94.4205 30.0095C94.4205 28.0255 95.7589 27.9779 97.5755 27.9779V28.9232ZM95.4716 32.8452C96.4758 32.8452 97.0495 32.6089 97.7187 31.4282C98.0538 32.3726 98.5312 32.7509 99.2012 32.7509C99.3444 32.7509 99.5354 32.7509 99.6794 32.7033V31.571C99.5831 31.571 99.5354 31.6177 99.4399 31.6177C98.9617 31.6177 98.8662 31.2871 98.8662 30.7209V26.3262C98.8662 23.9632 97.671 23.3018 96.1416 23.3018C94.7069 23.3018 93.99 24.0099 93.464 25.3334L94.6592 25.6641C94.8979 25.0028 95.2329 24.4358 96.0939 24.4358C97.0495 24.4358 97.5278 24.7664 97.5278 26.2787V26.9868H96.5236C94.1809 26.9868 93.0343 28.1215 93.0343 30.1531C93.0821 31.7129 93.8945 32.8469 95.4716 32.8469M59.0432 43.2879C59.0432 41.5394 59.2819 39.6497 60.8121 39.6497C62.3423 39.6497 62.6757 41.5878 62.6757 43.2879C62.6757 44.9896 62.39 46.8784 60.8121 46.8784C59.2342 46.8784 59.0432 45.084 59.0432 43.2879ZM57.7517 50.5658H59.044V46.9277C59.2565 47.2576 59.5449 47.5321 59.8853 47.7285C60.226 47.9254 60.6096 48.0403 61.0039 48.0616C63.4412 48.0616 64.0149 45.6985 64.0149 43.2887C64.0149 40.8789 63.4412 38.469 61.0031 38.469C60.0952 38.469 59.4729 39.036 58.9477 39.7449L58.6127 38.6577H57.7517V50.5658ZM69.8468 44.1396C69.8468 45.6042 69.4171 46.8801 68.0301 46.8801C67.0259 46.8801 66.6917 46.172 66.6917 45.2268C66.6917 43.2411 68.0301 43.1943 69.8468 43.1943V44.1396ZM67.7437 48.0616C68.7479 48.0616 69.3216 47.8253 69.9908 46.6446C70.3258 47.5882 70.8041 47.9673 71.4724 47.9673C71.6157 47.9673 71.8075 47.9673 71.9507 47.9205V46.739C71.8552 46.739 71.8075 46.7857 71.712 46.7857C71.2346 46.7857 71.1374 46.4551 71.1374 45.8873V41.4926C71.1374 39.1303 69.9439 38.469 68.4129 38.469C66.8827 38.469 66.2612 39.1771 65.7361 40.5006L66.9312 40.8321C67.1699 40.1699 67.505 39.6021 68.3651 39.6021C69.3216 39.6021 69.799 39.9336 69.799 41.4458V42.1539H68.7948C66.453 42.1539 65.3056 43.2887 65.3056 45.3211C65.3533 46.9277 66.1657 48.0616 67.7437 48.0616ZM74.6752 46.739C75.5362 45.3211 75.7758 43.667 75.9182 39.8384H78.2608V46.739H74.6752ZM74.6752 38.6569C74.6752 43.5258 74.3419 45.7929 73.2891 46.739L72.7639 46.8333V49.9513H73.7673L73.9591 47.8729H79.2181L79.4091 49.9521H80.4125V46.739H79.5515V38.6569H74.6752ZM86.0542 44.1396C86.0542 45.6042 85.6714 46.8801 84.2375 46.8801C83.2333 46.8801 82.8991 46.172 82.8991 45.2268C82.8991 43.2411 84.2375 43.1943 86.0542 43.1943V44.1396ZM83.9025 48.0616C84.9059 48.0616 85.4805 47.8253 86.1974 46.6446C86.5316 47.5882 87.0098 47.9673 87.6799 47.9673C87.8231 47.9673 88.0141 47.9673 88.1573 47.9205V46.739C88.0618 46.739 88.014 46.7857 87.9186 46.7857C87.4403 46.7857 87.3448 46.4551 87.3448 45.8873V41.4926C87.3448 39.1303 86.1497 38.469 84.6203 38.469C83.1856 38.469 82.4686 39.1771 81.9427 40.5006L83.137 40.8321C83.3765 40.1699 83.7116 39.6021 84.5725 39.6021C85.5282 39.6021 86.0064 39.9336 86.0064 41.4458V42.1539H85.0022C82.6596 42.1539 81.5122 43.2887 81.5122 45.3211C81.5599 46.9277 82.3731 48.0616 83.9025 48.0616Z" fill="#2E2D2D"/>
</g>
<defs>
<clipPath id="clip0_4017_744">
<rect width="121" height="56" fill="white"/>
</clipPath>
</defs>
</svg>
