<svg width="382" height="56" viewBox="0 0 382 56" fill="none" xmlns="http://www.w3.org/2000/svg">
<g clip-path="url(#clip0_4091_1228)">
<path fill-rule="evenodd" clip-rule="evenodd" d="M71.0777 14.448C71.7671 14.3905 72.4452 14.3099 73.1231 14.3214C73.2839 14.3214 73.5253 14.6435 73.5598 14.8391C73.8241 16.0585 74.0423 17.2779 74.2492 18.5087C74.6743 21.0166 75.0765 23.5129 75.4901 26.0206C75.5935 26.5843 75.7084 27.171 75.8349 27.7002C75.911 27.9268 76.007 28.1463 76.1221 28.356C76.2929 28.0611 76.4315 27.7486 76.5357 27.424C76.8459 25.4915 77.1331 23.5588 77.4434 21.6148C77.7881 19.4636 78.1559 17.3124 78.5006 15.1728C78.5123 15.0642 78.5469 14.9593 78.6023 14.865C78.6576 14.7708 78.7323 14.6895 78.8214 14.6264C78.9105 14.5633 79.012 14.5199 79.1191 14.499C79.2262 14.4782 79.3366 14.4804 79.4429 14.5055C79.9369 14.5055 80.523 14.5055 80.5919 15.2303C80.7758 16.6107 80.9941 17.9911 81.2238 19.36C81.5455 21.2926 81.9133 23.2368 82.2465 25.1694C82.3729 25.8942 82.4762 26.6303 82.6141 27.3551C82.6946 27.6602 82.7944 27.9599 82.9129 28.2524C83.7057 27.7923 83.6483 27.0445 83.7517 26.4348C84.2229 23.3748 84.625 20.3033 85.0731 17.2319C85.1651 16.6222 85.3029 16.0125 85.4293 15.4028C85.442 15.2779 85.4798 15.1569 85.5403 15.047C85.6008 14.9371 85.683 14.8406 85.7816 14.7633C85.8804 14.6858 85.9938 14.6293 86.1149 14.5969C86.2359 14.5644 86.3624 14.5569 86.4865 14.5745C88.1297 14.5745 88.1526 14.3905 87.9458 16.1275C87.7389 17.8646 87.4171 19.7281 87.1643 21.5342C87.038 22.4891 86.9691 23.4438 86.8428 24.3987C86.6703 25.7446 86.4749 27.102 86.3026 28.4479C86.1302 29.7938 85.9693 31.4503 85.7856 32.9458C85.6476 34.0962 85.4523 35.1201 85.3145 36.2014C85.1191 37.5819 84.9237 38.9622 84.7858 40.3427C84.6824 41.332 84.3952 41.6426 83.384 41.6542C81.7525 41.6542 81.6949 41.6541 81.4306 40.0667L80.1553 32.014C80.0633 31.3928 79.9943 30.7832 79.868 30.1735C79.7657 29.8237 79.6389 29.4816 79.4887 29.1497H79.2935C79.213 29.4948 79.1096 29.8284 79.0521 30.1735C78.6385 32.4742 78.2477 34.8324 77.8341 37.1678C77.6158 38.3871 77.3975 39.6065 77.1217 40.8143C76.9034 41.8036 76.0532 41.5046 75.3982 41.5276C75.2731 41.5508 75.1444 41.5468 75.0209 41.5157C74.8976 41.4847 74.7823 41.4273 74.6831 41.3476C74.5838 41.2679 74.5029 41.1677 74.4459 41.0539C74.3889 40.94 74.3569 40.8152 74.3524 40.6879C74.1916 39.5374 73.9618 38.3871 73.8125 37.1678C73.5482 35.028 73.3528 32.8768 73.0886 30.7372C72.6635 27.217 72.2153 23.6969 71.7787 20.1768C71.5718 18.5662 71.3765 16.9557 71.1697 15.3338C71.1461 15.2398 71.1072 15.1505 71.0547 15.0692L71.0777 14.448Z" fill="#2E2D2D"/>
<path fill-rule="evenodd" clip-rule="evenodd" d="M155.968 30.1972C155.968 29.1734 155.968 28.161 155.968 27.1373C155.968 24.664 155.876 22.1906 155.842 19.7173C155.842 18.2334 155.842 16.738 155.842 15.2425C155.842 14.6213 156.084 14.4026 156.704 14.4257C159.266 14.4832 158.944 14.2531 158.921 16.7264C158.921 18.5555 158.818 20.3731 158.818 22.2022C158.818 23.6631 158.898 25.124 158.898 26.5966C158.898 27.7469 158.83 28.8053 158.83 29.9096C158.83 31.8768 158.83 33.8323 158.83 35.7879C158.83 37.318 158.76 38.848 158.726 40.3895C158.738 40.4928 158.728 40.5975 158.695 40.696C158.661 40.7945 158.606 40.8842 158.532 40.9584C158.46 41.0324 158.371 41.0891 158.273 41.1241C158.175 41.159 158.071 41.1715 157.968 41.1603C157.002 41.1027 156.531 41.1603 156.071 40.1249C155.313 38.3533 154.543 36.5932 153.774 34.8217C153.418 34.0164 153.026 33.2342 152.693 32.4059C152.153 31.037 151.648 29.645 151.108 28.2647C150.913 27.7929 150.648 27.3444 150.339 26.7347C150.199 27.0452 150.097 27.1603 150.108 27.2638C150.108 28.4141 150.199 29.5646 150.188 30.6574C150.178 31.7502 150.097 33.1421 150.062 34.3845C150.062 34.7641 150.062 35.1438 150.062 35.5348C150.062 37.249 149.993 38.986 149.924 40.6885C149.924 41.3788 149.326 41.7239 148.442 41.6319C148.328 41.6319 148.212 41.5628 148.097 41.5513C147.029 41.4823 146.845 41.1717 146.879 40.0558C146.879 38.2037 146.879 36.3516 146.879 34.4881C146.879 32.8545 146.879 31.2211 146.879 29.5875C146.879 27.9539 146.879 26.5505 146.879 24.9861C146.879 23.9393 146.959 22.8809 146.971 21.8341C146.971 19.5908 146.971 17.3361 147.052 15.0815C147.051 14.9177 147.1 14.7576 147.19 14.6213C147.557 14.0576 149.396 14.1381 149.625 14.7593C150.326 16.6344 150.97 18.5326 151.636 20.4191C151.867 21.0978 152.096 21.7765 152.36 22.4437C153.257 24.7981 154.164 27.1564 155.084 29.5185C155.227 29.7877 155.396 30.0421 155.59 30.2778L155.923 30.1972" fill="#2E2D2D"/>
<path fill-rule="evenodd" clip-rule="evenodd" d="M120.787 40.1227C120.787 38.7654 120.787 37.4078 120.787 36.0504C120.787 35.1187 120.902 34.1869 120.879 33.2666C120.879 32.1162 120.706 31.0693 120.672 29.965C120.672 29.3093 120.752 28.6421 120.775 27.9748C120.775 26.9626 120.775 25.9617 120.775 24.9609C120.775 23.7415 120.879 22.5337 120.879 21.3257C120.879 20.1179 120.798 18.6454 120.787 17.2995C120.775 16.4652 120.821 15.6311 120.925 14.8032C120.977 14.6535 121.066 14.5198 121.185 14.4149C121.304 14.3102 121.448 14.2379 121.603 14.205C122.175 14.1704 122.749 14.2286 123.303 14.3776C123.418 14.4426 123.517 14.5337 123.59 14.6436C123.664 14.7534 123.711 14.8789 123.728 15.0103C123.797 16.8164 123.82 18.611 123.866 20.417C123.837 20.5574 123.837 20.7022 123.866 20.8426C123.958 21.0382 124.085 21.2797 124.257 21.3488C124.429 21.4178 124.659 21.2107 124.751 21.0612C125.521 19.7958 126.279 18.5304 127.049 17.242C127.428 16.5862 127.796 15.9075 128.118 15.2174C128.287 14.8438 128.589 14.5464 128.964 14.3828C129.34 14.2192 129.763 14.2009 130.151 14.3316C131.381 14.5156 131.507 14.8032 130.944 15.9421C130.381 17.0809 129.899 18.2427 129.37 19.3932C129.139 19.9868 128.874 20.5667 128.577 21.1303C128.086 21.9906 127.806 22.9555 127.76 23.9454C127.714 24.9355 127.903 25.9222 128.313 26.8245C129.014 28.7801 129.462 30.8162 130.128 32.7949C130.611 34.3364 131.209 35.8549 131.703 37.3964C132.07 38.5467 132.369 39.6971 132.656 40.8475C132.656 40.9739 132.461 41.2961 132.323 41.3191C131.708 41.4206 131.084 41.4591 130.462 41.4341C130.314 41.4076 130.175 41.3485 130.054 41.2608C129.933 41.1732 129.832 41.0594 129.761 40.928C129.439 40.1342 129.198 39.3174 128.945 38.5008C128.612 37.4078 128.29 36.315 127.945 35.2222C127.417 33.5197 126.877 31.8286 126.325 30.1261C126.134 29.4318 125.876 28.7576 125.555 28.1129C125.371 27.7794 124.9 27.5838 124.567 27.3192C124.349 27.6873 123.947 28.0439 123.924 28.412C123.809 30.3102 123.74 32.2082 123.74 34.1063C123.74 36.0044 123.843 37.9831 123.889 39.9388C123.889 41.3191 123.705 41.5492 122.349 41.6297C120.994 41.7103 120.752 41.4687 120.729 40.1342" fill="#2E2D2D"/>
<path fill-rule="evenodd" clip-rule="evenodd" d="M90.601 41.4697C90.5774 41.1404 90.5774 40.8099 90.601 40.4804C90.9113 38.3408 91.2446 36.2241 91.5548 34.0959C91.7731 32.6235 91.957 31.151 92.1753 29.69C92.451 27.8265 92.7498 25.9629 93.037 24.1108C93.3703 22.0516 93.6805 20.0039 94.0596 17.9563C94.2348 16.9652 94.4963 15.9913 94.8411 15.0459C94.9487 14.8626 95.0932 14.7036 95.2653 14.5788C95.4373 14.4541 95.6332 14.3664 95.8407 14.3212C96.4327 14.2575 97.0297 14.2575 97.6217 14.3212C97.8642 14.2977 98.1065 14.3682 98.2987 14.5179C98.4911 14.6676 98.6188 14.8853 98.6559 15.1263C98.9431 16.3918 99.2649 17.6457 99.5061 18.9111C99.8394 20.6481 100.104 22.3622 100.391 24.1337C100.759 26.3539 101.103 28.5741 101.471 30.7829C101.747 32.4164 102.08 34.0269 102.344 35.6605C102.609 37.2939 102.815 38.9735 103.045 40.63C103.043 40.8993 103.024 41.1683 102.988 41.4353C102.229 41.4353 101.46 41.5618 100.69 41.5273C100.545 41.4869 100.413 41.4126 100.303 41.3104C100.193 41.2084 100.109 41.0817 100.058 40.9406C99.874 40.2044 99.8278 39.4336 99.6441 38.6398C99.4939 37.9685 99.2784 37.3134 99.0005 36.6842C98.8385 36.39 98.5898 36.153 98.2882 36.0055C97.8783 35.8028 97.4276 35.6962 96.9705 35.6939C96.5133 35.6915 96.0616 35.7935 95.6496 35.9919C95.2376 36.1904 94.8762 36.4801 94.5927 36.8393C94.3093 37.1984 94.1113 37.6175 94.0138 38.0646C93.8184 38.9735 93.5771 39.8707 93.3703 40.7795C93.3472 40.9738 93.2513 41.1519 93.1021 41.2778C92.9527 41.4039 92.761 41.4683 92.566 41.4582H90.5781L90.601 41.4697ZM94.91 30.3458C94.91 31.1165 94.91 31.8067 95.7602 32.2094C96.0701 32.3925 96.4231 32.4891 96.7829 32.4891C97.1427 32.4891 97.4959 32.3925 97.8056 32.2094C98.0936 32.0273 98.318 31.7601 98.4477 31.4447C98.5773 31.1294 98.606 30.7816 98.5294 30.4493C98.4031 29.3564 98.2307 28.275 98.0584 27.1822C97.7941 25.4107 97.5184 23.6276 97.2196 21.856C97.2196 21.6605 96.9208 21.5109 96.7714 21.3384C96.5875 21.5109 96.2658 21.6719 96.2315 21.879C95.7718 24.686 95.3466 27.4928 94.91 30.3112" fill="#2E2D2D"/>
<path fill-rule="evenodd" clip-rule="evenodd" d="M171.471 40.836C170.024 42.5846 166.278 41.9174 165.22 39.4785C164.857 38.6248 164.647 37.7135 164.601 36.7867C164.508 35.3027 164.601 33.8072 164.601 32.3233C164.601 30.6092 164.601 28.8722 164.531 27.1812C164.531 26.2034 164.601 25.2255 164.601 24.2592C164.601 23.638 164.52 23.0053 164.601 22.3842C164.564 20.5251 164.844 18.6734 165.428 16.9083C165.673 16.1914 166.099 15.549 166.661 15.0417C167.224 14.5346 167.906 14.1793 168.645 14.0094C169.797 13.7789 170.991 13.8745 172.092 14.2856C172.857 14.722 173.466 15.3907 173.827 16.1952C174.455 17.5529 174.647 19.0718 174.379 20.5435C174.287 21.4408 173.23 21.1647 172.701 21.2912C172.587 21.3365 172.465 21.3531 172.342 21.3396C172.22 21.3259 172.104 21.2825 172.003 21.2132C171.902 21.1438 171.819 21.0507 171.763 20.942C171.706 20.8332 171.677 20.7122 171.679 20.5896C171.679 19.9453 171.437 19.3126 171.437 18.68C171.437 17.7596 170.967 17.3801 170.081 17.2074C169.662 17.1839 169.246 17.2921 168.892 17.5169C168.538 17.7419 168.263 18.072 168.104 18.4614C167.891 19.1726 167.761 19.906 167.714 20.6471C167.714 23.1433 167.829 25.6397 167.898 28.1244C167.898 28.8377 167.898 29.5509 167.898 30.2642C167.956 32.6684 168.013 35.0727 168.104 37.4768C168.134 37.8298 168.29 38.16 168.544 38.4073C168.797 38.6545 169.13 38.802 169.484 38.8229C169.857 38.8348 170.226 38.7306 170.54 38.5246C170.852 38.3188 171.093 38.0211 171.23 37.6724C171.392 37.1346 171.481 36.5774 171.495 36.0159C171.52 34.8641 171.478 33.7117 171.368 32.5648C171.287 31.9436 170.645 31.6561 169.977 31.748C169.312 31.8401 169.104 31.748 169.104 31.0118V30.5057C169.104 29.3553 169.335 29.1943 170.46 29.2633C171.201 29.2843 171.942 29.2536 172.679 29.1712C172.898 29.1337 173.124 29.1454 173.338 29.2056C173.552 29.2659 173.751 29.3731 173.919 29.5194C174.087 29.6658 174.22 29.8477 174.31 30.0521C174.399 30.2565 174.443 30.4782 174.436 30.7012C174.436 32.7719 174.436 34.8656 174.436 36.9477C174.436 38.0291 174.436 39.1219 174.436 40.2148C174.436 40.836 174.355 41.2501 173.597 41.2156C173.248 41.2653 172.894 41.2922 172.54 41.2962C172.19 41.1834 171.855 41.0289 171.541 40.836" fill="#2E2D2D"/>
<path fill-rule="evenodd" clip-rule="evenodd" d="M111.261 19.2686C111.261 21.2359 111.261 23.2144 111.261 25.1701C111.261 26.4585 111.1 27.7353 111.112 29.0237C111.112 31.0599 111.226 33.1076 111.272 35.1437C111.272 35.7649 111.272 36.3861 111.272 37.0189C111.272 37.9506 111.663 38.3073 112.594 38.3073H114.743C114.85 38.2909 114.96 38.2976 115.064 38.3268C115.169 38.3559 115.266 38.407 115.35 38.4765C115.434 38.546 115.501 38.6326 115.549 38.7303C115.597 38.8279 115.624 38.9347 115.627 39.0435C115.69 39.7054 115.69 40.3718 115.627 41.0335C115.627 41.2406 115.11 41.5282 114.823 41.5397C113.226 41.5397 111.629 41.5397 110.02 41.4822C108.756 41.4822 108.227 40.9991 108.193 39.7107C108.193 38.2382 108.193 36.7543 108.193 35.2703C108.193 32.3714 108.193 29.5184 108.193 26.585C108.193 25.3196 108.193 24.0542 108.193 22.7889C108.193 20.235 108.155 17.6851 108.078 15.1388C108.078 14.5522 108.48 14.4716 108.871 14.4141C109.325 14.3568 109.784 14.3568 110.238 14.4141C110.755 14.4716 111.215 14.7247 111.215 15.3459C111.215 16.6803 111.215 18.0033 111.215 19.3147L111.261 19.2686Z" fill="#2E2D2D"/>
<path fill-rule="evenodd" clip-rule="evenodd" d="M140.561 16.7003V25.6156C140.561 27.6058 140.561 29.596 140.561 31.586V37.6945C140.561 38.6724 140.561 39.6502 140.561 40.628C140.561 41.1686 140.32 41.3527 139.815 41.3296H138.804C137.575 41.3296 137.655 41.2492 137.528 40.1103C137.391 38.5228 137.425 36.9123 137.402 35.3132C137.378 33.7142 137.402 32.2647 137.402 30.7118C137.402 29.5614 137.516 28.4111 137.516 27.2606C137.516 26.1103 137.414 24.7874 137.391 23.545C137.391 22.5903 137.391 21.6354 137.391 20.6806C137.391 19.7258 137.391 18.725 137.391 17.7587C137.391 16.7923 137.391 16.0907 137.471 15.2624C137.467 15.1529 137.486 15.0438 137.528 14.9428C137.571 14.8418 137.635 14.7513 137.715 14.6777C137.797 14.6042 137.893 14.5495 137.998 14.5174C138.103 14.4851 138.213 14.4764 138.321 14.4917C138.747 14.4917 139.183 14.4917 139.62 14.4917C140.056 14.4917 140.447 14.8023 140.493 15.2969C140.539 15.7916 140.493 16.2632 140.493 16.7463L140.561 16.7003Z" fill="#2E2D2D"/>
<path fill-rule="evenodd" clip-rule="evenodd" d="M263.696 41.6194C262.858 41.3864 262.041 41.0902 261.248 40.7336C260.524 40.3159 259.928 39.7085 259.523 38.9768C259.117 38.2452 258.92 37.4168 258.95 36.5807C258.789 34.0845 258.846 31.5767 258.846 29.0804C258.846 26.0089 258.846 22.9375 258.939 19.8774C259.007 18.0599 259.191 16.1618 260.799 14.8964C261.404 14.399 262.12 14.0574 262.887 13.9011C263.654 13.7449 264.446 13.7789 265.197 14.0002C265.947 14.2214 266.632 14.6233 267.191 15.1704C267.751 15.7177 268.168 16.3938 268.407 17.1396C268.677 18.0767 268.786 19.0533 268.729 20.027C268.729 21.8791 268.729 23.7427 268.729 25.6062C268.786 27.8495 268.992 30.0926 268.947 32.3359C268.901 34.5792 269.348 37.156 267.867 39.2381C267.218 39.9746 266.486 40.6312 265.684 41.1938C265.512 41.3454 265.33 41.4876 265.143 41.6194H263.696ZM261.891 33.9349C261.891 34.6707 261.95 35.4054 262.064 36.1322C262.195 36.7318 262.467 37.2917 262.857 37.7656C263.132 38.0647 263.891 38.3639 264.097 38.2143C264.626 37.8232 265.557 37.7887 265.58 36.8223C265.58 35.0048 265.752 33.1757 265.752 31.3581C265.752 27.8035 265.752 24.2488 265.648 20.6942C265.614 19.9226 265.529 19.1541 265.396 18.3936C265.382 18.2181 265.333 18.0472 265.251 17.8907C265.171 17.7343 265.06 17.5954 264.925 17.482C264.791 17.3686 264.636 17.2831 264.468 17.2303C264.3 17.1774 264.123 17.1583 263.948 17.1741C263.645 17.2346 263.359 17.3555 263.104 17.5295C262.85 17.7034 262.633 17.9269 262.467 18.1865C262.108 18.8511 261.918 19.5939 261.914 20.3492C261.914 24.9506 261.914 29.552 261.914 33.981" fill="#2E2D2D"/>
<path fill-rule="evenodd" clip-rule="evenodd" d="M341.831 25.1706C341.439 26.689 341.095 28.219 340.681 29.703C340.214 31.3881 339.162 32.8517 337.717 33.8328C337.363 34.0603 336.975 34.231 336.567 34.339C334.431 34.9373 334.028 35.4893 334.039 37.6635C334.039 38.5609 334.039 39.4466 333.937 40.3439C333.833 41.2412 333.293 41.4943 332.041 41.4137C331.225 41.4137 331.202 40.804 331.213 40.2634C331.213 37.2034 331.352 34.132 331.363 31.0604C331.363 28.4492 331.271 25.8378 331.271 23.2264C331.271 21.3974 331.35 19.5683 331.42 17.7393C331.384 16.9252 331.473 16.1103 331.685 15.3235C331.826 15.0569 332.022 14.8229 332.259 14.6366C332.496 14.4503 332.771 14.316 333.062 14.2421C334.161 13.9975 335.303 14.0337 336.383 14.3474C337.464 14.661 338.447 15.2419 339.245 16.0367C340.305 17.1603 340.999 18.5808 341.233 20.109C341.462 21.1098 341.647 22.1107 341.854 23.1114L341.831 25.1706ZM334.12 23.8476V24.791C334.189 26.5165 334.236 28.2421 334.338 29.9791C334.338 30.5888 334.753 31.049 335.385 30.6578C336.065 30.2734 336.663 29.7571 337.142 29.1394C338.341 27.2967 338.835 25.0825 338.532 22.9044C338.462 21.2096 337.913 19.5698 336.947 18.1763C336.745 17.8493 336.43 17.6072 336.061 17.495C335.694 17.3829 335.299 17.4083 334.948 17.5666C334.716 17.7458 334.528 17.9736 334.394 18.2341C334.262 18.4946 334.188 18.7813 334.177 19.0737C334.086 20.6611 334.177 22.2601 334.177 23.8476" fill="#2E2D2D"/>
<path fill-rule="evenodd" clip-rule="evenodd" d="M294.717 41.6196C293.667 41.1813 292.678 40.609 291.775 39.917C290.258 38.4216 290.178 36.3395 290.097 34.3378C290.097 34.1193 290.097 33.9237 290.097 33.705C290.097 33.0263 290.178 32.4741 291.063 32.4397C292.362 32.4397 292.695 32.5892 292.833 33.59C292.97 34.5909 293.119 35.4996 293.303 36.443C293.352 36.8247 293.535 37.1766 293.819 37.4358C294.104 37.6951 294.471 37.8446 294.854 37.8579C295.287 37.9576 295.74 37.8956 296.13 37.6837C296.519 37.4719 296.818 37.1246 296.969 36.7076C297.946 34.2457 297.728 30.553 294.992 28.7815C293.636 27.9075 292.423 26.8287 291.396 25.5835C289.65 23.4093 289.914 20.8094 290.408 18.2441C290.562 17.2077 291.038 16.246 291.768 15.4946C292.498 14.7434 293.445 14.2405 294.475 14.0568C294.973 13.9154 295.494 13.8815 296.004 13.9574C296.516 14.0332 297.006 14.217 297.44 14.4966C297.875 14.7763 298.245 15.1452 298.527 15.5792C298.808 16.0131 298.994 16.5019 299.071 17.0132C299.19 17.6932 299.251 18.382 299.256 19.0723C299.283 19.3338 299.242 19.5978 299.136 19.8382C299.029 20.0786 298.863 20.287 298.651 20.4428C298.44 20.5987 298.191 20.6965 297.931 20.7264C297.67 20.7564 297.406 20.7176 297.164 20.6138C296.899 20.5334 296.693 20.1997 296.509 19.9468C296.325 19.6937 296.429 19.6246 296.406 19.452C296.221 17.7725 295.935 17.3239 295.015 17.3123C294.096 17.3008 293.212 18.3132 292.947 19.475C292.269 22.5234 293.854 24.4332 296.153 25.9516C297.576 26.7975 298.733 28.0244 299.497 29.4939C300.26 30.9633 300.598 32.6171 300.474 34.2687C300.358 35.842 300.022 37.3912 299.474 38.8703C299.16 39.5433 298.696 40.1357 298.119 40.6023C297.542 41.0687 296.865 41.3971 296.142 41.5621L294.717 41.6196Z" fill="#2E2D2D"/>
<path fill-rule="evenodd" clip-rule="evenodd" d="M203.947 30.4493C203.464 32.612 203.004 34.7746 202.499 36.9372C202.211 38.1682 201.832 39.3761 201.522 40.5954C201.349 41.3087 200.832 41.2397 200.304 41.2397C199.776 41.2397 199.293 41.2397 199.155 40.515C198.799 38.8585 198.408 37.2134 198.005 35.5799C197.627 34.1189 197.202 32.6579 196.776 31.197C196.776 31.0245 196.592 30.8634 196.236 30.7368C196.121 32.4624 196.03 34.1879 195.903 35.9365C195.777 37.6851 195.674 39.0424 195.466 40.5379C195.294 41.8263 194.214 41.3547 193.468 41.3892C192.72 41.4237 192.709 40.7564 192.732 40.2388C192.904 37.1674 193.112 34.0959 193.249 31.0359C193.364 28.5627 193.33 26.0779 193.479 23.593C193.651 20.8437 193.938 18.0943 194.26 15.3565C194.262 15.1074 194.356 14.8675 194.522 14.6831C194.69 14.4987 194.919 14.3825 195.168 14.357C195.415 14.3313 195.663 14.3979 195.865 14.5442C196.067 14.6904 196.207 14.9059 196.259 15.1494C196.822 17.1395 197.259 19.1642 197.73 21.1773C198.363 23.8231 198.982 26.4805 199.637 29.1378C199.788 29.5939 199.969 30.0397 200.177 30.4722C200.546 29.9816 200.855 29.4487 201.097 28.8847C201.637 26.6645 202.097 24.4329 202.625 22.2127C203.154 19.9925 203.774 17.6112 204.337 15.391C204.475 14.8043 204.739 14.3672 205.486 14.4362C205.636 14.4304 205.784 14.4569 205.922 14.5138C206.061 14.5704 206.186 14.6562 206.288 14.7652C206.39 14.8742 206.468 15.004 206.516 15.1456C206.563 15.2874 206.581 15.4376 206.566 15.5865C206.716 17.9793 206.899 20.372 207.049 22.7647C207.233 25.8248 207.428 28.8962 207.566 31.9677C207.692 34.7285 207.738 37.5009 207.842 40.2619C207.842 41.2512 207.371 41.5157 206.475 41.4813C205.578 41.4467 204.969 41.1476 204.935 40.1008C204.866 37.6774 204.769 35.254 204.648 32.8305C204.648 32.0482 204.475 31.289 204.383 30.5298H204.004" fill="#2E2D2D"/>
<path fill-rule="evenodd" clip-rule="evenodd" d="M236.01 30.1146C236.01 28.481 236.01 26.836 236.01 25.2024C236.01 21.9125 236.011 18.6108 235.918 15.3093C235.918 14.7112 236.171 14.5501 236.723 14.527C239.021 14.4466 239.021 14.4466 239.021 16.7703C239.021 21.5098 239.021 26.2493 238.929 30.9889C238.929 33.8647 238.929 36.7406 238.802 39.628C238.802 40.0421 238.516 40.7783 238.228 40.7783C237.562 40.9625 236.734 41.0314 236.355 40.1688C235.573 38.4431 234.793 36.7177 234.057 34.9806C233 32.4727 232 29.9419 230.955 27.4226C230.81 27.1611 230.641 26.9144 230.449 26.6864C230.383 26.9549 230.337 27.228 230.311 27.5032C230.311 31.3455 230.311 35.1876 230.311 39.0068C230.28 39.5207 230.214 40.0318 230.116 40.5369C230.124 40.6057 230.124 40.6751 230.116 40.7439C229.812 41.0445 229.426 41.2478 229.007 41.3277C228.587 41.4076 228.153 41.3606 227.76 41.1926C227.427 40.997 227.266 40.3873 227.186 39.9386C227.151 39.3871 227.151 38.8338 227.186 38.2821C227.186 35.5903 227.06 32.8985 227.071 30.2296C227.082 27.5607 227.186 24.8114 227.255 22.0965C227.255 19.8877 227.357 17.6676 227.461 15.4474C227.461 15.0793 227.795 14.4006 227.944 14.412C228.633 14.412 229.576 13.8598 229.955 14.8722C230.644 16.6783 231.208 18.5189 231.873 20.3364C233.023 23.3619 234.172 26.3873 235.321 29.4013C235.453 29.667 235.62 29.9143 235.815 30.1375L236.103 30.08" fill="#2E2D2D"/>
<path fill-rule="evenodd" clip-rule="evenodd" d="M316.276 18.8433C316.276 21.7192 316.276 24.5952 316.276 27.4595C316.276 31.4168 316.276 35.3741 316.345 39.3314C316.382 39.6598 316.332 39.9924 316.195 40.2939C316.059 40.5952 315.845 40.8541 315.573 41.0429C315.302 41.2318 314.985 41.3434 314.655 41.3662C314.326 41.3889 313.996 41.3217 313.703 41.1718C313.568 41.0887 313.456 40.976 313.371 40.8424C313.288 40.7088 313.236 40.5579 313.22 40.4012C313.116 39.0208 313.093 37.6288 313.036 36.2483C313.036 35.4661 312.966 34.6723 312.921 33.8786C312.84 32.7283 312.415 32.3831 311.082 32.3256C309.933 32.2681 309.164 32.7283 309.106 33.6486C309.003 35.0289 309.037 36.4094 309.026 37.7898C309.026 38.7216 309.026 39.6649 308.945 40.5852C308.889 40.742 308.797 40.8827 308.675 40.995C308.552 41.1074 308.405 41.1878 308.244 41.2295C306.084 41.5401 305.945 41.4365 305.945 39.2853C305.945 37.5368 305.945 35.8342 305.945 34.0396C305.945 30.3815 305.945 26.7233 305.945 23.0651C305.945 20.5458 306.083 18.0381 306.049 15.5188C306.049 14.2764 306.739 14.3683 307.589 14.3683C308.439 14.3683 309.06 14.541 309.048 15.5992C309.048 19.407 309.048 23.2147 309.048 27.0109C309.048 27.8392 309.117 28.6674 310.014 29.001C310.312 29.1779 310.649 29.2772 310.996 29.29C311.342 29.3027 311.686 29.2287 311.997 29.0743C312.308 28.92 312.576 28.6904 312.775 28.4063C312.974 28.1223 313.1 27.7929 313.139 27.448C313.207 23.7899 313.207 20.1432 313.243 16.485C313.22 16.2095 313.22 15.9324 313.243 15.6567C313.426 14.4489 313.782 14.2533 315.311 14.3683C316.322 14.4489 316.276 15.1622 316.265 15.8754V18.8893L316.276 18.8433Z" fill="#2E2D2D"/>
<path fill-rule="evenodd" clip-rule="evenodd" d="M278.023 14.2742C278.81 14.2232 279.597 14.3545 280.324 14.6577C281.051 14.9609 281.699 15.428 282.216 16.0227C283.148 17.1085 283.841 18.3784 284.251 19.7499C285.173 23.0692 285.028 26.5947 283.837 29.827C283.528 30.6438 282.907 31.3456 282.551 32.1278C282.238 32.7095 282.095 33.367 282.137 34.0259C282.47 35.993 282.952 37.9372 283.401 39.8928C283.549 40.5484 283.78 41.2156 282.78 41.3998C281.332 41.6528 280.701 41.3308 280.482 40.3299C280.229 38.8459 279.987 37.3389 279.609 35.8895C279.526 35.6287 279.387 35.39 279.2 35.1907C279.013 34.9916 278.784 34.8372 278.529 34.7392C277.724 34.578 277.552 35.2337 277.518 35.947C277.518 37.3964 277.276 38.8459 277.264 40.2955C277.264 41.0086 277.001 41.2272 276.368 41.2042H276.162C274.047 41.2042 274.426 41.3883 274.403 39.4441C274.403 35.4523 274.278 31.4491 274.242 27.4573C274.242 26.3069 274.38 25.1566 274.403 23.9372C274.403 21.6365 274.403 19.3357 274.403 17.035C274.403 14.5502 274.772 14.2281 277.954 14.2511L278.023 14.2742ZM277.23 24.6044H277.334C277.334 26.3415 277.334 28.0555 277.334 29.8041C277.334 30.9544 277.862 31.242 278.781 30.6438C279.562 30.163 280.222 29.5097 280.712 28.7342C281.573 26.9888 281.9 25.0282 281.654 23.0974C281.618 21.0952 280.792 19.1888 279.356 17.7942C279.178 17.6473 278.972 17.5395 278.751 17.4781C278.529 17.4166 278.297 17.4028 278.069 17.4376C277.781 17.5182 277.482 18.1163 277.461 18.496C277.31 20.5321 277.253 22.5683 277.162 24.6044" fill="#2E2D2D"/>
<path fill-rule="evenodd" clip-rule="evenodd" d="M216.583 35.2452V35.7629C216.583 38.3512 216.918 37.776 218.882 37.9715C219.457 38.029 220.031 38.052 220.628 38.1441C220.8 38.1441 221.099 38.3512 221.099 38.4776C221.208 39.3067 221.166 40.1488 220.974 40.9624C220.87 41.2846 219.882 41.3881 219.285 41.4111C217.986 41.4802 216.676 41.4111 215.366 41.4111C214.055 41.4111 213.551 41.02 213.459 39.7546C213.366 38.4893 213.379 37.0627 213.366 35.7168C213.366 33.255 213.286 30.8047 213.298 28.3545C213.298 25.3865 213.379 22.4186 213.424 19.4506C213.424 18.6338 213.424 17.8172 213.424 17.0004C213.504 15.2173 214.252 14.3201 215.975 14.2049C217.354 14.113 218.755 14.2049 220.158 14.2049C221.307 14.2049 221.307 15.0448 221.307 15.7924C221.307 16.5403 221.375 17.311 220.283 17.3685C219.548 17.3685 218.813 17.564 218.09 17.5525C216.939 17.5525 216.562 18.3003 216.562 19.2321C216.562 22.1157 216.634 25.0107 216.78 27.9173C216.78 28.2509 217.238 28.5961 217.549 28.8721C217.759 28.9884 217.999 29.0403 218.238 29.0217C220.444 29.1138 220.537 29.3323 220.238 31.5985C220.146 32.1852 219.893 32.4497 219.272 32.3693C218.856 32.3175 218.436 32.3175 218.02 32.3693C216.939 32.4957 216.549 32.9905 216.572 34.0948V35.1417" fill="#2E2D2D"/>
<path fill-rule="evenodd" clip-rule="evenodd" d="M247.608 29.459V19.1057C247.608 17.7137 247.079 17.219 245.642 17.2421C244.379 17.2421 244.275 17.104 244.171 15.7121C244.091 14.6422 244.688 14.5043 245.517 14.5618C248.147 14.5618 250.791 14.6538 253.421 14.5618C254.743 14.5618 254.479 15.505 254.571 16.1952C254.663 16.8855 254.237 17.3456 253.525 17.4952C250.836 17.9668 250.882 17.9554 250.893 20.7507C250.893 24.3054 250.836 27.8715 250.813 31.4261C250.813 34.026 250.813 36.6143 250.813 39.2141C250.813 39.8008 250.71 40.3644 250.641 40.9626C250.641 41.0662 250.573 41.2388 250.526 41.2388C249.724 41.3363 248.915 41.3363 248.113 41.2388C247.837 41.2388 247.527 40.4219 247.527 39.9848C247.527 37.1664 247.527 34.3595 247.527 31.5526C247.527 30.8624 247.527 30.1606 247.527 29.4705L247.608 29.459Z" fill="#2E2D2D"/>
<path fill-rule="evenodd" clip-rule="evenodd" d="M322.206 25.815C322.206 22.5134 322.206 19.2234 322.206 15.9218C322.206 15.0245 322.367 14.4724 323.458 14.5183C325.159 14.5759 325.263 14.5183 325.274 15.8758C325.274 21.0984 325.274 26.3326 325.274 31.5553C325.274 33.9135 325.378 36.2717 325.412 38.63C325.42 39.2506 325.37 39.8707 325.263 40.4821C325.263 40.6891 324.952 40.8616 324.768 41.0343C324.585 41.2068 324.642 41.0343 324.573 41.0343C322.619 40.9652 322.275 41.5749 322.275 38.8716C322.356 35.4895 322.206 32.0959 322.148 28.7024C322.148 27.7361 322.148 26.7582 322.148 25.7919L322.206 25.815Z" fill="#2E2D2D"/>
<path d="M28.7264 23.1706C32.7221 23.1706 42.0178 14.7041 42.4997 14.255C37.7895 10.7953 32.8052 8.05078 28.7264 8.05078C24.6476 8.05078 19.5886 10.7953 14.9531 14.255C15.435 14.7041 24.7224 23.1706 28.7264 23.1706Z" fill="#2E2D2D"/>
<path d="M23.8498 28.0553C23.8498 24.0466 15.3849 14.7484 14.9528 14.2578C9.55969 18.392 4.55463 23.0102 0 28.0553C4.55836 33.094 9.56308 37.7092 14.9528 41.8444C15.3932 41.3536 23.8498 32.0556 23.8498 28.0553Z" fill="#2E2D2D"/>
<path d="M28.7264 32.9297C24.7307 32.9297 15.435 41.3961 14.9531 41.8452C19.63 45.305 24.6393 48.0494 28.7264 48.0494C32.8135 48.0494 37.8228 45.305 42.4997 41.8452C42.0178 41.3961 32.7221 32.9297 28.7264 32.9297Z" fill="#2E2D2D"/>
<path d="M42.4985 14.2578C42.0582 14.7402 33.6016 24.0466 33.6016 28.0553C33.6016 32.0639 42.0582 41.3619 42.4985 41.8444C47.8862 37.7067 52.8906 33.0917 57.4515 28.0553C52.8945 23.0127 47.8896 18.3944 42.4985 14.2578Z" fill="#2E2D2D"/>
</g>
<defs>
<clipPath id="clip0_4091_1228">
<rect width="382" height="56" fill="white"/>
</clipPath>
</defs>
</svg>
