<svg width="40" height="40" viewBox="0 0 40 40" fill="none" xmlns="http://www.w3.org/2000/svg">
<path d="M15.8333 16.6667C19.055 16.6667 21.6667 14.055 21.6667 10.8333C21.6667 7.61168 19.055 5 15.8333 5C12.6117 5 10 7.61168 10 10.8333C10 14.055 12.6117 16.6667 15.8333 16.6667Z" stroke="#28694D" stroke-width="2" stroke-linecap="round" stroke-linejoin="round"/>
<path d="M26.6641 13.332L31.6641 18.332L36.6641 13.332" stroke="#28694D" stroke-width="2" stroke-linecap="round" stroke-linejoin="round"/>
<path d="M3.33594 33.9987V34.9987H28.3359V33.9987C28.3359 30.265 28.3359 28.3982 27.6094 26.9721C26.9702 25.7177 25.9503 24.6978 24.6959 24.0586C23.2698 23.332 21.4029 23.332 17.6693 23.332H14.0026C10.2689 23.332 8.4021 23.332 6.976 24.0586C5.72159 24.6978 4.70171 25.7177 4.06256 26.9721C3.33594 28.3982 3.33594 30.265 3.33594 33.9987Z" stroke="#28694D" stroke-width="2" stroke-linecap="round" stroke-linejoin="round"/>
</svg>
