<svg width="40" height="40" viewBox="0 0 40 40" fill="none" xmlns="http://www.w3.org/2000/svg">
<path d="M24.6849 29.1636C23.5748 33.4766 19.6596 36.6636 15 36.6636C9.47717 36.6636 5 32.1865 5 26.6636C5 22.6278 7.39078 19.1503 10.8333 17.5703" stroke="#28694D" stroke-width="2" stroke-linecap="round" stroke-linejoin="round"/>
<path d="M15 10L16.6667 25L29.1667 24.1667L31.6667 33.3333H34.1667" stroke="#28694D" stroke-width="2" stroke-linecap="round" stroke-linejoin="round"/>
<path d="M18.3307 6.66536C18.3307 8.50628 16.8383 9.9987 14.9974 9.9987C13.1565 9.9987 11.6641 8.50628 11.6641 6.66536C11.6641 4.82441 13.1565 3.33203 14.9974 3.33203C16.8383 3.33203 18.3307 4.82441 18.3307 6.66536Z" stroke="#28694D" stroke-width="2" stroke-linecap="round" stroke-linejoin="round"/>
<path d="M20.8359 16.668H27.5026" stroke="#28694D" stroke-width="2" stroke-linecap="round" stroke-linejoin="round"/>
</svg>
