<svg width="24" height="24" viewBox="0 0 24 24" fill="none" xmlns="http://www.w3.org/2000/svg">
<g clip-path="url(#clip0_2585_2391)">
<path d="M11.0222 16.9333L18.4639 9.49167L16.9861 8.01389L11.0222 13.9778L8.01389 10.9694L6.53611 12.4472L11.0222 16.9333ZM5.11111 22C4.53056 22 4.03356 21.7933 3.62014 21.3799C3.20671 20.9664 3 20.4694 3 19.8889V5.11111C3 4.53056 3.20671 4.03356 3.62014 3.62014C4.03356 3.20671 4.53056 3 5.11111 3H19.8889C20.4694 3 20.9664 3.20671 21.3799 3.62014C21.7933 4.03356 22 4.53056 22 5.11111V19.8889C22 20.4694 21.7933 20.9664 21.3799 21.3799C20.9664 21.7933 20.4694 22 19.8889 22H5.11111ZM5.11111 19.8889H19.8889V5.11111H5.11111V19.8889Z" fill="#28694D"/>
<path d="M11.0222 16.9333L18.4639 9.49167L16.9861 8.01389L11.0222 13.9778L8.01389 10.9694L6.53611 12.4472L11.0222 16.9333ZM5.11111 22C4.53056 22 4.03356 21.7933 3.62014 21.3799C3.20671 20.9664 3 20.4694 3 19.8889V5.11111C3 4.53056 3.20671 4.03356 3.62014 3.62014C4.03356 3.20671 4.53056 3 5.11111 3H19.8889C20.4694 3 20.9664 3.20671 21.3799 3.62014C21.7933 4.03356 22 4.53056 22 5.11111V19.8889C22 20.4694 21.7933 20.9664 21.3799 21.3799C20.9664 21.7933 20.4694 22 19.8889 22H5.11111ZM5.11111 19.8889H19.8889V5.11111H5.11111V19.8889Z" fill="#28694D"/>
</g>
<defs>
<clipPath id="clip0_2585_2391">
<rect width="24" height="24" fill="white"/>
</clipPath>
</defs>
</svg>
