<svg width="20" height="20" viewBox="0 0 20 20" fill="none" xmlns="http://www.w3.org/2000/svg">
<path d="M10 10.7222V10" stroke="#FBFBF9" stroke-width="1.5" stroke-linecap="round" stroke-linejoin="round"/>
<path d="M10 10.7222V10" stroke="#FBFBF9" stroke-width="1.5" stroke-linecap="round" stroke-linejoin="round"/>
<path d="M14 10.7222V10" stroke="#FBFBF9" stroke-width="1.5" stroke-linecap="round" stroke-linejoin="round"/>
<path d="M14 10.7222V10" stroke="#FBFBF9" stroke-width="1.5" stroke-linecap="round" stroke-linejoin="round"/>
<path d="M6 10.7222V10" stroke="#FBFBF9" stroke-width="1.5" stroke-linecap="round" stroke-linejoin="round"/>
<path d="M6 10.7222V10" stroke="#FBFBF9" stroke-width="1.5" stroke-linecap="round" stroke-linejoin="round"/>
<path d="M10 19C14.9706 19 19 14.9706 19 10C19 5.02944 14.9706 1 10 1C5.02944 1 1 5.02944 1 10C1 11.4397 1.33805 12.8005 1.93911 14.0072C2.39285 14.9182 1.76327 16.1473 1.52336 17.044C1.29066 17.9137 2.08631 18.7093 2.95601 18.4766C3.85267 18.2367 5.0818 17.6071 5.99278 18.0609C7.19953 18.6619 8.56029 19 10 19Z" stroke="#FBFBF9" stroke-width="2" stroke-linecap="round" stroke-linejoin="round"/>
<path d="M10 19C14.9706 19 19 14.9706 19 10C19 5.02944 14.9706 1 10 1C5.02944 1 1 5.02944 1 10C1 11.4397 1.33805 12.8005 1.93911 14.0072C2.39285 14.9182 1.76327 16.1473 1.52336 17.044C1.29066 17.9137 2.08631 18.7093 2.95601 18.4766C3.85267 18.2367 5.0818 17.6071 5.99278 18.0609C7.19953 18.6619 8.56029 19 10 19Z" stroke="#FBFBF9" stroke-width="2" stroke-linecap="round" stroke-linejoin="round"/>
</svg>
