<svg width="32" height="32" viewBox="0 0 32 32" fill="none" xmlns="http://www.w3.org/2000/svg">
<path d="M9.33073 9.9987C13.0126 9.9987 15.9974 8.50631 15.9974 6.66536C15.9974 4.82442 13.0126 3.33203 9.33073 3.33203C5.64883 3.33203 2.66406 4.82442 2.66406 6.66536C2.66406 8.50631 5.64883 9.9987 9.33073 9.9987Z" stroke="#28694D" stroke-width="2" stroke-linecap="round" stroke-linejoin="round"/>
<path d="M2.66406 6.66797C2.66406 6.66797 2.66406 9.4937 2.66406 11.3346C2.66406 13.1756 5.64883 14.668 9.33073 14.668C13.0126 14.668 15.9974 13.1756 15.9974 11.3346C15.9974 10.2442 15.9974 6.66797 15.9974 6.66797" stroke="#28694D" stroke-width="2" stroke-linecap="round" stroke-linejoin="round"/>
<path d="M2.66406 11.332C2.66406 11.332 2.66406 14.1578 2.66406 15.9987C2.66406 17.8396 5.64883 19.332 9.33073 19.332C13.0126 19.332 15.9974 17.8396 15.9974 15.9987C15.9974 14.9083 15.9974 11.332 15.9974 11.332" stroke="#28694D" stroke-width="2" stroke-linecap="round" stroke-linejoin="round"/>
<path d="M2.66406 16C2.66406 16 2.66406 18.8257 2.66406 20.6667C2.66406 22.5076 5.64883 24 9.33073 24C13.0126 24 15.9974 22.5076 15.9974 20.6667C15.9974 19.5763 15.9974 16 15.9974 16" stroke="#28694D" stroke-width="2" stroke-linecap="round" stroke-linejoin="round"/>
<path d="M2.66406 20.668C2.66406 20.668 2.66406 23.4937 2.66406 25.3346C2.66406 27.1756 5.64883 28.668 9.33073 28.668C13.0126 28.668 15.9974 27.1756 15.9974 25.3346C15.9974 24.2442 15.9974 20.668 15.9974 20.668" stroke="#28694D" stroke-width="2" stroke-linecap="round" stroke-linejoin="round"/>
<path d="M22.6667 19.3346C26.3486 19.3346 29.3333 17.8423 29.3333 16.0013C29.3333 14.1604 26.3486 12.668 22.6667 12.668C18.9848 12.668 16 14.1604 16 16.0013C16 17.8423 18.9848 19.3346 22.6667 19.3346Z" stroke="#28694D" stroke-width="2" stroke-linecap="round" stroke-linejoin="round"/>
<path d="M16 16C16 16 16 18.8257 16 20.6667C16 22.5076 18.9848 24 22.6667 24C26.3485 24 29.3333 22.5076 29.3333 20.6667C29.3333 19.5763 29.3333 16 29.3333 16" stroke="#28694D" stroke-width="2" stroke-linecap="round" stroke-linejoin="round"/>
<path d="M16 20.668C16 20.668 16 23.4937 16 25.3346C16 27.1756 18.9848 28.668 22.6667 28.668C26.3485 28.668 29.3333 27.1756 29.3333 25.3346C29.3333 24.2442 29.3333 20.668 29.3333 20.668" stroke="#28694D" stroke-width="2" stroke-linecap="round" stroke-linejoin="round"/>
</svg>
