<svg width="50" height="50" viewBox="0 0 50 50" fill="none" xmlns="http://www.w3.org/2000/svg">
<rect width="50" height="50" rx="24.5" fill="#28694D"/>
<path d="M25 26.0816V25.3594" stroke="#FBFBF9" stroke-width="2" stroke-linecap="round" stroke-linejoin="round"/>
<path d="M25 26.0816V25.3594" stroke="#FBFBF9" stroke-width="2" stroke-linecap="round" stroke-linejoin="round"/>
<path d="M30.7812 26.0816V25.3594" stroke="#FBFBF9" stroke-width="2" stroke-linecap="round" stroke-linejoin="round"/>
<path d="M30.7812 26.0816V25.3594" stroke="#FBFBF9" stroke-width="2" stroke-linecap="round" stroke-linejoin="round"/>
<path d="M19.2188 26.0816V25.3594" stroke="#FBFBF9" stroke-width="2" stroke-linecap="round" stroke-linejoin="round"/>
<path d="M19.2188 26.0816V25.3594" stroke="#FBFBF9" stroke-width="2" stroke-linecap="round" stroke-linejoin="round"/>
<path d="M25 38C32.1797 38 38 32.1797 38 25C38 17.8203 32.1797 12 25 12C17.8203 12 12 17.8203 12 25C12 27.0796 12.4883 29.0451 13.3565 30.7882C14.0119 32.1041 13.1025 33.8795 12.756 35.1746C12.4198 36.4309 13.5691 37.5802 14.8254 37.244C16.1205 36.8975 17.8959 35.9881 19.2118 36.6435C20.9549 37.5117 22.9204 38 25 38Z" stroke="#FBFBF9" stroke-width="2" stroke-linecap="round" stroke-linejoin="round"/>
<path d="M25 38C32.1797 38 38 32.1797 38 25C38 17.8203 32.1797 12 25 12C17.8203 12 12 17.8203 12 25C12 27.0796 12.4883 29.0451 13.3565 30.7882C14.0119 32.1041 13.1025 33.8795 12.756 35.1746C12.4198 36.4309 13.5691 37.5802 14.8254 37.244C16.1205 36.8975 17.8959 35.9881 19.2118 36.6435C20.9549 37.5117 22.9204 38 25 38Z" stroke="#FBFBF9" stroke-width="2" stroke-linecap="round" stroke-linejoin="round"/>
</svg>
